0, 0, Header, 1, 6, 480
1, 0, Start_track
1, 0, Tempo, 461538
1, 0, Title_t, "Prelude In C Minor"
1, 0, Time_signature, 2, 2, 7, 10
1, 0, End_track
2, 0, Start_track
2, 0, Title_t, "Serg"
2, 0, Control_c, 0, 100, 0
2, 0, Control_c, 0, 101, 0
2, 0, Control_c, 0, 6, 2
2, 0, Pitch_bend_c, 0, 8192
2, 0, Control_c, 1, 100, 0
2, 0, Control_c, 1, 101, 0
2, 0, Control_c, 1, 6, 2
2, 0, Pitch_bend_c, 1, 8192
2, 0, Program_c, 0, 29
2, 0, Program_c, 1, 29
2, 0, Control_c, 0, 7, 120
2, 0, Control_c, 1, 7, 120
2, 0, Control_c, 0, 10, 48
2, 0, Control_c, 1, 10, 48
2, 0, Control_c, 0, 93, 64
2, 0, Control_c, 1, 93, 64
2, 0, Control_c, 0, 91, 112
2, 0, Control_c, 1, 91, 112
2, 0, Control_c, 0, 92, 0
2, 0, Control_c, 1, 92, 0
2, 0, Control_c, 0, 95, 0
2, 0, Control_c, 1, 95, 0
2, 0, Note_on_c, 0, 70, 95
2, 120, Note_off_c, 0, 70, 80
2, 120, Note_on_c, 0, 61, 95
2, 240, Note_off_c, 0, 61, 80
2, 240, Note_on_c, 0, 60, 95
2, 360, Note_off_c, 0, 60, 80
2, 360, Note_on_c, 0, 61, 95
2, 480, Note_off_c, 0, 61, 80
2, 480, Note_on_c, 0, 58, 95
2, 600, Note_off_c, 0, 58, 80
2, 600, Note_on_c, 0, 61, 95
2, 720, Note_off_c, 0, 61, 80
2, 720, Note_on_c, 0, 60, 95
2, 840, Note_off_c, 0, 60, 80
2, 840, Note_on_c, 0, 61, 95
2, 960, Note_off_c, 0, 61, 80
2, 960, Note_on_c, 0, 70, 95
2, 1080, Note_off_c, 0, 70, 80
2, 1080, Note_on_c, 0, 61, 95
2, 1200, Note_off_c, 0, 61, 80
2, 1200, Note_on_c, 0, 60, 95
2, 1320, Note_off_c, 0, 60, 80
2, 1320, Note_on_c, 0, 61, 95
2, 1440, Note_off_c, 0, 61, 80
2, 1440, Note_on_c, 0, 58, 95
2, 1560, Note_off_c, 0, 58, 80
2, 1560, Note_on_c, 0, 61, 95
2, 1680, Note_off_c, 0, 61, 80
2, 1680, Note_on_c, 0, 60, 95
2, 1800, Note_off_c, 0, 60, 80
2, 1800, Note_on_c, 0, 61, 95
2, 1920, Note_off_c, 0, 61, 80
2, 1920, Note_on_c, 0, 66, 95
2, 2040, Note_off_c, 0, 66, 80
2, 2040, Note_on_c, 0, 63, 95
2, 2160, Note_off_c, 0, 63, 80
2, 2160, Note_on_c, 0, 62, 95
2, 2280, Note_off_c, 0, 62, 80
2, 2280, Note_on_c, 0, 63, 95
2, 2400, Note_off_c, 0, 63, 80
2, 2400, Note_on_c, 0, 58, 95
2, 2520, Note_off_c, 0, 58, 80
2, 2520, Note_on_c, 0, 63, 95
2, 2640, Note_off_c, 0, 63, 80
2, 2640, Note_on_c, 0, 62, 95
2, 2760, Note_off_c, 0, 62, 80
2, 2760, Note_on_c, 0, 63, 95
2, 2880, Note_off_c, 0, 63, 80
2, 2880, Note_on_c, 0, 66, 95
2, 3000, Note_off_c, 0, 66, 80
2, 3000, Note_on_c, 0, 63, 95
2, 3120, Note_off_c, 0, 63, 80
2, 3120, Note_on_c, 0, 62, 95
2, 3240, Note_off_c, 0, 62, 80
2, 3240, Note_on_c, 0, 63, 95
2, 3360, Note_off_c, 0, 63, 80
2, 3360, Note_on_c, 0, 58, 95
2, 3480, Note_off_c, 0, 58, 80
2, 3480, Note_on_c, 0, 63, 95
2, 3600, Note_off_c, 0, 63, 80
2, 3600, Note_on_c, 0, 62, 95
2, 3720, Note_off_c, 0, 62, 80
2, 3720, Note_on_c, 0, 63, 95
2, 3840, Note_off_c, 0, 63, 80
2, 3840, Note_on_c, 0, 69, 95
2, 3960, Note_off_c, 0, 69, 80
2, 3960, Note_on_c, 0, 63, 95
2, 4080, Note_off_c, 0, 63, 80
2, 4080, Note_on_c, 0, 61, 95
2, 4200, Note_off_c, 0, 61, 80
2, 4200, Note_on_c, 0, 63, 95
2, 4320, Note_off_c, 0, 63, 80
2, 4320, Note_on_c, 0, 60, 95
2, 4440, Note_off_c, 0, 60, 80
2, 4440, Note_on_c, 0, 63, 95
2, 4560, Note_off_c, 0, 63, 80
2, 4560, Note_on_c, 0, 61, 95
2, 4680, Note_off_c, 0, 61, 80
2, 4680, Note_on_c, 0, 63, 95
2, 4800, Note_off_c, 0, 63, 80
2, 4800, Note_on_c, 0, 69, 95
2, 4920, Note_off_c, 0, 69, 80
2, 4920, Note_on_c, 0, 63, 95
2, 5040, Note_off_c, 0, 63, 80
2, 5040, Note_on_c, 0, 61, 95
2, 5160, Note_off_c, 0, 61, 80
2, 5160, Note_on_c, 0, 63, 95
2, 5280, Note_off_c, 0, 63, 80
2, 5280, Note_on_c, 0, 60, 95
2, 5400, Note_off_c, 0, 60, 80
2, 5400, Note_on_c, 0, 63, 95
2, 5520, Note_off_c, 0, 63, 80
2, 5520, Note_on_c, 0, 61, 95
2, 5640, Note_off_c, 0, 61, 80
2, 5640, Note_on_c, 0, 63, 95
2, 5760, Note_off_c, 0, 63, 80
2, 5760, Note_on_c, 0, 70, 95
2, 5880, Note_off_c, 0, 70, 80
2, 5880, Note_on_c, 0, 65, 95
2, 6000, Note_off_c, 0, 65, 80
2, 6000, Note_on_c, 0, 63, 95
2, 6120, Note_off_c, 0, 63, 80
2, 6120, Note_on_c, 0, 65, 95
2, 6240, Note_off_c, 0, 65, 80
2, 6240, Note_on_c, 0, 61, 95
2, 6240, Note_on_c, 0, 53, 95
2, 6240, Note_on_c, 0, 48, 95
2, 6240, Note_on_c, 0, 41, 95
2, 6360, Note_off_c, 0, 61, 80
2, 6360, Note_on_c, 0, 65, 95
2, 6480, Note_off_c, 0, 65, 80
2, 6480, Note_on_c, 0, 63, 95
2, 6600, Note_off_c, 0, 63, 80
2, 6600, Note_on_c, 0, 65, 95
2, 6720, Note_off_c, 0, 65, 80
2, 6720, Note_on_c, 0, 70, 95
2, 6840, Note_off_c, 0, 70, 80
2, 6840, Note_on_c, 0, 65, 95
2, 6960, Note_off_c, 0, 65, 80
2, 6960, Note_on_c, 0, 63, 95
2, 7080, Note_off_c, 0, 63, 80
2, 7080, Note_on_c, 0, 65, 95
2, 7200, Note_off_c, 0, 65, 80
2, 7200, Note_on_c, 0, 61, 95
2, 7320, Note_off_c, 0, 61, 80
2, 7320, Note_on_c, 0, 65, 95
2, 7440, Note_off_c, 0, 65, 80
2, 7440, Note_on_c, 0, 63, 95
2, 7560, Note_off_c, 0, 63, 80
2, 7560, Note_on_c, 0, 65, 95
2, 7680, Note_off_c, 0, 65, 80
2, 7680, Note_on_c, 0, 70, 95
2, 7680, Note_on_c, 0, 51, 95
2, 7680, Note_on_c, 0, 46, 95
2, 7680, Note_on_c, 0, 39, 95
2, 7800, Note_off_c, 0, 70, 80
2, 7800, Note_on_c, 0, 65, 95
2, 7920, Note_off_c, 0, 65, 80
2, 7920, Note_on_c, 0, 63, 95
2, 8040, Note_off_c, 0, 63, 80
2, 8040, Note_on_c, 0, 65, 95
2, 8160, Note_off_c, 0, 65, 80
2, 8160, Note_on_c, 0, 61, 95
2, 8280, Note_off_c, 0, 61, 80
2, 8280, Note_on_c, 0, 65, 95
2, 8400, Note_off_c, 0, 65, 80
2, 8400, Note_on_c, 0, 63, 95
2, 8520, Note_off_c, 0, 63, 80
2, 8520, Note_on_c, 0, 65, 95
2, 8640, Note_off_c, 0, 65, 80
2, 8640, Note_on_c, 0, 70, 95
2, 8760, Note_off_c, 0, 70, 80
2, 8760, Note_on_c, 0, 65, 95
2, 8880, Note_off_c, 0, 65, 80
2, 8880, Note_on_c, 0, 63, 95
2, 9000, Note_off_c, 0, 63, 80
2, 9000, Note_on_c, 0, 65, 95
2, 9120, Note_off_c, 0, 53, 80
2, 9120, Note_off_c, 0, 48, 80
2, 9120, Note_off_c, 0, 41, 80
2, 9120, Note_off_c, 0, 65, 80
2, 9120, Note_on_c, 0, 61, 95
2, 9240, Note_off_c, 0, 61, 80
2, 9240, Note_on_c, 0, 65, 95
2, 9360, Note_off_c, 0, 65, 80
2, 9360, Note_on_c, 0, 63, 95
2, 9480, Note_off_c, 0, 63, 80
2, 9480, Note_on_c, 0, 65, 95
2, 9600, Note_off_c, 0, 51, 80
2, 9600, Note_off_c, 0, 46, 80
2, 9600, Note_off_c, 0, 39, 80
2, 9600, Note_off_c, 0, 65, 80
2, 9600, Note_on_c, 0, 70, 95
2, 9720, Note_off_c, 0, 70, 80
2, 9720, Note_on_c, 0, 61, 95
2, 9840, Note_off_c, 0, 61, 80
2, 9840, Note_on_c, 0, 60, 95
2, 9960, Note_off_c, 0, 60, 80
2, 9960, Note_on_c, 0, 61, 95
2, 10080, Note_off_c, 0, 61, 80
2, 10080, Note_on_c, 0, 58, 95
2, 10200, Note_off_c, 0, 58, 80
2, 10200, Note_on_c, 0, 61, 95
2, 10320, Note_off_c, 0, 61, 80
2, 10320, Note_on_c, 0, 60, 95
2, 10440, Note_off_c, 0, 60, 80
2, 10440, Note_on_c, 0, 61, 95
2, 10560, Note_off_c, 0, 61, 80
2, 10560, Note_on_c, 0, 70, 95
2, 10680, Note_off_c, 0, 70, 80
2, 10680, Note_on_c, 0, 61, 95
2, 10800, Note_off_c, 0, 61, 80
2, 10800, Note_on_c, 0, 60, 95
2, 10920, Note_off_c, 0, 60, 80
2, 10920, Note_on_c, 0, 61, 95
2, 11040, Note_off_c, 0, 61, 80
2, 11040, Note_on_c, 0, 58, 95
2, 11160, Note_off_c, 0, 58, 80
2, 11160, Note_on_c, 0, 61, 95
2, 11280, Note_off_c, 0, 61, 80
2, 11280, Note_on_c, 0, 60, 95
2, 11400, Note_off_c, 0, 60, 80
2, 11400, Note_on_c, 0, 61, 95
2, 11520, Note_off_c, 0, 61, 80
2, 11520, Note_on_c, 0, 66, 95
2, 11640, Note_off_c, 0, 66, 80
2, 11640, Note_on_c, 0, 63, 95
2, 11760, Note_off_c, 0, 63, 80
2, 11760, Note_on_c, 0, 62, 95
2, 11880, Note_off_c, 0, 62, 80
2, 11880, Note_on_c, 0, 63, 95
2, 12000, Note_off_c, 0, 63, 80
2, 12000, Note_on_c, 0, 58, 95
2, 12120, Note_off_c, 0, 58, 80
2, 12120, Note_on_c, 0, 63, 95
2, 12240, Note_off_c, 0, 63, 80
2, 12240, Note_on_c, 0, 62, 95
2, 12360, Note_off_c, 0, 62, 80
2, 12360, Note_on_c, 0, 63, 95
2, 12480, Note_off_c, 0, 63, 80
2, 12480, Note_on_c, 0, 66, 95
2, 12600, Note_off_c, 0, 66, 80
2, 12600, Note_on_c, 0, 63, 95
2, 12720, Note_off_c, 0, 63, 80
2, 12720, Note_on_c, 0, 62, 95
2, 12840, Note_off_c, 0, 62, 80
2, 12840, Note_on_c, 0, 63, 95
2, 12960, Note_off_c, 0, 63, 80
2, 12960, Note_on_c, 0, 58, 95
2, 13080, Note_off_c, 0, 58, 80
2, 13080, Note_on_c, 0, 63, 95
2, 13200, Note_off_c, 0, 63, 80
2, 13200, Note_on_c, 0, 62, 95
2, 13320, Note_off_c, 0, 62, 80
2, 13320, Note_on_c, 0, 63, 95
2, 13440, Note_off_c, 0, 63, 80
2, 13440, Note_on_c, 0, 69, 95
2, 13560, Note_off_c, 0, 69, 80
2, 13560, Note_on_c, 0, 63, 95
2, 13680, Note_off_c, 0, 63, 80
2, 13680, Note_on_c, 0, 61, 95
2, 13800, Note_off_c, 0, 61, 80
2, 13800, Note_on_c, 0, 63, 95
2, 13920, Note_off_c, 0, 63, 80
2, 13920, Note_on_c, 0, 60, 95
2, 14040, Note_off_c, 0, 60, 80
2, 14040, Note_on_c, 0, 63, 95
2, 14160, Note_off_c, 0, 63, 80
2, 14160, Note_on_c, 0, 61, 95
2, 14280, Note_off_c, 0, 61, 80
2, 14280, Note_on_c, 0, 63, 95
2, 14400, Note_off_c, 0, 63, 80
2, 14400, Note_on_c, 0, 69, 95
2, 14520, Note_off_c, 0, 69, 80
2, 14520, Note_on_c, 0, 63, 95
2, 14640, Note_off_c, 0, 63, 80
2, 14640, Note_on_c, 0, 61, 95
2, 14760, Note_off_c, 0, 61, 80
2, 14760, Note_on_c, 0, 63, 95
2, 14880, Note_off_c, 0, 63, 80
2, 14880, Note_on_c, 0, 60, 95
2, 15000, Note_off_c, 0, 60, 80
2, 15000, Note_on_c, 0, 63, 95
2, 15120, Note_off_c, 0, 63, 80
2, 15120, Note_on_c, 0, 61, 95
2, 15240, Note_off_c, 0, 61, 80
2, 15240, Note_on_c, 0, 63, 95
2, 15360, Note_off_c, 0, 63, 80
2, 15360, Note_on_c, 0, 70, 95
2, 15480, Note_off_c, 0, 70, 80
2, 15480, Note_on_c, 0, 65, 95
2, 15600, Note_off_c, 0, 65, 80
2, 15600, Note_on_c, 0, 63, 95
2, 15720, Note_off_c, 0, 63, 80
2, 15720, Note_on_c, 0, 65, 95
2, 15840, Note_off_c, 0, 65, 80
2, 15840, Note_on_c, 0, 61, 95
2, 15960, Note_off_c, 0, 61, 80
2, 15960, Note_on_c, 0, 65, 95
2, 16080, Note_off_c, 0, 65, 80
2, 16080, Note_on_c, 0, 63, 95
2, 16200, Note_off_c, 0, 63, 80
2, 16200, Note_on_c, 0, 65, 95
2, 16320, Note_off_c, 0, 65, 80
2, 16320, Note_on_c, 0, 70, 95
2, 16440, Note_off_c, 0, 70, 80
2, 16440, Note_on_c, 0, 65, 95
2, 16560, Note_off_c, 0, 65, 80
2, 16560, Note_on_c, 0, 63, 95
2, 16680, Note_off_c, 0, 63, 80
2, 16680, Note_on_c, 0, 65, 95
2, 16800, Note_off_c, 0, 65, 80
2, 16800, Note_on_c, 0, 61, 95
2, 16920, Note_off_c, 0, 61, 80
2, 16920, Note_on_c, 0, 65, 95
2, 17040, Note_off_c, 0, 65, 80
2, 17040, Note_on_c, 0, 63, 95
2, 17160, Note_off_c, 0, 63, 80
2, 17160, Note_on_c, 0, 65, 95
2, 17280, Note_off_c, 0, 65, 80
2, 17280, Note_on_c, 0, 70, 95
2, 17400, Note_off_c, 0, 70, 80
2, 17400, Note_on_c, 0, 65, 95
2, 17520, Note_off_c, 0, 65, 80
2, 17520, Note_on_c, 0, 63, 95
2, 17640, Note_off_c, 0, 63, 80
2, 17640, Note_on_c, 0, 65, 95
2, 17760, Note_off_c, 0, 65, 80
2, 17760, Note_on_c, 0, 61, 95
2, 17880, Note_off_c, 0, 61, 80
2, 17880, Note_on_c, 0, 65, 95
2, 18000, Note_off_c, 0, 65, 80
2, 18000, Note_on_c, 0, 63, 95
2, 18120, Note_off_c, 0, 63, 80
2, 18120, Note_on_c, 0, 65, 95
2, 18240, Note_off_c, 0, 65, 80
2, 18240, Note_on_c, 0, 70, 95
2, 18360, Note_off_c, 0, 70, 80
2, 18360, Note_on_c, 0, 65, 95
2, 18480, Note_off_c, 0, 65, 80
2, 18480, Note_on_c, 0, 63, 95
2, 18600, Note_off_c, 0, 63, 80
2, 18600, Note_on_c, 0, 65, 95
2, 18720, Note_off_c, 0, 65, 80
2, 18720, Note_on_c, 0, 61, 95
2, 18840, Note_off_c, 0, 61, 80
2, 18840, Note_on_c, 0, 65, 95
2, 18960, Note_off_c, 0, 65, 80
2, 18960, Note_on_c, 0, 63, 95
2, 19080, Note_off_c, 0, 63, 80
2, 19080, Note_on_c, 0, 65, 95
2, 19200, Note_off_c, 0, 65, 80
2, 19200, Note_on_c, 0, 70, 95
2, 19320, Note_off_c, 0, 70, 80
2, 19320, Note_on_c, 0, 61, 95
2, 19440, Note_off_c, 0, 61, 80
2, 19440, Note_on_c, 0, 60, 95
2, 19560, Note_off_c, 0, 60, 80
2, 19560, Note_on_c, 0, 61, 95
2, 19680, Note_off_c, 0, 61, 80
2, 19680, Note_on_c, 0, 58, 95
2, 19800, Note_off_c, 0, 58, 80
2, 19800, Note_on_c, 0, 61, 95
2, 19920, Note_off_c, 0, 61, 80
2, 19920, Note_on_c, 0, 60, 95
2, 20040, Note_off_c, 0, 60, 80
2, 20040, Note_on_c, 0, 61, 95
2, 20160, Note_off_c, 0, 61, 80
2, 20160, Note_on_c, 0, 70, 95
2, 20280, Note_off_c, 0, 70, 80
2, 20280, Note_on_c, 0, 61, 95
2, 20400, Note_off_c, 0, 61, 80
2, 20400, Note_on_c, 0, 60, 95
2, 20520, Note_off_c, 0, 60, 80
2, 20520, Note_on_c, 0, 61, 95
2, 20640, Note_off_c, 0, 61, 80
2, 20640, Note_on_c, 0, 58, 95
2, 20760, Note_off_c, 0, 58, 80
2, 20760, Note_on_c, 0, 61, 95
2, 20880, Note_off_c, 0, 61, 80
2, 20880, Note_on_c, 0, 60, 95
2, 21000, Note_off_c, 0, 60, 80
2, 21000, Note_on_c, 0, 61, 95
2, 21120, Note_off_c, 0, 61, 80
2, 21120, Note_on_c, 0, 70, 95
2, 21240, Note_off_c, 0, 70, 80
2, 21240, Note_on_c, 0, 61, 95
2, 21360, Note_off_c, 0, 61, 80
2, 21360, Note_on_c, 0, 60, 95
2, 21480, Note_off_c, 0, 60, 80
2, 21480, Note_on_c, 0, 61, 95
2, 21600, Note_off_c, 0, 61, 80
2, 21600, Note_on_c, 0, 58, 95
2, 21720, Note_off_c, 0, 58, 80
2, 21720, Note_on_c, 0, 61, 95
2, 21840, Note_off_c, 0, 61, 80
2, 21840, Note_on_c, 0, 60, 95
2, 21960, Note_off_c, 0, 60, 80
2, 21960, Note_on_c, 0, 61, 95
2, 22080, Note_off_c, 0, 61, 80
2, 22080, Note_on_c, 0, 70, 95
2, 22200, Note_off_c, 0, 70, 80
2, 22200, Note_on_c, 0, 61, 95
2, 22320, Note_off_c, 0, 61, 80
2, 22320, Note_on_c, 0, 60, 95
2, 22440, Note_off_c, 0, 60, 80
2, 22440, Note_on_c, 0, 61, 95
2, 22560, Note_off_c, 0, 61, 80
2, 22560, Note_on_c, 0, 58, 95
2, 22680, Note_off_c, 0, 58, 80
2, 22680, Note_on_c, 0, 61, 95
2, 22800, Note_off_c, 0, 61, 80
2, 22800, Note_on_c, 0, 60, 95
2, 22920, Note_off_c, 0, 60, 80
2, 22920, Note_on_c, 0, 61, 95
2, 23040, Note_off_c, 0, 61, 80
2, 23040, Note_on_c, 0, 66, 95
2, 23160, Note_off_c, 0, 66, 80
2, 23160, Note_on_c, 0, 63, 95
2, 23280, Note_off_c, 0, 63, 80
2, 23280, Note_on_c, 0, 62, 95
2, 23400, Note_off_c, 0, 62, 80
2, 23400, Note_on_c, 0, 63, 95
2, 23520, Note_off_c, 0, 63, 80
2, 23520, Note_on_c, 0, 58, 95
2, 23640, Note_off_c, 0, 58, 80
2, 23640, Note_on_c, 0, 63, 95
2, 23760, Note_off_c, 0, 63, 80
2, 23760, Note_on_c, 0, 62, 95
2, 23880, Note_off_c, 0, 62, 80
2, 23880, Note_on_c, 0, 63, 95
2, 24000, Note_off_c, 0, 63, 80
2, 24000, Note_on_c, 0, 66, 95
2, 24120, Note_off_c, 0, 66, 80
2, 24120, Note_on_c, 0, 63, 95
2, 24240, Note_off_c, 0, 63, 80
2, 24240, Note_on_c, 0, 62, 95
2, 24360, Note_off_c, 0, 62, 80
2, 24360, Note_on_c, 0, 63, 95
2, 24480, Note_off_c, 0, 63, 80
2, 24480, Note_on_c, 0, 58, 95
2, 24600, Note_off_c, 0, 58, 80
2, 24600, Note_on_c, 0, 63, 95
2, 24720, Note_off_c, 0, 63, 80
2, 24720, Note_on_c, 0, 62, 95
2, 24840, Note_off_c, 0, 62, 80
2, 24840, Note_on_c, 0, 63, 95
2, 24960, Note_off_c, 0, 63, 80
2, 24960, Note_on_c, 0, 69, 95
2, 25080, Note_off_c, 0, 69, 80
2, 25080, Note_on_c, 0, 63, 95
2, 25200, Note_off_c, 0, 63, 80
2, 25200, Note_on_c, 0, 61, 95
2, 25320, Note_off_c, 0, 61, 80
2, 25320, Note_on_c, 0, 63, 95
2, 25440, Note_off_c, 0, 63, 80
2, 25440, Note_on_c, 0, 60, 95
2, 25560, Note_off_c, 0, 60, 80
2, 25560, Note_on_c, 0, 63, 95
2, 25680, Note_off_c, 0, 63, 80
2, 25680, Note_on_c, 0, 61, 95
2, 25800, Note_off_c, 0, 61, 80
2, 25800, Note_on_c, 0, 63, 95
2, 25920, Note_off_c, 0, 63, 80
2, 25920, Note_on_c, 0, 69, 95
2, 26040, Note_off_c, 0, 69, 80
2, 26040, Note_on_c, 0, 63, 95
2, 26160, Note_off_c, 0, 63, 80
2, 26160, Note_on_c, 0, 61, 95
2, 26280, Note_off_c, 0, 61, 80
2, 26280, Note_on_c, 0, 63, 95
2, 26400, Note_off_c, 0, 63, 80
2, 26400, Note_on_c, 0, 60, 95
2, 26520, Note_off_c, 0, 60, 80
2, 26520, Note_on_c, 0, 63, 95
2, 26640, Note_off_c, 0, 63, 80
2, 26640, Note_on_c, 0, 61, 95
2, 26760, Note_off_c, 0, 61, 80
2, 26760, Note_on_c, 0, 63, 95
2, 26880, Note_off_c, 0, 63, 80
2, 26880, Note_on_c, 0, 70, 95
2, 27000, Note_off_c, 0, 70, 80
2, 27000, Note_on_c, 0, 65, 95
2, 27120, Note_off_c, 0, 65, 80
2, 27120, Note_on_c, 0, 63, 95
2, 27240, Note_off_c, 0, 63, 80
2, 27240, Note_on_c, 0, 65, 95
2, 27360, Note_off_c, 0, 65, 80
2, 27360, Note_on_c, 0, 61, 95
2, 27480, Note_off_c, 0, 61, 80
2, 27480, Note_on_c, 0, 65, 95
2, 27600, Note_off_c, 0, 65, 80
2, 27600, Note_on_c, 0, 63, 95
2, 27720, Note_off_c, 0, 63, 80
2, 27720, Note_on_c, 0, 65, 95
2, 27840, Note_off_c, 0, 65, 80
2, 27840, Note_on_c, 0, 70, 95
2, 27960, Note_off_c, 0, 70, 80
2, 27960, Note_on_c, 0, 65, 95
2, 28080, Note_off_c, 0, 65, 80
2, 28080, Note_on_c, 0, 63, 95
2, 28200, Note_off_c, 0, 63, 80
2, 28200, Note_on_c, 0, 65, 95
2, 28320, Note_off_c, 0, 65, 80
2, 28320, Note_on_c, 0, 61, 95
2, 28440, Note_off_c, 0, 61, 80
2, 28440, Note_on_c, 0, 65, 95
2, 28560, Note_off_c, 0, 65, 80
2, 28560, Note_on_c, 0, 63, 95
2, 28680, Note_off_c, 0, 63, 80
2, 28680, Note_on_c, 0, 65, 95
2, 28800, Note_off_c, 0, 65, 80
2, 28800, Note_on_c, 0, 70, 95
2, 28920, Note_off_c, 0, 70, 80
2, 28920, Note_on_c, 0, 61, 95
2, 29040, Note_off_c, 0, 61, 80
2, 29040, Note_on_c, 0, 60, 95
2, 29160, Note_off_c, 0, 60, 80
2, 29160, Note_on_c, 0, 61, 95
2, 29280, Note_off_c, 0, 61, 80
2, 29280, Note_on_c, 0, 58, 95
2, 29400, Note_off_c, 0, 58, 80
2, 29400, Note_on_c, 0, 61, 95
2, 29520, Note_off_c, 0, 61, 80
2, 29520, Note_on_c, 0, 60, 95
2, 29640, Note_off_c, 0, 60, 80
2, 29640, Note_on_c, 0, 61, 95
2, 29760, Note_off_c, 0, 61, 80
2, 29760, Note_on_c, 0, 70, 95
2, 29880, Note_off_c, 0, 70, 80
2, 29880, Note_on_c, 0, 61, 95
2, 30000, Note_off_c, 0, 61, 80
2, 30000, Note_on_c, 0, 60, 95
2, 30120, Note_off_c, 0, 60, 80
2, 30120, Note_on_c, 0, 61, 95
2, 30240, Note_off_c, 0, 61, 80
2, 30240, Note_on_c, 0, 58, 95
2, 30360, Note_off_c, 0, 58, 80
2, 30360, Note_on_c, 0, 61, 95
2, 30480, Note_off_c, 0, 61, 80
2, 30480, Note_on_c, 0, 60, 95
2, 30600, Note_off_c, 0, 60, 80
2, 30600, Note_on_c, 0, 61, 95
2, 30720, Note_off_c, 0, 61, 80
2, 30720, Note_on_c, 0, 66, 95
2, 30840, Note_off_c, 0, 66, 80
2, 30840, Note_on_c, 0, 63, 95
2, 30960, Note_off_c, 0, 63, 80
2, 30960, Note_on_c, 0, 62, 95
2, 31080, Note_off_c, 0, 62, 80
2, 31080, Note_on_c, 0, 63, 95
2, 31200, Note_off_c, 0, 63, 80
2, 31200, Note_on_c, 0, 58, 95
2, 31320, Note_off_c, 0, 58, 80
2, 31320, Note_on_c, 0, 63, 95
2, 31440, Note_off_c, 0, 63, 80
2, 31440, Note_on_c, 0, 62, 95
2, 31560, Note_off_c, 0, 62, 80
2, 31560, Note_on_c, 0, 63, 95
2, 31680, Note_off_c, 0, 63, 80
2, 31680, Note_on_c, 0, 66, 95
2, 31800, Note_off_c, 0, 66, 80
2, 31800, Note_on_c, 0, 63, 95
2, 31920, Note_off_c, 0, 63, 80
2, 31920, Note_on_c, 0, 62, 95
2, 32040, Note_off_c, 0, 62, 80
2, 32040, Note_on_c, 0, 63, 95
2, 32160, Note_off_c, 0, 63, 80
2, 32160, Note_on_c, 0, 58, 95
2, 32280, Note_off_c, 0, 58, 80
2, 32280, Note_on_c, 0, 63, 95
2, 32400, Note_off_c, 0, 63, 80
2, 32400, Note_on_c, 0, 62, 95
2, 32520, Note_off_c, 0, 62, 80
2, 32520, Note_on_c, 0, 63, 95
2, 32640, Note_off_c, 0, 63, 80
2, 32640, Note_on_c, 0, 69, 95
2, 32760, Note_off_c, 0, 69, 80
2, 32760, Note_on_c, 0, 63, 95
2, 32880, Note_off_c, 0, 63, 80
2, 32880, Note_on_c, 0, 61, 95
2, 33000, Note_off_c, 0, 61, 80
2, 33000, Note_on_c, 0, 63, 95
2, 33120, Note_off_c, 0, 63, 80
2, 33120, Note_on_c, 0, 60, 95
2, 33240, Note_off_c, 0, 60, 80
2, 33240, Note_on_c, 0, 63, 95
2, 33360, Note_off_c, 0, 63, 80
2, 33360, Note_on_c, 0, 61, 95
2, 33480, Note_off_c, 0, 61, 80
2, 33480, Note_on_c, 0, 63, 95
2, 33600, Note_off_c, 0, 63, 80
2, 33600, Note_on_c, 0, 69, 95
2, 33720, Note_off_c, 0, 69, 80
2, 33720, Note_on_c, 0, 63, 95
2, 33840, Note_off_c, 0, 63, 80
2, 33840, Note_on_c, 0, 61, 95
2, 33960, Note_off_c, 0, 61, 80
2, 33960, Note_on_c, 0, 63, 95
2, 34080, Note_off_c, 0, 63, 80
2, 34080, Note_on_c, 0, 60, 95
2, 34200, Note_off_c, 0, 60, 80
2, 34200, Note_on_c, 0, 63, 95
2, 34320, Note_off_c, 0, 63, 80
2, 34320, Note_on_c, 0, 61, 95
2, 34440, Note_off_c, 0, 61, 80
2, 34440, Note_on_c, 0, 63, 95
2, 34560, Note_off_c, 0, 63, 80
2, 34560, Note_on_c, 0, 70, 95
2, 34680, Note_off_c, 0, 70, 80
2, 34680, Note_on_c, 0, 65, 95
2, 34800, Note_off_c, 0, 65, 80
2, 34800, Note_on_c, 0, 63, 95
2, 34920, Note_off_c, 0, 63, 80
2, 34920, Note_on_c, 0, 65, 95
2, 35040, Note_off_c, 0, 65, 80
2, 35040, Note_on_c, 0, 61, 95
2, 35160, Note_off_c, 0, 61, 80
2, 35160, Note_on_c, 0, 65, 95
2, 35280, Note_off_c, 0, 65, 80
2, 35280, Note_on_c, 0, 63, 95
2, 35400, Note_off_c, 0, 63, 80
2, 35400, Note_on_c, 0, 65, 95
2, 35520, Note_off_c, 0, 65, 80
2, 35520, Note_on_c, 0, 70, 95
2, 35640, Note_off_c, 0, 70, 80
2, 35640, Note_on_c, 0, 65, 95
2, 35760, Note_off_c, 0, 65, 80
2, 35760, Note_on_c, 0, 63, 95
2, 35880, Note_off_c, 0, 63, 80
2, 35880, Note_on_c, 0, 65, 95
2, 36000, Note_off_c, 0, 65, 80
2, 36000, Note_on_c, 0, 61, 95
2, 36120, Note_off_c, 0, 61, 80
2, 36120, Note_on_c, 0, 65, 95
2, 36240, Note_off_c, 0, 65, 80
2, 36240, Note_on_c, 0, 63, 95
2, 36360, Note_off_c, 0, 63, 80
2, 36360, Note_on_c, 0, 65, 95
2, 36480, Note_off_c, 0, 65, 80
2, 36480, Note_on_c, 0, 70, 95
2, 36600, Note_off_c, 0, 70, 80
2, 36600, Note_on_c, 0, 65, 95
2, 36720, Note_off_c, 0, 65, 80
2, 36720, Note_on_c, 0, 63, 95
2, 36840, Note_off_c, 0, 63, 80
2, 36840, Note_on_c, 0, 65, 95
2, 36960, Note_off_c, 0, 65, 80
2, 36960, Note_on_c, 0, 61, 95
2, 37080, Note_off_c, 0, 61, 80
2, 37080, Note_on_c, 0, 65, 95
2, 37200, Note_off_c, 0, 65, 80
2, 37200, Note_on_c, 0, 63, 95
2, 37320, Note_off_c, 0, 63, 80
2, 37320, Note_on_c, 0, 65, 95
2, 37440, Note_off_c, 0, 65, 80
2, 37440, Note_on_c, 0, 70, 95
2, 37560, Note_off_c, 0, 70, 80
2, 37560, Note_on_c, 0, 65, 95
2, 37680, Note_off_c, 0, 65, 80
2, 37680, Note_on_c, 0, 63, 95
2, 37800, Note_off_c, 0, 63, 80
2, 37800, Note_on_c, 0, 65, 95
2, 37920, Note_off_c, 0, 65, 80
2, 37920, Note_on_c, 0, 61, 95
2, 38040, Note_off_c, 0, 61, 80
2, 38040, Note_on_c, 0, 65, 95
2, 38160, Note_off_c, 0, 65, 80
2, 38160, Note_on_c, 0, 63, 95
2, 38280, Note_off_c, 0, 63, 80
2, 38280, Note_on_c, 0, 65, 95
2, 38400, Note_off_c, 0, 65, 80
2, 44160, Note_on_c, 0, 66, 95
2, 44280, Note_off_c, 0, 66, 80
2, 44280, Note_on_c, 0, 65, 95
2, 44400, Note_off_c, 0, 65, 80
2, 44400, Note_on_c, 0, 63, 95
2, 44520, Note_off_c, 0, 63, 80
2, 44520, Note_on_c, 0, 65, 95
2, 44640, Note_off_c, 0, 65, 80
2, 44640, Note_on_c, 0, 61, 95
2, 44760, Note_off_c, 0, 61, 80
2, 44760, Note_on_c, 0, 65, 95
2, 44880, Note_off_c, 0, 65, 80
2, 44880, Note_on_c, 0, 63, 95
2, 45000, Note_off_c, 0, 63, 80
2, 45000, Note_on_c, 0, 65, 95
2, 45120, Note_off_c, 0, 65, 80
2, 45120, Note_on_c, 0, 66, 95
2, 45240, Note_off_c, 0, 66, 80
2, 45240, Note_on_c, 0, 65, 95
2, 45360, Note_off_c, 0, 65, 80
2, 45360, Note_on_c, 0, 63, 95
2, 45480, Note_off_c, 0, 63, 80
2, 45480, Note_on_c, 0, 65, 95
2, 45600, Note_off_c, 0, 65, 80
2, 45600, Note_on_c, 0, 61, 95
2, 45720, Note_off_c, 0, 61, 80
2, 45720, Note_on_c, 0, 65, 95
2, 45840, Note_off_c, 0, 65, 80
2, 45840, Note_on_c, 0, 63, 95
2, 45960, Note_off_c, 0, 63, 80
2, 45960, Note_on_c, 0, 65, 95
2, 46080, Note_off_c, 0, 65, 80
2, 46080, Note_on_c, 0, 66, 95
2, 46200, Note_off_c, 0, 66, 80
2, 46200, Note_on_c, 0, 60, 95
2, 46320, Note_off_c, 0, 60, 80
2, 46320, Note_on_c, 0, 58, 95
2, 46440, Note_off_c, 0, 58, 80
2, 46440, Note_on_c, 0, 60, 95
2, 46560, Note_off_c, 0, 60, 80
2, 46560, Note_on_c, 0, 56, 95
2, 46680, Note_off_c, 0, 56, 80
2, 46680, Note_on_c, 0, 60, 95
2, 46800, Note_off_c, 0, 60, 80
2, 46800, Note_on_c, 0, 58, 95
2, 46920, Note_off_c, 0, 58, 80
2, 46920, Note_on_c, 0, 60, 95
2, 47040, Note_off_c, 0, 60, 80
2, 47040, Note_on_c, 0, 66, 95
2, 47160, Note_off_c, 0, 66, 80
2, 47160, Note_on_c, 0, 60, 95
2, 47280, Note_off_c, 0, 60, 80
2, 47280, Note_on_c, 0, 58, 95
2, 47400, Note_off_c, 0, 58, 80
2, 47400, Note_on_c, 0, 60, 95
2, 47520, Note_off_c, 0, 60, 80
2, 47520, Note_on_c, 0, 56, 95
2, 47640, Note_off_c, 0, 56, 80
2, 47640, Note_on_c, 0, 60, 95
2, 47760, Note_off_c, 0, 60, 80
2, 47760, Note_on_c, 0, 58, 95
2, 47880, Note_off_c, 0, 58, 80
2, 47880, Note_on_c, 0, 60, 95
2, 48000, Note_off_c, 0, 60, 80
2, 48000, Note_on_c, 0, 65, 95
2, 48120, Note_off_c, 0, 65, 80
2, 48120, Note_on_c, 0, 56, 95
2, 48240, Note_off_c, 0, 56, 80
2, 48240, Note_on_c, 0, 54, 95
2, 48360, Note_off_c, 0, 54, 80
2, 48360, Note_on_c, 0, 56, 95
2, 48480, Note_off_c, 0, 56, 80
2, 48480, Note_on_c, 0, 61, 95
2, 48600, Note_off_c, 0, 61, 80
2, 48600, Note_on_c, 0, 56, 95
2, 48720, Note_off_c, 0, 56, 80
2, 48720, Note_on_c, 0, 54, 95
2, 48840, Note_off_c, 0, 54, 80
2, 48840, Note_on_c, 0, 56, 95
2, 48960, Note_off_c, 0, 56, 80
2, 48960, Note_on_c, 0, 65, 95
2, 49080, Note_off_c, 0, 65, 80
2, 49080, Note_on_c, 0, 56, 95
2, 49200, Note_off_c, 0, 56, 80
2, 49200, Note_on_c, 0, 54, 95
2, 49320, Note_off_c, 0, 54, 80
2, 49320, Note_on_c, 0, 56, 95
2, 49440, Note_off_c, 0, 56, 80
2, 49440, Note_on_c, 0, 61, 95
2, 49560, Note_off_c, 0, 61, 80
2, 49560, Note_on_c, 0, 56, 95
2, 49680, Note_off_c, 0, 56, 80
2, 49680, Note_on_c, 0, 54, 95
2, 49800, Note_off_c, 0, 54, 80
2, 49800, Note_on_c, 0, 56, 95
2, 49920, Note_off_c, 0, 56, 80
2, 49920, Note_on_c, 0, 63, 95
2, 50040, Note_off_c, 0, 63, 80
2, 50040, Note_on_c, 0, 58, 95
2, 50160, Note_off_c, 0, 58, 80
2, 50160, Note_on_c, 0, 56, 95
2, 50280, Note_off_c, 0, 56, 80
2, 50280, Note_on_c, 0, 58, 95
2, 50400, Note_off_c, 0, 58, 80
2, 50400, Note_on_c, 0, 55, 95
2, 50520, Note_off_c, 0, 55, 80
2, 50520, Note_on_c, 0, 58, 95
2, 50640, Note_off_c, 0, 58, 80
2, 50640, Note_on_c, 0, 56, 95
2, 50760, Note_off_c, 0, 56, 80
2, 50760, Note_on_c, 0, 58, 95
2, 50880, Note_off_c, 0, 58, 80
2, 50880, Note_on_c, 0, 63, 95
2, 51000, Note_off_c, 0, 63, 80
2, 51000, Note_on_c, 0, 58, 95
2, 51120, Note_off_c, 0, 58, 80
2, 51120, Note_on_c, 0, 56, 95
2, 51240, Note_off_c, 0, 56, 80
2, 51240, Note_on_c, 0, 58, 95
2, 51360, Note_off_c, 0, 58, 80
2, 51360, Note_on_c, 0, 55, 95
2, 51480, Note_off_c, 0, 55, 80
2, 51480, Note_on_c, 0, 58, 95
2, 51600, Note_off_c, 0, 58, 80
2, 51600, Note_on_c, 0, 56, 95
2, 51720, Note_off_c, 0, 56, 80
2, 51720, Note_on_c, 0, 58, 95
2, 51840, Note_off_c, 0, 58, 80
2, 51840, Note_on_c, 0, 63, 95
2, 51960, Note_off_c, 0, 63, 80
2, 51960, Note_on_c, 0, 60, 95
2, 52080, Note_off_c, 0, 60, 80
2, 52080, Note_on_c, 0, 58, 95
2, 52200, Note_off_c, 0, 58, 80
2, 52200, Note_on_c, 0, 60, 95
2, 52320, Note_off_c, 0, 60, 80
2, 52320, Note_on_c, 0, 57, 95
2, 52440, Note_off_c, 0, 57, 80
2, 52440, Note_on_c, 0, 60, 95
2, 52560, Note_off_c, 0, 60, 80
2, 52560, Note_on_c, 0, 58, 95
2, 52680, Note_off_c, 0, 58, 80
2, 52680, Note_on_c, 0, 60, 95
2, 52800, Note_off_c, 0, 60, 80
2, 52800, Note_on_c, 0, 63, 95
2, 52920, Note_off_c, 0, 63, 80
2, 52920, Note_on_c, 0, 60, 95
2, 53040, Note_off_c, 0, 60, 80
2, 53040, Note_on_c, 0, 58, 95
2, 53160, Note_off_c, 0, 58, 80
2, 53160, Note_on_c, 0, 60, 95
2, 53280, Note_off_c, 0, 60, 80
2, 53280, Note_on_c, 0, 57, 95
2, 53400, Note_off_c, 0, 57, 80
2, 53400, Note_on_c, 0, 60, 95
2, 53520, Note_off_c, 0, 60, 80
2, 53520, Note_on_c, 0, 58, 95
2, 53640, Note_off_c, 0, 58, 80
2, 53640, Note_on_c, 0, 60, 95
2, 53760, Note_off_c, 0, 60, 80
2, 53760, Note_on_c, 0, 61, 95
2, 53880, Note_off_c, 0, 61, 80
2, 53880, Note_on_c, 0, 58, 95
2, 54000, Note_off_c, 0, 58, 80
2, 54000, Note_on_c, 0, 57, 95
2, 54120, Note_off_c, 0, 57, 80
2, 54120, Note_on_c, 0, 58, 95
2, 54240, Note_off_c, 0, 58, 80
2, 54240, Note_on_c, 0, 53, 95
2, 54360, Note_off_c, 0, 53, 80
2, 54360, Note_on_c, 0, 58, 95
2, 54480, Note_off_c, 0, 58, 80
2, 54480, Note_on_c, 0, 57, 95
2, 54600, Note_off_c, 0, 57, 80
2, 54600, Note_on_c, 0, 58, 95
2, 54720, Note_off_c, 0, 58, 80
2, 54720, Note_on_c, 0, 61, 95
2, 54840, Note_off_c, 0, 61, 80
2, 54840, Note_on_c, 0, 58, 95
2, 54960, Note_off_c, 0, 58, 80
2, 54960, Note_on_c, 0, 57, 95
2, 55080, Note_off_c, 0, 57, 80
2, 55080, Note_on_c, 0, 58, 95
2, 55200, Note_off_c, 0, 58, 80
2, 55200, Note_on_c, 0, 53, 95
2, 55320, Note_off_c, 0, 53, 80
2, 55320, Note_on_c, 0, 58, 95
2, 55440, Note_off_c, 0, 58, 80
2, 55440, Note_on_c, 0, 57, 95
2, 55560, Note_off_c, 0, 57, 80
2, 55560, Note_on_c, 0, 58, 95
2, 55680, Note_off_c, 0, 58, 80
2, 55680, Note_on_c, 0, 51, 95
2, 55800, Note_off_c, 0, 51, 80
2, 55800, Note_on_c, 0, 61, 95
2, 55920, Note_off_c, 0, 61, 80
2, 55920, Note_on_c, 0, 60, 95
2, 56040, Note_off_c, 0, 60, 80
2, 56040, Note_on_c, 0, 61, 95
2, 56160, Note_off_c, 0, 61, 80
2, 56160, Note_on_c, 0, 63, 95
2, 56280, Note_off_c, 0, 63, 80
2, 56280, Note_on_c, 0, 61, 95
2, 56400, Note_off_c, 0, 61, 80
2, 56400, Note_on_c, 0, 60, 95
2, 56520, Note_off_c, 0, 60, 80
2, 56520, Note_on_c, 0, 61, 95
2, 56640, Note_off_c, 0, 61, 80
2, 56640, Note_on_c, 0, 51, 95
2, 56760, Note_off_c, 0, 51, 80
2, 56760, Note_on_c, 0, 61, 95
2, 56880, Note_off_c, 0, 61, 80
2, 56880, Note_on_c, 0, 60, 95
2, 57000, Note_off_c, 0, 60, 80
2, 57000, Note_on_c, 0, 61, 95
2, 57120, Note_off_c, 0, 61, 80
2, 57120, Note_on_c, 0, 63, 95
2, 57240, Note_off_c, 0, 63, 80
2, 57240, Note_on_c, 0, 61, 95
2, 57360, Note_off_c, 0, 61, 80
2, 57360, Note_on_c, 0, 60, 95
2, 57480, Note_off_c, 0, 60, 80
2, 57480, Note_on_c, 0, 61, 95
2, 57600, Note_off_c, 0, 61, 80
2, 57600, Note_on_c, 0, 52, 95
2, 57720, Note_off_c, 0, 52, 80
2, 57720, Note_on_c, 0, 58, 95
2, 57840, Note_off_c, 0, 58, 80
2, 57840, Note_on_c, 0, 57, 95
2, 57960, Note_off_c, 0, 57, 80
2, 57960, Note_on_c, 0, 58, 95
2, 58080, Note_off_c, 0, 58, 80
2, 58080, Note_on_c, 0, 61, 95
2, 58200, Note_off_c, 0, 61, 80
2, 58200, Note_on_c, 0, 58, 95
2, 58320, Note_off_c, 0, 58, 80
2, 58320, Note_on_c, 0, 57, 95
2, 58440, Note_off_c, 0, 57, 80
2, 58440, Note_on_c, 0, 58, 95
2, 58560, Note_off_c, 0, 58, 80
2, 58560, Note_on_c, 0, 52, 95
2, 58680, Note_off_c, 0, 52, 80
2, 58680, Note_on_c, 0, 58, 95
2, 58800, Note_off_c, 0, 58, 80
2, 58800, Note_on_c, 0, 57, 95
2, 58920, Note_off_c, 0, 57, 80
2, 58920, Note_on_c, 0, 58, 95
2, 59040, Note_off_c, 0, 58, 80
2, 59040, Note_on_c, 0, 61, 95
2, 59160, Note_off_c, 0, 61, 80
2, 59160, Note_on_c, 0, 58, 95
2, 59280, Note_off_c, 0, 58, 80
2, 59280, Note_on_c, 0, 57, 95
2, 59400, Note_off_c, 0, 57, 80
2, 59400, Note_on_c, 0, 58, 95
2, 59520, Note_off_c, 0, 58, 80
2, 59520, Note_on_c, 0, 61, 95
2, 59640, Note_off_c, 0, 61, 80
2, 59640, Note_on_c, 0, 58, 95
2, 59760, Note_off_c, 0, 58, 80
2, 59760, Note_on_c, 0, 57, 95
2, 59880, Note_off_c, 0, 57, 80
2, 59880, Note_on_c, 0, 58, 95
2, 60000, Note_off_c, 0, 58, 80
2, 60000, Note_on_c, 0, 53, 95
2, 60120, Note_off_c, 0, 53, 80
2, 60120, Note_on_c, 0, 58, 95
2, 60240, Note_off_c, 0, 58, 80
2, 60240, Note_on_c, 0, 57, 95
2, 60360, Note_off_c, 0, 57, 80
2, 60360, Note_on_c, 0, 58, 95
2, 60480, Note_off_c, 0, 58, 80
2, 60480, Note_on_c, 0, 61, 95
2, 60600, Note_off_c, 0, 61, 80
2, 60600, Note_on_c, 0, 58, 95
2, 60720, Note_off_c, 0, 58, 80
2, 60720, Note_on_c, 0, 57, 95
2, 60840, Note_off_c, 0, 57, 80
2, 60840, Note_on_c, 0, 58, 95
2, 60960, Note_off_c, 0, 58, 80
2, 60960, Note_on_c, 0, 53, 95
2, 61080, Note_off_c, 0, 53, 80
2, 61080, Note_on_c, 0, 58, 95
2, 61200, Note_off_c, 0, 58, 80
2, 61200, Note_on_c, 0, 57, 95
2, 61320, Note_off_c, 0, 57, 80
2, 61320, Note_on_c, 0, 58, 95
2, 61440, Note_off_c, 0, 58, 80
2, 61440, Note_on_c, 0, 64, 95
2, 61560, Note_off_c, 0, 64, 80
2, 61560, Note_on_c, 0, 58, 95
2, 61680, Note_off_c, 0, 58, 80
2, 61680, Note_on_c, 0, 57, 95
2, 61800, Note_off_c, 0, 57, 80
2, 61800, Note_on_c, 0, 58, 95
2, 61920, Note_off_c, 0, 58, 80
2, 61920, Note_on_c, 0, 55, 95
2, 62040, Note_off_c, 0, 55, 80
2, 62040, Note_on_c, 0, 58, 95
2, 62160, Note_off_c, 0, 58, 80
2, 62160, Note_on_c, 0, 57, 95
2, 62280, Note_off_c, 0, 57, 80
2, 62280, Note_on_c, 0, 58, 95
2, 62400, Note_off_c, 0, 58, 80
2, 62400, Note_on_c, 0, 64, 95
2, 62520, Note_off_c, 0, 64, 80
2, 62520, Note_on_c, 0, 58, 95
2, 62640, Note_off_c, 0, 58, 80
2, 62640, Note_on_c, 0, 57, 95
2, 62760, Note_off_c, 0, 57, 80
2, 62760, Note_on_c, 0, 58, 95
2, 62880, Note_off_c, 0, 58, 80
2, 62880, Note_on_c, 0, 55, 95
2, 63000, Note_off_c, 0, 55, 80
2, 63000, Note_on_c, 0, 58, 95
2, 63120, Note_off_c, 0, 58, 80
2, 63120, Note_on_c, 0, 57, 95
2, 63240, Note_off_c, 0, 57, 80
2, 63240, Note_on_c, 0, 58, 95
2, 63360, Note_off_c, 0, 58, 80
2, 63360, Note_on_c, 0, 65, 95
2, 63480, Note_off_c, 0, 65, 80
2, 63480, Note_on_c, 0, 58, 95
2, 63600, Note_off_c, 0, 58, 80
2, 63600, Note_on_c, 0, 57, 95
2, 63720, Note_off_c, 0, 57, 80
2, 63720, Note_on_c, 0, 58, 95
2, 63840, Note_off_c, 0, 58, 80
2, 63840, Note_on_c, 0, 60, 95
2, 63960, Note_off_c, 0, 60, 80
2, 63960, Note_on_c, 0, 58, 95
2, 64080, Note_off_c, 0, 58, 80
2, 64080, Note_on_c, 0, 57, 95
2, 64200, Note_off_c, 0, 57, 80
2, 64200, Note_on_c, 0, 58, 95
2, 64320, Note_off_c, 0, 58, 80
2, 64320, Note_on_c, 0, 65, 95
2, 64440, Note_off_c, 0, 65, 80
2, 64440, Note_on_c, 0, 58, 95
2, 64560, Note_off_c, 0, 58, 80
2, 64560, Note_on_c, 0, 57, 95
2, 64680, Note_off_c, 0, 57, 80
2, 64680, Note_on_c, 0, 58, 95
2, 64800, Note_off_c, 0, 58, 80
2, 64800, Note_on_c, 0, 60, 95
2, 64920, Note_off_c, 0, 60, 80
2, 64920, Note_on_c, 0, 58, 95
2, 65040, Note_off_c, 0, 58, 80
2, 65040, Note_on_c, 0, 57, 95
2, 65160, Note_off_c, 0, 57, 80
2, 65160, Note_on_c, 0, 58, 95
2, 65280, Note_off_c, 0, 58, 80
2, 65280, Note_on_c, 0, 66, 95
2, 65400, Note_off_c, 0, 66, 80
2, 65400, Note_on_c, 0, 58, 95
2, 65520, Note_off_c, 0, 58, 80
2, 65520, Note_on_c, 0, 57, 95
2, 65640, Note_off_c, 0, 57, 80
2, 65640, Note_on_c, 0, 58, 95
2, 65760, Note_off_c, 0, 58, 80
2, 65760, Note_on_c, 0, 60, 95
2, 65880, Note_off_c, 0, 60, 80
2, 65880, Note_on_c, 0, 58, 95
2, 66000, Note_off_c, 0, 58, 80
2, 66000, Note_on_c, 0, 57, 95
2, 66120, Note_off_c, 0, 57, 80
2, 66120, Note_on_c, 0, 58, 95
2, 66240, Note_off_c, 0, 58, 80
2, 66240, Note_on_c, 0, 66, 95
2, 66360, Note_off_c, 0, 66, 80
2, 66360, Note_on_c, 0, 58, 95
2, 66480, Note_off_c, 0, 58, 80
2, 66480, Note_on_c, 0, 57, 95
2, 66600, Note_off_c, 0, 57, 80
2, 66600, Note_on_c, 0, 58, 95
2, 66720, Note_off_c, 0, 58, 80
2, 66720, Note_on_c, 0, 60, 95
2, 66840, Note_off_c, 0, 60, 80
2, 66840, Note_on_c, 0, 58, 95
2, 66960, Note_off_c, 0, 58, 80
2, 66960, Note_on_c, 0, 57, 95
2, 67080, Note_off_c, 0, 57, 80
2, 67080, Note_on_c, 0, 58, 95
2, 67200, Note_off_c, 0, 58, 80
2, 67200, Note_on_c, 1, 84, 95
2, 67200, Pitch_bend_c, 1, 8192
2, 67200, Note_on_c, 1, 77, 95
2, 67200, Pitch_bend_c, 1, 8192
2, 67232, Pitch_bend_c, 1, 8320
2, 67232, Pitch_bend_c, 1, 8320
2, 67248, Pitch_bend_c, 1, 8448
2, 67248, Pitch_bend_c, 1, 8448
2, 67296, Pitch_bend_c, 1, 8576
2, 67296, Pitch_bend_c, 1, 8576
2, 67312, Pitch_bend_c, 1, 8704
2, 67312, Pitch_bend_c, 1, 8704
2, 67360, Pitch_bend_c, 1, 8832
2, 67360, Pitch_bend_c, 1, 8832
2, 67376, Pitch_bend_c, 1, 8960
2, 67376, Pitch_bend_c, 1, 8960
2, 67424, Pitch_bend_c, 1, 9216
2, 67424, Pitch_bend_c, 1, 9216
2, 67488, Pitch_bend_c, 1, 9472
2, 67488, Pitch_bend_c, 1, 9472
2, 67504, Pitch_bend_c, 1, 9600
2, 67504, Pitch_bend_c, 1, 9600
2, 67552, Pitch_bend_c, 1, 9728
2, 67552, Pitch_bend_c, 1, 9728
2, 67568, Pitch_bend_c, 1, 9856
2, 67568, Pitch_bend_c, 1, 9856
2, 67616, Pitch_bend_c, 1, 9984
2, 67616, Pitch_bend_c, 1, 9984
2, 67632, Pitch_bend_c, 1, 10112
2, 67632, Pitch_bend_c, 1, 10112
2, 67680, Pitch_bend_c, 1, 10240
2, 67680, Pitch_bend_c, 1, 10240
2, 67696, Pitch_bend_c, 1, 10368
2, 67696, Pitch_bend_c, 1, 10368
2, 67744, Pitch_bend_c, 1, 10496
2, 67744, Pitch_bend_c, 1, 10496
2, 67760, Pitch_bend_c, 1, 10624
2, 67760, Pitch_bend_c, 1, 10624
2, 67808, Pitch_bend_c, 1, 10752
2, 67808, Pitch_bend_c, 1, 10752
2, 67824, Pitch_bend_c, 1, 10880
2, 67824, Pitch_bend_c, 1, 10880
2, 67872, Pitch_bend_c, 1, 11008
2, 67872, Pitch_bend_c, 1, 11008
2, 67888, Pitch_bend_c, 1, 11264
2, 67888, Pitch_bend_c, 1, 11264
2, 67952, Pitch_bend_c, 1, 11520
2, 67952, Pitch_bend_c, 1, 11520
2, 68000, Pitch_bend_c, 1, 11648
2, 68000, Pitch_bend_c, 1, 11648
2, 68016, Pitch_bend_c, 1, 11776
2, 68016, Pitch_bend_c, 1, 11776
2, 68064, Pitch_bend_c, 1, 11904
2, 68064, Pitch_bend_c, 1, 11904
2, 68080, Pitch_bend_c, 1, 12032
2, 68080, Pitch_bend_c, 1, 12032
2, 68128, Pitch_bend_c, 1, 12160
2, 68128, Pitch_bend_c, 1, 12160
2, 68144, Pitch_bend_c, 1, 12288
2, 68144, Pitch_bend_c, 1, 12288
2, 68192, Pitch_bend_c, 1, 12416
2, 68192, Pitch_bend_c, 1, 12416
2, 68224, Pitch_bend_c, 1, 12544
2, 68224, Pitch_bend_c, 1, 12544
2, 68256, Pitch_bend_c, 1, 12672
2, 68256, Pitch_bend_c, 1, 12672
2, 68272, Pitch_bend_c, 1, 12800
2, 68272, Pitch_bend_c, 1, 12800
2, 68320, Pitch_bend_c, 1, 12928
2, 68320, Pitch_bend_c, 1, 12928
2, 68336, Pitch_bend_c, 1, 13056
2, 68336, Pitch_bend_c, 1, 13056
2, 68384, Pitch_bend_c, 1, 13312
2, 68384, Pitch_bend_c, 1, 13312
2, 68448, Pitch_bend_c, 1, 13568
2, 68448, Pitch_bend_c, 1, 13568
2, 68464, Pitch_bend_c, 1, 13696
2, 68464, Pitch_bend_c, 1, 13696
2, 68512, Pitch_bend_c, 1, 13824
2, 68512, Pitch_bend_c, 1, 13824
2, 68528, Pitch_bend_c, 1, 13952
2, 68528, Pitch_bend_c, 1, 13952
2, 68576, Pitch_bend_c, 1, 14080
2, 68576, Pitch_bend_c, 1, 14080
2, 68592, Pitch_bend_c, 1, 14208
2, 68592, Pitch_bend_c, 1, 14208
2, 68640, Pitch_bend_c, 1, 14336
2, 68640, Pitch_bend_c, 1, 14336
2, 68656, Pitch_bend_c, 1, 14464
2, 68656, Pitch_bend_c, 1, 14464
2, 68704, Pitch_bend_c, 1, 14592
2, 68704, Pitch_bend_c, 1, 14592
2, 68720, Pitch_bend_c, 1, 14720
2, 68720, Pitch_bend_c, 1, 14720
2, 68768, Pitch_bend_c, 1, 14848
2, 68768, Pitch_bend_c, 1, 14848
2, 68784, Pitch_bend_c, 1, 14976
2, 68784, Pitch_bend_c, 1, 14976
2, 68832, Pitch_bend_c, 1, 15104
2, 68832, Pitch_bend_c, 1, 15104
2, 68848, Pitch_bend_c, 1, 15360
2, 68848, Pitch_bend_c, 1, 15360
2, 68912, Pitch_bend_c, 1, 15616
2, 68912, Pitch_bend_c, 1, 15616
2, 68960, Pitch_bend_c, 1, 15744
2, 68960, Pitch_bend_c, 1, 15744
2, 68976, Pitch_bend_c, 1, 15872
2, 68976, Pitch_bend_c, 1, 15872
2, 69024, Pitch_bend_c, 1, 16000
2, 69024, Pitch_bend_c, 1, 16000
2, 69040, Pitch_bend_c, 1, 16128
2, 69040, Pitch_bend_c, 1, 16128
2, 69088, Pitch_bend_c, 1, 16256
2, 69088, Pitch_bend_c, 1, 16256
2, 69104, Pitch_bend_c, 1, 16256
2, 69104, Pitch_bend_c, 1, 16256
2, 69120, Note_off_c, 1, 84, 80
2, 69120, Pitch_bend_c, 1, 8192
2, 69120, Note_off_c, 1, 77, 80
2, 69120, Pitch_bend_c, 1, 8192
2, 69120, Note_on_c, 0, 70, 95
2, 69240, Note_off_c, 0, 70, 80
2, 69240, Note_on_c, 0, 61, 95
2, 69360, Note_off_c, 0, 61, 80
2, 69360, Note_on_c, 0, 60, 95
2, 69480, Note_off_c, 0, 60, 80
2, 69480, Note_on_c, 0, 61, 95
2, 69600, Note_off_c, 0, 61, 80
2, 69600, Note_on_c, 0, 58, 95
2, 69720, Note_off_c, 0, 58, 80
2, 69720, Note_on_c, 0, 61, 95
2, 69840, Note_off_c, 0, 61, 80
2, 69840, Note_on_c, 0, 60, 95
2, 69960, Note_off_c, 0, 60, 80
2, 69960, Note_on_c, 0, 61, 95
2, 70080, Note_off_c, 0, 61, 80
2, 70080, Note_on_c, 0, 70, 95
2, 70200, Note_off_c, 0, 70, 80
2, 70200, Note_on_c, 0, 61, 95
2, 70320, Note_off_c, 0, 61, 80
2, 70320, Note_on_c, 0, 60, 95
2, 70440, Note_off_c, 0, 60, 80
2, 70440, Note_on_c, 0, 61, 95
2, 70560, Note_off_c, 0, 61, 80
2, 70560, Note_on_c, 0, 58, 95
2, 70680, Note_off_c, 0, 58, 80
2, 70680, Note_on_c, 0, 61, 95
2, 70800, Note_off_c, 0, 61, 80
2, 70800, Note_on_c, 0, 60, 95
2, 70920, Note_off_c, 0, 60, 80
2, 70920, Note_on_c, 0, 61, 95
2, 71040, Note_off_c, 0, 61, 80
2, 71040, Note_on_c, 0, 66, 95
2, 71160, Note_off_c, 0, 66, 80
2, 71160, Note_on_c, 0, 63, 95
2, 71280, Note_off_c, 0, 63, 80
2, 71280, Note_on_c, 0, 62, 95
2, 71400, Note_off_c, 0, 62, 80
2, 71400, Note_on_c, 0, 63, 95
2, 71520, Note_off_c, 0, 63, 80
2, 71520, Note_on_c, 0, 58, 95
2, 71640, Note_off_c, 0, 58, 80
2, 71640, Note_on_c, 0, 63, 95
2, 71760, Note_off_c, 0, 63, 80
2, 71760, Note_on_c, 0, 62, 95
2, 71880, Note_off_c, 0, 62, 80
2, 71880, Note_on_c, 0, 63, 95
2, 72000, Note_off_c, 0, 63, 80
2, 72000, Note_on_c, 0, 66, 95
2, 72120, Note_off_c, 0, 66, 80
2, 72120, Note_on_c, 0, 63, 95
2, 72240, Note_off_c, 0, 63, 80
2, 72240, Note_on_c, 0, 62, 95
2, 72360, Note_off_c, 0, 62, 80
2, 72360, Note_on_c, 0, 63, 95
2, 72480, Note_off_c, 0, 63, 80
2, 72480, Note_on_c, 0, 58, 95
2, 72600, Note_off_c, 0, 58, 80
2, 72600, Note_on_c, 0, 63, 95
2, 72720, Note_off_c, 0, 63, 80
2, 72720, Note_on_c, 0, 62, 95
2, 72840, Note_off_c, 0, 62, 80
2, 72840, Note_on_c, 0, 63, 95
2, 72960, Note_off_c, 0, 63, 80
2, 72960, Note_on_c, 0, 69, 95
2, 73080, Note_off_c, 0, 69, 80
2, 73080, Note_on_c, 0, 63, 95
2, 73200, Note_off_c, 0, 63, 80
2, 73200, Note_on_c, 0, 61, 95
2, 73320, Note_off_c, 0, 61, 80
2, 73320, Note_on_c, 0, 63, 95
2, 73440, Note_off_c, 0, 63, 80
2, 73440, Note_on_c, 0, 60, 95
2, 73560, Note_off_c, 0, 60, 80
2, 73560, Note_on_c, 0, 63, 95
2, 73680, Note_off_c, 0, 63, 80
2, 73680, Note_on_c, 0, 61, 95
2, 73800, Note_off_c, 0, 61, 80
2, 73800, Note_on_c, 0, 63, 95
2, 73920, Note_off_c, 0, 63, 80
2, 73920, Note_on_c, 0, 69, 95
2, 74040, Note_off_c, 0, 69, 80
2, 74040, Note_on_c, 0, 63, 95
2, 74160, Note_off_c, 0, 63, 80
2, 74160, Note_on_c, 0, 61, 95
2, 74280, Note_off_c, 0, 61, 80
2, 74280, Note_on_c, 0, 63, 95
2, 74400, Note_off_c, 0, 63, 80
2, 74400, Note_on_c, 0, 60, 95
2, 74520, Note_off_c, 0, 60, 80
2, 74520, Note_on_c, 0, 63, 95
2, 74640, Note_off_c, 0, 63, 80
2, 74640, Note_on_c, 0, 61, 95
2, 74760, Note_off_c, 0, 61, 80
2, 74760, Note_on_c, 0, 63, 95
2, 74880, Note_off_c, 0, 63, 80
2, 74880, Note_on_c, 0, 70, 95
2, 75000, Note_off_c, 0, 70, 80
2, 75000, Note_on_c, 0, 65, 95
2, 75120, Note_off_c, 0, 65, 80
2, 75120, Note_on_c, 0, 63, 95
2, 75240, Note_off_c, 0, 63, 80
2, 75240, Note_on_c, 0, 65, 95
2, 75360, Note_off_c, 0, 65, 80
2, 75360, Note_on_c, 0, 61, 95
2, 75480, Note_off_c, 0, 61, 80
2, 75480, Note_on_c, 0, 65, 95
2, 75600, Note_off_c, 0, 65, 80
2, 75600, Note_on_c, 0, 63, 95
2, 75720, Note_off_c, 0, 63, 80
2, 75720, Note_on_c, 0, 65, 95
2, 75840, Note_off_c, 0, 65, 80
2, 75840, Note_on_c, 0, 70, 95
2, 75960, Note_off_c, 0, 70, 80
2, 75960, Note_on_c, 0, 65, 95
2, 76080, Note_off_c, 0, 65, 80
2, 76080, Note_on_c, 0, 63, 95
2, 76200, Note_off_c, 0, 63, 80
2, 76200, Note_on_c, 0, 65, 95
2, 76320, Note_off_c, 0, 65, 80
2, 76320, Note_on_c, 0, 61, 95
2, 76440, Note_off_c, 0, 61, 80
2, 76440, Note_on_c, 0, 65, 95
2, 76560, Note_off_c, 0, 65, 80
2, 76560, Note_on_c, 0, 63, 95
2, 76680, Note_off_c, 0, 63, 80
2, 76680, Note_on_c, 0, 65, 95
2, 76800, Note_off_c, 0, 65, 80
2, 76800, Note_on_c, 0, 70, 95
2, 76920, Note_off_c, 0, 70, 80
2, 76920, Note_on_c, 0, 61, 95
2, 77040, Note_off_c, 0, 61, 80
2, 77040, Note_on_c, 0, 60, 95
2, 77160, Note_off_c, 0, 60, 80
2, 77160, Note_on_c, 0, 61, 95
2, 77280, Note_off_c, 0, 61, 80
2, 77280, Note_on_c, 0, 58, 95
2, 77400, Note_off_c, 0, 58, 80
2, 77400, Note_on_c, 0, 61, 95
2, 77520, Note_off_c, 0, 61, 80
2, 77520, Note_on_c, 0, 60, 95
2, 77640, Note_off_c, 0, 60, 80
2, 77640, Note_on_c, 0, 61, 95
2, 77760, Note_off_c, 0, 61, 80
2, 77760, Note_on_c, 0, 70, 95
2, 77880, Note_off_c, 0, 70, 80
2, 77880, Note_on_c, 0, 61, 95
2, 78000, Note_off_c, 0, 61, 80
2, 78000, Note_on_c, 0, 60, 95
2, 78120, Note_off_c, 0, 60, 80
2, 78120, Note_on_c, 0, 61, 95
2, 78240, Note_off_c, 0, 61, 80
2, 78240, Note_on_c, 0, 58, 95
2, 78360, Note_off_c, 0, 58, 80
2, 78360, Note_on_c, 0, 61, 95
2, 78480, Note_off_c, 0, 61, 80
2, 78480, Note_on_c, 0, 60, 95
2, 78600, Note_off_c, 0, 60, 80
2, 78600, Note_on_c, 0, 61, 95
2, 78720, Note_off_c, 0, 61, 80
2, 78720, Note_on_c, 0, 66, 95
2, 78840, Note_off_c, 0, 66, 80
2, 78840, Note_on_c, 0, 63, 95
2, 78960, Note_off_c, 0, 63, 80
2, 78960, Note_on_c, 0, 62, 95
2, 79080, Note_off_c, 0, 62, 80
2, 79080, Note_on_c, 0, 63, 95
2, 79200, Note_off_c, 0, 63, 80
2, 79200, Note_on_c, 0, 58, 95
2, 79320, Note_off_c, 0, 58, 80
2, 79320, Note_on_c, 0, 63, 95
2, 79440, Note_off_c, 0, 63, 80
2, 79440, Note_on_c, 0, 62, 95
2, 79560, Note_off_c, 0, 62, 80
2, 79560, Note_on_c, 0, 63, 95
2, 79680, Note_off_c, 0, 63, 80
2, 79680, Note_on_c, 0, 66, 95
2, 79800, Note_off_c, 0, 66, 80
2, 79800, Note_on_c, 0, 63, 95
2, 79920, Note_off_c, 0, 63, 80
2, 79920, Note_on_c, 0, 62, 95
2, 80040, Note_off_c, 0, 62, 80
2, 80040, Note_on_c, 0, 63, 95
2, 80160, Note_off_c, 0, 63, 80
2, 80160, Note_on_c, 0, 58, 95
2, 80280, Note_off_c, 0, 58, 80
2, 80280, Note_on_c, 0, 63, 95
2, 80400, Note_off_c, 0, 63, 80
2, 80400, Note_on_c, 0, 62, 95
2, 80520, Note_off_c, 0, 62, 80
2, 80520, Note_on_c, 0, 63, 95
2, 80640, Note_off_c, 0, 63, 80
2, 80640, Note_on_c, 0, 69, 95
2, 80760, Note_off_c, 0, 69, 80
2, 80760, Note_on_c, 0, 63, 95
2, 80880, Note_off_c, 0, 63, 80
2, 80880, Note_on_c, 0, 61, 95
2, 81000, Note_off_c, 0, 61, 80
2, 81000, Note_on_c, 0, 63, 95
2, 81120, Note_off_c, 0, 63, 80
2, 81120, Note_on_c, 0, 60, 95
2, 81240, Note_off_c, 0, 60, 80
2, 81240, Note_on_c, 0, 63, 95
2, 81360, Note_off_c, 0, 63, 80
2, 81360, Note_on_c, 0, 61, 95
2, 81480, Note_off_c, 0, 61, 80
2, 81480, Note_on_c, 0, 63, 95
2, 81600, Note_off_c, 0, 63, 80
2, 81600, Note_on_c, 0, 69, 95
2, 81720, Note_off_c, 0, 69, 80
2, 81720, Note_on_c, 0, 63, 95
2, 81840, Note_off_c, 0, 63, 80
2, 81840, Note_on_c, 0, 61, 95
2, 81960, Note_off_c, 0, 61, 80
2, 81960, Note_on_c, 0, 63, 95
2, 82080, Note_off_c, 0, 63, 80
2, 82080, Note_on_c, 0, 60, 95
2, 82200, Note_off_c, 0, 60, 80
2, 82200, Note_on_c, 0, 63, 95
2, 82320, Note_off_c, 0, 63, 80
2, 82320, Note_on_c, 0, 61, 95
2, 82440, Note_off_c, 0, 61, 80
2, 82440, Note_on_c, 0, 63, 95
2, 82560, Note_off_c, 0, 63, 80
2, 82560, Note_on_c, 0, 70, 95
2, 82680, Note_off_c, 0, 70, 80
2, 82680, Note_on_c, 0, 65, 95
2, 82800, Note_off_c, 0, 65, 80
2, 82800, Note_on_c, 0, 63, 95
2, 82920, Note_off_c, 0, 63, 80
2, 82920, Note_on_c, 0, 65, 95
2, 83040, Note_off_c, 0, 65, 80
2, 83040, Note_on_c, 0, 61, 95
2, 83160, Note_off_c, 0, 61, 80
2, 83160, Note_on_c, 0, 65, 95
2, 83280, Note_off_c, 0, 65, 80
2, 83280, Note_on_c, 0, 63, 95
2, 83400, Note_off_c, 0, 63, 80
2, 83400, Note_on_c, 0, 65, 95
2, 83520, Note_off_c, 0, 65, 80
2, 83520, Note_on_c, 0, 70, 95
2, 83640, Note_off_c, 0, 70, 80
2, 83640, Note_on_c, 0, 65, 95
2, 83760, Note_off_c, 0, 65, 80
2, 83760, Note_on_c, 0, 63, 95
2, 83880, Note_off_c, 0, 63, 80
2, 83880, Note_on_c, 0, 65, 95
2, 84000, Note_off_c, 0, 65, 80
2, 84000, Note_on_c, 0, 61, 95
2, 84120, Note_off_c, 0, 61, 80
2, 84120, Note_on_c, 0, 65, 95
2, 84240, Note_off_c, 0, 65, 80
2, 84240, Note_on_c, 0, 63, 95
2, 84360, Note_off_c, 0, 63, 80
2, 84360, Note_on_c, 0, 65, 95
2, 84480, Note_off_c, 0, 65, 80
2, 84480, Note_on_c, 0, 77, 95
2, 84480, Note_on_c, 0, 70, 95
2, 84600, Note_off_c, 0, 77, 80
2, 84600, Note_off_c, 0, 70, 80
2, 84600, Note_on_c, 0, 77, 95
2, 84600, Note_on_c, 0, 73, 95
2, 84720, Note_off_c, 0, 77, 80
2, 84720, Note_off_c, 0, 73, 80
2, 84720, Note_on_c, 0, 75, 95
2, 84720, Note_on_c, 0, 72, 95
2, 84840, Note_off_c, 0, 75, 80
2, 84840, Note_off_c, 0, 72, 80
2, 84840, Note_on_c, 0, 77, 95
2, 84840, Note_on_c, 0, 73, 95
2, 84960, Note_off_c, 0, 77, 80
2, 84960, Note_off_c, 0, 73, 80
2, 84960, Note_on_c, 0, 72, 95
2, 84960, Note_on_c, 0, 70, 95
2, 85080, Note_off_c, 0, 72, 80
2, 85080, Note_off_c, 0, 70, 80
2, 85080, Note_on_c, 0, 77, 95
2, 85080, Note_on_c, 0, 73, 95
2, 85200, Note_off_c, 0, 77, 80
2, 85200, Note_off_c, 0, 73, 80
2, 85200, Note_on_c, 0, 75, 95
2, 85200, Note_on_c, 0, 72, 95
2, 85320, Note_off_c, 0, 75, 80
2, 85320, Note_off_c, 0, 72, 80
2, 85320, Note_on_c, 0, 77, 95
2, 85320, Note_on_c, 0, 73, 95
2, 85440, Note_off_c, 0, 77, 80
2, 85440, Note_off_c, 0, 73, 80
2, 85440, Note_on_c, 0, 77, 95
2, 85440, Note_on_c, 0, 70, 95
2, 85560, Note_off_c, 0, 77, 80
2, 85560, Note_off_c, 0, 70, 80
2, 85560, Note_on_c, 0, 77, 95
2, 85560, Note_on_c, 0, 73, 95
2, 85680, Note_off_c, 0, 77, 80
2, 85680, Note_off_c, 0, 73, 80
2, 85680, Note_on_c, 0, 75, 95
2, 85680, Note_on_c, 0, 72, 95
2, 85800, Note_off_c, 0, 75, 80
2, 85800, Note_off_c, 0, 72, 80
2, 85800, Note_on_c, 0, 77, 95
2, 85800, Note_on_c, 0, 73, 95
2, 85920, Note_off_c, 0, 77, 80
2, 85920, Note_off_c, 0, 73, 80
2, 85920, Note_on_c, 0, 72, 95
2, 85920, Note_on_c, 0, 70, 95
2, 86040, Note_off_c, 0, 72, 80
2, 86040, Note_off_c, 0, 70, 80
2, 86040, Note_on_c, 0, 77, 95
2, 86040, Note_on_c, 0, 73, 95
2, 86160, Note_off_c, 0, 77, 80
2, 86160, Note_off_c, 0, 73, 80
2, 86160, Note_on_c, 0, 75, 95
2, 86160, Note_on_c, 0, 72, 95
2, 86280, Note_off_c, 0, 75, 80
2, 86280, Note_off_c, 0, 72, 80
2, 86280, Note_on_c, 0, 77, 95
2, 86280, Note_on_c, 0, 73, 95
2, 86400, Note_off_c, 0, 77, 80
2, 86400, Note_off_c, 0, 73, 80
2, 86400, Note_on_c, 0, 78, 95
2, 86400, Note_on_c, 0, 66, 95
2, 86520, Note_off_c, 0, 78, 80
2, 86520, Note_off_c, 0, 66, 80
2, 86520, Note_on_c, 0, 78, 95
2, 86520, Note_on_c, 0, 70, 95
2, 86640, Note_off_c, 0, 78, 80
2, 86640, Note_off_c, 0, 70, 80
2, 86640, Note_on_c, 0, 77, 95
2, 86640, Note_on_c, 0, 69, 95
2, 86760, Note_off_c, 0, 77, 80
2, 86760, Note_off_c, 0, 69, 80
2, 86760, Note_on_c, 0, 78, 95
2, 86760, Note_on_c, 0, 70, 95
2, 86880, Note_off_c, 0, 78, 80
2, 86880, Note_off_c, 0, 70, 80
2, 86880, Note_on_c, 0, 70, 95
2, 86880, Note_on_c, 0, 65, 95
2, 87000, Note_off_c, 0, 70, 80
2, 87000, Note_off_c, 0, 65, 80
2, 87000, Note_on_c, 0, 78, 95
2, 87000, Note_on_c, 0, 70, 95
2, 87120, Note_off_c, 0, 78, 80
2, 87120, Note_off_c, 0, 70, 80
2, 87120, Note_on_c, 0, 77, 95
2, 87120, Note_on_c, 0, 69, 95
2, 87240, Note_off_c, 0, 77, 80
2, 87240, Note_off_c, 0, 69, 80
2, 87240, Note_on_c, 0, 78, 95
2, 87240, Note_on_c, 0, 70, 95
2, 87360, Note_off_c, 0, 78, 80
2, 87360, Note_off_c, 0, 70, 80
2, 87360, Note_on_c, 0, 78, 95
2, 87360, Note_on_c, 0, 66, 95
2, 87480, Note_off_c, 0, 78, 80
2, 87480, Note_off_c, 0, 66, 80
2, 87480, Note_on_c, 0, 78, 95
2, 87480, Note_on_c, 0, 70, 95
2, 87600, Note_off_c, 0, 78, 80
2, 87600, Note_off_c, 0, 70, 80
2, 87600, Note_on_c, 0, 77, 95
2, 87600, Note_on_c, 0, 69, 95
2, 87720, Note_off_c, 0, 77, 80
2, 87720, Note_off_c, 0, 69, 80
2, 87720, Note_on_c, 0, 78, 95
2, 87720, Note_on_c, 0, 70, 95
2, 87840, Note_off_c, 0, 78, 80
2, 87840, Note_off_c, 0, 70, 80
2, 87840, Note_on_c, 0, 70, 95
2, 87840, Note_on_c, 0, 65, 95
2, 87960, Note_off_c, 0, 70, 80
2, 87960, Note_off_c, 0, 65, 80
2, 87960, Note_on_c, 0, 78, 95
2, 87960, Note_on_c, 0, 70, 95
2, 88080, Note_off_c, 0, 78, 80
2, 88080, Note_off_c, 0, 70, 80
2, 88080, Note_on_c, 0, 77, 95
2, 88080, Note_on_c, 0, 69, 95
2, 88200, Note_off_c, 0, 77, 80
2, 88200, Note_off_c, 0, 69, 80
2, 88200, Note_on_c, 0, 78, 95
2, 88200, Note_on_c, 0, 70, 95
2, 88320, Note_off_c, 0, 78, 80
2, 88320, Note_off_c, 0, 70, 80
2, 88320, Note_on_c, 0, 69, 95
2, 88320, Note_on_c, 0, 69, 95
2, 88440, Note_off_c, 0, 69, 80
2, 88440, Note_off_c, 0, 69, 80
2, 88440, Note_on_c, 0, 72, 95
2, 88440, Note_on_c, 0, 63, 95
2, 88560, Note_off_c, 0, 72, 80
2, 88560, Note_off_c, 0, 63, 80
2, 88560, Note_on_c, 0, 70, 95
2, 88560, Note_on_c, 0, 61, 95
2, 88680, Note_off_c, 0, 70, 80
2, 88680, Note_off_c, 0, 61, 80
2, 88680, Note_on_c, 0, 72, 95
2, 88680, Note_on_c, 0, 63, 95
2, 88800, Note_off_c, 0, 72, 80
2, 88800, Note_off_c, 0, 63, 80
2, 88800, Note_on_c, 0, 69, 95
2, 88800, Note_on_c, 0, 60, 95
2, 88920, Note_off_c, 0, 69, 80
2, 88920, Note_off_c, 0, 60, 80
2, 88920, Note_on_c, 0, 72, 95
2, 88920, Note_on_c, 0, 63, 95
2, 89040, Note_off_c, 0, 72, 80
2, 89040, Note_off_c, 0, 63, 80
2, 89040, Note_on_c, 0, 70, 95
2, 89040, Note_on_c, 0, 61, 95
2, 89160, Note_off_c, 0, 70, 80
2, 89160, Note_off_c, 0, 61, 80
2, 89160, Note_on_c, 0, 72, 95
2, 89160, Note_on_c, 0, 63, 95
2, 89280, Note_off_c, 0, 72, 80
2, 89280, Note_off_c, 0, 63, 80
2, 89280, Note_on_c, 0, 69, 95
2, 89280, Note_on_c, 0, 69, 95
2, 89400, Note_off_c, 0, 69, 80
2, 89400, Note_off_c, 0, 69, 80
2, 89400, Note_on_c, 0, 72, 95
2, 89400, Note_on_c, 0, 63, 95
2, 89520, Note_off_c, 0, 72, 80
2, 89520, Note_off_c, 0, 63, 80
2, 89520, Note_on_c, 0, 70, 95
2, 89520, Note_on_c, 0, 61, 95
2, 89640, Note_off_c, 0, 70, 80
2, 89640, Note_off_c, 0, 61, 80
2, 89640, Note_on_c, 0, 72, 95
2, 89640, Note_on_c, 0, 63, 95
2, 89760, Note_off_c, 0, 72, 80
2, 89760, Note_off_c, 0, 63, 80
2, 89760, Note_on_c, 0, 69, 95
2, 89760, Note_on_c, 0, 60, 95
2, 89880, Note_off_c, 0, 69, 80
2, 89880, Note_off_c, 0, 60, 80
2, 89880, Note_on_c, 0, 72, 95
2, 89880, Note_on_c, 0, 63, 95
2, 90000, Note_off_c, 0, 72, 80
2, 90000, Note_off_c, 0, 63, 80
2, 90000, Note_on_c, 0, 70, 95
2, 90000, Note_on_c, 0, 61, 95
2, 90120, Note_off_c, 0, 70, 80
2, 90120, Note_off_c, 0, 61, 80
2, 90120, Note_on_c, 0, 72, 95
2, 90120, Note_on_c, 0, 63, 95
2, 90240, Note_off_c, 0, 72, 80
2, 90240, Note_off_c, 0, 63, 80
2, 90240, Note_on_c, 0, 70, 95
2, 90240, Note_on_c, 0, 70, 95
2, 90360, Note_off_c, 0, 70, 80
2, 90360, Note_off_c, 0, 70, 80
2, 90360, Note_on_c, 0, 77, 95
2, 90360, Note_on_c, 0, 65, 95
2, 90480, Note_off_c, 0, 77, 80
2, 90480, Note_off_c, 0, 65, 80
2, 90480, Note_on_c, 0, 75, 95
2, 90480, Note_on_c, 0, 63, 95
2, 90600, Note_off_c, 0, 75, 80
2, 90600, Note_off_c, 0, 63, 80
2, 90600, Note_on_c, 0, 77, 95
2, 90600, Note_on_c, 0, 65, 95
2, 90720, Note_off_c, 0, 77, 80
2, 90720, Note_off_c, 0, 65, 80
2, 90720, Note_on_c, 0, 72, 95
2, 90720, Note_on_c, 0, 61, 95
2, 90840, Note_off_c, 0, 72, 80
2, 90840, Note_off_c, 0, 61, 80
2, 90840, Note_on_c, 0, 77, 95
2, 90840, Note_on_c, 0, 65, 95
2, 90960, Note_off_c, 0, 77, 80
2, 90960, Note_off_c, 0, 65, 80
2, 90960, Note_on_c, 0, 75, 95
2, 90960, Note_on_c, 0, 63, 95
2, 91080, Note_off_c, 0, 75, 80
2, 91080, Note_off_c, 0, 63, 80
2, 91080, Note_on_c, 0, 77, 95
2, 91080, Note_on_c, 0, 65, 95
2, 91200, Note_off_c, 0, 77, 80
2, 91200, Note_off_c, 0, 65, 80
2, 91200, Note_on_c, 0, 70, 95
2, 91200, Note_on_c, 0, 70, 95
2, 91320, Note_off_c, 0, 70, 80
2, 91320, Note_off_c, 0, 70, 80
2, 91320, Note_on_c, 0, 77, 95
2, 91320, Note_on_c, 0, 65, 95
2, 91440, Note_off_c, 0, 77, 80
2, 91440, Note_off_c, 0, 65, 80
2, 91440, Note_on_c, 0, 75, 95
2, 91440, Note_on_c, 0, 63, 95
2, 91560, Note_off_c, 0, 75, 80
2, 91560, Note_off_c, 0, 63, 80
2, 91560, Note_on_c, 0, 77, 95
2, 91560, Note_on_c, 0, 65, 95
2, 91680, Note_off_c, 0, 77, 80
2, 91680, Note_off_c, 0, 65, 80
2, 91680, Note_on_c, 0, 72, 95
2, 91680, Note_on_c, 0, 61, 95
2, 91800, Note_off_c, 0, 72, 80
2, 91800, Note_off_c, 0, 61, 80
2, 91800, Note_on_c, 0, 77, 95
2, 91800, Note_on_c, 0, 65, 95
2, 91920, Note_off_c, 0, 77, 80
2, 91920, Note_off_c, 0, 65, 80
2, 91920, Note_on_c, 0, 75, 95
2, 91920, Note_on_c, 0, 63, 95
2, 92040, Note_off_c, 0, 75, 80
2, 92040, Note_off_c, 0, 63, 80
2, 92040, Note_on_c, 0, 77, 95
2, 92040, Note_on_c, 0, 65, 95
2, 92160, Note_off_c, 0, 77, 80
2, 92160, Note_off_c, 0, 65, 80
2, 92160, Note_on_c, 0, 77, 95
2, 92160, Note_on_c, 0, 70, 95
2, 92280, Note_off_c, 0, 77, 80
2, 92280, Note_off_c, 0, 70, 80
2, 92280, Note_on_c, 0, 77, 95
2, 92280, Note_on_c, 0, 73, 95
2, 92400, Note_off_c, 0, 77, 80
2, 92400, Note_off_c, 0, 73, 80
2, 92400, Note_on_c, 0, 75, 95
2, 92400, Note_on_c, 0, 72, 95
2, 92520, Note_off_c, 0, 75, 80
2, 92520, Note_off_c, 0, 72, 80
2, 92520, Note_on_c, 0, 77, 95
2, 92520, Note_on_c, 0, 73, 95
2, 92640, Note_off_c, 0, 77, 80
2, 92640, Note_off_c, 0, 73, 80
2, 92640, Note_on_c, 0, 72, 95
2, 92640, Note_on_c, 0, 70, 95
2, 92760, Note_off_c, 0, 72, 80
2, 92760, Note_off_c, 0, 70, 80
2, 92760, Note_on_c, 0, 77, 95
2, 92760, Note_on_c, 0, 73, 95
2, 92880, Note_off_c, 0, 77, 80
2, 92880, Note_off_c, 0, 73, 80
2, 92880, Note_on_c, 0, 75, 95
2, 92880, Note_on_c, 0, 72, 95
2, 93000, Note_off_c, 0, 75, 80
2, 93000, Note_off_c, 0, 72, 80
2, 93000, Note_on_c, 0, 77, 95
2, 93000, Note_on_c, 0, 73, 95
2, 93120, Note_off_c, 0, 77, 80
2, 93120, Note_off_c, 0, 73, 80
2, 93120, Note_on_c, 0, 77, 95
2, 93120, Note_on_c, 0, 70, 95
2, 93240, Note_off_c, 0, 77, 80
2, 93240, Note_off_c, 0, 70, 80
2, 93240, Note_on_c, 0, 77, 95
2, 93240, Note_on_c, 0, 73, 95
2, 93360, Note_off_c, 0, 77, 80
2, 93360, Note_off_c, 0, 73, 80
2, 93360, Note_on_c, 0, 75, 95
2, 93360, Note_on_c, 0, 72, 95
2, 93480, Note_off_c, 0, 75, 80
2, 93480, Note_off_c, 0, 72, 80
2, 93480, Note_on_c, 0, 77, 95
2, 93480, Note_on_c, 0, 73, 95
2, 93600, Note_off_c, 0, 77, 80
2, 93600, Note_off_c, 0, 73, 80
2, 93600, Note_on_c, 0, 72, 95
2, 93600, Note_on_c, 0, 70, 95
2, 93720, Note_off_c, 0, 72, 80
2, 93720, Note_off_c, 0, 70, 80
2, 93720, Note_on_c, 0, 77, 95
2, 93720, Note_on_c, 0, 73, 95
2, 93840, Note_off_c, 0, 77, 80
2, 93840, Note_off_c, 0, 73, 80
2, 93840, Note_on_c, 0, 75, 95
2, 93840, Note_on_c, 0, 72, 95
2, 93960, Note_off_c, 0, 75, 80
2, 93960, Note_off_c, 0, 72, 80
2, 93960, Note_on_c, 0, 77, 95
2, 93960, Note_on_c, 0, 73, 95
2, 94080, Note_off_c, 0, 77, 80
2, 94080, Note_off_c, 0, 73, 80
2, 94080, Note_on_c, 0, 78, 95
2, 94080, Note_on_c, 0, 66, 95
2, 94200, Note_off_c, 0, 78, 80
2, 94200, Note_off_c, 0, 66, 80
2, 94200, Note_on_c, 0, 78, 95
2, 94200, Note_on_c, 0, 70, 95
2, 94320, Note_off_c, 0, 78, 80
2, 94320, Note_off_c, 0, 70, 80
2, 94320, Note_on_c, 0, 77, 95
2, 94320, Note_on_c, 0, 69, 95
2, 94440, Note_off_c, 0, 77, 80
2, 94440, Note_off_c, 0, 69, 80
2, 94440, Note_on_c, 0, 78, 95
2, 94440, Note_on_c, 0, 70, 95
2, 94560, Note_off_c, 0, 78, 80
2, 94560, Note_off_c, 0, 70, 80
2, 94560, Note_on_c, 0, 70, 95
2, 94560, Note_on_c, 0, 65, 95
2, 94680, Note_off_c, 0, 70, 80
2, 94680, Note_off_c, 0, 65, 80
2, 94680, Note_on_c, 0, 78, 95
2, 94680, Note_on_c, 0, 70, 95
2, 94800, Note_off_c, 0, 78, 80
2, 94800, Note_off_c, 0, 70, 80
2, 94800, Note_on_c, 0, 77, 95
2, 94800, Note_on_c, 0, 69, 95
2, 94920, Note_off_c, 0, 77, 80
2, 94920, Note_off_c, 0, 69, 80
2, 94920, Note_on_c, 0, 78, 95
2, 94920, Note_on_c, 0, 70, 95
2, 95040, Note_off_c, 0, 78, 80
2, 95040, Note_off_c, 0, 70, 80
2, 95040, Note_on_c, 0, 78, 95
2, 95040, Note_on_c, 0, 66, 95
2, 95160, Note_off_c, 0, 78, 80
2, 95160, Note_off_c, 0, 66, 80
2, 95160, Note_on_c, 0, 78, 95
2, 95160, Note_on_c, 0, 70, 95
2, 95280, Note_off_c, 0, 78, 80
2, 95280, Note_off_c, 0, 70, 80
2, 95280, Note_on_c, 0, 77, 95
2, 95280, Note_on_c, 0, 69, 95
2, 95400, Note_off_c, 0, 77, 80
2, 95400, Note_off_c, 0, 69, 80
2, 95400, Note_on_c, 0, 78, 95
2, 95400, Note_on_c, 0, 70, 95
2, 95520, Note_off_c, 0, 78, 80
2, 95520, Note_off_c, 0, 70, 80
2, 95520, Note_on_c, 0, 70, 95
2, 95520, Note_on_c, 0, 65, 95
2, 95640, Note_off_c, 0, 70, 80
2, 95640, Note_off_c, 0, 65, 80
2, 95640, Note_on_c, 0, 78, 95
2, 95640, Note_on_c, 0, 70, 95
2, 95760, Note_off_c, 0, 78, 80
2, 95760, Note_off_c, 0, 70, 80
2, 95760, Note_on_c, 0, 77, 95
2, 95760, Note_on_c, 0, 69, 95
2, 95880, Note_off_c, 0, 77, 80
2, 95880, Note_off_c, 0, 69, 80
2, 95880, Note_on_c, 0, 78, 95
2, 95880, Note_on_c, 0, 70, 95
2, 96000, Note_off_c, 0, 78, 80
2, 96000, Note_off_c, 0, 70, 80
2, 96000, Note_on_c, 0, 69, 95
2, 96000, Note_on_c, 0, 69, 95
2, 96120, Note_off_c, 0, 69, 80
2, 96120, Note_off_c, 0, 69, 80
2, 96120, Note_on_c, 0, 72, 95
2, 96120, Note_on_c, 0, 63, 95
2, 96240, Note_off_c, 0, 72, 80
2, 96240, Note_off_c, 0, 63, 80
2, 96240, Note_on_c, 0, 70, 95
2, 96240, Note_on_c, 0, 61, 95
2, 96360, Note_off_c, 0, 70, 80
2, 96360, Note_off_c, 0, 61, 80
2, 96360, Note_on_c, 0, 72, 95
2, 96360, Note_on_c, 0, 63, 95
2, 96480, Note_off_c, 0, 72, 80
2, 96480, Note_off_c, 0, 63, 80
2, 96480, Note_on_c, 0, 69, 95
2, 96480, Note_on_c, 0, 60, 95
2, 96600, Note_off_c, 0, 69, 80
2, 96600, Note_off_c, 0, 60, 80
2, 96600, Note_on_c, 0, 72, 95
2, 96600, Note_on_c, 0, 63, 95
2, 96720, Note_off_c, 0, 72, 80
2, 96720, Note_off_c, 0, 63, 80
2, 96720, Note_on_c, 0, 70, 95
2, 96720, Note_on_c, 0, 61, 95
2, 96840, Note_off_c, 0, 70, 80
2, 96840, Note_off_c, 0, 61, 80
2, 96840, Note_on_c, 0, 72, 95
2, 96840, Note_on_c, 0, 63, 95
2, 96960, Note_off_c, 0, 72, 80
2, 96960, Note_off_c, 0, 63, 80
2, 96960, Note_on_c, 0, 69, 95
2, 96960, Note_on_c, 0, 69, 95
2, 97080, Note_off_c, 0, 69, 80
2, 97080, Note_off_c, 0, 69, 80
2, 97080, Note_on_c, 0, 72, 95
2, 97080, Note_on_c, 0, 63, 95
2, 97200, Note_off_c, 0, 72, 80
2, 97200, Note_off_c, 0, 63, 80
2, 97200, Note_on_c, 0, 70, 95
2, 97200, Note_on_c, 0, 61, 95
2, 97320, Note_off_c, 0, 70, 80
2, 97320, Note_off_c, 0, 61, 80
2, 97320, Note_on_c, 0, 72, 95
2, 97320, Note_on_c, 0, 63, 95
2, 97440, Note_off_c, 0, 72, 80
2, 97440, Note_off_c, 0, 63, 80
2, 97440, Note_on_c, 0, 69, 95
2, 97440, Note_on_c, 0, 60, 95
2, 97560, Note_off_c, 0, 69, 80
2, 97560, Note_off_c, 0, 60, 80
2, 97560, Note_on_c, 0, 72, 95
2, 97560, Note_on_c, 0, 63, 95
2, 97680, Note_off_c, 0, 72, 80
2, 97680, Note_off_c, 0, 63, 80
2, 97680, Note_on_c, 0, 70, 95
2, 97680, Note_on_c, 0, 61, 95
2, 97800, Note_off_c, 0, 70, 80
2, 97800, Note_off_c, 0, 61, 80
2, 97800, Note_on_c, 0, 72, 95
2, 97800, Note_on_c, 0, 63, 95
2, 97920, Note_off_c, 0, 72, 80
2, 97920, Note_off_c, 0, 63, 80
2, 97920, Note_on_c, 0, 70, 95
2, 97920, Note_on_c, 0, 70, 95
2, 98040, Note_off_c, 0, 70, 80
2, 98040, Note_off_c, 0, 70, 80
2, 98040, Note_on_c, 0, 77, 95
2, 98040, Note_on_c, 0, 65, 95
2, 98160, Note_off_c, 0, 77, 80
2, 98160, Note_off_c, 0, 65, 80
2, 98160, Note_on_c, 0, 75, 95
2, 98160, Note_on_c, 0, 63, 95
2, 98280, Note_off_c, 0, 75, 80
2, 98280, Note_off_c, 0, 63, 80
2, 98280, Note_on_c, 0, 77, 95
2, 98280, Note_on_c, 0, 65, 95
2, 98400, Note_off_c, 0, 77, 80
2, 98400, Note_off_c, 0, 65, 80
2, 98400, Note_on_c, 0, 72, 95
2, 98400, Note_on_c, 0, 61, 95
2, 98520, Note_off_c, 0, 72, 80
2, 98520, Note_off_c, 0, 61, 80
2, 98520, Note_on_c, 0, 77, 95
2, 98520, Note_on_c, 0, 65, 95
2, 98640, Note_off_c, 0, 77, 80
2, 98640, Note_off_c, 0, 65, 80
2, 98640, Note_on_c, 0, 75, 95
2, 98640, Note_on_c, 0, 63, 95
2, 98760, Note_off_c, 0, 75, 80
2, 98760, Note_off_c, 0, 63, 80
2, 98760, Note_on_c, 0, 77, 95
2, 98760, Note_on_c, 0, 65, 95
2, 98880, Note_off_c, 0, 77, 80
2, 98880, Note_off_c, 0, 65, 80
2, 98880, Note_on_c, 0, 70, 95
2, 98880, Note_on_c, 0, 70, 95
2, 99000, Note_off_c, 0, 70, 80
2, 99000, Note_off_c, 0, 70, 80
2, 99000, Note_on_c, 0, 77, 95
2, 99000, Note_on_c, 0, 65, 95
2, 99120, Note_off_c, 0, 77, 80
2, 99120, Note_off_c, 0, 65, 80
2, 99120, Note_on_c, 0, 75, 95
2, 99120, Note_on_c, 0, 63, 95
2, 99240, Note_off_c, 0, 75, 80
2, 99240, Note_off_c, 0, 63, 80
2, 99240, Note_on_c, 0, 77, 95
2, 99240, Note_on_c, 0, 65, 95
2, 99360, Note_off_c, 0, 77, 80
2, 99360, Note_off_c, 0, 65, 80
2, 99360, Note_on_c, 0, 72, 95
2, 99360, Note_on_c, 0, 61, 95
2, 99480, Note_off_c, 0, 72, 80
2, 99480, Note_off_c, 0, 61, 80
2, 99480, Note_on_c, 0, 77, 95
2, 99480, Note_on_c, 0, 65, 95
2, 99600, Note_off_c, 0, 77, 80
2, 99600, Note_off_c, 0, 65, 80
2, 99600, Note_on_c, 0, 75, 95
2, 99600, Note_on_c, 0, 63, 95
2, 99720, Note_off_c, 0, 75, 80
2, 99720, Note_off_c, 0, 63, 80
2, 99720, Note_on_c, 0, 77, 95
2, 99720, Note_on_c, 0, 65, 95
2, 99840, Note_off_c, 0, 77, 80
2, 99840, Note_off_c, 0, 65, 80
2, 99840, Note_on_c, 0, 70, 95
2, 99840, Note_on_c, 0, 70, 95
2, 99960, Note_off_c, 0, 70, 80
2, 99960, Note_off_c, 0, 70, 80
2, 99960, Note_on_c, 0, 77, 95
2, 99960, Note_on_c, 0, 65, 95
2, 100080, Note_off_c, 0, 77, 80
2, 100080, Note_off_c, 0, 65, 80
2, 100080, Note_on_c, 0, 75, 95
2, 100080, Note_on_c, 0, 63, 95
2, 100200, Note_off_c, 0, 75, 80
2, 100200, Note_off_c, 0, 63, 80
2, 100200, Note_on_c, 0, 77, 95
2, 100200, Note_on_c, 0, 65, 95
2, 100320, Note_off_c, 0, 77, 80
2, 100320, Note_off_c, 0, 65, 80
2, 100320, Note_on_c, 0, 72, 95
2, 100320, Note_on_c, 0, 61, 95
2, 100440, Note_off_c, 0, 72, 80
2, 100440, Note_off_c, 0, 61, 80
2, 100440, Note_on_c, 0, 77, 95
2, 100440, Note_on_c, 0, 65, 95
2, 100560, Note_off_c, 0, 77, 80
2, 100560, Note_off_c, 0, 65, 80
2, 100560, Note_on_c, 0, 75, 95
2, 100560, Note_on_c, 0, 63, 95
2, 100680, Note_off_c, 0, 75, 80
2, 100680, Note_off_c, 0, 63, 80
2, 100680, Note_on_c, 0, 77, 95
2, 100680, Note_on_c, 0, 65, 95
2, 100800, Note_off_c, 0, 77, 80
2, 100800, Note_off_c, 0, 65, 80
2, 100800, Note_on_c, 0, 70, 95
2, 100800, Note_on_c, 0, 70, 95
2, 100920, Note_off_c, 0, 70, 80
2, 100920, Note_off_c, 0, 70, 80
2, 100920, Note_on_c, 0, 77, 95
2, 100920, Note_on_c, 0, 65, 95
2, 101040, Note_off_c, 0, 77, 80
2, 101040, Note_off_c, 0, 65, 80
2, 101040, Note_on_c, 0, 75, 95
2, 101040, Note_on_c, 0, 63, 95
2, 101160, Note_off_c, 0, 75, 80
2, 101160, Note_off_c, 0, 63, 80
2, 101160, Note_on_c, 0, 77, 95
2, 101160, Note_on_c, 0, 65, 95
2, 101280, Note_off_c, 0, 77, 80
2, 101280, Note_off_c, 0, 65, 80
2, 101280, Note_on_c, 0, 72, 95
2, 101280, Note_on_c, 0, 61, 95
2, 101400, Note_off_c, 0, 72, 80
2, 101400, Note_off_c, 0, 61, 80
2, 101400, Note_on_c, 0, 77, 95
2, 101400, Note_on_c, 0, 65, 95
2, 101520, Note_off_c, 0, 77, 80
2, 101520, Note_off_c, 0, 65, 80
2, 101520, Note_on_c, 0, 75, 95
2, 101520, Note_on_c, 0, 63, 95
2, 101640, Note_off_c, 0, 75, 80
2, 101640, Note_off_c, 0, 63, 80
2, 101640, Note_on_c, 0, 77, 95
2, 101640, Note_on_c, 0, 65, 95
2, 101760, Note_off_c, 0, 77, 80
2, 101760, Note_off_c, 0, 65, 80
2, 101760, Note_on_c, 0, 82, 95
2, 101760, Note_on_c, 1, 70, 95
2, 101840, Pitch_bend_c, 1, 8192
2, 101920, Pitch_bend_c, 1, 9728
2, 102000, Pitch_bend_c, 1, 8192
2, 102080, Pitch_bend_c, 1, 9728
2, 102160, Pitch_bend_c, 1, 8192
2, 102240, Pitch_bend_c, 1, 9728
2, 102320, Pitch_bend_c, 1, 8192
2, 102400, Pitch_bend_c, 1, 9728
2, 102480, Pitch_bend_c, 1, 8192
2, 102560, Pitch_bend_c, 1, 9728
2, 102640, Pitch_bend_c, 1, 8192
2, 102720, Note_off_c, 0, 82, 80
2, 102720, Note_off_c, 1, 70, 80
2, 102720, Pitch_bend_c, 1, 9728
2, 102720, Pitch_bend_c, 1, 8192
2, 102720, Note_on_c, 0, 62, 15
2, 102740, Note_off_c, 0, 62, 80
2, 102780, Note_on_c, 0, 57, 15
2, 102800, Note_off_c, 0, 57, 80
2, 102840, Note_on_c, 0, 53, 15
2, 102860, Note_off_c, 0, 53, 80
2, 102860, End_track
3, 0, Start_track
3, 0, Title_t, "2"
3, 0, Control_c, 2, 100, 0
3, 0, Control_c, 2, 101, 0
3, 0, Control_c, 2, 6, 2
3, 0, Pitch_bend_c, 2, 8192
3, 0, Control_c, 3, 100, 0
3, 0, Control_c, 3, 101, 0
3, 0, Control_c, 3, 6, 2
3, 0, Pitch_bend_c, 3, 8192
3, 0, Program_c, 2, 30
3, 0, Program_c, 3, 30
3, 0, Control_c, 2, 7, 112
3, 0, Control_c, 3, 7, 112
3, 0, Control_c, 2, 10, 80
3, 0, Control_c, 3, 10, 80
3, 0, Control_c, 2, 93, 80
3, 0, Control_c, 3, 93, 80
3, 0, Control_c, 2, 91, 48
3, 0, Control_c, 3, 91, 48
3, 0, Control_c, 2, 92, 0
3, 0, Control_c, 3, 92, 0
3, 0, Control_c, 2, 95, 0
3, 0, Control_c, 3, 95, 0
3, 0, Note_on_c, 2, 49, 95
3, 0, Note_on_c, 2, 46, 95
3, 0, Note_on_c, 2, 41, 95
3, 1920, Note_off_c, 2, 49, 80
3, 1920, Note_off_c, 2, 46, 80
3, 1920, Note_off_c, 2, 41, 80
3, 1920, Note_on_c, 2, 54, 95
3, 1920, Note_on_c, 2, 49, 95
3, 1920, Note_on_c, 2, 42, 95
3, 2160, Note_off_c, 2, 54, 80
3, 2160, Note_off_c, 2, 49, 80
3, 2160, Note_off_c, 2, 42, 80
3, 2160, Note_on_c, 2, 54, 95
3, 2160, Note_on_c, 2, 49, 95
3, 2160, Note_on_c, 2, 42, 95
3, 2340, Note_off_c, 2, 54, 80
3, 2340, Note_off_c, 2, 49, 80
3, 2340, Note_off_c, 2, 42, 80
3, 3840, Note_on_c, 2, 54, 95
3, 3840, Note_on_c, 2, 51, 95
3, 3840, Note_on_c, 2, 46, 95
3, 5760, Note_off_c, 2, 54, 80
3, 5760, Note_off_c, 2, 51, 80
3, 5760, Note_off_c, 2, 46, 80
3, 5760, Note_on_c, 2, 41, 95
3, 5880, Note_off_c, 2, 41, 80
3, 5880, Note_on_c, 2, 41, 111
3, 6000, Note_on_c, 2, 41, 95
3, 6060, Note_off_c, 2, 41, 80
3, 6120, Note_off_c, 2, 41, 80
3, 6120, Note_on_c, 2, 41, 95
3, 6240, Note_off_c, 2, 41, 80
3, 6240, Note_on_c, 2, 53, 95
3, 6240, Note_on_c, 2, 48, 95
3, 6240, Note_on_c, 2, 41, 95
3, 6720, Program_c, 2, 30
3, 6720, Program_c, 3, 30
3, 6720, Control_c, 2, 7, 104
3, 6720, Control_c, 3, 7, 104
3, 6720, Control_c, 2, 93, 80
3, 6720, Control_c, 3, 93, 80
3, 6720, Control_c, 2, 91, 48
3, 6720, Control_c, 3, 91, 48
3, 6720, Control_c, 2, 92, 0
3, 6720, Control_c, 3, 92, 0
3, 7680, Note_on_c, 2, 51, 95
3, 7680, Note_on_c, 2, 46, 95
3, 7680, Note_on_c, 2, 39, 95
3, 9120, Note_off_c, 2, 53, 80
3, 9120, Note_off_c, 2, 48, 80
3, 9120, Note_off_c, 2, 41, 80
3, 9600, Note_off_c, 2, 51, 80
3, 9600, Note_off_c, 2, 46, 80
3, 9600, Note_off_c, 2, 39, 80
3, 9600, Note_on_c, 2, 49, 95
3, 9600, Note_on_c, 2, 46, 95
3, 9600, Note_on_c, 2, 41, 95
3, 9720, Note_off_c, 2, 41, 80
3, 9840, Note_off_c, 2, 49, 80
3, 9840, Note_off_c, 2, 46, 80
3, 10560, Note_on_c, 2, 49, 95
3, 10560, Note_on_c, 2, 46, 95
3, 10560, Note_on_c, 2, 41, 95
3, 10680, Note_off_c, 2, 41, 80
3, 10800, Note_off_c, 2, 49, 80
3, 10800, Note_off_c, 2, 46, 80
3, 11520, Note_on_c, 2, 54, 95
3, 11520, Note_on_c, 2, 49, 95
3, 11520, Note_on_c, 2, 42, 95
3, 11640, Note_off_c, 2, 54, 80
3, 11640, Note_off_c, 2, 49, 80
3, 11640, Note_off_c, 2, 42, 80
3, 11640, Note_on_c, 2, 54, 95
3, 11640, Note_on_c, 2, 49, 95
3, 11640, Note_on_c, 2, 42, 95
3, 11820, Note_off_c, 2, 54, 80
3, 11820, Note_off_c, 2, 49, 80
3, 11820, Note_off_c, 2, 42, 80
3, 12480, Note_on_c, 2, 49, 86
3, 12480, Note_on_c, 2, 42, 100
3, 12600, Note_off_c, 2, 49, 80
3, 12600, Note_off_c, 2, 42, 80
3, 12600, Note_on_c, 2, 49, 86
3, 12600, Note_on_c, 2, 42, 100
3, 12720, Note_off_c, 2, 49, 80
3, 12720, Note_off_c, 2, 42, 80
3, 12720, Note_on_c, 3, 61, 95
3, 12720, Note_on_c, 3, 57, 95
3, 12800, Pitch_bend_c, 3, 8192
3, 12800, Pitch_bend_c, 3, 8192
3, 12880, Pitch_bend_c, 3, 9728
3, 12880, Pitch_bend_c, 3, 9728
3, 12960, Pitch_bend_c, 3, 8192
3, 12960, Pitch_bend_c, 3, 8192
3, 13040, Pitch_bend_c, 3, 9728
3, 13040, Pitch_bend_c, 3, 9728
3, 13120, Pitch_bend_c, 3, 8192
3, 13120, Pitch_bend_c, 3, 8192
3, 13200, Pitch_bend_c, 3, 9728
3, 13200, Pitch_bend_c, 3, 9728
3, 13280, Pitch_bend_c, 3, 8192
3, 13280, Pitch_bend_c, 3, 8192
3, 13360, Pitch_bend_c, 3, 9728
3, 13360, Pitch_bend_c, 3, 9728
3, 13440, Note_off_c, 3, 61, 80
3, 13440, Pitch_bend_c, 3, 8192
3, 13440, Pitch_bend_c, 3, 8192
3, 13440, Note_off_c, 3, 57, 80
3, 13440, Pitch_bend_c, 3, 8192
3, 13440, Pitch_bend_c, 3, 8192
3, 13440, Note_on_c, 2, 49, 95
3, 13440, Note_on_c, 2, 42, 95
3, 13560, Note_off_c, 2, 49, 80
3, 13560, Note_off_c, 2, 42, 80
3, 13560, Note_on_c, 2, 49, 95
3, 13560, Note_on_c, 2, 42, 100
3, 13680, Note_off_c, 2, 49, 80
3, 13680, Note_off_c, 2, 42, 80
3, 13680, Note_on_c, 2, 49, 95
3, 13680, Note_on_c, 2, 42, 100
3, 13800, Note_off_c, 2, 49, 80
3, 13800, Note_off_c, 2, 42, 80
3, 13800, Note_on_c, 2, 49, 95
3, 13800, Note_on_c, 2, 42, 100
3, 13920, Note_off_c, 2, 49, 80
3, 13920, Note_off_c, 2, 42, 80
3, 13920, Note_on_c, 2, 54, 95
3, 13920, Note_on_c, 2, 49, 95
3, 13920, Note_on_c, 2, 42, 95
3, 14280, Note_off_c, 2, 54, 80
3, 14280, Note_off_c, 2, 49, 80
3, 14280, Note_off_c, 2, 42, 80
3, 14400, Note_on_c, 2, 49, 95
3, 14400, Note_on_c, 2, 42, 95
3, 14520, Note_off_c, 2, 49, 80
3, 14520, Note_off_c, 2, 42, 80
3, 14520, Note_on_c, 2, 49, 95
3, 14520, Note_on_c, 2, 42, 100
3, 14640, Note_off_c, 2, 49, 80
3, 14640, Note_off_c, 2, 42, 80
3, 14640, Note_on_c, 2, 49, 95
3, 14640, Note_on_c, 2, 42, 100
3, 14760, Note_off_c, 2, 49, 80
3, 14760, Note_off_c, 2, 42, 80
3, 14760, Note_on_c, 2, 49, 95
3, 14760, Note_on_c, 2, 42, 100
3, 14880, Note_off_c, 2, 49, 80
3, 14880, Note_off_c, 2, 42, 80
3, 14880, Note_on_c, 2, 54, 95
3, 14880, Note_on_c, 2, 49, 95
3, 14880, Note_on_c, 2, 42, 95
3, 15240, Note_off_c, 2, 54, 80
3, 15240, Note_off_c, 2, 49, 80
3, 15240, Note_off_c, 2, 42, 80
3, 15360, Note_on_c, 2, 48, 95
3, 15360, Note_on_c, 2, 41, 95
3, 15480, Note_off_c, 2, 48, 80
3, 15480, Note_off_c, 2, 41, 80
3, 15480, Note_on_c, 2, 48, 95
3, 15480, Note_on_c, 2, 41, 100
3, 15600, Note_off_c, 2, 48, 80
3, 15600, Note_off_c, 2, 41, 80
3, 15600, Note_on_c, 2, 48, 95
3, 15600, Note_on_c, 2, 41, 100
3, 15720, Note_off_c, 2, 48, 80
3, 15720, Note_off_c, 2, 41, 80
3, 15720, Note_on_c, 2, 48, 95
3, 15720, Note_on_c, 2, 41, 100
3, 15840, Note_off_c, 2, 48, 80
3, 15840, Note_off_c, 2, 41, 80
3, 15840, Note_on_c, 2, 53, 95
3, 15840, Note_on_c, 2, 48, 95
3, 15840, Note_on_c, 2, 41, 95
3, 17280, Note_on_c, 2, 51, 95
3, 17280, Note_on_c, 2, 46, 95
3, 17280, Note_on_c, 2, 39, 95
3, 18720, Note_off_c, 2, 53, 80
3, 18720, Note_off_c, 2, 48, 80
3, 18720, Note_off_c, 2, 41, 80
3, 19200, Note_off_c, 2, 51, 80
3, 19200, Note_off_c, 2, 46, 80
3, 19200, Note_off_c, 2, 39, 80
3, 21120, Note_on_c, 2, 53, 95
3, 21120, Note_on_c, 2, 46, 95
3, 21240, Note_off_c, 2, 53, 80
3, 21240, Note_off_c, 2, 46, 80
3, 21240, Note_on_c, 2, 53, 86
3, 21240, Note_on_c, 2, 46, 100
3, 21360, Note_off_c, 2, 53, 80
3, 21360, Note_off_c, 2, 46, 80
3, 21360, Note_on_c, 2, 53, 86
3, 21360, Note_on_c, 2, 46, 100
3, 21480, Note_off_c, 2, 53, 80
3, 21480, Note_off_c, 2, 46, 80
3, 21480, Note_on_c, 2, 53, 86
3, 21480, Note_on_c, 2, 46, 100
3, 21600, Note_off_c, 2, 53, 80
3, 21600, Note_off_c, 2, 46, 80
3, 21600, Note_on_c, 2, 53, 86
3, 21600, Note_on_c, 2, 46, 100
3, 21720, Note_off_c, 2, 53, 80
3, 21720, Note_off_c, 2, 46, 80
3, 21720, Note_on_c, 2, 53, 86
3, 21720, Note_on_c, 2, 46, 100
3, 21840, Note_off_c, 2, 53, 80
3, 21840, Note_off_c, 2, 46, 80
3, 21840, Note_on_c, 2, 53, 86
3, 21840, Note_on_c, 2, 46, 100
3, 21960, Note_off_c, 2, 53, 80
3, 21960, Note_off_c, 2, 46, 80
3, 21960, Note_on_c, 2, 53, 86
3, 21960, Note_on_c, 2, 46, 100
3, 22080, Note_off_c, 2, 53, 80
3, 22080, Note_off_c, 2, 46, 80
3, 22080, Note_on_c, 2, 53, 95
3, 22080, Note_on_c, 2, 46, 111
3, 22200, Note_off_c, 2, 53, 80
3, 22200, Note_off_c, 2, 46, 80
3, 22200, Note_on_c, 2, 53, 86
3, 22200, Note_on_c, 2, 46, 100
3, 22320, Note_off_c, 2, 53, 80
3, 22320, Note_off_c, 2, 46, 80
3, 22320, Note_on_c, 2, 53, 86
3, 22320, Note_on_c, 2, 46, 100
3, 22440, Note_off_c, 2, 53, 80
3, 22440, Note_off_c, 2, 46, 80
3, 22440, Note_on_c, 2, 53, 86
3, 22440, Note_on_c, 2, 46, 100
3, 22560, Note_off_c, 2, 53, 80
3, 22560, Note_off_c, 2, 46, 80
3, 22560, Note_on_c, 2, 53, 86
3, 22560, Note_on_c, 2, 46, 100
3, 22680, Note_off_c, 2, 53, 80
3, 22680, Note_off_c, 2, 46, 80
3, 22680, Note_on_c, 2, 53, 86
3, 22680, Note_on_c, 2, 46, 100
3, 22800, Note_off_c, 2, 53, 80
3, 22800, Note_off_c, 2, 46, 80
3, 22800, Note_on_c, 2, 53, 86
3, 22800, Note_on_c, 2, 46, 100
3, 22920, Note_off_c, 2, 53, 80
3, 22920, Note_off_c, 2, 46, 80
3, 22920, Note_on_c, 2, 53, 86
3, 22920, Note_on_c, 2, 46, 100
3, 23040, Note_off_c, 2, 53, 80
3, 23040, Note_off_c, 2, 46, 80
3, 23040, Note_on_c, 2, 49, 111
3, 23040, Note_on_c, 2, 42, 111
3, 23160, Note_off_c, 2, 49, 80
3, 23160, Note_off_c, 2, 42, 80
3, 23160, Note_on_c, 2, 49, 100
3, 23160, Note_on_c, 2, 42, 100
3, 23280, Note_off_c, 2, 49, 80
3, 23280, Note_off_c, 2, 42, 80
3, 23280, Note_on_c, 2, 49, 100
3, 23280, Note_on_c, 2, 42, 100
3, 23400, Note_off_c, 2, 49, 80
3, 23400, Note_off_c, 2, 42, 80
3, 23400, Note_on_c, 2, 49, 100
3, 23400, Note_on_c, 2, 42, 100
3, 23520, Note_off_c, 2, 49, 80
3, 23520, Note_off_c, 2, 42, 80
3, 23520, Note_on_c, 2, 49, 100
3, 23520, Note_on_c, 2, 42, 100
3, 23640, Note_off_c, 2, 49, 80
3, 23640, Note_off_c, 2, 42, 80
3, 23640, Note_on_c, 2, 49, 100
3, 23640, Note_on_c, 2, 42, 100
3, 23760, Note_off_c, 2, 49, 80
3, 23760, Note_off_c, 2, 42, 80
3, 23760, Note_on_c, 2, 49, 100
3, 23760, Note_on_c, 2, 42, 100
3, 23880, Note_off_c, 2, 49, 80
3, 23880, Note_off_c, 2, 42, 80
3, 23880, Note_on_c, 2, 49, 100
3, 23880, Note_on_c, 2, 42, 100
3, 24000, Note_off_c, 2, 49, 80
3, 24000, Note_off_c, 2, 42, 80
3, 24000, Note_on_c, 2, 49, 111
3, 24000, Note_on_c, 2, 42, 111
3, 24120, Note_off_c, 2, 49, 80
3, 24120, Note_off_c, 2, 42, 80
3, 24120, Note_on_c, 2, 49, 100
3, 24120, Note_on_c, 2, 42, 100
3, 24240, Note_off_c, 2, 49, 80
3, 24240, Note_off_c, 2, 42, 80
3, 24240, Note_on_c, 2, 49, 100
3, 24240, Note_on_c, 2, 42, 100
3, 24360, Note_off_c, 2, 49, 80
3, 24360, Note_off_c, 2, 42, 80
3, 24360, Note_on_c, 2, 49, 100
3, 24360, Note_on_c, 2, 42, 100
3, 24480, Note_off_c, 2, 49, 80
3, 24480, Note_off_c, 2, 42, 80
3, 24480, Note_on_c, 2, 49, 100
3, 24480, Note_on_c, 2, 42, 100
3, 24600, Note_off_c, 2, 49, 80
3, 24600, Note_off_c, 2, 42, 80
3, 24600, Note_on_c, 2, 49, 100
3, 24600, Note_on_c, 2, 42, 100
3, 24720, Note_off_c, 2, 49, 80
3, 24720, Note_off_c, 2, 42, 80
3, 24720, Note_on_c, 2, 49, 100
3, 24720, Note_on_c, 2, 42, 100
3, 24840, Note_off_c, 2, 49, 80
3, 24840, Note_off_c, 2, 42, 80
3, 24840, Note_on_c, 2, 49, 100
3, 24840, Note_on_c, 2, 42, 100
3, 24960, Note_off_c, 2, 49, 80
3, 24960, Note_off_c, 2, 42, 80
3, 24960, Note_on_c, 2, 46, 95
3, 24960, Note_on_c, 2, 39, 111
3, 25080, Note_off_c, 2, 46, 80
3, 25080, Note_off_c, 2, 39, 80
3, 25080, Note_on_c, 2, 46, 86
3, 25080, Note_on_c, 2, 39, 100
3, 25200, Note_off_c, 2, 46, 80
3, 25200, Note_off_c, 2, 39, 80
3, 25200, Note_on_c, 2, 46, 86
3, 25200, Note_on_c, 2, 39, 100
3, 25320, Note_off_c, 2, 46, 80
3, 25320, Note_off_c, 2, 39, 80
3, 25320, Note_on_c, 2, 46, 86
3, 25320, Note_on_c, 2, 39, 100
3, 25440, Note_off_c, 2, 46, 80
3, 25440, Note_off_c, 2, 39, 80
3, 25440, Note_on_c, 2, 46, 86
3, 25440, Note_on_c, 2, 39, 100
3, 25560, Note_off_c, 2, 46, 80
3, 25560, Note_off_c, 2, 39, 80
3, 25560, Note_on_c, 2, 46, 86
3, 25560, Note_on_c, 2, 39, 100
3, 25680, Note_off_c, 2, 46, 80
3, 25680, Note_off_c, 2, 39, 80
3, 25680, Note_on_c, 2, 46, 86
3, 25680, Note_on_c, 2, 39, 100
3, 25800, Note_off_c, 2, 46, 80
3, 25800, Note_off_c, 2, 39, 80
3, 25800, Note_on_c, 2, 46, 86
3, 25800, Note_on_c, 2, 39, 100
3, 25920, Note_off_c, 2, 46, 80
3, 25920, Note_off_c, 2, 39, 80
3, 25920, Note_on_c, 2, 46, 95
3, 25920, Note_on_c, 2, 39, 111
3, 26040, Note_off_c, 2, 46, 80
3, 26040, Note_off_c, 2, 39, 80
3, 26040, Note_on_c, 2, 46, 86
3, 26040, Note_on_c, 2, 39, 100
3, 26160, Note_off_c, 2, 46, 80
3, 26160, Note_off_c, 2, 39, 80
3, 26160, Note_on_c, 2, 46, 86
3, 26160, Note_on_c, 2, 39, 100
3, 26280, Note_off_c, 2, 46, 80
3, 26280, Note_off_c, 2, 39, 80
3, 26280, Note_on_c, 2, 46, 86
3, 26280, Note_on_c, 2, 39, 100
3, 26400, Note_off_c, 2, 46, 80
3, 26400, Note_off_c, 2, 39, 80
3, 26400, Note_on_c, 2, 46, 86
3, 26400, Note_on_c, 2, 39, 100
3, 26520, Note_off_c, 2, 46, 80
3, 26520, Note_off_c, 2, 39, 80
3, 26520, Note_on_c, 2, 46, 86
3, 26520, Note_on_c, 2, 39, 100
3, 26640, Note_off_c, 2, 46, 80
3, 26640, Note_off_c, 2, 39, 80
3, 26640, Note_on_c, 2, 46, 86
3, 26640, Note_on_c, 2, 39, 100
3, 26760, Note_off_c, 2, 46, 80
3, 26760, Note_off_c, 2, 39, 80
3, 26760, Note_on_c, 2, 46, 86
3, 26760, Note_on_c, 2, 39, 100
3, 26880, Note_off_c, 2, 46, 80
3, 26880, Note_off_c, 2, 39, 80
3, 26880, Note_on_c, 2, 48, 95
3, 26880, Note_on_c, 2, 41, 111
3, 27000, Note_off_c, 2, 48, 80
3, 27000, Note_off_c, 2, 41, 80
3, 27000, Note_on_c, 2, 48, 86
3, 27000, Note_on_c, 2, 41, 100
3, 27120, Note_off_c, 2, 48, 80
3, 27120, Note_off_c, 2, 41, 80
3, 27120, Note_on_c, 2, 48, 86
3, 27120, Note_on_c, 2, 41, 100
3, 27240, Note_off_c, 2, 48, 80
3, 27240, Note_off_c, 2, 41, 80
3, 27240, Note_on_c, 2, 48, 86
3, 27240, Note_on_c, 2, 41, 100
3, 27360, Note_off_c, 2, 48, 80
3, 27360, Note_off_c, 2, 41, 80
3, 27360, Note_on_c, 2, 48, 86
3, 27360, Note_on_c, 2, 41, 100
3, 27480, Note_off_c, 2, 48, 80
3, 27480, Note_off_c, 2, 41, 80
3, 27480, Note_on_c, 2, 48, 86
3, 27480, Note_on_c, 2, 41, 100
3, 27600, Note_off_c, 2, 48, 80
3, 27600, Note_off_c, 2, 41, 80
3, 27600, Note_on_c, 2, 48, 86
3, 27600, Note_on_c, 2, 41, 100
3, 27720, Note_off_c, 2, 48, 80
3, 27720, Note_off_c, 2, 41, 80
3, 27720, Note_on_c, 2, 48, 86
3, 27720, Note_on_c, 2, 41, 100
3, 27840, Note_off_c, 2, 48, 80
3, 27840, Note_off_c, 2, 41, 80
3, 27840, Note_on_c, 2, 48, 95
3, 27840, Note_on_c, 2, 41, 111
3, 27960, Note_off_c, 2, 48, 80
3, 27960, Note_off_c, 2, 41, 80
3, 27960, Note_on_c, 2, 48, 86
3, 27960, Note_on_c, 2, 41, 100
3, 28080, Note_off_c, 2, 48, 80
3, 28080, Note_off_c, 2, 41, 80
3, 28080, Note_on_c, 2, 48, 86
3, 28080, Note_on_c, 2, 41, 100
3, 28200, Note_off_c, 2, 48, 80
3, 28200, Note_off_c, 2, 41, 80
3, 28200, Note_on_c, 2, 48, 86
3, 28200, Note_on_c, 2, 41, 100
3, 28320, Note_off_c, 2, 48, 80
3, 28320, Note_off_c, 2, 41, 80
3, 28320, Note_on_c, 2, 48, 86
3, 28320, Note_on_c, 2, 41, 100
3, 28440, Note_off_c, 2, 48, 80
3, 28440, Note_off_c, 2, 41, 80
3, 28440, Note_on_c, 2, 48, 86
3, 28440, Note_on_c, 2, 41, 100
3, 28560, Note_off_c, 2, 48, 80
3, 28560, Note_off_c, 2, 41, 80
3, 28560, Note_on_c, 2, 48, 86
3, 28560, Note_on_c, 2, 41, 100
3, 28680, Note_off_c, 2, 48, 80
3, 28680, Note_off_c, 2, 41, 80
3, 28680, Note_on_c, 2, 48, 86
3, 28680, Note_on_c, 2, 41, 100
3, 28800, Note_off_c, 2, 48, 80
3, 28800, Note_off_c, 2, 41, 80
3, 28800, Note_on_c, 2, 53, 95
3, 28800, Note_on_c, 2, 46, 95
3, 28920, Note_off_c, 2, 53, 80
3, 28920, Note_off_c, 2, 46, 80
3, 28920, Note_on_c, 2, 53, 86
3, 28920, Note_on_c, 2, 46, 100
3, 29040, Note_off_c, 2, 53, 80
3, 29040, Note_off_c, 2, 46, 80
3, 29040, Note_on_c, 2, 53, 86
3, 29040, Note_on_c, 2, 46, 100
3, 29160, Note_off_c, 2, 53, 80
3, 29160, Note_off_c, 2, 46, 80
3, 29160, Note_on_c, 2, 53, 86
3, 29160, Note_on_c, 2, 46, 100
3, 29280, Note_off_c, 2, 53, 80
3, 29280, Note_off_c, 2, 46, 80
3, 29280, Note_on_c, 2, 53, 86
3, 29280, Note_on_c, 2, 46, 100
3, 29400, Note_off_c, 2, 53, 80
3, 29400, Note_off_c, 2, 46, 80
3, 29400, Note_on_c, 2, 53, 86
3, 29400, Note_on_c, 2, 46, 100
3, 29520, Note_off_c, 2, 53, 80
3, 29520, Note_off_c, 2, 46, 80
3, 29520, Note_on_c, 2, 53, 86
3, 29520, Note_on_c, 2, 46, 100
3, 29640, Note_off_c, 2, 53, 80
3, 29640, Note_off_c, 2, 46, 80
3, 29640, Note_on_c, 2, 53, 86
3, 29640, Note_on_c, 2, 46, 100
3, 29760, Note_off_c, 2, 53, 80
3, 29760, Note_off_c, 2, 46, 80
3, 29760, Note_on_c, 2, 53, 95
3, 29760, Note_on_c, 2, 46, 111
3, 29880, Note_off_c, 2, 53, 80
3, 29880, Note_off_c, 2, 46, 80
3, 29880, Note_on_c, 2, 53, 86
3, 29880, Note_on_c, 2, 46, 100
3, 30000, Note_off_c, 2, 53, 80
3, 30000, Note_off_c, 2, 46, 80
3, 30000, Note_on_c, 2, 53, 86
3, 30000, Note_on_c, 2, 46, 100
3, 30120, Note_off_c, 2, 53, 80
3, 30120, Note_off_c, 2, 46, 80
3, 30120, Note_on_c, 2, 53, 86
3, 30120, Note_on_c, 2, 46, 100
3, 30240, Note_off_c, 2, 53, 80
3, 30240, Note_off_c, 2, 46, 80
3, 30240, Note_on_c, 2, 53, 86
3, 30240, Note_on_c, 2, 46, 100
3, 30360, Note_off_c, 2, 53, 80
3, 30360, Note_off_c, 2, 46, 80
3, 30360, Note_on_c, 2, 53, 86
3, 30360, Note_on_c, 2, 46, 100
3, 30480, Note_off_c, 2, 53, 80
3, 30480, Note_off_c, 2, 46, 80
3, 30480, Note_on_c, 2, 53, 86
3, 30480, Note_on_c, 2, 46, 100
3, 30600, Note_off_c, 2, 53, 80
3, 30600, Note_off_c, 2, 46, 80
3, 30600, Note_on_c, 2, 53, 86
3, 30600, Note_on_c, 2, 46, 100
3, 30720, Note_off_c, 2, 53, 80
3, 30720, Note_off_c, 2, 46, 80
3, 30720, Note_on_c, 2, 49, 111
3, 30720, Note_on_c, 2, 42, 111
3, 30840, Note_off_c, 2, 49, 80
3, 30840, Note_off_c, 2, 42, 80
3, 30840, Note_on_c, 2, 49, 100
3, 30840, Note_on_c, 2, 42, 100
3, 30960, Note_off_c, 2, 49, 80
3, 30960, Note_off_c, 2, 42, 80
3, 30960, Note_on_c, 2, 49, 100
3, 30960, Note_on_c, 2, 42, 100
3, 31080, Note_off_c, 2, 49, 80
3, 31080, Note_off_c, 2, 42, 80
3, 31080, Note_on_c, 2, 49, 100
3, 31080, Note_on_c, 2, 42, 100
3, 31200, Note_off_c, 2, 49, 80
3, 31200, Note_off_c, 2, 42, 80
3, 31200, Note_on_c, 2, 49, 100
3, 31200, Note_on_c, 2, 42, 100
3, 31320, Note_off_c, 2, 49, 80
3, 31320, Note_off_c, 2, 42, 80
3, 31320, Note_on_c, 2, 49, 100
3, 31320, Note_on_c, 2, 42, 100
3, 31440, Note_off_c, 2, 49, 80
3, 31440, Note_off_c, 2, 42, 80
3, 31440, Note_on_c, 2, 49, 100
3, 31440, Note_on_c, 2, 42, 100
3, 31560, Note_off_c, 2, 49, 80
3, 31560, Note_off_c, 2, 42, 80
3, 31560, Note_on_c, 2, 49, 100
3, 31560, Note_on_c, 2, 42, 100
3, 31680, Note_off_c, 2, 49, 80
3, 31680, Note_off_c, 2, 42, 80
3, 31680, Note_on_c, 2, 49, 111
3, 31680, Note_on_c, 2, 42, 111
3, 31800, Note_off_c, 2, 49, 80
3, 31800, Note_off_c, 2, 42, 80
3, 31800, Note_on_c, 2, 49, 100
3, 31800, Note_on_c, 2, 42, 100
3, 31920, Note_off_c, 2, 49, 80
3, 31920, Note_off_c, 2, 42, 80
3, 31920, Note_on_c, 2, 49, 100
3, 31920, Note_on_c, 2, 42, 100
3, 32040, Note_off_c, 2, 49, 80
3, 32040, Note_off_c, 2, 42, 80
3, 32040, Note_on_c, 2, 49, 100
3, 32040, Note_on_c, 2, 42, 100
3, 32160, Note_off_c, 2, 49, 80
3, 32160, Note_off_c, 2, 42, 80
3, 32160, Note_on_c, 2, 49, 100
3, 32160, Note_on_c, 2, 42, 100
3, 32280, Note_off_c, 2, 49, 80
3, 32280, Note_off_c, 2, 42, 80
3, 32280, Note_on_c, 2, 49, 100
3, 32280, Note_on_c, 2, 42, 100
3, 32400, Note_off_c, 2, 49, 80
3, 32400, Note_off_c, 2, 42, 80
3, 32400, Note_on_c, 2, 49, 100
3, 32400, Note_on_c, 2, 42, 100
3, 32520, Note_off_c, 2, 49, 80
3, 32520, Note_off_c, 2, 42, 80
3, 32520, Note_on_c, 2, 49, 100
3, 32520, Note_on_c, 2, 42, 100
3, 32640, Note_off_c, 2, 49, 80
3, 32640, Note_off_c, 2, 42, 80
3, 32640, Note_on_c, 2, 46, 95
3, 32640, Note_on_c, 2, 39, 111
3, 32760, Note_off_c, 2, 46, 80
3, 32760, Note_off_c, 2, 39, 80
3, 32760, Note_on_c, 2, 46, 86
3, 32760, Note_on_c, 2, 39, 100
3, 32880, Note_off_c, 2, 46, 80
3, 32880, Note_off_c, 2, 39, 80
3, 32880, Note_on_c, 2, 46, 86
3, 32880, Note_on_c, 2, 39, 100
3, 33000, Note_off_c, 2, 46, 80
3, 33000, Note_off_c, 2, 39, 80
3, 33000, Note_on_c, 2, 46, 86
3, 33000, Note_on_c, 2, 39, 100
3, 33120, Note_off_c, 2, 46, 80
3, 33120, Note_off_c, 2, 39, 80
3, 33120, Note_on_c, 2, 46, 86
3, 33120, Note_on_c, 2, 39, 100
3, 33240, Note_off_c, 2, 46, 80
3, 33240, Note_off_c, 2, 39, 80
3, 33240, Note_on_c, 2, 46, 86
3, 33240, Note_on_c, 2, 39, 100
3, 33360, Note_off_c, 2, 46, 80
3, 33360, Note_off_c, 2, 39, 80
3, 33360, Note_on_c, 2, 46, 86
3, 33360, Note_on_c, 2, 39, 100
3, 33480, Note_off_c, 2, 46, 80
3, 33480, Note_off_c, 2, 39, 80
3, 33480, Note_on_c, 2, 46, 86
3, 33480, Note_on_c, 2, 39, 100
3, 33600, Note_off_c, 2, 46, 80
3, 33600, Note_off_c, 2, 39, 80
3, 33600, Note_on_c, 2, 46, 95
3, 33600, Note_on_c, 2, 39, 111
3, 33720, Note_off_c, 2, 46, 80
3, 33720, Note_off_c, 2, 39, 80
3, 33720, Note_on_c, 2, 46, 86
3, 33720, Note_on_c, 2, 39, 100
3, 33840, Note_off_c, 2, 46, 80
3, 33840, Note_off_c, 2, 39, 80
3, 33840, Note_on_c, 2, 46, 86
3, 33840, Note_on_c, 2, 39, 100
3, 33960, Note_off_c, 2, 46, 80
3, 33960, Note_off_c, 2, 39, 80
3, 33960, Note_on_c, 2, 46, 86
3, 33960, Note_on_c, 2, 39, 100
3, 34080, Note_off_c, 2, 46, 80
3, 34080, Note_off_c, 2, 39, 80
3, 34080, Note_on_c, 2, 46, 86
3, 34080, Note_on_c, 2, 39, 100
3, 34200, Note_off_c, 2, 46, 80
3, 34200, Note_off_c, 2, 39, 80
3, 34200, Note_on_c, 2, 46, 86
3, 34200, Note_on_c, 2, 39, 100
3, 34320, Note_off_c, 2, 46, 80
3, 34320, Note_off_c, 2, 39, 80
3, 34320, Note_on_c, 2, 46, 86
3, 34320, Note_on_c, 2, 39, 100
3, 34440, Note_off_c, 2, 46, 80
3, 34440, Note_off_c, 2, 39, 80
3, 34440, Note_on_c, 2, 46, 86
3, 34440, Note_on_c, 2, 39, 100
3, 34560, Note_off_c, 2, 46, 80
3, 34560, Note_off_c, 2, 39, 80
3, 34560, Note_on_c, 2, 48, 95
3, 34560, Note_on_c, 2, 41, 111
3, 34680, Note_off_c, 2, 48, 80
3, 34680, Note_off_c, 2, 41, 80
3, 34680, Note_on_c, 2, 48, 86
3, 34680, Note_on_c, 2, 41, 100
3, 34800, Note_off_c, 2, 48, 80
3, 34800, Note_off_c, 2, 41, 80
3, 34800, Note_on_c, 2, 48, 86
3, 34800, Note_on_c, 2, 41, 100
3, 34920, Note_off_c, 2, 48, 80
3, 34920, Note_off_c, 2, 41, 80
3, 34920, Note_on_c, 2, 48, 86
3, 34920, Note_on_c, 2, 41, 100
3, 35040, Note_off_c, 2, 48, 80
3, 35040, Note_off_c, 2, 41, 80
3, 35040, Note_on_c, 2, 48, 86
3, 35040, Note_on_c, 2, 41, 100
3, 35160, Note_off_c, 2, 48, 80
3, 35160, Note_off_c, 2, 41, 80
3, 35160, Note_on_c, 2, 48, 86
3, 35160, Note_on_c, 2, 41, 100
3, 35280, Note_off_c, 2, 48, 80
3, 35280, Note_off_c, 2, 41, 80
3, 35280, Note_on_c, 2, 48, 86
3, 35280, Note_on_c, 2, 41, 100
3, 35400, Note_off_c, 2, 48, 80
3, 35400, Note_off_c, 2, 41, 80
3, 35400, Note_on_c, 2, 48, 86
3, 35400, Note_on_c, 2, 41, 100
3, 35520, Note_off_c, 2, 48, 80
3, 35520, Note_off_c, 2, 41, 80
3, 35520, Note_on_c, 2, 48, 95
3, 35520, Note_on_c, 2, 41, 111
3, 35640, Note_off_c, 2, 48, 80
3, 35640, Note_off_c, 2, 41, 80
3, 35640, Note_on_c, 2, 48, 86
3, 35640, Note_on_c, 2, 41, 100
3, 35760, Note_off_c, 2, 48, 80
3, 35760, Note_off_c, 2, 41, 80
3, 35760, Note_on_c, 2, 48, 86
3, 35760, Note_on_c, 2, 41, 100
3, 35880, Note_off_c, 2, 48, 80
3, 35880, Note_off_c, 2, 41, 80
3, 35880, Note_on_c, 2, 48, 86
3, 35880, Note_on_c, 2, 41, 100
3, 36000, Note_off_c, 2, 48, 80
3, 36000, Note_off_c, 2, 41, 80
3, 36000, Note_on_c, 2, 48, 86
3, 36000, Note_on_c, 2, 41, 100
3, 36120, Note_off_c, 2, 48, 80
3, 36120, Note_off_c, 2, 41, 80
3, 36120, Note_on_c, 2, 48, 86
3, 36120, Note_on_c, 2, 41, 100
3, 36240, Note_off_c, 2, 48, 80
3, 36240, Note_off_c, 2, 41, 80
3, 36240, Note_on_c, 2, 48, 86
3, 36240, Note_on_c, 2, 41, 100
3, 36360, Note_off_c, 2, 48, 80
3, 36360, Note_off_c, 2, 41, 80
3, 36360, Note_on_c, 2, 48, 86
3, 36360, Note_on_c, 2, 41, 100
3, 36480, Note_off_c, 2, 48, 80
3, 36480, Note_off_c, 2, 41, 80
3, 36480, Note_on_c, 2, 48, 95
3, 36480, Note_on_c, 2, 41, 111
3, 36600, Note_off_c, 2, 48, 80
3, 36600, Note_off_c, 2, 41, 80
3, 36600, Note_on_c, 2, 48, 86
3, 36600, Note_on_c, 2, 41, 100
3, 36720, Note_off_c, 2, 48, 80
3, 36720, Note_off_c, 2, 41, 80
3, 36720, Note_on_c, 2, 48, 86
3, 36720, Note_on_c, 2, 41, 100
3, 36840, Note_off_c, 2, 48, 80
3, 36840, Note_off_c, 2, 41, 80
3, 36840, Note_on_c, 2, 48, 86
3, 36840, Note_on_c, 2, 41, 100
3, 36960, Note_off_c, 2, 48, 80
3, 36960, Note_off_c, 2, 41, 80
3, 36960, Note_on_c, 2, 48, 86
3, 36960, Note_on_c, 2, 41, 100
3, 37080, Note_off_c, 2, 48, 80
3, 37080, Note_off_c, 2, 41, 80
3, 37080, Note_on_c, 2, 48, 86
3, 37080, Note_on_c, 2, 41, 100
3, 37200, Note_off_c, 2, 48, 80
3, 37200, Note_off_c, 2, 41, 80
3, 37200, Note_on_c, 2, 48, 86
3, 37200, Note_on_c, 2, 41, 100
3, 37320, Note_off_c, 2, 48, 80
3, 37320, Note_off_c, 2, 41, 80
3, 37320, Note_on_c, 2, 48, 86
3, 37320, Note_on_c, 2, 41, 100
3, 37440, Note_off_c, 2, 48, 80
3, 37440, Note_off_c, 2, 41, 80
3, 37440, Note_on_c, 2, 48, 95
3, 37440, Note_on_c, 2, 41, 111
3, 37560, Note_off_c, 2, 48, 80
3, 37560, Note_off_c, 2, 41, 80
3, 37560, Note_on_c, 2, 48, 86
3, 37560, Note_on_c, 2, 41, 100
3, 37680, Note_off_c, 2, 48, 80
3, 37680, Note_off_c, 2, 41, 80
3, 37680, Note_on_c, 2, 48, 86
3, 37680, Note_on_c, 2, 41, 100
3, 37800, Note_off_c, 2, 48, 80
3, 37800, Note_off_c, 2, 41, 80
3, 37800, Note_on_c, 2, 48, 86
3, 37800, Note_on_c, 2, 41, 100
3, 37920, Note_off_c, 2, 48, 80
3, 37920, Note_off_c, 2, 41, 80
3, 37920, Note_on_c, 2, 48, 86
3, 37920, Note_on_c, 2, 41, 100
3, 38040, Note_off_c, 2, 48, 80
3, 38040, Note_off_c, 2, 41, 80
3, 38040, Note_on_c, 2, 48, 86
3, 38040, Note_on_c, 2, 41, 100
3, 38160, Note_off_c, 2, 48, 80
3, 38160, Note_off_c, 2, 41, 80
3, 38160, Note_on_c, 2, 48, 86
3, 38160, Note_on_c, 2, 41, 100
3, 38280, Note_off_c, 2, 48, 80
3, 38280, Note_off_c, 2, 41, 80
3, 38280, Note_on_c, 2, 48, 86
3, 38280, Note_on_c, 2, 41, 100
3, 38400, Note_off_c, 2, 48, 80
3, 38400, Note_off_c, 2, 41, 80
3, 38400, Note_on_c, 2, 53, 95
3, 38400, Note_on_c, 2, 46, 95
3, 38520, Note_off_c, 2, 53, 80
3, 38520, Note_off_c, 2, 46, 80
3, 38520, Note_on_c, 2, 53, 86
3, 38520, Note_on_c, 2, 46, 100
3, 38640, Note_off_c, 2, 53, 80
3, 38640, Note_off_c, 2, 46, 80
3, 38640, Note_on_c, 2, 53, 86
3, 38640, Note_on_c, 2, 46, 100
3, 38760, Note_off_c, 2, 53, 80
3, 38760, Note_off_c, 2, 46, 80
3, 38760, Note_on_c, 2, 53, 86
3, 38760, Note_on_c, 2, 46, 100
3, 38880, Note_off_c, 2, 53, 80
3, 38880, Note_off_c, 2, 46, 80
3, 38880, Note_on_c, 2, 53, 86
3, 38880, Note_on_c, 2, 46, 100
3, 39000, Note_off_c, 2, 53, 80
3, 39000, Note_off_c, 2, 46, 80
3, 39000, Note_on_c, 2, 53, 86
3, 39000, Note_on_c, 2, 46, 100
3, 39120, Note_off_c, 2, 53, 80
3, 39120, Note_off_c, 2, 46, 80
3, 39120, Note_on_c, 2, 53, 86
3, 39120, Note_on_c, 2, 46, 100
3, 39240, Note_off_c, 2, 53, 80
3, 39240, Note_off_c, 2, 46, 80
3, 39240, Note_on_c, 2, 53, 86
3, 39240, Note_on_c, 2, 46, 100
3, 39360, Note_off_c, 2, 53, 80
3, 39360, Note_off_c, 2, 46, 80
3, 39360, Note_on_c, 2, 53, 95
3, 39360, Note_on_c, 2, 46, 95
3, 39480, Note_off_c, 2, 53, 80
3, 39480, Note_off_c, 2, 46, 80
3, 39480, Note_on_c, 2, 53, 86
3, 39480, Note_on_c, 2, 46, 100
3, 39600, Note_off_c, 2, 53, 80
3, 39600, Note_off_c, 2, 46, 80
3, 39600, Note_on_c, 2, 53, 86
3, 39600, Note_on_c, 2, 46, 100
3, 39720, Note_off_c, 2, 53, 80
3, 39720, Note_off_c, 2, 46, 80
3, 39720, Note_on_c, 2, 53, 86
3, 39720, Note_on_c, 2, 46, 100
3, 39840, Note_off_c, 2, 53, 80
3, 39840, Note_off_c, 2, 46, 80
3, 39840, Note_on_c, 2, 53, 86
3, 39840, Note_on_c, 2, 46, 100
3, 39960, Note_off_c, 2, 53, 80
3, 39960, Note_off_c, 2, 46, 80
3, 39960, Note_on_c, 2, 53, 86
3, 39960, Note_on_c, 2, 46, 100
3, 40080, Note_off_c, 2, 53, 80
3, 40080, Note_off_c, 2, 46, 80
3, 40080, Note_on_c, 2, 53, 86
3, 40080, Note_on_c, 2, 46, 100
3, 40200, Note_off_c, 2, 53, 80
3, 40200, Note_off_c, 2, 46, 80
3, 40200, Note_on_c, 2, 53, 86
3, 40200, Note_on_c, 2, 46, 100
3, 40320, Note_off_c, 2, 53, 80
3, 40320, Note_off_c, 2, 46, 80
3, 40320, Note_on_c, 2, 48, 95
3, 40320, Note_on_c, 2, 41, 111
3, 40440, Note_off_c, 2, 48, 80
3, 40440, Note_off_c, 2, 41, 80
3, 40440, Note_on_c, 2, 48, 86
3, 40440, Note_on_c, 2, 41, 100
3, 40560, Note_off_c, 2, 48, 80
3, 40560, Note_off_c, 2, 41, 80
3, 40560, Note_on_c, 2, 48, 86
3, 40560, Note_on_c, 2, 41, 100
3, 40680, Note_off_c, 2, 48, 80
3, 40680, Note_off_c, 2, 41, 80
3, 40680, Note_on_c, 2, 48, 86
3, 40680, Note_on_c, 2, 41, 100
3, 40800, Note_off_c, 2, 48, 80
3, 40800, Note_off_c, 2, 41, 80
3, 40800, Note_on_c, 2, 48, 86
3, 40800, Note_on_c, 2, 41, 100
3, 40920, Note_off_c, 2, 48, 80
3, 40920, Note_off_c, 2, 41, 80
3, 40920, Note_on_c, 2, 48, 86
3, 40920, Note_on_c, 2, 41, 100
3, 41040, Note_off_c, 2, 48, 80
3, 41040, Note_off_c, 2, 41, 80
3, 41040, Note_on_c, 2, 48, 86
3, 41040, Note_on_c, 2, 41, 100
3, 41160, Note_off_c, 2, 48, 80
3, 41160, Note_off_c, 2, 41, 80
3, 41160, Note_on_c, 2, 48, 86
3, 41160, Note_on_c, 2, 41, 100
3, 41280, Note_off_c, 2, 48, 80
3, 41280, Note_off_c, 2, 41, 80
3, 41280, Note_on_c, 2, 48, 95
3, 41280, Note_on_c, 2, 41, 111
3, 41400, Note_off_c, 2, 48, 80
3, 41400, Note_off_c, 2, 41, 80
3, 41400, Note_on_c, 2, 48, 86
3, 41400, Note_on_c, 2, 41, 100
3, 41520, Note_off_c, 2, 48, 80
3, 41520, Note_off_c, 2, 41, 80
3, 41520, Note_on_c, 2, 48, 86
3, 41520, Note_on_c, 2, 41, 100
3, 41640, Note_off_c, 2, 48, 80
3, 41640, Note_off_c, 2, 41, 80
3, 41640, Note_on_c, 2, 48, 86
3, 41640, Note_on_c, 2, 41, 100
3, 41760, Note_off_c, 2, 48, 80
3, 41760, Note_off_c, 2, 41, 80
3, 41760, Note_on_c, 2, 48, 86
3, 41760, Note_on_c, 2, 41, 100
3, 41880, Note_off_c, 2, 48, 80
3, 41880, Note_off_c, 2, 41, 80
3, 41880, Note_on_c, 2, 48, 86
3, 41880, Note_on_c, 2, 41, 100
3, 42000, Note_off_c, 2, 48, 80
3, 42000, Note_off_c, 2, 41, 80
3, 42000, Note_on_c, 2, 48, 86
3, 42000, Note_on_c, 2, 41, 100
3, 42120, Note_off_c, 2, 48, 80
3, 42120, Note_off_c, 2, 41, 80
3, 42120, Note_on_c, 2, 48, 86
3, 42120, Note_on_c, 2, 41, 100
3, 42240, Note_off_c, 2, 48, 80
3, 42240, Note_off_c, 2, 41, 80
3, 42240, Note_on_c, 2, 56, 95
3, 42240, Note_on_c, 2, 51, 95
3, 42240, Note_on_c, 2, 44, 111
3, 42360, Note_off_c, 2, 56, 80
3, 42360, Note_off_c, 2, 51, 80
3, 42360, Note_off_c, 2, 44, 80
3, 42360, Note_on_c, 2, 51, 86
3, 42360, Note_on_c, 2, 44, 100
3, 42480, Note_off_c, 2, 51, 80
3, 42480, Note_off_c, 2, 44, 80
3, 42480, Note_on_c, 2, 51, 86
3, 42480, Note_on_c, 2, 44, 100
3, 42600, Note_off_c, 2, 51, 80
3, 42600, Note_off_c, 2, 44, 80
3, 42600, Note_on_c, 2, 51, 86
3, 42600, Note_on_c, 2, 44, 100
3, 42720, Note_off_c, 2, 51, 80
3, 42720, Note_off_c, 2, 44, 80
3, 42720, Note_on_c, 2, 51, 86
3, 42720, Note_on_c, 2, 44, 100
3, 42840, Note_off_c, 2, 51, 80
3, 42840, Note_off_c, 2, 44, 80
3, 42840, Note_on_c, 2, 51, 86
3, 42840, Note_on_c, 2, 44, 100
3, 42960, Note_off_c, 2, 51, 80
3, 42960, Note_off_c, 2, 44, 80
3, 42960, Note_on_c, 2, 51, 86
3, 42960, Note_on_c, 2, 44, 100
3, 43080, Note_off_c, 2, 51, 80
3, 43080, Note_off_c, 2, 44, 80
3, 43080, Note_on_c, 2, 51, 86
3, 43080, Note_on_c, 2, 44, 100
3, 43200, Note_off_c, 2, 51, 80
3, 43200, Note_off_c, 2, 44, 80
3, 43200, Note_on_c, 2, 56, 95
3, 43200, Note_on_c, 2, 51, 95
3, 43200, Note_on_c, 2, 44, 111
3, 43320, Note_off_c, 2, 56, 80
3, 43320, Note_off_c, 2, 51, 80
3, 43320, Note_off_c, 2, 44, 80
3, 43320, Note_on_c, 2, 51, 86
3, 43320, Note_on_c, 2, 44, 100
3, 43440, Note_off_c, 2, 51, 80
3, 43440, Note_off_c, 2, 44, 80
3, 43440, Note_on_c, 2, 51, 86
3, 43440, Note_on_c, 2, 44, 100
3, 43560, Note_off_c, 2, 51, 80
3, 43560, Note_off_c, 2, 44, 80
3, 43560, Note_on_c, 2, 51, 86
3, 43560, Note_on_c, 2, 44, 100
3, 43680, Note_off_c, 2, 51, 80
3, 43680, Note_off_c, 2, 44, 80
3, 43680, Note_on_c, 2, 51, 86
3, 43680, Note_on_c, 2, 44, 100
3, 43800, Note_off_c, 2, 51, 80
3, 43800, Note_off_c, 2, 44, 80
3, 43800, Note_on_c, 2, 51, 86
3, 43800, Note_on_c, 2, 44, 100
3, 43920, Note_off_c, 2, 51, 80
3, 43920, Note_off_c, 2, 44, 80
3, 43920, Note_on_c, 2, 51, 86
3, 43920, Note_on_c, 2, 44, 100
3, 44040, Note_off_c, 2, 51, 80
3, 44040, Note_off_c, 2, 44, 80
3, 44040, Note_on_c, 2, 51, 86
3, 44040, Note_on_c, 2, 44, 100
3, 44160, Note_off_c, 2, 51, 80
3, 44160, Note_off_c, 2, 44, 80
3, 44160, Note_on_c, 2, 53, 95
3, 44160, Note_on_c, 2, 46, 95
3, 44280, Note_off_c, 2, 53, 80
3, 44280, Note_off_c, 2, 46, 80
3, 44280, Note_on_c, 2, 53, 86
3, 44280, Note_on_c, 2, 46, 100
3, 44400, Note_off_c, 2, 53, 80
3, 44400, Note_off_c, 2, 46, 80
3, 44400, Note_on_c, 2, 53, 86
3, 44400, Note_on_c, 2, 46, 100
3, 44520, Note_off_c, 2, 53, 80
3, 44520, Note_off_c, 2, 46, 80
3, 44520, Note_on_c, 2, 53, 86
3, 44520, Note_on_c, 2, 46, 100
3, 44640, Note_off_c, 2, 53, 80
3, 44640, Note_off_c, 2, 46, 80
3, 44640, Note_on_c, 2, 53, 86
3, 44640, Note_on_c, 2, 46, 100
3, 44760, Note_off_c, 2, 53, 80
3, 44760, Note_off_c, 2, 46, 80
3, 44760, Note_on_c, 2, 53, 86
3, 44760, Note_on_c, 2, 46, 100
3, 44880, Note_off_c, 2, 53, 80
3, 44880, Note_off_c, 2, 46, 80
3, 44880, Note_on_c, 2, 53, 86
3, 44880, Note_on_c, 2, 46, 100
3, 45000, Note_off_c, 2, 53, 80
3, 45000, Note_off_c, 2, 46, 80
3, 45000, Note_on_c, 2, 53, 86
3, 45000, Note_on_c, 2, 46, 100
3, 45120, Note_off_c, 2, 53, 80
3, 45120, Note_off_c, 2, 46, 80
3, 45120, Note_on_c, 2, 53, 95
3, 45120, Note_on_c, 2, 46, 95
3, 45240, Note_off_c, 2, 53, 80
3, 45240, Note_off_c, 2, 46, 80
3, 45240, Note_on_c, 2, 53, 86
3, 45240, Note_on_c, 2, 46, 100
3, 45360, Note_off_c, 2, 53, 80
3, 45360, Note_off_c, 2, 46, 80
3, 45360, Note_on_c, 2, 53, 86
3, 45360, Note_on_c, 2, 46, 100
3, 45480, Note_off_c, 2, 53, 80
3, 45480, Note_off_c, 2, 46, 80
3, 45480, Note_on_c, 2, 53, 86
3, 45480, Note_on_c, 2, 46, 100
3, 45600, Note_off_c, 2, 53, 80
3, 45600, Note_off_c, 2, 46, 80
3, 45600, Note_on_c, 2, 53, 86
3, 45600, Note_on_c, 2, 46, 100
3, 45720, Note_off_c, 2, 53, 80
3, 45720, Note_off_c, 2, 46, 80
3, 45720, Note_on_c, 2, 53, 86
3, 45720, Note_on_c, 2, 46, 100
3, 45840, Note_off_c, 2, 53, 80
3, 45840, Note_off_c, 2, 46, 80
3, 45840, Note_on_c, 2, 53, 86
3, 45840, Note_on_c, 2, 46, 100
3, 45960, Note_off_c, 2, 53, 80
3, 45960, Note_off_c, 2, 46, 80
3, 45960, Note_on_c, 2, 53, 86
3, 45960, Note_on_c, 2, 46, 100
3, 46080, Note_off_c, 2, 53, 80
3, 46080, Note_off_c, 2, 46, 80
3, 46080, Note_on_c, 2, 42, 100
3, 46200, Note_off_c, 2, 42, 80
3, 46200, Note_on_c, 2, 42, 100
3, 46320, Note_off_c, 2, 42, 80
3, 46320, Note_on_c, 2, 54, 95
3, 46320, Note_on_c, 2, 49, 111
3, 46320, Note_on_c, 2, 42, 111
3, 46560, Note_off_c, 2, 54, 80
3, 46560, Note_off_c, 2, 49, 80
3, 46560, Note_off_c, 2, 42, 80
3, 46560, Note_on_c, 2, 42, 100
3, 46680, Note_off_c, 2, 42, 80
3, 46680, Note_on_c, 2, 42, 100
3, 46800, Note_off_c, 2, 42, 80
3, 46800, Note_on_c, 2, 54, 95
3, 46800, Note_on_c, 2, 49, 111
3, 46800, Note_on_c, 2, 42, 111
3, 47040, Note_off_c, 2, 54, 80
3, 47040, Note_off_c, 2, 49, 80
3, 47040, Note_off_c, 2, 42, 80
3, 47040, Note_on_c, 2, 42, 100
3, 47160, Note_off_c, 2, 42, 80
3, 47160, Note_on_c, 2, 42, 100
3, 47280, Note_off_c, 2, 42, 80
3, 47280, Note_on_c, 2, 54, 95
3, 47280, Note_on_c, 2, 49, 111
3, 47280, Note_on_c, 2, 42, 111
3, 47520, Note_off_c, 2, 54, 80
3, 47520, Note_off_c, 2, 49, 80
3, 47520, Note_off_c, 2, 42, 80
3, 47520, Note_on_c, 2, 42, 100
3, 47640, Note_off_c, 2, 42, 80
3, 47640, Note_on_c, 2, 42, 100
3, 47760, Note_off_c, 2, 42, 80
3, 47760, Note_on_c, 2, 54, 95
3, 47760, Note_on_c, 2, 49, 111
3, 47760, Note_on_c, 2, 42, 111
3, 48000, Note_off_c, 2, 54, 80
3, 48000, Note_off_c, 2, 49, 80
3, 48000, Note_off_c, 2, 42, 80
3, 48000, Note_on_c, 2, 46, 95
3, 48000, Note_on_c, 2, 39, 111
3, 48120, Note_off_c, 2, 46, 80
3, 48120, Note_off_c, 2, 39, 80
3, 48120, Note_on_c, 2, 46, 86
3, 48120, Note_on_c, 2, 39, 100
3, 48240, Note_off_c, 2, 46, 80
3, 48240, Note_off_c, 2, 39, 80
3, 48240, Note_on_c, 2, 46, 86
3, 48240, Note_on_c, 2, 39, 100
3, 48360, Note_off_c, 2, 46, 80
3, 48360, Note_off_c, 2, 39, 80
3, 48360, Note_on_c, 2, 46, 86
3, 48360, Note_on_c, 2, 39, 100
3, 48480, Note_off_c, 2, 46, 80
3, 48480, Note_off_c, 2, 39, 80
3, 48480, Note_on_c, 2, 46, 86
3, 48480, Note_on_c, 2, 39, 100
3, 48600, Note_off_c, 2, 46, 80
3, 48600, Note_off_c, 2, 39, 80
3, 48600, Note_on_c, 2, 46, 86
3, 48600, Note_on_c, 2, 39, 100
3, 48720, Note_off_c, 2, 46, 80
3, 48720, Note_off_c, 2, 39, 80
3, 48720, Note_on_c, 2, 46, 86
3, 48720, Note_on_c, 2, 39, 100
3, 48840, Note_off_c, 2, 46, 80
3, 48840, Note_off_c, 2, 39, 80
3, 48840, Note_on_c, 2, 46, 86
3, 48840, Note_on_c, 2, 39, 100
3, 48960, Note_off_c, 2, 46, 80
3, 48960, Note_off_c, 2, 39, 80
3, 48960, Note_on_c, 2, 46, 95
3, 48960, Note_on_c, 2, 39, 111
3, 49080, Note_off_c, 2, 46, 80
3, 49080, Note_off_c, 2, 39, 80
3, 49080, Note_on_c, 2, 46, 86
3, 49080, Note_on_c, 2, 39, 100
3, 49200, Note_off_c, 2, 46, 80
3, 49200, Note_off_c, 2, 39, 80
3, 49200, Note_on_c, 2, 46, 86
3, 49200, Note_on_c, 2, 39, 100
3, 49320, Note_off_c, 2, 46, 80
3, 49320, Note_off_c, 2, 39, 80
3, 49320, Note_on_c, 2, 46, 86
3, 49320, Note_on_c, 2, 39, 100
3, 49440, Note_off_c, 2, 46, 80
3, 49440, Note_off_c, 2, 39, 80
3, 49440, Note_on_c, 2, 46, 86
3, 49440, Note_on_c, 2, 39, 100
3, 49560, Note_off_c, 2, 46, 80
3, 49560, Note_off_c, 2, 39, 80
3, 49560, Note_on_c, 2, 46, 86
3, 49560, Note_on_c, 2, 39, 100
3, 49680, Note_off_c, 2, 46, 80
3, 49680, Note_off_c, 2, 39, 80
3, 49680, Note_on_c, 2, 46, 86
3, 49680, Note_on_c, 2, 39, 100
3, 49800, Note_off_c, 2, 46, 80
3, 49800, Note_off_c, 2, 39, 80
3, 49800, Note_on_c, 2, 46, 86
3, 49800, Note_on_c, 2, 39, 100
3, 49920, Note_off_c, 2, 46, 80
3, 49920, Note_off_c, 2, 39, 80
3, 49920, Note_on_c, 2, 48, 95
3, 49920, Note_on_c, 2, 41, 111
3, 50040, Note_off_c, 2, 48, 80
3, 50040, Note_off_c, 2, 41, 80
3, 50040, Note_on_c, 2, 48, 86
3, 50040, Note_on_c, 2, 41, 100
3, 50160, Note_off_c, 2, 48, 80
3, 50160, Note_off_c, 2, 41, 80
3, 50160, Note_on_c, 2, 48, 86
3, 50160, Note_on_c, 2, 41, 100
3, 50280, Note_off_c, 2, 48, 80
3, 50280, Note_off_c, 2, 41, 80
3, 50280, Note_on_c, 2, 48, 86
3, 50280, Note_on_c, 2, 41, 100
3, 50400, Note_off_c, 2, 48, 80
3, 50400, Note_off_c, 2, 41, 80
3, 50400, Note_on_c, 2, 48, 86
3, 50400, Note_on_c, 2, 41, 100
3, 50520, Note_off_c, 2, 48, 80
3, 50520, Note_off_c, 2, 41, 80
3, 50520, Note_on_c, 2, 48, 86
3, 50520, Note_on_c, 2, 41, 100
3, 50640, Note_off_c, 2, 48, 80
3, 50640, Note_off_c, 2, 41, 80
3, 50640, Note_on_c, 2, 48, 86
3, 50640, Note_on_c, 2, 41, 100
3, 50760, Note_off_c, 2, 48, 80
3, 50760, Note_off_c, 2, 41, 80
3, 50760, Note_on_c, 2, 48, 86
3, 50760, Note_on_c, 2, 41, 100
3, 50880, Note_off_c, 2, 48, 80
3, 50880, Note_off_c, 2, 41, 80
3, 50880, Note_on_c, 2, 48, 95
3, 50880, Note_on_c, 2, 41, 111
3, 51000, Note_off_c, 2, 48, 80
3, 51000, Note_off_c, 2, 41, 80
3, 51000, Note_on_c, 2, 48, 86
3, 51000, Note_on_c, 2, 41, 100
3, 51120, Note_off_c, 2, 48, 80
3, 51120, Note_off_c, 2, 41, 80
3, 51120, Note_on_c, 2, 48, 86
3, 51120, Note_on_c, 2, 41, 100
3, 51240, Note_off_c, 2, 48, 80
3, 51240, Note_off_c, 2, 41, 80
3, 51240, Note_on_c, 2, 48, 86
3, 51240, Note_on_c, 2, 41, 100
3, 51360, Note_off_c, 2, 48, 80
3, 51360, Note_off_c, 2, 41, 80
3, 51360, Note_on_c, 2, 48, 86
3, 51360, Note_on_c, 2, 41, 100
3, 51480, Note_off_c, 2, 48, 80
3, 51480, Note_off_c, 2, 41, 80
3, 51480, Note_on_c, 2, 48, 86
3, 51480, Note_on_c, 2, 41, 100
3, 51600, Note_off_c, 2, 48, 80
3, 51600, Note_off_c, 2, 41, 80
3, 51600, Note_on_c, 2, 48, 86
3, 51600, Note_on_c, 2, 41, 100
3, 51720, Note_off_c, 2, 48, 80
3, 51720, Note_off_c, 2, 41, 80
3, 51720, Note_on_c, 2, 48, 86
3, 51720, Note_on_c, 2, 41, 100
3, 51840, Note_off_c, 2, 48, 80
3, 51840, Note_off_c, 2, 41, 80
3, 51840, Note_on_c, 2, 48, 95
3, 51840, Note_on_c, 2, 41, 111
3, 51960, Note_off_c, 2, 48, 80
3, 51960, Note_off_c, 2, 41, 80
3, 51960, Note_on_c, 2, 48, 86
3, 51960, Note_on_c, 2, 41, 100
3, 52080, Note_off_c, 2, 48, 80
3, 52080, Note_off_c, 2, 41, 80
3, 52080, Note_on_c, 2, 48, 86
3, 52080, Note_on_c, 2, 41, 100
3, 52200, Note_off_c, 2, 48, 80
3, 52200, Note_off_c, 2, 41, 80
3, 52200, Note_on_c, 2, 48, 86
3, 52200, Note_on_c, 2, 41, 100
3, 52320, Note_off_c, 2, 48, 80
3, 52320, Note_off_c, 2, 41, 80
3, 52320, Note_on_c, 2, 48, 86
3, 52320, Note_on_c, 2, 41, 100
3, 52440, Note_off_c, 2, 48, 80
3, 52440, Note_off_c, 2, 41, 80
3, 52440, Note_on_c, 2, 48, 86
3, 52440, Note_on_c, 2, 41, 100
3, 52560, Note_off_c, 2, 48, 80
3, 52560, Note_off_c, 2, 41, 80
3, 52560, Note_on_c, 2, 48, 86
3, 52560, Note_on_c, 2, 41, 100
3, 52680, Note_off_c, 2, 48, 80
3, 52680, Note_off_c, 2, 41, 80
3, 52680, Note_on_c, 2, 48, 86
3, 52680, Note_on_c, 2, 41, 100
3, 52800, Note_off_c, 2, 48, 80
3, 52800, Note_off_c, 2, 41, 80
3, 52800, Note_on_c, 2, 48, 95
3, 52800, Note_on_c, 2, 41, 111
3, 52920, Note_off_c, 2, 48, 80
3, 52920, Note_off_c, 2, 41, 80
3, 52920, Note_on_c, 2, 48, 86
3, 52920, Note_on_c, 2, 41, 100
3, 53040, Note_off_c, 2, 48, 80
3, 53040, Note_off_c, 2, 41, 80
3, 53040, Note_on_c, 2, 48, 86
3, 53040, Note_on_c, 2, 41, 100
3, 53160, Note_off_c, 2, 48, 80
3, 53160, Note_off_c, 2, 41, 80
3, 53160, Note_on_c, 2, 48, 86
3, 53160, Note_on_c, 2, 41, 100
3, 53280, Note_off_c, 2, 48, 80
3, 53280, Note_off_c, 2, 41, 80
3, 53280, Note_on_c, 2, 48, 86
3, 53280, Note_on_c, 2, 41, 100
3, 53400, Note_off_c, 2, 48, 80
3, 53400, Note_off_c, 2, 41, 80
3, 53400, Note_on_c, 2, 48, 86
3, 53400, Note_on_c, 2, 41, 100
3, 53520, Note_off_c, 2, 48, 80
3, 53520, Note_off_c, 2, 41, 80
3, 53520, Note_on_c, 2, 48, 86
3, 53520, Note_on_c, 2, 41, 100
3, 53640, Note_off_c, 2, 48, 80
3, 53640, Note_off_c, 2, 41, 80
3, 53640, Note_on_c, 2, 48, 86
3, 53640, Note_on_c, 2, 41, 100
3, 53760, Note_off_c, 2, 48, 80
3, 53760, Note_off_c, 2, 41, 80
3, 69120, Note_on_c, 2, 53, 95
3, 69120, Note_on_c, 2, 46, 95
3, 69240, Note_off_c, 2, 53, 80
3, 69240, Note_off_c, 2, 46, 80
3, 69240, Note_on_c, 2, 53, 86
3, 69240, Note_on_c, 2, 46, 100
3, 69360, Note_off_c, 2, 53, 80
3, 69360, Note_off_c, 2, 46, 80
3, 69360, Note_on_c, 2, 53, 86
3, 69360, Note_on_c, 2, 46, 100
3, 69480, Note_off_c, 2, 53, 80
3, 69480, Note_off_c, 2, 46, 80
3, 69480, Note_on_c, 2, 53, 86
3, 69480, Note_on_c, 2, 46, 100
3, 69600, Note_off_c, 2, 53, 80
3, 69600, Note_off_c, 2, 46, 80
3, 69600, Note_on_c, 2, 53, 86
3, 69600, Note_on_c, 2, 46, 100
3, 69720, Note_off_c, 2, 53, 80
3, 69720, Note_off_c, 2, 46, 80
3, 69720, Note_on_c, 2, 53, 86
3, 69720, Note_on_c, 2, 46, 100
3, 69840, Note_off_c, 2, 53, 80
3, 69840, Note_off_c, 2, 46, 80
3, 69840, Note_on_c, 2, 53, 86
3, 69840, Note_on_c, 2, 46, 100
3, 69960, Note_off_c, 2, 53, 80
3, 69960, Note_off_c, 2, 46, 80
3, 69960, Note_on_c, 2, 53, 86
3, 69960, Note_on_c, 2, 46, 100
3, 70080, Note_off_c, 2, 53, 80
3, 70080, Note_off_c, 2, 46, 80
3, 70080, Note_on_c, 2, 53, 95
3, 70080, Note_on_c, 2, 46, 111
3, 70200, Note_off_c, 2, 53, 80
3, 70200, Note_off_c, 2, 46, 80
3, 70200, Note_on_c, 2, 53, 86
3, 70200, Note_on_c, 2, 46, 100
3, 70320, Note_off_c, 2, 53, 80
3, 70320, Note_off_c, 2, 46, 80
3, 70320, Note_on_c, 2, 53, 86
3, 70320, Note_on_c, 2, 46, 100
3, 70440, Note_off_c, 2, 53, 80
3, 70440, Note_off_c, 2, 46, 80
3, 70440, Note_on_c, 2, 53, 86
3, 70440, Note_on_c, 2, 46, 100
3, 70560, Note_off_c, 2, 53, 80
3, 70560, Note_off_c, 2, 46, 80
3, 70560, Note_on_c, 2, 53, 86
3, 70560, Note_on_c, 2, 46, 100
3, 70680, Note_off_c, 2, 53, 80
3, 70680, Note_off_c, 2, 46, 80
3, 70680, Note_on_c, 2, 53, 86
3, 70680, Note_on_c, 2, 46, 100
3, 70800, Note_off_c, 2, 53, 80
3, 70800, Note_off_c, 2, 46, 80
3, 70800, Note_on_c, 2, 53, 86
3, 70800, Note_on_c, 2, 46, 100
3, 70920, Note_off_c, 2, 53, 80
3, 70920, Note_off_c, 2, 46, 80
3, 70920, Note_on_c, 2, 53, 86
3, 70920, Note_on_c, 2, 46, 100
3, 71040, Note_off_c, 2, 53, 80
3, 71040, Note_off_c, 2, 46, 80
3, 71040, Note_on_c, 2, 49, 111
3, 71040, Note_on_c, 2, 42, 111
3, 71160, Note_off_c, 2, 49, 80
3, 71160, Note_off_c, 2, 42, 80
3, 71160, Note_on_c, 2, 49, 100
3, 71160, Note_on_c, 2, 42, 100
3, 71280, Note_off_c, 2, 49, 80
3, 71280, Note_off_c, 2, 42, 80
3, 71280, Note_on_c, 2, 49, 100
3, 71280, Note_on_c, 2, 42, 100
3, 71400, Note_off_c, 2, 49, 80
3, 71400, Note_off_c, 2, 42, 80
3, 71400, Note_on_c, 2, 49, 100
3, 71400, Note_on_c, 2, 42, 100
3, 71520, Note_off_c, 2, 49, 80
3, 71520, Note_off_c, 2, 42, 80
3, 71520, Note_on_c, 2, 49, 100
3, 71520, Note_on_c, 2, 42, 100
3, 71640, Note_off_c, 2, 49, 80
3, 71640, Note_off_c, 2, 42, 80
3, 71640, Note_on_c, 2, 49, 100
3, 71640, Note_on_c, 2, 42, 100
3, 71760, Note_off_c, 2, 49, 80
3, 71760, Note_off_c, 2, 42, 80
3, 71760, Note_on_c, 2, 49, 100
3, 71760, Note_on_c, 2, 42, 100
3, 71880, Note_off_c, 2, 49, 80
3, 71880, Note_off_c, 2, 42, 80
3, 71880, Note_on_c, 2, 49, 100
3, 71880, Note_on_c, 2, 42, 100
3, 72000, Note_off_c, 2, 49, 80
3, 72000, Note_off_c, 2, 42, 80
3, 72000, Note_on_c, 2, 49, 111
3, 72000, Note_on_c, 2, 42, 111
3, 72120, Note_off_c, 2, 49, 80
3, 72120, Note_off_c, 2, 42, 80
3, 72120, Note_on_c, 2, 49, 100
3, 72120, Note_on_c, 2, 42, 100
3, 72240, Note_off_c, 2, 49, 80
3, 72240, Note_off_c, 2, 42, 80
3, 72240, Note_on_c, 2, 49, 100
3, 72240, Note_on_c, 2, 42, 100
3, 72360, Note_off_c, 2, 49, 80
3, 72360, Note_off_c, 2, 42, 80
3, 72360, Note_on_c, 2, 49, 100
3, 72360, Note_on_c, 2, 42, 100
3, 72480, Note_off_c, 2, 49, 80
3, 72480, Note_off_c, 2, 42, 80
3, 72480, Note_on_c, 2, 49, 100
3, 72480, Note_on_c, 2, 42, 100
3, 72600, Note_off_c, 2, 49, 80
3, 72600, Note_off_c, 2, 42, 80
3, 72600, Note_on_c, 2, 49, 100
3, 72600, Note_on_c, 2, 42, 100
3, 72720, Note_off_c, 2, 49, 80
3, 72720, Note_off_c, 2, 42, 80
3, 72720, Note_on_c, 2, 49, 100
3, 72720, Note_on_c, 2, 42, 100
3, 72840, Note_off_c, 2, 49, 80
3, 72840, Note_off_c, 2, 42, 80
3, 72840, Note_on_c, 2, 49, 100
3, 72840, Note_on_c, 2, 42, 100
3, 72960, Note_off_c, 2, 49, 80
3, 72960, Note_off_c, 2, 42, 80
3, 72960, Note_on_c, 2, 46, 95
3, 72960, Note_on_c, 2, 39, 111
3, 73080, Note_off_c, 2, 46, 80
3, 73080, Note_off_c, 2, 39, 80
3, 73080, Note_on_c, 2, 46, 86
3, 73080, Note_on_c, 2, 39, 100
3, 73200, Note_off_c, 2, 46, 80
3, 73200, Note_off_c, 2, 39, 80
3, 73200, Note_on_c, 2, 46, 86
3, 73200, Note_on_c, 2, 39, 100
3, 73320, Note_off_c, 2, 46, 80
3, 73320, Note_off_c, 2, 39, 80
3, 73320, Note_on_c, 2, 46, 86
3, 73320, Note_on_c, 2, 39, 100
3, 73440, Note_off_c, 2, 46, 80
3, 73440, Note_off_c, 2, 39, 80
3, 73440, Note_on_c, 2, 46, 86
3, 73440, Note_on_c, 2, 39, 100
3, 73560, Note_off_c, 2, 46, 80
3, 73560, Note_off_c, 2, 39, 80
3, 73560, Note_on_c, 2, 46, 86
3, 73560, Note_on_c, 2, 39, 100
3, 73680, Note_off_c, 2, 46, 80
3, 73680, Note_off_c, 2, 39, 80
3, 73680, Note_on_c, 2, 46, 86
3, 73680, Note_on_c, 2, 39, 100
3, 73800, Note_off_c, 2, 46, 80
3, 73800, Note_off_c, 2, 39, 80
3, 73800, Note_on_c, 2, 46, 86
3, 73800, Note_on_c, 2, 39, 100
3, 73920, Note_off_c, 2, 46, 80
3, 73920, Note_off_c, 2, 39, 80
3, 73920, Note_on_c, 2, 46, 95
3, 73920, Note_on_c, 2, 39, 111
3, 74040, Note_off_c, 2, 46, 80
3, 74040, Note_off_c, 2, 39, 80
3, 74040, Note_on_c, 2, 46, 86
3, 74040, Note_on_c, 2, 39, 100
3, 74160, Note_off_c, 2, 46, 80
3, 74160, Note_off_c, 2, 39, 80
3, 74160, Note_on_c, 2, 46, 86
3, 74160, Note_on_c, 2, 39, 100
3, 74280, Note_off_c, 2, 46, 80
3, 74280, Note_off_c, 2, 39, 80
3, 74280, Note_on_c, 2, 46, 86
3, 74280, Note_on_c, 2, 39, 100
3, 74400, Note_off_c, 2, 46, 80
3, 74400, Note_off_c, 2, 39, 80
3, 74400, Note_on_c, 2, 46, 86
3, 74400, Note_on_c, 2, 39, 100
3, 74520, Note_off_c, 2, 46, 80
3, 74520, Note_off_c, 2, 39, 80
3, 74520, Note_on_c, 2, 46, 86
3, 74520, Note_on_c, 2, 39, 100
3, 74640, Note_off_c, 2, 46, 80
3, 74640, Note_off_c, 2, 39, 80
3, 74640, Note_on_c, 2, 46, 86
3, 74640, Note_on_c, 2, 39, 100
3, 74760, Note_off_c, 2, 46, 80
3, 74760, Note_off_c, 2, 39, 80
3, 74760, Note_on_c, 2, 46, 86
3, 74760, Note_on_c, 2, 39, 100
3, 74880, Note_off_c, 2, 46, 80
3, 74880, Note_off_c, 2, 39, 80
3, 74880, Note_on_c, 2, 48, 95
3, 74880, Note_on_c, 2, 41, 111
3, 75000, Note_off_c, 2, 48, 80
3, 75000, Note_off_c, 2, 41, 80
3, 75000, Note_on_c, 2, 48, 86
3, 75000, Note_on_c, 2, 41, 100
3, 75120, Note_off_c, 2, 48, 80
3, 75120, Note_off_c, 2, 41, 80
3, 75120, Note_on_c, 2, 48, 86
3, 75120, Note_on_c, 2, 41, 100
3, 75240, Note_off_c, 2, 48, 80
3, 75240, Note_off_c, 2, 41, 80
3, 75240, Note_on_c, 2, 48, 86
3, 75240, Note_on_c, 2, 41, 100
3, 75360, Note_off_c, 2, 48, 80
3, 75360, Note_off_c, 2, 41, 80
3, 75360, Note_on_c, 2, 48, 86
3, 75360, Note_on_c, 2, 41, 100
3, 75480, Note_off_c, 2, 48, 80
3, 75480, Note_off_c, 2, 41, 80
3, 75480, Note_on_c, 2, 48, 86
3, 75480, Note_on_c, 2, 41, 100
3, 75600, Note_off_c, 2, 48, 80
3, 75600, Note_off_c, 2, 41, 80
3, 75600, Note_on_c, 2, 48, 86
3, 75600, Note_on_c, 2, 41, 100
3, 75720, Note_off_c, 2, 48, 80
3, 75720, Note_off_c, 2, 41, 80
3, 75720, Note_on_c, 2, 48, 86
3, 75720, Note_on_c, 2, 41, 100
3, 75840, Note_off_c, 2, 48, 80
3, 75840, Note_off_c, 2, 41, 80
3, 75840, Note_on_c, 2, 48, 95
3, 75840, Note_on_c, 2, 41, 111
3, 75960, Note_off_c, 2, 48, 80
3, 75960, Note_off_c, 2, 41, 80
3, 75960, Note_on_c, 2, 48, 86
3, 75960, Note_on_c, 2, 41, 100
3, 76080, Note_off_c, 2, 48, 80
3, 76080, Note_off_c, 2, 41, 80
3, 76080, Note_on_c, 2, 48, 86
3, 76080, Note_on_c, 2, 41, 100
3, 76200, Note_off_c, 2, 48, 80
3, 76200, Note_off_c, 2, 41, 80
3, 76200, Note_on_c, 2, 48, 86
3, 76200, Note_on_c, 2, 41, 100
3, 76320, Note_off_c, 2, 48, 80
3, 76320, Note_off_c, 2, 41, 80
3, 76320, Note_on_c, 2, 48, 86
3, 76320, Note_on_c, 2, 41, 100
3, 76440, Note_off_c, 2, 48, 80
3, 76440, Note_off_c, 2, 41, 80
3, 76440, Note_on_c, 2, 48, 86
3, 76440, Note_on_c, 2, 41, 100
3, 76560, Note_off_c, 2, 48, 80
3, 76560, Note_off_c, 2, 41, 80
3, 76560, Note_on_c, 2, 48, 86
3, 76560, Note_on_c, 2, 41, 100
3, 76680, Note_off_c, 2, 48, 80
3, 76680, Note_off_c, 2, 41, 80
3, 76680, Note_on_c, 2, 48, 86
3, 76680, Note_on_c, 2, 41, 100
3, 76800, Note_off_c, 2, 48, 80
3, 76800, Note_off_c, 2, 41, 80
3, 76800, Note_on_c, 2, 53, 95
3, 76800, Note_on_c, 2, 46, 95
3, 76920, Note_off_c, 2, 53, 80
3, 76920, Note_off_c, 2, 46, 80
3, 76920, Note_on_c, 2, 53, 86
3, 76920, Note_on_c, 2, 46, 100
3, 77040, Note_off_c, 2, 53, 80
3, 77040, Note_off_c, 2, 46, 80
3, 77040, Note_on_c, 2, 53, 86
3, 77040, Note_on_c, 2, 46, 100
3, 77160, Note_off_c, 2, 53, 80
3, 77160, Note_off_c, 2, 46, 80
3, 77160, Note_on_c, 2, 53, 86
3, 77160, Note_on_c, 2, 46, 100
3, 77280, Note_off_c, 2, 53, 80
3, 77280, Note_off_c, 2, 46, 80
3, 77280, Note_on_c, 2, 53, 86
3, 77280, Note_on_c, 2, 46, 100
3, 77400, Note_off_c, 2, 53, 80
3, 77400, Note_off_c, 2, 46, 80
3, 77400, Note_on_c, 2, 53, 86
3, 77400, Note_on_c, 2, 46, 100
3, 77520, Note_off_c, 2, 53, 80
3, 77520, Note_off_c, 2, 46, 80
3, 77520, Note_on_c, 2, 53, 86
3, 77520, Note_on_c, 2, 46, 100
3, 77640, Note_off_c, 2, 53, 80
3, 77640, Note_off_c, 2, 46, 80
3, 77640, Note_on_c, 2, 53, 86
3, 77640, Note_on_c, 2, 46, 100
3, 77760, Note_off_c, 2, 53, 80
3, 77760, Note_off_c, 2, 46, 80
3, 77760, Note_on_c, 2, 53, 95
3, 77760, Note_on_c, 2, 46, 111
3, 77880, Note_off_c, 2, 53, 80
3, 77880, Note_off_c, 2, 46, 80
3, 77880, Note_on_c, 2, 53, 86
3, 77880, Note_on_c, 2, 46, 100
3, 78000, Note_off_c, 2, 53, 80
3, 78000, Note_off_c, 2, 46, 80
3, 78000, Note_on_c, 2, 53, 86
3, 78000, Note_on_c, 2, 46, 100
3, 78120, Note_off_c, 2, 53, 80
3, 78120, Note_off_c, 2, 46, 80
3, 78120, Note_on_c, 2, 53, 86
3, 78120, Note_on_c, 2, 46, 100
3, 78240, Note_off_c, 2, 53, 80
3, 78240, Note_off_c, 2, 46, 80
3, 78240, Note_on_c, 2, 53, 86
3, 78240, Note_on_c, 2, 46, 100
3, 78360, Note_off_c, 2, 53, 80
3, 78360, Note_off_c, 2, 46, 80
3, 78360, Note_on_c, 2, 53, 86
3, 78360, Note_on_c, 2, 46, 100
3, 78480, Note_off_c, 2, 53, 80
3, 78480, Note_off_c, 2, 46, 80
3, 78480, Note_on_c, 2, 53, 86
3, 78480, Note_on_c, 2, 46, 100
3, 78600, Note_off_c, 2, 53, 80
3, 78600, Note_off_c, 2, 46, 80
3, 78600, Note_on_c, 2, 53, 86
3, 78600, Note_on_c, 2, 46, 100
3, 78720, Note_off_c, 2, 53, 80
3, 78720, Note_off_c, 2, 46, 80
3, 78720, Note_on_c, 2, 49, 111
3, 78720, Note_on_c, 2, 42, 111
3, 78840, Note_off_c, 2, 49, 80
3, 78840, Note_off_c, 2, 42, 80
3, 78840, Note_on_c, 2, 49, 100
3, 78840, Note_on_c, 2, 42, 100
3, 78960, Note_off_c, 2, 49, 80
3, 78960, Note_off_c, 2, 42, 80
3, 78960, Note_on_c, 2, 49, 100
3, 78960, Note_on_c, 2, 42, 100
3, 79080, Note_off_c, 2, 49, 80
3, 79080, Note_off_c, 2, 42, 80
3, 79080, Note_on_c, 2, 49, 100
3, 79080, Note_on_c, 2, 42, 100
3, 79200, Note_off_c, 2, 49, 80
3, 79200, Note_off_c, 2, 42, 80
3, 79200, Note_on_c, 2, 49, 100
3, 79200, Note_on_c, 2, 42, 100
3, 79320, Note_off_c, 2, 49, 80
3, 79320, Note_off_c, 2, 42, 80
3, 79320, Note_on_c, 2, 49, 100
3, 79320, Note_on_c, 2, 42, 100
3, 79440, Note_off_c, 2, 49, 80
3, 79440, Note_off_c, 2, 42, 80
3, 79440, Note_on_c, 2, 49, 100
3, 79440, Note_on_c, 2, 42, 100
3, 79560, Note_off_c, 2, 49, 80
3, 79560, Note_off_c, 2, 42, 80
3, 79560, Note_on_c, 2, 49, 100
3, 79560, Note_on_c, 2, 42, 100
3, 79680, Note_off_c, 2, 49, 80
3, 79680, Note_off_c, 2, 42, 80
3, 79680, Note_on_c, 2, 49, 111
3, 79680, Note_on_c, 2, 42, 111
3, 79800, Note_off_c, 2, 49, 80
3, 79800, Note_off_c, 2, 42, 80
3, 79800, Note_on_c, 2, 49, 100
3, 79800, Note_on_c, 2, 42, 100
3, 79920, Note_off_c, 2, 49, 80
3, 79920, Note_off_c, 2, 42, 80
3, 79920, Note_on_c, 2, 49, 100
3, 79920, Note_on_c, 2, 42, 100
3, 80040, Note_off_c, 2, 49, 80
3, 80040, Note_off_c, 2, 42, 80
3, 80040, Note_on_c, 2, 49, 100
3, 80040, Note_on_c, 2, 42, 100
3, 80160, Note_off_c, 2, 49, 80
3, 80160, Note_off_c, 2, 42, 80
3, 80160, Note_on_c, 2, 49, 100
3, 80160, Note_on_c, 2, 42, 100
3, 80280, Note_off_c, 2, 49, 80
3, 80280, Note_off_c, 2, 42, 80
3, 80280, Note_on_c, 2, 49, 100
3, 80280, Note_on_c, 2, 42, 100
3, 80400, Note_off_c, 2, 49, 80
3, 80400, Note_off_c, 2, 42, 80
3, 80400, Note_on_c, 2, 49, 100
3, 80400, Note_on_c, 2, 42, 100
3, 80520, Note_off_c, 2, 49, 80
3, 80520, Note_off_c, 2, 42, 80
3, 80520, Note_on_c, 2, 49, 100
3, 80520, Note_on_c, 2, 42, 100
3, 80640, Note_off_c, 2, 49, 80
3, 80640, Note_off_c, 2, 42, 80
3, 80640, Note_on_c, 2, 46, 95
3, 80640, Note_on_c, 2, 39, 111
3, 80760, Note_off_c, 2, 46, 80
3, 80760, Note_off_c, 2, 39, 80
3, 80760, Note_on_c, 2, 46, 86
3, 80760, Note_on_c, 2, 39, 100
3, 80880, Note_off_c, 2, 46, 80
3, 80880, Note_off_c, 2, 39, 80
3, 80880, Note_on_c, 2, 46, 86
3, 80880, Note_on_c, 2, 39, 100
3, 81000, Note_off_c, 2, 46, 80
3, 81000, Note_off_c, 2, 39, 80
3, 81000, Note_on_c, 2, 46, 86
3, 81000, Note_on_c, 2, 39, 100
3, 81120, Note_off_c, 2, 46, 80
3, 81120, Note_off_c, 2, 39, 80
3, 81120, Note_on_c, 2, 46, 86
3, 81120, Note_on_c, 2, 39, 100
3, 81240, Note_off_c, 2, 46, 80
3, 81240, Note_off_c, 2, 39, 80
3, 81240, Note_on_c, 2, 46, 86
3, 81240, Note_on_c, 2, 39, 100
3, 81360, Note_off_c, 2, 46, 80
3, 81360, Note_off_c, 2, 39, 80
3, 81360, Note_on_c, 2, 46, 86
3, 81360, Note_on_c, 2, 39, 100
3, 81480, Note_off_c, 2, 46, 80
3, 81480, Note_off_c, 2, 39, 80
3, 81480, Note_on_c, 2, 46, 86
3, 81480, Note_on_c, 2, 39, 100
3, 81600, Note_off_c, 2, 46, 80
3, 81600, Note_off_c, 2, 39, 80
3, 81600, Note_on_c, 2, 46, 95
3, 81600, Note_on_c, 2, 39, 111
3, 81720, Note_off_c, 2, 46, 80
3, 81720, Note_off_c, 2, 39, 80
3, 81720, Note_on_c, 2, 46, 86
3, 81720, Note_on_c, 2, 39, 100
3, 81840, Note_off_c, 2, 46, 80
3, 81840, Note_off_c, 2, 39, 80
3, 81840, Note_on_c, 2, 46, 86
3, 81840, Note_on_c, 2, 39, 100
3, 81960, Note_off_c, 2, 46, 80
3, 81960, Note_off_c, 2, 39, 80
3, 81960, Note_on_c, 2, 46, 86
3, 81960, Note_on_c, 2, 39, 100
3, 82080, Note_off_c, 2, 46, 80
3, 82080, Note_off_c, 2, 39, 80
3, 82080, Note_on_c, 2, 46, 86
3, 82080, Note_on_c, 2, 39, 100
3, 82200, Note_off_c, 2, 46, 80
3, 82200, Note_off_c, 2, 39, 80
3, 82200, Note_on_c, 2, 46, 86
3, 82200, Note_on_c, 2, 39, 100
3, 82320, Note_off_c, 2, 46, 80
3, 82320, Note_off_c, 2, 39, 80
3, 82320, Note_on_c, 2, 46, 86
3, 82320, Note_on_c, 2, 39, 100
3, 82440, Note_off_c, 2, 46, 80
3, 82440, Note_off_c, 2, 39, 80
3, 82440, Note_on_c, 2, 46, 86
3, 82440, Note_on_c, 2, 39, 100
3, 82560, Note_off_c, 2, 46, 80
3, 82560, Note_off_c, 2, 39, 80
3, 82560, Note_on_c, 2, 48, 95
3, 82560, Note_on_c, 2, 41, 111
3, 82680, Note_off_c, 2, 48, 80
3, 82680, Note_off_c, 2, 41, 80
3, 82680, Note_on_c, 2, 48, 86
3, 82680, Note_on_c, 2, 41, 100
3, 82800, Note_off_c, 2, 48, 80
3, 82800, Note_off_c, 2, 41, 80
3, 82800, Note_on_c, 2, 48, 86
3, 82800, Note_on_c, 2, 41, 100
3, 82920, Note_off_c, 2, 48, 80
3, 82920, Note_off_c, 2, 41, 80
3, 82920, Note_on_c, 2, 48, 86
3, 82920, Note_on_c, 2, 41, 100
3, 83040, Note_off_c, 2, 48, 80
3, 83040, Note_off_c, 2, 41, 80
3, 83040, Note_on_c, 2, 48, 86
3, 83040, Note_on_c, 2, 41, 100
3, 83160, Note_off_c, 2, 48, 80
3, 83160, Note_off_c, 2, 41, 80
3, 83160, Note_on_c, 2, 48, 86
3, 83160, Note_on_c, 2, 41, 100
3, 83280, Note_off_c, 2, 48, 80
3, 83280, Note_off_c, 2, 41, 80
3, 83280, Note_on_c, 2, 48, 86
3, 83280, Note_on_c, 2, 41, 100
3, 83400, Note_off_c, 2, 48, 80
3, 83400, Note_off_c, 2, 41, 80
3, 83400, Note_on_c, 2, 48, 86
3, 83400, Note_on_c, 2, 41, 100
3, 83520, Note_off_c, 2, 48, 80
3, 83520, Note_off_c, 2, 41, 80
3, 83520, Note_on_c, 2, 48, 95
3, 83520, Note_on_c, 2, 41, 111
3, 83640, Note_off_c, 2, 48, 80
3, 83640, Note_off_c, 2, 41, 80
3, 83640, Note_on_c, 2, 48, 86
3, 83640, Note_on_c, 2, 41, 100
3, 83760, Note_off_c, 2, 48, 80
3, 83760, Note_off_c, 2, 41, 80
3, 83760, Note_on_c, 2, 48, 86
3, 83760, Note_on_c, 2, 41, 100
3, 83880, Note_off_c, 2, 48, 80
3, 83880, Note_off_c, 2, 41, 80
3, 83880, Note_on_c, 2, 48, 86
3, 83880, Note_on_c, 2, 41, 100
3, 84000, Note_off_c, 2, 48, 80
3, 84000, Note_off_c, 2, 41, 80
3, 84000, Note_on_c, 2, 48, 86
3, 84000, Note_on_c, 2, 41, 100
3, 84120, Note_off_c, 2, 48, 80
3, 84120, Note_off_c, 2, 41, 80
3, 84120, Note_on_c, 2, 48, 86
3, 84120, Note_on_c, 2, 41, 100
3, 84240, Note_off_c, 2, 48, 80
3, 84240, Note_off_c, 2, 41, 80
3, 84240, Note_on_c, 2, 48, 86
3, 84240, Note_on_c, 2, 41, 100
3, 84360, Note_off_c, 2, 48, 80
3, 84360, Note_off_c, 2, 41, 80
3, 84360, Note_on_c, 2, 48, 86
3, 84360, Note_on_c, 2, 41, 100
3, 84480, Note_off_c, 2, 48, 80
3, 84480, Note_off_c, 2, 41, 80
3, 84480, Note_on_c, 2, 53, 95
3, 84480, Note_on_c, 2, 46, 95
3, 84600, Note_off_c, 2, 53, 80
3, 84600, Note_off_c, 2, 46, 80
3, 84600, Note_on_c, 2, 53, 86
3, 84600, Note_on_c, 2, 46, 100
3, 84720, Note_off_c, 2, 53, 80
3, 84720, Note_off_c, 2, 46, 80
3, 84720, Note_on_c, 2, 53, 86
3, 84720, Note_on_c, 2, 46, 100
3, 84840, Note_off_c, 2, 53, 80
3, 84840, Note_off_c, 2, 46, 80
3, 84840, Note_on_c, 2, 53, 86
3, 84840, Note_on_c, 2, 46, 100
3, 84960, Note_off_c, 2, 53, 80
3, 84960, Note_off_c, 2, 46, 80
3, 84960, Note_on_c, 2, 53, 86
3, 84960, Note_on_c, 2, 46, 100
3, 85080, Note_off_c, 2, 53, 80
3, 85080, Note_off_c, 2, 46, 80
3, 85080, Note_on_c, 2, 53, 86
3, 85080, Note_on_c, 2, 46, 100
3, 85200, Note_off_c, 2, 53, 80
3, 85200, Note_off_c, 2, 46, 80
3, 85200, Note_on_c, 2, 53, 86
3, 85200, Note_on_c, 2, 46, 100
3, 85320, Note_off_c, 2, 53, 80
3, 85320, Note_off_c, 2, 46, 80
3, 85320, Note_on_c, 2, 53, 86
3, 85320, Note_on_c, 2, 46, 100
3, 85440, Note_off_c, 2, 53, 80
3, 85440, Note_off_c, 2, 46, 80
3, 85440, Note_on_c, 2, 53, 95
3, 85440, Note_on_c, 2, 46, 111
3, 85560, Note_off_c, 2, 53, 80
3, 85560, Note_off_c, 2, 46, 80
3, 85560, Note_on_c, 2, 53, 86
3, 85560, Note_on_c, 2, 46, 100
3, 85680, Note_off_c, 2, 53, 80
3, 85680, Note_off_c, 2, 46, 80
3, 85680, Note_on_c, 2, 53, 86
3, 85680, Note_on_c, 2, 46, 100
3, 85800, Note_off_c, 2, 53, 80
3, 85800, Note_off_c, 2, 46, 80
3, 85800, Note_on_c, 2, 53, 86
3, 85800, Note_on_c, 2, 46, 100
3, 85920, Note_off_c, 2, 53, 80
3, 85920, Note_off_c, 2, 46, 80
3, 85920, Note_on_c, 2, 53, 86
3, 85920, Note_on_c, 2, 46, 100
3, 86040, Note_off_c, 2, 53, 80
3, 86040, Note_off_c, 2, 46, 80
3, 86040, Note_on_c, 2, 53, 86
3, 86040, Note_on_c, 2, 46, 100
3, 86160, Note_off_c, 2, 53, 80
3, 86160, Note_off_c, 2, 46, 80
3, 86160, Note_on_c, 2, 53, 86
3, 86160, Note_on_c, 2, 46, 100
3, 86280, Note_off_c, 2, 53, 80
3, 86280, Note_off_c, 2, 46, 80
3, 86280, Note_on_c, 2, 53, 86
3, 86280, Note_on_c, 2, 46, 100
3, 86400, Note_off_c, 2, 53, 80
3, 86400, Note_off_c, 2, 46, 80
3, 86400, Note_on_c, 2, 49, 111
3, 86400, Note_on_c, 2, 42, 111
3, 86520, Note_off_c, 2, 49, 80
3, 86520, Note_off_c, 2, 42, 80
3, 86520, Note_on_c, 2, 49, 100
3, 86520, Note_on_c, 2, 42, 100
3, 86640, Note_off_c, 2, 49, 80
3, 86640, Note_off_c, 2, 42, 80
3, 86640, Note_on_c, 2, 49, 100
3, 86640, Note_on_c, 2, 42, 100
3, 86760, Note_off_c, 2, 49, 80
3, 86760, Note_off_c, 2, 42, 80
3, 86760, Note_on_c, 2, 49, 100
3, 86760, Note_on_c, 2, 42, 100
3, 86880, Note_off_c, 2, 49, 80
3, 86880, Note_off_c, 2, 42, 80
3, 86880, Note_on_c, 2, 49, 100
3, 86880, Note_on_c, 2, 42, 100
3, 87000, Note_off_c, 2, 49, 80
3, 87000, Note_off_c, 2, 42, 80
3, 87000, Note_on_c, 2, 49, 100
3, 87000, Note_on_c, 2, 42, 100
3, 87120, Note_off_c, 2, 49, 80
3, 87120, Note_off_c, 2, 42, 80
3, 87120, Note_on_c, 2, 49, 100
3, 87120, Note_on_c, 2, 42, 100
3, 87240, Note_off_c, 2, 49, 80
3, 87240, Note_off_c, 2, 42, 80
3, 87240, Note_on_c, 2, 49, 100
3, 87240, Note_on_c, 2, 42, 100
3, 87360, Note_off_c, 2, 49, 80
3, 87360, Note_off_c, 2, 42, 80
3, 87360, Note_on_c, 2, 49, 111
3, 87360, Note_on_c, 2, 42, 111
3, 87480, Note_off_c, 2, 49, 80
3, 87480, Note_off_c, 2, 42, 80
3, 87480, Note_on_c, 2, 49, 100
3, 87480, Note_on_c, 2, 42, 100
3, 87600, Note_off_c, 2, 49, 80
3, 87600, Note_off_c, 2, 42, 80
3, 87600, Note_on_c, 2, 49, 100
3, 87600, Note_on_c, 2, 42, 100
3, 87720, Note_off_c, 2, 49, 80
3, 87720, Note_off_c, 2, 42, 80
3, 87720, Note_on_c, 2, 49, 100
3, 87720, Note_on_c, 2, 42, 100
3, 87840, Note_off_c, 2, 49, 80
3, 87840, Note_off_c, 2, 42, 80
3, 87840, Note_on_c, 2, 49, 100
3, 87840, Note_on_c, 2, 42, 100
3, 87960, Note_off_c, 2, 49, 80
3, 87960, Note_off_c, 2, 42, 80
3, 87960, Note_on_c, 2, 49, 100
3, 87960, Note_on_c, 2, 42, 100
3, 88080, Note_off_c, 2, 49, 80
3, 88080, Note_off_c, 2, 42, 80
3, 88080, Note_on_c, 2, 49, 100
3, 88080, Note_on_c, 2, 42, 100
3, 88200, Note_off_c, 2, 49, 80
3, 88200, Note_off_c, 2, 42, 80
3, 88200, Note_on_c, 2, 49, 100
3, 88200, Note_on_c, 2, 42, 100
3, 88320, Note_off_c, 2, 49, 80
3, 88320, Note_off_c, 2, 42, 80
3, 88320, Note_on_c, 2, 46, 95
3, 88320, Note_on_c, 2, 39, 111
3, 88440, Note_off_c, 2, 46, 80
3, 88440, Note_off_c, 2, 39, 80
3, 88440, Note_on_c, 2, 46, 86
3, 88440, Note_on_c, 2, 39, 100
3, 88560, Note_off_c, 2, 46, 80
3, 88560, Note_off_c, 2, 39, 80
3, 88560, Note_on_c, 2, 46, 86
3, 88560, Note_on_c, 2, 39, 100
3, 88680, Note_off_c, 2, 46, 80
3, 88680, Note_off_c, 2, 39, 80
3, 88680, Note_on_c, 2, 46, 86
3, 88680, Note_on_c, 2, 39, 100
3, 88800, Note_off_c, 2, 46, 80
3, 88800, Note_off_c, 2, 39, 80
3, 88800, Note_on_c, 2, 46, 86
3, 88800, Note_on_c, 2, 39, 100
3, 88920, Note_off_c, 2, 46, 80
3, 88920, Note_off_c, 2, 39, 80
3, 88920, Note_on_c, 2, 46, 86
3, 88920, Note_on_c, 2, 39, 100
3, 89040, Note_off_c, 2, 46, 80
3, 89040, Note_off_c, 2, 39, 80
3, 89040, Note_on_c, 2, 46, 86
3, 89040, Note_on_c, 2, 39, 100
3, 89160, Note_off_c, 2, 46, 80
3, 89160, Note_off_c, 2, 39, 80
3, 89160, Note_on_c, 2, 46, 86
3, 89160, Note_on_c, 2, 39, 100
3, 89280, Note_off_c, 2, 46, 80
3, 89280, Note_off_c, 2, 39, 80
3, 89280, Note_on_c, 2, 46, 95
3, 89280, Note_on_c, 2, 39, 111
3, 89400, Note_off_c, 2, 46, 80
3, 89400, Note_off_c, 2, 39, 80
3, 89400, Note_on_c, 2, 46, 86
3, 89400, Note_on_c, 2, 39, 100
3, 89520, Note_off_c, 2, 46, 80
3, 89520, Note_off_c, 2, 39, 80
3, 89520, Note_on_c, 2, 46, 86
3, 89520, Note_on_c, 2, 39, 100
3, 89640, Note_off_c, 2, 46, 80
3, 89640, Note_off_c, 2, 39, 80
3, 89640, Note_on_c, 2, 46, 86
3, 89640, Note_on_c, 2, 39, 100
3, 89760, Note_off_c, 2, 46, 80
3, 89760, Note_off_c, 2, 39, 80
3, 89760, Note_on_c, 2, 46, 86
3, 89760, Note_on_c, 2, 39, 100
3, 89880, Note_off_c, 2, 46, 80
3, 89880, Note_off_c, 2, 39, 80
3, 89880, Note_on_c, 2, 46, 86
3, 89880, Note_on_c, 2, 39, 100
3, 90000, Note_off_c, 2, 46, 80
3, 90000, Note_off_c, 2, 39, 80
3, 90000, Note_on_c, 2, 46, 86
3, 90000, Note_on_c, 2, 39, 100
3, 90120, Note_off_c, 2, 46, 80
3, 90120, Note_off_c, 2, 39, 80
3, 90120, Note_on_c, 2, 46, 86
3, 90120, Note_on_c, 2, 39, 100
3, 90240, Note_off_c, 2, 46, 80
3, 90240, Note_off_c, 2, 39, 80
3, 90240, Note_on_c, 2, 48, 95
3, 90240, Note_on_c, 2, 41, 111
3, 90360, Note_off_c, 2, 48, 80
3, 90360, Note_off_c, 2, 41, 80
3, 90360, Note_on_c, 2, 48, 86
3, 90360, Note_on_c, 2, 41, 100
3, 90480, Note_off_c, 2, 48, 80
3, 90480, Note_off_c, 2, 41, 80
3, 90480, Note_on_c, 2, 48, 86
3, 90480, Note_on_c, 2, 41, 100
3, 90600, Note_off_c, 2, 48, 80
3, 90600, Note_off_c, 2, 41, 80
3, 90600, Note_on_c, 2, 48, 86
3, 90600, Note_on_c, 2, 41, 100
3, 90720, Note_off_c, 2, 48, 80
3, 90720, Note_off_c, 2, 41, 80
3, 90720, Note_on_c, 2, 48, 86
3, 90720, Note_on_c, 2, 41, 100
3, 90840, Note_off_c, 2, 48, 80
3, 90840, Note_off_c, 2, 41, 80
3, 90840, Note_on_c, 2, 48, 86
3, 90840, Note_on_c, 2, 41, 100
3, 90960, Note_off_c, 2, 48, 80
3, 90960, Note_off_c, 2, 41, 80
3, 90960, Note_on_c, 2, 48, 86
3, 90960, Note_on_c, 2, 41, 100
3, 91080, Note_off_c, 2, 48, 80
3, 91080, Note_off_c, 2, 41, 80
3, 91080, Note_on_c, 2, 48, 86
3, 91080, Note_on_c, 2, 41, 100
3, 91200, Note_off_c, 2, 48, 80
3, 91200, Note_off_c, 2, 41, 80
3, 91200, Note_on_c, 2, 48, 95
3, 91200, Note_on_c, 2, 41, 111
3, 91320, Note_off_c, 2, 48, 80
3, 91320, Note_off_c, 2, 41, 80
3, 91320, Note_on_c, 2, 48, 86
3, 91320, Note_on_c, 2, 41, 100
3, 91440, Note_off_c, 2, 48, 80
3, 91440, Note_off_c, 2, 41, 80
3, 91440, Note_on_c, 2, 48, 86
3, 91440, Note_on_c, 2, 41, 100
3, 91560, Note_off_c, 2, 48, 80
3, 91560, Note_off_c, 2, 41, 80
3, 91560, Note_on_c, 2, 48, 86
3, 91560, Note_on_c, 2, 41, 100
3, 91680, Note_off_c, 2, 48, 80
3, 91680, Note_off_c, 2, 41, 80
3, 91680, Note_on_c, 2, 48, 86
3, 91680, Note_on_c, 2, 41, 100
3, 91800, Note_off_c, 2, 48, 80
3, 91800, Note_off_c, 2, 41, 80
3, 91800, Note_on_c, 2, 48, 86
3, 91800, Note_on_c, 2, 41, 100
3, 91920, Note_off_c, 2, 48, 80
3, 91920, Note_off_c, 2, 41, 80
3, 91920, Note_on_c, 2, 48, 86
3, 91920, Note_on_c, 2, 41, 100
3, 92040, Note_off_c, 2, 48, 80
3, 92040, Note_off_c, 2, 41, 80
3, 92040, Note_on_c, 2, 48, 86
3, 92040, Note_on_c, 2, 41, 100
3, 92160, Note_off_c, 2, 48, 80
3, 92160, Note_off_c, 2, 41, 80
3, 92160, Note_on_c, 2, 53, 95
3, 92160, Note_on_c, 2, 46, 95
3, 92280, Note_off_c, 2, 53, 80
3, 92280, Note_off_c, 2, 46, 80
3, 92280, Note_on_c, 2, 53, 86
3, 92280, Note_on_c, 2, 46, 100
3, 92400, Note_off_c, 2, 53, 80
3, 92400, Note_off_c, 2, 46, 80
3, 92400, Note_on_c, 2, 53, 86
3, 92400, Note_on_c, 2, 46, 100
3, 92520, Note_off_c, 2, 53, 80
3, 92520, Note_off_c, 2, 46, 80
3, 92520, Note_on_c, 2, 53, 86
3, 92520, Note_on_c, 2, 46, 100
3, 92640, Note_off_c, 2, 53, 80
3, 92640, Note_off_c, 2, 46, 80
3, 92640, Note_on_c, 2, 53, 86
3, 92640, Note_on_c, 2, 46, 100
3, 92760, Note_off_c, 2, 53, 80
3, 92760, Note_off_c, 2, 46, 80
3, 92760, Note_on_c, 2, 53, 86
3, 92760, Note_on_c, 2, 46, 100
3, 92880, Note_off_c, 2, 53, 80
3, 92880, Note_off_c, 2, 46, 80
3, 92880, Note_on_c, 2, 53, 86
3, 92880, Note_on_c, 2, 46, 100
3, 93000, Note_off_c, 2, 53, 80
3, 93000, Note_off_c, 2, 46, 80
3, 93000, Note_on_c, 2, 53, 86
3, 93000, Note_on_c, 2, 46, 100
3, 93120, Note_off_c, 2, 53, 80
3, 93120, Note_off_c, 2, 46, 80
3, 93120, Note_on_c, 2, 53, 95
3, 93120, Note_on_c, 2, 46, 111
3, 93240, Note_off_c, 2, 53, 80
3, 93240, Note_off_c, 2, 46, 80
3, 93240, Note_on_c, 2, 53, 86
3, 93240, Note_on_c, 2, 46, 100
3, 93360, Note_off_c, 2, 53, 80
3, 93360, Note_off_c, 2, 46, 80
3, 93360, Note_on_c, 2, 53, 86
3, 93360, Note_on_c, 2, 46, 100
3, 93480, Note_off_c, 2, 53, 80
3, 93480, Note_off_c, 2, 46, 80
3, 93480, Note_on_c, 2, 53, 86
3, 93480, Note_on_c, 2, 46, 100
3, 93600, Note_off_c, 2, 53, 80
3, 93600, Note_off_c, 2, 46, 80
3, 93600, Note_on_c, 2, 53, 86
3, 93600, Note_on_c, 2, 46, 100
3, 93720, Note_off_c, 2, 53, 80
3, 93720, Note_off_c, 2, 46, 80
3, 93720, Note_on_c, 2, 53, 86
3, 93720, Note_on_c, 2, 46, 100
3, 93840, Note_off_c, 2, 53, 80
3, 93840, Note_off_c, 2, 46, 80
3, 93840, Note_on_c, 2, 53, 86
3, 93840, Note_on_c, 2, 46, 100
3, 93960, Note_off_c, 2, 53, 80
3, 93960, Note_off_c, 2, 46, 80
3, 93960, Note_on_c, 2, 53, 86
3, 93960, Note_on_c, 2, 46, 100
3, 94080, Note_off_c, 2, 53, 80
3, 94080, Note_off_c, 2, 46, 80
3, 94080, Note_on_c, 2, 49, 111
3, 94080, Note_on_c, 2, 42, 111
3, 94200, Note_off_c, 2, 49, 80
3, 94200, Note_off_c, 2, 42, 80
3, 94200, Note_on_c, 2, 49, 100
3, 94200, Note_on_c, 2, 42, 100
3, 94320, Note_off_c, 2, 49, 80
3, 94320, Note_off_c, 2, 42, 80
3, 94320, Note_on_c, 2, 49, 100
3, 94320, Note_on_c, 2, 42, 100
3, 94440, Note_off_c, 2, 49, 80
3, 94440, Note_off_c, 2, 42, 80
3, 94440, Note_on_c, 2, 49, 100
3, 94440, Note_on_c, 2, 42, 100
3, 94560, Note_off_c, 2, 49, 80
3, 94560, Note_off_c, 2, 42, 80
3, 94560, Note_on_c, 2, 49, 100
3, 94560, Note_on_c, 2, 42, 100
3, 94680, Note_off_c, 2, 49, 80
3, 94680, Note_off_c, 2, 42, 80
3, 94680, Note_on_c, 2, 49, 100
3, 94680, Note_on_c, 2, 42, 100
3, 94800, Note_off_c, 2, 49, 80
3, 94800, Note_off_c, 2, 42, 80
3, 94800, Note_on_c, 2, 49, 100
3, 94800, Note_on_c, 2, 42, 100
3, 94920, Note_off_c, 2, 49, 80
3, 94920, Note_off_c, 2, 42, 80
3, 94920, Note_on_c, 2, 49, 100
3, 94920, Note_on_c, 2, 42, 100
3, 95040, Note_off_c, 2, 49, 80
3, 95040, Note_off_c, 2, 42, 80
3, 95040, Note_on_c, 2, 49, 111
3, 95040, Note_on_c, 2, 42, 111
3, 95160, Note_off_c, 2, 49, 80
3, 95160, Note_off_c, 2, 42, 80
3, 95160, Note_on_c, 2, 49, 100
3, 95160, Note_on_c, 2, 42, 100
3, 95280, Note_off_c, 2, 49, 80
3, 95280, Note_off_c, 2, 42, 80
3, 95280, Note_on_c, 2, 49, 100
3, 95280, Note_on_c, 2, 42, 100
3, 95400, Note_off_c, 2, 49, 80
3, 95400, Note_off_c, 2, 42, 80
3, 95400, Note_on_c, 2, 49, 100
3, 95400, Note_on_c, 2, 42, 100
3, 95520, Note_off_c, 2, 49, 80
3, 95520, Note_off_c, 2, 42, 80
3, 95520, Note_on_c, 2, 49, 100
3, 95520, Note_on_c, 2, 42, 100
3, 95640, Note_off_c, 2, 49, 80
3, 95640, Note_off_c, 2, 42, 80
3, 95640, Note_on_c, 2, 49, 100
3, 95640, Note_on_c, 2, 42, 100
3, 95760, Note_off_c, 2, 49, 80
3, 95760, Note_off_c, 2, 42, 80
3, 95760, Note_on_c, 2, 49, 100
3, 95760, Note_on_c, 2, 42, 100
3, 95880, Note_off_c, 2, 49, 80
3, 95880, Note_off_c, 2, 42, 80
3, 95880, Note_on_c, 2, 49, 100
3, 95880, Note_on_c, 2, 42, 100
3, 96000, Note_off_c, 2, 49, 80
3, 96000, Note_off_c, 2, 42, 80
3, 96000, Note_on_c, 2, 46, 95
3, 96000, Note_on_c, 2, 39, 111
3, 96120, Note_off_c, 2, 46, 80
3, 96120, Note_off_c, 2, 39, 80
3, 96120, Note_on_c, 2, 46, 86
3, 96120, Note_on_c, 2, 39, 100
3, 96240, Note_off_c, 2, 46, 80
3, 96240, Note_off_c, 2, 39, 80
3, 96240, Note_on_c, 2, 46, 86
3, 96240, Note_on_c, 2, 39, 100
3, 96360, Note_off_c, 2, 46, 80
3, 96360, Note_off_c, 2, 39, 80
3, 96360, Note_on_c, 2, 46, 86
3, 96360, Note_on_c, 2, 39, 100
3, 96480, Note_off_c, 2, 46, 80
3, 96480, Note_off_c, 2, 39, 80
3, 96480, Note_on_c, 2, 46, 86
3, 96480, Note_on_c, 2, 39, 100
3, 96600, Note_off_c, 2, 46, 80
3, 96600, Note_off_c, 2, 39, 80
3, 96600, Note_on_c, 2, 46, 86
3, 96600, Note_on_c, 2, 39, 100
3, 96720, Note_off_c, 2, 46, 80
3, 96720, Note_off_c, 2, 39, 80
3, 96720, Note_on_c, 2, 46, 86
3, 96720, Note_on_c, 2, 39, 100
3, 96840, Note_off_c, 2, 46, 80
3, 96840, Note_off_c, 2, 39, 80
3, 96840, Note_on_c, 2, 46, 86
3, 96840, Note_on_c, 2, 39, 100
3, 96960, Note_off_c, 2, 46, 80
3, 96960, Note_off_c, 2, 39, 80
3, 96960, Note_on_c, 2, 46, 95
3, 96960, Note_on_c, 2, 39, 111
3, 97080, Note_off_c, 2, 46, 80
3, 97080, Note_off_c, 2, 39, 80
3, 97080, Note_on_c, 2, 46, 86
3, 97080, Note_on_c, 2, 39, 100
3, 97200, Note_off_c, 2, 46, 80
3, 97200, Note_off_c, 2, 39, 80
3, 97200, Note_on_c, 2, 46, 86
3, 97200, Note_on_c, 2, 39, 100
3, 97320, Note_off_c, 2, 46, 80
3, 97320, Note_off_c, 2, 39, 80
3, 97320, Note_on_c, 2, 46, 86
3, 97320, Note_on_c, 2, 39, 100
3, 97440, Note_off_c, 2, 46, 80
3, 97440, Note_off_c, 2, 39, 80
3, 97440, Note_on_c, 2, 46, 86
3, 97440, Note_on_c, 2, 39, 100
3, 97560, Note_off_c, 2, 46, 80
3, 97560, Note_off_c, 2, 39, 80
3, 97560, Note_on_c, 2, 46, 86
3, 97560, Note_on_c, 2, 39, 100
3, 97680, Note_off_c, 2, 46, 80
3, 97680, Note_off_c, 2, 39, 80
3, 97680, Note_on_c, 2, 46, 86
3, 97680, Note_on_c, 2, 39, 100
3, 97800, Note_off_c, 2, 46, 80
3, 97800, Note_off_c, 2, 39, 80
3, 97800, Note_on_c, 2, 46, 86
3, 97800, Note_on_c, 2, 39, 100
3, 97920, Note_off_c, 2, 46, 80
3, 97920, Note_off_c, 2, 39, 80
3, 97920, Note_on_c, 2, 48, 95
3, 97920, Note_on_c, 2, 41, 111
3, 98040, Note_off_c, 2, 48, 80
3, 98040, Note_off_c, 2, 41, 80
3, 98040, Note_on_c, 2, 48, 86
3, 98040, Note_on_c, 2, 41, 100
3, 98160, Note_off_c, 2, 48, 80
3, 98160, Note_off_c, 2, 41, 80
3, 98160, Note_on_c, 2, 48, 86
3, 98160, Note_on_c, 2, 41, 100
3, 98280, Note_off_c, 2, 48, 80
3, 98280, Note_off_c, 2, 41, 80
3, 98280, Note_on_c, 2, 48, 86
3, 98280, Note_on_c, 2, 41, 100
3, 98400, Note_off_c, 2, 48, 80
3, 98400, Note_off_c, 2, 41, 80
3, 98400, Note_on_c, 2, 48, 86
3, 98400, Note_on_c, 2, 41, 100
3, 98520, Note_off_c, 2, 48, 80
3, 98520, Note_off_c, 2, 41, 80
3, 98520, Note_on_c, 2, 48, 86
3, 98520, Note_on_c, 2, 41, 100
3, 98640, Note_off_c, 2, 48, 80
3, 98640, Note_off_c, 2, 41, 80
3, 98640, Note_on_c, 2, 48, 86
3, 98640, Note_on_c, 2, 41, 100
3, 98760, Note_off_c, 2, 48, 80
3, 98760, Note_off_c, 2, 41, 80
3, 98760, Note_on_c, 2, 48, 86
3, 98760, Note_on_c, 2, 41, 100
3, 98880, Note_off_c, 2, 48, 80
3, 98880, Note_off_c, 2, 41, 80
3, 98880, Note_on_c, 2, 48, 95
3, 98880, Note_on_c, 2, 41, 111
3, 99000, Note_off_c, 2, 48, 80
3, 99000, Note_off_c, 2, 41, 80
3, 99000, Note_on_c, 2, 48, 86
3, 99000, Note_on_c, 2, 41, 100
3, 99120, Note_off_c, 2, 48, 80
3, 99120, Note_off_c, 2, 41, 80
3, 99120, Note_on_c, 2, 48, 86
3, 99120, Note_on_c, 2, 41, 100
3, 99240, Note_off_c, 2, 48, 80
3, 99240, Note_off_c, 2, 41, 80
3, 99240, Note_on_c, 2, 48, 86
3, 99240, Note_on_c, 2, 41, 100
3, 99360, Note_off_c, 2, 48, 80
3, 99360, Note_off_c, 2, 41, 80
3, 99360, Note_on_c, 2, 48, 86
3, 99360, Note_on_c, 2, 41, 100
3, 99480, Note_off_c, 2, 48, 80
3, 99480, Note_off_c, 2, 41, 80
3, 99480, Note_on_c, 2, 48, 86
3, 99480, Note_on_c, 2, 41, 100
3, 99600, Note_off_c, 2, 48, 80
3, 99600, Note_off_c, 2, 41, 80
3, 99600, Note_on_c, 2, 48, 86
3, 99600, Note_on_c, 2, 41, 100
3, 99720, Note_off_c, 2, 48, 80
3, 99720, Note_off_c, 2, 41, 80
3, 99720, Note_on_c, 2, 48, 86
3, 99720, Note_on_c, 2, 41, 100
3, 99840, Note_off_c, 2, 48, 80
3, 99840, Note_off_c, 2, 41, 80
3, 99840, Note_on_c, 2, 48, 95
3, 99840, Note_on_c, 2, 41, 111
3, 99960, Note_off_c, 2, 48, 80
3, 99960, Note_off_c, 2, 41, 80
3, 99960, Note_on_c, 2, 48, 86
3, 99960, Note_on_c, 2, 41, 100
3, 100080, Note_off_c, 2, 48, 80
3, 100080, Note_off_c, 2, 41, 80
3, 100080, Note_on_c, 2, 48, 86
3, 100080, Note_on_c, 2, 41, 100
3, 100200, Note_off_c, 2, 48, 80
3, 100200, Note_off_c, 2, 41, 80
3, 100200, Note_on_c, 2, 48, 86
3, 100200, Note_on_c, 2, 41, 100
3, 100320, Note_off_c, 2, 48, 80
3, 100320, Note_off_c, 2, 41, 80
3, 100320, Note_on_c, 2, 48, 86
3, 100320, Note_on_c, 2, 41, 100
3, 100440, Note_off_c, 2, 48, 80
3, 100440, Note_off_c, 2, 41, 80
3, 100440, Note_on_c, 2, 48, 86
3, 100440, Note_on_c, 2, 41, 100
3, 100560, Note_off_c, 2, 48, 80
3, 100560, Note_off_c, 2, 41, 80
3, 100560, Note_on_c, 2, 48, 86
3, 100560, Note_on_c, 2, 41, 100
3, 100680, Note_off_c, 2, 48, 80
3, 100680, Note_off_c, 2, 41, 80
3, 100680, Note_on_c, 2, 48, 86
3, 100680, Note_on_c, 2, 41, 100
3, 100800, Note_off_c, 2, 48, 80
3, 100800, Note_off_c, 2, 41, 80
3, 100800, Note_on_c, 2, 48, 95
3, 100800, Note_on_c, 2, 41, 111
3, 100920, Note_off_c, 2, 48, 80
3, 100920, Note_off_c, 2, 41, 80
3, 100920, Note_on_c, 2, 48, 86
3, 100920, Note_on_c, 2, 41, 100
3, 101040, Note_off_c, 2, 48, 80
3, 101040, Note_off_c, 2, 41, 80
3, 101040, Note_on_c, 2, 48, 86
3, 101040, Note_on_c, 2, 41, 100
3, 101160, Note_off_c, 2, 48, 80
3, 101160, Note_off_c, 2, 41, 80
3, 101160, Note_on_c, 2, 48, 86
3, 101160, Note_on_c, 2, 41, 100
3, 101280, Note_off_c, 2, 48, 80
3, 101280, Note_off_c, 2, 41, 80
3, 101280, Note_on_c, 2, 48, 86
3, 101280, Note_on_c, 2, 41, 100
3, 101400, Note_off_c, 2, 48, 80
3, 101400, Note_off_c, 2, 41, 80
3, 101400, Note_on_c, 2, 48, 86
3, 101400, Note_on_c, 2, 41, 100
3, 101520, Note_off_c, 2, 48, 80
3, 101520, Note_off_c, 2, 41, 80
3, 101520, Note_on_c, 2, 48, 86
3, 101520, Note_on_c, 2, 41, 100
3, 101640, Note_off_c, 2, 48, 80
3, 101640, Note_off_c, 2, 41, 80
3, 101640, Note_on_c, 2, 48, 86
3, 101640, Note_on_c, 2, 41, 100
3, 101760, Note_off_c, 2, 48, 80
3, 101760, Note_off_c, 2, 41, 80
3, 101760, End_track
4, 0, Start_track
4, 0, Title_t, "3"
4, 0, Control_c, 9, 100, 0
4, 0, Control_c, 9, 101, 0
4, 0, Control_c, 9, 6, 2
4, 0, Pitch_bend_c, 9, 8192
4, 0, Program_c, 9, 0
4, 0, Control_c, 9, 7, 112
4, 0, Control_c, 9, 10, 64
4, 0, Control_c, 9, 93, 64
4, 0, Control_c, 9, 91, 64
4, 0, Control_c, 9, 92, 0
4, 0, Control_c, 9, 95, 0
4, 0, Note_on_c, 9, 35, 95
4, 0, Note_on_c, 9, 36, 95
4, 0, Note_on_c, 9, 57, 95
4, 960, Note_off_c, 9, 35, 80
4, 960, Note_off_c, 9, 36, 80
4, 960, Note_off_c, 9, 57, 80
4, 960, Note_on_c, 9, 45, 95
4, 1080, Note_off_c, 9, 45, 80
4, 1080, Note_on_c, 9, 45, 95
4, 1200, Note_off_c, 9, 45, 80
4, 1200, Note_on_c, 9, 43, 95
4, 1320, Note_off_c, 9, 43, 80
4, 1320, Note_on_c, 9, 43, 95
4, 1440, Note_off_c, 9, 43, 80
4, 1440, Note_on_c, 9, 41, 95
4, 1560, Note_off_c, 9, 41, 80
4, 1560, Note_on_c, 9, 41, 95
4, 1680, Note_off_c, 9, 41, 80
4, 1680, Note_on_c, 9, 43, 95
4, 1800, Note_off_c, 9, 43, 80
4, 1800, Note_on_c, 9, 43, 95
4, 1920, Note_off_c, 9, 43, 80
4, 1920, Note_on_c, 9, 40, 95
4, 1920, Note_on_c, 9, 35, 95
4, 1920, Note_on_c, 9, 36, 95
4, 2160, Note_off_c, 9, 40, 80
4, 2160, Note_off_c, 9, 35, 80
4, 2160, Note_off_c, 9, 36, 80
4, 2160, Note_on_c, 9, 40, 95
4, 2160, Note_on_c, 9, 35, 95
4, 2160, Note_on_c, 9, 36, 95
4, 2640, Note_off_c, 9, 40, 80
4, 2640, Note_off_c, 9, 35, 80
4, 2640, Note_off_c, 9, 36, 80
4, 2760, Note_on_c, 9, 43, 95
4, 2820, Note_off_c, 9, 43, 80
4, 2820, Note_on_c, 9, 43, 95
4, 2880, Note_off_c, 9, 43, 80
4, 2880, Note_on_c, 9, 41, 95
4, 2880, Note_on_c, 9, 36, 95
4, 3840, Note_off_c, 9, 41, 80
4, 3840, Note_off_c, 9, 36, 80
4, 3840, Note_on_c, 9, 42, 95
4, 3840, Note_on_c, 9, 35, 95
4, 3840, Note_on_c, 9, 36, 95
4, 3840, Note_on_c, 9, 57, 95
4, 3960, Note_off_c, 9, 42, 80
4, 3960, Note_off_c, 9, 35, 80
4, 3960, Note_off_c, 9, 36, 80
4, 3960, Note_off_c, 9, 57, 80
4, 4080, Note_on_c, 9, 42, 95
4, 4200, Note_off_c, 9, 42, 80
4, 4320, Note_on_c, 9, 42, 95
4, 4320, Note_on_c, 9, 55, 95
4, 4440, Note_off_c, 9, 42, 80
4, 4440, Note_off_c, 9, 55, 80
4, 4560, Note_on_c, 9, 42, 95
4, 4680, Note_off_c, 9, 42, 80
4, 4800, Note_on_c, 9, 42, 95
4, 4800, Note_on_c, 9, 35, 95
4, 4800, Note_on_c, 9, 36, 95
4, 4800, Note_on_c, 9, 57, 95
4, 4920, Note_off_c, 9, 42, 80
4, 4920, Note_off_c, 9, 35, 80
4, 4920, Note_off_c, 9, 36, 80
4, 4920, Note_off_c, 9, 57, 80
4, 5040, Note_on_c, 9, 42, 95
4, 5160, Note_off_c, 9, 42, 80
4, 5280, Note_on_c, 9, 42, 95
4, 5280, Note_on_c, 9, 55, 95
4, 5400, Note_off_c, 9, 42, 80
4, 5400, Note_off_c, 9, 55, 80
4, 5520, Note_on_c, 9, 42, 95
4, 5640, Note_off_c, 9, 42, 80
4, 5760, Note_on_c, 9, 55, 95
4, 5760, Note_on_c, 9, 35, 95
4, 5760, Note_on_c, 9, 36, 95
4, 5880, Note_off_c, 9, 55, 80
4, 5880, Note_off_c, 9, 35, 80
4, 5880, Note_off_c, 9, 36, 80
4, 5880, Note_on_c, 9, 35, 95
4, 5880, Note_on_c, 9, 36, 95
4, 6000, Note_off_c, 9, 35, 80
4, 6000, Note_off_c, 9, 36, 80
4, 6000, Note_on_c, 9, 42, 95
4, 6000, Note_on_c, 9, 35, 95
4, 6000, Note_on_c, 9, 36, 95
4, 6120, Note_off_c, 9, 42, 80
4, 6120, Note_off_c, 9, 35, 80
4, 6120, Note_off_c, 9, 36, 80
4, 6120, Note_on_c, 9, 35, 95
4, 6120, Note_on_c, 9, 36, 95
4, 6240, Note_off_c, 9, 35, 80
4, 6240, Note_off_c, 9, 36, 80
4, 6240, Note_on_c, 9, 42, 95
4, 6240, Note_on_c, 9, 57, 95
4, 6240, Note_on_c, 9, 40, 95
4, 6240, Note_on_c, 9, 36, 95
4, 6360, Note_off_c, 9, 42, 80
4, 6360, Note_off_c, 9, 57, 80
4, 6360, Note_off_c, 9, 40, 80
4, 6360, Note_off_c, 9, 36, 80
4, 6360, Note_on_c, 9, 42, 95
4, 6480, Note_off_c, 9, 42, 80
4, 6480, Note_on_c, 9, 42, 95
4, 6600, Note_off_c, 9, 42, 80
4, 6600, Note_on_c, 9, 42, 95
4, 6720, Note_off_c, 9, 42, 80
4, 6720, Note_on_c, 9, 42, 95
4, 6720, Note_on_c, 9, 36, 95
4, 6720, Note_on_c, 9, 35, 95
4, 6840, Note_off_c, 9, 42, 80
4, 6840, Note_off_c, 9, 36, 80
4, 6840, Note_off_c, 9, 35, 80
4, 6840, Note_on_c, 9, 42, 95
4, 6960, Note_off_c, 9, 42, 80
4, 6960, Note_on_c, 9, 42, 95
4, 7080, Note_off_c, 9, 42, 80
4, 7080, Note_on_c, 9, 42, 95
4, 7200, Note_off_c, 9, 42, 80
4, 7200, Note_on_c, 9, 42, 95
4, 7200, Note_on_c, 9, 40, 95
4, 7320, Note_off_c, 9, 42, 80
4, 7320, Note_off_c, 9, 40, 80
4, 7320, Note_on_c, 9, 42, 95
4, 7440, Note_off_c, 9, 42, 80
4, 7440, Note_on_c, 9, 42, 95
4, 7560, Note_off_c, 9, 42, 80
4, 7560, Note_on_c, 9, 42, 95
4, 7680, Note_off_c, 9, 42, 80
4, 7680, Note_on_c, 9, 42, 95
4, 7680, Note_on_c, 9, 35, 95
4, 7680, Note_on_c, 9, 36, 95
4, 7740, Note_off_c, 9, 42, 80
4, 7740, Note_off_c, 9, 35, 80
4, 7740, Note_off_c, 9, 36, 80
4, 7740, Note_on_c, 9, 35, 95
4, 7740, Note_on_c, 9, 36, 95
4, 7800, Note_off_c, 9, 35, 80
4, 7800, Note_off_c, 9, 36, 80
4, 7800, Note_on_c, 9, 42, 95
4, 7800, Note_on_c, 9, 35, 95
4, 7800, Note_on_c, 9, 36, 95
4, 7860, Note_off_c, 9, 42, 80
4, 7860, Note_off_c, 9, 35, 80
4, 7860, Note_off_c, 9, 36, 80
4, 7860, Note_on_c, 9, 35, 95
4, 7860, Note_on_c, 9, 36, 95
4, 7920, Note_off_c, 9, 35, 80
4, 7920, Note_off_c, 9, 36, 80
4, 7920, Note_on_c, 9, 42, 95
4, 7920, Note_on_c, 9, 36, 95
4, 7920, Note_on_c, 9, 35, 95
4, 7980, Note_off_c, 9, 42, 80
4, 7980, Note_off_c, 9, 36, 80
4, 7980, Note_off_c, 9, 35, 80
4, 7980, Note_on_c, 9, 35, 95
4, 7980, Note_on_c, 9, 36, 95
4, 8040, Note_off_c, 9, 35, 80
4, 8040, Note_off_c, 9, 36, 80
4, 8040, Note_on_c, 9, 42, 95
4, 8040, Note_on_c, 9, 35, 95
4, 8040, Note_on_c, 9, 36, 95
4, 8100, Note_off_c, 9, 42, 80
4, 8100, Note_off_c, 9, 35, 80
4, 8100, Note_off_c, 9, 36, 80
4, 8100, Note_on_c, 9, 35, 95
4, 8100, Note_on_c, 9, 36, 95
4, 8160, Note_off_c, 9, 35, 80
4, 8160, Note_off_c, 9, 36, 80
4, 8160, Note_on_c, 9, 42, 95
4, 8160, Note_on_c, 9, 40, 95
4, 8280, Note_off_c, 9, 42, 80
4, 8280, Note_off_c, 9, 40, 80
4, 8280, Note_on_c, 9, 42, 95
4, 8400, Note_off_c, 9, 42, 80
4, 8400, Note_on_c, 9, 42, 95
4, 8520, Note_off_c, 9, 42, 80
4, 8520, Note_on_c, 9, 42, 95
4, 8640, Note_off_c, 9, 42, 80
4, 8640, Note_on_c, 9, 42, 95
4, 8640, Note_on_c, 9, 36, 95
4, 8640, Note_on_c, 9, 35, 95
4, 8760, Note_off_c, 9, 42, 80
4, 8760, Note_off_c, 9, 36, 80
4, 8760, Note_off_c, 9, 35, 80
4, 8760, Note_on_c, 9, 42, 95
4, 8880, Note_off_c, 9, 42, 80
4, 8880, Note_on_c, 9, 42, 95
4, 9000, Note_off_c, 9, 42, 80
4, 9000, Note_on_c, 9, 42, 95
4, 9120, Note_off_c, 9, 42, 80
4, 9120, Note_on_c, 9, 42, 95
4, 9120, Note_on_c, 9, 40, 95
4, 9240, Note_off_c, 9, 42, 80
4, 9240, Note_off_c, 9, 40, 80
4, 9240, Note_on_c, 9, 42, 95
4, 9360, Note_off_c, 9, 42, 80
4, 9360, Note_on_c, 9, 42, 95
4, 9480, Note_off_c, 9, 42, 80
4, 9480, Note_on_c, 9, 42, 95
4, 9600, Note_off_c, 9, 42, 80
4, 9600, Note_on_c, 9, 53, 95
4, 9600, Note_on_c, 9, 35, 95
4, 9600, Note_on_c, 9, 36, 95
4, 9600, Note_on_c, 9, 57, 95
4, 9720, Note_off_c, 9, 53, 80
4, 9720, Note_off_c, 9, 35, 80
4, 9720, Note_off_c, 9, 36, 80
4, 9720, Note_off_c, 9, 57, 80
4, 9720, Note_on_c, 9, 53, 95
4, 9840, Note_off_c, 9, 53, 80
4, 9840, Note_on_c, 9, 53, 95
4, 9960, Note_off_c, 9, 53, 80
4, 9960, Note_on_c, 9, 53, 95
4, 10080, Note_off_c, 9, 53, 80
4, 10080, Note_on_c, 9, 53, 95
4, 10200, Note_off_c, 9, 53, 80
4, 10200, Note_on_c, 9, 53, 95
4, 10320, Note_off_c, 9, 53, 80
4, 10320, Note_on_c, 9, 53, 95
4, 10440, Note_off_c, 9, 53, 80
4, 10440, Note_on_c, 9, 53, 95
4, 10560, Note_off_c, 9, 53, 80
4, 10560, Note_on_c, 9, 53, 95
4, 10560, Note_on_c, 9, 55, 95
4, 10560, Note_on_c, 9, 36, 95
4, 10560, Note_on_c, 9, 35, 95
4, 10560, Note_on_c, 9, 57, 95
4, 10680, Note_off_c, 9, 53, 80
4, 10680, Note_off_c, 9, 55, 80
4, 10680, Note_off_c, 9, 36, 80
4, 10680, Note_off_c, 9, 35, 80
4, 10680, Note_off_c, 9, 57, 80
4, 10680, Note_on_c, 9, 53, 95
4, 10800, Note_off_c, 9, 53, 80
4, 10800, Note_on_c, 9, 53, 95
4, 10920, Note_off_c, 9, 53, 80
4, 10920, Note_on_c, 9, 53, 95
4, 11040, Note_off_c, 9, 53, 80
4, 11040, Note_on_c, 9, 53, 95
4, 11160, Note_off_c, 9, 53, 80
4, 11160, Note_on_c, 9, 53, 95
4, 11280, Note_off_c, 9, 53, 80
4, 11280, Note_on_c, 9, 53, 95
4, 11400, Note_off_c, 9, 53, 80
4, 11400, Note_on_c, 9, 53, 95
4, 11520, Note_off_c, 9, 53, 80
4, 11520, Note_on_c, 9, 53, 95
4, 11520, Note_on_c, 9, 35, 95
4, 11520, Note_on_c, 9, 36, 95
4, 11640, Note_off_c, 9, 53, 80
4, 11640, Note_off_c, 9, 35, 80
4, 11640, Note_off_c, 9, 36, 80
4, 11640, Note_on_c, 9, 53, 95
4, 11640, Note_on_c, 9, 35, 95
4, 11640, Note_on_c, 9, 36, 95
4, 11760, Note_off_c, 9, 53, 80
4, 11760, Note_off_c, 9, 35, 80
4, 11760, Note_off_c, 9, 36, 80
4, 11760, Note_on_c, 9, 53, 95
4, 11880, Note_off_c, 9, 53, 80
4, 11880, Note_on_c, 9, 53, 95
4, 12000, Note_off_c, 9, 53, 80
4, 12000, Note_on_c, 9, 53, 95
4, 12120, Note_off_c, 9, 53, 80
4, 12120, Note_on_c, 9, 53, 95
4, 12240, Note_off_c, 9, 53, 80
4, 12240, Note_on_c, 9, 53, 95
4, 12360, Note_off_c, 9, 53, 80
4, 12360, Note_on_c, 9, 53, 95
4, 12480, Note_off_c, 9, 53, 80
4, 12480, Note_on_c, 9, 53, 95
4, 12480, Note_on_c, 9, 35, 95
4, 12480, Note_on_c, 9, 36, 95
4, 12600, Note_off_c, 9, 53, 80
4, 12600, Note_off_c, 9, 35, 80
4, 12600, Note_off_c, 9, 36, 80
4, 12600, Note_on_c, 9, 53, 95
4, 12600, Note_on_c, 9, 35, 95
4, 12600, Note_on_c, 9, 36, 95
4, 12720, Note_off_c, 9, 53, 80
4, 12720, Note_off_c, 9, 35, 80
4, 12720, Note_off_c, 9, 36, 80
4, 12720, Note_on_c, 9, 53, 95
4, 12720, Note_on_c, 9, 40, 95
4, 12840, Note_off_c, 9, 53, 80
4, 12840, Note_off_c, 9, 40, 80
4, 12840, Note_on_c, 9, 53, 95
4, 12960, Note_off_c, 9, 53, 80
4, 12960, Note_on_c, 9, 53, 95
4, 13080, Note_off_c, 9, 53, 80
4, 13080, Note_on_c, 9, 53, 95
4, 13200, Note_off_c, 9, 53, 80
4, 13200, Note_on_c, 9, 53, 95
4, 13320, Note_off_c, 9, 53, 80
4, 13320, Note_on_c, 9, 53, 95
4, 13440, Note_off_c, 9, 53, 80
4, 13440, Note_on_c, 9, 53, 95
4, 13440, Note_on_c, 9, 35, 95
4, 13440, Note_on_c, 9, 36, 95
4, 13560, Note_off_c, 9, 53, 80
4, 13560, Note_off_c, 9, 35, 80
4, 13560, Note_off_c, 9, 36, 80
4, 13560, Note_on_c, 9, 53, 95
4, 13560, Note_on_c, 9, 35, 95
4, 13560, Note_on_c, 9, 36, 95
4, 13680, Note_off_c, 9, 53, 80
4, 13680, Note_off_c, 9, 35, 80
4, 13680, Note_off_c, 9, 36, 80
4, 13680, Note_on_c, 9, 53, 95
4, 13680, Note_on_c, 9, 35, 95
4, 13680, Note_on_c, 9, 36, 95
4, 13800, Note_off_c, 9, 53, 80
4, 13800, Note_off_c, 9, 35, 80
4, 13800, Note_off_c, 9, 36, 80
4, 13800, Note_on_c, 9, 53, 95
4, 13800, Note_on_c, 9, 35, 95
4, 13800, Note_on_c, 9, 36, 95
4, 13920, Note_off_c, 9, 53, 80
4, 13920, Note_off_c, 9, 35, 80
4, 13920, Note_off_c, 9, 36, 80
4, 13920, Note_on_c, 9, 53, 95
4, 13920, Note_on_c, 9, 57, 95
4, 13920, Note_on_c, 9, 40, 95
4, 14040, Note_off_c, 9, 53, 80
4, 14040, Note_off_c, 9, 57, 80
4, 14040, Note_off_c, 9, 40, 80
4, 14040, Note_on_c, 9, 53, 95
4, 14160, Note_off_c, 9, 53, 80
4, 14160, Note_on_c, 9, 53, 95
4, 14280, Note_off_c, 9, 53, 80
4, 14280, Note_on_c, 9, 53, 95
4, 14400, Note_off_c, 9, 53, 80
4, 14400, Note_on_c, 9, 53, 95
4, 14400, Note_on_c, 9, 35, 95
4, 14400, Note_on_c, 9, 36, 95
4, 14520, Note_off_c, 9, 53, 80
4, 14520, Note_off_c, 9, 35, 80
4, 14520, Note_off_c, 9, 36, 80
4, 14520, Note_on_c, 9, 53, 95
4, 14520, Note_on_c, 9, 35, 95
4, 14520, Note_on_c, 9, 36, 95
4, 14640, Note_off_c, 9, 53, 80
4, 14640, Note_off_c, 9, 35, 80
4, 14640, Note_off_c, 9, 36, 80
4, 14640, Note_on_c, 9, 53, 95
4, 14640, Note_on_c, 9, 35, 95
4, 14640, Note_on_c, 9, 36, 95
4, 14760, Note_off_c, 9, 53, 80
4, 14760, Note_off_c, 9, 35, 80
4, 14760, Note_off_c, 9, 36, 80
4, 14760, Note_on_c, 9, 53, 95
4, 14760, Note_on_c, 9, 35, 95
4, 14760, Note_on_c, 9, 36, 95
4, 14880, Note_off_c, 9, 53, 80
4, 14880, Note_off_c, 9, 35, 80
4, 14880, Note_off_c, 9, 36, 80
4, 14880, Note_on_c, 9, 53, 95
4, 14880, Note_on_c, 9, 57, 95
4, 14880, Note_on_c, 9, 40, 95
4, 15000, Note_off_c, 9, 53, 80
4, 15000, Note_off_c, 9, 57, 80
4, 15000, Note_off_c, 9, 40, 80
4, 15000, Note_on_c, 9, 53, 95
4, 15120, Note_off_c, 9, 53, 80
4, 15120, Note_on_c, 9, 53, 95
4, 15240, Note_off_c, 9, 53, 80
4, 15240, Note_on_c, 9, 53, 95
4, 15360, Note_off_c, 9, 53, 80
4, 15360, Note_on_c, 9, 53, 95
4, 15360, Note_on_c, 9, 35, 95
4, 15360, Note_on_c, 9, 36, 95
4, 15480, Note_off_c, 9, 53, 80
4, 15480, Note_off_c, 9, 35, 80
4, 15480, Note_off_c, 9, 36, 80
4, 15480, Note_on_c, 9, 53, 95
4, 15480, Note_on_c, 9, 35, 95
4, 15480, Note_on_c, 9, 36, 95
4, 15600, Note_off_c, 9, 53, 80
4, 15600, Note_off_c, 9, 35, 80
4, 15600, Note_off_c, 9, 36, 80
4, 15600, Note_on_c, 9, 53, 95
4, 15600, Note_on_c, 9, 35, 95
4, 15600, Note_on_c, 9, 36, 95
4, 15720, Note_off_c, 9, 53, 80
4, 15720, Note_off_c, 9, 35, 80
4, 15720, Note_off_c, 9, 36, 80
4, 15720, Note_on_c, 9, 53, 95
4, 15720, Note_on_c, 9, 35, 95
4, 15720, Note_on_c, 9, 36, 95
4, 15840, Note_off_c, 9, 53, 80
4, 15840, Note_off_c, 9, 35, 80
4, 15840, Note_off_c, 9, 36, 80
4, 15840, Note_on_c, 9, 53, 95
4, 15840, Note_on_c, 9, 57, 95
4, 15840, Note_on_c, 9, 40, 95
4, 15960, Note_off_c, 9, 53, 80
4, 15960, Note_off_c, 9, 57, 80
4, 15960, Note_off_c, 9, 40, 80
4, 15960, Note_on_c, 9, 53, 95
4, 15960, Note_on_c, 9, 36, 95
4, 15960, Note_on_c, 9, 35, 95
4, 16080, Note_off_c, 9, 53, 80
4, 16080, Note_off_c, 9, 36, 80
4, 16080, Note_off_c, 9, 35, 80
4, 16080, Note_on_c, 9, 53, 95
4, 16080, Note_on_c, 9, 36, 95
4, 16080, Note_on_c, 9, 35, 95
4, 16200, Note_off_c, 9, 53, 80
4, 16200, Note_off_c, 9, 36, 80
4, 16200, Note_off_c, 9, 35, 80
4, 16200, Note_on_c, 9, 53, 95
4, 16200, Note_on_c, 9, 36, 95
4, 16200, Note_on_c, 9, 35, 95
4, 16320, Note_off_c, 9, 53, 80
4, 16320, Note_off_c, 9, 36, 80
4, 16320, Note_off_c, 9, 35, 80
4, 16320, Note_on_c, 9, 53, 95
4, 16320, Note_on_c, 9, 35, 95
4, 16320, Note_on_c, 9, 36, 95
4, 16440, Note_off_c, 9, 53, 80
4, 16440, Note_off_c, 9, 35, 80
4, 16440, Note_off_c, 9, 36, 80
4, 16440, Note_on_c, 9, 53, 95
4, 16440, Note_on_c, 9, 35, 95
4, 16440, Note_on_c, 9, 36, 95
4, 16560, Note_off_c, 9, 53, 80
4, 16560, Note_off_c, 9, 35, 80
4, 16560, Note_off_c, 9, 36, 80
4, 16560, Note_on_c, 9, 53, 95
4, 16560, Note_on_c, 9, 35, 95
4, 16560, Note_on_c, 9, 36, 95
4, 16680, Note_off_c, 9, 53, 80
4, 16680, Note_off_c, 9, 35, 80
4, 16680, Note_off_c, 9, 36, 80
4, 16680, Note_on_c, 9, 53, 95
4, 16680, Note_on_c, 9, 35, 95
4, 16680, Note_on_c, 9, 36, 95
4, 16800, Note_off_c, 9, 53, 80
4, 16800, Note_off_c, 9, 35, 80
4, 16800, Note_off_c, 9, 36, 80
4, 16800, Note_on_c, 9, 53, 95
4, 16800, Note_on_c, 9, 57, 95
4, 16800, Note_on_c, 9, 40, 95
4, 16920, Note_off_c, 9, 53, 80
4, 16920, Note_off_c, 9, 57, 80
4, 16920, Note_off_c, 9, 40, 80
4, 16920, Note_on_c, 9, 53, 95
4, 16920, Note_on_c, 9, 36, 95
4, 16920, Note_on_c, 9, 35, 95
4, 17040, Note_off_c, 9, 53, 80
4, 17040, Note_off_c, 9, 36, 80
4, 17040, Note_off_c, 9, 35, 80
4, 17040, Note_on_c, 9, 53, 95
4, 17040, Note_on_c, 9, 36, 95
4, 17040, Note_on_c, 9, 35, 95
4, 17160, Note_off_c, 9, 53, 80
4, 17160, Note_off_c, 9, 36, 80
4, 17160, Note_off_c, 9, 35, 80
4, 17160, Note_on_c, 9, 53, 95
4, 17160, Note_on_c, 9, 36, 95
4, 17160, Note_on_c, 9, 35, 95
4, 17280, Note_off_c, 9, 53, 80
4, 17280, Note_off_c, 9, 36, 80
4, 17280, Note_off_c, 9, 35, 80
4, 17280, Note_on_c, 9, 53, 95
4, 17280, Note_on_c, 9, 35, 95
4, 17280, Note_on_c, 9, 36, 95
4, 17400, Note_off_c, 9, 53, 80
4, 17400, Note_off_c, 9, 35, 80
4, 17400, Note_off_c, 9, 36, 80
4, 17400, Note_on_c, 9, 53, 95
4, 17400, Note_on_c, 9, 35, 95
4, 17400, Note_on_c, 9, 36, 95
4, 17520, Note_off_c, 9, 53, 80
4, 17520, Note_off_c, 9, 35, 80
4, 17520, Note_off_c, 9, 36, 80
4, 17520, Note_on_c, 9, 53, 95
4, 17520, Note_on_c, 9, 35, 95
4, 17520, Note_on_c, 9, 36, 95
4, 17640, Note_off_c, 9, 53, 80
4, 17640, Note_off_c, 9, 35, 80
4, 17640, Note_off_c, 9, 36, 80
4, 17640, Note_on_c, 9, 53, 95
4, 17640, Note_on_c, 9, 35, 95
4, 17640, Note_on_c, 9, 36, 95
4, 17760, Note_off_c, 9, 53, 80
4, 17760, Note_off_c, 9, 35, 80
4, 17760, Note_off_c, 9, 36, 80
4, 17760, Note_on_c, 9, 53, 95
4, 17760, Note_on_c, 9, 43, 95
4, 17760, Note_on_c, 9, 57, 95
4, 17760, Note_on_c, 9, 40, 95
4, 17880, Note_off_c, 9, 53, 80
4, 17880, Note_off_c, 9, 43, 80
4, 17880, Note_off_c, 9, 57, 80
4, 17880, Note_off_c, 9, 40, 80
4, 17880, Note_on_c, 9, 53, 95
4, 17880, Note_on_c, 9, 43, 95
4, 17880, Note_on_c, 9, 36, 95
4, 17880, Note_on_c, 9, 35, 95
4, 18000, Note_off_c, 9, 53, 80
4, 18000, Note_off_c, 9, 43, 80
4, 18000, Note_off_c, 9, 36, 80
4, 18000, Note_off_c, 9, 35, 80
4, 18000, Note_on_c, 9, 53, 95
4, 18000, Note_on_c, 9, 41, 95
4, 18000, Note_on_c, 9, 36, 95
4, 18000, Note_on_c, 9, 35, 95
4, 18120, Note_off_c, 9, 53, 80
4, 18120, Note_off_c, 9, 41, 80
4, 18120, Note_off_c, 9, 36, 80
4, 18120, Note_off_c, 9, 35, 80
4, 18120, Note_on_c, 9, 53, 95
4, 18120, Note_on_c, 9, 41, 95
4, 18120, Note_on_c, 9, 36, 95
4, 18120, Note_on_c, 9, 35, 95
4, 18240, Note_off_c, 9, 53, 80
4, 18240, Note_off_c, 9, 41, 80
4, 18240, Note_off_c, 9, 36, 80
4, 18240, Note_off_c, 9, 35, 80
4, 18240, Note_on_c, 9, 53, 95
4, 18240, Note_on_c, 9, 45, 95
4, 18240, Note_on_c, 9, 35, 95
4, 18240, Note_on_c, 9, 36, 95
4, 18360, Note_off_c, 9, 53, 80
4, 18360, Note_off_c, 9, 45, 80
4, 18360, Note_off_c, 9, 35, 80
4, 18360, Note_off_c, 9, 36, 80
4, 18360, Note_on_c, 9, 53, 95
4, 18360, Note_on_c, 9, 45, 95
4, 18360, Note_on_c, 9, 35, 95
4, 18360, Note_on_c, 9, 36, 95
4, 18480, Note_off_c, 9, 53, 80
4, 18480, Note_off_c, 9, 45, 80
4, 18480, Note_off_c, 9, 35, 80
4, 18480, Note_off_c, 9, 36, 80
4, 18480, Note_on_c, 9, 53, 95
4, 18480, Note_on_c, 9, 43, 95
4, 18480, Note_on_c, 9, 35, 95
4, 18480, Note_on_c, 9, 36, 95
4, 18600, Note_off_c, 9, 53, 80
4, 18600, Note_off_c, 9, 43, 80
4, 18600, Note_off_c, 9, 35, 80
4, 18600, Note_off_c, 9, 36, 80
4, 18600, Note_on_c, 9, 53, 95
4, 18600, Note_on_c, 9, 43, 95
4, 18600, Note_on_c, 9, 35, 95
4, 18600, Note_on_c, 9, 36, 95
4, 18720, Note_off_c, 9, 53, 80
4, 18720, Note_off_c, 9, 43, 80
4, 18720, Note_off_c, 9, 35, 80
4, 18720, Note_off_c, 9, 36, 80
4, 18720, Note_on_c, 9, 53, 95
4, 18720, Note_on_c, 9, 41, 95
4, 18720, Note_on_c, 9, 57, 95
4, 18720, Note_on_c, 9, 40, 95
4, 18840, Note_off_c, 9, 53, 80
4, 18840, Note_off_c, 9, 41, 80
4, 18840, Note_off_c, 9, 57, 80
4, 18840, Note_off_c, 9, 40, 80
4, 18840, Note_on_c, 9, 53, 95
4, 18840, Note_on_c, 9, 41, 95
4, 18840, Note_on_c, 9, 36, 95
4, 18840, Note_on_c, 9, 40, 95
4, 18960, Note_off_c, 9, 53, 80
4, 18960, Note_off_c, 9, 41, 80
4, 18960, Note_off_c, 9, 36, 80
4, 18960, Note_off_c, 9, 40, 80
4, 18960, Note_on_c, 9, 53, 95
4, 18960, Note_on_c, 9, 35, 95
4, 18960, Note_on_c, 9, 36, 95
4, 18960, Note_on_c, 9, 40, 95
4, 19080, Note_off_c, 9, 53, 80
4, 19080, Note_off_c, 9, 35, 80
4, 19080, Note_off_c, 9, 36, 80
4, 19080, Note_off_c, 9, 40, 80
4, 19080, Note_on_c, 9, 53, 95
4, 19080, Note_on_c, 9, 35, 95
4, 19080, Note_on_c, 9, 36, 95
4, 19080, Note_on_c, 9, 40, 95
4, 19200, Note_off_c, 9, 53, 80
4, 19200, Note_off_c, 9, 35, 80
4, 19200, Note_off_c, 9, 36, 80
4, 19200, Note_off_c, 9, 40, 80
4, 19200, Note_on_c, 9, 35, 95
4, 19200, Note_on_c, 9, 36, 95
4, 19200, Note_on_c, 9, 57, 95
4, 20160, Note_off_c, 9, 35, 80
4, 20160, Note_off_c, 9, 36, 80
4, 20160, Note_off_c, 9, 57, 80
4, 20400, Note_on_c, 9, 36, 95
4, 20400, Note_on_c, 9, 35, 95
4, 20520, Note_off_c, 9, 36, 80
4, 20520, Note_off_c, 9, 35, 80
4, 20640, Note_on_c, 9, 40, 95
4, 20760, Note_off_c, 9, 40, 80
4, 20760, Note_on_c, 9, 40, 95
4, 20880, Note_off_c, 9, 40, 80
4, 20880, Note_on_c, 9, 40, 95
4, 20940, Note_off_c, 9, 40, 80
4, 20940, Note_on_c, 9, 40, 95
4, 21000, Note_off_c, 9, 40, 80
4, 21000, Note_on_c, 9, 40, 95
4, 21060, Note_off_c, 9, 40, 80
4, 21060, Note_on_c, 9, 40, 95
4, 21120, Note_off_c, 9, 40, 80
4, 21120, Note_on_c, 9, 36, 95
4, 21120, Note_on_c, 9, 35, 95
4, 21120, Note_on_c, 9, 46, 95
4, 21120, Note_on_c, 9, 53, 95
4, 21240, Note_off_c, 9, 36, 80
4, 21240, Note_off_c, 9, 35, 80
4, 21240, Note_off_c, 9, 46, 80
4, 21240, Note_off_c, 9, 53, 80
4, 21240, Note_on_c, 9, 36, 95
4, 21240, Note_on_c, 9, 35, 95
4, 21240, Note_on_c, 9, 53, 95
4, 21360, Note_off_c, 9, 36, 80
4, 21360, Note_off_c, 9, 35, 80
4, 21360, Note_off_c, 9, 53, 80
4, 21360, Note_on_c, 9, 40, 95
4, 21360, Note_on_c, 9, 46, 95
4, 21360, Note_on_c, 9, 53, 95
4, 21480, Note_off_c, 9, 40, 80
4, 21480, Note_off_c, 9, 46, 80
4, 21480, Note_off_c, 9, 53, 80
4, 21480, Note_on_c, 9, 36, 95
4, 21480, Note_on_c, 9, 35, 95
4, 21480, Note_on_c, 9, 53, 95
4, 21600, Note_off_c, 9, 36, 80
4, 21600, Note_off_c, 9, 35, 80
4, 21600, Note_off_c, 9, 53, 80
4, 21600, Note_on_c, 9, 36, 95
4, 21600, Note_on_c, 9, 35, 95
4, 21600, Note_on_c, 9, 46, 95
4, 21600, Note_on_c, 9, 53, 95
4, 21720, Note_off_c, 9, 36, 80
4, 21720, Note_off_c, 9, 35, 80
4, 21720, Note_off_c, 9, 46, 80
4, 21720, Note_off_c, 9, 53, 80
4, 21720, Note_on_c, 9, 36, 95
4, 21720, Note_on_c, 9, 35, 95
4, 21720, Note_on_c, 9, 53, 95
4, 21840, Note_off_c, 9, 36, 80
4, 21840, Note_off_c, 9, 35, 80
4, 21840, Note_off_c, 9, 53, 80
4, 21840, Note_on_c, 9, 40, 95
4, 21840, Note_on_c, 9, 46, 95
4, 21840, Note_on_c, 9, 53, 95
4, 21960, Note_off_c, 9, 40, 80
4, 21960, Note_off_c, 9, 46, 80
4, 21960, Note_off_c, 9, 53, 80
4, 21960, Note_on_c, 9, 36, 95
4, 21960, Note_on_c, 9, 35, 95
4, 21960, Note_on_c, 9, 53, 95
4, 22080, Note_off_c, 9, 36, 80
4, 22080, Note_off_c, 9, 35, 80
4, 22080, Note_off_c, 9, 53, 80
4, 22080, Note_on_c, 9, 36, 95
4, 22080, Note_on_c, 9, 35, 95
4, 22080, Note_on_c, 9, 46, 95
4, 22080, Note_on_c, 9, 53, 95
4, 22200, Note_off_c, 9, 36, 80
4, 22200, Note_off_c, 9, 35, 80
4, 22200, Note_off_c, 9, 46, 80
4, 22200, Note_off_c, 9, 53, 80
4, 22200, Note_on_c, 9, 36, 95
4, 22200, Note_on_c, 9, 35, 95
4, 22200, Note_on_c, 9, 53, 95
4, 22320, Note_off_c, 9, 36, 80
4, 22320, Note_off_c, 9, 35, 80
4, 22320, Note_off_c, 9, 53, 80
4, 22320, Note_on_c, 9, 40, 95
4, 22320, Note_on_c, 9, 46, 95
4, 22320, Note_on_c, 9, 53, 95
4, 22440, Note_off_c, 9, 40, 80
4, 22440, Note_off_c, 9, 46, 80
4, 22440, Note_off_c, 9, 53, 80
4, 22440, Note_on_c, 9, 36, 95
4, 22440, Note_on_c, 9, 35, 95
4, 22440, Note_on_c, 9, 53, 95
4, 22560, Note_off_c, 9, 36, 80
4, 22560, Note_off_c, 9, 35, 80
4, 22560, Note_off_c, 9, 53, 80
4, 22560, Note_on_c, 9, 36, 95
4, 22560, Note_on_c, 9, 35, 95
4, 22560, Note_on_c, 9, 46, 95
4, 22560, Note_on_c, 9, 53, 95
4, 22680, Note_off_c, 9, 36, 80
4, 22680, Note_off_c, 9, 35, 80
4, 22680, Note_off_c, 9, 46, 80
4, 22680, Note_off_c, 9, 53, 80
4, 22680, Note_on_c, 9, 36, 95
4, 22680, Note_on_c, 9, 35, 95
4, 22680, Note_on_c, 9, 53, 95
4, 22800, Note_off_c, 9, 36, 80
4, 22800, Note_off_c, 9, 35, 80
4, 22800, Note_off_c, 9, 53, 80
4, 22800, Note_on_c, 9, 40, 95
4, 22800, Note_on_c, 9, 46, 95
4, 22800, Note_on_c, 9, 53, 95
4, 22920, Note_off_c, 9, 40, 80
4, 22920, Note_off_c, 9, 46, 80
4, 22920, Note_off_c, 9, 53, 80
4, 22920, Note_on_c, 9, 36, 95
4, 22920, Note_on_c, 9, 35, 95
4, 22920, Note_on_c, 9, 53, 95
4, 23040, Note_off_c, 9, 36, 80
4, 23040, Note_off_c, 9, 35, 80
4, 23040, Note_off_c, 9, 53, 80
4, 23040, Note_on_c, 9, 36, 95
4, 23040, Note_on_c, 9, 35, 95
4, 23040, Note_on_c, 9, 53, 95
4, 23160, Note_off_c, 9, 36, 80
4, 23160, Note_off_c, 9, 35, 80
4, 23160, Note_off_c, 9, 53, 80
4, 23160, Note_on_c, 9, 36, 95
4, 23160, Note_on_c, 9, 35, 95
4, 23160, Note_on_c, 9, 53, 95
4, 23280, Note_off_c, 9, 36, 80
4, 23280, Note_off_c, 9, 35, 80
4, 23280, Note_off_c, 9, 53, 80
4, 23280, Note_on_c, 9, 40, 95
4, 23280, Note_on_c, 9, 57, 95
4, 23280, Note_on_c, 9, 53, 95
4, 23400, Note_off_c, 9, 40, 80
4, 23400, Note_off_c, 9, 57, 80
4, 23400, Note_off_c, 9, 53, 80
4, 23400, Note_on_c, 9, 53, 95
4, 23520, Note_off_c, 9, 53, 80
4, 23520, Note_on_c, 9, 36, 95
4, 23520, Note_on_c, 9, 35, 95
4, 23520, Note_on_c, 9, 53, 95
4, 23640, Note_off_c, 9, 36, 80
4, 23640, Note_off_c, 9, 35, 80
4, 23640, Note_off_c, 9, 53, 80
4, 23640, Note_on_c, 9, 36, 95
4, 23640, Note_on_c, 9, 35, 95
4, 23640, Note_on_c, 9, 53, 95
4, 23760, Note_off_c, 9, 36, 80
4, 23760, Note_off_c, 9, 35, 80
4, 23760, Note_off_c, 9, 53, 80
4, 23760, Note_on_c, 9, 40, 95
4, 23760, Note_on_c, 9, 55, 95
4, 23760, Note_on_c, 9, 53, 95
4, 23880, Note_off_c, 9, 40, 80
4, 23880, Note_off_c, 9, 55, 80
4, 23880, Note_off_c, 9, 53, 80
4, 23880, Note_on_c, 9, 36, 95
4, 23880, Note_on_c, 9, 35, 95
4, 23880, Note_on_c, 9, 53, 95
4, 24000, Note_off_c, 9, 36, 80
4, 24000, Note_off_c, 9, 35, 80
4, 24000, Note_off_c, 9, 53, 80
4, 24000, Note_on_c, 9, 36, 95
4, 24000, Note_on_c, 9, 35, 95
4, 24000, Note_on_c, 9, 53, 95
4, 24120, Note_off_c, 9, 36, 80
4, 24120, Note_off_c, 9, 35, 80
4, 24120, Note_off_c, 9, 53, 80
4, 24120, Note_on_c, 9, 36, 95
4, 24120, Note_on_c, 9, 35, 95
4, 24120, Note_on_c, 9, 53, 95
4, 24240, Note_off_c, 9, 36, 80
4, 24240, Note_off_c, 9, 35, 80
4, 24240, Note_off_c, 9, 53, 80
4, 24240, Note_on_c, 9, 40, 95
4, 24240, Note_on_c, 9, 57, 95
4, 24240, Note_on_c, 9, 53, 95
4, 24360, Note_off_c, 9, 40, 80
4, 24360, Note_off_c, 9, 57, 80
4, 24360, Note_off_c, 9, 53, 80
4, 24360, Note_on_c, 9, 36, 95
4, 24360, Note_on_c, 9, 35, 95
4, 24360, Note_on_c, 9, 53, 95
4, 24480, Note_off_c, 9, 36, 80
4, 24480, Note_off_c, 9, 35, 80
4, 24480, Note_off_c, 9, 53, 80
4, 24480, Note_on_c, 9, 36, 95
4, 24480, Note_on_c, 9, 35, 95
4, 24480, Note_on_c, 9, 53, 95
4, 24600, Note_off_c, 9, 36, 80
4, 24600, Note_off_c, 9, 35, 80
4, 24600, Note_off_c, 9, 53, 80
4, 24600, Note_on_c, 9, 36, 95
4, 24600, Note_on_c, 9, 35, 95
4, 24600, Note_on_c, 9, 53, 95
4, 24720, Note_off_c, 9, 36, 80
4, 24720, Note_off_c, 9, 35, 80
4, 24720, Note_off_c, 9, 53, 80
4, 24720, Note_on_c, 9, 40, 95
4, 24720, Note_on_c, 9, 55, 95
4, 24720, Note_on_c, 9, 53, 95
4, 24840, Note_off_c, 9, 40, 80
4, 24840, Note_off_c, 9, 55, 80
4, 24840, Note_off_c, 9, 53, 80
4, 24840, Note_on_c, 9, 36, 95
4, 24840, Note_on_c, 9, 35, 95
4, 24840, Note_on_c, 9, 53, 95
4, 24960, Note_off_c, 9, 36, 80
4, 24960, Note_off_c, 9, 35, 80
4, 24960, Note_off_c, 9, 53, 80
4, 24960, Note_on_c, 9, 36, 95
4, 24960, Note_on_c, 9, 35, 95
4, 24960, Note_on_c, 9, 46, 95
4, 24960, Note_on_c, 9, 53, 95
4, 25080, Note_off_c, 9, 36, 80
4, 25080, Note_off_c, 9, 35, 80
4, 25080, Note_off_c, 9, 46, 80
4, 25080, Note_off_c, 9, 53, 80
4, 25080, Note_on_c, 9, 36, 95
4, 25080, Note_on_c, 9, 35, 95
4, 25080, Note_on_c, 9, 53, 95
4, 25200, Note_off_c, 9, 36, 80
4, 25200, Note_off_c, 9, 35, 80
4, 25200, Note_off_c, 9, 53, 80
4, 25200, Note_on_c, 9, 40, 95
4, 25200, Note_on_c, 9, 57, 95
4, 25200, Note_on_c, 9, 46, 95
4, 25200, Note_on_c, 9, 53, 95
4, 25320, Note_off_c, 9, 40, 80
4, 25320, Note_off_c, 9, 57, 80
4, 25320, Note_off_c, 9, 46, 80
4, 25320, Note_off_c, 9, 53, 80
4, 25320, Note_on_c, 9, 53, 95
4, 25440, Note_off_c, 9, 53, 80
4, 25440, Note_on_c, 9, 36, 95
4, 25440, Note_on_c, 9, 35, 95
4, 25440, Note_on_c, 9, 46, 95
4, 25440, Note_on_c, 9, 53, 95
4, 25560, Note_off_c, 9, 36, 80
4, 25560, Note_off_c, 9, 35, 80
4, 25560, Note_off_c, 9, 46, 80
4, 25560, Note_off_c, 9, 53, 80
4, 25560, Note_on_c, 9, 36, 95
4, 25560, Note_on_c, 9, 35, 95
4, 25560, Note_on_c, 9, 53, 95
4, 25680, Note_off_c, 9, 36, 80
4, 25680, Note_off_c, 9, 35, 80
4, 25680, Note_off_c, 9, 53, 80
4, 25680, Note_on_c, 9, 40, 95
4, 25680, Note_on_c, 9, 55, 95
4, 25680, Note_on_c, 9, 46, 95
4, 25680, Note_on_c, 9, 53, 95
4, 25800, Note_off_c, 9, 40, 80
4, 25800, Note_off_c, 9, 55, 80
4, 25800, Note_off_c, 9, 46, 80
4, 25800, Note_off_c, 9, 53, 80
4, 25800, Note_on_c, 9, 36, 95
4, 25800, Note_on_c, 9, 35, 95
4, 25800, Note_on_c, 9, 53, 95
4, 25920, Note_off_c, 9, 36, 80
4, 25920, Note_off_c, 9, 35, 80
4, 25920, Note_off_c, 9, 53, 80
4, 25920, Note_on_c, 9, 36, 95
4, 25920, Note_on_c, 9, 35, 95
4, 25920, Note_on_c, 9, 46, 95
4, 25920, Note_on_c, 9, 53, 95
4, 26040, Note_off_c, 9, 36, 80
4, 26040, Note_off_c, 9, 35, 80
4, 26040, Note_off_c, 9, 46, 80
4, 26040, Note_off_c, 9, 53, 80
4, 26040, Note_on_c, 9, 36, 95
4, 26040, Note_on_c, 9, 35, 95
4, 26040, Note_on_c, 9, 53, 95
4, 26160, Note_off_c, 9, 36, 80
4, 26160, Note_off_c, 9, 35, 80
4, 26160, Note_off_c, 9, 53, 80
4, 26160, Note_on_c, 9, 40, 95
4, 26160, Note_on_c, 9, 57, 95
4, 26160, Note_on_c, 9, 46, 95
4, 26160, Note_on_c, 9, 53, 95
4, 26280, Note_off_c, 9, 40, 80
4, 26280, Note_off_c, 9, 57, 80
4, 26280, Note_off_c, 9, 46, 80
4, 26280, Note_off_c, 9, 53, 80
4, 26280, Note_on_c, 9, 36, 95
4, 26280, Note_on_c, 9, 35, 95
4, 26280, Note_on_c, 9, 53, 95
4, 26400, Note_off_c, 9, 36, 80
4, 26400, Note_off_c, 9, 35, 80
4, 26400, Note_off_c, 9, 53, 80
4, 26400, Note_on_c, 9, 40, 95
4, 26400, Note_on_c, 9, 49, 95
4, 26400, Note_on_c, 9, 46, 95
4, 26400, Note_on_c, 9, 53, 95
4, 26520, Note_off_c, 9, 40, 80
4, 26520, Note_off_c, 9, 49, 80
4, 26520, Note_off_c, 9, 46, 80
4, 26520, Note_off_c, 9, 53, 80
4, 26520, Note_on_c, 9, 36, 95
4, 26520, Note_on_c, 9, 35, 95
4, 26520, Note_on_c, 9, 53, 95
4, 26640, Note_off_c, 9, 36, 80
4, 26640, Note_off_c, 9, 35, 80
4, 26640, Note_off_c, 9, 53, 80
4, 26640, Note_on_c, 9, 40, 95
4, 26640, Note_on_c, 9, 55, 95
4, 26640, Note_on_c, 9, 46, 95
4, 26640, Note_on_c, 9, 53, 95
4, 26760, Note_off_c, 9, 40, 80
4, 26760, Note_off_c, 9, 55, 80
4, 26760, Note_off_c, 9, 46, 80
4, 26760, Note_off_c, 9, 53, 80
4, 26760, Note_on_c, 9, 36, 95
4, 26760, Note_on_c, 9, 35, 95
4, 26760, Note_on_c, 9, 53, 95
4, 26880, Note_off_c, 9, 36, 80
4, 26880, Note_off_c, 9, 35, 80
4, 26880, Note_off_c, 9, 53, 80
4, 26880, Note_on_c, 9, 36, 95
4, 26880, Note_on_c, 9, 35, 95
4, 26880, Note_on_c, 9, 46, 95
4, 26880, Note_on_c, 9, 53, 95
4, 27000, Note_off_c, 9, 36, 80
4, 27000, Note_off_c, 9, 35, 80
4, 27000, Note_off_c, 9, 46, 80
4, 27000, Note_off_c, 9, 53, 80
4, 27000, Note_on_c, 9, 36, 95
4, 27000, Note_on_c, 9, 35, 95
4, 27000, Note_on_c, 9, 53, 95
4, 27120, Note_off_c, 9, 36, 80
4, 27120, Note_off_c, 9, 35, 80
4, 27120, Note_off_c, 9, 53, 80
4, 27120, Note_on_c, 9, 40, 95
4, 27120, Note_on_c, 9, 57, 95
4, 27120, Note_on_c, 9, 46, 95
4, 27120, Note_on_c, 9, 53, 95
4, 27240, Note_off_c, 9, 40, 80
4, 27240, Note_off_c, 9, 57, 80
4, 27240, Note_off_c, 9, 46, 80
4, 27240, Note_off_c, 9, 53, 80
4, 27240, Note_on_c, 9, 36, 95
4, 27240, Note_on_c, 9, 35, 95
4, 27240, Note_on_c, 9, 53, 95
4, 27360, Note_off_c, 9, 36, 80
4, 27360, Note_off_c, 9, 35, 80
4, 27360, Note_off_c, 9, 53, 80
4, 27360, Note_on_c, 9, 36, 95
4, 27360, Note_on_c, 9, 35, 95
4, 27360, Note_on_c, 9, 46, 95
4, 27360, Note_on_c, 9, 53, 95
4, 27480, Note_off_c, 9, 36, 80
4, 27480, Note_off_c, 9, 35, 80
4, 27480, Note_off_c, 9, 46, 80
4, 27480, Note_off_c, 9, 53, 80
4, 27480, Note_on_c, 9, 36, 95
4, 27480, Note_on_c, 9, 35, 95
4, 27480, Note_on_c, 9, 53, 95
4, 27600, Note_off_c, 9, 36, 80
4, 27600, Note_off_c, 9, 35, 80
4, 27600, Note_off_c, 9, 53, 80
4, 27600, Note_on_c, 9, 40, 95
4, 27600, Note_on_c, 9, 46, 95
4, 27600, Note_on_c, 9, 53, 95
4, 27720, Note_off_c, 9, 40, 80
4, 27720, Note_off_c, 9, 46, 80
4, 27720, Note_off_c, 9, 53, 80
4, 27720, Note_on_c, 9, 36, 95
4, 27720, Note_on_c, 9, 35, 95
4, 27720, Note_on_c, 9, 53, 95
4, 27840, Note_off_c, 9, 36, 80
4, 27840, Note_off_c, 9, 35, 80
4, 27840, Note_off_c, 9, 53, 80
4, 27840, Note_on_c, 9, 36, 95
4, 27840, Note_on_c, 9, 35, 95
4, 27840, Note_on_c, 9, 46, 95
4, 27840, Note_on_c, 9, 53, 95
4, 27960, Note_off_c, 9, 36, 80
4, 27960, Note_off_c, 9, 35, 80
4, 27960, Note_off_c, 9, 46, 80
4, 27960, Note_off_c, 9, 53, 80
4, 27960, Note_on_c, 9, 36, 95
4, 27960, Note_on_c, 9, 35, 95
4, 27960, Note_on_c, 9, 53, 95
4, 28080, Note_off_c, 9, 36, 80
4, 28080, Note_off_c, 9, 35, 80
4, 28080, Note_off_c, 9, 53, 80
4, 28080, Note_on_c, 9, 40, 95
4, 28080, Note_on_c, 9, 49, 95
4, 28080, Note_on_c, 9, 46, 95
4, 28080, Note_on_c, 9, 53, 95
4, 28200, Note_off_c, 9, 40, 80
4, 28200, Note_off_c, 9, 49, 80
4, 28200, Note_off_c, 9, 46, 80
4, 28200, Note_off_c, 9, 53, 80
4, 28200, Note_on_c, 9, 36, 95
4, 28200, Note_on_c, 9, 35, 95
4, 28200, Note_on_c, 9, 53, 95
4, 28260, Note_off_c, 9, 36, 80
4, 28260, Note_off_c, 9, 35, 80
4, 28260, Note_off_c, 9, 53, 80
4, 28260, Note_on_c, 9, 36, 95
4, 28260, Note_on_c, 9, 35, 95
4, 28320, Note_off_c, 9, 36, 80
4, 28320, Note_off_c, 9, 35, 80
4, 28320, Note_on_c, 9, 36, 95
4, 28320, Note_on_c, 9, 35, 95
4, 28320, Note_on_c, 9, 46, 95
4, 28320, Note_on_c, 9, 53, 95
4, 28380, Note_off_c, 9, 36, 80
4, 28380, Note_off_c, 9, 35, 80
4, 28380, Note_off_c, 9, 46, 80
4, 28380, Note_off_c, 9, 53, 80
4, 28380, Note_on_c, 9, 36, 95
4, 28380, Note_on_c, 9, 35, 95
4, 28440, Note_off_c, 9, 36, 80
4, 28440, Note_off_c, 9, 35, 80
4, 28440, Note_on_c, 9, 36, 95
4, 28440, Note_on_c, 9, 35, 95
4, 28440, Note_on_c, 9, 53, 95
4, 28500, Note_off_c, 9, 36, 80
4, 28500, Note_off_c, 9, 35, 80
4, 28500, Note_off_c, 9, 53, 80
4, 28500, Note_on_c, 9, 36, 95
4, 28500, Note_on_c, 9, 35, 95
4, 28560, Note_off_c, 9, 36, 80
4, 28560, Note_off_c, 9, 35, 80
4, 28560, Note_on_c, 9, 36, 95
4, 28560, Note_on_c, 9, 35, 95
4, 28560, Note_on_c, 9, 46, 95
4, 28560, Note_on_c, 9, 40, 95
4, 28560, Note_on_c, 9, 53, 95
4, 28620, Note_off_c, 9, 36, 80
4, 28620, Note_off_c, 9, 35, 80
4, 28620, Note_off_c, 9, 46, 80
4, 28620, Note_off_c, 9, 40, 80
4, 28620, Note_off_c, 9, 53, 80
4, 28620, Note_on_c, 9, 36, 95
4, 28620, Note_on_c, 9, 35, 95
4, 28680, Note_off_c, 9, 36, 80
4, 28680, Note_off_c, 9, 35, 80
4, 28680, Note_on_c, 9, 36, 95
4, 28680, Note_on_c, 9, 35, 95
4, 28680, Note_on_c, 9, 53, 95
4, 28740, Note_off_c, 9, 36, 80
4, 28740, Note_off_c, 9, 35, 80
4, 28740, Note_off_c, 9, 53, 80
4, 28740, Note_on_c, 9, 36, 95
4, 28740, Note_on_c, 9, 35, 95
4, 28800, Note_off_c, 9, 36, 80
4, 28800, Note_off_c, 9, 35, 80
4, 28800, Note_on_c, 9, 36, 95
4, 28800, Note_on_c, 9, 35, 95
4, 28800, Note_on_c, 9, 46, 95
4, 28800, Note_on_c, 9, 57, 95
4, 28800, Note_on_c, 9, 53, 95
4, 28800, Note_on_c, 9, 49, 95
4, 28920, Note_off_c, 9, 36, 80
4, 28920, Note_off_c, 9, 35, 80
4, 28920, Note_off_c, 9, 46, 80
4, 28920, Note_off_c, 9, 57, 80
4, 28920, Note_off_c, 9, 53, 80
4, 28920, Note_off_c, 9, 49, 80
4, 28920, Note_on_c, 9, 36, 95
4, 28920, Note_on_c, 9, 35, 95
4, 28920, Note_on_c, 9, 53, 95
4, 29040, Note_off_c, 9, 36, 80
4, 29040, Note_off_c, 9, 35, 80
4, 29040, Note_off_c, 9, 53, 80
4, 29040, Note_on_c, 9, 40, 95
4, 29040, Note_on_c, 9, 46, 95
4, 29040, Note_on_c, 9, 53, 95
4, 29160, Note_off_c, 9, 40, 80
4, 29160, Note_off_c, 9, 46, 80
4, 29160, Note_off_c, 9, 53, 80
4, 29160, Note_on_c, 9, 36, 95
4, 29160, Note_on_c, 9, 35, 95
4, 29160, Note_on_c, 9, 53, 95
4, 29280, Note_off_c, 9, 36, 80
4, 29280, Note_off_c, 9, 35, 80
4, 29280, Note_off_c, 9, 53, 80
4, 29280, Note_on_c, 9, 36, 95
4, 29280, Note_on_c, 9, 35, 95
4, 29280, Note_on_c, 9, 46, 95
4, 29280, Note_on_c, 9, 53, 95
4, 29400, Note_off_c, 9, 36, 80
4, 29400, Note_off_c, 9, 35, 80
4, 29400, Note_off_c, 9, 46, 80
4, 29400, Note_off_c, 9, 53, 80
4, 29400, Note_on_c, 9, 36, 95
4, 29400, Note_on_c, 9, 35, 95
4, 29400, Note_on_c, 9, 53, 95
4, 29520, Note_off_c, 9, 36, 80
4, 29520, Note_off_c, 9, 35, 80
4, 29520, Note_off_c, 9, 53, 80
4, 29520, Note_on_c, 9, 40, 95
4, 29520, Note_on_c, 9, 46, 95
4, 29520, Note_on_c, 9, 53, 95
4, 29640, Note_off_c, 9, 40, 80
4, 29640, Note_off_c, 9, 46, 80
4, 29640, Note_off_c, 9, 53, 80
4, 29640, Note_on_c, 9, 36, 95
4, 29640, Note_on_c, 9, 35, 95
4, 29640, Note_on_c, 9, 53, 95
4, 29760, Note_off_c, 9, 36, 80
4, 29760, Note_off_c, 9, 35, 80
4, 29760, Note_off_c, 9, 53, 80
4, 29760, Note_on_c, 9, 36, 95
4, 29760, Note_on_c, 9, 35, 95
4, 29760, Note_on_c, 9, 46, 95
4, 29760, Note_on_c, 9, 53, 95
4, 29880, Note_off_c, 9, 36, 80
4, 29880, Note_off_c, 9, 35, 80
4, 29880, Note_off_c, 9, 46, 80
4, 29880, Note_off_c, 9, 53, 80
4, 29880, Note_on_c, 9, 36, 95
4, 29880, Note_on_c, 9, 35, 95
4, 29880, Note_on_c, 9, 53, 95
4, 30000, Note_off_c, 9, 36, 80
4, 30000, Note_off_c, 9, 35, 80
4, 30000, Note_off_c, 9, 53, 80
4, 30000, Note_on_c, 9, 40, 95
4, 30000, Note_on_c, 9, 46, 95
4, 30000, Note_on_c, 9, 53, 95
4, 30120, Note_off_c, 9, 40, 80
4, 30120, Note_off_c, 9, 46, 80
4, 30120, Note_off_c, 9, 53, 80
4, 30120, Note_on_c, 9, 36, 95
4, 30120, Note_on_c, 9, 35, 95
4, 30120, Note_on_c, 9, 53, 95
4, 30240, Note_off_c, 9, 36, 80
4, 30240, Note_off_c, 9, 35, 80
4, 30240, Note_off_c, 9, 53, 80
4, 30240, Note_on_c, 9, 36, 95
4, 30240, Note_on_c, 9, 35, 95
4, 30240, Note_on_c, 9, 46, 95
4, 30240, Note_on_c, 9, 53, 95
4, 30360, Note_off_c, 9, 36, 80
4, 30360, Note_off_c, 9, 35, 80
4, 30360, Note_off_c, 9, 46, 80
4, 30360, Note_off_c, 9, 53, 80
4, 30360, Note_on_c, 9, 36, 95
4, 30360, Note_on_c, 9, 35, 95
4, 30360, Note_on_c, 9, 53, 95
4, 30480, Note_off_c, 9, 36, 80
4, 30480, Note_off_c, 9, 35, 80
4, 30480, Note_off_c, 9, 53, 80
4, 30480, Note_on_c, 9, 40, 95
4, 30480, Note_on_c, 9, 46, 95
4, 30480, Note_on_c, 9, 53, 95
4, 30600, Note_off_c, 9, 40, 80
4, 30600, Note_off_c, 9, 46, 80
4, 30600, Note_off_c, 9, 53, 80
4, 30600, Note_on_c, 9, 36, 95
4, 30600, Note_on_c, 9, 35, 95
4, 30600, Note_on_c, 9, 53, 95
4, 30720, Note_off_c, 9, 36, 80
4, 30720, Note_off_c, 9, 35, 80
4, 30720, Note_off_c, 9, 53, 80
4, 30720, Note_on_c, 9, 36, 95
4, 30720, Note_on_c, 9, 35, 95
4, 30720, Note_on_c, 9, 53, 95
4, 30840, Note_off_c, 9, 36, 80
4, 30840, Note_off_c, 9, 35, 80
4, 30840, Note_off_c, 9, 53, 80
4, 30840, Note_on_c, 9, 36, 95
4, 30840, Note_on_c, 9, 35, 95
4, 30840, Note_on_c, 9, 53, 95
4, 30960, Note_off_c, 9, 36, 80
4, 30960, Note_off_c, 9, 35, 80
4, 30960, Note_off_c, 9, 53, 80
4, 30960, Note_on_c, 9, 40, 95
4, 30960, Note_on_c, 9, 57, 95
4, 30960, Note_on_c, 9, 53, 95
4, 31080, Note_off_c, 9, 40, 80
4, 31080, Note_off_c, 9, 57, 80
4, 31080, Note_off_c, 9, 53, 80
4, 31080, Note_on_c, 9, 53, 95
4, 31200, Note_off_c, 9, 53, 80
4, 31200, Note_on_c, 9, 36, 95
4, 31200, Note_on_c, 9, 35, 95
4, 31200, Note_on_c, 9, 53, 95
4, 31320, Note_off_c, 9, 36, 80
4, 31320, Note_off_c, 9, 35, 80
4, 31320, Note_off_c, 9, 53, 80
4, 31320, Note_on_c, 9, 36, 95
4, 31320, Note_on_c, 9, 35, 95
4, 31320, Note_on_c, 9, 53, 95
4, 31440, Note_off_c, 9, 36, 80
4, 31440, Note_off_c, 9, 35, 80
4, 31440, Note_off_c, 9, 53, 80
4, 31440, Note_on_c, 9, 40, 95
4, 31440, Note_on_c, 9, 55, 95
4, 31440, Note_on_c, 9, 53, 95
4, 31560, Note_off_c, 9, 40, 80
4, 31560, Note_off_c, 9, 55, 80
4, 31560, Note_off_c, 9, 53, 80
4, 31560, Note_on_c, 9, 36, 95
4, 31560, Note_on_c, 9, 35, 95
4, 31560, Note_on_c, 9, 53, 95
4, 31680, Note_off_c, 9, 36, 80
4, 31680, Note_off_c, 9, 35, 80
4, 31680, Note_off_c, 9, 53, 80
4, 31680, Note_on_c, 9, 36, 95
4, 31680, Note_on_c, 9, 35, 95
4, 31680, Note_on_c, 9, 53, 95
4, 31800, Note_off_c, 9, 36, 80
4, 31800, Note_off_c, 9, 35, 80
4, 31800, Note_off_c, 9, 53, 80
4, 31800, Note_on_c, 9, 36, 95
4, 31800, Note_on_c, 9, 35, 95
4, 31800, Note_on_c, 9, 53, 95
4, 31920, Note_off_c, 9, 36, 80
4, 31920, Note_off_c, 9, 35, 80
4, 31920, Note_off_c, 9, 53, 80
4, 31920, Note_on_c, 9, 40, 95
4, 31920, Note_on_c, 9, 57, 95
4, 31920, Note_on_c, 9, 53, 95
4, 32040, Note_off_c, 9, 40, 80
4, 32040, Note_off_c, 9, 57, 80
4, 32040, Note_off_c, 9, 53, 80
4, 32040, Note_on_c, 9, 36, 95
4, 32040, Note_on_c, 9, 35, 95
4, 32040, Note_on_c, 9, 53, 95
4, 32160, Note_off_c, 9, 36, 80
4, 32160, Note_off_c, 9, 35, 80
4, 32160, Note_off_c, 9, 53, 80
4, 32160, Note_on_c, 9, 36, 95
4, 32160, Note_on_c, 9, 35, 95
4, 32160, Note_on_c, 9, 53, 95
4, 32280, Note_off_c, 9, 36, 80
4, 32280, Note_off_c, 9, 35, 80
4, 32280, Note_off_c, 9, 53, 80
4, 32280, Note_on_c, 9, 36, 95
4, 32280, Note_on_c, 9, 35, 95
4, 32280, Note_on_c, 9, 53, 95
4, 32400, Note_off_c, 9, 36, 80
4, 32400, Note_off_c, 9, 35, 80
4, 32400, Note_off_c, 9, 53, 80
4, 32400, Note_on_c, 9, 40, 95
4, 32400, Note_on_c, 9, 55, 95
4, 32400, Note_on_c, 9, 53, 95
4, 32520, Note_off_c, 9, 40, 80
4, 32520, Note_off_c, 9, 55, 80
4, 32520, Note_off_c, 9, 53, 80
4, 32520, Note_on_c, 9, 36, 95
4, 32520, Note_on_c, 9, 35, 95
4, 32520, Note_on_c, 9, 53, 95
4, 32640, Note_off_c, 9, 36, 80
4, 32640, Note_off_c, 9, 35, 80
4, 32640, Note_off_c, 9, 53, 80
4, 32640, Note_on_c, 9, 36, 95
4, 32640, Note_on_c, 9, 35, 95
4, 32640, Note_on_c, 9, 46, 95
4, 32640, Note_on_c, 9, 53, 95
4, 32760, Note_off_c, 9, 36, 80
4, 32760, Note_off_c, 9, 35, 80
4, 32760, Note_off_c, 9, 46, 80
4, 32760, Note_off_c, 9, 53, 80
4, 32760, Note_on_c, 9, 36, 95
4, 32760, Note_on_c, 9, 35, 95
4, 32760, Note_on_c, 9, 53, 95
4, 32880, Note_off_c, 9, 36, 80
4, 32880, Note_off_c, 9, 35, 80
4, 32880, Note_off_c, 9, 53, 80
4, 32880, Note_on_c, 9, 40, 95
4, 32880, Note_on_c, 9, 57, 95
4, 32880, Note_on_c, 9, 46, 95
4, 32880, Note_on_c, 9, 53, 95
4, 33000, Note_off_c, 9, 40, 80
4, 33000, Note_off_c, 9, 57, 80
4, 33000, Note_off_c, 9, 46, 80
4, 33000, Note_off_c, 9, 53, 80
4, 33000, Note_on_c, 9, 53, 95
4, 33120, Note_off_c, 9, 53, 80
4, 33120, Note_on_c, 9, 36, 95
4, 33120, Note_on_c, 9, 35, 95
4, 33120, Note_on_c, 9, 46, 95
4, 33120, Note_on_c, 9, 53, 95
4, 33240, Note_off_c, 9, 36, 80
4, 33240, Note_off_c, 9, 35, 80
4, 33240, Note_off_c, 9, 46, 80
4, 33240, Note_off_c, 9, 53, 80
4, 33240, Note_on_c, 9, 36, 95
4, 33240, Note_on_c, 9, 35, 95
4, 33240, Note_on_c, 9, 53, 95
4, 33360, Note_off_c, 9, 36, 80
4, 33360, Note_off_c, 9, 35, 80
4, 33360, Note_off_c, 9, 53, 80
4, 33360, Note_on_c, 9, 40, 95
4, 33360, Note_on_c, 9, 55, 95
4, 33360, Note_on_c, 9, 46, 95
4, 33360, Note_on_c, 9, 53, 95
4, 33480, Note_off_c, 9, 40, 80
4, 33480, Note_off_c, 9, 55, 80
4, 33480, Note_off_c, 9, 46, 80
4, 33480, Note_off_c, 9, 53, 80
4, 33480, Note_on_c, 9, 36, 95
4, 33480, Note_on_c, 9, 35, 95
4, 33480, Note_on_c, 9, 53, 95
4, 33600, Note_off_c, 9, 36, 80
4, 33600, Note_off_c, 9, 35, 80
4, 33600, Note_off_c, 9, 53, 80
4, 33600, Note_on_c, 9, 36, 95
4, 33600, Note_on_c, 9, 35, 95
4, 33600, Note_on_c, 9, 46, 95
4, 33600, Note_on_c, 9, 53, 95
4, 33720, Note_off_c, 9, 36, 80
4, 33720, Note_off_c, 9, 35, 80
4, 33720, Note_off_c, 9, 46, 80
4, 33720, Note_off_c, 9, 53, 80
4, 33720, Note_on_c, 9, 36, 95
4, 33720, Note_on_c, 9, 35, 95
4, 33720, Note_on_c, 9, 53, 95
4, 33840, Note_off_c, 9, 36, 80
4, 33840, Note_off_c, 9, 35, 80
4, 33840, Note_off_c, 9, 53, 80
4, 33840, Note_on_c, 9, 40, 95
4, 33840, Note_on_c, 9, 57, 95
4, 33840, Note_on_c, 9, 46, 95
4, 33840, Note_on_c, 9, 53, 95
4, 33960, Note_off_c, 9, 40, 80
4, 33960, Note_off_c, 9, 57, 80
4, 33960, Note_off_c, 9, 46, 80
4, 33960, Note_off_c, 9, 53, 80
4, 33960, Note_on_c, 9, 36, 95
4, 33960, Note_on_c, 9, 35, 95
4, 33960, Note_on_c, 9, 53, 95
4, 34080, Note_off_c, 9, 36, 80
4, 34080, Note_off_c, 9, 35, 80
4, 34080, Note_off_c, 9, 53, 80
4, 34080, Note_on_c, 9, 40, 95
4, 34080, Note_on_c, 9, 49, 95
4, 34080, Note_on_c, 9, 46, 95
4, 34080, Note_on_c, 9, 53, 95
4, 34200, Note_off_c, 9, 40, 80
4, 34200, Note_off_c, 9, 49, 80
4, 34200, Note_off_c, 9, 46, 80
4, 34200, Note_off_c, 9, 53, 80
4, 34200, Note_on_c, 9, 36, 95
4, 34200, Note_on_c, 9, 35, 95
4, 34200, Note_on_c, 9, 53, 95
4, 34320, Note_off_c, 9, 36, 80
4, 34320, Note_off_c, 9, 35, 80
4, 34320, Note_off_c, 9, 53, 80
4, 34320, Note_on_c, 9, 40, 95
4, 34320, Note_on_c, 9, 55, 95
4, 34320, Note_on_c, 9, 46, 95
4, 34320, Note_on_c, 9, 53, 95
4, 34440, Note_off_c, 9, 40, 80
4, 34440, Note_off_c, 9, 55, 80
4, 34440, Note_off_c, 9, 46, 80
4, 34440, Note_off_c, 9, 53, 80
4, 34440, Note_on_c, 9, 36, 95
4, 34440, Note_on_c, 9, 35, 95
4, 34440, Note_on_c, 9, 53, 95
4, 34560, Note_off_c, 9, 36, 80
4, 34560, Note_off_c, 9, 35, 80
4, 34560, Note_off_c, 9, 53, 80
4, 34560, Note_on_c, 9, 36, 95
4, 34560, Note_on_c, 9, 35, 95
4, 34560, Note_on_c, 9, 46, 95
4, 34560, Note_on_c, 9, 53, 95
4, 34680, Note_off_c, 9, 36, 80
4, 34680, Note_off_c, 9, 35, 80
4, 34680, Note_off_c, 9, 46, 80
4, 34680, Note_off_c, 9, 53, 80
4, 34680, Note_on_c, 9, 36, 95
4, 34680, Note_on_c, 9, 35, 95
4, 34680, Note_on_c, 9, 53, 95
4, 34800, Note_off_c, 9, 36, 80
4, 34800, Note_off_c, 9, 35, 80
4, 34800, Note_off_c, 9, 53, 80
4, 34800, Note_on_c, 9, 40, 95
4, 34800, Note_on_c, 9, 57, 95
4, 34800, Note_on_c, 9, 46, 95
4, 34800, Note_on_c, 9, 53, 95
4, 34920, Note_off_c, 9, 40, 80
4, 34920, Note_off_c, 9, 57, 80
4, 34920, Note_off_c, 9, 46, 80
4, 34920, Note_off_c, 9, 53, 80
4, 34920, Note_on_c, 9, 36, 95
4, 34920, Note_on_c, 9, 35, 95
4, 34920, Note_on_c, 9, 53, 95
4, 35040, Note_off_c, 9, 36, 80
4, 35040, Note_off_c, 9, 35, 80
4, 35040, Note_off_c, 9, 53, 80
4, 35040, Note_on_c, 9, 36, 95
4, 35040, Note_on_c, 9, 35, 95
4, 35040, Note_on_c, 9, 46, 95
4, 35040, Note_on_c, 9, 53, 95
4, 35160, Note_off_c, 9, 36, 80
4, 35160, Note_off_c, 9, 35, 80
4, 35160, Note_off_c, 9, 46, 80
4, 35160, Note_off_c, 9, 53, 80
4, 35160, Note_on_c, 9, 36, 95
4, 35160, Note_on_c, 9, 35, 95
4, 35160, Note_on_c, 9, 53, 95
4, 35280, Note_off_c, 9, 36, 80
4, 35280, Note_off_c, 9, 35, 80
4, 35280, Note_off_c, 9, 53, 80
4, 35280, Note_on_c, 9, 40, 95
4, 35280, Note_on_c, 9, 46, 95
4, 35280, Note_on_c, 9, 53, 95
4, 35400, Note_off_c, 9, 40, 80
4, 35400, Note_off_c, 9, 46, 80
4, 35400, Note_off_c, 9, 53, 80
4, 35400, Note_on_c, 9, 36, 95
4, 35400, Note_on_c, 9, 35, 95
4, 35400, Note_on_c, 9, 53, 95
4, 35520, Note_off_c, 9, 36, 80
4, 35520, Note_off_c, 9, 35, 80
4, 35520, Note_off_c, 9, 53, 80
4, 35520, Note_on_c, 9, 36, 95
4, 35520, Note_on_c, 9, 35, 95
4, 35520, Note_on_c, 9, 46, 95
4, 35520, Note_on_c, 9, 53, 95
4, 35640, Note_off_c, 9, 36, 80
4, 35640, Note_off_c, 9, 35, 80
4, 35640, Note_off_c, 9, 46, 80
4, 35640, Note_off_c, 9, 53, 80
4, 35640, Note_on_c, 9, 36, 95
4, 35640, Note_on_c, 9, 35, 95
4, 35640, Note_on_c, 9, 53, 95
4, 35760, Note_off_c, 9, 36, 80
4, 35760, Note_off_c, 9, 35, 80
4, 35760, Note_off_c, 9, 53, 80
4, 35760, Note_on_c, 9, 40, 95
4, 35760, Note_on_c, 9, 49, 95
4, 35760, Note_on_c, 9, 46, 95
4, 35760, Note_on_c, 9, 53, 95
4, 35880, Note_off_c, 9, 40, 80
4, 35880, Note_off_c, 9, 49, 80
4, 35880, Note_off_c, 9, 46, 80
4, 35880, Note_off_c, 9, 53, 80
4, 35880, Note_on_c, 9, 36, 95
4, 35880, Note_on_c, 9, 35, 95
4, 35880, Note_on_c, 9, 53, 95
4, 36000, Note_off_c, 9, 36, 80
4, 36000, Note_off_c, 9, 35, 80
4, 36000, Note_off_c, 9, 53, 80
4, 36000, Note_on_c, 9, 36, 95
4, 36000, Note_on_c, 9, 35, 95
4, 36000, Note_on_c, 9, 46, 95
4, 36000, Note_on_c, 9, 53, 95
4, 36120, Note_off_c, 9, 36, 80
4, 36120, Note_off_c, 9, 35, 80
4, 36120, Note_off_c, 9, 46, 80
4, 36120, Note_off_c, 9, 53, 80
4, 36120, Note_on_c, 9, 36, 95
4, 36120, Note_on_c, 9, 35, 95
4, 36120, Note_on_c, 9, 53, 95
4, 36240, Note_off_c, 9, 36, 80
4, 36240, Note_off_c, 9, 35, 80
4, 36240, Note_off_c, 9, 53, 80
4, 36240, Note_on_c, 9, 40, 95
4, 36240, Note_on_c, 9, 46, 95
4, 36240, Note_on_c, 9, 53, 95
4, 36360, Note_off_c, 9, 40, 80
4, 36360, Note_off_c, 9, 46, 80
4, 36360, Note_off_c, 9, 53, 80
4, 36360, Note_on_c, 9, 36, 95
4, 36360, Note_on_c, 9, 35, 95
4, 36360, Note_on_c, 9, 53, 95
4, 36480, Note_off_c, 9, 36, 80
4, 36480, Note_off_c, 9, 35, 80
4, 36480, Note_off_c, 9, 53, 80
4, 36480, Note_on_c, 9, 36, 95
4, 36480, Note_on_c, 9, 35, 95
4, 36480, Note_on_c, 9, 46, 95
4, 36480, Note_on_c, 9, 53, 95
4, 36600, Note_off_c, 9, 36, 80
4, 36600, Note_off_c, 9, 35, 80
4, 36600, Note_off_c, 9, 46, 80
4, 36600, Note_off_c, 9, 53, 80
4, 36600, Note_on_c, 9, 36, 95
4, 36600, Note_on_c, 9, 35, 95
4, 36600, Note_on_c, 9, 53, 95
4, 36720, Note_off_c, 9, 36, 80
4, 36720, Note_off_c, 9, 35, 80
4, 36720, Note_off_c, 9, 53, 80
4, 36720, Note_on_c, 9, 40, 95
4, 36720, Note_on_c, 9, 57, 95
4, 36720, Note_on_c, 9, 46, 95
4, 36720, Note_on_c, 9, 53, 95
4, 36840, Note_off_c, 9, 40, 80
4, 36840, Note_off_c, 9, 57, 80
4, 36840, Note_off_c, 9, 46, 80
4, 36840, Note_off_c, 9, 53, 80
4, 36840, Note_on_c, 9, 36, 95
4, 36840, Note_on_c, 9, 35, 95
4, 36840, Note_on_c, 9, 53, 95
4, 36960, Note_off_c, 9, 36, 80
4, 36960, Note_off_c, 9, 35, 80
4, 36960, Note_off_c, 9, 53, 80
4, 36960, Note_on_c, 9, 36, 95
4, 36960, Note_on_c, 9, 35, 95
4, 36960, Note_on_c, 9, 46, 95
4, 36960, Note_on_c, 9, 53, 95
4, 37080, Note_off_c, 9, 36, 80
4, 37080, Note_off_c, 9, 35, 80
4, 37080, Note_off_c, 9, 46, 80
4, 37080, Note_off_c, 9, 53, 80
4, 37080, Note_on_c, 9, 36, 95
4, 37080, Note_on_c, 9, 35, 95
4, 37080, Note_on_c, 9, 53, 95
4, 37200, Note_off_c, 9, 36, 80
4, 37200, Note_off_c, 9, 35, 80
4, 37200, Note_off_c, 9, 53, 80
4, 37200, Note_on_c, 9, 40, 95
4, 37200, Note_on_c, 9, 46, 95
4, 37200, Note_on_c, 9, 53, 95
4, 37320, Note_off_c, 9, 40, 80
4, 37320, Note_off_c, 9, 46, 80
4, 37320, Note_off_c, 9, 53, 80
4, 37320, Note_on_c, 9, 36, 95
4, 37320, Note_on_c, 9, 35, 95
4, 37320, Note_on_c, 9, 53, 95
4, 37440, Note_off_c, 9, 36, 80
4, 37440, Note_off_c, 9, 35, 80
4, 37440, Note_off_c, 9, 53, 80
4, 37440, Note_on_c, 9, 36, 95
4, 37440, Note_on_c, 9, 35, 95
4, 37440, Note_on_c, 9, 46, 95
4, 37440, Note_on_c, 9, 53, 95
4, 37560, Note_off_c, 9, 36, 80
4, 37560, Note_off_c, 9, 35, 80
4, 37560, Note_off_c, 9, 46, 80
4, 37560, Note_off_c, 9, 53, 80
4, 37560, Note_on_c, 9, 36, 95
4, 37560, Note_on_c, 9, 35, 95
4, 37560, Note_on_c, 9, 53, 95
4, 37680, Note_off_c, 9, 36, 80
4, 37680, Note_off_c, 9, 35, 80
4, 37680, Note_off_c, 9, 53, 80
4, 37680, Note_on_c, 9, 40, 95
4, 37680, Note_on_c, 9, 49, 95
4, 37680, Note_on_c, 9, 46, 95
4, 37680, Note_on_c, 9, 53, 95
4, 37800, Note_off_c, 9, 40, 80
4, 37800, Note_off_c, 9, 49, 80
4, 37800, Note_off_c, 9, 46, 80
4, 37800, Note_off_c, 9, 53, 80
4, 37800, Note_on_c, 9, 36, 95
4, 37800, Note_on_c, 9, 35, 95
4, 37800, Note_on_c, 9, 53, 95
4, 37920, Note_off_c, 9, 36, 80
4, 37920, Note_off_c, 9, 35, 80
4, 37920, Note_off_c, 9, 53, 80
4, 37920, Note_on_c, 9, 36, 95
4, 37920, Note_on_c, 9, 35, 95
4, 37920, Note_on_c, 9, 46, 95
4, 37920, Note_on_c, 9, 53, 95
4, 38040, Note_off_c, 9, 36, 80
4, 38040, Note_off_c, 9, 35, 80
4, 38040, Note_off_c, 9, 46, 80
4, 38040, Note_off_c, 9, 53, 80
4, 38040, Note_on_c, 9, 36, 95
4, 38040, Note_on_c, 9, 35, 95
4, 38040, Note_on_c, 9, 53, 95
4, 38160, Note_off_c, 9, 36, 80
4, 38160, Note_off_c, 9, 35, 80
4, 38160, Note_off_c, 9, 53, 80
4, 38160, Note_on_c, 9, 40, 95
4, 38160, Note_on_c, 9, 46, 95
4, 38160, Note_on_c, 9, 53, 95
4, 38280, Note_off_c, 9, 40, 80
4, 38280, Note_off_c, 9, 46, 80
4, 38280, Note_off_c, 9, 53, 80
4, 38280, Note_on_c, 9, 36, 95
4, 38280, Note_on_c, 9, 35, 95
4, 38280, Note_on_c, 9, 53, 95
4, 38400, Note_off_c, 9, 36, 80
4, 38400, Note_off_c, 9, 35, 80
4, 38400, Note_off_c, 9, 53, 80
4, 38400, Note_on_c, 9, 36, 95
4, 38400, Note_on_c, 9, 35, 95
4, 38400, Note_on_c, 9, 46, 95
4, 38400, Note_on_c, 9, 57, 95
4, 38400, Note_on_c, 9, 53, 95
4, 38400, Note_on_c, 9, 49, 95
4, 38520, Note_off_c, 9, 36, 80
4, 38520, Note_off_c, 9, 35, 80
4, 38520, Note_off_c, 9, 46, 80
4, 38520, Note_off_c, 9, 57, 80
4, 38520, Note_off_c, 9, 53, 80
4, 38520, Note_off_c, 9, 49, 80
4, 38520, Note_on_c, 9, 36, 95
4, 38520, Note_on_c, 9, 35, 95
4, 38520, Note_on_c, 9, 53, 95
4, 38640, Note_off_c, 9, 36, 80
4, 38640, Note_off_c, 9, 35, 80
4, 38640, Note_off_c, 9, 53, 80
4, 38640, Note_on_c, 9, 40, 95
4, 38640, Note_on_c, 9, 46, 95
4, 38640, Note_on_c, 9, 53, 95
4, 38760, Note_off_c, 9, 40, 80
4, 38760, Note_off_c, 9, 46, 80
4, 38760, Note_off_c, 9, 53, 80
4, 38760, Note_on_c, 9, 36, 95
4, 38760, Note_on_c, 9, 35, 95
4, 38760, Note_on_c, 9, 53, 95
4, 38880, Note_off_c, 9, 36, 80
4, 38880, Note_off_c, 9, 35, 80
4, 38880, Note_off_c, 9, 53, 80
4, 38880, Note_on_c, 9, 36, 95
4, 38880, Note_on_c, 9, 35, 95
4, 38880, Note_on_c, 9, 46, 95
4, 38880, Note_on_c, 9, 53, 95
4, 39000, Note_off_c, 9, 36, 80
4, 39000, Note_off_c, 9, 35, 80
4, 39000, Note_off_c, 9, 46, 80
4, 39000, Note_off_c, 9, 53, 80
4, 39000, Note_on_c, 9, 36, 95
4, 39000, Note_on_c, 9, 35, 95
4, 39000, Note_on_c, 9, 53, 95
4, 39120, Note_off_c, 9, 36, 80
4, 39120, Note_off_c, 9, 35, 80
4, 39120, Note_off_c, 9, 53, 80
4, 39120, Note_on_c, 9, 40, 95
4, 39120, Note_on_c, 9, 46, 95
4, 39120, Note_on_c, 9, 53, 95
4, 39240, Note_off_c, 9, 40, 80
4, 39240, Note_off_c, 9, 46, 80
4, 39240, Note_off_c, 9, 53, 80
4, 39240, Note_on_c, 9, 36, 95
4, 39240, Note_on_c, 9, 35, 95
4, 39240, Note_on_c, 9, 53, 95
4, 39360, Note_off_c, 9, 36, 80
4, 39360, Note_off_c, 9, 35, 80
4, 39360, Note_off_c, 9, 53, 80
4, 39360, Note_on_c, 9, 36, 95
4, 39360, Note_on_c, 9, 35, 95
4, 39360, Note_on_c, 9, 46, 95
4, 39360, Note_on_c, 9, 53, 95
4, 39480, Note_off_c, 9, 36, 80
4, 39480, Note_off_c, 9, 35, 80
4, 39480, Note_off_c, 9, 46, 80
4, 39480, Note_off_c, 9, 53, 80
4, 39480, Note_on_c, 9, 36, 95
4, 39480, Note_on_c, 9, 35, 95
4, 39480, Note_on_c, 9, 53, 95
4, 39600, Note_off_c, 9, 36, 80
4, 39600, Note_off_c, 9, 35, 80
4, 39600, Note_off_c, 9, 53, 80
4, 39600, Note_on_c, 9, 40, 95
4, 39600, Note_on_c, 9, 46, 95
4, 39600, Note_on_c, 9, 53, 95
4, 39720, Note_off_c, 9, 40, 80
4, 39720, Note_off_c, 9, 46, 80
4, 39720, Note_off_c, 9, 53, 80
4, 39720, Note_on_c, 9, 36, 95
4, 39720, Note_on_c, 9, 35, 95
4, 39720, Note_on_c, 9, 53, 95
4, 39840, Note_off_c, 9, 36, 80
4, 39840, Note_off_c, 9, 35, 80
4, 39840, Note_off_c, 9, 53, 80
4, 39840, Note_on_c, 9, 36, 95
4, 39840, Note_on_c, 9, 35, 95
4, 39840, Note_on_c, 9, 46, 95
4, 39840, Note_on_c, 9, 53, 95
4, 39960, Note_off_c, 9, 36, 80
4, 39960, Note_off_c, 9, 35, 80
4, 39960, Note_off_c, 9, 46, 80
4, 39960, Note_off_c, 9, 53, 80
4, 39960, Note_on_c, 9, 36, 95
4, 39960, Note_on_c, 9, 35, 95
4, 39960, Note_on_c, 9, 53, 95
4, 40080, Note_off_c, 9, 36, 80
4, 40080, Note_off_c, 9, 35, 80
4, 40080, Note_off_c, 9, 53, 80
4, 40080, Note_on_c, 9, 40, 95
4, 40080, Note_on_c, 9, 46, 95
4, 40080, Note_on_c, 9, 53, 95
4, 40200, Note_off_c, 9, 40, 80
4, 40200, Note_off_c, 9, 46, 80
4, 40200, Note_off_c, 9, 53, 80
4, 40200, Note_on_c, 9, 36, 95
4, 40200, Note_on_c, 9, 35, 95
4, 40200, Note_on_c, 9, 53, 95
4, 40320, Note_off_c, 9, 36, 80
4, 40320, Note_off_c, 9, 35, 80
4, 40320, Note_off_c, 9, 53, 80
4, 40320, Note_on_c, 9, 36, 95
4, 40320, Note_on_c, 9, 35, 95
4, 40320, Note_on_c, 9, 42, 95
4, 40320, Note_on_c, 9, 53, 95
4, 40440, Note_off_c, 9, 36, 80
4, 40440, Note_off_c, 9, 35, 80
4, 40440, Note_off_c, 9, 42, 80
4, 40440, Note_off_c, 9, 53, 80
4, 40440, Note_on_c, 9, 36, 95
4, 40440, Note_on_c, 9, 35, 95
4, 40440, Note_on_c, 9, 53, 95
4, 40560, Note_off_c, 9, 36, 80
4, 40560, Note_off_c, 9, 35, 80
4, 40560, Note_off_c, 9, 53, 80
4, 40560, Note_on_c, 9, 40, 95
4, 40560, Note_on_c, 9, 57, 95
4, 40560, Note_on_c, 9, 42, 95
4, 40560, Note_on_c, 9, 53, 95
4, 40680, Note_off_c, 9, 40, 80
4, 40680, Note_off_c, 9, 57, 80
4, 40680, Note_off_c, 9, 42, 80
4, 40680, Note_off_c, 9, 53, 80
4, 40680, Note_on_c, 9, 53, 95
4, 40800, Note_off_c, 9, 53, 80
4, 40800, Note_on_c, 9, 36, 95
4, 40800, Note_on_c, 9, 35, 95
4, 40800, Note_on_c, 9, 42, 95
4, 40800, Note_on_c, 9, 53, 95
4, 40920, Note_off_c, 9, 36, 80
4, 40920, Note_off_c, 9, 35, 80
4, 40920, Note_off_c, 9, 42, 80
4, 40920, Note_off_c, 9, 53, 80
4, 40920, Note_on_c, 9, 36, 95
4, 40920, Note_on_c, 9, 35, 95
4, 40920, Note_on_c, 9, 53, 95
4, 41040, Note_off_c, 9, 36, 80
4, 41040, Note_off_c, 9, 35, 80
4, 41040, Note_off_c, 9, 53, 80
4, 41040, Note_on_c, 9, 40, 95
4, 41040, Note_on_c, 9, 55, 95
4, 41040, Note_on_c, 9, 42, 95
4, 41040, Note_on_c, 9, 53, 95
4, 41160, Note_off_c, 9, 40, 80
4, 41160, Note_off_c, 9, 55, 80
4, 41160, Note_off_c, 9, 42, 80
4, 41160, Note_off_c, 9, 53, 80
4, 41160, Note_on_c, 9, 36, 95
4, 41160, Note_on_c, 9, 35, 95
4, 41160, Note_on_c, 9, 53, 95
4, 41280, Note_off_c, 9, 36, 80
4, 41280, Note_off_c, 9, 35, 80
4, 41280, Note_off_c, 9, 53, 80
4, 41280, Note_on_c, 9, 36, 95
4, 41280, Note_on_c, 9, 35, 95
4, 41280, Note_on_c, 9, 42, 95
4, 41280, Note_on_c, 9, 53, 95
4, 41400, Note_off_c, 9, 36, 80
4, 41400, Note_off_c, 9, 35, 80
4, 41400, Note_off_c, 9, 42, 80
4, 41400, Note_off_c, 9, 53, 80
4, 41400, Note_on_c, 9, 36, 95
4, 41400, Note_on_c, 9, 35, 95
4, 41400, Note_on_c, 9, 53, 95
4, 41520, Note_off_c, 9, 36, 80
4, 41520, Note_off_c, 9, 35, 80
4, 41520, Note_off_c, 9, 53, 80
4, 41520, Note_on_c, 9, 40, 95
4, 41520, Note_on_c, 9, 57, 95
4, 41520, Note_on_c, 9, 42, 95
4, 41520, Note_on_c, 9, 53, 95
4, 41640, Note_off_c, 9, 40, 80
4, 41640, Note_off_c, 9, 57, 80
4, 41640, Note_off_c, 9, 42, 80
4, 41640, Note_off_c, 9, 53, 80
4, 41640, Note_on_c, 9, 36, 95
4, 41640, Note_on_c, 9, 35, 95
4, 41640, Note_on_c, 9, 53, 95
4, 41760, Note_off_c, 9, 36, 80
4, 41760, Note_off_c, 9, 35, 80
4, 41760, Note_off_c, 9, 53, 80
4, 41760, Note_on_c, 9, 36, 95
4, 41760, Note_on_c, 9, 35, 95
4, 41760, Note_on_c, 9, 42, 95
4, 41760, Note_on_c, 9, 53, 95
4, 41880, Note_off_c, 9, 36, 80
4, 41880, Note_off_c, 9, 35, 80
4, 41880, Note_off_c, 9, 42, 80
4, 41880, Note_off_c, 9, 53, 80
4, 41880, Note_on_c, 9, 36, 95
4, 41880, Note_on_c, 9, 35, 95
4, 41880, Note_on_c, 9, 53, 95
4, 42000, Note_off_c, 9, 36, 80
4, 42000, Note_off_c, 9, 35, 80
4, 42000, Note_off_c, 9, 53, 80
4, 42000, Note_on_c, 9, 40, 95
4, 42000, Note_on_c, 9, 55, 95
4, 42000, Note_on_c, 9, 42, 95
4, 42000, Note_on_c, 9, 53, 95
4, 42120, Note_off_c, 9, 40, 80
4, 42120, Note_off_c, 9, 55, 80
4, 42120, Note_off_c, 9, 42, 80
4, 42120, Note_off_c, 9, 53, 80
4, 42120, Note_on_c, 9, 36, 95
4, 42120, Note_on_c, 9, 35, 95
4, 42120, Note_on_c, 9, 53, 95
4, 42240, Note_off_c, 9, 36, 80
4, 42240, Note_off_c, 9, 35, 80
4, 42240, Note_off_c, 9, 53, 80
4, 42240, Note_on_c, 9, 36, 95
4, 42240, Note_on_c, 9, 35, 95
4, 42240, Note_on_c, 9, 46, 95
4, 42240, Note_on_c, 9, 57, 95
4, 42240, Note_on_c, 9, 53, 95
4, 42240, Note_on_c, 9, 49, 95
4, 42360, Note_off_c, 9, 36, 80
4, 42360, Note_off_c, 9, 35, 80
4, 42360, Note_off_c, 9, 46, 80
4, 42360, Note_off_c, 9, 57, 80
4, 42360, Note_off_c, 9, 53, 80
4, 42360, Note_off_c, 9, 49, 80
4, 42360, Note_on_c, 9, 36, 95
4, 42360, Note_on_c, 9, 35, 95
4, 42360, Note_on_c, 9, 53, 95
4, 42480, Note_off_c, 9, 36, 80
4, 42480, Note_off_c, 9, 35, 80
4, 42480, Note_off_c, 9, 53, 80
4, 42480, Note_on_c, 9, 40, 95
4, 42480, Note_on_c, 9, 46, 95
4, 42480, Note_on_c, 9, 53, 95
4, 42600, Note_off_c, 9, 40, 80
4, 42600, Note_off_c, 9, 46, 80
4, 42600, Note_off_c, 9, 53, 80
4, 42600, Note_on_c, 9, 36, 95
4, 42600, Note_on_c, 9, 35, 95
4, 42600, Note_on_c, 9, 53, 95
4, 42720, Note_off_c, 9, 36, 80
4, 42720, Note_off_c, 9, 35, 80
4, 42720, Note_off_c, 9, 53, 80
4, 42720, Note_on_c, 9, 36, 95
4, 42720, Note_on_c, 9, 35, 95
4, 42720, Note_on_c, 9, 46, 95
4, 42720, Note_on_c, 9, 53, 95
4, 42840, Note_off_c, 9, 36, 80
4, 42840, Note_off_c, 9, 35, 80
4, 42840, Note_off_c, 9, 46, 80
4, 42840, Note_off_c, 9, 53, 80
4, 42840, Note_on_c, 9, 36, 95
4, 42840, Note_on_c, 9, 35, 95
4, 42840, Note_on_c, 9, 53, 95
4, 42960, Note_off_c, 9, 36, 80
4, 42960, Note_off_c, 9, 35, 80
4, 42960, Note_off_c, 9, 53, 80
4, 42960, Note_on_c, 9, 40, 95
4, 42960, Note_on_c, 9, 46, 95
4, 42960, Note_on_c, 9, 53, 95
4, 43080, Note_off_c, 9, 40, 80
4, 43080, Note_off_c, 9, 46, 80
4, 43080, Note_off_c, 9, 53, 80
4, 43080, Note_on_c, 9, 36, 95
4, 43080, Note_on_c, 9, 35, 95
4, 43080, Note_on_c, 9, 53, 95
4, 43200, Note_off_c, 9, 36, 80
4, 43200, Note_off_c, 9, 35, 80
4, 43200, Note_off_c, 9, 53, 80
4, 43200, Note_on_c, 9, 36, 95
4, 43200, Note_on_c, 9, 35, 95
4, 43200, Note_on_c, 9, 46, 95
4, 43200, Note_on_c, 9, 53, 95
4, 43320, Note_off_c, 9, 36, 80
4, 43320, Note_off_c, 9, 35, 80
4, 43320, Note_off_c, 9, 46, 80
4, 43320, Note_off_c, 9, 53, 80
4, 43320, Note_on_c, 9, 36, 95
4, 43320, Note_on_c, 9, 35, 95
4, 43320, Note_on_c, 9, 53, 95
4, 43440, Note_off_c, 9, 36, 80
4, 43440, Note_off_c, 9, 35, 80
4, 43440, Note_off_c, 9, 53, 80
4, 43440, Note_on_c, 9, 40, 95
4, 43440, Note_on_c, 9, 46, 95
4, 43440, Note_on_c, 9, 53, 95
4, 43560, Note_off_c, 9, 40, 80
4, 43560, Note_off_c, 9, 46, 80
4, 43560, Note_off_c, 9, 53, 80
4, 43560, Note_on_c, 9, 36, 95
4, 43560, Note_on_c, 9, 35, 95
4, 43560, Note_on_c, 9, 53, 95
4, 43680, Note_off_c, 9, 36, 80
4, 43680, Note_off_c, 9, 35, 80
4, 43680, Note_off_c, 9, 53, 80
4, 43680, Note_on_c, 9, 36, 95
4, 43680, Note_on_c, 9, 35, 95
4, 43680, Note_on_c, 9, 46, 95
4, 43680, Note_on_c, 9, 45, 95
4, 43680, Note_on_c, 9, 53, 95
4, 43800, Note_off_c, 9, 36, 80
4, 43800, Note_off_c, 9, 35, 80
4, 43800, Note_off_c, 9, 46, 80
4, 43800, Note_off_c, 9, 45, 80
4, 43800, Note_off_c, 9, 53, 80
4, 43800, Note_on_c, 9, 36, 95
4, 43800, Note_on_c, 9, 35, 95
4, 43800, Note_on_c, 9, 45, 95
4, 43800, Note_on_c, 9, 53, 95
4, 43920, Note_off_c, 9, 36, 80
4, 43920, Note_off_c, 9, 35, 80
4, 43920, Note_off_c, 9, 45, 80
4, 43920, Note_off_c, 9, 53, 80
4, 43920, Note_on_c, 9, 40, 95
4, 43920, Note_on_c, 9, 46, 95
4, 43920, Note_on_c, 9, 43, 95
4, 43920, Note_on_c, 9, 53, 95
4, 44040, Note_off_c, 9, 40, 80
4, 44040, Note_off_c, 9, 46, 80
4, 44040, Note_off_c, 9, 43, 80
4, 44040, Note_off_c, 9, 53, 80
4, 44040, Note_on_c, 9, 36, 95
4, 44040, Note_on_c, 9, 35, 95
4, 44040, Note_on_c, 9, 41, 95
4, 44040, Note_on_c, 9, 53, 95
4, 44160, Note_off_c, 9, 36, 80
4, 44160, Note_off_c, 9, 35, 80
4, 44160, Note_off_c, 9, 41, 80
4, 44160, Note_off_c, 9, 53, 80
4, 44160, Note_on_c, 9, 36, 95
4, 44160, Note_on_c, 9, 35, 95
4, 44160, Note_on_c, 9, 42, 95
4, 44160, Note_on_c, 9, 53, 95
4, 44280, Note_off_c, 9, 36, 80
4, 44280, Note_off_c, 9, 35, 80
4, 44280, Note_off_c, 9, 42, 80
4, 44280, Note_off_c, 9, 53, 80
4, 44280, Note_on_c, 9, 36, 95
4, 44280, Note_on_c, 9, 35, 95
4, 44280, Note_on_c, 9, 53, 95
4, 44400, Note_off_c, 9, 36, 80
4, 44400, Note_off_c, 9, 35, 80
4, 44400, Note_off_c, 9, 53, 80
4, 44400, Note_on_c, 9, 40, 95
4, 44400, Note_on_c, 9, 57, 95
4, 44400, Note_on_c, 9, 42, 95
4, 44400, Note_on_c, 9, 53, 95
4, 44520, Note_off_c, 9, 40, 80
4, 44520, Note_off_c, 9, 57, 80
4, 44520, Note_off_c, 9, 42, 80
4, 44520, Note_off_c, 9, 53, 80
4, 44520, Note_on_c, 9, 53, 95
4, 44640, Note_off_c, 9, 53, 80
4, 44640, Note_on_c, 9, 36, 95
4, 44640, Note_on_c, 9, 35, 95
4, 44640, Note_on_c, 9, 42, 95
4, 44640, Note_on_c, 9, 53, 95
4, 44760, Note_off_c, 9, 36, 80
4, 44760, Note_off_c, 9, 35, 80
4, 44760, Note_off_c, 9, 42, 80
4, 44760, Note_off_c, 9, 53, 80
4, 44760, Note_on_c, 9, 36, 95
4, 44760, Note_on_c, 9, 35, 95
4, 44760, Note_on_c, 9, 53, 95
4, 44880, Note_off_c, 9, 36, 80
4, 44880, Note_off_c, 9, 35, 80
4, 44880, Note_off_c, 9, 53, 80
4, 44880, Note_on_c, 9, 40, 95
4, 44880, Note_on_c, 9, 55, 95
4, 44880, Note_on_c, 9, 42, 95
4, 44880, Note_on_c, 9, 53, 95
4, 45000, Note_off_c, 9, 40, 80
4, 45000, Note_off_c, 9, 55, 80
4, 45000, Note_off_c, 9, 42, 80
4, 45000, Note_off_c, 9, 53, 80
4, 45000, Note_on_c, 9, 36, 95
4, 45000, Note_on_c, 9, 35, 95
4, 45000, Note_on_c, 9, 53, 95
4, 45120, Note_off_c, 9, 36, 80
4, 45120, Note_off_c, 9, 35, 80
4, 45120, Note_off_c, 9, 53, 80
4, 45120, Note_on_c, 9, 36, 95
4, 45120, Note_on_c, 9, 35, 95
4, 45120, Note_on_c, 9, 42, 95
4, 45120, Note_on_c, 9, 53, 95
4, 45240, Note_off_c, 9, 36, 80
4, 45240, Note_off_c, 9, 35, 80
4, 45240, Note_off_c, 9, 42, 80
4, 45240, Note_off_c, 9, 53, 80
4, 45240, Note_on_c, 9, 36, 95
4, 45240, Note_on_c, 9, 35, 95
4, 45240, Note_on_c, 9, 53, 95
4, 45360, Note_off_c, 9, 36, 80
4, 45360, Note_off_c, 9, 35, 80
4, 45360, Note_off_c, 9, 53, 80
4, 45360, Note_on_c, 9, 40, 95
4, 45360, Note_on_c, 9, 57, 95
4, 45360, Note_on_c, 9, 42, 95
4, 45360, Note_on_c, 9, 53, 95
4, 45480, Note_off_c, 9, 40, 80
4, 45480, Note_off_c, 9, 57, 80
4, 45480, Note_off_c, 9, 42, 80
4, 45480, Note_off_c, 9, 53, 80
4, 45480, Note_on_c, 9, 36, 95
4, 45480, Note_on_c, 9, 35, 95
4, 45480, Note_on_c, 9, 53, 95
4, 45600, Note_off_c, 9, 36, 80
4, 45600, Note_off_c, 9, 35, 80
4, 45600, Note_off_c, 9, 53, 80
4, 45600, Note_on_c, 9, 36, 95
4, 45600, Note_on_c, 9, 35, 95
4, 45600, Note_on_c, 9, 42, 95
4, 45600, Note_on_c, 9, 53, 95
4, 45720, Note_off_c, 9, 36, 80
4, 45720, Note_off_c, 9, 35, 80
4, 45720, Note_off_c, 9, 42, 80
4, 45720, Note_off_c, 9, 53, 80
4, 45720, Note_on_c, 9, 36, 95
4, 45720, Note_on_c, 9, 35, 95
4, 45720, Note_on_c, 9, 53, 95
4, 45840, Note_off_c, 9, 36, 80
4, 45840, Note_off_c, 9, 35, 80
4, 45840, Note_off_c, 9, 53, 80
4, 45840, Note_on_c, 9, 40, 95
4, 45840, Note_on_c, 9, 55, 95
4, 45840, Note_on_c, 9, 42, 95
4, 45840, Note_on_c, 9, 53, 95
4, 45960, Note_off_c, 9, 40, 80
4, 45960, Note_off_c, 9, 55, 80
4, 45960, Note_off_c, 9, 42, 80
4, 45960, Note_off_c, 9, 53, 80
4, 45960, Note_on_c, 9, 36, 95
4, 45960, Note_on_c, 9, 35, 95
4, 45960, Note_on_c, 9, 53, 95
4, 46080, Note_off_c, 9, 36, 80
4, 46080, Note_off_c, 9, 35, 80
4, 46080, Note_off_c, 9, 53, 80
4, 46080, Note_on_c, 9, 53, 95
4, 46080, Note_on_c, 9, 36, 95
4, 46080, Note_on_c, 9, 35, 95
4, 46200, Note_off_c, 9, 53, 80
4, 46200, Note_off_c, 9, 36, 80
4, 46200, Note_off_c, 9, 35, 80
4, 46200, Note_on_c, 9, 53, 95
4, 46200, Note_on_c, 9, 36, 95
4, 46200, Note_on_c, 9, 35, 95
4, 46320, Note_off_c, 9, 53, 80
4, 46320, Note_off_c, 9, 36, 80
4, 46320, Note_off_c, 9, 35, 80
4, 46320, Note_on_c, 9, 53, 95
4, 46320, Note_on_c, 9, 40, 95
4, 46320, Note_on_c, 9, 57, 95
4, 46440, Note_off_c, 9, 53, 80
4, 46440, Note_off_c, 9, 40, 80
4, 46440, Note_off_c, 9, 57, 80
4, 46440, Note_on_c, 9, 53, 95
4, 46560, Note_off_c, 9, 53, 80
4, 46560, Note_on_c, 9, 53, 95
4, 46560, Note_on_c, 9, 36, 95
4, 46560, Note_on_c, 9, 35, 95
4, 46680, Note_off_c, 9, 53, 80
4, 46680, Note_off_c, 9, 36, 80
4, 46680, Note_off_c, 9, 35, 80
4, 46680, Note_on_c, 9, 53, 95
4, 46680, Note_on_c, 9, 36, 95
4, 46680, Note_on_c, 9, 35, 95
4, 46800, Note_off_c, 9, 53, 80
4, 46800, Note_off_c, 9, 36, 80
4, 46800, Note_off_c, 9, 35, 80
4, 46800, Note_on_c, 9, 53, 95
4, 46800, Note_on_c, 9, 40, 95
4, 46800, Note_on_c, 9, 49, 95
4, 46800, Note_on_c, 9, 55, 95
4, 46920, Note_off_c, 9, 53, 80
4, 46920, Note_off_c, 9, 40, 80
4, 46920, Note_off_c, 9, 49, 80
4, 46920, Note_off_c, 9, 55, 80
4, 46920, Note_on_c, 9, 53, 95
4, 47040, Note_off_c, 9, 53, 80
4, 47040, Note_on_c, 9, 53, 95
4, 47040, Note_on_c, 9, 36, 95
4, 47040, Note_on_c, 9, 35, 95
4, 47160, Note_off_c, 9, 53, 80
4, 47160, Note_off_c, 9, 36, 80
4, 47160, Note_off_c, 9, 35, 80
4, 47160, Note_on_c, 9, 53, 95
4, 47160, Note_on_c, 9, 36, 95
4, 47160, Note_on_c, 9, 35, 95
4, 47280, Note_off_c, 9, 53, 80
4, 47280, Note_off_c, 9, 36, 80
4, 47280, Note_off_c, 9, 35, 80
4, 47280, Note_on_c, 9, 53, 95
4, 47280, Note_on_c, 9, 40, 95
4, 47280, Note_on_c, 9, 57, 95
4, 47400, Note_off_c, 9, 53, 80
4, 47400, Note_off_c, 9, 40, 80
4, 47400, Note_off_c, 9, 57, 80
4, 47400, Note_on_c, 9, 53, 95
4, 47520, Note_off_c, 9, 53, 80
4, 47520, Note_on_c, 9, 53, 95
4, 47520, Note_on_c, 9, 36, 95
4, 47520, Note_on_c, 9, 35, 95
4, 47640, Note_off_c, 9, 53, 80
4, 47640, Note_off_c, 9, 36, 80
4, 47640, Note_off_c, 9, 35, 80
4, 47640, Note_on_c, 9, 53, 95
4, 47640, Note_on_c, 9, 36, 95
4, 47640, Note_on_c, 9, 35, 95
4, 47760, Note_off_c, 9, 53, 80
4, 47760, Note_off_c, 9, 36, 80
4, 47760, Note_off_c, 9, 35, 80
4, 47760, Note_on_c, 9, 53, 95
4, 47760, Note_on_c, 9, 40, 95
4, 47760, Note_on_c, 9, 49, 95
4, 47760, Note_on_c, 9, 55, 95
4, 47880, Note_off_c, 9, 53, 80
4, 47880, Note_off_c, 9, 40, 80
4, 47880, Note_off_c, 9, 49, 80
4, 47880, Note_off_c, 9, 55, 80
4, 47880, Note_on_c, 9, 53, 95
4, 48000, Note_off_c, 9, 53, 80
4, 48000, Note_on_c, 9, 36, 95
4, 48000, Note_on_c, 9, 35, 95
4, 48000, Note_on_c, 9, 46, 95
4, 48000, Note_on_c, 9, 53, 95
4, 48120, Note_off_c, 9, 36, 80
4, 48120, Note_off_c, 9, 35, 80
4, 48120, Note_off_c, 9, 46, 80
4, 48120, Note_off_c, 9, 53, 80
4, 48120, Note_on_c, 9, 36, 95
4, 48120, Note_on_c, 9, 35, 95
4, 48120, Note_on_c, 9, 53, 95
4, 48240, Note_off_c, 9, 36, 80
4, 48240, Note_off_c, 9, 35, 80
4, 48240, Note_off_c, 9, 53, 80
4, 48240, Note_on_c, 9, 40, 95
4, 48240, Note_on_c, 9, 46, 95
4, 48240, Note_on_c, 9, 53, 95
4, 48360, Note_off_c, 9, 40, 80
4, 48360, Note_off_c, 9, 46, 80
4, 48360, Note_off_c, 9, 53, 80
4, 48360, Note_on_c, 9, 36, 95
4, 48360, Note_on_c, 9, 35, 95
4, 48360, Note_on_c, 9, 53, 95
4, 48480, Note_off_c, 9, 36, 80
4, 48480, Note_off_c, 9, 35, 80
4, 48480, Note_off_c, 9, 53, 80
4, 48480, Note_on_c, 9, 36, 95
4, 48480, Note_on_c, 9, 35, 95
4, 48480, Note_on_c, 9, 46, 95
4, 48480, Note_on_c, 9, 53, 95
4, 48600, Note_off_c, 9, 36, 80
4, 48600, Note_off_c, 9, 35, 80
4, 48600, Note_off_c, 9, 46, 80
4, 48600, Note_off_c, 9, 53, 80
4, 48600, Note_on_c, 9, 36, 95
4, 48600, Note_on_c, 9, 35, 95
4, 48600, Note_on_c, 9, 53, 95
4, 48720, Note_off_c, 9, 36, 80
4, 48720, Note_off_c, 9, 35, 80
4, 48720, Note_off_c, 9, 53, 80
4, 48720, Note_on_c, 9, 40, 95
4, 48720, Note_on_c, 9, 46, 95
4, 48720, Note_on_c, 9, 53, 95
4, 48840, Note_off_c, 9, 40, 80
4, 48840, Note_off_c, 9, 46, 80
4, 48840, Note_off_c, 9, 53, 80
4, 48840, Note_on_c, 9, 36, 95
4, 48840, Note_on_c, 9, 35, 95
4, 48840, Note_on_c, 9, 53, 95
4, 48960, Note_off_c, 9, 36, 80
4, 48960, Note_off_c, 9, 35, 80
4, 48960, Note_off_c, 9, 53, 80
4, 48960, Note_on_c, 9, 36, 95
4, 48960, Note_on_c, 9, 35, 95
4, 48960, Note_on_c, 9, 46, 95
4, 48960, Note_on_c, 9, 53, 95
4, 49080, Note_off_c, 9, 36, 80
4, 49080, Note_off_c, 9, 35, 80
4, 49080, Note_off_c, 9, 46, 80
4, 49080, Note_off_c, 9, 53, 80
4, 49080, Note_on_c, 9, 36, 95
4, 49080, Note_on_c, 9, 35, 95
4, 49080, Note_on_c, 9, 53, 95
4, 49200, Note_off_c, 9, 36, 80
4, 49200, Note_off_c, 9, 35, 80
4, 49200, Note_off_c, 9, 53, 80
4, 49200, Note_on_c, 9, 40, 95
4, 49200, Note_on_c, 9, 49, 95
4, 49200, Note_on_c, 9, 46, 95
4, 49200, Note_on_c, 9, 53, 95
4, 49320, Note_off_c, 9, 40, 80
4, 49320, Note_off_c, 9, 49, 80
4, 49320, Note_off_c, 9, 46, 80
4, 49320, Note_off_c, 9, 53, 80
4, 49320, Note_on_c, 9, 36, 95
4, 49320, Note_on_c, 9, 35, 95
4, 49320, Note_on_c, 9, 53, 95
4, 49380, Note_off_c, 9, 36, 80
4, 49380, Note_off_c, 9, 35, 80
4, 49380, Note_off_c, 9, 53, 80
4, 49380, Note_on_c, 9, 36, 95
4, 49380, Note_on_c, 9, 35, 95
4, 49440, Note_off_c, 9, 36, 80
4, 49440, Note_off_c, 9, 35, 80
4, 49440, Note_on_c, 9, 36, 95
4, 49440, Note_on_c, 9, 35, 95
4, 49440, Note_on_c, 9, 46, 95
4, 49440, Note_on_c, 9, 53, 95
4, 49500, Note_off_c, 9, 36, 80
4, 49500, Note_off_c, 9, 35, 80
4, 49500, Note_off_c, 9, 46, 80
4, 49500, Note_off_c, 9, 53, 80
4, 49500, Note_on_c, 9, 36, 95
4, 49500, Note_on_c, 9, 35, 95
4, 49560, Note_off_c, 9, 36, 80
4, 49560, Note_off_c, 9, 35, 80
4, 49560, Note_on_c, 9, 36, 95
4, 49560, Note_on_c, 9, 35, 95
4, 49560, Note_on_c, 9, 53, 95
4, 49620, Note_off_c, 9, 36, 80
4, 49620, Note_off_c, 9, 35, 80
4, 49620, Note_off_c, 9, 53, 80
4, 49620, Note_on_c, 9, 36, 95
4, 49620, Note_on_c, 9, 35, 95
4, 49680, Note_off_c, 9, 36, 80
4, 49680, Note_off_c, 9, 35, 80
4, 49680, Note_on_c, 9, 36, 95
4, 49680, Note_on_c, 9, 35, 95
4, 49680, Note_on_c, 9, 46, 95
4, 49680, Note_on_c, 9, 40, 95
4, 49680, Note_on_c, 9, 53, 95
4, 49740, Note_off_c, 9, 36, 80
4, 49740, Note_off_c, 9, 35, 80
4, 49740, Note_off_c, 9, 46, 80
4, 49740, Note_off_c, 9, 40, 80
4, 49740, Note_off_c, 9, 53, 80
4, 49740, Note_on_c, 9, 36, 95
4, 49740, Note_on_c, 9, 35, 95
4, 49800, Note_off_c, 9, 36, 80
4, 49800, Note_off_c, 9, 35, 80
4, 49800, Note_on_c, 9, 36, 95
4, 49800, Note_on_c, 9, 35, 95
4, 49800, Note_on_c, 9, 53, 95
4, 49860, Note_off_c, 9, 36, 80
4, 49860, Note_off_c, 9, 35, 80
4, 49860, Note_off_c, 9, 53, 80
4, 49860, Note_on_c, 9, 36, 95
4, 49860, Note_on_c, 9, 35, 95
4, 49920, Note_off_c, 9, 36, 80
4, 49920, Note_off_c, 9, 35, 80
4, 49920, Note_on_c, 9, 36, 95
4, 49920, Note_on_c, 9, 35, 95
4, 49920, Note_on_c, 9, 46, 95
4, 49920, Note_on_c, 9, 53, 95
4, 50040, Note_off_c, 9, 36, 80
4, 50040, Note_off_c, 9, 35, 80
4, 50040, Note_off_c, 9, 46, 80
4, 50040, Note_off_c, 9, 53, 80
4, 50040, Note_on_c, 9, 36, 95
4, 50040, Note_on_c, 9, 35, 95
4, 50040, Note_on_c, 9, 53, 95
4, 50160, Note_off_c, 9, 36, 80
4, 50160, Note_off_c, 9, 35, 80
4, 50160, Note_off_c, 9, 53, 80
4, 50160, Note_on_c, 9, 40, 95
4, 50160, Note_on_c, 9, 46, 95
4, 50160, Note_on_c, 9, 53, 95
4, 50280, Note_off_c, 9, 40, 80
4, 50280, Note_off_c, 9, 46, 80
4, 50280, Note_off_c, 9, 53, 80
4, 50280, Note_on_c, 9, 36, 95
4, 50280, Note_on_c, 9, 35, 95
4, 50280, Note_on_c, 9, 53, 95
4, 50400, Note_off_c, 9, 36, 80
4, 50400, Note_off_c, 9, 35, 80
4, 50400, Note_off_c, 9, 53, 80
4, 50400, Note_on_c, 9, 36, 95
4, 50400, Note_on_c, 9, 35, 95
4, 50400, Note_on_c, 9, 46, 95
4, 50400, Note_on_c, 9, 53, 95
4, 50520, Note_off_c, 9, 36, 80
4, 50520, Note_off_c, 9, 35, 80
4, 50520, Note_off_c, 9, 46, 80
4, 50520, Note_off_c, 9, 53, 80
4, 50520, Note_on_c, 9, 36, 95
4, 50520, Note_on_c, 9, 35, 95
4, 50520, Note_on_c, 9, 53, 95
4, 50640, Note_off_c, 9, 36, 80
4, 50640, Note_off_c, 9, 35, 80
4, 50640, Note_off_c, 9, 53, 80
4, 50640, Note_on_c, 9, 40, 95
4, 50640, Note_on_c, 9, 46, 95
4, 50640, Note_on_c, 9, 53, 95
4, 50760, Note_off_c, 9, 40, 80
4, 50760, Note_off_c, 9, 46, 80
4, 50760, Note_off_c, 9, 53, 80
4, 50760, Note_on_c, 9, 36, 95
4, 50760, Note_on_c, 9, 35, 95
4, 50760, Note_on_c, 9, 53, 95
4, 50880, Note_off_c, 9, 36, 80
4, 50880, Note_off_c, 9, 35, 80
4, 50880, Note_off_c, 9, 53, 80
4, 50880, Note_on_c, 9, 36, 95
4, 50880, Note_on_c, 9, 35, 95
4, 50880, Note_on_c, 9, 46, 95
4, 50880, Note_on_c, 9, 53, 95
4, 51000, Note_off_c, 9, 36, 80
4, 51000, Note_off_c, 9, 35, 80
4, 51000, Note_off_c, 9, 46, 80
4, 51000, Note_off_c, 9, 53, 80
4, 51000, Note_on_c, 9, 36, 95
4, 51000, Note_on_c, 9, 35, 95
4, 51000, Note_on_c, 9, 53, 95
4, 51120, Note_off_c, 9, 36, 80
4, 51120, Note_off_c, 9, 35, 80
4, 51120, Note_off_c, 9, 53, 80
4, 51120, Note_on_c, 9, 40, 95
4, 51120, Note_on_c, 9, 46, 95
4, 51120, Note_on_c, 9, 53, 95
4, 51240, Note_off_c, 9, 40, 80
4, 51240, Note_off_c, 9, 46, 80
4, 51240, Note_off_c, 9, 53, 80
4, 51240, Note_on_c, 9, 36, 95
4, 51240, Note_on_c, 9, 35, 95
4, 51240, Note_on_c, 9, 53, 95
4, 51360, Note_off_c, 9, 36, 80
4, 51360, Note_off_c, 9, 35, 80
4, 51360, Note_off_c, 9, 53, 80
4, 51360, Note_on_c, 9, 36, 95
4, 51360, Note_on_c, 9, 35, 95
4, 51360, Note_on_c, 9, 46, 95
4, 51360, Note_on_c, 9, 53, 95
4, 51480, Note_off_c, 9, 36, 80
4, 51480, Note_off_c, 9, 35, 80
4, 51480, Note_off_c, 9, 46, 80
4, 51480, Note_off_c, 9, 53, 80
4, 51480, Note_on_c, 9, 36, 95
4, 51480, Note_on_c, 9, 35, 95
4, 51480, Note_on_c, 9, 53, 95
4, 51600, Note_off_c, 9, 36, 80
4, 51600, Note_off_c, 9, 35, 80
4, 51600, Note_off_c, 9, 53, 80
4, 51600, Note_on_c, 9, 40, 95
4, 51600, Note_on_c, 9, 46, 95
4, 51600, Note_on_c, 9, 53, 95
4, 51720, Note_off_c, 9, 40, 80
4, 51720, Note_off_c, 9, 46, 80
4, 51720, Note_off_c, 9, 53, 80
4, 51720, Note_on_c, 9, 36, 95
4, 51720, Note_on_c, 9, 35, 95
4, 51720, Note_on_c, 9, 53, 95
4, 51840, Note_off_c, 9, 36, 80
4, 51840, Note_off_c, 9, 35, 80
4, 51840, Note_off_c, 9, 53, 80
4, 51840, Note_on_c, 9, 36, 95
4, 51840, Note_on_c, 9, 35, 95
4, 51840, Note_on_c, 9, 46, 95
4, 51840, Note_on_c, 9, 53, 95
4, 51960, Note_off_c, 9, 36, 80
4, 51960, Note_off_c, 9, 35, 80
4, 51960, Note_off_c, 9, 46, 80
4, 51960, Note_off_c, 9, 53, 80
4, 51960, Note_on_c, 9, 36, 95
4, 51960, Note_on_c, 9, 35, 95
4, 51960, Note_on_c, 9, 53, 95
4, 52080, Note_off_c, 9, 36, 80
4, 52080, Note_off_c, 9, 35, 80
4, 52080, Note_off_c, 9, 53, 80
4, 52080, Note_on_c, 9, 40, 95
4, 52080, Note_on_c, 9, 46, 95
4, 52080, Note_on_c, 9, 53, 95
4, 52200, Note_off_c, 9, 40, 80
4, 52200, Note_off_c, 9, 46, 80
4, 52200, Note_off_c, 9, 53, 80
4, 52200, Note_on_c, 9, 36, 95
4, 52200, Note_on_c, 9, 35, 95
4, 52200, Note_on_c, 9, 53, 95
4, 52320, Note_off_c, 9, 36, 80
4, 52320, Note_off_c, 9, 35, 80
4, 52320, Note_off_c, 9, 53, 80
4, 52320, Note_on_c, 9, 36, 95
4, 52320, Note_on_c, 9, 35, 95
4, 52320, Note_on_c, 9, 46, 95
4, 52320, Note_on_c, 9, 53, 95
4, 52440, Note_off_c, 9, 36, 80
4, 52440, Note_off_c, 9, 35, 80
4, 52440, Note_off_c, 9, 46, 80
4, 52440, Note_off_c, 9, 53, 80
4, 52440, Note_on_c, 9, 36, 95
4, 52440, Note_on_c, 9, 35, 95
4, 52440, Note_on_c, 9, 53, 95
4, 52560, Note_off_c, 9, 36, 80
4, 52560, Note_off_c, 9, 35, 80
4, 52560, Note_off_c, 9, 53, 80
4, 52560, Note_on_c, 9, 40, 95
4, 52560, Note_on_c, 9, 46, 95
4, 52560, Note_on_c, 9, 53, 95
4, 52680, Note_off_c, 9, 40, 80
4, 52680, Note_off_c, 9, 46, 80
4, 52680, Note_off_c, 9, 53, 80
4, 52680, Note_on_c, 9, 36, 95
4, 52680, Note_on_c, 9, 35, 95
4, 52680, Note_on_c, 9, 53, 95
4, 52800, Note_off_c, 9, 36, 80
4, 52800, Note_off_c, 9, 35, 80
4, 52800, Note_off_c, 9, 53, 80
4, 52800, Note_on_c, 9, 36, 95
4, 52800, Note_on_c, 9, 35, 95
4, 52800, Note_on_c, 9, 46, 95
4, 52800, Note_on_c, 9, 53, 95
4, 52920, Note_off_c, 9, 36, 80
4, 52920, Note_off_c, 9, 35, 80
4, 52920, Note_off_c, 9, 46, 80
4, 52920, Note_off_c, 9, 53, 80
4, 52920, Note_on_c, 9, 36, 95
4, 52920, Note_on_c, 9, 35, 95
4, 52920, Note_on_c, 9, 53, 95
4, 53040, Note_off_c, 9, 36, 80
4, 53040, Note_off_c, 9, 35, 80
4, 53040, Note_off_c, 9, 53, 80
4, 53040, Note_on_c, 9, 40, 95
4, 53040, Note_on_c, 9, 46, 95
4, 53040, Note_on_c, 9, 53, 95
4, 53160, Note_off_c, 9, 40, 80
4, 53160, Note_off_c, 9, 46, 80
4, 53160, Note_off_c, 9, 53, 80
4, 53160, Note_on_c, 9, 36, 95
4, 53160, Note_on_c, 9, 35, 95
4, 53160, Note_on_c, 9, 53, 95
4, 53280, Note_off_c, 9, 36, 80
4, 53280, Note_off_c, 9, 35, 80
4, 53280, Note_off_c, 9, 53, 80
4, 53280, Note_on_c, 9, 36, 95
4, 53280, Note_on_c, 9, 35, 95
4, 53280, Note_on_c, 9, 46, 95
4, 53280, Note_on_c, 9, 53, 95
4, 53400, Note_off_c, 9, 36, 80
4, 53400, Note_off_c, 9, 35, 80
4, 53400, Note_off_c, 9, 46, 80
4, 53400, Note_off_c, 9, 53, 80
4, 53400, Note_on_c, 9, 36, 95
4, 53400, Note_on_c, 9, 35, 95
4, 53400, Note_on_c, 9, 53, 95
4, 53520, Note_off_c, 9, 36, 80
4, 53520, Note_off_c, 9, 35, 80
4, 53520, Note_off_c, 9, 53, 80
4, 53520, Note_on_c, 9, 40, 95
4, 53520, Note_on_c, 9, 46, 95
4, 53520, Note_on_c, 9, 53, 95
4, 53640, Note_off_c, 9, 40, 80
4, 53640, Note_off_c, 9, 46, 80
4, 53640, Note_off_c, 9, 53, 80
4, 53640, Note_on_c, 9, 36, 95
4, 53640, Note_on_c, 9, 35, 95
4, 53640, Note_on_c, 9, 53, 95
4, 53760, Note_off_c, 9, 36, 80
4, 53760, Note_off_c, 9, 35, 80
4, 53760, Note_off_c, 9, 53, 80
4, 53760, Note_on_c, 9, 36, 95
4, 53760, Note_on_c, 9, 35, 95
4, 53760, Note_on_c, 9, 49, 95
4, 53760, Note_on_c, 9, 46, 95
4, 53880, Note_off_c, 9, 36, 80
4, 53880, Note_off_c, 9, 35, 80
4, 53880, Note_off_c, 9, 49, 80
4, 53880, Note_off_c, 9, 46, 80
4, 54000, Note_on_c, 9, 46, 95
4, 54120, Note_off_c, 9, 46, 80
4, 54240, Note_on_c, 9, 46, 95
4, 54360, Note_off_c, 9, 46, 80
4, 54480, Note_on_c, 9, 46, 95
4, 54600, Note_off_c, 9, 46, 80
4, 54720, Note_on_c, 9, 36, 95
4, 54720, Note_on_c, 9, 35, 95
4, 54720, Note_on_c, 9, 57, 95
4, 54720, Note_on_c, 9, 46, 95
4, 54840, Note_off_c, 9, 36, 80
4, 54840, Note_off_c, 9, 35, 80
4, 54840, Note_off_c, 9, 57, 80
4, 54840, Note_off_c, 9, 46, 80
4, 54960, Note_on_c, 9, 46, 95
4, 55080, Note_off_c, 9, 46, 80
4, 55200, Note_on_c, 9, 46, 95
4, 55320, Note_off_c, 9, 46, 80
4, 55440, Note_on_c, 9, 46, 95
4, 55560, Note_off_c, 9, 46, 80
4, 55680, Note_on_c, 9, 36, 95
4, 55680, Note_on_c, 9, 35, 95
4, 55680, Note_on_c, 9, 46, 95
4, 55800, Note_off_c, 9, 36, 80
4, 55800, Note_off_c, 9, 35, 80
4, 55800, Note_off_c, 9, 46, 80
4, 55800, Note_on_c, 9, 36, 95
4, 55800, Note_on_c, 9, 35, 95
4, 55920, Note_off_c, 9, 36, 80
4, 55920, Note_off_c, 9, 35, 80
4, 55920, Note_on_c, 9, 46, 95
4, 56040, Note_off_c, 9, 46, 80
4, 56040, Note_on_c, 9, 36, 95
4, 56040, Note_on_c, 9, 35, 95
4, 56160, Note_off_c, 9, 36, 80
4, 56160, Note_off_c, 9, 35, 80
4, 56160, Note_on_c, 9, 40, 95
4, 56160, Note_on_c, 9, 49, 95
4, 56160, Note_on_c, 9, 46, 95
4, 56280, Note_off_c, 9, 40, 80
4, 56280, Note_off_c, 9, 49, 80
4, 56280, Note_off_c, 9, 46, 80
4, 56400, Note_on_c, 9, 40, 95
4, 56400, Note_on_c, 9, 46, 95
4, 56460, Note_off_c, 9, 40, 80
4, 56460, Note_off_c, 9, 46, 80
4, 56460, Note_on_c, 9, 40, 95
4, 56520, Note_off_c, 9, 40, 80
4, 56520, Note_on_c, 9, 40, 95
4, 56580, Note_off_c, 9, 40, 80
4, 56580, Note_on_c, 9, 40, 95
4, 56640, Note_off_c, 9, 40, 80
4, 56640, Note_on_c, 9, 43, 95
4, 56640, Note_on_c, 9, 46, 95
4, 56760, Note_off_c, 9, 43, 80
4, 56760, Note_off_c, 9, 46, 80
4, 56760, Note_on_c, 9, 43, 95
4, 56760, Note_on_c, 9, 36, 95
4, 56880, Note_off_c, 9, 43, 80
4, 56880, Note_off_c, 9, 36, 80
4, 56880, Note_on_c, 9, 41, 95
4, 56880, Note_on_c, 9, 36, 95
4, 56880, Note_on_c, 9, 46, 95
4, 57000, Note_off_c, 9, 41, 80
4, 57000, Note_off_c, 9, 36, 80
4, 57000, Note_off_c, 9, 46, 80
4, 57000, Note_on_c, 9, 41, 95
4, 57000, Note_on_c, 9, 36, 95
4, 57120, Note_off_c, 9, 41, 80
4, 57120, Note_off_c, 9, 36, 80
4, 57120, Note_on_c, 9, 40, 95
4, 57120, Note_on_c, 9, 55, 95
4, 57120, Note_on_c, 9, 46, 95
4, 57240, Note_off_c, 9, 40, 80
4, 57240, Note_off_c, 9, 55, 80
4, 57240, Note_off_c, 9, 46, 80
4, 57240, Note_on_c, 9, 40, 95
4, 57360, Note_off_c, 9, 40, 80
4, 57360, Note_on_c, 9, 45, 95
4, 57360, Note_on_c, 9, 46, 95
4, 57480, Note_off_c, 9, 45, 80
4, 57480, Note_off_c, 9, 46, 80
4, 57480, Note_on_c, 9, 45, 95
4, 57600, Note_off_c, 9, 45, 80
4, 57600, Note_on_c, 9, 36, 95
4, 57600, Note_on_c, 9, 35, 95
4, 57600, Note_on_c, 9, 57, 95
4, 57600, Note_on_c, 9, 46, 95
4, 57720, Note_off_c, 9, 36, 80
4, 57720, Note_off_c, 9, 35, 80
4, 57720, Note_off_c, 9, 57, 80
4, 57720, Note_off_c, 9, 46, 80
4, 57840, Note_on_c, 9, 46, 95
4, 57960, Note_off_c, 9, 46, 80
4, 57960, Note_on_c, 9, 45, 95
4, 58080, Note_off_c, 9, 45, 80
4, 58080, Note_on_c, 9, 43, 95
4, 58080, Note_on_c, 9, 40, 95
4, 58080, Note_on_c, 9, 49, 95
4, 58080, Note_on_c, 9, 46, 95
4, 58200, Note_off_c, 9, 43, 80
4, 58200, Note_off_c, 9, 40, 80
4, 58200, Note_off_c, 9, 49, 80
4, 58200, Note_off_c, 9, 46, 80
4, 58200, Note_on_c, 9, 43, 95
4, 58320, Note_off_c, 9, 43, 80
4, 58320, Note_on_c, 9, 41, 95
4, 58320, Note_on_c, 9, 40, 95
4, 58320, Note_on_c, 9, 55, 95
4, 58320, Note_on_c, 9, 46, 95
4, 58380, Note_off_c, 9, 41, 80
4, 58380, Note_off_c, 9, 40, 80
4, 58380, Note_off_c, 9, 55, 80
4, 58380, Note_off_c, 9, 46, 80
4, 58380, Note_on_c, 9, 41, 95
4, 58440, Note_off_c, 9, 41, 80
4, 58440, Note_on_c, 9, 40, 95
4, 58500, Note_off_c, 9, 40, 80
4, 58500, Note_on_c, 9, 40, 95
4, 58560, Note_off_c, 9, 40, 80
4, 58560, Note_on_c, 9, 36, 95
4, 58560, Note_on_c, 9, 35, 95
4, 58560, Note_on_c, 9, 46, 95
4, 58680, Note_off_c, 9, 36, 80
4, 58680, Note_off_c, 9, 35, 80
4, 58680, Note_off_c, 9, 46, 80
4, 58680, Note_on_c, 9, 45, 95
4, 58800, Note_off_c, 9, 45, 80
4, 58800, Note_on_c, 9, 43, 95
4, 58800, Note_on_c, 9, 46, 95
4, 58860, Note_off_c, 9, 43, 80
4, 58860, Note_off_c, 9, 46, 80
4, 58860, Note_on_c, 9, 43, 95
4, 58920, Note_off_c, 9, 43, 80
4, 58920, Note_on_c, 9, 43, 95
4, 59040, Note_off_c, 9, 43, 80
4, 59040, Note_on_c, 9, 41, 95
4, 59040, Note_on_c, 9, 46, 95
4, 59160, Note_off_c, 9, 41, 80
4, 59160, Note_off_c, 9, 46, 80
4, 59160, Note_on_c, 9, 41, 95
4, 59280, Note_off_c, 9, 41, 80
4, 59280, Note_on_c, 9, 40, 95
4, 59280, Note_on_c, 9, 46, 95
4, 59400, Note_off_c, 9, 40, 80
4, 59400, Note_off_c, 9, 46, 80
4, 59400, Note_on_c, 9, 40, 95
4, 59520, Note_off_c, 9, 40, 80
4, 59520, Note_on_c, 9, 45, 95
4, 59520, Note_on_c, 9, 36, 95
4, 59520, Note_on_c, 9, 57, 95
4, 59520, Note_on_c, 9, 46, 95
4, 59640, Note_off_c, 9, 45, 80
4, 59640, Note_off_c, 9, 36, 80
4, 59640, Note_off_c, 9, 57, 80
4, 59640, Note_off_c, 9, 46, 80
4, 59640, Note_on_c, 9, 45, 95
4, 59760, Note_off_c, 9, 45, 80
4, 59760, Note_on_c, 9, 41, 95
4, 59760, Note_on_c, 9, 46, 95
4, 59880, Note_off_c, 9, 41, 80
4, 59880, Note_off_c, 9, 46, 80
4, 59880, Note_on_c, 9, 41, 95
4, 60000, Note_off_c, 9, 41, 80
4, 60000, Note_on_c, 9, 36, 95
4, 60000, Note_on_c, 9, 35, 95
4, 60000, Note_on_c, 9, 46, 95
4, 60120, Note_off_c, 9, 36, 80
4, 60120, Note_off_c, 9, 35, 80
4, 60120, Note_off_c, 9, 46, 80
4, 60120, Note_on_c, 9, 36, 95
4, 60120, Note_on_c, 9, 35, 95
4, 60240, Note_off_c, 9, 36, 80
4, 60240, Note_off_c, 9, 35, 80
4, 60240, Note_on_c, 9, 36, 95
4, 60240, Note_on_c, 9, 35, 95
4, 60240, Note_on_c, 9, 57, 95
4, 60240, Note_on_c, 9, 46, 95
4, 60360, Note_off_c, 9, 36, 80
4, 60360, Note_off_c, 9, 35, 80
4, 60360, Note_off_c, 9, 57, 80
4, 60360, Note_off_c, 9, 46, 80
4, 60360, Note_on_c, 9, 36, 95
4, 60360, Note_on_c, 9, 35, 95
4, 60480, Note_off_c, 9, 36, 80
4, 60480, Note_off_c, 9, 35, 80
4, 60480, Note_on_c, 9, 43, 95
4, 60480, Note_on_c, 9, 46, 95
4, 60600, Note_off_c, 9, 43, 80
4, 60600, Note_off_c, 9, 46, 80
4, 60600, Note_on_c, 9, 43, 95
4, 60720, Note_off_c, 9, 43, 80
4, 60720, Note_on_c, 9, 45, 95
4, 60720, Note_on_c, 9, 46, 95
4, 60840, Note_off_c, 9, 45, 80
4, 60840, Note_off_c, 9, 46, 80
4, 60840, Note_on_c, 9, 45, 95
4, 60960, Note_off_c, 9, 45, 80
4, 60960, Note_on_c, 9, 41, 95
4, 60960, Note_on_c, 9, 35, 95
4, 60960, Note_on_c, 9, 46, 95
4, 61080, Note_off_c, 9, 41, 80
4, 61080, Note_off_c, 9, 35, 80
4, 61080, Note_off_c, 9, 46, 80
4, 61080, Note_on_c, 9, 41, 95
4, 61080, Note_on_c, 9, 35, 95
4, 61200, Note_off_c, 9, 41, 80
4, 61200, Note_off_c, 9, 35, 80
4, 61200, Note_on_c, 9, 36, 95
4, 61200, Note_on_c, 9, 35, 95
4, 61200, Note_on_c, 9, 57, 95
4, 61200, Note_on_c, 9, 46, 95
4, 61320, Note_off_c, 9, 36, 80
4, 61320, Note_off_c, 9, 35, 80
4, 61320, Note_off_c, 9, 57, 80
4, 61320, Note_off_c, 9, 46, 80
4, 61320, Note_on_c, 9, 36, 95
4, 61320, Note_on_c, 9, 35, 95
4, 61440, Note_off_c, 9, 36, 80
4, 61440, Note_off_c, 9, 35, 80
4, 61440, Note_on_c, 9, 48, 95
4, 61440, Note_on_c, 9, 46, 95
4, 61560, Note_off_c, 9, 48, 80
4, 61560, Note_off_c, 9, 46, 80
4, 61560, Note_on_c, 9, 48, 95
4, 61680, Note_off_c, 9, 48, 80
4, 61680, Note_on_c, 9, 45, 95
4, 61680, Note_on_c, 9, 46, 95
4, 61800, Note_off_c, 9, 45, 80
4, 61800, Note_off_c, 9, 46, 80
4, 61800, Note_on_c, 9, 45, 95
4, 61920, Note_off_c, 9, 45, 80
4, 61920, Note_on_c, 9, 41, 95
4, 61920, Note_on_c, 9, 35, 95
4, 61920, Note_on_c, 9, 46, 95
4, 62040, Note_off_c, 9, 41, 80
4, 62040, Note_off_c, 9, 35, 80
4, 62040, Note_off_c, 9, 46, 80
4, 62040, Note_on_c, 9, 41, 95
4, 62040, Note_on_c, 9, 35, 95
4, 62160, Note_off_c, 9, 41, 80
4, 62160, Note_off_c, 9, 35, 80
4, 62160, Note_on_c, 9, 36, 95
4, 62160, Note_on_c, 9, 35, 95
4, 62160, Note_on_c, 9, 57, 95
4, 62160, Note_on_c, 9, 46, 95
4, 62280, Note_off_c, 9, 36, 80
4, 62280, Note_off_c, 9, 35, 80
4, 62280, Note_off_c, 9, 57, 80
4, 62280, Note_off_c, 9, 46, 80
4, 62280, Note_on_c, 9, 36, 95
4, 62280, Note_on_c, 9, 35, 95
4, 62400, Note_off_c, 9, 36, 80
4, 62400, Note_off_c, 9, 35, 80
4, 62400, Note_on_c, 9, 40, 95
4, 62460, Note_off_c, 9, 40, 80
4, 62460, Note_on_c, 9, 40, 95
4, 62520, Note_off_c, 9, 40, 80
4, 62520, Note_on_c, 9, 40, 95
4, 62640, Note_off_c, 9, 40, 80
4, 62640, Note_on_c, 9, 40, 95
4, 62760, Note_off_c, 9, 40, 80
4, 62760, Note_on_c, 9, 40, 95
4, 62880, Note_off_c, 9, 40, 80
4, 62880, Note_on_c, 9, 40, 95
4, 63000, Note_off_c, 9, 40, 80
4, 63000, Note_on_c, 9, 43, 95
4, 63120, Note_off_c, 9, 43, 80
4, 63120, Note_on_c, 9, 41, 95
4, 63240, Note_off_c, 9, 41, 80
4, 63240, Note_on_c, 9, 41, 95
4, 63360, Note_off_c, 9, 41, 80
4, 63360, Note_on_c, 9, 36, 95
4, 63360, Note_on_c, 9, 57, 95
4, 63360, Note_on_c, 9, 40, 95
4, 63480, Note_off_c, 9, 36, 80
4, 63480, Note_off_c, 9, 57, 80
4, 63480, Note_off_c, 9, 40, 80
4, 63480, Note_on_c, 9, 36, 95
4, 63480, Note_on_c, 9, 35, 95
4, 63600, Note_off_c, 9, 36, 80
4, 63600, Note_off_c, 9, 35, 80
4, 63600, Note_on_c, 9, 36, 95
4, 63600, Note_on_c, 9, 35, 95
4, 63720, Note_off_c, 9, 36, 80
4, 63720, Note_off_c, 9, 35, 80
4, 63720, Note_on_c, 9, 36, 95
4, 63720, Note_on_c, 9, 35, 95
4, 63840, Note_off_c, 9, 36, 80
4, 63840, Note_off_c, 9, 35, 80
4, 63840, Note_on_c, 9, 36, 95
4, 63840, Note_on_c, 9, 35, 95
4, 63960, Note_off_c, 9, 36, 80
4, 63960, Note_off_c, 9, 35, 80
4, 63960, Note_on_c, 9, 36, 95
4, 63960, Note_on_c, 9, 35, 95
4, 64080, Note_off_c, 9, 36, 80
4, 64080, Note_off_c, 9, 35, 80
4, 64080, Note_on_c, 9, 36, 95
4, 64080, Note_on_c, 9, 35, 95
4, 64200, Note_off_c, 9, 36, 80
4, 64200, Note_off_c, 9, 35, 80
4, 64200, Note_on_c, 9, 36, 95
4, 64200, Note_on_c, 9, 35, 95
4, 64320, Note_off_c, 9, 36, 80
4, 64320, Note_off_c, 9, 35, 80
4, 64320, Note_on_c, 9, 36, 95
4, 64320, Note_on_c, 9, 57, 95
4, 64320, Note_on_c, 9, 40, 95
4, 64440, Note_off_c, 9, 36, 80
4, 64440, Note_off_c, 9, 57, 80
4, 64440, Note_off_c, 9, 40, 80
4, 64440, Note_on_c, 9, 36, 95
4, 64440, Note_on_c, 9, 35, 95
4, 64560, Note_off_c, 9, 36, 80
4, 64560, Note_off_c, 9, 35, 80
4, 64560, Note_on_c, 9, 36, 95
4, 64560, Note_on_c, 9, 35, 95
4, 64680, Note_off_c, 9, 36, 80
4, 64680, Note_off_c, 9, 35, 80
4, 64680, Note_on_c, 9, 36, 95
4, 64680, Note_on_c, 9, 35, 95
4, 64800, Note_off_c, 9, 36, 80
4, 64800, Note_off_c, 9, 35, 80
4, 64800, Note_on_c, 9, 36, 95
4, 64800, Note_on_c, 9, 35, 95
4, 64920, Note_off_c, 9, 36, 80
4, 64920, Note_off_c, 9, 35, 80
4, 64920, Note_on_c, 9, 36, 95
4, 64920, Note_on_c, 9, 35, 95
4, 65040, Note_off_c, 9, 36, 80
4, 65040, Note_off_c, 9, 35, 80
4, 65040, Note_on_c, 9, 36, 95
4, 65040, Note_on_c, 9, 35, 95
4, 65160, Note_off_c, 9, 36, 80
4, 65160, Note_off_c, 9, 35, 80
4, 65160, Note_on_c, 9, 36, 95
4, 65160, Note_on_c, 9, 35, 95
4, 65280, Note_off_c, 9, 36, 80
4, 65280, Note_off_c, 9, 35, 80
4, 65280, Note_on_c, 9, 36, 95
4, 65280, Note_on_c, 9, 35, 95
4, 65400, Note_off_c, 9, 36, 80
4, 65400, Note_off_c, 9, 35, 80
4, 65400, Note_on_c, 9, 36, 95
4, 65400, Note_on_c, 9, 35, 95
4, 65520, Note_off_c, 9, 36, 80
4, 65520, Note_off_c, 9, 35, 80
4, 65640, Note_on_c, 9, 36, 95
4, 65640, Note_on_c, 9, 35, 95
4, 65760, Note_off_c, 9, 36, 80
4, 65760, Note_off_c, 9, 35, 80
4, 65760, Note_on_c, 9, 40, 95
4, 65760, Note_on_c, 9, 49, 95
4, 65880, Note_off_c, 9, 40, 80
4, 65880, Note_off_c, 9, 49, 80
4, 66000, Note_on_c, 9, 40, 95
4, 66060, Note_off_c, 9, 40, 80
4, 66060, Note_on_c, 9, 40, 95
4, 66120, Note_off_c, 9, 40, 80
4, 66120, Note_on_c, 9, 40, 95
4, 66180, Note_off_c, 9, 40, 80
4, 66180, Note_on_c, 9, 40, 95
4, 66240, Note_off_c, 9, 40, 80
4, 66240, Note_on_c, 9, 36, 95
4, 66240, Note_on_c, 9, 57, 95
4, 66240, Note_on_c, 9, 40, 95
4, 66360, Note_off_c, 9, 36, 80
4, 66360, Note_off_c, 9, 57, 80
4, 66360, Note_off_c, 9, 40, 80
4, 66360, Note_on_c, 9, 36, 95
4, 66360, Note_on_c, 9, 35, 95
4, 66480, Note_off_c, 9, 36, 80
4, 66480, Note_off_c, 9, 35, 80
4, 66480, Note_on_c, 9, 36, 95
4, 66480, Note_on_c, 9, 35, 95
4, 66480, Note_on_c, 9, 40, 95
4, 66600, Note_off_c, 9, 36, 80
4, 66600, Note_off_c, 9, 35, 80
4, 66600, Note_off_c, 9, 40, 80
4, 66600, Note_on_c, 9, 36, 95
4, 66600, Note_on_c, 9, 35, 95
4, 66720, Note_off_c, 9, 36, 80
4, 66720, Note_off_c, 9, 35, 80
4, 66720, Note_on_c, 9, 36, 95
4, 66720, Note_on_c, 9, 35, 95
4, 66720, Note_on_c, 9, 40, 95
4, 66720, Note_on_c, 9, 57, 95
4, 66840, Note_off_c, 9, 36, 80
4, 66840, Note_off_c, 9, 35, 80
4, 66840, Note_off_c, 9, 40, 80
4, 66840, Note_off_c, 9, 57, 80
4, 66840, Note_on_c, 9, 36, 95
4, 66840, Note_on_c, 9, 35, 95
4, 66840, Note_on_c, 9, 40, 95
4, 66960, Note_off_c, 9, 36, 80
4, 66960, Note_off_c, 9, 35, 80
4, 66960, Note_off_c, 9, 40, 80
4, 66960, Note_on_c, 9, 36, 95
4, 66960, Note_on_c, 9, 35, 95
4, 66960, Note_on_c, 9, 40, 95
4, 67080, Note_off_c, 9, 36, 80
4, 67080, Note_off_c, 9, 35, 80
4, 67080, Note_off_c, 9, 40, 80
4, 67080, Note_on_c, 9, 36, 95
4, 67080, Note_on_c, 9, 35, 95
4, 67080, Note_on_c, 9, 40, 95
4, 67200, Note_off_c, 9, 36, 80
4, 67200, Note_off_c, 9, 35, 80
4, 67200, Note_off_c, 9, 40, 80
4, 67200, Note_on_c, 9, 36, 95
4, 67200, Note_on_c, 9, 35, 95
4, 67200, Note_on_c, 9, 57, 95
4, 67200, Note_on_c, 9, 49, 95
4, 67200, Note_on_c, 9, 55, 95
4, 67680, Note_off_c, 9, 36, 80
4, 67680, Note_off_c, 9, 35, 80
4, 67680, Note_off_c, 9, 57, 80
4, 67680, Note_off_c, 9, 49, 80
4, 67680, Note_off_c, 9, 55, 80
4, 68640, Note_on_c, 9, 40, 95
4, 68640, Note_on_c, 9, 57, 95
4, 68760, Note_off_c, 9, 40, 80
4, 68760, Note_off_c, 9, 57, 80
4, 69120, Note_on_c, 9, 36, 95
4, 69120, Note_on_c, 9, 35, 95
4, 69120, Note_on_c, 9, 46, 95
4, 69120, Note_on_c, 9, 55, 95
4, 69120, Note_on_c, 9, 53, 95
4, 69240, Note_off_c, 9, 36, 80
4, 69240, Note_off_c, 9, 35, 80
4, 69240, Note_off_c, 9, 46, 80
4, 69240, Note_off_c, 9, 55, 80
4, 69240, Note_off_c, 9, 53, 80
4, 69240, Note_on_c, 9, 36, 95
4, 69240, Note_on_c, 9, 35, 95
4, 69240, Note_on_c, 9, 53, 95
4, 69360, Note_off_c, 9, 36, 80
4, 69360, Note_off_c, 9, 35, 80
4, 69360, Note_off_c, 9, 53, 80
4, 69360, Note_on_c, 9, 40, 95
4, 69360, Note_on_c, 9, 46, 95
4, 69360, Note_on_c, 9, 53, 95
4, 69480, Note_off_c, 9, 40, 80
4, 69480, Note_off_c, 9, 46, 80
4, 69480, Note_off_c, 9, 53, 80
4, 69480, Note_on_c, 9, 36, 95
4, 69480, Note_on_c, 9, 35, 95
4, 69480, Note_on_c, 9, 53, 95
4, 69600, Note_off_c, 9, 36, 80
4, 69600, Note_off_c, 9, 35, 80
4, 69600, Note_off_c, 9, 53, 80
4, 69600, Note_on_c, 9, 36, 95
4, 69600, Note_on_c, 9, 35, 95
4, 69600, Note_on_c, 9, 46, 95
4, 69600, Note_on_c, 9, 53, 95
4, 69720, Note_off_c, 9, 36, 80
4, 69720, Note_off_c, 9, 35, 80
4, 69720, Note_off_c, 9, 46, 80
4, 69720, Note_off_c, 9, 53, 80
4, 69720, Note_on_c, 9, 36, 95
4, 69720, Note_on_c, 9, 35, 95
4, 69720, Note_on_c, 9, 53, 95
4, 69840, Note_off_c, 9, 36, 80
4, 69840, Note_off_c, 9, 35, 80
4, 69840, Note_off_c, 9, 53, 80
4, 69840, Note_on_c, 9, 40, 95
4, 69840, Note_on_c, 9, 46, 95
4, 69840, Note_on_c, 9, 53, 95
4, 69960, Note_off_c, 9, 40, 80
4, 69960, Note_off_c, 9, 46, 80
4, 69960, Note_off_c, 9, 53, 80
4, 69960, Note_on_c, 9, 36, 95
4, 69960, Note_on_c, 9, 35, 95
4, 69960, Note_on_c, 9, 53, 95
4, 70080, Note_off_c, 9, 36, 80
4, 70080, Note_off_c, 9, 35, 80
4, 70080, Note_off_c, 9, 53, 80
4, 70080, Note_on_c, 9, 36, 95
4, 70080, Note_on_c, 9, 35, 95
4, 70080, Note_on_c, 9, 46, 95
4, 70080, Note_on_c, 9, 53, 95
4, 70200, Note_off_c, 9, 36, 80
4, 70200, Note_off_c, 9, 35, 80
4, 70200, Note_off_c, 9, 46, 80
4, 70200, Note_off_c, 9, 53, 80
4, 70200, Note_on_c, 9, 36, 95
4, 70200, Note_on_c, 9, 35, 95
4, 70200, Note_on_c, 9, 53, 95
4, 70320, Note_off_c, 9, 36, 80
4, 70320, Note_off_c, 9, 35, 80
4, 70320, Note_off_c, 9, 53, 80
4, 70320, Note_on_c, 9, 40, 95
4, 70320, Note_on_c, 9, 46, 95
4, 70320, Note_on_c, 9, 53, 95
4, 70440, Note_off_c, 9, 40, 80
4, 70440, Note_off_c, 9, 46, 80
4, 70440, Note_off_c, 9, 53, 80
4, 70440, Note_on_c, 9, 36, 95
4, 70440, Note_on_c, 9, 35, 95
4, 70440, Note_on_c, 9, 53, 95
4, 70560, Note_off_c, 9, 36, 80
4, 70560, Note_off_c, 9, 35, 80
4, 70560, Note_off_c, 9, 53, 80
4, 70560, Note_on_c, 9, 36, 95
4, 70560, Note_on_c, 9, 35, 95
4, 70560, Note_on_c, 9, 46, 95
4, 70560, Note_on_c, 9, 53, 95
4, 70680, Note_off_c, 9, 36, 80
4, 70680, Note_off_c, 9, 35, 80
4, 70680, Note_off_c, 9, 46, 80
4, 70680, Note_off_c, 9, 53, 80
4, 70680, Note_on_c, 9, 36, 95
4, 70680, Note_on_c, 9, 35, 95
4, 70680, Note_on_c, 9, 53, 95
4, 70800, Note_off_c, 9, 36, 80
4, 70800, Note_off_c, 9, 35, 80
4, 70800, Note_off_c, 9, 53, 80
4, 70800, Note_on_c, 9, 40, 95
4, 70800, Note_on_c, 9, 46, 95
4, 70800, Note_on_c, 9, 53, 95
4, 70920, Note_off_c, 9, 40, 80
4, 70920, Note_off_c, 9, 46, 80
4, 70920, Note_off_c, 9, 53, 80
4, 70920, Note_on_c, 9, 36, 95
4, 70920, Note_on_c, 9, 35, 95
4, 70920, Note_on_c, 9, 53, 95
4, 71040, Note_off_c, 9, 36, 80
4, 71040, Note_off_c, 9, 35, 80
4, 71040, Note_off_c, 9, 53, 80
4, 71040, Note_on_c, 9, 36, 95
4, 71040, Note_on_c, 9, 35, 95
4, 71040, Note_on_c, 9, 53, 95
4, 71160, Note_off_c, 9, 36, 80
4, 71160, Note_off_c, 9, 35, 80
4, 71160, Note_off_c, 9, 53, 80
4, 71160, Note_on_c, 9, 36, 95
4, 71160, Note_on_c, 9, 35, 95
4, 71160, Note_on_c, 9, 53, 95
4, 71280, Note_off_c, 9, 36, 80
4, 71280, Note_off_c, 9, 35, 80
4, 71280, Note_off_c, 9, 53, 80
4, 71280, Note_on_c, 9, 40, 95
4, 71280, Note_on_c, 9, 57, 95
4, 71280, Note_on_c, 9, 53, 95
4, 71400, Note_off_c, 9, 40, 80
4, 71400, Note_off_c, 9, 57, 80
4, 71400, Note_off_c, 9, 53, 80
4, 71400, Note_on_c, 9, 53, 95
4, 71520, Note_off_c, 9, 53, 80
4, 71520, Note_on_c, 9, 36, 95
4, 71520, Note_on_c, 9, 35, 95
4, 71520, Note_on_c, 9, 53, 95
4, 71640, Note_off_c, 9, 36, 80
4, 71640, Note_off_c, 9, 35, 80
4, 71640, Note_off_c, 9, 53, 80
4, 71640, Note_on_c, 9, 36, 95
4, 71640, Note_on_c, 9, 35, 95
4, 71640, Note_on_c, 9, 53, 95
4, 71760, Note_off_c, 9, 36, 80
4, 71760, Note_off_c, 9, 35, 80
4, 71760, Note_off_c, 9, 53, 80
4, 71760, Note_on_c, 9, 40, 95
4, 71760, Note_on_c, 9, 55, 95
4, 71760, Note_on_c, 9, 53, 95
4, 71880, Note_off_c, 9, 40, 80
4, 71880, Note_off_c, 9, 55, 80
4, 71880, Note_off_c, 9, 53, 80
4, 71880, Note_on_c, 9, 36, 95
4, 71880, Note_on_c, 9, 35, 95
4, 71880, Note_on_c, 9, 53, 95
4, 72000, Note_off_c, 9, 36, 80
4, 72000, Note_off_c, 9, 35, 80
4, 72000, Note_off_c, 9, 53, 80
4, 72000, Note_on_c, 9, 36, 95
4, 72000, Note_on_c, 9, 35, 95
4, 72000, Note_on_c, 9, 53, 95
4, 72120, Note_off_c, 9, 36, 80
4, 72120, Note_off_c, 9, 35, 80
4, 72120, Note_off_c, 9, 53, 80
4, 72120, Note_on_c, 9, 36, 95
4, 72120, Note_on_c, 9, 35, 95
4, 72120, Note_on_c, 9, 53, 95
4, 72240, Note_off_c, 9, 36, 80
4, 72240, Note_off_c, 9, 35, 80
4, 72240, Note_off_c, 9, 53, 80
4, 72240, Note_on_c, 9, 40, 95
4, 72240, Note_on_c, 9, 57, 95
4, 72240, Note_on_c, 9, 53, 95
4, 72360, Note_off_c, 9, 40, 80
4, 72360, Note_off_c, 9, 57, 80
4, 72360, Note_off_c, 9, 53, 80
4, 72360, Note_on_c, 9, 36, 95
4, 72360, Note_on_c, 9, 35, 95
4, 72360, Note_on_c, 9, 53, 95
4, 72480, Note_off_c, 9, 36, 80
4, 72480, Note_off_c, 9, 35, 80
4, 72480, Note_off_c, 9, 53, 80
4, 72480, Note_on_c, 9, 36, 95
4, 72480, Note_on_c, 9, 35, 95
4, 72480, Note_on_c, 9, 53, 95
4, 72600, Note_off_c, 9, 36, 80
4, 72600, Note_off_c, 9, 35, 80
4, 72600, Note_off_c, 9, 53, 80
4, 72600, Note_on_c, 9, 36, 95
4, 72600, Note_on_c, 9, 35, 95
4, 72600, Note_on_c, 9, 53, 95
4, 72720, Note_off_c, 9, 36, 80
4, 72720, Note_off_c, 9, 35, 80
4, 72720, Note_off_c, 9, 53, 80
4, 72720, Note_on_c, 9, 40, 95
4, 72720, Note_on_c, 9, 55, 95
4, 72720, Note_on_c, 9, 53, 95
4, 72840, Note_off_c, 9, 40, 80
4, 72840, Note_off_c, 9, 55, 80
4, 72840, Note_off_c, 9, 53, 80
4, 72840, Note_on_c, 9, 36, 95
4, 72840, Note_on_c, 9, 35, 95
4, 72840, Note_on_c, 9, 53, 95
4, 72960, Note_off_c, 9, 36, 80
4, 72960, Note_off_c, 9, 35, 80
4, 72960, Note_off_c, 9, 53, 80
4, 72960, Note_on_c, 9, 36, 95
4, 72960, Note_on_c, 9, 35, 95
4, 72960, Note_on_c, 9, 46, 95
4, 72960, Note_on_c, 9, 53, 95
4, 73080, Note_off_c, 9, 36, 80
4, 73080, Note_off_c, 9, 35, 80
4, 73080, Note_off_c, 9, 46, 80
4, 73080, Note_off_c, 9, 53, 80
4, 73080, Note_on_c, 9, 36, 95
4, 73080, Note_on_c, 9, 35, 95
4, 73080, Note_on_c, 9, 53, 95
4, 73200, Note_off_c, 9, 36, 80
4, 73200, Note_off_c, 9, 35, 80
4, 73200, Note_off_c, 9, 53, 80
4, 73200, Note_on_c, 9, 40, 95
4, 73200, Note_on_c, 9, 57, 95
4, 73200, Note_on_c, 9, 46, 95
4, 73200, Note_on_c, 9, 53, 95
4, 73320, Note_off_c, 9, 40, 80
4, 73320, Note_off_c, 9, 57, 80
4, 73320, Note_off_c, 9, 46, 80
4, 73320, Note_off_c, 9, 53, 80
4, 73320, Note_on_c, 9, 53, 95
4, 73440, Note_off_c, 9, 53, 80
4, 73440, Note_on_c, 9, 36, 95
4, 73440, Note_on_c, 9, 35, 95
4, 73440, Note_on_c, 9, 46, 95
4, 73440, Note_on_c, 9, 53, 95
4, 73560, Note_off_c, 9, 36, 80
4, 73560, Note_off_c, 9, 35, 80
4, 73560, Note_off_c, 9, 46, 80
4, 73560, Note_off_c, 9, 53, 80
4, 73560, Note_on_c, 9, 36, 95
4, 73560, Note_on_c, 9, 35, 95
4, 73560, Note_on_c, 9, 53, 95
4, 73680, Note_off_c, 9, 36, 80
4, 73680, Note_off_c, 9, 35, 80
4, 73680, Note_off_c, 9, 53, 80
4, 73680, Note_on_c, 9, 40, 95
4, 73680, Note_on_c, 9, 55, 95
4, 73680, Note_on_c, 9, 46, 95
4, 73680, Note_on_c, 9, 53, 95
4, 73800, Note_off_c, 9, 40, 80
4, 73800, Note_off_c, 9, 55, 80
4, 73800, Note_off_c, 9, 46, 80
4, 73800, Note_off_c, 9, 53, 80
4, 73800, Note_on_c, 9, 36, 95
4, 73800, Note_on_c, 9, 35, 95
4, 73800, Note_on_c, 9, 53, 95
4, 73920, Note_off_c, 9, 36, 80
4, 73920, Note_off_c, 9, 35, 80
4, 73920, Note_off_c, 9, 53, 80
4, 73920, Note_on_c, 9, 36, 95
4, 73920, Note_on_c, 9, 35, 95
4, 73920, Note_on_c, 9, 46, 95
4, 73920, Note_on_c, 9, 53, 95
4, 74040, Note_off_c, 9, 36, 80
4, 74040, Note_off_c, 9, 35, 80
4, 74040, Note_off_c, 9, 46, 80
4, 74040, Note_off_c, 9, 53, 80
4, 74040, Note_on_c, 9, 36, 95
4, 74040, Note_on_c, 9, 35, 95
4, 74040, Note_on_c, 9, 53, 95
4, 74160, Note_off_c, 9, 36, 80
4, 74160, Note_off_c, 9, 35, 80
4, 74160, Note_off_c, 9, 53, 80
4, 74160, Note_on_c, 9, 40, 95
4, 74160, Note_on_c, 9, 57, 95
4, 74160, Note_on_c, 9, 46, 95
4, 74160, Note_on_c, 9, 53, 95
4, 74280, Note_off_c, 9, 40, 80
4, 74280, Note_off_c, 9, 57, 80
4, 74280, Note_off_c, 9, 46, 80
4, 74280, Note_off_c, 9, 53, 80
4, 74280, Note_on_c, 9, 36, 95
4, 74280, Note_on_c, 9, 35, 95
4, 74280, Note_on_c, 9, 53, 95
4, 74400, Note_off_c, 9, 36, 80
4, 74400, Note_off_c, 9, 35, 80
4, 74400, Note_off_c, 9, 53, 80
4, 74400, Note_on_c, 9, 40, 95
4, 74400, Note_on_c, 9, 49, 95
4, 74400, Note_on_c, 9, 46, 95
4, 74400, Note_on_c, 9, 53, 95
4, 74520, Note_off_c, 9, 40, 80
4, 74520, Note_off_c, 9, 49, 80
4, 74520, Note_off_c, 9, 46, 80
4, 74520, Note_off_c, 9, 53, 80
4, 74520, Note_on_c, 9, 36, 95
4, 74520, Note_on_c, 9, 35, 95
4, 74520, Note_on_c, 9, 53, 95
4, 74640, Note_off_c, 9, 36, 80
4, 74640, Note_off_c, 9, 35, 80
4, 74640, Note_off_c, 9, 53, 80
4, 74640, Note_on_c, 9, 40, 95
4, 74640, Note_on_c, 9, 55, 95
4, 74640, Note_on_c, 9, 46, 95
4, 74640, Note_on_c, 9, 53, 95
4, 74760, Note_off_c, 9, 40, 80
4, 74760, Note_off_c, 9, 55, 80
4, 74760, Note_off_c, 9, 46, 80
4, 74760, Note_off_c, 9, 53, 80
4, 74760, Note_on_c, 9, 36, 95
4, 74760, Note_on_c, 9, 35, 95
4, 74760, Note_on_c, 9, 53, 95
4, 74880, Note_off_c, 9, 36, 80
4, 74880, Note_off_c, 9, 35, 80
4, 74880, Note_off_c, 9, 53, 80
4, 74880, Note_on_c, 9, 36, 95
4, 74880, Note_on_c, 9, 35, 95
4, 74880, Note_on_c, 9, 46, 95
4, 74880, Note_on_c, 9, 53, 95
4, 75000, Note_off_c, 9, 36, 80
4, 75000, Note_off_c, 9, 35, 80
4, 75000, Note_off_c, 9, 46, 80
4, 75000, Note_off_c, 9, 53, 80
4, 75000, Note_on_c, 9, 36, 95
4, 75000, Note_on_c, 9, 35, 95
4, 75000, Note_on_c, 9, 53, 95
4, 75120, Note_off_c, 9, 36, 80
4, 75120, Note_off_c, 9, 35, 80
4, 75120, Note_off_c, 9, 53, 80
4, 75120, Note_on_c, 9, 40, 95
4, 75120, Note_on_c, 9, 57, 95
4, 75120, Note_on_c, 9, 46, 95
4, 75120, Note_on_c, 9, 53, 95
4, 75240, Note_off_c, 9, 40, 80
4, 75240, Note_off_c, 9, 57, 80
4, 75240, Note_off_c, 9, 46, 80
4, 75240, Note_off_c, 9, 53, 80
4, 75240, Note_on_c, 9, 36, 95
4, 75240, Note_on_c, 9, 35, 95
4, 75240, Note_on_c, 9, 53, 95
4, 75360, Note_off_c, 9, 36, 80
4, 75360, Note_off_c, 9, 35, 80
4, 75360, Note_off_c, 9, 53, 80
4, 75360, Note_on_c, 9, 36, 95
4, 75360, Note_on_c, 9, 35, 95
4, 75360, Note_on_c, 9, 46, 95
4, 75360, Note_on_c, 9, 53, 95
4, 75480, Note_off_c, 9, 36, 80
4, 75480, Note_off_c, 9, 35, 80
4, 75480, Note_off_c, 9, 46, 80
4, 75480, Note_off_c, 9, 53, 80
4, 75480, Note_on_c, 9, 36, 95
4, 75480, Note_on_c, 9, 35, 95
4, 75480, Note_on_c, 9, 53, 95
4, 75600, Note_off_c, 9, 36, 80
4, 75600, Note_off_c, 9, 35, 80
4, 75600, Note_off_c, 9, 53, 80
4, 75600, Note_on_c, 9, 40, 95
4, 75600, Note_on_c, 9, 46, 95
4, 75600, Note_on_c, 9, 53, 95
4, 75720, Note_off_c, 9, 40, 80
4, 75720, Note_off_c, 9, 46, 80
4, 75720, Note_off_c, 9, 53, 80
4, 75720, Note_on_c, 9, 36, 95
4, 75720, Note_on_c, 9, 35, 95
4, 75720, Note_on_c, 9, 53, 95
4, 75840, Note_off_c, 9, 36, 80
4, 75840, Note_off_c, 9, 35, 80
4, 75840, Note_off_c, 9, 53, 80
4, 75840, Note_on_c, 9, 36, 95
4, 75840, Note_on_c, 9, 35, 95
4, 75840, Note_on_c, 9, 46, 95
4, 75840, Note_on_c, 9, 53, 95
4, 75960, Note_off_c, 9, 36, 80
4, 75960, Note_off_c, 9, 35, 80
4, 75960, Note_off_c, 9, 46, 80
4, 75960, Note_off_c, 9, 53, 80
4, 75960, Note_on_c, 9, 36, 95
4, 75960, Note_on_c, 9, 35, 95
4, 75960, Note_on_c, 9, 53, 95
4, 76080, Note_off_c, 9, 36, 80
4, 76080, Note_off_c, 9, 35, 80
4, 76080, Note_off_c, 9, 53, 80
4, 76080, Note_on_c, 9, 40, 95
4, 76080, Note_on_c, 9, 49, 95
4, 76080, Note_on_c, 9, 46, 95
4, 76080, Note_on_c, 9, 53, 95
4, 76200, Note_off_c, 9, 40, 80
4, 76200, Note_off_c, 9, 49, 80
4, 76200, Note_off_c, 9, 46, 80
4, 76200, Note_off_c, 9, 53, 80
4, 76200, Note_on_c, 9, 36, 95
4, 76200, Note_on_c, 9, 35, 95
4, 76200, Note_on_c, 9, 53, 95
4, 76260, Note_off_c, 9, 36, 80
4, 76260, Note_off_c, 9, 35, 80
4, 76260, Note_off_c, 9, 53, 80
4, 76260, Note_on_c, 9, 36, 95
4, 76260, Note_on_c, 9, 35, 95
4, 76320, Note_off_c, 9, 36, 80
4, 76320, Note_off_c, 9, 35, 80
4, 76320, Note_on_c, 9, 36, 95
4, 76320, Note_on_c, 9, 35, 95
4, 76320, Note_on_c, 9, 46, 95
4, 76320, Note_on_c, 9, 53, 95
4, 76380, Note_off_c, 9, 36, 80
4, 76380, Note_off_c, 9, 35, 80
4, 76380, Note_off_c, 9, 46, 80
4, 76380, Note_off_c, 9, 53, 80
4, 76380, Note_on_c, 9, 36, 95
4, 76380, Note_on_c, 9, 35, 95
4, 76440, Note_off_c, 9, 36, 80
4, 76440, Note_off_c, 9, 35, 80
4, 76440, Note_on_c, 9, 36, 95
4, 76440, Note_on_c, 9, 35, 95
4, 76440, Note_on_c, 9, 53, 95
4, 76500, Note_off_c, 9, 36, 80
4, 76500, Note_off_c, 9, 35, 80
4, 76500, Note_off_c, 9, 53, 80
4, 76500, Note_on_c, 9, 36, 95
4, 76500, Note_on_c, 9, 35, 95
4, 76560, Note_off_c, 9, 36, 80
4, 76560, Note_off_c, 9, 35, 80
4, 76560, Note_on_c, 9, 36, 95
4, 76560, Note_on_c, 9, 35, 95
4, 76560, Note_on_c, 9, 46, 95
4, 76560, Note_on_c, 9, 40, 95
4, 76560, Note_on_c, 9, 53, 95
4, 76620, Note_off_c, 9, 36, 80
4, 76620, Note_off_c, 9, 35, 80
4, 76620, Note_off_c, 9, 46, 80
4, 76620, Note_off_c, 9, 40, 80
4, 76620, Note_off_c, 9, 53, 80
4, 76620, Note_on_c, 9, 36, 95
4, 76620, Note_on_c, 9, 35, 95
4, 76680, Note_off_c, 9, 36, 80
4, 76680, Note_off_c, 9, 35, 80
4, 76680, Note_on_c, 9, 36, 95
4, 76680, Note_on_c, 9, 35, 95
4, 76680, Note_on_c, 9, 53, 95
4, 76740, Note_off_c, 9, 36, 80
4, 76740, Note_off_c, 9, 35, 80
4, 76740, Note_off_c, 9, 53, 80
4, 76740, Note_on_c, 9, 36, 95
4, 76740, Note_on_c, 9, 35, 95
4, 76800, Note_off_c, 9, 36, 80
4, 76800, Note_off_c, 9, 35, 80
4, 76800, Note_on_c, 9, 36, 95
4, 76800, Note_on_c, 9, 35, 95
4, 76800, Note_on_c, 9, 46, 95
4, 76800, Note_on_c, 9, 55, 95
4, 76800, Note_on_c, 9, 53, 95
4, 76920, Note_off_c, 9, 36, 80
4, 76920, Note_off_c, 9, 35, 80
4, 76920, Note_off_c, 9, 46, 80
4, 76920, Note_off_c, 9, 55, 80
4, 76920, Note_off_c, 9, 53, 80
4, 76920, Note_on_c, 9, 36, 95
4, 76920, Note_on_c, 9, 35, 95
4, 76920, Note_on_c, 9, 53, 95
4, 77040, Note_off_c, 9, 36, 80
4, 77040, Note_off_c, 9, 35, 80
4, 77040, Note_off_c, 9, 53, 80
4, 77040, Note_on_c, 9, 40, 95
4, 77040, Note_on_c, 9, 46, 95
4, 77040, Note_on_c, 9, 53, 95
4, 77160, Note_off_c, 9, 40, 80
4, 77160, Note_off_c, 9, 46, 80
4, 77160, Note_off_c, 9, 53, 80
4, 77160, Note_on_c, 9, 36, 95
4, 77160, Note_on_c, 9, 35, 95
4, 77160, Note_on_c, 9, 53, 95
4, 77280, Note_off_c, 9, 36, 80
4, 77280, Note_off_c, 9, 35, 80
4, 77280, Note_off_c, 9, 53, 80
4, 77280, Note_on_c, 9, 36, 95
4, 77280, Note_on_c, 9, 35, 95
4, 77280, Note_on_c, 9, 46, 95
4, 77280, Note_on_c, 9, 53, 95
4, 77400, Note_off_c, 9, 36, 80
4, 77400, Note_off_c, 9, 35, 80
4, 77400, Note_off_c, 9, 46, 80
4, 77400, Note_off_c, 9, 53, 80
4, 77400, Note_on_c, 9, 36, 95
4, 77400, Note_on_c, 9, 35, 95
4, 77400, Note_on_c, 9, 53, 95
4, 77520, Note_off_c, 9, 36, 80
4, 77520, Note_off_c, 9, 35, 80
4, 77520, Note_off_c, 9, 53, 80
4, 77520, Note_on_c, 9, 40, 95
4, 77520, Note_on_c, 9, 46, 95
4, 77520, Note_on_c, 9, 53, 95
4, 77640, Note_off_c, 9, 40, 80
4, 77640, Note_off_c, 9, 46, 80
4, 77640, Note_off_c, 9, 53, 80
4, 77640, Note_on_c, 9, 36, 95
4, 77640, Note_on_c, 9, 35, 95
4, 77640, Note_on_c, 9, 53, 95
4, 77760, Note_off_c, 9, 36, 80
4, 77760, Note_off_c, 9, 35, 80
4, 77760, Note_off_c, 9, 53, 80
4, 77760, Note_on_c, 9, 36, 95
4, 77760, Note_on_c, 9, 35, 95
4, 77760, Note_on_c, 9, 46, 95
4, 77760, Note_on_c, 9, 53, 95
4, 77880, Note_off_c, 9, 36, 80
4, 77880, Note_off_c, 9, 35, 80
4, 77880, Note_off_c, 9, 46, 80
4, 77880, Note_off_c, 9, 53, 80
4, 77880, Note_on_c, 9, 36, 95
4, 77880, Note_on_c, 9, 35, 95
4, 77880, Note_on_c, 9, 53, 95
4, 78000, Note_off_c, 9, 36, 80
4, 78000, Note_off_c, 9, 35, 80
4, 78000, Note_off_c, 9, 53, 80
4, 78000, Note_on_c, 9, 40, 95
4, 78000, Note_on_c, 9, 46, 95
4, 78000, Note_on_c, 9, 53, 95
4, 78120, Note_off_c, 9, 40, 80
4, 78120, Note_off_c, 9, 46, 80
4, 78120, Note_off_c, 9, 53, 80
4, 78120, Note_on_c, 9, 36, 95
4, 78120, Note_on_c, 9, 35, 95
4, 78120, Note_on_c, 9, 53, 95
4, 78240, Note_off_c, 9, 36, 80
4, 78240, Note_off_c, 9, 35, 80
4, 78240, Note_off_c, 9, 53, 80
4, 78240, Note_on_c, 9, 36, 95
4, 78240, Note_on_c, 9, 35, 95
4, 78240, Note_on_c, 9, 46, 95
4, 78240, Note_on_c, 9, 53, 95
4, 78360, Note_off_c, 9, 36, 80
4, 78360, Note_off_c, 9, 35, 80
4, 78360, Note_off_c, 9, 46, 80
4, 78360, Note_off_c, 9, 53, 80
4, 78360, Note_on_c, 9, 36, 95
4, 78360, Note_on_c, 9, 35, 95
4, 78360, Note_on_c, 9, 53, 95
4, 78480, Note_off_c, 9, 36, 80
4, 78480, Note_off_c, 9, 35, 80
4, 78480, Note_off_c, 9, 53, 80
4, 78480, Note_on_c, 9, 40, 95
4, 78480, Note_on_c, 9, 46, 95
4, 78480, Note_on_c, 9, 53, 95
4, 78600, Note_off_c, 9, 40, 80
4, 78600, Note_off_c, 9, 46, 80
4, 78600, Note_off_c, 9, 53, 80
4, 78600, Note_on_c, 9, 36, 95
4, 78600, Note_on_c, 9, 35, 95
4, 78600, Note_on_c, 9, 53, 95
4, 78720, Note_off_c, 9, 36, 80
4, 78720, Note_off_c, 9, 35, 80
4, 78720, Note_off_c, 9, 53, 80
4, 78720, Note_on_c, 9, 36, 95
4, 78720, Note_on_c, 9, 35, 95
4, 78720, Note_on_c, 9, 53, 95
4, 78840, Note_off_c, 9, 36, 80
4, 78840, Note_off_c, 9, 35, 80
4, 78840, Note_off_c, 9, 53, 80
4, 78840, Note_on_c, 9, 36, 95
4, 78840, Note_on_c, 9, 35, 95
4, 78840, Note_on_c, 9, 53, 95
4, 78960, Note_off_c, 9, 36, 80
4, 78960, Note_off_c, 9, 35, 80
4, 78960, Note_off_c, 9, 53, 80
4, 78960, Note_on_c, 9, 40, 95
4, 78960, Note_on_c, 9, 57, 95
4, 78960, Note_on_c, 9, 53, 95
4, 79080, Note_off_c, 9, 40, 80
4, 79080, Note_off_c, 9, 57, 80
4, 79080, Note_off_c, 9, 53, 80
4, 79080, Note_on_c, 9, 53, 95
4, 79200, Note_off_c, 9, 53, 80
4, 79200, Note_on_c, 9, 36, 95
4, 79200, Note_on_c, 9, 35, 95
4, 79200, Note_on_c, 9, 53, 95
4, 79320, Note_off_c, 9, 36, 80
4, 79320, Note_off_c, 9, 35, 80
4, 79320, Note_off_c, 9, 53, 80
4, 79320, Note_on_c, 9, 36, 95
4, 79320, Note_on_c, 9, 35, 95
4, 79320, Note_on_c, 9, 53, 95
4, 79440, Note_off_c, 9, 36, 80
4, 79440, Note_off_c, 9, 35, 80
4, 79440, Note_off_c, 9, 53, 80
4, 79440, Note_on_c, 9, 40, 95
4, 79440, Note_on_c, 9, 55, 95
4, 79440, Note_on_c, 9, 53, 95
4, 79560, Note_off_c, 9, 40, 80
4, 79560, Note_off_c, 9, 55, 80
4, 79560, Note_off_c, 9, 53, 80
4, 79560, Note_on_c, 9, 36, 95
4, 79560, Note_on_c, 9, 35, 95
4, 79560, Note_on_c, 9, 53, 95
4, 79680, Note_off_c, 9, 36, 80
4, 79680, Note_off_c, 9, 35, 80
4, 79680, Note_off_c, 9, 53, 80
4, 79680, Note_on_c, 9, 36, 95
4, 79680, Note_on_c, 9, 35, 95
4, 79680, Note_on_c, 9, 53, 95
4, 79800, Note_off_c, 9, 36, 80
4, 79800, Note_off_c, 9, 35, 80
4, 79800, Note_off_c, 9, 53, 80
4, 79800, Note_on_c, 9, 36, 95
4, 79800, Note_on_c, 9, 35, 95
4, 79800, Note_on_c, 9, 53, 95
4, 79920, Note_off_c, 9, 36, 80
4, 79920, Note_off_c, 9, 35, 80
4, 79920, Note_off_c, 9, 53, 80
4, 79920, Note_on_c, 9, 40, 95
4, 79920, Note_on_c, 9, 57, 95
4, 79920, Note_on_c, 9, 53, 95
4, 80040, Note_off_c, 9, 40, 80
4, 80040, Note_off_c, 9, 57, 80
4, 80040, Note_off_c, 9, 53, 80
4, 80040, Note_on_c, 9, 36, 95
4, 80040, Note_on_c, 9, 35, 95
4, 80040, Note_on_c, 9, 53, 95
4, 80160, Note_off_c, 9, 36, 80
4, 80160, Note_off_c, 9, 35, 80
4, 80160, Note_off_c, 9, 53, 80
4, 80160, Note_on_c, 9, 36, 95
4, 80160, Note_on_c, 9, 35, 95
4, 80160, Note_on_c, 9, 53, 95
4, 80280, Note_off_c, 9, 36, 80
4, 80280, Note_off_c, 9, 35, 80
4, 80280, Note_off_c, 9, 53, 80
4, 80280, Note_on_c, 9, 36, 95
4, 80280, Note_on_c, 9, 35, 95
4, 80280, Note_on_c, 9, 53, 95
4, 80400, Note_off_c, 9, 36, 80
4, 80400, Note_off_c, 9, 35, 80
4, 80400, Note_off_c, 9, 53, 80
4, 80400, Note_on_c, 9, 40, 95
4, 80400, Note_on_c, 9, 55, 95
4, 80400, Note_on_c, 9, 53, 95
4, 80520, Note_off_c, 9, 40, 80
4, 80520, Note_off_c, 9, 55, 80
4, 80520, Note_off_c, 9, 53, 80
4, 80520, Note_on_c, 9, 36, 95
4, 80520, Note_on_c, 9, 35, 95
4, 80520, Note_on_c, 9, 53, 95
4, 80640, Note_off_c, 9, 36, 80
4, 80640, Note_off_c, 9, 35, 80
4, 80640, Note_off_c, 9, 53, 80
4, 80640, Note_on_c, 9, 36, 95
4, 80640, Note_on_c, 9, 35, 95
4, 80640, Note_on_c, 9, 46, 95
4, 80640, Note_on_c, 9, 53, 95
4, 80760, Note_off_c, 9, 36, 80
4, 80760, Note_off_c, 9, 35, 80
4, 80760, Note_off_c, 9, 46, 80
4, 80760, Note_off_c, 9, 53, 80
4, 80760, Note_on_c, 9, 36, 95
4, 80760, Note_on_c, 9, 35, 95
4, 80760, Note_on_c, 9, 53, 95
4, 80880, Note_off_c, 9, 36, 80
4, 80880, Note_off_c, 9, 35, 80
4, 80880, Note_off_c, 9, 53, 80
4, 80880, Note_on_c, 9, 40, 95
4, 80880, Note_on_c, 9, 57, 95
4, 80880, Note_on_c, 9, 46, 95
4, 80880, Note_on_c, 9, 53, 95
4, 81000, Note_off_c, 9, 40, 80
4, 81000, Note_off_c, 9, 57, 80
4, 81000, Note_off_c, 9, 46, 80
4, 81000, Note_off_c, 9, 53, 80
4, 81000, Note_on_c, 9, 53, 95
4, 81120, Note_off_c, 9, 53, 80
4, 81120, Note_on_c, 9, 36, 95
4, 81120, Note_on_c, 9, 35, 95
4, 81120, Note_on_c, 9, 46, 95
4, 81120, Note_on_c, 9, 53, 95
4, 81240, Note_off_c, 9, 36, 80
4, 81240, Note_off_c, 9, 35, 80
4, 81240, Note_off_c, 9, 46, 80
4, 81240, Note_off_c, 9, 53, 80
4, 81240, Note_on_c, 9, 36, 95
4, 81240, Note_on_c, 9, 35, 95
4, 81240, Note_on_c, 9, 53, 95
4, 81360, Note_off_c, 9, 36, 80
4, 81360, Note_off_c, 9, 35, 80
4, 81360, Note_off_c, 9, 53, 80
4, 81360, Note_on_c, 9, 40, 95
4, 81360, Note_on_c, 9, 55, 95
4, 81360, Note_on_c, 9, 46, 95
4, 81360, Note_on_c, 9, 53, 95
4, 81480, Note_off_c, 9, 40, 80
4, 81480, Note_off_c, 9, 55, 80
4, 81480, Note_off_c, 9, 46, 80
4, 81480, Note_off_c, 9, 53, 80
4, 81480, Note_on_c, 9, 36, 95
4, 81480, Note_on_c, 9, 35, 95
4, 81480, Note_on_c, 9, 53, 95
4, 81600, Note_off_c, 9, 36, 80
4, 81600, Note_off_c, 9, 35, 80
4, 81600, Note_off_c, 9, 53, 80
4, 81600, Note_on_c, 9, 36, 95
4, 81600, Note_on_c, 9, 35, 95
4, 81600, Note_on_c, 9, 46, 95
4, 81600, Note_on_c, 9, 53, 95
4, 81720, Note_off_c, 9, 36, 80
4, 81720, Note_off_c, 9, 35, 80
4, 81720, Note_off_c, 9, 46, 80
4, 81720, Note_off_c, 9, 53, 80
4, 81720, Note_on_c, 9, 36, 95
4, 81720, Note_on_c, 9, 35, 95
4, 81720, Note_on_c, 9, 53, 95
4, 81840, Note_off_c, 9, 36, 80
4, 81840, Note_off_c, 9, 35, 80
4, 81840, Note_off_c, 9, 53, 80
4, 81840, Note_on_c, 9, 40, 95
4, 81840, Note_on_c, 9, 57, 95
4, 81840, Note_on_c, 9, 46, 95
4, 81840, Note_on_c, 9, 53, 95
4, 81960, Note_off_c, 9, 40, 80
4, 81960, Note_off_c, 9, 57, 80
4, 81960, Note_off_c, 9, 46, 80
4, 81960, Note_off_c, 9, 53, 80
4, 81960, Note_on_c, 9, 36, 95
4, 81960, Note_on_c, 9, 35, 95
4, 81960, Note_on_c, 9, 53, 95
4, 82080, Note_off_c, 9, 36, 80
4, 82080, Note_off_c, 9, 35, 80
4, 82080, Note_off_c, 9, 53, 80
4, 82080, Note_on_c, 9, 40, 95
4, 82080, Note_on_c, 9, 49, 95
4, 82080, Note_on_c, 9, 46, 95
4, 82080, Note_on_c, 9, 53, 95
4, 82200, Note_off_c, 9, 40, 80
4, 82200, Note_off_c, 9, 49, 80
4, 82200, Note_off_c, 9, 46, 80
4, 82200, Note_off_c, 9, 53, 80
4, 82200, Note_on_c, 9, 36, 95
4, 82200, Note_on_c, 9, 35, 95
4, 82200, Note_on_c, 9, 53, 95
4, 82320, Note_off_c, 9, 36, 80
4, 82320, Note_off_c, 9, 35, 80
4, 82320, Note_off_c, 9, 53, 80
4, 82320, Note_on_c, 9, 40, 95
4, 82320, Note_on_c, 9, 55, 95
4, 82320, Note_on_c, 9, 46, 95
4, 82320, Note_on_c, 9, 53, 95
4, 82440, Note_off_c, 9, 40, 80
4, 82440, Note_off_c, 9, 55, 80
4, 82440, Note_off_c, 9, 46, 80
4, 82440, Note_off_c, 9, 53, 80
4, 82440, Note_on_c, 9, 36, 95
4, 82440, Note_on_c, 9, 35, 95
4, 82440, Note_on_c, 9, 53, 95
4, 82560, Note_off_c, 9, 36, 80
4, 82560, Note_off_c, 9, 35, 80
4, 82560, Note_off_c, 9, 53, 80
4, 82560, Note_on_c, 9, 36, 95
4, 82560, Note_on_c, 9, 35, 95
4, 82560, Note_on_c, 9, 46, 95
4, 82560, Note_on_c, 9, 53, 95
4, 82680, Note_off_c, 9, 36, 80
4, 82680, Note_off_c, 9, 35, 80
4, 82680, Note_off_c, 9, 46, 80
4, 82680, Note_off_c, 9, 53, 80
4, 82680, Note_on_c, 9, 36, 95
4, 82680, Note_on_c, 9, 35, 95
4, 82680, Note_on_c, 9, 53, 95
4, 82800, Note_off_c, 9, 36, 80
4, 82800, Note_off_c, 9, 35, 80
4, 82800, Note_off_c, 9, 53, 80
4, 82800, Note_on_c, 9, 40, 95
4, 82800, Note_on_c, 9, 57, 95
4, 82800, Note_on_c, 9, 46, 95
4, 82800, Note_on_c, 9, 53, 95
4, 82920, Note_off_c, 9, 40, 80
4, 82920, Note_off_c, 9, 57, 80
4, 82920, Note_off_c, 9, 46, 80
4, 82920, Note_off_c, 9, 53, 80
4, 82920, Note_on_c, 9, 36, 95
4, 82920, Note_on_c, 9, 35, 95
4, 82920, Note_on_c, 9, 53, 95
4, 83040, Note_off_c, 9, 36, 80
4, 83040, Note_off_c, 9, 35, 80
4, 83040, Note_off_c, 9, 53, 80
4, 83040, Note_on_c, 9, 36, 95
4, 83040, Note_on_c, 9, 35, 95
4, 83040, Note_on_c, 9, 46, 95
4, 83040, Note_on_c, 9, 53, 95
4, 83160, Note_off_c, 9, 36, 80
4, 83160, Note_off_c, 9, 35, 80
4, 83160, Note_off_c, 9, 46, 80
4, 83160, Note_off_c, 9, 53, 80
4, 83160, Note_on_c, 9, 36, 95
4, 83160, Note_on_c, 9, 35, 95
4, 83160, Note_on_c, 9, 53, 95
4, 83280, Note_off_c, 9, 36, 80
4, 83280, Note_off_c, 9, 35, 80
4, 83280, Note_off_c, 9, 53, 80
4, 83280, Note_on_c, 9, 40, 95
4, 83280, Note_on_c, 9, 46, 95
4, 83280, Note_on_c, 9, 53, 95
4, 83400, Note_off_c, 9, 40, 80
4, 83400, Note_off_c, 9, 46, 80
4, 83400, Note_off_c, 9, 53, 80
4, 83400, Note_on_c, 9, 36, 95
4, 83400, Note_on_c, 9, 35, 95
4, 83400, Note_on_c, 9, 53, 95
4, 83520, Note_off_c, 9, 36, 80
4, 83520, Note_off_c, 9, 35, 80
4, 83520, Note_off_c, 9, 53, 80
4, 83520, Note_on_c, 9, 36, 95
4, 83520, Note_on_c, 9, 35, 95
4, 83520, Note_on_c, 9, 46, 95
4, 83520, Note_on_c, 9, 53, 95
4, 83640, Note_off_c, 9, 36, 80
4, 83640, Note_off_c, 9, 35, 80
4, 83640, Note_off_c, 9, 46, 80
4, 83640, Note_off_c, 9, 53, 80
4, 83640, Note_on_c, 9, 36, 95
4, 83640, Note_on_c, 9, 35, 95
4, 83640, Note_on_c, 9, 53, 95
4, 83760, Note_off_c, 9, 36, 80
4, 83760, Note_off_c, 9, 35, 80
4, 83760, Note_off_c, 9, 53, 80
4, 83760, Note_on_c, 9, 40, 95
4, 83760, Note_on_c, 9, 49, 95
4, 83760, Note_on_c, 9, 46, 95
4, 83760, Note_on_c, 9, 53, 95
4, 83880, Note_off_c, 9, 40, 80
4, 83880, Note_off_c, 9, 49, 80
4, 83880, Note_off_c, 9, 46, 80
4, 83880, Note_off_c, 9, 53, 80
4, 83880, Note_on_c, 9, 36, 95
4, 83880, Note_on_c, 9, 35, 95
4, 83880, Note_on_c, 9, 53, 95
4, 83940, Note_off_c, 9, 36, 80
4, 83940, Note_off_c, 9, 35, 80
4, 83940, Note_off_c, 9, 53, 80
4, 83940, Note_on_c, 9, 36, 95
4, 83940, Note_on_c, 9, 35, 95
4, 84000, Note_off_c, 9, 36, 80
4, 84000, Note_off_c, 9, 35, 80
4, 84000, Note_on_c, 9, 36, 95
4, 84000, Note_on_c, 9, 35, 95
4, 84000, Note_on_c, 9, 46, 95
4, 84000, Note_on_c, 9, 53, 95
4, 84060, Note_off_c, 9, 36, 80
4, 84060, Note_off_c, 9, 35, 80
4, 84060, Note_off_c, 9, 46, 80
4, 84060, Note_off_c, 9, 53, 80
4, 84060, Note_on_c, 9, 36, 95
4, 84060, Note_on_c, 9, 35, 95
4, 84120, Note_off_c, 9, 36, 80
4, 84120, Note_off_c, 9, 35, 80
4, 84120, Note_on_c, 9, 36, 95
4, 84120, Note_on_c, 9, 35, 95
4, 84120, Note_on_c, 9, 53, 95
4, 84180, Note_off_c, 9, 36, 80
4, 84180, Note_off_c, 9, 35, 80
4, 84180, Note_off_c, 9, 53, 80
4, 84180, Note_on_c, 9, 36, 95
4, 84180, Note_on_c, 9, 35, 95
4, 84240, Note_off_c, 9, 36, 80
4, 84240, Note_off_c, 9, 35, 80
4, 84240, Note_on_c, 9, 36, 95
4, 84240, Note_on_c, 9, 35, 95
4, 84240, Note_on_c, 9, 46, 95
4, 84240, Note_on_c, 9, 40, 95
4, 84240, Note_on_c, 9, 53, 95
4, 84300, Note_off_c, 9, 36, 80
4, 84300, Note_off_c, 9, 35, 80
4, 84300, Note_off_c, 9, 46, 80
4, 84300, Note_off_c, 9, 40, 80
4, 84300, Note_off_c, 9, 53, 80
4, 84300, Note_on_c, 9, 36, 95
4, 84300, Note_on_c, 9, 35, 95
4, 84360, Note_off_c, 9, 36, 80
4, 84360, Note_off_c, 9, 35, 80
4, 84360, Note_on_c, 9, 36, 95
4, 84360, Note_on_c, 9, 35, 95
4, 84360, Note_on_c, 9, 53, 95
4, 84420, Note_off_c, 9, 36, 80
4, 84420, Note_off_c, 9, 35, 80
4, 84420, Note_off_c, 9, 53, 80
4, 84420, Note_on_c, 9, 36, 95
4, 84420, Note_on_c, 9, 35, 95
4, 84480, Note_off_c, 9, 36, 80
4, 84480, Note_off_c, 9, 35, 80
4, 84480, Note_on_c, 9, 36, 95
4, 84480, Note_on_c, 9, 35, 95
4, 84480, Note_on_c, 9, 46, 95
4, 84480, Note_on_c, 9, 53, 95
4, 84600, Note_off_c, 9, 36, 80
4, 84600, Note_off_c, 9, 35, 80
4, 84600, Note_off_c, 9, 46, 80
4, 84600, Note_off_c, 9, 53, 80
4, 84600, Note_on_c, 9, 36, 95
4, 84600, Note_on_c, 9, 35, 95
4, 84600, Note_on_c, 9, 53, 95
4, 84720, Note_off_c, 9, 36, 80
4, 84720, Note_off_c, 9, 35, 80
4, 84720, Note_off_c, 9, 53, 80
4, 84720, Note_on_c, 9, 40, 95
4, 84720, Note_on_c, 9, 46, 95
4, 84720, Note_on_c, 9, 53, 95
4, 84840, Note_off_c, 9, 40, 80
4, 84840, Note_off_c, 9, 46, 80
4, 84840, Note_off_c, 9, 53, 80
4, 84840, Note_on_c, 9, 36, 95
4, 84840, Note_on_c, 9, 35, 95
4, 84840, Note_on_c, 9, 53, 95
4, 84960, Note_off_c, 9, 36, 80
4, 84960, Note_off_c, 9, 35, 80
4, 84960, Note_off_c, 9, 53, 80
4, 84960, Note_on_c, 9, 36, 95
4, 84960, Note_on_c, 9, 35, 95
4, 84960, Note_on_c, 9, 46, 95
4, 84960, Note_on_c, 9, 53, 95
4, 85080, Note_off_c, 9, 36, 80
4, 85080, Note_off_c, 9, 35, 80
4, 85080, Note_off_c, 9, 46, 80
4, 85080, Note_off_c, 9, 53, 80
4, 85080, Note_on_c, 9, 36, 95
4, 85080, Note_on_c, 9, 35, 95
4, 85080, Note_on_c, 9, 53, 95
4, 85200, Note_off_c, 9, 36, 80
4, 85200, Note_off_c, 9, 35, 80
4, 85200, Note_off_c, 9, 53, 80
4, 85200, Note_on_c, 9, 40, 95
4, 85200, Note_on_c, 9, 46, 95
4, 85200, Note_on_c, 9, 53, 95
4, 85320, Note_off_c, 9, 40, 80
4, 85320, Note_off_c, 9, 46, 80
4, 85320, Note_off_c, 9, 53, 80
4, 85320, Note_on_c, 9, 36, 95
4, 85320, Note_on_c, 9, 35, 95
4, 85320, Note_on_c, 9, 53, 95
4, 85440, Note_off_c, 9, 36, 80
4, 85440, Note_off_c, 9, 35, 80
4, 85440, Note_off_c, 9, 53, 80
4, 85440, Note_on_c, 9, 36, 95
4, 85440, Note_on_c, 9, 35, 95
4, 85440, Note_on_c, 9, 46, 95
4, 85440, Note_on_c, 9, 53, 95
4, 85560, Note_off_c, 9, 36, 80
4, 85560, Note_off_c, 9, 35, 80
4, 85560, Note_off_c, 9, 46, 80
4, 85560, Note_off_c, 9, 53, 80
4, 85560, Note_on_c, 9, 36, 95
4, 85560, Note_on_c, 9, 35, 95
4, 85560, Note_on_c, 9, 53, 95
4, 85680, Note_off_c, 9, 36, 80
4, 85680, Note_off_c, 9, 35, 80
4, 85680, Note_off_c, 9, 53, 80
4, 85680, Note_on_c, 9, 40, 95
4, 85680, Note_on_c, 9, 46, 95
4, 85680, Note_on_c, 9, 53, 95
4, 85800, Note_off_c, 9, 40, 80
4, 85800, Note_off_c, 9, 46, 80
4, 85800, Note_off_c, 9, 53, 80
4, 85800, Note_on_c, 9, 36, 95
4, 85800, Note_on_c, 9, 35, 95
4, 85800, Note_on_c, 9, 53, 95
4, 85920, Note_off_c, 9, 36, 80
4, 85920, Note_off_c, 9, 35, 80
4, 85920, Note_off_c, 9, 53, 80
4, 85920, Note_on_c, 9, 36, 95
4, 85920, Note_on_c, 9, 35, 95
4, 85920, Note_on_c, 9, 46, 95
4, 85920, Note_on_c, 9, 53, 95
4, 86040, Note_off_c, 9, 36, 80
4, 86040, Note_off_c, 9, 35, 80
4, 86040, Note_off_c, 9, 46, 80
4, 86040, Note_off_c, 9, 53, 80
4, 86040, Note_on_c, 9, 36, 95
4, 86040, Note_on_c, 9, 35, 95
4, 86040, Note_on_c, 9, 53, 95
4, 86160, Note_off_c, 9, 36, 80
4, 86160, Note_off_c, 9, 35, 80
4, 86160, Note_off_c, 9, 53, 80
4, 86160, Note_on_c, 9, 40, 95
4, 86160, Note_on_c, 9, 46, 95
4, 86160, Note_on_c, 9, 53, 95
4, 86280, Note_off_c, 9, 40, 80
4, 86280, Note_off_c, 9, 46, 80
4, 86280, Note_off_c, 9, 53, 80
4, 86280, Note_on_c, 9, 36, 95
4, 86280, Note_on_c, 9, 35, 95
4, 86280, Note_on_c, 9, 53, 95
4, 86400, Note_off_c, 9, 36, 80
4, 86400, Note_off_c, 9, 35, 80
4, 86400, Note_off_c, 9, 53, 80
4, 86400, Note_on_c, 9, 36, 95
4, 86400, Note_on_c, 9, 35, 95
4, 86400, Note_on_c, 9, 53, 95
4, 86520, Note_off_c, 9, 36, 80
4, 86520, Note_off_c, 9, 35, 80
4, 86520, Note_off_c, 9, 53, 80
4, 86520, Note_on_c, 9, 36, 95
4, 86520, Note_on_c, 9, 35, 95
4, 86520, Note_on_c, 9, 53, 95
4, 86640, Note_off_c, 9, 36, 80
4, 86640, Note_off_c, 9, 35, 80
4, 86640, Note_off_c, 9, 53, 80
4, 86640, Note_on_c, 9, 40, 95
4, 86640, Note_on_c, 9, 57, 95
4, 86640, Note_on_c, 9, 53, 95
4, 86760, Note_off_c, 9, 40, 80
4, 86760, Note_off_c, 9, 57, 80
4, 86760, Note_off_c, 9, 53, 80
4, 86760, Note_on_c, 9, 53, 95
4, 86880, Note_off_c, 9, 53, 80
4, 86880, Note_on_c, 9, 36, 95
4, 86880, Note_on_c, 9, 35, 95
4, 86880, Note_on_c, 9, 53, 95
4, 87000, Note_off_c, 9, 36, 80
4, 87000, Note_off_c, 9, 35, 80
4, 87000, Note_off_c, 9, 53, 80
4, 87000, Note_on_c, 9, 36, 95
4, 87000, Note_on_c, 9, 35, 95
4, 87000, Note_on_c, 9, 53, 95
4, 87120, Note_off_c, 9, 36, 80
4, 87120, Note_off_c, 9, 35, 80
4, 87120, Note_off_c, 9, 53, 80
4, 87120, Note_on_c, 9, 40, 95
4, 87120, Note_on_c, 9, 55, 95
4, 87120, Note_on_c, 9, 53, 95
4, 87240, Note_off_c, 9, 40, 80
4, 87240, Note_off_c, 9, 55, 80
4, 87240, Note_off_c, 9, 53, 80
4, 87240, Note_on_c, 9, 36, 95
4, 87240, Note_on_c, 9, 35, 95
4, 87240, Note_on_c, 9, 53, 95
4, 87360, Note_off_c, 9, 36, 80
4, 87360, Note_off_c, 9, 35, 80
4, 87360, Note_off_c, 9, 53, 80
4, 87360, Note_on_c, 9, 36, 95
4, 87360, Note_on_c, 9, 35, 95
4, 87360, Note_on_c, 9, 53, 95
4, 87480, Note_off_c, 9, 36, 80
4, 87480, Note_off_c, 9, 35, 80
4, 87480, Note_off_c, 9, 53, 80
4, 87480, Note_on_c, 9, 36, 95
4, 87480, Note_on_c, 9, 35, 95
4, 87480, Note_on_c, 9, 53, 95
4, 87600, Note_off_c, 9, 36, 80
4, 87600, Note_off_c, 9, 35, 80
4, 87600, Note_off_c, 9, 53, 80
4, 87600, Note_on_c, 9, 40, 95
4, 87600, Note_on_c, 9, 57, 95
4, 87600, Note_on_c, 9, 53, 95
4, 87720, Note_off_c, 9, 40, 80
4, 87720, Note_off_c, 9, 57, 80
4, 87720, Note_off_c, 9, 53, 80
4, 87720, Note_on_c, 9, 36, 95
4, 87720, Note_on_c, 9, 35, 95
4, 87720, Note_on_c, 9, 53, 95
4, 87840, Note_off_c, 9, 36, 80
4, 87840, Note_off_c, 9, 35, 80
4, 87840, Note_off_c, 9, 53, 80
4, 87840, Note_on_c, 9, 36, 95
4, 87840, Note_on_c, 9, 35, 95
4, 87840, Note_on_c, 9, 53, 95
4, 87960, Note_off_c, 9, 36, 80
4, 87960, Note_off_c, 9, 35, 80
4, 87960, Note_off_c, 9, 53, 80
4, 87960, Note_on_c, 9, 36, 95
4, 87960, Note_on_c, 9, 35, 95
4, 87960, Note_on_c, 9, 53, 95
4, 88080, Note_off_c, 9, 36, 80
4, 88080, Note_off_c, 9, 35, 80
4, 88080, Note_off_c, 9, 53, 80
4, 88080, Note_on_c, 9, 40, 95
4, 88080, Note_on_c, 9, 55, 95
4, 88080, Note_on_c, 9, 53, 95
4, 88200, Note_off_c, 9, 40, 80
4, 88200, Note_off_c, 9, 55, 80
4, 88200, Note_off_c, 9, 53, 80
4, 88200, Note_on_c, 9, 36, 95
4, 88200, Note_on_c, 9, 35, 95
4, 88200, Note_on_c, 9, 53, 95
4, 88320, Note_off_c, 9, 36, 80
4, 88320, Note_off_c, 9, 35, 80
4, 88320, Note_off_c, 9, 53, 80
4, 88320, Note_on_c, 9, 36, 95
4, 88320, Note_on_c, 9, 35, 95
4, 88320, Note_on_c, 9, 46, 95
4, 88320, Note_on_c, 9, 53, 95
4, 88440, Note_off_c, 9, 36, 80
4, 88440, Note_off_c, 9, 35, 80
4, 88440, Note_off_c, 9, 46, 80
4, 88440, Note_off_c, 9, 53, 80
4, 88440, Note_on_c, 9, 36, 95
4, 88440, Note_on_c, 9, 35, 95
4, 88440, Note_on_c, 9, 53, 95
4, 88560, Note_off_c, 9, 36, 80
4, 88560, Note_off_c, 9, 35, 80
4, 88560, Note_off_c, 9, 53, 80
4, 88560, Note_on_c, 9, 40, 95
4, 88560, Note_on_c, 9, 57, 95
4, 88560, Note_on_c, 9, 46, 95
4, 88560, Note_on_c, 9, 53, 95
4, 88680, Note_off_c, 9, 40, 80
4, 88680, Note_off_c, 9, 57, 80
4, 88680, Note_off_c, 9, 46, 80
4, 88680, Note_off_c, 9, 53, 80
4, 88680, Note_on_c, 9, 53, 95
4, 88800, Note_off_c, 9, 53, 80
4, 88800, Note_on_c, 9, 36, 95
4, 88800, Note_on_c, 9, 35, 95
4, 88800, Note_on_c, 9, 46, 95
4, 88800, Note_on_c, 9, 53, 95
4, 88920, Note_off_c, 9, 36, 80
4, 88920, Note_off_c, 9, 35, 80
4, 88920, Note_off_c, 9, 46, 80
4, 88920, Note_off_c, 9, 53, 80
4, 88920, Note_on_c, 9, 36, 95
4, 88920, Note_on_c, 9, 35, 95
4, 88920, Note_on_c, 9, 53, 95
4, 89040, Note_off_c, 9, 36, 80
4, 89040, Note_off_c, 9, 35, 80
4, 89040, Note_off_c, 9, 53, 80
4, 89040, Note_on_c, 9, 40, 95
4, 89040, Note_on_c, 9, 55, 95
4, 89040, Note_on_c, 9, 46, 95
4, 89040, Note_on_c, 9, 53, 95
4, 89160, Note_off_c, 9, 40, 80
4, 89160, Note_off_c, 9, 55, 80
4, 89160, Note_off_c, 9, 46, 80
4, 89160, Note_off_c, 9, 53, 80
4, 89160, Note_on_c, 9, 36, 95
4, 89160, Note_on_c, 9, 35, 95
4, 89160, Note_on_c, 9, 53, 95
4, 89280, Note_off_c, 9, 36, 80
4, 89280, Note_off_c, 9, 35, 80
4, 89280, Note_off_c, 9, 53, 80
4, 89280, Note_on_c, 9, 36, 95
4, 89280, Note_on_c, 9, 35, 95
4, 89280, Note_on_c, 9, 46, 95
4, 89280, Note_on_c, 9, 53, 95
4, 89400, Note_off_c, 9, 36, 80
4, 89400, Note_off_c, 9, 35, 80
4, 89400, Note_off_c, 9, 46, 80
4, 89400, Note_off_c, 9, 53, 80
4, 89400, Note_on_c, 9, 36, 95
4, 89400, Note_on_c, 9, 35, 95
4, 89400, Note_on_c, 9, 53, 95
4, 89520, Note_off_c, 9, 36, 80
4, 89520, Note_off_c, 9, 35, 80
4, 89520, Note_off_c, 9, 53, 80
4, 89520, Note_on_c, 9, 40, 95
4, 89520, Note_on_c, 9, 57, 95
4, 89520, Note_on_c, 9, 46, 95
4, 89520, Note_on_c, 9, 53, 95
4, 89640, Note_off_c, 9, 40, 80
4, 89640, Note_off_c, 9, 57, 80
4, 89640, Note_off_c, 9, 46, 80
4, 89640, Note_off_c, 9, 53, 80
4, 89640, Note_on_c, 9, 36, 95
4, 89640, Note_on_c, 9, 35, 95
4, 89640, Note_on_c, 9, 53, 95
4, 89760, Note_off_c, 9, 36, 80
4, 89760, Note_off_c, 9, 35, 80
4, 89760, Note_off_c, 9, 53, 80
4, 89760, Note_on_c, 9, 40, 95
4, 89760, Note_on_c, 9, 49, 95
4, 89760, Note_on_c, 9, 46, 95
4, 89760, Note_on_c, 9, 53, 95
4, 89880, Note_off_c, 9, 40, 80
4, 89880, Note_off_c, 9, 49, 80
4, 89880, Note_off_c, 9, 46, 80
4, 89880, Note_off_c, 9, 53, 80
4, 89880, Note_on_c, 9, 36, 95
4, 89880, Note_on_c, 9, 35, 95
4, 89880, Note_on_c, 9, 53, 95
4, 90000, Note_off_c, 9, 36, 80
4, 90000, Note_off_c, 9, 35, 80
4, 90000, Note_off_c, 9, 53, 80
4, 90000, Note_on_c, 9, 40, 95
4, 90000, Note_on_c, 9, 55, 95
4, 90000, Note_on_c, 9, 46, 95
4, 90000, Note_on_c, 9, 53, 95
4, 90120, Note_off_c, 9, 40, 80
4, 90120, Note_off_c, 9, 55, 80
4, 90120, Note_off_c, 9, 46, 80
4, 90120, Note_off_c, 9, 53, 80
4, 90120, Note_on_c, 9, 36, 95
4, 90120, Note_on_c, 9, 35, 95
4, 90120, Note_on_c, 9, 53, 95
4, 90240, Note_off_c, 9, 36, 80
4, 90240, Note_off_c, 9, 35, 80
4, 90240, Note_off_c, 9, 53, 80
4, 90240, Note_on_c, 9, 36, 95
4, 90240, Note_on_c, 9, 35, 95
4, 90240, Note_on_c, 9, 46, 95
4, 90240, Note_on_c, 9, 53, 95
4, 90360, Note_off_c, 9, 36, 80
4, 90360, Note_off_c, 9, 35, 80
4, 90360, Note_off_c, 9, 46, 80
4, 90360, Note_off_c, 9, 53, 80
4, 90360, Note_on_c, 9, 36, 95
4, 90360, Note_on_c, 9, 35, 95
4, 90360, Note_on_c, 9, 53, 95
4, 90480, Note_off_c, 9, 36, 80
4, 90480, Note_off_c, 9, 35, 80
4, 90480, Note_off_c, 9, 53, 80
4, 90480, Note_on_c, 9, 40, 95
4, 90480, Note_on_c, 9, 57, 95
4, 90480, Note_on_c, 9, 46, 95
4, 90480, Note_on_c, 9, 53, 95
4, 90600, Note_off_c, 9, 40, 80
4, 90600, Note_off_c, 9, 57, 80
4, 90600, Note_off_c, 9, 46, 80
4, 90600, Note_off_c, 9, 53, 80
4, 90600, Note_on_c, 9, 36, 95
4, 90600, Note_on_c, 9, 35, 95
4, 90600, Note_on_c, 9, 53, 95
4, 90720, Note_off_c, 9, 36, 80
4, 90720, Note_off_c, 9, 35, 80
4, 90720, Note_off_c, 9, 53, 80
4, 90720, Note_on_c, 9, 36, 95
4, 90720, Note_on_c, 9, 35, 95
4, 90720, Note_on_c, 9, 46, 95
4, 90720, Note_on_c, 9, 53, 95
4, 90840, Note_off_c, 9, 36, 80
4, 90840, Note_off_c, 9, 35, 80
4, 90840, Note_off_c, 9, 46, 80
4, 90840, Note_off_c, 9, 53, 80
4, 90840, Note_on_c, 9, 36, 95
4, 90840, Note_on_c, 9, 35, 95
4, 90840, Note_on_c, 9, 53, 95
4, 90960, Note_off_c, 9, 36, 80
4, 90960, Note_off_c, 9, 35, 80
4, 90960, Note_off_c, 9, 53, 80
4, 90960, Note_on_c, 9, 40, 95
4, 90960, Note_on_c, 9, 46, 95
4, 90960, Note_on_c, 9, 53, 95
4, 91080, Note_off_c, 9, 40, 80
4, 91080, Note_off_c, 9, 46, 80
4, 91080, Note_off_c, 9, 53, 80
4, 91080, Note_on_c, 9, 36, 95
4, 91080, Note_on_c, 9, 35, 95
4, 91080, Note_on_c, 9, 53, 95
4, 91200, Note_off_c, 9, 36, 80
4, 91200, Note_off_c, 9, 35, 80
4, 91200, Note_off_c, 9, 53, 80
4, 91200, Note_on_c, 9, 36, 95
4, 91200, Note_on_c, 9, 35, 95
4, 91200, Note_on_c, 9, 46, 95
4, 91200, Note_on_c, 9, 53, 95
4, 91320, Note_off_c, 9, 36, 80
4, 91320, Note_off_c, 9, 35, 80
4, 91320, Note_off_c, 9, 46, 80
4, 91320, Note_off_c, 9, 53, 80
4, 91320, Note_on_c, 9, 36, 95
4, 91320, Note_on_c, 9, 35, 95
4, 91320, Note_on_c, 9, 53, 95
4, 91440, Note_off_c, 9, 36, 80
4, 91440, Note_off_c, 9, 35, 80
4, 91440, Note_off_c, 9, 53, 80
4, 91440, Note_on_c, 9, 40, 95
4, 91440, Note_on_c, 9, 49, 95
4, 91440, Note_on_c, 9, 46, 95
4, 91440, Note_on_c, 9, 53, 95
4, 91560, Note_off_c, 9, 40, 80
4, 91560, Note_off_c, 9, 49, 80
4, 91560, Note_off_c, 9, 46, 80
4, 91560, Note_off_c, 9, 53, 80
4, 91560, Note_on_c, 9, 53, 95
4, 91620, Note_off_c, 9, 53, 80
4, 91680, Note_on_c, 9, 40, 95
4, 91680, Note_on_c, 9, 46, 95
4, 91680, Note_on_c, 9, 53, 95
4, 91740, Note_off_c, 9, 40, 80
4, 91740, Note_off_c, 9, 46, 80
4, 91740, Note_off_c, 9, 53, 80
4, 91740, Note_on_c, 9, 40, 95
4, 91800, Note_off_c, 9, 40, 80
4, 91800, Note_on_c, 9, 40, 95
4, 91800, Note_on_c, 9, 53, 95
4, 91860, Note_off_c, 9, 40, 80
4, 91860, Note_off_c, 9, 53, 80
4, 91860, Note_on_c, 9, 40, 95
4, 91920, Note_off_c, 9, 40, 80
4, 91920, Note_on_c, 9, 40, 95
4, 91920, Note_on_c, 9, 46, 95
4, 91920, Note_on_c, 9, 53, 95
4, 91980, Note_off_c, 9, 40, 80
4, 91980, Note_off_c, 9, 46, 80
4, 91980, Note_off_c, 9, 53, 80
4, 91980, Note_on_c, 9, 40, 95
4, 92040, Note_off_c, 9, 40, 80
4, 92040, Note_on_c, 9, 40, 95
4, 92040, Note_on_c, 9, 53, 95
4, 92100, Note_off_c, 9, 40, 80
4, 92100, Note_off_c, 9, 53, 80
4, 92100, Note_on_c, 9, 40, 95
4, 92160, Note_off_c, 9, 40, 80
4, 92160, Note_on_c, 9, 36, 95
4, 92160, Note_on_c, 9, 35, 95
4, 92160, Note_on_c, 9, 46, 95
4, 92160, Note_on_c, 9, 53, 95
4, 92280, Note_off_c, 9, 36, 80
4, 92280, Note_off_c, 9, 35, 80
4, 92280, Note_off_c, 9, 46, 80
4, 92280, Note_off_c, 9, 53, 80
4, 92280, Note_on_c, 9, 36, 95
4, 92280, Note_on_c, 9, 35, 95
4, 92280, Note_on_c, 9, 53, 95
4, 92400, Note_off_c, 9, 36, 80
4, 92400, Note_off_c, 9, 35, 80
4, 92400, Note_off_c, 9, 53, 80
4, 92400, Note_on_c, 9, 40, 95
4, 92400, Note_on_c, 9, 46, 95
4, 92400, Note_on_c, 9, 53, 95
4, 92520, Note_off_c, 9, 40, 80
4, 92520, Note_off_c, 9, 46, 80
4, 92520, Note_off_c, 9, 53, 80
4, 92520, Note_on_c, 9, 36, 95
4, 92520, Note_on_c, 9, 35, 95
4, 92520, Note_on_c, 9, 53, 95
4, 92640, Note_off_c, 9, 36, 80
4, 92640, Note_off_c, 9, 35, 80
4, 92640, Note_off_c, 9, 53, 80
4, 92640, Note_on_c, 9, 36, 95
4, 92640, Note_on_c, 9, 35, 95
4, 92640, Note_on_c, 9, 46, 95
4, 92640, Note_on_c, 9, 53, 95
4, 92760, Note_off_c, 9, 36, 80
4, 92760, Note_off_c, 9, 35, 80
4, 92760, Note_off_c, 9, 46, 80
4, 92760, Note_off_c, 9, 53, 80
4, 92760, Note_on_c, 9, 36, 95
4, 92760, Note_on_c, 9, 35, 95
4, 92760, Note_on_c, 9, 53, 95
4, 92880, Note_off_c, 9, 36, 80
4, 92880, Note_off_c, 9, 35, 80
4, 92880, Note_off_c, 9, 53, 80
4, 92880, Note_on_c, 9, 40, 95
4, 92880, Note_on_c, 9, 46, 95
4, 92880, Note_on_c, 9, 53, 95
4, 93000, Note_off_c, 9, 40, 80
4, 93000, Note_off_c, 9, 46, 80
4, 93000, Note_off_c, 9, 53, 80
4, 93000, Note_on_c, 9, 36, 95
4, 93000, Note_on_c, 9, 35, 95
4, 93000, Note_on_c, 9, 53, 95
4, 93120, Note_off_c, 9, 36, 80
4, 93120, Note_off_c, 9, 35, 80
4, 93120, Note_off_c, 9, 53, 80
4, 93120, Note_on_c, 9, 36, 95
4, 93120, Note_on_c, 9, 35, 95
4, 93120, Note_on_c, 9, 46, 95
4, 93120, Note_on_c, 9, 53, 95
4, 93240, Note_off_c, 9, 36, 80
4, 93240, Note_off_c, 9, 35, 80
4, 93240, Note_off_c, 9, 46, 80
4, 93240, Note_off_c, 9, 53, 80
4, 93240, Note_on_c, 9, 36, 95
4, 93240, Note_on_c, 9, 35, 95
4, 93240, Note_on_c, 9, 53, 95
4, 93360, Note_off_c, 9, 36, 80
4, 93360, Note_off_c, 9, 35, 80
4, 93360, Note_off_c, 9, 53, 80
4, 93360, Note_on_c, 9, 40, 95
4, 93360, Note_on_c, 9, 46, 95
4, 93360, Note_on_c, 9, 53, 95
4, 93480, Note_off_c, 9, 40, 80
4, 93480, Note_off_c, 9, 46, 80
4, 93480, Note_off_c, 9, 53, 80
4, 93480, Note_on_c, 9, 36, 95
4, 93480, Note_on_c, 9, 35, 95
4, 93480, Note_on_c, 9, 53, 95
4, 93600, Note_off_c, 9, 36, 80
4, 93600, Note_off_c, 9, 35, 80
4, 93600, Note_off_c, 9, 53, 80
4, 93600, Note_on_c, 9, 36, 95
4, 93600, Note_on_c, 9, 35, 95
4, 93600, Note_on_c, 9, 46, 95
4, 93600, Note_on_c, 9, 53, 95
4, 93720, Note_off_c, 9, 36, 80
4, 93720, Note_off_c, 9, 35, 80
4, 93720, Note_off_c, 9, 46, 80
4, 93720, Note_off_c, 9, 53, 80
4, 93720, Note_on_c, 9, 36, 95
4, 93720, Note_on_c, 9, 35, 95
4, 93720, Note_on_c, 9, 53, 95
4, 93840, Note_off_c, 9, 36, 80
4, 93840, Note_off_c, 9, 35, 80
4, 93840, Note_off_c, 9, 53, 80
4, 93840, Note_on_c, 9, 40, 95
4, 93840, Note_on_c, 9, 46, 95
4, 93840, Note_on_c, 9, 53, 95
4, 93960, Note_off_c, 9, 40, 80
4, 93960, Note_off_c, 9, 46, 80
4, 93960, Note_off_c, 9, 53, 80
4, 93960, Note_on_c, 9, 36, 95
4, 93960, Note_on_c, 9, 35, 95
4, 93960, Note_on_c, 9, 53, 95
4, 94080, Note_off_c, 9, 36, 80
4, 94080, Note_off_c, 9, 35, 80
4, 94080, Note_off_c, 9, 53, 80
4, 94080, Note_on_c, 9, 36, 95
4, 94080, Note_on_c, 9, 35, 95
4, 94080, Note_on_c, 9, 53, 95
4, 94200, Note_off_c, 9, 36, 80
4, 94200, Note_off_c, 9, 35, 80
4, 94200, Note_off_c, 9, 53, 80
4, 94200, Note_on_c, 9, 36, 95
4, 94200, Note_on_c, 9, 35, 95
4, 94200, Note_on_c, 9, 53, 95
4, 94320, Note_off_c, 9, 36, 80
4, 94320, Note_off_c, 9, 35, 80
4, 94320, Note_off_c, 9, 53, 80
4, 94320, Note_on_c, 9, 40, 95
4, 94320, Note_on_c, 9, 57, 95
4, 94320, Note_on_c, 9, 53, 95
4, 94440, Note_off_c, 9, 40, 80
4, 94440, Note_off_c, 9, 57, 80
4, 94440, Note_off_c, 9, 53, 80
4, 94440, Note_on_c, 9, 53, 95
4, 94560, Note_off_c, 9, 53, 80
4, 94560, Note_on_c, 9, 36, 95
4, 94560, Note_on_c, 9, 35, 95
4, 94560, Note_on_c, 9, 53, 95
4, 94680, Note_off_c, 9, 36, 80
4, 94680, Note_off_c, 9, 35, 80
4, 94680, Note_off_c, 9, 53, 80
4, 94680, Note_on_c, 9, 36, 95
4, 94680, Note_on_c, 9, 35, 95
4, 94680, Note_on_c, 9, 53, 95
4, 94800, Note_off_c, 9, 36, 80
4, 94800, Note_off_c, 9, 35, 80
4, 94800, Note_off_c, 9, 53, 80
4, 94800, Note_on_c, 9, 40, 95
4, 94800, Note_on_c, 9, 55, 95
4, 94800, Note_on_c, 9, 53, 95
4, 94920, Note_off_c, 9, 40, 80
4, 94920, Note_off_c, 9, 55, 80
4, 94920, Note_off_c, 9, 53, 80
4, 94920, Note_on_c, 9, 36, 95
4, 94920, Note_on_c, 9, 35, 95
4, 94920, Note_on_c, 9, 53, 95
4, 95040, Note_off_c, 9, 36, 80
4, 95040, Note_off_c, 9, 35, 80
4, 95040, Note_off_c, 9, 53, 80
4, 95040, Note_on_c, 9, 36, 95
4, 95040, Note_on_c, 9, 35, 95
4, 95040, Note_on_c, 9, 53, 95
4, 95160, Note_off_c, 9, 36, 80
4, 95160, Note_off_c, 9, 35, 80
4, 95160, Note_off_c, 9, 53, 80
4, 95160, Note_on_c, 9, 36, 95
4, 95160, Note_on_c, 9, 35, 95
4, 95160, Note_on_c, 9, 53, 95
4, 95280, Note_off_c, 9, 36, 80
4, 95280, Note_off_c, 9, 35, 80
4, 95280, Note_off_c, 9, 53, 80
4, 95280, Note_on_c, 9, 40, 95
4, 95280, Note_on_c, 9, 57, 95
4, 95280, Note_on_c, 9, 53, 95
4, 95400, Note_off_c, 9, 40, 80
4, 95400, Note_off_c, 9, 57, 80
4, 95400, Note_off_c, 9, 53, 80
4, 95400, Note_on_c, 9, 36, 95
4, 95400, Note_on_c, 9, 35, 95
4, 95400, Note_on_c, 9, 53, 95
4, 95520, Note_off_c, 9, 36, 80
4, 95520, Note_off_c, 9, 35, 80
4, 95520, Note_off_c, 9, 53, 80
4, 95520, Note_on_c, 9, 36, 95
4, 95520, Note_on_c, 9, 35, 95
4, 95520, Note_on_c, 9, 53, 95
4, 95640, Note_off_c, 9, 36, 80
4, 95640, Note_off_c, 9, 35, 80
4, 95640, Note_off_c, 9, 53, 80
4, 95640, Note_on_c, 9, 36, 95
4, 95640, Note_on_c, 9, 35, 95
4, 95640, Note_on_c, 9, 53, 95
4, 95760, Note_off_c, 9, 36, 80
4, 95760, Note_off_c, 9, 35, 80
4, 95760, Note_off_c, 9, 53, 80
4, 95760, Note_on_c, 9, 40, 95
4, 95760, Note_on_c, 9, 55, 95
4, 95760, Note_on_c, 9, 53, 95
4, 95880, Note_off_c, 9, 40, 80
4, 95880, Note_off_c, 9, 55, 80
4, 95880, Note_off_c, 9, 53, 80
4, 95880, Note_on_c, 9, 36, 95
4, 95880, Note_on_c, 9, 35, 95
4, 95880, Note_on_c, 9, 53, 95
4, 96000, Note_off_c, 9, 36, 80
4, 96000, Note_off_c, 9, 35, 80
4, 96000, Note_off_c, 9, 53, 80
4, 96000, Note_on_c, 9, 36, 95
4, 96000, Note_on_c, 9, 35, 95
4, 96000, Note_on_c, 9, 46, 95
4, 96000, Note_on_c, 9, 53, 95
4, 96120, Note_off_c, 9, 36, 80
4, 96120, Note_off_c, 9, 35, 80
4, 96120, Note_off_c, 9, 46, 80
4, 96120, Note_off_c, 9, 53, 80
4, 96120, Note_on_c, 9, 36, 95
4, 96120, Note_on_c, 9, 35, 95
4, 96120, Note_on_c, 9, 53, 95
4, 96240, Note_off_c, 9, 36, 80
4, 96240, Note_off_c, 9, 35, 80
4, 96240, Note_off_c, 9, 53, 80
4, 96240, Note_on_c, 9, 40, 95
4, 96240, Note_on_c, 9, 57, 95
4, 96240, Note_on_c, 9, 46, 95
4, 96240, Note_on_c, 9, 53, 95
4, 96360, Note_off_c, 9, 40, 80
4, 96360, Note_off_c, 9, 57, 80
4, 96360, Note_off_c, 9, 46, 80
4, 96360, Note_off_c, 9, 53, 80
4, 96360, Note_on_c, 9, 53, 95
4, 96480, Note_off_c, 9, 53, 80
4, 96480, Note_on_c, 9, 36, 95
4, 96480, Note_on_c, 9, 35, 95
4, 96480, Note_on_c, 9, 46, 95
4, 96480, Note_on_c, 9, 53, 95
4, 96600, Note_off_c, 9, 36, 80
4, 96600, Note_off_c, 9, 35, 80
4, 96600, Note_off_c, 9, 46, 80
4, 96600, Note_off_c, 9, 53, 80
4, 96600, Note_on_c, 9, 36, 95
4, 96600, Note_on_c, 9, 35, 95
4, 96600, Note_on_c, 9, 53, 95
4, 96720, Note_off_c, 9, 36, 80
4, 96720, Note_off_c, 9, 35, 80
4, 96720, Note_off_c, 9, 53, 80
4, 96720, Note_on_c, 9, 40, 95
4, 96720, Note_on_c, 9, 55, 95
4, 96720, Note_on_c, 9, 46, 95
4, 96720, Note_on_c, 9, 53, 95
4, 96840, Note_off_c, 9, 40, 80
4, 96840, Note_off_c, 9, 55, 80
4, 96840, Note_off_c, 9, 46, 80
4, 96840, Note_off_c, 9, 53, 80
4, 96840, Note_on_c, 9, 36, 95
4, 96840, Note_on_c, 9, 35, 95
4, 96840, Note_on_c, 9, 53, 95
4, 96960, Note_off_c, 9, 36, 80
4, 96960, Note_off_c, 9, 35, 80
4, 96960, Note_off_c, 9, 53, 80
4, 96960, Note_on_c, 9, 36, 95
4, 96960, Note_on_c, 9, 35, 95
4, 96960, Note_on_c, 9, 46, 95
4, 96960, Note_on_c, 9, 53, 95
4, 97080, Note_off_c, 9, 36, 80
4, 97080, Note_off_c, 9, 35, 80
4, 97080, Note_off_c, 9, 46, 80
4, 97080, Note_off_c, 9, 53, 80
4, 97080, Note_on_c, 9, 36, 95
4, 97080, Note_on_c, 9, 35, 95
4, 97080, Note_on_c, 9, 53, 95
4, 97200, Note_off_c, 9, 36, 80
4, 97200, Note_off_c, 9, 35, 80
4, 97200, Note_off_c, 9, 53, 80
4, 97200, Note_on_c, 9, 40, 95
4, 97200, Note_on_c, 9, 57, 95
4, 97200, Note_on_c, 9, 46, 95
4, 97200, Note_on_c, 9, 53, 95
4, 97320, Note_off_c, 9, 40, 80
4, 97320, Note_off_c, 9, 57, 80
4, 97320, Note_off_c, 9, 46, 80
4, 97320, Note_off_c, 9, 53, 80
4, 97320, Note_on_c, 9, 36, 95
4, 97320, Note_on_c, 9, 35, 95
4, 97320, Note_on_c, 9, 53, 95
4, 97440, Note_off_c, 9, 36, 80
4, 97440, Note_off_c, 9, 35, 80
4, 97440, Note_off_c, 9, 53, 80
4, 97440, Note_on_c, 9, 40, 95
4, 97440, Note_on_c, 9, 49, 95
4, 97440, Note_on_c, 9, 46, 95
4, 97440, Note_on_c, 9, 53, 95
4, 97560, Note_off_c, 9, 40, 80
4, 97560, Note_off_c, 9, 49, 80
4, 97560, Note_off_c, 9, 46, 80
4, 97560, Note_off_c, 9, 53, 80
4, 97560, Note_on_c, 9, 36, 95
4, 97560, Note_on_c, 9, 35, 95
4, 97560, Note_on_c, 9, 53, 95
4, 97680, Note_off_c, 9, 36, 80
4, 97680, Note_off_c, 9, 35, 80
4, 97680, Note_off_c, 9, 53, 80
4, 97680, Note_on_c, 9, 40, 95
4, 97680, Note_on_c, 9, 55, 95
4, 97680, Note_on_c, 9, 46, 95
4, 97680, Note_on_c, 9, 53, 95
4, 97800, Note_off_c, 9, 40, 80
4, 97800, Note_off_c, 9, 55, 80
4, 97800, Note_off_c, 9, 46, 80
4, 97800, Note_off_c, 9, 53, 80
4, 97800, Note_on_c, 9, 36, 95
4, 97800, Note_on_c, 9, 35, 95
4, 97800, Note_on_c, 9, 53, 95
4, 97920, Note_off_c, 9, 36, 80
4, 97920, Note_off_c, 9, 35, 80
4, 97920, Note_off_c, 9, 53, 80
4, 97920, Note_on_c, 9, 36, 95
4, 97920, Note_on_c, 9, 35, 95
4, 97920, Note_on_c, 9, 46, 95
4, 97920, Note_on_c, 9, 53, 95
4, 98040, Note_off_c, 9, 36, 80
4, 98040, Note_off_c, 9, 35, 80
4, 98040, Note_off_c, 9, 46, 80
4, 98040, Note_off_c, 9, 53, 80
4, 98040, Note_on_c, 9, 36, 95
4, 98040, Note_on_c, 9, 35, 95
4, 98040, Note_on_c, 9, 53, 95
4, 98160, Note_off_c, 9, 36, 80
4, 98160, Note_off_c, 9, 35, 80
4, 98160, Note_off_c, 9, 53, 80
4, 98160, Note_on_c, 9, 40, 95
4, 98160, Note_on_c, 9, 57, 95
4, 98160, Note_on_c, 9, 46, 95
4, 98160, Note_on_c, 9, 53, 95
4, 98280, Note_off_c, 9, 40, 80
4, 98280, Note_off_c, 9, 57, 80
4, 98280, Note_off_c, 9, 46, 80
4, 98280, Note_off_c, 9, 53, 80
4, 98280, Note_on_c, 9, 36, 95
4, 98280, Note_on_c, 9, 35, 95
4, 98280, Note_on_c, 9, 53, 95
4, 98400, Note_off_c, 9, 36, 80
4, 98400, Note_off_c, 9, 35, 80
4, 98400, Note_off_c, 9, 53, 80
4, 98400, Note_on_c, 9, 36, 95
4, 98400, Note_on_c, 9, 35, 95
4, 98400, Note_on_c, 9, 46, 95
4, 98400, Note_on_c, 9, 53, 95
4, 98520, Note_off_c, 9, 36, 80
4, 98520, Note_off_c, 9, 35, 80
4, 98520, Note_off_c, 9, 46, 80
4, 98520, Note_off_c, 9, 53, 80
4, 98520, Note_on_c, 9, 36, 95
4, 98520, Note_on_c, 9, 35, 95
4, 98520, Note_on_c, 9, 53, 95
4, 98640, Note_off_c, 9, 36, 80
4, 98640, Note_off_c, 9, 35, 80
4, 98640, Note_off_c, 9, 53, 80
4, 98640, Note_on_c, 9, 40, 95
4, 98640, Note_on_c, 9, 46, 95
4, 98640, Note_on_c, 9, 53, 95
4, 98760, Note_off_c, 9, 40, 80
4, 98760, Note_off_c, 9, 46, 80
4, 98760, Note_off_c, 9, 53, 80
4, 98760, Note_on_c, 9, 36, 95
4, 98760, Note_on_c, 9, 35, 95
4, 98760, Note_on_c, 9, 53, 95
4, 98880, Note_off_c, 9, 36, 80
4, 98880, Note_off_c, 9, 35, 80
4, 98880, Note_off_c, 9, 53, 80
4, 98880, Note_on_c, 9, 36, 95
4, 98880, Note_on_c, 9, 35, 95
4, 98880, Note_on_c, 9, 46, 95
4, 98880, Note_on_c, 9, 53, 95
4, 99000, Note_off_c, 9, 36, 80
4, 99000, Note_off_c, 9, 35, 80
4, 99000, Note_off_c, 9, 46, 80
4, 99000, Note_off_c, 9, 53, 80
4, 99000, Note_on_c, 9, 36, 95
4, 99000, Note_on_c, 9, 35, 95
4, 99000, Note_on_c, 9, 53, 95
4, 99120, Note_off_c, 9, 36, 80
4, 99120, Note_off_c, 9, 35, 80
4, 99120, Note_off_c, 9, 53, 80
4, 99120, Note_on_c, 9, 40, 95
4, 99120, Note_on_c, 9, 49, 95
4, 99120, Note_on_c, 9, 46, 95
4, 99120, Note_on_c, 9, 53, 95
4, 99240, Note_off_c, 9, 40, 80
4, 99240, Note_off_c, 9, 49, 80
4, 99240, Note_off_c, 9, 46, 80
4, 99240, Note_off_c, 9, 53, 80
4, 99240, Note_on_c, 9, 36, 95
4, 99240, Note_on_c, 9, 35, 95
4, 99240, Note_on_c, 9, 53, 95
4, 99300, Note_off_c, 9, 36, 80
4, 99300, Note_off_c, 9, 35, 80
4, 99300, Note_off_c, 9, 53, 80
4, 99360, Note_on_c, 9, 36, 95
4, 99360, Note_on_c, 9, 35, 95
4, 99360, Note_on_c, 9, 46, 95
4, 99360, Note_on_c, 9, 53, 95
4, 99420, Note_off_c, 9, 36, 80
4, 99420, Note_off_c, 9, 35, 80
4, 99420, Note_off_c, 9, 46, 80
4, 99420, Note_off_c, 9, 53, 80
4, 99480, Note_on_c, 9, 36, 95
4, 99480, Note_on_c, 9, 35, 95
4, 99480, Note_on_c, 9, 53, 95
4, 99540, Note_off_c, 9, 36, 80
4, 99540, Note_off_c, 9, 35, 80
4, 99540, Note_off_c, 9, 53, 80
4, 99600, Note_on_c, 9, 36, 95
4, 99600, Note_on_c, 9, 35, 95
4, 99600, Note_on_c, 9, 46, 95
4, 99600, Note_on_c, 9, 40, 95
4, 99600, Note_on_c, 9, 53, 95
4, 99660, Note_off_c, 9, 36, 80
4, 99660, Note_off_c, 9, 35, 80
4, 99660, Note_off_c, 9, 46, 80
4, 99660, Note_off_c, 9, 40, 80
4, 99660, Note_off_c, 9, 53, 80
4, 99720, Note_on_c, 9, 36, 95
4, 99720, Note_on_c, 9, 35, 95
4, 99720, Note_on_c, 9, 53, 95
4, 99780, Note_off_c, 9, 36, 80
4, 99780, Note_off_c, 9, 35, 80
4, 99780, Note_off_c, 9, 53, 80
4, 99840, Note_on_c, 9, 36, 95
4, 99840, Note_on_c, 9, 35, 95
4, 99840, Note_on_c, 9, 46, 95
4, 99840, Note_on_c, 9, 53, 95
4, 99960, Note_off_c, 9, 36, 80
4, 99960, Note_off_c, 9, 35, 80
4, 99960, Note_off_c, 9, 46, 80
4, 99960, Note_off_c, 9, 53, 80
4, 99960, Note_on_c, 9, 36, 95
4, 99960, Note_on_c, 9, 35, 95
4, 99960, Note_on_c, 9, 53, 95
4, 100080, Note_off_c, 9, 36, 80
4, 100080, Note_off_c, 9, 35, 80
4, 100080, Note_off_c, 9, 53, 80
4, 100080, Note_on_c, 9, 40, 95
4, 100080, Note_on_c, 9, 49, 95
4, 100080, Note_on_c, 9, 46, 95
4, 100080, Note_on_c, 9, 53, 95
4, 100200, Note_off_c, 9, 40, 80
4, 100200, Note_off_c, 9, 49, 80
4, 100200, Note_off_c, 9, 46, 80
4, 100200, Note_off_c, 9, 53, 80
4, 100200, Note_on_c, 9, 36, 95
4, 100200, Note_on_c, 9, 35, 95
4, 100200, Note_on_c, 9, 53, 95
4, 100260, Note_off_c, 9, 36, 80
4, 100260, Note_off_c, 9, 35, 80
4, 100260, Note_off_c, 9, 53, 80
4, 100320, Note_on_c, 9, 36, 95
4, 100320, Note_on_c, 9, 35, 95
4, 100320, Note_on_c, 9, 46, 95
4, 100320, Note_on_c, 9, 53, 95
4, 100380, Note_off_c, 9, 36, 80
4, 100380, Note_off_c, 9, 35, 80
4, 100380, Note_off_c, 9, 46, 80
4, 100380, Note_off_c, 9, 53, 80
4, 100440, Note_on_c, 9, 36, 95
4, 100440, Note_on_c, 9, 35, 95
4, 100440, Note_on_c, 9, 53, 95
4, 100500, Note_off_c, 9, 36, 80
4, 100500, Note_off_c, 9, 35, 80
4, 100500, Note_off_c, 9, 53, 80
4, 100560, Note_on_c, 9, 36, 95
4, 100560, Note_on_c, 9, 35, 95
4, 100560, Note_on_c, 9, 46, 95
4, 100560, Note_on_c, 9, 40, 95
4, 100560, Note_on_c, 9, 53, 95
4, 100620, Note_off_c, 9, 36, 80
4, 100620, Note_off_c, 9, 35, 80
4, 100620, Note_off_c, 9, 46, 80
4, 100620, Note_off_c, 9, 40, 80
4, 100620, Note_off_c, 9, 53, 80
4, 100680, Note_on_c, 9, 36, 95
4, 100680, Note_on_c, 9, 35, 95
4, 100680, Note_on_c, 9, 53, 95
4, 100740, Note_off_c, 9, 36, 80
4, 100740, Note_off_c, 9, 35, 80
4, 100740, Note_off_c, 9, 53, 80
4, 100800, Note_on_c, 9, 36, 95
4, 100800, Note_on_c, 9, 35, 95
4, 100800, Note_on_c, 9, 46, 95
4, 100800, Note_on_c, 9, 53, 95
4, 100920, Note_off_c, 9, 36, 80
4, 100920, Note_off_c, 9, 35, 80
4, 100920, Note_off_c, 9, 46, 80
4, 100920, Note_off_c, 9, 53, 80
4, 100920, Note_on_c, 9, 36, 95
4, 100920, Note_on_c, 9, 35, 95
4, 100920, Note_on_c, 9, 53, 95
4, 101040, Note_off_c, 9, 36, 80
4, 101040, Note_off_c, 9, 35, 80
4, 101040, Note_off_c, 9, 53, 80
4, 101040, Note_on_c, 9, 40, 95
4, 101040, Note_on_c, 9, 49, 95
4, 101040, Note_on_c, 9, 46, 95
4, 101040, Note_on_c, 9, 53, 95
4, 101160, Note_off_c, 9, 40, 80
4, 101160, Note_off_c, 9, 49, 80
4, 101160, Note_off_c, 9, 46, 80
4, 101160, Note_off_c, 9, 53, 80
4, 101160, Note_on_c, 9, 36, 95
4, 101160, Note_on_c, 9, 35, 95
4, 101160, Note_on_c, 9, 53, 95
4, 101220, Note_off_c, 9, 36, 80
4, 101220, Note_off_c, 9, 35, 80
4, 101220, Note_off_c, 9, 53, 80
4, 101280, Note_on_c, 9, 36, 95
4, 101280, Note_on_c, 9, 35, 95
4, 101280, Note_on_c, 9, 46, 95
4, 101280, Note_on_c, 9, 53, 95
4, 101340, Note_off_c, 9, 36, 80
4, 101340, Note_off_c, 9, 35, 80
4, 101340, Note_off_c, 9, 46, 80
4, 101340, Note_off_c, 9, 53, 80
4, 101400, Note_on_c, 9, 36, 95
4, 101400, Note_on_c, 9, 35, 95
4, 101400, Note_on_c, 9, 53, 95
4, 101460, Note_off_c, 9, 36, 80
4, 101460, Note_off_c, 9, 35, 80
4, 101460, Note_off_c, 9, 53, 80
4, 101520, Note_on_c, 9, 36, 95
4, 101520, Note_on_c, 9, 35, 95
4, 101520, Note_on_c, 9, 46, 95
4, 101520, Note_on_c, 9, 40, 95
4, 101520, Note_on_c, 9, 53, 95
4, 101580, Note_off_c, 9, 36, 80
4, 101580, Note_off_c, 9, 35, 80
4, 101580, Note_off_c, 9, 46, 80
4, 101580, Note_off_c, 9, 40, 80
4, 101580, Note_off_c, 9, 53, 80
4, 101640, Note_on_c, 9, 36, 95
4, 101640, Note_on_c, 9, 35, 95
4, 101640, Note_on_c, 9, 53, 95
4, 101700, Note_off_c, 9, 36, 80
4, 101700, Note_off_c, 9, 35, 80
4, 101700, Note_off_c, 9, 53, 80
4, 101760, Note_on_c, 9, 49, 95
4, 101760, Note_on_c, 9, 36, 95
4, 101760, Note_on_c, 9, 35, 95
4, 101760, Note_on_c, 9, 49, 95
4, 101820, Note_off_c, 9, 49, 80
4, 101820, Note_off_c, 9, 36, 80
4, 101820, Note_off_c, 9, 35, 80
4, 101820, Note_off_c, 9, 49, 80
4, 101820, End_track
5, 0, Start_track
5, 0, Title_t, "4"
5, 0, Control_c, 4, 100, 0
5, 0, Control_c, 4, 101, 0
5, 0, Control_c, 4, 6, 2
5, 0, Pitch_bend_c, 4, 8192
5, 0, Control_c, 5, 100, 0
5, 0, Control_c, 5, 101, 0
5, 0, Control_c, 5, 6, 2
5, 0, Pitch_bend_c, 5, 8192
5, 0, Program_c, 4, 6
5, 0, Program_c, 5, 6
5, 0, Control_c, 4, 7, 112
5, 0, Control_c, 5, 7, 112
5, 0, Control_c, 4, 10, 80
5, 0, Control_c, 5, 10, 80
5, 0, Control_c, 4, 93, 0
5, 0, Control_c, 5, 93, 0
5, 0, Control_c, 4, 91, 40
5, 0, Control_c, 5, 91, 40
5, 0, Control_c, 4, 92, 0
5, 0, Control_c, 5, 92, 0
5, 0, Control_c, 4, 95, 0
5, 0, Control_c, 5, 95, 0
5, 19200, Note_on_c, 4, 70, 95
5, 19200, Note_on_c, 4, 70, 95
5, 19320, Note_off_c, 4, 70, 80
5, 19320, Note_off_c, 4, 70, 80
5, 19320, Note_on_c, 4, 73, 95
5, 19440, Note_off_c, 4, 73, 80
5, 19440, Note_on_c, 4, 72, 95
5, 19560, Note_off_c, 4, 72, 80
5, 19560, Note_on_c, 4, 73, 95
5, 19680, Note_off_c, 4, 73, 80
5, 19680, Note_on_c, 4, 70, 95
5, 19800, Note_off_c, 4, 70, 80
5, 19800, Note_on_c, 4, 73, 95
5, 19920, Note_off_c, 4, 73, 80
5, 19920, Note_on_c, 4, 72, 95
5, 20040, Note_off_c, 4, 72, 80
5, 20040, Note_on_c, 4, 73, 95
5, 20160, Note_off_c, 4, 73, 80
5, 20160, Note_on_c, 4, 70, 95
5, 20280, Note_off_c, 4, 70, 80
5, 20280, Note_on_c, 4, 73, 95
5, 20400, Note_off_c, 4, 73, 80
5, 20400, Note_on_c, 4, 72, 95
5, 20520, Note_off_c, 4, 72, 80
5, 20520, Note_on_c, 4, 73, 95
5, 20640, Note_off_c, 4, 73, 80
5, 20640, Note_on_c, 4, 70, 95
5, 20760, Note_off_c, 4, 70, 80
5, 20760, Note_on_c, 4, 73, 95
5, 20880, Note_off_c, 4, 73, 80
5, 20880, Note_on_c, 4, 72, 95
5, 21000, Note_off_c, 4, 72, 80
5, 21000, Note_on_c, 4, 73, 95
5, 21120, Note_off_c, 4, 73, 80
5, 21120, Note_on_c, 4, 70, 95
5, 21240, Note_off_c, 4, 70, 80
5, 21240, Note_on_c, 4, 73, 95
5, 21360, Note_off_c, 4, 73, 80
5, 21360, Note_on_c, 4, 72, 95
5, 21480, Note_off_c, 4, 72, 80
5, 21480, Note_on_c, 4, 73, 95
5, 21600, Note_off_c, 4, 73, 80
5, 21600, Note_on_c, 4, 70, 95
5, 21720, Note_off_c, 4, 70, 80
5, 21720, Note_on_c, 4, 73, 95
5, 21840, Note_off_c, 4, 73, 80
5, 21840, Note_on_c, 4, 72, 95
5, 21960, Note_off_c, 4, 72, 80
5, 21960, Note_on_c, 4, 73, 95
5, 22080, Note_off_c, 4, 73, 80
5, 22080, Note_on_c, 4, 70, 95
5, 22200, Note_off_c, 4, 70, 80
5, 22200, Note_on_c, 4, 73, 95
5, 22320, Note_off_c, 4, 73, 80
5, 22320, Note_on_c, 4, 72, 95
5, 22440, Note_off_c, 4, 72, 80
5, 22440, Note_on_c, 4, 73, 95
5, 22560, Note_off_c, 4, 73, 80
5, 22560, Note_on_c, 4, 70, 95
5, 22680, Note_off_c, 4, 70, 80
5, 22680, Note_on_c, 4, 73, 95
5, 22800, Note_off_c, 4, 73, 80
5, 22800, Note_on_c, 4, 72, 95
5, 22920, Note_off_c, 4, 72, 80
5, 22920, Note_on_c, 4, 73, 95
5, 23040, Note_off_c, 4, 73, 80
5, 23040, Note_on_c, 4, 66, 95
5, 23160, Note_off_c, 4, 66, 80
5, 23160, Note_on_c, 4, 75, 95
5, 23280, Note_off_c, 4, 75, 80
5, 23280, Note_on_c, 4, 74, 95
5, 23400, Note_off_c, 4, 74, 80
5, 23400, Note_on_c, 4, 75, 95
5, 23520, Note_off_c, 4, 75, 80
5, 23520, Note_on_c, 4, 70, 95
5, 23640, Note_off_c, 4, 70, 80
5, 23640, Note_on_c, 4, 75, 95
5, 23760, Note_off_c, 4, 75, 80
5, 23760, Note_on_c, 4, 74, 95
5, 23880, Note_off_c, 4, 74, 80
5, 23880, Note_on_c, 4, 75, 95
5, 24000, Note_off_c, 4, 75, 80
5, 24000, Note_on_c, 4, 66, 95
5, 24120, Note_off_c, 4, 66, 80
5, 24120, Note_on_c, 4, 75, 95
5, 24240, Note_off_c, 4, 75, 80
5, 24240, Note_on_c, 4, 74, 95
5, 24360, Note_off_c, 4, 74, 80
5, 24360, Note_on_c, 4, 75, 95
5, 24480, Note_off_c, 4, 75, 80
5, 24480, Note_on_c, 4, 70, 95
5, 24600, Note_off_c, 4, 70, 80
5, 24600, Note_on_c, 4, 75, 95
5, 24720, Note_off_c, 4, 75, 80
5, 24720, Note_on_c, 4, 74, 95
5, 24840, Note_off_c, 4, 74, 80
5, 24840, Note_on_c, 4, 75, 95
5, 24960, Note_off_c, 4, 75, 80
5, 24960, Note_on_c, 4, 69, 95
5, 25080, Note_off_c, 4, 69, 80
5, 25080, Note_on_c, 4, 75, 95
5, 25200, Note_off_c, 4, 75, 80
5, 25200, Note_on_c, 4, 73, 95
5, 25320, Note_off_c, 4, 73, 80
5, 25320, Note_on_c, 4, 75, 95
5, 25440, Note_off_c, 4, 75, 80
5, 25440, Note_on_c, 4, 72, 95
5, 25560, Note_off_c, 4, 72, 80
5, 25560, Note_on_c, 4, 75, 95
5, 25680, Note_off_c, 4, 75, 80
5, 25680, Note_on_c, 4, 73, 95
5, 25800, Note_off_c, 4, 73, 80
5, 25800, Note_on_c, 4, 75, 95
5, 25920, Note_off_c, 4, 75, 80
5, 25920, Note_on_c, 4, 69, 95
5, 26040, Note_off_c, 4, 69, 80
5, 26040, Note_on_c, 4, 75, 95
5, 26160, Note_off_c, 4, 75, 80
5, 26160, Note_on_c, 4, 73, 95
5, 26280, Note_off_c, 4, 73, 80
5, 26280, Note_on_c, 4, 75, 95
5, 26400, Note_off_c, 4, 75, 80
5, 26400, Note_on_c, 4, 72, 95
5, 26520, Note_off_c, 4, 72, 80
5, 26520, Note_on_c, 4, 75, 95
5, 26640, Note_off_c, 4, 75, 80
5, 26640, Note_on_c, 4, 73, 95
5, 26760, Note_off_c, 4, 73, 80
5, 26760, Note_on_c, 4, 75, 95
5, 26880, Note_off_c, 4, 75, 80
5, 26880, Note_on_c, 4, 70, 95
5, 27000, Note_off_c, 4, 70, 80
5, 27000, Note_on_c, 4, 77, 95
5, 27120, Note_off_c, 4, 77, 80
5, 27120, Note_on_c, 4, 75, 95
5, 27240, Note_off_c, 4, 75, 80
5, 27240, Note_on_c, 4, 77, 95
5, 27360, Note_off_c, 4, 77, 80
5, 27360, Note_on_c, 4, 73, 95
5, 27480, Note_off_c, 4, 73, 80
5, 27480, Note_on_c, 4, 77, 95
5, 27600, Note_off_c, 4, 77, 80
5, 27600, Note_on_c, 4, 75, 95
5, 27720, Note_off_c, 4, 75, 80
5, 27720, Note_on_c, 4, 77, 95
5, 27840, Note_off_c, 4, 77, 80
5, 27840, Note_on_c, 4, 70, 95
5, 27960, Note_off_c, 4, 70, 80
5, 27960, Note_on_c, 4, 77, 95
5, 28080, Note_off_c, 4, 77, 80
5, 28080, Note_on_c, 4, 75, 95
5, 28200, Note_off_c, 4, 75, 80
5, 28200, Note_on_c, 4, 77, 95
5, 28320, Note_off_c, 4, 77, 80
5, 28320, Note_on_c, 4, 73, 95
5, 28440, Note_off_c, 4, 73, 80
5, 28440, Note_on_c, 4, 77, 95
5, 28560, Note_off_c, 4, 77, 80
5, 28560, Note_on_c, 4, 75, 95
5, 28680, Note_off_c, 4, 75, 80
5, 28680, Note_on_c, 4, 77, 95
5, 28800, Note_off_c, 4, 77, 80
5, 28800, Note_on_c, 4, 70, 95
5, 28920, Note_off_c, 4, 70, 80
5, 28920, Note_on_c, 4, 73, 95
5, 29040, Note_off_c, 4, 73, 80
5, 29040, Note_on_c, 4, 72, 95
5, 29160, Note_off_c, 4, 72, 80
5, 29160, Note_on_c, 4, 73, 95
5, 29280, Note_off_c, 4, 73, 80
5, 29280, Note_on_c, 4, 70, 95
5, 29400, Note_off_c, 4, 70, 80
5, 29400, Note_on_c, 4, 73, 95
5, 29520, Note_off_c, 4, 73, 80
5, 29520, Note_on_c, 4, 72, 95
5, 29640, Note_off_c, 4, 72, 80
5, 29640, Note_on_c, 4, 73, 95
5, 29760, Note_off_c, 4, 73, 80
5, 29760, Note_on_c, 4, 70, 95
5, 29880, Note_off_c, 4, 70, 80
5, 29880, Note_on_c, 4, 73, 95
5, 30000, Note_off_c, 4, 73, 80
5, 30000, Note_on_c, 4, 72, 95
5, 30120, Note_off_c, 4, 72, 80
5, 30120, Note_on_c, 4, 73, 95
5, 30240, Note_off_c, 4, 73, 80
5, 30240, Note_on_c, 4, 70, 95
5, 30360, Note_off_c, 4, 70, 80
5, 30360, Note_on_c, 4, 73, 95
5, 30480, Note_off_c, 4, 73, 80
5, 30480, Note_on_c, 4, 72, 95
5, 30600, Note_off_c, 4, 72, 80
5, 30600, Note_on_c, 4, 73, 95
5, 30720, Note_off_c, 4, 73, 80
5, 30720, Note_on_c, 4, 66, 95
5, 30840, Note_off_c, 4, 66, 80
5, 30840, Note_on_c, 4, 75, 95
5, 30960, Note_off_c, 4, 75, 80
5, 30960, Note_on_c, 4, 74, 95
5, 31080, Note_off_c, 4, 74, 80
5, 31080, Note_on_c, 4, 75, 95
5, 31200, Note_off_c, 4, 75, 80
5, 31200, Note_on_c, 4, 70, 95
5, 31320, Note_off_c, 4, 70, 80
5, 31320, Note_on_c, 4, 75, 95
5, 31440, Note_off_c, 4, 75, 80
5, 31440, Note_on_c, 4, 74, 95
5, 31560, Note_off_c, 4, 74, 80
5, 31560, Note_on_c, 4, 75, 95
5, 31680, Note_off_c, 4, 75, 80
5, 31680, Note_on_c, 4, 66, 95
5, 31800, Note_off_c, 4, 66, 80
5, 31800, Note_on_c, 4, 75, 95
5, 31920, Note_off_c, 4, 75, 80
5, 31920, Note_on_c, 4, 74, 95
5, 32040, Note_off_c, 4, 74, 80
5, 32040, Note_on_c, 4, 75, 95
5, 32160, Note_off_c, 4, 75, 80
5, 32160, Note_on_c, 4, 70, 95
5, 32280, Note_off_c, 4, 70, 80
5, 32280, Note_on_c, 4, 75, 95
5, 32400, Note_off_c, 4, 75, 80
5, 32400, Note_on_c, 4, 74, 95
5, 32520, Note_off_c, 4, 74, 80
5, 32520, Note_on_c, 4, 75, 95
5, 32640, Note_off_c, 4, 75, 80
5, 32640, Note_on_c, 4, 69, 95
5, 32760, Note_off_c, 4, 69, 80
5, 32760, Note_on_c, 4, 75, 95
5, 32880, Note_off_c, 4, 75, 80
5, 32880, Note_on_c, 4, 73, 95
5, 33000, Note_off_c, 4, 73, 80
5, 33000, Note_on_c, 4, 75, 95
5, 33120, Note_off_c, 4, 75, 80
5, 33120, Note_on_c, 4, 72, 95
5, 33240, Note_off_c, 4, 72, 80
5, 33240, Note_on_c, 4, 75, 95
5, 33360, Note_off_c, 4, 75, 80
5, 33360, Note_on_c, 4, 73, 95
5, 33480, Note_off_c, 4, 73, 80
5, 33480, Note_on_c, 4, 75, 95
5, 33600, Note_off_c, 4, 75, 80
5, 33600, Note_on_c, 4, 69, 95
5, 33720, Note_off_c, 4, 69, 80
5, 33720, Note_on_c, 4, 75, 95
5, 33840, Note_off_c, 4, 75, 80
5, 33840, Note_on_c, 4, 73, 95
5, 33960, Note_off_c, 4, 73, 80
5, 33960, Note_on_c, 4, 75, 95
5, 34080, Note_off_c, 4, 75, 80
5, 34080, Note_on_c, 4, 72, 95
5, 34200, Note_off_c, 4, 72, 80
5, 34200, Note_on_c, 4, 75, 95
5, 34320, Note_off_c, 4, 75, 80
5, 34320, Note_on_c, 4, 73, 95
5, 34440, Note_off_c, 4, 73, 80
5, 34440, Note_on_c, 4, 75, 95
5, 34560, Note_off_c, 4, 75, 80
5, 34560, Note_on_c, 4, 70, 95
5, 34680, Note_off_c, 4, 70, 80
5, 34680, Note_on_c, 4, 77, 95
5, 34800, Note_off_c, 4, 77, 80
5, 34800, Note_on_c, 4, 75, 95
5, 34920, Note_off_c, 4, 75, 80
5, 34920, Note_on_c, 4, 77, 95
5, 35040, Note_off_c, 4, 77, 80
5, 35040, Note_on_c, 4, 73, 95
5, 35160, Note_off_c, 4, 73, 80
5, 35160, Note_on_c, 4, 77, 95
5, 35280, Note_off_c, 4, 77, 80
5, 35280, Note_on_c, 4, 75, 95
5, 35400, Note_off_c, 4, 75, 80
5, 35400, Note_on_c, 4, 77, 95
5, 35520, Note_off_c, 4, 77, 80
5, 35520, Note_on_c, 4, 70, 95
5, 35640, Note_off_c, 4, 70, 80
5, 35640, Note_on_c, 4, 77, 95
5, 35760, Note_off_c, 4, 77, 80
5, 35760, Note_on_c, 4, 75, 95
5, 35880, Note_off_c, 4, 75, 80
5, 35880, Note_on_c, 4, 77, 95
5, 36000, Note_off_c, 4, 77, 80
5, 36000, Note_on_c, 4, 73, 95
5, 36120, Note_off_c, 4, 73, 80
5, 36120, Note_on_c, 4, 77, 95
5, 36240, Note_off_c, 4, 77, 80
5, 36240, Note_on_c, 4, 75, 95
5, 36360, Note_off_c, 4, 75, 80
5, 36360, Note_on_c, 4, 77, 95
5, 36480, Note_off_c, 4, 77, 80
5, 36480, Control_c, 4, 7, 127
5, 36480, Control_c, 5, 7, 127
5, 36480, Control_c, 4, 93, 0
5, 36480, Control_c, 5, 93, 0
5, 36480, Control_c, 4, 91, 40
5, 36480, Control_c, 5, 91, 40
5, 36480, Note_on_c, 4, 82, 95
5, 36600, Note_off_c, 4, 82, 80
5, 36600, Note_on_c, 4, 85, 95
5, 36720, Note_off_c, 4, 85, 80
5, 36720, Note_on_c, 4, 84, 95
5, 36840, Note_off_c, 4, 84, 80
5, 36840, Note_on_c, 4, 85, 95
5, 36960, Note_off_c, 4, 85, 80
5, 36960, Note_on_c, 4, 82, 95
5, 37080, Note_off_c, 4, 82, 80
5, 37080, Note_on_c, 4, 85, 95
5, 37200, Note_off_c, 4, 85, 80
5, 37200, Note_on_c, 4, 84, 95
5, 37320, Note_off_c, 4, 84, 80
5, 37320, Note_on_c, 4, 85, 95
5, 37440, Note_off_c, 4, 85, 80
5, 37440, Control_c, 4, 7, 112
5, 37440, Control_c, 5, 7, 112
5, 37440, Control_c, 4, 93, 96
5, 37440, Control_c, 5, 93, 96
5, 37440, Control_c, 4, 91, 96
5, 37440, Control_c, 5, 91, 96
5, 37440, Note_on_c, 4, 82, 95
5, 37440, Note_on_c, 4, 58, 95
5, 37560, Note_off_c, 4, 82, 80
5, 37560, Note_off_c, 4, 58, 80
5, 37560, Note_on_c, 4, 85, 95
5, 37560, Note_on_c, 4, 61, 95
5, 37680, Note_off_c, 4, 85, 80
5, 37680, Note_off_c, 4, 61, 80
5, 37680, Note_on_c, 4, 84, 95
5, 37680, Note_on_c, 4, 60, 95
5, 37800, Note_off_c, 4, 84, 80
5, 37800, Note_off_c, 4, 60, 80
5, 37800, Note_on_c, 4, 85, 95
5, 37800, Note_on_c, 4, 61, 95
5, 37920, Note_off_c, 4, 85, 80
5, 37920, Note_off_c, 4, 61, 80
5, 37920, Note_on_c, 4, 82, 95
5, 37920, Note_on_c, 4, 58, 95
5, 38040, Note_off_c, 4, 82, 80
5, 38040, Note_off_c, 4, 58, 80
5, 38040, Note_on_c, 4, 85, 95
5, 38040, Note_on_c, 4, 61, 95
5, 38160, Note_off_c, 4, 85, 80
5, 38160, Note_off_c, 4, 61, 80
5, 38160, Note_on_c, 4, 84, 95
5, 38160, Note_on_c, 4, 60, 95
5, 38280, Note_off_c, 4, 84, 80
5, 38280, Note_off_c, 4, 60, 80
5, 38280, Note_on_c, 4, 85, 95
5, 38280, Note_on_c, 4, 61, 95
5, 38400, Note_off_c, 4, 85, 80
5, 38400, Note_off_c, 4, 61, 80
5, 38400, Program_c, 4, 30
5, 38400, Program_c, 5, 30
5, 38400, Control_c, 4, 7, 120
5, 38400, Control_c, 5, 7, 120
5, 38400, Control_c, 4, 93, 40
5, 38400, Control_c, 5, 93, 40
5, 38400, Control_c, 4, 91, 120
5, 38400, Control_c, 5, 91, 120
5, 38400, Note_on_c, 4, 82, 95
5, 38520, Note_off_c, 4, 82, 80
5, 38520, Note_on_c, 4, 75, 95
5, 38640, Note_off_c, 4, 75, 80
5, 38640, Note_on_c, 4, 74, 95
5, 38760, Note_off_c, 4, 74, 80
5, 38760, Note_on_c, 4, 75, 95
5, 38880, Note_off_c, 4, 75, 80
5, 38880, Note_on_c, 4, 70, 95
5, 39000, Note_off_c, 4, 70, 80
5, 39000, Note_on_c, 4, 75, 95
5, 39120, Note_off_c, 4, 75, 80
5, 39120, Note_on_c, 4, 74, 95
5, 39240, Note_off_c, 4, 74, 80
5, 39240, Note_on_c, 4, 75, 95
5, 39360, Note_off_c, 4, 75, 80
5, 39360, Note_on_c, 4, 82, 95
5, 39480, Note_off_c, 4, 82, 80
5, 39480, Note_on_c, 4, 75, 95
5, 39600, Note_off_c, 4, 75, 80
5, 39600, Note_on_c, 4, 74, 95
5, 39720, Note_off_c, 4, 74, 80
5, 39720, Note_on_c, 4, 75, 95
5, 39840, Note_off_c, 4, 75, 80
5, 39840, Note_on_c, 4, 70, 95
5, 39960, Note_off_c, 4, 70, 80
5, 39960, Note_on_c, 4, 75, 95
5, 40080, Note_off_c, 4, 75, 80
5, 40080, Note_on_c, 4, 74, 95
5, 40200, Note_off_c, 4, 74, 80
5, 40200, Note_on_c, 4, 75, 95
5, 40320, Note_off_c, 4, 75, 80
5, 40320, Note_on_c, 4, 80, 95
5, 40440, Note_off_c, 4, 80, 80
5, 40440, Note_on_c, 4, 75, 95
5, 40560, Note_off_c, 4, 75, 80
5, 40560, Note_on_c, 4, 73, 95
5, 40680, Note_off_c, 4, 73, 80
5, 40680, Note_on_c, 4, 75, 95
5, 40800, Note_off_c, 4, 75, 80
5, 40800, Note_on_c, 4, 72, 95
5, 40920, Note_off_c, 4, 72, 80
5, 40920, Note_on_c, 4, 75, 95
5, 41040, Note_off_c, 4, 75, 80
5, 41040, Note_on_c, 4, 73, 95
5, 41160, Note_off_c, 4, 73, 80
5, 41160, Note_on_c, 4, 75, 95
5, 41280, Note_off_c, 4, 75, 80
5, 41280, Note_on_c, 4, 80, 95
5, 41400, Note_off_c, 4, 80, 80
5, 41400, Note_on_c, 4, 75, 95
5, 41520, Note_off_c, 4, 75, 80
5, 41520, Note_on_c, 4, 73, 95
5, 41640, Note_off_c, 4, 73, 80
5, 41640, Note_on_c, 4, 75, 95
5, 41760, Note_off_c, 4, 75, 80
5, 41760, Note_on_c, 4, 72, 95
5, 41880, Note_off_c, 4, 72, 80
5, 41880, Note_on_c, 4, 75, 95
5, 42000, Note_off_c, 4, 75, 80
5, 42000, Note_on_c, 4, 73, 95
5, 42120, Note_off_c, 4, 73, 80
5, 42120, Note_on_c, 4, 75, 95
5, 42240, Note_off_c, 4, 75, 80
5, 42240, Note_on_c, 4, 80, 95
5, 42360, Note_off_c, 4, 80, 80
5, 42360, Note_on_c, 4, 77, 95
5, 42480, Note_off_c, 4, 77, 80
5, 42480, Note_on_c, 4, 75, 95
5, 42600, Note_off_c, 4, 75, 80
5, 42600, Note_on_c, 4, 77, 95
5, 42720, Note_off_c, 4, 77, 80
5, 42720, Note_on_c, 4, 73, 95
5, 42840, Note_off_c, 4, 73, 80
5, 42840, Note_on_c, 4, 77, 95
5, 42960, Note_off_c, 4, 77, 80
5, 42960, Note_on_c, 4, 75, 95
5, 43080, Note_off_c, 4, 75, 80
5, 43080, Note_on_c, 4, 77, 95
5, 43200, Note_off_c, 4, 77, 80
5, 43200, Note_on_c, 4, 80, 95
5, 43320, Note_off_c, 4, 80, 80
5, 43320, Note_on_c, 4, 77, 95
5, 43440, Note_off_c, 4, 77, 80
5, 43440, Note_on_c, 4, 75, 95
5, 43560, Note_off_c, 4, 75, 80
5, 43560, Note_on_c, 4, 77, 95
5, 43680, Note_off_c, 4, 77, 80
5, 43680, Note_on_c, 4, 73, 95
5, 43800, Note_off_c, 4, 73, 80
5, 43800, Note_on_c, 4, 77, 95
5, 43920, Note_off_c, 4, 77, 80
5, 43920, Note_on_c, 4, 75, 95
5, 44040, Note_off_c, 4, 75, 80
5, 44040, Note_on_c, 4, 77, 95
5, 44160, Note_off_c, 4, 77, 80
5, 44160, Note_on_c, 4, 78, 95
5, 44280, Note_off_c, 4, 78, 80
5, 44280, Note_on_c, 4, 77, 95
5, 44400, Note_off_c, 4, 77, 80
5, 44400, Note_on_c, 4, 75, 95
5, 44520, Note_off_c, 4, 75, 80
5, 44520, Note_on_c, 4, 77, 95
5, 44640, Note_off_c, 4, 77, 80
5, 44640, Note_on_c, 4, 73, 95
5, 44760, Note_off_c, 4, 73, 80
5, 44760, Note_on_c, 4, 77, 95
5, 44880, Note_off_c, 4, 77, 80
5, 44880, Note_on_c, 4, 75, 95
5, 45000, Note_off_c, 4, 75, 80
5, 45000, Note_on_c, 4, 77, 95
5, 45120, Note_off_c, 4, 77, 80
5, 45120, Note_on_c, 4, 78, 95
5, 45240, Note_off_c, 4, 78, 80
5, 45240, Note_on_c, 4, 77, 95
5, 45360, Note_off_c, 4, 77, 80
5, 45360, Note_on_c, 4, 75, 95
5, 45480, Note_off_c, 4, 75, 80
5, 45480, Note_on_c, 4, 77, 95
5, 45600, Note_off_c, 4, 77, 80
5, 45600, Note_on_c, 4, 73, 95
5, 45720, Note_off_c, 4, 73, 80
5, 45720, Note_on_c, 4, 77, 95
5, 45840, Note_off_c, 4, 77, 80
5, 45840, Note_on_c, 4, 75, 95
5, 45960, Note_off_c, 4, 75, 80
5, 45960, Note_on_c, 4, 77, 95
5, 46080, Note_off_c, 4, 77, 80
5, 46080, Note_on_c, 4, 78, 95
5, 46200, Note_off_c, 4, 78, 80
5, 46200, Note_on_c, 4, 72, 95
5, 46320, Note_off_c, 4, 72, 80
5, 46320, Note_on_c, 4, 70, 95
5, 46440, Note_off_c, 4, 70, 80
5, 46440, Note_on_c, 4, 72, 95
5, 46560, Note_off_c, 4, 72, 80
5, 46560, Note_on_c, 4, 68, 95
5, 46680, Note_off_c, 4, 68, 80
5, 46680, Note_on_c, 4, 72, 95
5, 46800, Note_off_c, 4, 72, 80
5, 46800, Note_on_c, 4, 70, 95
5, 46920, Note_off_c, 4, 70, 80
5, 46920, Note_on_c, 4, 72, 95
5, 47040, Note_off_c, 4, 72, 80
5, 47040, Note_on_c, 4, 78, 95
5, 47160, Note_off_c, 4, 78, 80
5, 47160, Note_on_c, 4, 72, 95
5, 47280, Note_off_c, 4, 72, 80
5, 47280, Note_on_c, 4, 70, 95
5, 47400, Note_off_c, 4, 70, 80
5, 47400, Note_on_c, 4, 72, 95
5, 47520, Note_off_c, 4, 72, 80
5, 47520, Note_on_c, 4, 68, 95
5, 47640, Note_off_c, 4, 68, 80
5, 47640, Note_on_c, 4, 72, 95
5, 47760, Note_off_c, 4, 72, 80
5, 47760, Note_on_c, 4, 70, 95
5, 47880, Note_off_c, 4, 70, 80
5, 47880, Note_on_c, 4, 72, 95
5, 48000, Note_off_c, 4, 72, 80
5, 48000, Note_on_c, 4, 77, 95
5, 48120, Note_off_c, 4, 77, 80
5, 48120, Note_on_c, 4, 68, 95
5, 48240, Note_off_c, 4, 68, 80
5, 48240, Note_on_c, 4, 66, 95
5, 48360, Note_off_c, 4, 66, 80
5, 48360, Note_on_c, 4, 68, 95
5, 48480, Note_off_c, 4, 68, 80
5, 48480, Note_on_c, 4, 73, 95
5, 48600, Note_off_c, 4, 73, 80
5, 48600, Note_on_c, 4, 68, 95
5, 48720, Note_off_c, 4, 68, 80
5, 48720, Note_on_c, 4, 66, 95
5, 48840, Note_off_c, 4, 66, 80
5, 48840, Note_on_c, 4, 68, 95
5, 48960, Note_off_c, 4, 68, 80
5, 48960, Note_on_c, 4, 77, 95
5, 49080, Note_off_c, 4, 77, 80
5, 49080, Note_on_c, 4, 68, 95
5, 49200, Note_off_c, 4, 68, 80
5, 49200, Note_on_c, 4, 66, 95
5, 49320, Note_off_c, 4, 66, 80
5, 49320, Note_on_c, 4, 68, 95
5, 49440, Note_off_c, 4, 68, 80
5, 49440, Note_on_c, 4, 73, 95
5, 49560, Note_off_c, 4, 73, 80
5, 49560, Note_on_c, 4, 68, 95
5, 49680, Note_off_c, 4, 68, 80
5, 49680, Note_on_c, 4, 66, 95
5, 49800, Note_off_c, 4, 66, 80
5, 49800, Note_on_c, 4, 68, 95
5, 49920, Note_off_c, 4, 68, 80
5, 49920, Note_on_c, 4, 75, 95
5, 50040, Note_off_c, 4, 75, 80
5, 50040, Note_on_c, 4, 70, 95
5, 50160, Note_off_c, 4, 70, 80
5, 50160, Note_on_c, 4, 68, 95
5, 50280, Note_off_c, 4, 68, 80
5, 50280, Note_on_c, 4, 70, 95
5, 50400, Note_off_c, 4, 70, 80
5, 50400, Note_on_c, 4, 67, 95
5, 50520, Note_off_c, 4, 67, 80
5, 50520, Note_on_c, 4, 70, 95
5, 50640, Note_off_c, 4, 70, 80
5, 50640, Note_on_c, 4, 68, 95
5, 50760, Note_off_c, 4, 68, 80
5, 50760, Note_on_c, 4, 70, 95
5, 50880, Note_off_c, 4, 70, 80
5, 50880, Note_on_c, 4, 75, 95
5, 51000, Note_off_c, 4, 75, 80
5, 51000, Note_on_c, 4, 70, 95
5, 51120, Note_off_c, 4, 70, 80
5, 51120, Note_on_c, 4, 68, 95
5, 51240, Note_off_c, 4, 68, 80
5, 51240, Note_on_c, 4, 70, 95
5, 51360, Note_off_c, 4, 70, 80
5, 51360, Note_on_c, 4, 67, 95
5, 51480, Note_off_c, 4, 67, 80
5, 51480, Note_on_c, 4, 70, 95
5, 51600, Note_off_c, 4, 70, 80
5, 51600, Note_on_c, 4, 68, 95
5, 51720, Note_off_c, 4, 68, 80
5, 51720, Note_on_c, 4, 70, 95
5, 51840, Note_off_c, 4, 70, 80
5, 51840, Note_on_c, 4, 75, 95
5, 51960, Note_off_c, 4, 75, 80
5, 51960, Note_on_c, 4, 72, 95
5, 52080, Note_off_c, 4, 72, 80
5, 52080, Note_on_c, 4, 70, 95
5, 52200, Note_off_c, 4, 70, 80
5, 52200, Note_on_c, 4, 72, 95
5, 52320, Note_off_c, 4, 72, 80
5, 52320, Note_on_c, 4, 69, 95
5, 52440, Note_off_c, 4, 69, 80
5, 52440, Note_on_c, 4, 72, 95
5, 52560, Note_off_c, 4, 72, 80
5, 52560, Note_on_c, 4, 70, 95
5, 52680, Note_off_c, 4, 70, 80
5, 52680, Note_on_c, 4, 72, 95
5, 52800, Note_off_c, 4, 72, 80
5, 52800, Note_on_c, 4, 75, 95
5, 52920, Note_off_c, 4, 75, 80
5, 52920, Note_on_c, 4, 72, 95
5, 53040, Note_off_c, 4, 72, 80
5, 53040, Note_on_c, 4, 70, 95
5, 53160, Note_off_c, 4, 70, 80
5, 53160, Note_on_c, 4, 72, 95
5, 53280, Note_off_c, 4, 72, 80
5, 53280, Note_on_c, 4, 69, 95
5, 53400, Note_off_c, 4, 69, 80
5, 53400, Note_on_c, 4, 72, 95
5, 53520, Note_off_c, 4, 72, 80
5, 53520, Note_on_c, 4, 70, 95
5, 53640, Note_off_c, 4, 70, 80
5, 53640, Note_on_c, 4, 72, 95
5, 53760, Note_off_c, 4, 72, 80
5, 69120, Note_on_c, 4, 70, 95
5, 69240, Note_off_c, 4, 70, 80
5, 69240, Note_on_c, 4, 73, 95
5, 69360, Note_off_c, 4, 73, 80
5, 69360, Note_on_c, 4, 72, 95
5, 69480, Note_off_c, 4, 72, 80
5, 69480, Note_on_c, 4, 73, 95
5, 69600, Note_off_c, 4, 73, 80
5, 69600, Note_on_c, 4, 70, 95
5, 69720, Note_off_c, 4, 70, 80
5, 69720, Note_on_c, 4, 73, 95
5, 69840, Note_off_c, 4, 73, 80
5, 69840, Note_on_c, 4, 72, 95
5, 69960, Note_off_c, 4, 72, 80
5, 69960, Note_on_c, 4, 73, 95
5, 70080, Note_off_c, 4, 73, 80
5, 70080, Note_on_c, 4, 70, 95
5, 70200, Note_off_c, 4, 70, 80
5, 70200, Note_on_c, 4, 73, 95
5, 70320, Note_off_c, 4, 73, 80
5, 70320, Note_on_c, 4, 72, 95
5, 70440, Note_off_c, 4, 72, 80
5, 70440, Note_on_c, 4, 73, 95
5, 70560, Note_off_c, 4, 73, 80
5, 70560, Note_on_c, 4, 70, 95
5, 70680, Note_off_c, 4, 70, 80
5, 70680, Note_on_c, 4, 73, 95
5, 70800, Note_off_c, 4, 73, 80
5, 70800, Note_on_c, 4, 72, 95
5, 70920, Note_off_c, 4, 72, 80
5, 70920, Note_on_c, 4, 73, 95
5, 71040, Note_off_c, 4, 73, 80
5, 71040, Note_on_c, 4, 66, 95
5, 71160, Note_off_c, 4, 66, 80
5, 71160, Note_on_c, 4, 75, 95
5, 71280, Note_off_c, 4, 75, 80
5, 71280, Note_on_c, 4, 74, 95
5, 71400, Note_off_c, 4, 74, 80
5, 71400, Note_on_c, 4, 75, 95
5, 71520, Note_off_c, 4, 75, 80
5, 71520, Note_on_c, 4, 70, 95
5, 71640, Note_off_c, 4, 70, 80
5, 71640, Note_on_c, 4, 75, 95
5, 71760, Note_off_c, 4, 75, 80
5, 71760, Note_on_c, 4, 74, 95
5, 71880, Note_off_c, 4, 74, 80
5, 71880, Note_on_c, 4, 75, 95
5, 72000, Note_off_c, 4, 75, 80
5, 72000, Note_on_c, 4, 66, 95
5, 72120, Note_off_c, 4, 66, 80
5, 72120, Note_on_c, 4, 75, 95
5, 72240, Note_off_c, 4, 75, 80
5, 72240, Note_on_c, 4, 74, 95
5, 72360, Note_off_c, 4, 74, 80
5, 72360, Note_on_c, 4, 75, 95
5, 72480, Note_off_c, 4, 75, 80
5, 72480, Note_on_c, 4, 70, 95
5, 72600, Note_off_c, 4, 70, 80
5, 72600, Note_on_c, 4, 75, 95
5, 72720, Note_off_c, 4, 75, 80
5, 72720, Note_on_c, 4, 74, 95
5, 72840, Note_off_c, 4, 74, 80
5, 72840, Note_on_c, 4, 75, 95
5, 72960, Note_off_c, 4, 75, 80
5, 72960, Note_on_c, 4, 69, 95
5, 73080, Note_off_c, 4, 69, 80
5, 73080, Note_on_c, 4, 75, 95
5, 73200, Note_off_c, 4, 75, 80
5, 73200, Note_on_c, 4, 73, 95
5, 73320, Note_off_c, 4, 73, 80
5, 73320, Note_on_c, 4, 75, 95
5, 73440, Note_off_c, 4, 75, 80
5, 73440, Note_on_c, 4, 72, 95
5, 73560, Note_off_c, 4, 72, 80
5, 73560, Note_on_c, 4, 75, 95
5, 73680, Note_off_c, 4, 75, 80
5, 73680, Note_on_c, 4, 73, 95
5, 73800, Note_off_c, 4, 73, 80
5, 73800, Note_on_c, 4, 75, 95
5, 73920, Note_off_c, 4, 75, 80
5, 73920, Note_on_c, 4, 69, 95
5, 74040, Note_off_c, 4, 69, 80
5, 74040, Note_on_c, 4, 75, 95
5, 74160, Note_off_c, 4, 75, 80
5, 74160, Note_on_c, 4, 73, 95
5, 74280, Note_off_c, 4, 73, 80
5, 74280, Note_on_c, 4, 75, 95
5, 74400, Note_off_c, 4, 75, 80
5, 74400, Note_on_c, 4, 72, 95
5, 74520, Note_off_c, 4, 72, 80
5, 74520, Note_on_c, 4, 75, 95
5, 74640, Note_off_c, 4, 75, 80
5, 74640, Note_on_c, 4, 73, 95
5, 74760, Note_off_c, 4, 73, 80
5, 74760, Note_on_c, 4, 75, 95
5, 74880, Note_off_c, 4, 75, 80
5, 74880, Note_on_c, 4, 70, 95
5, 75000, Note_off_c, 4, 70, 80
5, 75000, Note_on_c, 4, 77, 95
5, 75120, Note_off_c, 4, 77, 80
5, 75120, Note_on_c, 4, 75, 95
5, 75240, Note_off_c, 4, 75, 80
5, 75240, Note_on_c, 4, 77, 95
5, 75360, Note_off_c, 4, 77, 80
5, 75360, Note_on_c, 4, 73, 95
5, 75480, Note_off_c, 4, 73, 80
5, 75480, Note_on_c, 4, 77, 95
5, 75600, Note_off_c, 4, 77, 80
5, 75600, Note_on_c, 4, 75, 95
5, 75720, Note_off_c, 4, 75, 80
5, 75720, Note_on_c, 4, 77, 95
5, 75840, Note_off_c, 4, 77, 80
5, 75840, Note_on_c, 4, 70, 95
5, 75960, Note_off_c, 4, 70, 80
5, 75960, Note_on_c, 4, 77, 95
5, 76080, Note_off_c, 4, 77, 80
5, 76080, Note_on_c, 4, 75, 95
5, 76200, Note_off_c, 4, 75, 80
5, 76200, Note_on_c, 4, 77, 95
5, 76320, Note_off_c, 4, 77, 80
5, 76320, Note_on_c, 4, 73, 95
5, 76440, Note_off_c, 4, 73, 80
5, 76440, Note_on_c, 4, 77, 95
5, 76560, Note_off_c, 4, 77, 80
5, 76560, Note_on_c, 4, 75, 95
5, 76680, Note_off_c, 4, 75, 80
5, 76680, Note_on_c, 4, 77, 95
5, 76800, Note_off_c, 4, 77, 80
5, 76800, Note_on_c, 4, 70, 95
5, 76920, Note_off_c, 4, 70, 80
5, 76920, Note_on_c, 4, 73, 95
5, 77040, Note_off_c, 4, 73, 80
5, 77040, Note_on_c, 4, 72, 95
5, 77160, Note_off_c, 4, 72, 80
5, 77160, Note_on_c, 4, 73, 95
5, 77280, Note_off_c, 4, 73, 80
5, 77280, Note_on_c, 4, 70, 95
5, 77400, Note_off_c, 4, 70, 80
5, 77400, Note_on_c, 4, 73, 95
5, 77520, Note_off_c, 4, 73, 80
5, 77520, Note_on_c, 4, 72, 95
5, 77640, Note_off_c, 4, 72, 80
5, 77640, Note_on_c, 4, 73, 95
5, 77760, Note_off_c, 4, 73, 80
5, 77760, Note_on_c, 4, 70, 95
5, 77880, Note_off_c, 4, 70, 80
5, 77880, Note_on_c, 4, 73, 95
5, 78000, Note_off_c, 4, 73, 80
5, 78000, Note_on_c, 4, 72, 95
5, 78120, Note_off_c, 4, 72, 80
5, 78120, Note_on_c, 4, 73, 95
5, 78240, Note_off_c, 4, 73, 80
5, 78240, Note_on_c, 4, 70, 95
5, 78360, Note_off_c, 4, 70, 80
5, 78360, Note_on_c, 4, 73, 95
5, 78480, Note_off_c, 4, 73, 80
5, 78480, Note_on_c, 4, 72, 95
5, 78600, Note_off_c, 4, 72, 80
5, 78600, Note_on_c, 4, 73, 95
5, 78720, Note_off_c, 4, 73, 80
5, 78720, Note_on_c, 4, 66, 95
5, 78840, Note_off_c, 4, 66, 80
5, 78840, Note_on_c, 4, 75, 95
5, 78960, Note_off_c, 4, 75, 80
5, 78960, Note_on_c, 4, 74, 95
5, 79080, Note_off_c, 4, 74, 80
5, 79080, Note_on_c, 4, 75, 95
5, 79200, Note_off_c, 4, 75, 80
5, 79200, Note_on_c, 4, 70, 95
5, 79320, Note_off_c, 4, 70, 80
5, 79320, Note_on_c, 4, 75, 95
5, 79440, Note_off_c, 4, 75, 80
5, 79440, Note_on_c, 4, 74, 95
5, 79560, Note_off_c, 4, 74, 80
5, 79560, Note_on_c, 4, 75, 95
5, 79680, Note_off_c, 4, 75, 80
5, 79680, Note_on_c, 4, 66, 95
5, 79800, Note_off_c, 4, 66, 80
5, 79800, Note_on_c, 4, 75, 95
5, 79920, Note_off_c, 4, 75, 80
5, 79920, Note_on_c, 4, 74, 95
5, 80040, Note_off_c, 4, 74, 80
5, 80040, Note_on_c, 4, 75, 95
5, 80160, Note_off_c, 4, 75, 80
5, 80160, Note_on_c, 4, 70, 95
5, 80280, Note_off_c, 4, 70, 80
5, 80280, Note_on_c, 4, 75, 95
5, 80400, Note_off_c, 4, 75, 80
5, 80400, Note_on_c, 4, 74, 95
5, 80520, Note_off_c, 4, 74, 80
5, 80520, Note_on_c, 4, 75, 95
5, 80640, Note_off_c, 4, 75, 80
5, 80640, Note_on_c, 4, 69, 95
5, 80760, Note_off_c, 4, 69, 80
5, 80760, Note_on_c, 4, 75, 95
5, 80880, Note_off_c, 4, 75, 80
5, 80880, Note_on_c, 4, 73, 95
5, 81000, Note_off_c, 4, 73, 80
5, 81000, Note_on_c, 4, 75, 95
5, 81120, Note_off_c, 4, 75, 80
5, 81120, Note_on_c, 4, 72, 95
5, 81240, Note_off_c, 4, 72, 80
5, 81240, Note_on_c, 4, 75, 95
5, 81360, Note_off_c, 4, 75, 80
5, 81360, Note_on_c, 4, 73, 95
5, 81480, Note_off_c, 4, 73, 80
5, 81480, Note_on_c, 4, 75, 95
5, 81600, Note_off_c, 4, 75, 80
5, 81600, Note_on_c, 4, 69, 95
5, 81720, Note_off_c, 4, 69, 80
5, 81720, Note_on_c, 4, 75, 95
5, 81840, Note_off_c, 4, 75, 80
5, 81840, Note_on_c, 4, 73, 95
5, 81960, Note_off_c, 4, 73, 80
5, 81960, Note_on_c, 4, 75, 95
5, 82080, Note_off_c, 4, 75, 80
5, 82080, Note_on_c, 4, 72, 95
5, 82200, Note_off_c, 4, 72, 80
5, 82200, Note_on_c, 4, 75, 95
5, 82320, Note_off_c, 4, 75, 80
5, 82320, Note_on_c, 4, 73, 95
5, 82440, Note_off_c, 4, 73, 80
5, 82440, Note_on_c, 4, 75, 95
5, 82560, Note_off_c, 4, 75, 80
5, 82560, Note_on_c, 4, 70, 95
5, 82680, Note_off_c, 4, 70, 80
5, 82680, Note_on_c, 4, 77, 95
5, 82800, Note_off_c, 4, 77, 80
5, 82800, Note_on_c, 4, 75, 95
5, 82920, Note_off_c, 4, 75, 80
5, 82920, Note_on_c, 4, 77, 95
5, 83040, Note_off_c, 4, 77, 80
5, 83040, Note_on_c, 4, 73, 95
5, 83160, Note_off_c, 4, 73, 80
5, 83160, Note_on_c, 4, 77, 95
5, 83280, Note_off_c, 4, 77, 80
5, 83280, Note_on_c, 4, 75, 95
5, 83400, Note_off_c, 4, 75, 80
5, 83400, Note_on_c, 4, 77, 95
5, 83520, Note_off_c, 4, 77, 80
5, 83520, Note_on_c, 4, 70, 95
5, 83640, Note_off_c, 4, 70, 80
5, 83640, Note_on_c, 4, 77, 95
5, 83760, Note_off_c, 4, 77, 80
5, 83760, Note_on_c, 4, 75, 95
5, 83880, Note_off_c, 4, 75, 80
5, 83880, Note_on_c, 4, 77, 95
5, 84000, Note_off_c, 4, 77, 80
5, 84000, Note_on_c, 4, 73, 95
5, 84120, Note_off_c, 4, 73, 80
5, 84120, Note_on_c, 4, 77, 95
5, 84240, Note_off_c, 4, 77, 80
5, 84240, Note_on_c, 4, 75, 95
5, 84360, Note_off_c, 4, 75, 80
5, 84360, Note_on_c, 4, 77, 95
5, 84480, Note_off_c, 4, 77, 80
5, 84480, Note_on_c, 4, 70, 95
5, 84600, Note_off_c, 4, 70, 80
5, 84600, Note_on_c, 4, 73, 95
5, 84720, Note_off_c, 4, 73, 80
5, 84720, Note_on_c, 4, 72, 95
5, 84840, Note_off_c, 4, 72, 80
5, 84840, Note_on_c, 4, 73, 95
5, 84960, Note_off_c, 4, 73, 80
5, 84960, Note_on_c, 4, 70, 95
5, 85080, Note_off_c, 4, 70, 80
5, 85080, Note_on_c, 4, 73, 95
5, 85200, Note_off_c, 4, 73, 80
5, 85200, Note_on_c, 4, 72, 95
5, 85320, Note_off_c, 4, 72, 80
5, 85320, Note_on_c, 4, 73, 95
5, 85440, Note_off_c, 4, 73, 80
5, 85440, Note_on_c, 4, 70, 95
5, 85560, Note_off_c, 4, 70, 80
5, 85560, Note_on_c, 4, 73, 95
5, 85680, Note_off_c, 4, 73, 80
5, 85680, Note_on_c, 4, 72, 95
5, 85800, Note_off_c, 4, 72, 80
5, 85800, Note_on_c, 4, 73, 95
5, 85920, Note_off_c, 4, 73, 80
5, 85920, Note_on_c, 4, 70, 95
5, 86040, Note_off_c, 4, 70, 80
5, 86040, Note_on_c, 4, 73, 95
5, 86160, Note_off_c, 4, 73, 80
5, 86160, Note_on_c, 4, 72, 95
5, 86280, Note_off_c, 4, 72, 80
5, 86280, Note_on_c, 4, 73, 95
5, 86400, Note_off_c, 4, 73, 80
5, 86400, Note_on_c, 4, 66, 95
5, 86520, Note_off_c, 4, 66, 80
5, 86520, Note_on_c, 4, 75, 95
5, 86640, Note_off_c, 4, 75, 80
5, 86640, Note_on_c, 4, 74, 95
5, 86760, Note_off_c, 4, 74, 80
5, 86760, Note_on_c, 4, 75, 95
5, 86880, Note_off_c, 4, 75, 80
5, 86880, Note_on_c, 4, 70, 95
5, 87000, Note_off_c, 4, 70, 80
5, 87000, Note_on_c, 4, 75, 95
5, 87120, Note_off_c, 4, 75, 80
5, 87120, Note_on_c, 4, 74, 95
5, 87240, Note_off_c, 4, 74, 80
5, 87240, Note_on_c, 4, 75, 95
5, 87360, Note_off_c, 4, 75, 80
5, 87360, Note_on_c, 4, 66, 95
5, 87480, Note_off_c, 4, 66, 80
5, 87480, Note_on_c, 4, 75, 95
5, 87600, Note_off_c, 4, 75, 80
5, 87600, Note_on_c, 4, 74, 95
5, 87720, Note_off_c, 4, 74, 80
5, 87720, Note_on_c, 4, 75, 95
5, 87840, Note_off_c, 4, 75, 80
5, 87840, Note_on_c, 4, 70, 95
5, 87960, Note_off_c, 4, 70, 80
5, 87960, Note_on_c, 4, 75, 95
5, 88080, Note_off_c, 4, 75, 80
5, 88080, Note_on_c, 4, 74, 95
5, 88200, Note_off_c, 4, 74, 80
5, 88200, Note_on_c, 4, 75, 95
5, 88320, Note_off_c, 4, 75, 80
5, 88320, Note_on_c, 4, 69, 95
5, 88440, Note_off_c, 4, 69, 80
5, 88440, Note_on_c, 4, 75, 95
5, 88560, Note_off_c, 4, 75, 80
5, 88560, Note_on_c, 4, 73, 95
5, 88680, Note_off_c, 4, 73, 80
5, 88680, Note_on_c, 4, 75, 95
5, 88800, Note_off_c, 4, 75, 80
5, 88800, Note_on_c, 4, 72, 95
5, 88920, Note_off_c, 4, 72, 80
5, 88920, Note_on_c, 4, 75, 95
5, 89040, Note_off_c, 4, 75, 80
5, 89040, Note_on_c, 4, 73, 95
5, 89160, Note_off_c, 4, 73, 80
5, 89160, Note_on_c, 4, 75, 95
5, 89280, Note_off_c, 4, 75, 80
5, 89280, Note_on_c, 4, 69, 95
5, 89400, Note_off_c, 4, 69, 80
5, 89400, Note_on_c, 4, 75, 95
5, 89520, Note_off_c, 4, 75, 80
5, 89520, Note_on_c, 4, 73, 95
5, 89640, Note_off_c, 4, 73, 80
5, 89640, Note_on_c, 4, 75, 95
5, 89760, Note_off_c, 4, 75, 80
5, 89760, Note_on_c, 4, 72, 95
5, 89880, Note_off_c, 4, 72, 80
5, 89880, Note_on_c, 4, 75, 95
5, 90000, Note_off_c, 4, 75, 80
5, 90000, Note_on_c, 4, 73, 95
5, 90120, Note_off_c, 4, 73, 80
5, 90120, Note_on_c, 4, 75, 95
5, 90240, Note_off_c, 4, 75, 80
5, 90240, Note_on_c, 4, 70, 95
5, 90360, Note_off_c, 4, 70, 80
5, 90360, Note_on_c, 4, 77, 95
5, 90480, Note_off_c, 4, 77, 80
5, 90480, Note_on_c, 4, 75, 95
5, 90600, Note_off_c, 4, 75, 80
5, 90600, Note_on_c, 4, 77, 95
5, 90720, Note_off_c, 4, 77, 80
5, 90720, Note_on_c, 4, 73, 95
5, 90840, Note_off_c, 4, 73, 80
5, 90840, Note_on_c, 4, 77, 95
5, 90960, Note_off_c, 4, 77, 80
5, 90960, Note_on_c, 4, 75, 95
5, 91080, Note_off_c, 4, 75, 80
5, 91080, Note_on_c, 4, 77, 95
5, 91200, Note_off_c, 4, 77, 80
5, 91200, Note_on_c, 4, 70, 95
5, 91320, Note_off_c, 4, 70, 80
5, 91320, Note_on_c, 4, 77, 95
5, 91440, Note_off_c, 4, 77, 80
5, 91440, Note_on_c, 4, 75, 95
5, 91560, Note_off_c, 4, 75, 80
5, 91560, Note_on_c, 4, 77, 95
5, 91680, Note_off_c, 4, 77, 80
5, 91680, Note_on_c, 4, 73, 95
5, 91800, Note_off_c, 4, 73, 80
5, 91800, Note_on_c, 4, 77, 95
5, 91920, Note_off_c, 4, 77, 80
5, 91920, Note_on_c, 4, 75, 95
5, 92040, Note_off_c, 4, 75, 80
5, 92040, Note_on_c, 4, 77, 95
5, 92160, Note_off_c, 4, 77, 80
5, 92160, Note_on_c, 4, 70, 95
5, 92280, Note_off_c, 4, 70, 80
5, 92280, Note_on_c, 4, 73, 95
5, 92400, Note_off_c, 4, 73, 80
5, 92400, Note_on_c, 4, 72, 95
5, 92520, Note_off_c, 4, 72, 80
5, 92520, Note_on_c, 4, 73, 95
5, 92640, Note_off_c, 4, 73, 80
5, 92640, Note_on_c, 4, 70, 95
5, 92760, Note_off_c, 4, 70, 80
5, 92760, Note_on_c, 4, 73, 95
5, 92880, Note_off_c, 4, 73, 80
5, 92880, Note_on_c, 4, 72, 95
5, 93000, Note_off_c, 4, 72, 80
5, 93000, Note_on_c, 4, 73, 95
5, 93120, Note_off_c, 4, 73, 80
5, 93120, Note_on_c, 4, 70, 95
5, 93240, Note_off_c, 4, 70, 80
5, 93240, Note_on_c, 4, 73, 95
5, 93360, Note_off_c, 4, 73, 80
5, 93360, Note_on_c, 4, 72, 95
5, 93480, Note_off_c, 4, 72, 80
5, 93480, Note_on_c, 4, 73, 95
5, 93600, Note_off_c, 4, 73, 80
5, 93600, Note_on_c, 4, 70, 95
5, 93720, Note_off_c, 4, 70, 80
5, 93720, Note_on_c, 4, 73, 95
5, 93840, Note_off_c, 4, 73, 80
5, 93840, Note_on_c, 4, 72, 95
5, 93960, Note_off_c, 4, 72, 80
5, 93960, Note_on_c, 4, 73, 95
5, 94080, Note_off_c, 4, 73, 80
5, 94080, Note_on_c, 4, 66, 95
5, 94200, Note_off_c, 4, 66, 80
5, 94200, Note_on_c, 4, 75, 95
5, 94320, Note_off_c, 4, 75, 80
5, 94320, Note_on_c, 4, 74, 95
5, 94440, Note_off_c, 4, 74, 80
5, 94440, Note_on_c, 4, 75, 95
5, 94560, Note_off_c, 4, 75, 80
5, 94560, Note_on_c, 4, 70, 95
5, 94680, Note_off_c, 4, 70, 80
5, 94680, Note_on_c, 4, 75, 95
5, 94800, Note_off_c, 4, 75, 80
5, 94800, Note_on_c, 4, 74, 95
5, 94920, Note_off_c, 4, 74, 80
5, 94920, Note_on_c, 4, 75, 95
5, 95040, Note_off_c, 4, 75, 80
5, 95040, Note_on_c, 4, 66, 95
5, 95160, Note_off_c, 4, 66, 80
5, 95160, Note_on_c, 4, 75, 95
5, 95280, Note_off_c, 4, 75, 80
5, 95280, Note_on_c, 4, 74, 95
5, 95400, Note_off_c, 4, 74, 80
5, 95400, Note_on_c, 4, 75, 95
5, 95520, Note_off_c, 4, 75, 80
5, 95520, Note_on_c, 4, 70, 95
5, 95640, Note_off_c, 4, 70, 80
5, 95640, Note_on_c, 4, 75, 95
5, 95760, Note_off_c, 4, 75, 80
5, 95760, Note_on_c, 4, 74, 95
5, 95880, Note_off_c, 4, 74, 80
5, 95880, Note_on_c, 4, 75, 95
5, 96000, Note_off_c, 4, 75, 80
5, 96000, Note_on_c, 4, 69, 95
5, 96120, Note_off_c, 4, 69, 80
5, 96120, Note_on_c, 4, 75, 95
5, 96240, Note_off_c, 4, 75, 80
5, 96240, Note_on_c, 4, 73, 95
5, 96360, Note_off_c, 4, 73, 80
5, 96360, Note_on_c, 4, 75, 95
5, 96480, Note_off_c, 4, 75, 80
5, 96480, Note_on_c, 4, 72, 95
5, 96600, Note_off_c, 4, 72, 80
5, 96600, Note_on_c, 4, 75, 95
5, 96720, Note_off_c, 4, 75, 80
5, 96720, Note_on_c, 4, 73, 95
5, 96840, Note_off_c, 4, 73, 80
5, 96840, Note_on_c, 4, 75, 95
5, 96960, Note_off_c, 4, 75, 80
5, 96960, Note_on_c, 4, 69, 95
5, 97080, Note_off_c, 4, 69, 80
5, 97080, Note_on_c, 4, 75, 95
5, 97200, Note_off_c, 4, 75, 80
5, 97200, Note_on_c, 4, 73, 95
5, 97320, Note_off_c, 4, 73, 80
5, 97320, Note_on_c, 4, 75, 95
5, 97440, Note_off_c, 4, 75, 80
5, 97440, Note_on_c, 4, 72, 95
5, 97560, Note_off_c, 4, 72, 80
5, 97560, Note_on_c, 4, 75, 95
5, 97680, Note_off_c, 4, 75, 80
5, 97680, Note_on_c, 4, 73, 95
5, 97800, Note_off_c, 4, 73, 80
5, 97800, Note_on_c, 4, 75, 95
5, 97920, Note_off_c, 4, 75, 80
5, 97920, Note_on_c, 4, 70, 95
5, 98040, Note_off_c, 4, 70, 80
5, 98040, Note_on_c, 4, 77, 95
5, 98160, Note_off_c, 4, 77, 80
5, 98160, Note_on_c, 4, 75, 95
5, 98280, Note_off_c, 4, 75, 80
5, 98280, Note_on_c, 4, 77, 95
5, 98400, Note_off_c, 4, 77, 80
5, 98400, Note_on_c, 4, 73, 95
5, 98520, Note_off_c, 4, 73, 80
5, 98520, Note_on_c, 4, 77, 95
5, 98640, Note_off_c, 4, 77, 80
5, 98640, Note_on_c, 4, 75, 95
5, 98760, Note_off_c, 4, 75, 80
5, 98760, Note_on_c, 4, 77, 95
5, 98880, Note_off_c, 4, 77, 80
5, 98880, Note_on_c, 4, 70, 95
5, 99000, Note_off_c, 4, 70, 80
5, 99000, Note_on_c, 4, 77, 95
5, 99120, Note_off_c, 4, 77, 80
5, 99120, Note_on_c, 4, 75, 95
5, 99240, Note_off_c, 4, 75, 80
5, 99240, Note_on_c, 4, 77, 95
5, 99360, Note_off_c, 4, 77, 80
5, 99360, Note_on_c, 4, 73, 95
5, 99480, Note_off_c, 4, 73, 80
5, 99480, Note_on_c, 4, 77, 95
5, 99600, Note_off_c, 4, 77, 80
5, 99600, Note_on_c, 4, 75, 95
5, 99720, Note_off_c, 4, 75, 80
5, 99720, Note_on_c, 4, 77, 95
5, 99840, Note_off_c, 4, 77, 80
5, 99840, Note_on_c, 4, 70, 95
5, 99960, Note_off_c, 4, 70, 80
5, 99960, Note_on_c, 4, 77, 95
5, 100080, Note_off_c, 4, 77, 80
5, 100080, Note_on_c, 4, 75, 95
5, 100200, Note_off_c, 4, 75, 80
5, 100200, Note_on_c, 4, 77, 95
5, 100320, Note_off_c, 4, 77, 80
5, 100320, Note_on_c, 4, 73, 95
5, 100440, Note_off_c, 4, 73, 80
5, 100440, Note_on_c, 4, 77, 95
5, 100560, Note_off_c, 4, 77, 80
5, 100560, Note_on_c, 4, 75, 95
5, 100680, Note_off_c, 4, 75, 80
5, 100680, Note_on_c, 4, 77, 95
5, 100800, Note_off_c, 4, 77, 80
5, 100800, Note_on_c, 4, 70, 95
5, 100920, Note_off_c, 4, 70, 80
5, 100920, Note_on_c, 4, 77, 95
5, 101040, Note_off_c, 4, 77, 80
5, 101040, Note_on_c, 4, 75, 95
5, 101160, Note_off_c, 4, 75, 80
5, 101160, Note_on_c, 4, 77, 95
5, 101280, Note_off_c, 4, 77, 80
5, 101280, Note_on_c, 4, 73, 95
5, 101400, Note_off_c, 4, 73, 80
5, 101400, Note_on_c, 4, 77, 95
5, 101520, Note_off_c, 4, 77, 80
5, 101520, Note_on_c, 4, 75, 95
5, 101640, Note_off_c, 4, 75, 80
5, 101640, Note_on_c, 4, 77, 95
5, 101760, Note_off_c, 4, 77, 80
5, 101760, Note_on_c, 5, 58, 95
5, 101760, Note_on_c, 5, 61, 95
5, 101760, Note_on_c, 5, 46, 95
5, 101840, Pitch_bend_c, 5, 8192
5, 101840, Pitch_bend_c, 5, 8192
5, 101840, Pitch_bend_c, 5, 8192
5, 101920, Pitch_bend_c, 5, 9728
5, 101920, Pitch_bend_c, 5, 9728
5, 101920, Pitch_bend_c, 5, 9728
5, 102000, Pitch_bend_c, 5, 8192
5, 102000, Pitch_bend_c, 5, 8192
5, 102000, Pitch_bend_c, 5, 8192
5, 102080, Pitch_bend_c, 5, 9728
5, 102080, Pitch_bend_c, 5, 9728
5, 102080, Pitch_bend_c, 5, 9728
5, 102160, Pitch_bend_c, 5, 8192
5, 102160, Pitch_bend_c, 5, 8192
5, 102160, Pitch_bend_c, 5, 8192
5, 102240, Pitch_bend_c, 5, 9728
5, 102240, Pitch_bend_c, 5, 9728
5, 102240, Pitch_bend_c, 5, 9728
5, 102320, Pitch_bend_c, 5, 8192
5, 102320, Pitch_bend_c, 5, 8192
5, 102320, Pitch_bend_c, 5, 8192
5, 102400, Pitch_bend_c, 5, 9728
5, 102400, Pitch_bend_c, 5, 9728
5, 102400, Pitch_bend_c, 5, 9728
5, 102480, Pitch_bend_c, 5, 8192
5, 102480, Pitch_bend_c, 5, 8192
5, 102480, Pitch_bend_c, 5, 8192
5, 102560, Pitch_bend_c, 5, 9728
5, 102560, Pitch_bend_c, 5, 9728
5, 102560, Pitch_bend_c, 5, 9728
5, 102640, Pitch_bend_c, 5, 8192
5, 102640, Pitch_bend_c, 5, 8192
5, 102640, Pitch_bend_c, 5, 8192
5, 102720, Note_off_c, 5, 58, 80
5, 102720, Pitch_bend_c, 5, 9728
5, 102720, Pitch_bend_c, 5, 8192
5, 102720, Note_off_c, 5, 61, 80
5, 102720, Pitch_bend_c, 5, 9728
5, 102720, Pitch_bend_c, 5, 8192
5, 102720, Note_off_c, 5, 46, 80
5, 102720, Pitch_bend_c, 5, 9728
5, 102720, Pitch_bend_c, 5, 8192
5, 102720, End_track
6, 0, Start_track
6, 0, Title_t, "5"
6, 0, Control_c, 8, 100, 0
6, 0, Control_c, 8, 101, 0
6, 0, Control_c, 8, 6, 2
6, 0, Pitch_bend_c, 8, 8192
6, 0, Control_c, 10, 100, 0
6, 0, Control_c, 10, 101, 0
6, 0, Control_c, 10, 6, 2
6, 0, Pitch_bend_c, 10, 8192
6, 0, Program_c, 8, 34
6, 0, Program_c, 10, 34
6, 0, Control_c, 8, 7, 96
6, 0, Control_c, 10, 7, 96
6, 0, Control_c, 8, 10, 64
6, 0, Control_c, 10, 10, 64
6, 0, Control_c, 8, 93, 32
6, 0, Control_c, 10, 93, 32
6, 0, Control_c, 8, 91, 0
6, 0, Control_c, 10, 91, 0
6, 0, Control_c, 8, 92, 0
6, 0, Control_c, 10, 92, 0
6, 0, Control_c, 8, 95, 0
6, 0, Control_c, 10, 95, 0
6, 0, Note_on_c, 8, 34, 95
6, 1920, Note_off_c, 8, 34, 80
6, 1920, Note_on_c, 8, 30, 95
6, 2160, Note_off_c, 8, 30, 80
6, 2160, Note_on_c, 8, 30, 95
6, 2340, Note_off_c, 8, 30, 80
6, 3840, Note_on_c, 8, 27, 95
6, 5760, Note_off_c, 8, 27, 80
6, 5760, Note_on_c, 8, 29, 95
6, 5880, Note_off_c, 8, 29, 80
6, 5880, Note_on_c, 8, 29, 111
6, 6000, Note_on_c, 8, 29, 95
6, 6060, Note_off_c, 8, 29, 80
6, 6120, Note_off_c, 8, 29, 80
6, 6120, Note_on_c, 8, 29, 95
6, 6240, Note_off_c, 8, 29, 80
6, 6240, Note_on_c, 8, 29, 95
6, 7680, Note_on_c, 8, 27, 95
6, 9120, Note_off_c, 8, 29, 80
6, 9600, Note_off_c, 8, 27, 80
6, 9600, Note_on_c, 8, 34, 95
6, 9720, Note_off_c, 8, 34, 80
6, 10560, Note_on_c, 8, 34, 95
6, 10680, Note_off_c, 8, 34, 80
6, 11520, Note_on_c, 8, 30, 95
6, 11640, Note_off_c, 8, 30, 80
6, 11640, Note_on_c, 8, 30, 95
6, 11820, Note_off_c, 8, 30, 80
6, 12480, Note_on_c, 8, 30, 100
6, 12600, Note_off_c, 8, 30, 80
6, 12600, Note_on_c, 8, 30, 100
6, 12720, Note_off_c, 8, 30, 80
6, 12720, Note_on_c, 10, 45, 95
6, 12800, Pitch_bend_c, 10, 8192
6, 12880, Pitch_bend_c, 10, 9728
6, 12960, Pitch_bend_c, 10, 8192
6, 13040, Pitch_bend_c, 10, 9728
6, 13120, Pitch_bend_c, 10, 8192
6, 13200, Pitch_bend_c, 10, 9728
6, 13280, Pitch_bend_c, 10, 8192
6, 13360, Pitch_bend_c, 10, 9728
6, 13440, Note_off_c, 10, 45, 80
6, 13440, Pitch_bend_c, 10, 8192
6, 13440, Pitch_bend_c, 10, 8192
6, 13440, Note_on_c, 8, 30, 95
6, 13560, Note_off_c, 8, 30, 80
6, 13560, Note_on_c, 8, 30, 100
6, 13680, Note_off_c, 8, 30, 80
6, 13680, Note_on_c, 8, 30, 100
6, 13800, Note_off_c, 8, 30, 80
6, 13800, Note_on_c, 8, 30, 100
6, 13920, Note_off_c, 8, 30, 80
6, 13920, Note_on_c, 8, 37, 95
6, 13920, Note_on_c, 8, 30, 95
6, 14280, Note_off_c, 8, 37, 80
6, 14280, Note_off_c, 8, 30, 80
6, 14400, Note_on_c, 8, 30, 95
6, 14520, Note_off_c, 8, 30, 80
6, 14520, Note_on_c, 8, 30, 100
6, 14640, Note_off_c, 8, 30, 80
6, 14640, Note_on_c, 8, 30, 100
6, 14760, Note_off_c, 8, 30, 80
6, 14760, Note_on_c, 8, 30, 100
6, 14880, Note_off_c, 8, 30, 80
6, 14880, Note_on_c, 8, 37, 95
6, 14880, Note_on_c, 8, 30, 95
6, 15240, Note_off_c, 8, 37, 80
6, 15240, Note_off_c, 8, 30, 80
6, 15360, Note_on_c, 8, 29, 95
6, 15480, Note_off_c, 8, 29, 80
6, 15480, Note_on_c, 8, 29, 100
6, 15600, Note_off_c, 8, 29, 80
6, 15600, Note_on_c, 8, 29, 100
6, 15720, Note_off_c, 8, 29, 80
6, 15720, Note_on_c, 8, 29, 100
6, 15840, Note_off_c, 8, 29, 80
6, 15840, Note_on_c, 8, 36, 95
6, 15840, Note_on_c, 8, 29, 95
6, 17280, Note_on_c, 8, 27, 95
6, 18720, Note_off_c, 8, 36, 80
6, 18720, Note_off_c, 8, 29, 80
6, 19200, Note_off_c, 8, 27, 80
6, 21120, Note_on_c, 8, 34, 95
6, 21240, Note_off_c, 8, 34, 80
6, 21240, Note_on_c, 8, 34, 111
6, 21360, Note_off_c, 8, 34, 80
6, 21360, Note_on_c, 8, 34, 111
6, 21480, Note_off_c, 8, 34, 80
6, 21480, Note_on_c, 8, 34, 111
6, 21600, Note_off_c, 8, 34, 80
6, 21600, Note_on_c, 8, 34, 111
6, 21720, Note_off_c, 8, 34, 80
6, 21720, Note_on_c, 8, 34, 111
6, 21840, Note_off_c, 8, 34, 80
6, 21840, Note_on_c, 8, 34, 111
6, 21960, Note_off_c, 8, 34, 80
6, 21960, Note_on_c, 8, 34, 111
6, 22080, Note_off_c, 8, 34, 80
6, 22080, Note_on_c, 8, 34, 95
6, 22200, Note_off_c, 8, 34, 80
6, 22200, Note_on_c, 8, 34, 111
6, 22320, Note_off_c, 8, 34, 80
6, 22320, Note_on_c, 8, 34, 111
6, 22440, Note_off_c, 8, 34, 80
6, 22440, Note_on_c, 8, 34, 111
6, 22560, Note_off_c, 8, 34, 80
6, 22560, Note_on_c, 8, 34, 111
6, 22680, Note_off_c, 8, 34, 80
6, 22680, Note_on_c, 8, 34, 111
6, 22800, Note_off_c, 8, 34, 80
6, 22800, Note_on_c, 8, 34, 111
6, 22920, Note_off_c, 8, 34, 80
6, 22920, Note_on_c, 8, 34, 111
6, 23040, Note_off_c, 8, 34, 80
6, 23040, Note_on_c, 8, 30, 111
6, 23160, Note_off_c, 8, 30, 80
6, 23160, Note_on_c, 8, 30, 111
6, 23280, Note_off_c, 8, 30, 80
6, 23280, Note_on_c, 8, 30, 111
6, 23400, Note_off_c, 8, 30, 80
6, 23400, Note_on_c, 8, 30, 111
6, 23520, Note_off_c, 8, 30, 80
6, 23520, Note_on_c, 8, 30, 111
6, 23640, Note_off_c, 8, 30, 80
6, 23640, Note_on_c, 8, 30, 111
6, 23760, Note_off_c, 8, 30, 80
6, 23760, Note_on_c, 8, 30, 111
6, 23880, Note_off_c, 8, 30, 80
6, 23880, Note_on_c, 8, 30, 111
6, 24000, Note_off_c, 8, 30, 80
6, 24000, Note_on_c, 8, 30, 111
6, 24120, Note_off_c, 8, 30, 80
6, 24120, Note_on_c, 8, 30, 111
6, 24240, Note_off_c, 8, 30, 80
6, 24240, Note_on_c, 8, 30, 111
6, 24360, Note_off_c, 8, 30, 80
6, 24360, Note_on_c, 8, 30, 111
6, 24480, Note_off_c, 8, 30, 80
6, 24480, Note_on_c, 8, 30, 95
6, 24600, Note_off_c, 8, 30, 80
6, 24600, Note_on_c, 8, 30, 95
6, 24720, Note_off_c, 8, 30, 80
6, 24720, Note_on_c, 8, 30, 95
6, 24840, Note_off_c, 8, 30, 80
6, 24840, Note_on_c, 8, 30, 95
6, 24960, Note_off_c, 8, 30, 80
6, 24960, Note_on_c, 8, 27, 111
6, 25080, Note_off_c, 8, 27, 80
6, 25080, Note_on_c, 8, 27, 111
6, 25200, Note_off_c, 8, 27, 80
6, 25200, Note_on_c, 8, 27, 111
6, 25320, Note_off_c, 8, 27, 80
6, 25320, Note_on_c, 8, 27, 111
6, 25440, Note_off_c, 8, 27, 80
6, 25440, Note_on_c, 8, 27, 111
6, 25560, Note_off_c, 8, 27, 80
6, 25560, Note_on_c, 8, 27, 111
6, 25680, Note_off_c, 8, 27, 80
6, 25680, Note_on_c, 8, 27, 111
6, 25800, Note_off_c, 8, 27, 80
6, 25800, Note_on_c, 8, 27, 111
6, 25920, Note_off_c, 8, 27, 80
6, 25920, Note_on_c, 8, 27, 111
6, 26040, Note_off_c, 8, 27, 80
6, 26040, Note_on_c, 8, 27, 111
6, 26160, Note_off_c, 8, 27, 80
6, 26160, Note_on_c, 8, 27, 111
6, 26280, Note_off_c, 8, 27, 80
6, 26280, Note_on_c, 8, 27, 111
6, 26400, Note_off_c, 8, 27, 80
6, 26400, Note_on_c, 8, 27, 111
6, 26520, Note_off_c, 8, 27, 80
6, 26520, Note_on_c, 8, 27, 111
6, 26640, Note_off_c, 8, 27, 80
6, 26640, Note_on_c, 8, 27, 111
6, 26760, Note_off_c, 8, 27, 80
6, 26760, Note_on_c, 8, 27, 95
6, 26880, Note_off_c, 8, 27, 80
6, 26880, Note_on_c, 8, 34, 111
6, 27000, Note_off_c, 8, 34, 80
6, 27000, Note_on_c, 8, 34, 111
6, 27120, Note_off_c, 8, 34, 80
6, 27120, Note_on_c, 8, 34, 111
6, 27240, Note_off_c, 8, 34, 80
6, 27240, Note_on_c, 8, 34, 111
6, 27360, Note_off_c, 8, 34, 80
6, 27360, Note_on_c, 8, 34, 111
6, 27480, Note_off_c, 8, 34, 80
6, 27480, Note_on_c, 8, 34, 111
6, 27600, Note_off_c, 8, 34, 80
6, 27600, Note_on_c, 8, 34, 111
6, 27720, Note_off_c, 8, 34, 80
6, 27720, Note_on_c, 8, 34, 111
6, 27840, Note_off_c, 8, 34, 80
6, 27840, Note_on_c, 8, 29, 111
6, 27960, Note_off_c, 8, 29, 80
6, 27960, Note_on_c, 8, 29, 111
6, 28080, Note_off_c, 8, 29, 80
6, 28080, Note_on_c, 8, 29, 111
6, 28200, Note_off_c, 8, 29, 80
6, 28200, Note_on_c, 8, 29, 111
6, 28320, Note_off_c, 8, 29, 80
6, 28320, Note_on_c, 8, 29, 111
6, 28440, Note_off_c, 8, 29, 80
6, 28440, Note_on_c, 8, 29, 111
6, 28560, Note_off_c, 8, 29, 80
6, 28560, Note_on_c, 8, 29, 111
6, 28680, Note_off_c, 8, 29, 80
6, 28680, Note_on_c, 8, 29, 111
6, 28800, Note_off_c, 8, 29, 80
6, 28800, Note_on_c, 8, 34, 95
6, 28920, Note_off_c, 8, 34, 80
6, 28920, Note_on_c, 8, 34, 111
6, 29040, Note_off_c, 8, 34, 80
6, 29040, Note_on_c, 8, 34, 111
6, 29160, Note_off_c, 8, 34, 80
6, 29160, Note_on_c, 8, 34, 111
6, 29280, Note_off_c, 8, 34, 80
6, 29280, Note_on_c, 8, 34, 111
6, 29400, Note_off_c, 8, 34, 80
6, 29400, Note_on_c, 8, 34, 111
6, 29520, Note_off_c, 8, 34, 80
6, 29520, Note_on_c, 8, 34, 111
6, 29640, Note_off_c, 8, 34, 80
6, 29640, Note_on_c, 8, 34, 111
6, 29760, Note_off_c, 8, 34, 80
6, 29760, Note_on_c, 8, 34, 111
6, 29880, Note_off_c, 8, 34, 80
6, 29880, Note_on_c, 8, 34, 111
6, 30000, Note_off_c, 8, 34, 80
6, 30000, Note_on_c, 8, 34, 111
6, 30120, Note_off_c, 8, 34, 80
6, 30120, Note_on_c, 8, 34, 111
6, 30240, Note_off_c, 8, 34, 80
6, 30240, Note_on_c, 8, 34, 111
6, 30360, Note_off_c, 8, 34, 80
6, 30360, Note_on_c, 8, 36, 111
6, 30480, Note_off_c, 8, 36, 80
6, 30480, Note_on_c, 8, 37, 111
6, 30600, Note_off_c, 8, 37, 80
6, 30600, Note_on_c, 8, 39, 95
6, 30720, Note_off_c, 8, 39, 80
6, 30720, Note_on_c, 8, 30, 111
6, 30840, Note_off_c, 8, 30, 80
6, 30840, Note_on_c, 8, 30, 111
6, 30960, Note_off_c, 8, 30, 80
6, 30960, Note_on_c, 8, 30, 111
6, 31080, Note_off_c, 8, 30, 80
6, 31080, Note_on_c, 8, 30, 111
6, 31200, Note_off_c, 8, 30, 80
6, 31200, Note_on_c, 8, 30, 111
6, 31320, Note_off_c, 8, 30, 80
6, 31320, Note_on_c, 8, 30, 111
6, 31440, Note_off_c, 8, 30, 80
6, 31440, Note_on_c, 8, 30, 111
6, 31560, Note_off_c, 8, 30, 80
6, 31560, Note_on_c, 8, 30, 111
6, 31680, Note_off_c, 8, 30, 80
6, 31680, Note_on_c, 8, 30, 111
6, 31800, Note_off_c, 8, 30, 80
6, 31800, Note_on_c, 8, 30, 111
6, 31920, Note_off_c, 8, 30, 80
6, 31920, Note_on_c, 8, 30, 111
6, 32040, Note_off_c, 8, 30, 80
6, 32040, Note_on_c, 8, 30, 111
6, 32160, Note_off_c, 8, 30, 80
6, 32160, Note_on_c, 8, 30, 111
6, 32280, Note_off_c, 8, 30, 80
6, 32280, Note_on_c, 8, 30, 111
6, 32400, Note_off_c, 8, 30, 80
6, 32400, Note_on_c, 8, 30, 111
6, 32520, Note_off_c, 8, 30, 80
6, 32520, Note_on_c, 8, 30, 111
6, 32640, Note_off_c, 8, 30, 80
6, 32640, Note_on_c, 8, 27, 111
6, 32760, Note_off_c, 8, 27, 80
6, 32760, Note_on_c, 8, 27, 111
6, 32880, Note_off_c, 8, 27, 80
6, 32880, Note_on_c, 8, 27, 111
6, 33000, Note_off_c, 8, 27, 80
6, 33000, Note_on_c, 8, 27, 111
6, 33120, Note_off_c, 8, 27, 80
6, 33120, Note_on_c, 8, 27, 111
6, 33240, Note_off_c, 8, 27, 80
6, 33240, Note_on_c, 8, 27, 111
6, 33360, Note_off_c, 8, 27, 80
6, 33360, Note_on_c, 8, 27, 111
6, 33480, Note_off_c, 8, 27, 80
6, 33480, Note_on_c, 8, 27, 111
6, 33600, Note_off_c, 8, 27, 80
6, 33600, Note_on_c, 8, 27, 111
6, 33720, Note_off_c, 8, 27, 80
6, 33720, Note_on_c, 8, 27, 111
6, 33840, Note_off_c, 8, 27, 80
6, 33840, Note_on_c, 8, 27, 111
6, 33960, Note_off_c, 8, 27, 80
6, 33960, Note_on_c, 8, 27, 111
6, 34080, Note_off_c, 8, 27, 80
6, 34080, Note_on_c, 8, 27, 111
6, 34200, Note_off_c, 8, 27, 80
6, 34200, Note_on_c, 8, 27, 111
6, 34320, Note_off_c, 8, 27, 80
6, 34320, Note_on_c, 8, 27, 111
6, 34440, Note_off_c, 8, 27, 80
6, 34440, Note_on_c, 8, 27, 111
6, 34560, Note_off_c, 8, 27, 80
6, 34560, Note_on_c, 8, 34, 111
6, 34680, Note_off_c, 8, 34, 80
6, 34680, Note_on_c, 8, 34, 111
6, 34800, Note_off_c, 8, 34, 80
6, 34800, Note_on_c, 8, 34, 111
6, 34920, Note_off_c, 8, 34, 80
6, 34920, Note_on_c, 8, 34, 111
6, 35040, Note_off_c, 8, 34, 80
6, 35040, Note_on_c, 8, 34, 111
6, 35160, Note_off_c, 8, 34, 80
6, 35160, Note_on_c, 8, 34, 111
6, 35280, Note_off_c, 8, 34, 80
6, 35280, Note_on_c, 8, 34, 111
6, 35400, Note_off_c, 8, 34, 80
6, 35400, Note_on_c, 8, 34, 111
6, 35520, Note_off_c, 8, 34, 80
6, 35520, Note_on_c, 8, 34, 111
6, 35640, Note_off_c, 8, 34, 80
6, 35640, Note_on_c, 8, 34, 111
6, 35760, Note_off_c, 8, 34, 80
6, 35760, Note_on_c, 8, 34, 111
6, 35880, Note_off_c, 8, 34, 80
6, 35880, Note_on_c, 8, 34, 111
6, 36000, Note_off_c, 8, 34, 80
6, 36000, Note_on_c, 8, 34, 111
6, 36120, Note_off_c, 8, 34, 80
6, 36120, Note_on_c, 8, 34, 111
6, 36240, Note_off_c, 8, 34, 80
6, 36240, Note_on_c, 8, 34, 111
6, 36360, Note_off_c, 8, 34, 80
6, 36360, Note_on_c, 8, 34, 111
6, 36480, Note_off_c, 8, 34, 80
6, 36480, Note_on_c, 8, 29, 111
6, 36600, Note_off_c, 8, 29, 80
6, 36600, Note_on_c, 8, 29, 111
6, 36720, Note_off_c, 8, 29, 80
6, 36720, Note_on_c, 8, 29, 111
6, 36840, Note_off_c, 8, 29, 80
6, 36840, Note_on_c, 8, 29, 111
6, 36960, Note_off_c, 8, 29, 80
6, 36960, Note_on_c, 8, 29, 111
6, 37080, Note_off_c, 8, 29, 80
6, 37080, Note_on_c, 8, 29, 111
6, 37200, Note_off_c, 8, 29, 80
6, 37200, Note_on_c, 8, 29, 111
6, 37320, Note_off_c, 8, 29, 80
6, 37320, Note_on_c, 8, 29, 111
6, 37440, Note_off_c, 8, 29, 80
6, 37440, Note_on_c, 8, 29, 111
6, 37560, Note_off_c, 8, 29, 80
6, 37560, Note_on_c, 8, 29, 111
6, 37680, Note_off_c, 8, 29, 80
6, 37680, Note_on_c, 8, 29, 111
6, 37800, Note_off_c, 8, 29, 80
6, 37800, Note_on_c, 8, 29, 111
6, 37920, Note_off_c, 8, 29, 80
6, 37920, Note_on_c, 8, 29, 111
6, 38040, Note_off_c, 8, 29, 80
6, 38040, Note_on_c, 8, 29, 111
6, 38160, Note_off_c, 8, 29, 80
6, 38160, Note_on_c, 8, 29, 111
6, 38280, Note_off_c, 8, 29, 80
6, 38280, Note_on_c, 8, 29, 111
6, 38400, Note_off_c, 8, 29, 80
6, 38400, Note_on_c, 8, 34, 95
6, 38520, Note_off_c, 8, 34, 80
6, 38520, Note_on_c, 8, 34, 95
6, 38640, Note_off_c, 8, 34, 80
6, 38640, Note_on_c, 8, 34, 95
6, 38760, Note_off_c, 8, 34, 80
6, 38760, Note_on_c, 8, 34, 95
6, 38880, Note_off_c, 8, 34, 80
6, 38880, Note_on_c, 8, 34, 95
6, 39000, Note_off_c, 8, 34, 80
6, 39000, Note_on_c, 8, 34, 95
6, 39120, Note_off_c, 8, 34, 80
6, 39120, Note_on_c, 8, 34, 95
6, 39240, Note_off_c, 8, 34, 80
6, 39240, Note_on_c, 8, 34, 95
6, 39360, Note_off_c, 8, 34, 80
6, 39360, Note_on_c, 8, 34, 95
6, 39480, Note_off_c, 8, 34, 80
6, 39480, Note_on_c, 8, 34, 95
6, 39600, Note_off_c, 8, 34, 80
6, 39600, Note_on_c, 8, 34, 95
6, 39720, Note_off_c, 8, 34, 80
6, 39720, Note_on_c, 8, 34, 95
6, 39840, Note_off_c, 8, 34, 80
6, 39840, Note_on_c, 8, 34, 95
6, 39960, Note_off_c, 8, 34, 80
6, 39960, Note_on_c, 8, 34, 95
6, 40080, Note_off_c, 8, 34, 80
6, 40080, Note_on_c, 8, 34, 95
6, 40200, Note_off_c, 8, 34, 80
6, 40200, Note_on_c, 8, 34, 95
6, 40320, Note_off_c, 8, 34, 80
6, 40320, Note_on_c, 8, 29, 95
6, 40440, Note_off_c, 8, 29, 80
6, 40440, Note_on_c, 8, 29, 95
6, 40560, Note_off_c, 8, 29, 80
6, 40560, Note_on_c, 8, 29, 95
6, 40680, Note_off_c, 8, 29, 80
6, 40680, Note_on_c, 8, 29, 95
6, 40800, Note_off_c, 8, 29, 80
6, 40800, Note_on_c, 8, 29, 95
6, 40920, Note_off_c, 8, 29, 80
6, 40920, Note_on_c, 8, 29, 95
6, 41040, Note_off_c, 8, 29, 80
6, 41040, Note_on_c, 8, 29, 95
6, 41160, Note_off_c, 8, 29, 80
6, 41160, Note_on_c, 8, 29, 95
6, 41280, Note_off_c, 8, 29, 80
6, 41280, Note_on_c, 8, 29, 95
6, 41400, Note_off_c, 8, 29, 80
6, 41400, Note_on_c, 8, 29, 95
6, 41520, Note_off_c, 8, 29, 80
6, 41520, Note_on_c, 8, 29, 95
6, 41640, Note_off_c, 8, 29, 80
6, 41640, Note_on_c, 8, 29, 95
6, 41760, Note_off_c, 8, 29, 80
6, 41760, Note_on_c, 8, 29, 95
6, 41880, Note_off_c, 8, 29, 80
6, 41880, Note_on_c, 8, 29, 95
6, 42000, Note_off_c, 8, 29, 80
6, 42000, Note_on_c, 8, 29, 95
6, 42120, Note_off_c, 8, 29, 80
6, 42120, Note_on_c, 8, 29, 95
6, 42240, Note_off_c, 8, 29, 80
6, 42240, Note_on_c, 8, 32, 95
6, 42360, Note_off_c, 8, 32, 80
6, 42360, Note_on_c, 8, 32, 95
6, 42480, Note_off_c, 8, 32, 80
6, 42480, Note_on_c, 8, 32, 95
6, 42600, Note_off_c, 8, 32, 80
6, 42600, Note_on_c, 8, 32, 95
6, 42720, Note_off_c, 8, 32, 80
6, 42720, Note_on_c, 8, 32, 95
6, 42840, Note_off_c, 8, 32, 80
6, 42840, Note_on_c, 8, 32, 95
6, 42960, Note_off_c, 8, 32, 80
6, 42960, Note_on_c, 8, 32, 95
6, 43080, Note_off_c, 8, 32, 80
6, 43080, Note_on_c, 8, 32, 95
6, 43200, Note_off_c, 8, 32, 80
6, 43200, Note_on_c, 8, 29, 95
6, 43320, Note_off_c, 8, 29, 80
6, 43320, Note_on_c, 8, 29, 95
6, 43440, Note_off_c, 8, 29, 80
6, 43440, Note_on_c, 8, 29, 95
6, 43560, Note_off_c, 8, 29, 80
6, 43560, Note_on_c, 8, 29, 95
6, 43680, Note_off_c, 8, 29, 80
6, 43680, Note_on_c, 8, 29, 95
6, 43800, Note_off_c, 8, 29, 80
6, 43800, Note_on_c, 8, 29, 95
6, 43920, Note_off_c, 8, 29, 80
6, 43920, Note_on_c, 8, 29, 95
6, 44040, Note_off_c, 8, 29, 80
6, 44040, Note_on_c, 8, 29, 95
6, 44160, Note_off_c, 8, 29, 80
6, 44160, Note_on_c, 8, 34, 95
6, 44280, Note_off_c, 8, 34, 80
6, 44280, Note_on_c, 8, 34, 95
6, 44400, Note_off_c, 8, 34, 80
6, 44400, Note_on_c, 8, 34, 95
6, 44520, Note_off_c, 8, 34, 80
6, 44520, Note_on_c, 8, 34, 95
6, 44640, Note_off_c, 8, 34, 80
6, 44640, Note_on_c, 8, 34, 95
6, 44760, Note_off_c, 8, 34, 80
6, 44760, Note_on_c, 8, 34, 95
6, 44880, Note_off_c, 8, 34, 80
6, 44880, Note_on_c, 8, 34, 95
6, 45000, Note_off_c, 8, 34, 80
6, 45000, Note_on_c, 8, 34, 95
6, 45120, Note_off_c, 8, 34, 80
6, 45120, Note_on_c, 8, 34, 95
6, 45240, Note_off_c, 8, 34, 80
6, 45240, Note_on_c, 8, 34, 95
6, 45360, Note_off_c, 8, 34, 80
6, 45360, Note_on_c, 8, 34, 95
6, 45480, Note_off_c, 8, 34, 80
6, 45480, Note_on_c, 8, 34, 95
6, 45600, Note_off_c, 8, 34, 80
6, 45600, Note_on_c, 8, 34, 95
6, 45720, Note_off_c, 8, 34, 80
6, 45720, Note_on_c, 8, 34, 95
6, 45840, Note_off_c, 8, 34, 80
6, 45840, Note_on_c, 8, 34, 95
6, 45960, Note_off_c, 8, 34, 80
6, 45960, Note_on_c, 8, 34, 95
6, 46080, Note_off_c, 8, 34, 80
6, 46080, Note_on_c, 8, 30, 111
6, 46200, Note_off_c, 8, 30, 80
6, 46200, Note_on_c, 8, 30, 111
6, 46320, Note_off_c, 8, 30, 80
6, 46320, Note_on_c, 8, 37, 95
6, 46560, Note_off_c, 8, 37, 80
6, 46560, Note_on_c, 8, 30, 95
6, 46680, Note_off_c, 8, 30, 80
6, 46680, Note_on_c, 8, 30, 111
6, 46800, Note_off_c, 8, 30, 80
6, 46800, Note_on_c, 8, 37, 95
6, 47040, Note_off_c, 8, 37, 80
6, 47040, Note_on_c, 8, 30, 111
6, 47160, Note_off_c, 8, 30, 80
6, 47160, Note_on_c, 8, 30, 111
6, 47280, Note_off_c, 8, 30, 80
6, 47280, Note_on_c, 8, 42, 95
6, 47520, Note_off_c, 8, 42, 80
6, 47520, Note_on_c, 8, 30, 111
6, 47640, Note_off_c, 8, 30, 80
6, 47640, Note_on_c, 8, 30, 111
6, 47760, Note_off_c, 8, 30, 80
6, 47760, Note_on_c, 8, 42, 95
6, 48000, Note_off_c, 8, 42, 80
6, 48000, Note_on_c, 8, 27, 111
6, 48120, Note_off_c, 8, 27, 80
6, 48120, Note_on_c, 8, 27, 111
6, 48240, Note_off_c, 8, 27, 80
6, 48240, Note_on_c, 8, 27, 111
6, 48360, Note_off_c, 8, 27, 80
6, 48360, Note_on_c, 8, 27, 111
6, 48480, Note_off_c, 8, 27, 80
6, 48480, Note_on_c, 8, 27, 111
6, 48600, Note_off_c, 8, 27, 80
6, 48600, Note_on_c, 8, 27, 111
6, 48720, Note_off_c, 8, 27, 80
6, 48720, Note_on_c, 8, 27, 111
6, 48840, Note_off_c, 8, 27, 80
6, 48840, Note_on_c, 8, 27, 111
6, 48960, Note_off_c, 8, 27, 80
6, 48960, Note_on_c, 8, 27, 111
6, 49080, Note_off_c, 8, 27, 80
6, 49080, Note_on_c, 8, 27, 111
6, 49200, Note_off_c, 8, 27, 80
6, 49200, Note_on_c, 8, 27, 111
6, 49320, Note_off_c, 8, 27, 80
6, 49320, Note_on_c, 8, 27, 111
6, 49440, Note_off_c, 8, 27, 80
6, 49440, Note_on_c, 8, 27, 111
6, 49560, Note_off_c, 8, 27, 80
6, 49560, Note_on_c, 8, 27, 111
6, 49680, Note_off_c, 8, 27, 80
6, 49680, Note_on_c, 8, 27, 111
6, 49800, Note_off_c, 8, 27, 80
6, 49800, Note_on_c, 8, 27, 111
6, 49920, Note_off_c, 8, 27, 80
6, 49920, Note_on_c, 8, 29, 111
6, 50040, Note_off_c, 8, 29, 80
6, 50040, Note_on_c, 8, 29, 111
6, 50160, Note_off_c, 8, 29, 80
6, 50160, Note_on_c, 8, 29, 111
6, 50280, Note_off_c, 8, 29, 80
6, 50280, Note_on_c, 8, 29, 111
6, 50400, Note_off_c, 8, 29, 80
6, 50400, Note_on_c, 8, 29, 111
6, 50520, Note_off_c, 8, 29, 80
6, 50520, Note_on_c, 8, 29, 111
6, 50640, Note_off_c, 8, 29, 80
6, 50640, Note_on_c, 8, 29, 111
6, 50760, Note_off_c, 8, 29, 80
6, 50760, Note_on_c, 8, 29, 111
6, 50880, Note_off_c, 8, 29, 80
6, 50880, Note_on_c, 8, 29, 111
6, 51000, Note_off_c, 8, 29, 80
6, 51000, Note_on_c, 8, 29, 111
6, 51120, Note_off_c, 8, 29, 80
6, 51120, Note_on_c, 8, 29, 111
6, 51240, Note_off_c, 8, 29, 80
6, 51240, Note_on_c, 8, 29, 111
6, 51360, Note_off_c, 8, 29, 80
6, 51360, Note_on_c, 8, 29, 111
6, 51480, Note_off_c, 8, 29, 80
6, 51480, Note_on_c, 8, 29, 111
6, 51600, Note_off_c, 8, 29, 80
6, 51600, Note_on_c, 8, 29, 111
6, 51720, Note_off_c, 8, 29, 80
6, 51720, Note_on_c, 8, 29, 111
6, 51840, Note_off_c, 8, 29, 80
6, 51840, Note_on_c, 8, 36, 111
6, 51960, Note_off_c, 8, 36, 80
6, 51960, Note_on_c, 8, 36, 111
6, 52080, Note_off_c, 8, 36, 80
6, 52080, Note_on_c, 8, 36, 111
6, 52200, Note_off_c, 8, 36, 80
6, 52200, Note_on_c, 8, 36, 111
6, 52320, Note_off_c, 8, 36, 80
6, 52320, Note_on_c, 8, 36, 111
6, 52440, Note_off_c, 8, 36, 80
6, 52440, Note_on_c, 8, 36, 111
6, 52560, Note_off_c, 8, 36, 80
6, 52560, Note_on_c, 8, 36, 111
6, 52680, Note_off_c, 8, 36, 80
6, 52680, Note_on_c, 8, 36, 111
6, 52800, Note_off_c, 8, 36, 80
6, 52800, Note_on_c, 8, 36, 111
6, 52920, Note_off_c, 8, 36, 80
6, 52920, Note_on_c, 8, 36, 111
6, 53040, Note_off_c, 8, 36, 80
6, 53040, Note_on_c, 8, 36, 111
6, 53160, Note_off_c, 8, 36, 80
6, 53160, Note_on_c, 8, 36, 111
6, 53280, Note_off_c, 8, 36, 80
6, 53280, Note_on_c, 8, 36, 111
6, 53400, Note_off_c, 8, 36, 80
6, 53400, Note_on_c, 8, 36, 111
6, 53520, Note_off_c, 8, 36, 80
6, 53520, Note_on_c, 8, 36, 111
6, 53640, Note_off_c, 8, 36, 80
6, 53640, Note_on_c, 8, 36, 111
6, 53760, Note_off_c, 8, 36, 80
6, 69120, Note_on_c, 8, 34, 95
6, 69240, Note_off_c, 8, 34, 80
6, 69240, Note_on_c, 8, 34, 111
6, 69360, Note_off_c, 8, 34, 80
6, 69360, Note_on_c, 8, 34, 111
6, 69480, Note_off_c, 8, 34, 80
6, 69480, Note_on_c, 8, 34, 111
6, 69600, Note_off_c, 8, 34, 80
6, 69600, Note_on_c, 8, 34, 111
6, 69720, Note_off_c, 8, 34, 80
6, 69720, Note_on_c, 8, 34, 111
6, 69840, Note_off_c, 8, 34, 80
6, 69840, Note_on_c, 8, 34, 111
6, 69960, Note_off_c, 8, 34, 80
6, 69960, Note_on_c, 8, 34, 111
6, 70080, Note_off_c, 8, 34, 80
6, 70080, Note_on_c, 8, 34, 95
6, 70200, Note_off_c, 8, 34, 80
6, 70200, Note_on_c, 8, 34, 111
6, 70320, Note_off_c, 8, 34, 80
6, 70320, Note_on_c, 8, 34, 111
6, 70440, Note_off_c, 8, 34, 80
6, 70440, Note_on_c, 8, 34, 111
6, 70560, Note_off_c, 8, 34, 80
6, 70560, Note_on_c, 8, 34, 111
6, 70680, Note_off_c, 8, 34, 80
6, 70680, Note_on_c, 8, 34, 111
6, 70800, Note_off_c, 8, 34, 80
6, 70800, Note_on_c, 8, 34, 111
6, 70920, Note_off_c, 8, 34, 80
6, 70920, Note_on_c, 8, 34, 111
6, 71040, Note_off_c, 8, 34, 80
6, 71040, Note_on_c, 8, 30, 111
6, 71160, Note_off_c, 8, 30, 80
6, 71160, Note_on_c, 8, 30, 111
6, 71280, Note_off_c, 8, 30, 80
6, 71280, Note_on_c, 8, 30, 111
6, 71400, Note_off_c, 8, 30, 80
6, 71400, Note_on_c, 8, 30, 111
6, 71520, Note_off_c, 8, 30, 80
6, 71520, Note_on_c, 8, 30, 111
6, 71640, Note_off_c, 8, 30, 80
6, 71640, Note_on_c, 8, 30, 111
6, 71760, Note_off_c, 8, 30, 80
6, 71760, Note_on_c, 8, 30, 111
6, 71880, Note_off_c, 8, 30, 80
6, 71880, Note_on_c, 8, 30, 111
6, 72000, Note_off_c, 8, 30, 80
6, 72000, Note_on_c, 8, 30, 111
6, 72120, Note_off_c, 8, 30, 80
6, 72120, Note_on_c, 8, 30, 111
6, 72240, Note_off_c, 8, 30, 80
6, 72240, Note_on_c, 8, 30, 111
6, 72360, Note_off_c, 8, 30, 80
6, 72360, Note_on_c, 8, 30, 111
6, 72480, Note_off_c, 8, 30, 80
6, 72480, Note_on_c, 8, 30, 95
6, 72600, Note_off_c, 8, 30, 80
6, 72600, Note_on_c, 8, 30, 95
6, 72720, Note_off_c, 8, 30, 80
6, 72720, Note_on_c, 8, 30, 95
6, 72840, Note_off_c, 8, 30, 80
6, 72840, Note_on_c, 8, 30, 95
6, 72960, Note_off_c, 8, 30, 80
6, 72960, Note_on_c, 8, 27, 111
6, 73080, Note_off_c, 8, 27, 80
6, 73080, Note_on_c, 8, 27, 111
6, 73200, Note_off_c, 8, 27, 80
6, 73200, Note_on_c, 8, 27, 111
6, 73320, Note_off_c, 8, 27, 80
6, 73320, Note_on_c, 8, 27, 111
6, 73440, Note_off_c, 8, 27, 80
6, 73440, Note_on_c, 8, 27, 111
6, 73560, Note_off_c, 8, 27, 80
6, 73560, Note_on_c, 8, 27, 111
6, 73680, Note_off_c, 8, 27, 80
6, 73680, Note_on_c, 8, 27, 111
6, 73800, Note_off_c, 8, 27, 80
6, 73800, Note_on_c, 8, 27, 111
6, 73920, Note_off_c, 8, 27, 80
6, 73920, Note_on_c, 8, 27, 111
6, 74040, Note_off_c, 8, 27, 80
6, 74040, Note_on_c, 8, 27, 111
6, 74160, Note_off_c, 8, 27, 80
6, 74160, Note_on_c, 8, 27, 111
6, 74280, Note_off_c, 8, 27, 80
6, 74280, Note_on_c, 8, 27, 111
6, 74400, Note_off_c, 8, 27, 80
6, 74400, Note_on_c, 8, 27, 111
6, 74520, Note_off_c, 8, 27, 80
6, 74520, Note_on_c, 8, 27, 111
6, 74640, Note_off_c, 8, 27, 80
6, 74640, Note_on_c, 8, 27, 111
6, 74760, Note_off_c, 8, 27, 80
6, 74760, Note_on_c, 8, 27, 95
6, 74880, Note_off_c, 8, 27, 80
6, 74880, Note_on_c, 8, 34, 111
6, 75000, Note_off_c, 8, 34, 80
6, 75000, Note_on_c, 8, 34, 111
6, 75120, Note_off_c, 8, 34, 80
6, 75120, Note_on_c, 8, 34, 111
6, 75240, Note_off_c, 8, 34, 80
6, 75240, Note_on_c, 8, 34, 111
6, 75360, Note_off_c, 8, 34, 80
6, 75360, Note_on_c, 8, 34, 111
6, 75480, Note_off_c, 8, 34, 80
6, 75480, Note_on_c, 8, 34, 111
6, 75600, Note_off_c, 8, 34, 80
6, 75600, Note_on_c, 8, 34, 111
6, 75720, Note_off_c, 8, 34, 80
6, 75720, Note_on_c, 8, 34, 111
6, 75840, Note_off_c, 8, 34, 80
6, 75840, Note_on_c, 8, 29, 111
6, 75960, Note_off_c, 8, 29, 80
6, 75960, Note_on_c, 8, 29, 111
6, 76080, Note_off_c, 8, 29, 80
6, 76080, Note_on_c, 8, 29, 111
6, 76200, Note_off_c, 8, 29, 80
6, 76200, Note_on_c, 8, 29, 111
6, 76320, Note_off_c, 8, 29, 80
6, 76320, Note_on_c, 8, 29, 111
6, 76440, Note_off_c, 8, 29, 80
6, 76440, Note_on_c, 8, 29, 111
6, 76560, Note_off_c, 8, 29, 80
6, 76560, Note_on_c, 8, 29, 111
6, 76680, Note_off_c, 8, 29, 80
6, 76680, Note_on_c, 8, 29, 111
6, 76800, Note_off_c, 8, 29, 80
6, 76800, Note_on_c, 8, 34, 95
6, 76920, Note_off_c, 8, 34, 80
6, 76920, Note_on_c, 8, 34, 111
6, 77040, Note_off_c, 8, 34, 80
6, 77040, Note_on_c, 8, 34, 111
6, 77160, Note_off_c, 8, 34, 80
6, 77160, Note_on_c, 8, 34, 111
6, 77280, Note_off_c, 8, 34, 80
6, 77280, Note_on_c, 8, 34, 111
6, 77400, Note_off_c, 8, 34, 80
6, 77400, Note_on_c, 8, 34, 111
6, 77520, Note_off_c, 8, 34, 80
6, 77520, Note_on_c, 8, 34, 111
6, 77640, Note_off_c, 8, 34, 80
6, 77640, Note_on_c, 8, 34, 111
6, 77760, Note_off_c, 8, 34, 80
6, 77760, Note_on_c, 8, 34, 95
6, 77880, Note_off_c, 8, 34, 80
6, 77880, Note_on_c, 8, 34, 111
6, 78000, Note_off_c, 8, 34, 80
6, 78000, Note_on_c, 8, 34, 111
6, 78120, Note_off_c, 8, 34, 80
6, 78120, Note_on_c, 8, 34, 111
6, 78240, Note_off_c, 8, 34, 80
6, 78240, Note_on_c, 8, 34, 111
6, 78360, Note_off_c, 8, 34, 80
6, 78360, Note_on_c, 8, 34, 111
6, 78480, Note_off_c, 8, 34, 80
6, 78480, Note_on_c, 8, 34, 111
6, 78600, Note_off_c, 8, 34, 80
6, 78600, Note_on_c, 8, 34, 111
6, 78720, Note_off_c, 8, 34, 80
6, 78720, Note_on_c, 8, 30, 111
6, 78840, Note_off_c, 8, 30, 80
6, 78840, Note_on_c, 8, 30, 111
6, 78960, Note_off_c, 8, 30, 80
6, 78960, Note_on_c, 8, 30, 111
6, 79080, Note_off_c, 8, 30, 80
6, 79080, Note_on_c, 8, 30, 111
6, 79200, Note_off_c, 8, 30, 80
6, 79200, Note_on_c, 8, 30, 111
6, 79320, Note_off_c, 8, 30, 80
6, 79320, Note_on_c, 8, 30, 111
6, 79440, Note_off_c, 8, 30, 80
6, 79440, Note_on_c, 8, 30, 111
6, 79560, Note_off_c, 8, 30, 80
6, 79560, Note_on_c, 8, 30, 111
6, 79680, Note_off_c, 8, 30, 80
6, 79680, Note_on_c, 8, 30, 111
6, 79800, Note_off_c, 8, 30, 80
6, 79800, Note_on_c, 8, 30, 111
6, 79920, Note_off_c, 8, 30, 80
6, 79920, Note_on_c, 8, 30, 111
6, 80040, Note_off_c, 8, 30, 80
6, 80040, Note_on_c, 8, 30, 111
6, 80160, Note_off_c, 8, 30, 80
6, 80160, Note_on_c, 8, 30, 95
6, 80280, Note_off_c, 8, 30, 80
6, 80280, Note_on_c, 8, 30, 95
6, 80400, Note_off_c, 8, 30, 80
6, 80400, Note_on_c, 8, 30, 95
6, 80520, Note_off_c, 8, 30, 80
6, 80520, Note_on_c, 8, 30, 95
6, 80640, Note_off_c, 8, 30, 80
6, 80640, Note_on_c, 8, 27, 111
6, 80760, Note_off_c, 8, 27, 80
6, 80760, Note_on_c, 8, 27, 111
6, 80880, Note_off_c, 8, 27, 80
6, 80880, Note_on_c, 8, 27, 111
6, 81000, Note_off_c, 8, 27, 80
6, 81000, Note_on_c, 8, 27, 111
6, 81120, Note_off_c, 8, 27, 80
6, 81120, Note_on_c, 8, 27, 111
6, 81240, Note_off_c, 8, 27, 80
6, 81240, Note_on_c, 8, 27, 111
6, 81360, Note_off_c, 8, 27, 80
6, 81360, Note_on_c, 8, 27, 111
6, 81480, Note_off_c, 8, 27, 80
6, 81480, Note_on_c, 8, 27, 111
6, 81600, Note_off_c, 8, 27, 80
6, 81600, Note_on_c, 8, 27, 111
6, 81720, Note_off_c, 8, 27, 80
6, 81720, Note_on_c, 8, 27, 111
6, 81840, Note_off_c, 8, 27, 80
6, 81840, Note_on_c, 8, 27, 111
6, 81960, Note_off_c, 8, 27, 80
6, 81960, Note_on_c, 8, 27, 111
6, 82080, Note_off_c, 8, 27, 80
6, 82080, Note_on_c, 8, 27, 111
6, 82200, Note_off_c, 8, 27, 80
6, 82200, Note_on_c, 8, 27, 111
6, 82320, Note_off_c, 8, 27, 80
6, 82320, Note_on_c, 8, 27, 111
6, 82440, Note_off_c, 8, 27, 80
6, 82440, Note_on_c, 8, 27, 95
6, 82560, Note_off_c, 8, 27, 80
6, 82560, Note_on_c, 8, 34, 111
6, 82680, Note_off_c, 8, 34, 80
6, 82680, Note_on_c, 8, 34, 111
6, 82800, Note_off_c, 8, 34, 80
6, 82800, Note_on_c, 8, 34, 111
6, 82920, Note_off_c, 8, 34, 80
6, 82920, Note_on_c, 8, 34, 111
6, 83040, Note_off_c, 8, 34, 80
6, 83040, Note_on_c, 8, 34, 111
6, 83160, Note_off_c, 8, 34, 80
6, 83160, Note_on_c, 8, 34, 111
6, 83280, Note_off_c, 8, 34, 80
6, 83280, Note_on_c, 8, 34, 111
6, 83400, Note_off_c, 8, 34, 80
6, 83400, Note_on_c, 8, 34, 111
6, 83520, Note_off_c, 8, 34, 80
6, 83520, Note_on_c, 8, 29, 111
6, 83640, Note_off_c, 8, 29, 80
6, 83640, Note_on_c, 8, 29, 111
6, 83760, Note_off_c, 8, 29, 80
6, 83760, Note_on_c, 8, 29, 111
6, 83880, Note_off_c, 8, 29, 80
6, 83880, Note_on_c, 8, 29, 111
6, 84000, Note_off_c, 8, 29, 80
6, 84000, Note_on_c, 8, 29, 111
6, 84120, Note_off_c, 8, 29, 80
6, 84120, Note_on_c, 8, 29, 111
6, 84240, Note_off_c, 8, 29, 80
6, 84240, Note_on_c, 8, 29, 111
6, 84360, Note_off_c, 8, 29, 80
6, 84360, Note_on_c, 8, 29, 111
6, 84480, Note_off_c, 8, 29, 80
6, 84480, Note_on_c, 8, 34, 95
6, 84600, Note_off_c, 8, 34, 80
6, 84600, Note_on_c, 8, 34, 111
6, 84720, Note_off_c, 8, 34, 80
6, 84720, Note_on_c, 8, 34, 111
6, 84840, Note_off_c, 8, 34, 80
6, 84840, Note_on_c, 8, 34, 111
6, 84960, Note_off_c, 8, 34, 80
6, 84960, Note_on_c, 8, 34, 111
6, 85080, Note_off_c, 8, 34, 80
6, 85080, Note_on_c, 8, 34, 111
6, 85200, Note_off_c, 8, 34, 80
6, 85200, Note_on_c, 8, 34, 111
6, 85320, Note_off_c, 8, 34, 80
6, 85320, Note_on_c, 8, 34, 111
6, 85440, Note_off_c, 8, 34, 80
6, 85440, Note_on_c, 8, 34, 95
6, 85560, Note_off_c, 8, 34, 80
6, 85560, Note_on_c, 8, 34, 111
6, 85680, Note_off_c, 8, 34, 80
6, 85680, Note_on_c, 8, 34, 111
6, 85800, Note_off_c, 8, 34, 80
6, 85800, Note_on_c, 8, 34, 111
6, 85920, Note_off_c, 8, 34, 80
6, 85920, Note_on_c, 8, 34, 111
6, 86040, Note_off_c, 8, 34, 80
6, 86040, Note_on_c, 8, 34, 111
6, 86160, Note_off_c, 8, 34, 80
6, 86160, Note_on_c, 8, 34, 111
6, 86280, Note_off_c, 8, 34, 80
6, 86280, Note_on_c, 8, 34, 111
6, 86400, Note_off_c, 8, 34, 80
6, 86400, Note_on_c, 8, 30, 111
6, 86520, Note_off_c, 8, 30, 80
6, 86520, Note_on_c, 8, 30, 111
6, 86640, Note_off_c, 8, 30, 80
6, 86640, Note_on_c, 8, 30, 111
6, 86760, Note_off_c, 8, 30, 80
6, 86760, Note_on_c, 8, 30, 111
6, 86880, Note_off_c, 8, 30, 80
6, 86880, Note_on_c, 8, 30, 111
6, 87000, Note_off_c, 8, 30, 80
6, 87000, Note_on_c, 8, 30, 111
6, 87120, Note_off_c, 8, 30, 80
6, 87120, Note_on_c, 8, 30, 111
6, 87240, Note_off_c, 8, 30, 80
6, 87240, Note_on_c, 8, 30, 111
6, 87360, Note_off_c, 8, 30, 80
6, 87360, Note_on_c, 8, 30, 111
6, 87480, Note_off_c, 8, 30, 80
6, 87480, Note_on_c, 8, 30, 111
6, 87600, Note_off_c, 8, 30, 80
6, 87600, Note_on_c, 8, 30, 111
6, 87720, Note_off_c, 8, 30, 80
6, 87720, Note_on_c, 8, 30, 111
6, 87840, Note_off_c, 8, 30, 80
6, 87840, Note_on_c, 8, 30, 95
6, 87960, Note_off_c, 8, 30, 80
6, 87960, Note_on_c, 8, 30, 95
6, 88080, Note_off_c, 8, 30, 80
6, 88080, Note_on_c, 8, 30, 95
6, 88200, Note_off_c, 8, 30, 80
6, 88200, Note_on_c, 8, 30, 95
6, 88320, Note_off_c, 8, 30, 80
6, 88320, Note_on_c, 8, 27, 111
6, 88440, Note_off_c, 8, 27, 80
6, 88440, Note_on_c, 8, 27, 111
6, 88560, Note_off_c, 8, 27, 80
6, 88560, Note_on_c, 8, 27, 111
6, 88680, Note_off_c, 8, 27, 80
6, 88680, Note_on_c, 8, 27, 111
6, 88800, Note_off_c, 8, 27, 80
6, 88800, Note_on_c, 8, 27, 111
6, 88920, Note_off_c, 8, 27, 80
6, 88920, Note_on_c, 8, 27, 111
6, 89040, Note_off_c, 8, 27, 80
6, 89040, Note_on_c, 8, 27, 111
6, 89160, Note_off_c, 8, 27, 80
6, 89160, Note_on_c, 8, 27, 111
6, 89280, Note_off_c, 8, 27, 80
6, 89280, Note_on_c, 8, 27, 111
6, 89400, Note_off_c, 8, 27, 80
6, 89400, Note_on_c, 8, 27, 111
6, 89520, Note_off_c, 8, 27, 80
6, 89520, Note_on_c, 8, 27, 111
6, 89640, Note_off_c, 8, 27, 80
6, 89640, Note_on_c, 8, 27, 111
6, 89760, Note_off_c, 8, 27, 80
6, 89760, Note_on_c, 8, 27, 111
6, 89880, Note_off_c, 8, 27, 80
6, 89880, Note_on_c, 8, 27, 111
6, 90000, Note_off_c, 8, 27, 80
6, 90000, Note_on_c, 8, 27, 111
6, 90120, Note_off_c, 8, 27, 80
6, 90120, Note_on_c, 8, 27, 95
6, 90240, Note_off_c, 8, 27, 80
6, 90240, Note_on_c, 8, 34, 111
6, 90360, Note_off_c, 8, 34, 80
6, 90360, Note_on_c, 8, 34, 111
6, 90480, Note_off_c, 8, 34, 80
6, 90480, Note_on_c, 8, 34, 111
6, 90600, Note_off_c, 8, 34, 80
6, 90600, Note_on_c, 8, 34, 111
6, 90720, Note_off_c, 8, 34, 80
6, 90720, Note_on_c, 8, 34, 111
6, 90840, Note_off_c, 8, 34, 80
6, 90840, Note_on_c, 8, 34, 111
6, 90960, Note_off_c, 8, 34, 80
6, 90960, Note_on_c, 8, 34, 111
6, 91080, Note_off_c, 8, 34, 80
6, 91080, Note_on_c, 8, 34, 111
6, 91200, Note_off_c, 8, 34, 80
6, 91200, Note_on_c, 8, 29, 111
6, 91320, Note_off_c, 8, 29, 80
6, 91320, Note_on_c, 8, 29, 111
6, 91440, Note_off_c, 8, 29, 80
6, 91440, Note_on_c, 8, 29, 111
6, 91560, Note_off_c, 8, 29, 80
6, 91560, Note_on_c, 8, 29, 111
6, 91680, Note_off_c, 8, 29, 80
6, 91680, Note_on_c, 8, 29, 111
6, 91800, Note_off_c, 8, 29, 80
6, 91800, Note_on_c, 8, 29, 111
6, 91920, Note_off_c, 8, 29, 80
6, 91920, Note_on_c, 8, 29, 111
6, 92040, Note_off_c, 8, 29, 80
6, 92040, Note_on_c, 8, 29, 111
6, 92160, Note_off_c, 8, 29, 80
6, 92160, Note_on_c, 8, 34, 95
6, 92280, Note_off_c, 8, 34, 80
6, 92280, Note_on_c, 8, 34, 111
6, 92400, Note_off_c, 8, 34, 80
6, 92400, Note_on_c, 8, 34, 111
6, 92520, Note_off_c, 8, 34, 80
6, 92520, Note_on_c, 8, 34, 111
6, 92640, Note_off_c, 8, 34, 80
6, 92640, Note_on_c, 8, 34, 111
6, 92760, Note_off_c, 8, 34, 80
6, 92760, Note_on_c, 8, 34, 111
6, 92880, Note_off_c, 8, 34, 80
6, 92880, Note_on_c, 8, 34, 111
6, 93000, Note_off_c, 8, 34, 80
6, 93000, Note_on_c, 8, 34, 111
6, 93120, Note_off_c, 8, 34, 80
6, 93120, Note_on_c, 8, 34, 95
6, 93240, Note_off_c, 8, 34, 80
6, 93240, Note_on_c, 8, 34, 111
6, 93360, Note_off_c, 8, 34, 80
6, 93360, Note_on_c, 8, 34, 111
6, 93480, Note_off_c, 8, 34, 80
6, 93480, Note_on_c, 8, 34, 111
6, 93600, Note_off_c, 8, 34, 80
6, 93600, Note_on_c, 8, 34, 111
6, 93720, Note_off_c, 8, 34, 80
6, 93720, Note_on_c, 8, 34, 111
6, 93840, Note_off_c, 8, 34, 80
6, 93840, Note_on_c, 8, 34, 111
6, 93960, Note_off_c, 8, 34, 80
6, 93960, Note_on_c, 8, 34, 111
6, 94080, Note_off_c, 8, 34, 80
6, 94080, Note_on_c, 8, 30, 111
6, 94200, Note_off_c, 8, 30, 80
6, 94200, Note_on_c, 8, 30, 111
6, 94320, Note_off_c, 8, 30, 80
6, 94320, Note_on_c, 8, 30, 111
6, 94440, Note_off_c, 8, 30, 80
6, 94440, Note_on_c, 8, 30, 111
6, 94560, Note_off_c, 8, 30, 80
6, 94560, Note_on_c, 8, 30, 111
6, 94680, Note_off_c, 8, 30, 80
6, 94680, Note_on_c, 8, 30, 111
6, 94800, Note_off_c, 8, 30, 80
6, 94800, Note_on_c, 8, 30, 111
6, 94920, Note_off_c, 8, 30, 80
6, 94920, Note_on_c, 8, 30, 111
6, 95040, Note_off_c, 8, 30, 80
6, 95040, Note_on_c, 8, 30, 111
6, 95160, Note_off_c, 8, 30, 80
6, 95160, Note_on_c, 8, 30, 111
6, 95280, Note_off_c, 8, 30, 80
6, 95280, Note_on_c, 8, 30, 111
6, 95400, Note_off_c, 8, 30, 80
6, 95400, Note_on_c, 8, 30, 111
6, 95520, Note_off_c, 8, 30, 80
6, 95520, Note_on_c, 8, 30, 95
6, 95640, Note_off_c, 8, 30, 80
6, 95640, Note_on_c, 8, 30, 95
6, 95760, Note_off_c, 8, 30, 80
6, 95760, Note_on_c, 8, 30, 95
6, 95880, Note_off_c, 8, 30, 80
6, 95880, Note_on_c, 8, 30, 95
6, 96000, Note_off_c, 8, 30, 80
6, 96000, Note_on_c, 8, 27, 111
6, 96120, Note_off_c, 8, 27, 80
6, 96120, Note_on_c, 8, 27, 111
6, 96240, Note_off_c, 8, 27, 80
6, 96240, Note_on_c, 8, 27, 111
6, 96360, Note_off_c, 8, 27, 80
6, 96360, Note_on_c, 8, 27, 111
6, 96480, Note_off_c, 8, 27, 80
6, 96480, Note_on_c, 8, 27, 111
6, 96600, Note_off_c, 8, 27, 80
6, 96600, Note_on_c, 8, 27, 111
6, 96720, Note_off_c, 8, 27, 80
6, 96720, Note_on_c, 8, 27, 111
6, 96840, Note_off_c, 8, 27, 80
6, 96840, Note_on_c, 8, 27, 111
6, 96960, Note_off_c, 8, 27, 80
6, 96960, Note_on_c, 8, 27, 111
6, 97080, Note_off_c, 8, 27, 80
6, 97080, Note_on_c, 8, 27, 111
6, 97200, Note_off_c, 8, 27, 80
6, 97200, Note_on_c, 8, 27, 111
6, 97320, Note_off_c, 8, 27, 80
6, 97320, Note_on_c, 8, 27, 111
6, 97440, Note_off_c, 8, 27, 80
6, 97440, Note_on_c, 8, 27, 111
6, 97560, Note_off_c, 8, 27, 80
6, 97560, Note_on_c, 8, 27, 111
6, 97680, Note_off_c, 8, 27, 80
6, 97680, Note_on_c, 8, 27, 111
6, 97800, Note_off_c, 8, 27, 80
6, 97800, Note_on_c, 8, 27, 95
6, 97920, Note_off_c, 8, 27, 80
6, 97920, Note_on_c, 8, 34, 111
6, 98040, Note_off_c, 8, 34, 80
6, 98040, Note_on_c, 8, 34, 111
6, 98160, Note_off_c, 8, 34, 80
6, 98160, Note_on_c, 8, 34, 111
6, 98280, Note_off_c, 8, 34, 80
6, 98280, Note_on_c, 8, 34, 111
6, 98400, Note_off_c, 8, 34, 80
6, 98400, Note_on_c, 8, 34, 111
6, 98520, Note_off_c, 8, 34, 80
6, 98520, Note_on_c, 8, 34, 111
6, 98640, Note_off_c, 8, 34, 80
6, 98640, Note_on_c, 8, 34, 111
6, 98760, Note_off_c, 8, 34, 80
6, 98760, Note_on_c, 8, 34, 111
6, 98880, Note_off_c, 8, 34, 80
6, 98880, Note_on_c, 8, 34, 111
6, 99000, Note_off_c, 8, 34, 80
6, 99000, Note_on_c, 8, 34, 111
6, 99120, Note_off_c, 8, 34, 80
6, 99120, Note_on_c, 8, 34, 111
6, 99240, Note_off_c, 8, 34, 80
6, 99240, Note_on_c, 8, 34, 111
6, 99360, Note_off_c, 8, 34, 80
6, 99360, Note_on_c, 8, 34, 111
6, 99480, Note_off_c, 8, 34, 80
6, 99480, Note_on_c, 8, 34, 111
6, 99600, Note_off_c, 8, 34, 80
6, 99600, Note_on_c, 8, 34, 111
6, 99720, Note_off_c, 8, 34, 80
6, 99720, Note_on_c, 8, 34, 111
6, 99840, Note_off_c, 8, 34, 80
6, 99840, Note_on_c, 8, 29, 111
6, 99960, Note_off_c, 8, 29, 80
6, 99960, Note_on_c, 8, 29, 111
6, 100080, Note_off_c, 8, 29, 80
6, 100080, Note_on_c, 8, 29, 111
6, 100200, Note_off_c, 8, 29, 80
6, 100200, Note_on_c, 8, 29, 111
6, 100320, Note_off_c, 8, 29, 80
6, 100320, Note_on_c, 8, 29, 111
6, 100440, Note_off_c, 8, 29, 80
6, 100440, Note_on_c, 8, 29, 111
6, 100560, Note_off_c, 8, 29, 80
6, 100560, Note_on_c, 8, 29, 111
6, 100680, Note_off_c, 8, 29, 80
6, 100680, Note_on_c, 8, 29, 111
6, 100800, Note_off_c, 8, 29, 80
6, 100800, Note_on_c, 8, 28, 111
6, 100920, Note_off_c, 8, 28, 80
6, 100920, Note_on_c, 8, 28, 111
6, 101040, Note_off_c, 8, 28, 80
6, 101040, Note_on_c, 8, 28, 111
6, 101160, Note_off_c, 8, 28, 80
6, 101160, Note_on_c, 8, 28, 111
6, 101280, Note_off_c, 8, 28, 80
6, 101280, Note_on_c, 8, 28, 111
6, 101400, Note_off_c, 8, 28, 80
6, 101400, Note_on_c, 8, 28, 111
6, 101520, Note_off_c, 8, 28, 80
6, 101520, Note_on_c, 8, 28, 111
6, 101640, Note_off_c, 8, 28, 80
6, 101640, Note_on_c, 8, 28, 111
6, 101760, Note_off_c, 8, 28, 80
6, 101760, End_track
0, 0, End_of_file
