0, 0, Header, 0, 1, 480
1, 0, Start_track
1, 0, Title_t, "untitled"
1, 0, SMPTE_offset, 96, 0, 3, 0, 0
1, 0, System_exclusive, 10, 65, 16, 66, 18, 64, 0, 127, 0, 65, 247
1, 0, Time_signature, 4, 2, 24, 8
1, 0, Key_signature, 0, "major"
1, 0, Tempo, 454545
1, 0, Pitch_bend_c, 0, 8192
1, 0, Pitch_bend_c, 1, 8192
1, 0, Pitch_bend_c, 2, 8192
1, 0, Pitch_bend_c, 3, 8192
1, 0, Pitch_bend_c, 4, 8192
1, 0, Pitch_bend_c, 6, 8192
1, 0, Pitch_bend_c, 7, 8192
1, 0, Pitch_bend_c, 8, 8192
1, 0, Pitch_bend_c, 9, 8192
1, 0, Pitch_bend_c, 10, 8192
1, 0, Pitch_bend_c, 11, 8192
1, 0, Pitch_bend_c, 12, 8192
1, 0, Pitch_bend_c, 13, 8192
1, 0, Control_c, 0, 101, 0
1, 1, Control_c, 0, 100, 0
1, 2, Control_c, 0, 6, 12
1, 3, Control_c, 0, 38, 0
1, 3, Control_c, 1, 101, 0
1, 4, Control_c, 1, 100, 0
1, 5, Control_c, 1, 6, 12
1, 6, Control_c, 1, 38, 0
1, 6, Control_c, 2, 101, 0
1, 7, Control_c, 2, 100, 0
1, 8, Control_c, 2, 6, 12
1, 9, Control_c, 2, 38, 0
1, 9, Control_c, 3, 101, 0
1, 10, Control_c, 3, 100, 0
1, 11, Control_c, 3, 6, 12
1, 12, Control_c, 3, 38, 0
1, 12, Control_c, 4, 101, 0
1, 13, Control_c, 4, 100, 0
1, 14, Control_c, 4, 6, 12
1, 15, Control_c, 4, 38, 0
1, 15, Control_c, 6, 101, 0
1, 16, Control_c, 6, 100, 0
1, 17, Control_c, 6, 6, 12
1, 18, Control_c, 6, 38, 0
1, 18, Control_c, 7, 101, 0
1, 19, Control_c, 7, 100, 0
1, 20, Control_c, 7, 6, 12
1, 21, Control_c, 7, 38, 0
1, 21, Control_c, 8, 101, 0
1, 22, Control_c, 8, 100, 0
1, 23, Control_c, 8, 6, 12
1, 24, Control_c, 8, 38, 0
1, 24, Control_c, 9, 101, 0
1, 25, Control_c, 9, 100, 0
1, 26, Control_c, 9, 6, 12
1, 27, Control_c, 9, 38, 0
1, 27, Control_c, 10, 101, 0
1, 28, Control_c, 10, 100, 0
1, 29, Control_c, 10, 6, 12
1, 30, Control_c, 10, 38, 0
1, 30, Control_c, 11, 101, 0
1, 31, Control_c, 11, 100, 0
1, 32, Control_c, 11, 6, 12
1, 33, Control_c, 11, 38, 0
1, 33, Control_c, 12, 101, 0
1, 34, Control_c, 12, 100, 0
1, 35, Control_c, 12, 6, 12
1, 36, Control_c, 12, 38, 0
1, 36, Control_c, 13, 101, 0
1, 37, Control_c, 13, 100, 0
1, 38, Control_c, 13, 6, 12
1, 39, Control_c, 13, 38, 0
1, 39, Pitch_bend_c, 0, 8192
1, 39, Control_c, 0, 1, 0
1, 39, Control_c, 0, 91, 0
1, 39, Control_c, 0, 93, 0
1, 39, Pitch_bend_c, 1, 8192
1, 39, Control_c, 1, 91, 0
1, 39, Control_c, 1, 93, 0
1, 39, Pitch_bend_c, 2, 8192
1, 39, Control_c, 2, 91, 0
1, 39, Control_c, 2, 93, 0
1, 39, Pitch_bend_c, 3, 8192
1, 39, Control_c, 3, 91, 0
1, 39, Control_c, 3, 93, 0
1, 39, Pitch_bend_c, 4, 8192
1, 39, Control_c, 4, 91, 0
1, 39, Control_c, 4, 93, 0
1, 39, Control_c, 4, 11, 104
1, 39, Pitch_bend_c, 6, 8192
1, 39, Control_c, 6, 91, 0
1, 39, Control_c, 6, 93, 0
1, 39, Control_c, 6, 11, 98
1, 39, Pitch_bend_c, 7, 8192
1, 39, Control_c, 7, 1, 0
1, 39, Control_c, 7, 0, 0
1, 39, Control_c, 7, 32, 0
1, 39, Control_c, 7, 11, 97
1, 39, Pitch_bend_c, 8, 8192
1, 39, Control_c, 8, 91, 0
1, 39, Control_c, 8, 93, 0
1, 39, Pitch_bend_c, 9, 8192
1, 39, Control_c, 9, 91, 0
1, 39, Control_c, 9, 93, 0
1, 39, Pitch_bend_c, 10, 8192
1, 39, Control_c, 10, 1, 0
1, 39, Control_c, 10, 11, 127
1, 39, Pitch_bend_c, 11, 8192
1, 39, Control_c, 11, 1, 0
1, 39, Control_c, 11, 0, 0
1, 39, Control_c, 11, 32, 0
1, 39, Control_c, 11, 11, 127
1, 39, Pitch_bend_c, 12, 8192
1, 39, Control_c, 12, 1, 0
1, 39, Control_c, 12, 11, 127
1, 39, Pitch_bend_c, 13, 8192
1, 39, Control_c, 13, 1, 0
1, 39, Control_c, 13, 11, 67
1, 39, Control_c, 0, 101, 0
1, 40, Control_c, 0, 100, 0
1, 41, Control_c, 0, 6, 12
1, 42, Control_c, 0, 38, 0
1, 42, Control_c, 1, 101, 0
1, 43, Control_c, 1, 100, 0
1, 44, Control_c, 1, 6, 12
1, 45, Control_c, 1, 38, 0
1, 45, Control_c, 2, 101, 0
1, 46, Control_c, 2, 100, 0
1, 47, Control_c, 2, 6, 12
1, 48, Control_c, 2, 38, 0
1, 48, Control_c, 3, 101, 0
1, 49, Control_c, 3, 100, 0
1, 50, Control_c, 3, 6, 12
1, 51, Control_c, 3, 38, 0
1, 51, Control_c, 4, 101, 0
1, 52, Control_c, 4, 100, 2
1, 53, Control_c, 4, 6, 76
1, 54, Control_c, 4, 38, 0
1, 54, Control_c, 6, 101, 0
1, 55, Control_c, 6, 100, 0
1, 56, Control_c, 6, 6, 12
1, 57, Control_c, 6, 38, 0
1, 57, Control_c, 7, 101, 0
1, 58, Control_c, 7, 100, 0
1, 59, Control_c, 7, 6, 127
1, 60, Control_c, 7, 38, 0
1, 60, Control_c, 8, 101, 0
1, 61, Control_c, 8, 100, 0
1, 62, Control_c, 8, 6, 12
1, 63, Control_c, 8, 38, 0
1, 63, Control_c, 9, 101, 0
1, 64, Control_c, 9, 100, 0
1, 65, Control_c, 9, 6, 12
1, 66, Control_c, 9, 38, 0
1, 66, Control_c, 10, 101, 0
1, 67, Control_c, 10, 100, 0
1, 68, Control_c, 10, 6, 12
1, 69, Control_c, 10, 38, 0
1, 69, Control_c, 11, 101, 0
1, 70, Control_c, 11, 100, 0
1, 71, Control_c, 11, 6, 12
1, 72, Control_c, 11, 38, 0
1, 72, Control_c, 12, 101, 0
1, 73, Control_c, 12, 100, 0
1, 74, Control_c, 12, 6, 12
1, 75, Control_c, 12, 38, 0
1, 75, Control_c, 13, 101, 0
1, 76, Control_c, 13, 100, 0
1, 77, Control_c, 13, 6, 64
1, 78, Control_c, 13, 38, 0
1, 78, Pitch_bend_c, 0, 8192
1, 78, Control_c, 0, 1, 0
1, 78, Control_c, 0, 91, 0
1, 78, Control_c, 0, 93, 0
1, 78, Pitch_bend_c, 0, 8192
1, 78, Pitch_bend_c, 1, 8192
1, 78, Control_c, 1, 91, 0
1, 78, Control_c, 1, 93, 0
1, 78, Pitch_bend_c, 1, 8192
1, 78, Pitch_bend_c, 2, 8192
1, 78, Control_c, 2, 91, 0
1, 78, Control_c, 2, 93, 0
1, 78, Pitch_bend_c, 2, 8192
1, 78, Pitch_bend_c, 3, 8192
1, 78, Control_c, 3, 91, 0
1, 78, Control_c, 3, 93, 0
1, 78, Pitch_bend_c, 3, 8192
1, 78, Pitch_bend_c, 6, 8192
1, 78, Control_c, 6, 91, 0
1, 78, Control_c, 6, 93, 0
1, 78, Control_c, 6, 11, 98
1, 78, Pitch_bend_c, 8, 8192
1, 78, Control_c, 8, 91, 0
1, 78, Control_c, 8, 93, 0
1, 78, Pitch_bend_c, 9, 8192
1, 78, Control_c, 9, 91, 0
1, 78, Control_c, 9, 93, 0
1, 78, Control_c, 0, 101, 0
1, 79, Control_c, 0, 100, 0
1, 80, Control_c, 0, 6, 12
1, 81, Control_c, 0, 38, 0
1, 81, Control_c, 1, 101, 0
1, 82, Control_c, 1, 100, 0
1, 83, Control_c, 1, 6, 12
1, 84, Control_c, 1, 38, 0
1, 84, Control_c, 2, 101, 0
1, 85, Control_c, 2, 100, 0
1, 86, Control_c, 2, 6, 12
1, 87, Control_c, 2, 38, 0
1, 87, Control_c, 3, 101, 0
1, 88, Control_c, 3, 100, 0
1, 89, Control_c, 3, 6, 12
1, 90, Control_c, 3, 38, 0
1, 90, Control_c, 4, 101, 0
1, 91, Control_c, 4, 100, 0
1, 92, Control_c, 4, 6, 12
1, 93, Control_c, 4, 38, 0
1, 93, Control_c, 6, 101, 0
1, 94, Control_c, 6, 100, 0
1, 95, Control_c, 6, 6, 12
1, 96, Control_c, 6, 38, 0
1, 96, Control_c, 7, 101, 0
1, 97, Control_c, 7, 100, 1
1, 98, Control_c, 7, 6, 64
1, 99, Control_c, 7, 38, 0
1, 99, Control_c, 8, 101, 0
1, 100, Control_c, 8, 100, 0
1, 101, Control_c, 8, 6, 12
1, 102, Control_c, 8, 38, 0
1, 102, Control_c, 9, 101, 0
1, 103, Control_c, 9, 100, 0
1, 104, Control_c, 9, 6, 12
1, 105, Control_c, 9, 38, 0
1, 105, Control_c, 10, 101, 0
1, 106, Control_c, 10, 100, 1
1, 107, Control_c, 10, 6, 64
1, 108, Control_c, 10, 38, 0
1, 108, Control_c, 11, 101, 0
1, 109, Control_c, 11, 100, 1
1, 110, Control_c, 11, 6, 64
1, 111, Control_c, 11, 38, 0
1, 111, Control_c, 12, 101, 0
1, 112, Control_c, 12, 100, 1
1, 113, Control_c, 12, 6, 64
1, 114, Control_c, 12, 38, 0
1, 114, Control_c, 13, 101, 0
1, 115, Control_c, 13, 100, 1
1, 116, Control_c, 13, 6, 64
1, 117, Control_c, 13, 38, 0
1, 117, Control_c, 0, 7, 127
1, 117, Pitch_bend_c, 0, 8192
1, 117, Control_c, 0, 1, 0
1, 117, Control_c, 0, 91, 0
1, 117, Control_c, 0, 93, 0
1, 117, Pitch_bend_c, 0, 8192
1, 117, Control_c, 1, 7, 54
1, 117, Pitch_bend_c, 1, 8192
1, 117, Control_c, 1, 91, 0
1, 117, Control_c, 1, 93, 0
1, 117, Pitch_bend_c, 1, 8192
1, 117, Pitch_bend_c, 2, 8192
1, 117, Control_c, 2, 91, 0
1, 117, Control_c, 2, 93, 0
1, 117, Pitch_bend_c, 2, 8192
1, 117, Pitch_bend_c, 3, 8192
1, 117, Control_c, 3, 91, 0
1, 117, Control_c, 3, 93, 0
1, 117, Pitch_bend_c, 3, 8192
1, 117, Pitch_bend_c, 4, 8192
1, 117, Control_c, 4, 91, 0
1, 117, Control_c, 4, 93, 0
1, 117, Control_c, 4, 11, 104
1, 117, Pitch_bend_c, 6, 8192
1, 117, Control_c, 6, 91, 0
1, 117, Control_c, 6, 93, 0
1, 117, Control_c, 6, 11, 98
1, 117, Pitch_bend_c, 8, 8192
1, 117, Control_c, 8, 91, 0
1, 117, Control_c, 8, 93, 0
1, 117, Pitch_bend_c, 9, 8192
1, 117, Control_c, 9, 91, 0
1, 117, Control_c, 9, 93, 0
1, 117, Control_c, 4, 101, 0
1, 118, Control_c, 4, 100, 2
1, 119, Control_c, 4, 6, 76
1, 120, Control_c, 4, 38, 0
1, 120, Control_c, 7, 101, 0
1, 121, Control_c, 7, 100, 2
1, 122, Control_c, 7, 6, 64
1, 123, Control_c, 7, 38, 0
1, 123, Control_c, 10, 101, 0
1, 124, Control_c, 10, 100, 2
1, 125, Control_c, 10, 6, 88
1, 126, Control_c, 10, 38, 0
1, 126, Control_c, 11, 101, 0
1, 127, Control_c, 11, 100, 2
1, 128, Control_c, 11, 6, 64
1, 129, Control_c, 11, 38, 0
1, 129, Control_c, 12, 101, 0
1, 130, Control_c, 12, 100, 2
1, 131, Control_c, 12, 6, 64
1, 132, Control_c, 12, 38, 0
1, 132, Control_c, 13, 101, 0
1, 133, Control_c, 13, 100, 2
1, 134, Control_c, 13, 6, 64
1, 135, Control_c, 13, 38, 0
1, 135, Control_c, 7, 126, 0
1, 135, Control_c, 7, 127, 0
1, 135, Control_c, 10, 126, 0
1, 135, Control_c, 10, 127, 0
1, 135, Control_c, 11, 126, 0
1, 135, Control_c, 11, 127, 0
1, 135, Control_c, 12, 126, 0
1, 135, Control_c, 12, 127, 0
1, 135, Control_c, 13, 126, 0
1, 135, Control_c, 13, 127, 0
1, 135, Control_c, 4, 101, 0
1, 136, Control_c, 4, 100, 0
1, 137, Control_c, 4, 6, 12
1, 138, Control_c, 4, 38, 0
1, 138, Control_c, 7, 101, 0
1, 139, Control_c, 7, 100, 0
1, 140, Control_c, 7, 6, 12
1, 141, Control_c, 7, 38, 0
1, 141, Control_c, 10, 101, 0
1, 142, Control_c, 10, 100, 0
1, 143, Control_c, 10, 6, 12
1, 144, Control_c, 10, 38, 0
1, 144, Control_c, 11, 101, 0
1, 145, Control_c, 11, 100, 0
1, 146, Control_c, 11, 6, 12
1, 147, Control_c, 11, 38, 0
1, 147, Control_c, 12, 101, 0
1, 148, Control_c, 12, 100, 0
1, 149, Control_c, 12, 6, 12
1, 150, Control_c, 12, 38, 0
1, 150, Control_c, 13, 101, 0
1, 151, Control_c, 13, 100, 0
1, 152, Control_c, 13, 6, 12
1, 153, Control_c, 13, 38, 0
1, 153, Pitch_bend_c, 4, 8192
1, 153, Control_c, 4, 91, 0
1, 153, Control_c, 4, 93, 0
1, 153, Control_c, 4, 11, 104
1, 153, Pitch_bend_c, 7, 8192
1, 153, Control_c, 7, 0, 1
1, 153, Control_c, 7, 1, 0
1, 153, Control_c, 7, 0, 0
1, 153, Control_c, 7, 32, 0
1, 153, Control_c, 7, 11, 97
1, 153, Pitch_bend_c, 10, 8192
1, 153, Control_c, 10, 0, 0
1, 153, Control_c, 10, 1, 0
1, 153, Control_c, 10, 11, 127
1, 153, Pitch_bend_c, 11, 8192
1, 153, Control_c, 11, 1, 0
1, 153, Control_c, 11, 0, 0
1, 153, Control_c, 11, 32, 0
1, 153, Control_c, 11, 11, 127
1, 153, Pitch_bend_c, 12, 8192
1, 153, Control_c, 12, 1, 0
1, 153, Control_c, 12, 11, 127
1, 153, Pitch_bend_c, 13, 8192
1, 153, Control_c, 13, 1, 0
1, 153, Control_c, 13, 11, 67
1, 153, Control_c, 4, 101, 0
1, 154, Control_c, 4, 100, 2
1, 155, Control_c, 4, 6, 76
1, 156, Control_c, 4, 38, 0
1, 156, Control_c, 7, 101, 0
1, 157, Control_c, 7, 100, 0
1, 158, Control_c, 7, 6, 127
1, 159, Control_c, 7, 38, 0
1, 159, Control_c, 10, 101, 0
1, 160, Control_c, 10, 100, 0
1, 161, Control_c, 10, 6, 12
1, 162, Control_c, 10, 38, 0
1, 162, Control_c, 11, 101, 0
1, 163, Control_c, 11, 100, 0
1, 164, Control_c, 11, 6, 12
1, 165, Control_c, 11, 38, 0
1, 165, Control_c, 12, 101, 0
1, 166, Control_c, 12, 100, 0
1, 167, Control_c, 12, 6, 12
1, 168, Control_c, 12, 38, 0
1, 168, Control_c, 13, 101, 0
1, 169, Control_c, 13, 100, 0
1, 170, Control_c, 13, 6, 64
1, 171, Control_c, 13, 38, 0
1, 171, Control_c, 7, 101, 0
1, 172, Control_c, 7, 100, 1
1, 173, Control_c, 7, 6, 64
1, 174, Control_c, 7, 38, 0
1, 174, Control_c, 10, 101, 0
1, 175, Control_c, 10, 100, 1
1, 176, Control_c, 10, 6, 64
1, 177, Control_c, 10, 38, 0
1, 177, Control_c, 11, 101, 0
1, 178, Control_c, 11, 100, 1
1, 179, Control_c, 11, 6, 64
1, 180, Control_c, 11, 38, 0
1, 180, Control_c, 12, 101, 0
1, 181, Control_c, 12, 100, 1
1, 182, Control_c, 12, 6, 64
1, 183, Control_c, 12, 38, 0
1, 183, Control_c, 13, 101, 0
1, 184, Control_c, 13, 100, 1
1, 185, Control_c, 13, 6, 64
1, 186, Control_c, 13, 38, 0
1, 186, Control_c, 7, 101, 0
1, 187, Control_c, 7, 100, 2
1, 188, Control_c, 7, 6, 64
1, 189, Control_c, 7, 38, 0
1, 189, Control_c, 10, 101, 0
1, 190, Control_c, 10, 100, 2
1, 191, Control_c, 10, 6, 88
1, 192, Control_c, 10, 38, 0
1, 192, Control_c, 11, 101, 0
1, 193, Control_c, 11, 100, 2
1, 194, Control_c, 11, 6, 64
1, 195, Control_c, 11, 38, 0
1, 195, Control_c, 12, 101, 0
1, 196, Control_c, 12, 100, 2
1, 197, Control_c, 12, 6, 64
1, 198, Control_c, 12, 38, 0
1, 198, Control_c, 13, 101, 0
1, 199, Control_c, 13, 100, 2
1, 200, Control_c, 13, 6, 64
1, 201, Control_c, 13, 38, 0
1, 201, Control_c, 7, 126, 0
1, 201, Control_c, 7, 127, 0
1, 201, Control_c, 10, 126, 0
1, 201, Control_c, 10, 127, 0
1, 201, Control_c, 11, 126, 0
1, 201, Control_c, 11, 127, 0
1, 201, Control_c, 12, 126, 0
1, 201, Control_c, 12, 127, 0
1, 201, Control_c, 13, 126, 0
1, 201, Control_c, 13, 127, 0
1, 201, Control_c, 7, 101, 0
1, 202, Control_c, 7, 100, 0
1, 203, Control_c, 7, 6, 12
1, 204, Control_c, 7, 38, 0
1, 204, Control_c, 10, 101, 0
1, 205, Control_c, 10, 100, 0
1, 206, Control_c, 10, 6, 12
1, 207, Control_c, 10, 38, 0
1, 207, Control_c, 11, 101, 0
1, 208, Control_c, 11, 100, 0
1, 209, Control_c, 11, 6, 12
1, 210, Control_c, 11, 38, 0
1, 210, Control_c, 12, 101, 0
1, 211, Control_c, 12, 100, 0
1, 212, Control_c, 12, 6, 12
1, 213, Control_c, 12, 38, 0
1, 213, Control_c, 13, 101, 0
1, 214, Control_c, 13, 100, 0
1, 215, Control_c, 13, 6, 12
1, 216, Control_c, 13, 38, 0
1, 216, Pitch_bend_c, 7, 8192
1, 216, Control_c, 7, 1, 0
1, 216, Control_c, 7, 32, 0
1, 216, Control_c, 7, 11, 97
1, 216, Pitch_bend_c, 10, 8192
1, 216, Control_c, 10, 1, 0
1, 216, Control_c, 10, 32, 0
1, 216, Control_c, 10, 11, 127
1, 216, Pitch_bend_c, 11, 8192
1, 216, Control_c, 11, 1, 0
1, 216, Control_c, 11, 0, 0
1, 216, Control_c, 11, 32, 0
1, 216, Control_c, 11, 11, 127
1, 216, Pitch_bend_c, 12, 8192
1, 216, Control_c, 12, 1, 0
1, 216, Control_c, 12, 11, 127
1, 216, Pitch_bend_c, 13, 8192
1, 216, Control_c, 13, 1, 0
1, 216, Control_c, 13, 11, 67
1, 216, Control_c, 7, 101, 0
1, 217, Control_c, 7, 100, 0
1, 218, Control_c, 7, 6, 127
1, 219, Control_c, 7, 38, 0
1, 219, Control_c, 10, 101, 0
1, 220, Control_c, 10, 100, 0
1, 221, Control_c, 10, 6, 12
1, 222, Control_c, 10, 38, 0
1, 222, Control_c, 11, 101, 0
1, 223, Control_c, 11, 100, 0
1, 224, Control_c, 11, 6, 12
1, 225, Control_c, 11, 38, 0
1, 225, Control_c, 12, 101, 0
1, 226, Control_c, 12, 100, 0
1, 227, Control_c, 12, 6, 12
1, 228, Control_c, 12, 38, 0
1, 228, Control_c, 13, 101, 0
1, 229, Control_c, 13, 100, 0
1, 230, Control_c, 13, 6, 64
1, 231, Control_c, 13, 38, 0
1, 231, Control_c, 7, 101, 0
1, 232, Control_c, 7, 100, 1
1, 233, Control_c, 7, 6, 64
1, 234, Control_c, 7, 38, 0
1, 234, Control_c, 10, 101, 0
1, 235, Control_c, 10, 100, 1
1, 236, Control_c, 10, 6, 64
1, 237, Control_c, 10, 38, 0
1, 237, Control_c, 11, 101, 0
1, 238, Control_c, 11, 100, 1
1, 239, Control_c, 11, 6, 64
1, 240, Control_c, 11, 38, 0
1, 240, Control_c, 12, 101, 0
1, 241, Control_c, 12, 100, 1
1, 242, Control_c, 12, 6, 64
1, 243, Control_c, 12, 38, 0
1, 243, Control_c, 13, 101, 0
1, 244, Control_c, 13, 100, 1
1, 245, Control_c, 13, 6, 64
1, 246, Control_c, 13, 38, 0
1, 246, Control_c, 7, 101, 0
1, 247, Control_c, 7, 100, 2
1, 248, Control_c, 7, 6, 64
1, 249, Control_c, 7, 38, 0
1, 249, Control_c, 10, 101, 0
1, 250, Control_c, 10, 100, 2
1, 251, Control_c, 10, 6, 88
1, 252, Control_c, 10, 38, 0
1, 252, Control_c, 11, 101, 0
1, 253, Control_c, 11, 100, 2
1, 254, Control_c, 11, 6, 64
1, 255, Control_c, 11, 38, 0
1, 255, Control_c, 12, 101, 0
1, 256, Control_c, 12, 100, 2
1, 257, Control_c, 12, 6, 64
1, 258, Control_c, 12, 38, 0
1, 258, Control_c, 13, 101, 0
1, 259, Control_c, 13, 100, 2
1, 260, Control_c, 13, 6, 64
1, 261, Control_c, 13, 38, 0
1, 261, Control_c, 7, 126, 0
1, 261, Control_c, 7, 127, 0
1, 261, Control_c, 10, 126, 0
1, 261, Control_c, 10, 127, 0
1, 261, Control_c, 11, 126, 0
1, 261, Control_c, 11, 127, 0
1, 261, Control_c, 12, 126, 0
1, 261, Control_c, 12, 127, 0
1, 261, Control_c, 13, 126, 0
1, 261, Control_c, 13, 127, 0
1, 480, Control_c, 0, 0, 8
1, 481, Control_c, 0, 32, 0
1, 482, Program_c, 0, 80
1, 482, Control_c, 0, 0, 8
1, 482, Control_c, 0, 32, 0
1, 482, Program_c, 0, 80
1, 482, Control_c, 0, 0, 8
1, 482, Control_c, 0, 32, 0
1, 482, Program_c, 0, 80
1, 483, Control_c, 0, 7, 127
1, 483, Control_c, 0, 10, 64
1, 483, Control_c, 0, 7, 120
1, 483, Control_c, 0, 7, 127
1, 483, Control_c, 0, 10, 64
1, 483, Control_c, 0, 7, 127
1, 483, Control_c, 0, 10, 64
1, 483, Control_c, 0, 7, 127
1, 483, Control_c, 0, 10, 64
1, 485, Control_c, 1, 0, 1
1, 486, Control_c, 1, 32, 0
1, 487, Program_c, 1, 80
1, 487, Control_c, 1, 0, 1
1, 487, Control_c, 1, 32, 0
1, 487, Program_c, 1, 80
1, 487, Control_c, 1, 0, 1
1, 487, Control_c, 1, 32, 0
1, 487, Program_c, 1, 80
1, 488, Control_c, 1, 7, 54
1, 488, Control_c, 1, 10, 64
1, 488, Control_c, 1, 7, 120
1, 488, Control_c, 1, 7, 106
1, 488, Control_c, 1, 10, 64
1, 488, Control_c, 1, 7, 106
1, 488, Control_c, 1, 10, 64
1, 488, Control_c, 1, 7, 106
1, 488, Control_c, 1, 10, 64
1, 490, Control_c, 2, 0, 1
1, 491, Control_c, 2, 32, 0
1, 492, Program_c, 2, 81
1, 492, Control_c, 2, 0, 1
1, 492, Control_c, 2, 32, 0
1, 492, Program_c, 2, 81
1, 492, Control_c, 2, 0, 1
1, 492, Control_c, 2, 32, 0
1, 492, Program_c, 2, 81
1, 493, Control_c, 2, 7, 0
1, 493, Control_c, 2, 10, 64
1, 493, Control_c, 2, 7, 120
1, 493, Control_c, 2, 7, 52
1, 493, Control_c, 2, 10, 64
1, 493, Control_c, 2, 7, 52
1, 493, Control_c, 2, 10, 64
1, 493, Control_c, 2, 7, 52
1, 493, Control_c, 2, 10, 64
1, 495, Control_c, 3, 0, 0
1, 496, Control_c, 3, 32, 0
1, 497, Program_c, 3, 62
1, 497, Control_c, 3, 0, 0
1, 497, Control_c, 3, 32, 0
1, 497, Program_c, 3, 62
1, 497, Control_c, 3, 0, 0
1, 497, Control_c, 3, 32, 0
1, 497, Program_c, 3, 62
1, 498, Control_c, 3, 7, 0
1, 498, Control_c, 3, 10, 64
1, 498, Control_c, 3, 7, 127
1, 498, Control_c, 3, 7, 54
1, 498, Control_c, 3, 10, 64
1, 498, Control_c, 3, 7, 54
1, 498, Control_c, 3, 10, 64
1, 498, Control_c, 3, 7, 54
1, 498, Control_c, 3, 10, 64
1, 500, Control_c, 4, 0, 0
1, 501, Control_c, 4, 32, 0
1, 502, Program_c, 4, 18
1, 502, Control_c, 4, 0, 0
1, 502, Control_c, 4, 32, 0
1, 502, Program_c, 4, 18
1, 502, Control_c, 4, 0, 0
1, 502, Control_c, 4, 32, 0
1, 502, Program_c, 4, 18
1, 503, Control_c, 4, 7, 105
1, 503, Control_c, 4, 10, 64
1, 503, Control_c, 4, 7, 105
1, 503, Control_c, 4, 10, 64
1, 503, Control_c, 4, 7, 105
1, 503, Control_c, 4, 10, 64
1, 503, Control_c, 4, 7, 105
1, 503, Control_c, 4, 10, 64
1, 510, Control_c, 6, 0, 0
1, 511, Control_c, 6, 32, 0
1, 512, Program_c, 6, 48
1, 512, Control_c, 6, 0, 0
1, 512, Control_c, 6, 32, 0
1, 512, Program_c, 6, 48
1, 512, Control_c, 6, 0, 0
1, 512, Control_c, 6, 32, 0
1, 512, Program_c, 6, 48
1, 513, Control_c, 6, 7, 127
1, 513, Control_c, 6, 10, 64
1, 513, Control_c, 6, 7, 127
1, 513, Control_c, 6, 7, 127
1, 513, Control_c, 6, 10, 64
1, 513, Control_c, 6, 7, 127
1, 513, Control_c, 6, 10, 64
1, 513, Control_c, 6, 7, 127
1, 513, Control_c, 6, 10, 64
1, 515, Control_c, 7, 0, 1
1, 516, Control_c, 7, 32, 0
1, 517, Program_c, 7, 80
1, 517, Control_c, 7, 0, 1
1, 517, Control_c, 7, 32, 0
1, 517, Program_c, 7, 80
1, 517, Control_c, 7, 0, 0
1, 517, Control_c, 7, 32, 0
1, 517, Program_c, 7, 80
1, 518, Control_c, 7, 7, 108
1, 518, Control_c, 7, 10, 64
1, 518, Control_c, 7, 7, 108
1, 518, Control_c, 7, 10, 64
1, 518, Control_c, 7, 7, 108
1, 518, Control_c, 7, 10, 64
1, 518, Control_c, 7, 7, 108
1, 518, Control_c, 7, 10, 64
1, 522, Program_c, 8, 117
1, 522, Program_c, 8, 117
1, 522, Program_c, 8, 117
1, 523, Control_c, 8, 7, 127
1, 523, Control_c, 8, 10, 64
1, 523, Control_c, 8, 7, 127
1, 523, Control_c, 8, 10, 64
1, 523, Control_c, 8, 7, 127
1, 523, Control_c, 8, 10, 64
1, 523, Control_c, 8, 7, 127
1, 523, Control_c, 8, 10, 64
1, 525, Control_c, 9, 0, 0
1, 526, Control_c, 9, 32, 0
1, 527, Program_c, 9, 8
1, 528, Control_c, 9, 7, 127
1, 528, Control_c, 9, 10, 64
1, 528, Control_c, 9, 7, 127
1, 528, Control_c, 9, 10, 64
1, 528, Control_c, 9, 7, 127
1, 528, Control_c, 9, 10, 64
1, 528, Control_c, 9, 7, 127
1, 528, Control_c, 9, 10, 64
1, 530, Control_c, 10, 0, 0
1, 531, Control_c, 10, 32, 0
1, 532, Program_c, 10, 30
1, 532, Program_c, 10, 30
1, 532, Control_c, 10, 0, 0
1, 532, Control_c, 10, 32, 0
1, 532, Program_c, 10, 30
1, 533, Control_c, 10, 7, 77
1, 533, Control_c, 10, 10, 64
1, 533, Control_c, 10, 7, 77
1, 533, Control_c, 10, 10, 64
1, 533, Control_c, 10, 7, 77
1, 533, Control_c, 10, 10, 64
1, 533, Control_c, 10, 7, 77
1, 533, Control_c, 10, 10, 64
1, 538, Control_c, 11, 7, 127
1, 538, Control_c, 11, 10, 64
1, 538, Control_c, 11, 7, 127
1, 538, Control_c, 11, 10, 64
1, 538, Control_c, 11, 7, 127
1, 538, Control_c, 11, 10, 64
1, 538, Control_c, 11, 7, 127
1, 538, Control_c, 11, 10, 64
1, 540, Control_c, 12, 0, 0
1, 541, Control_c, 12, 32, 0
1, 542, Program_c, 12, 119
1, 542, Program_c, 12, 119
1, 542, Program_c, 12, 119
1, 543, Control_c, 12, 7, 127
1, 543, Control_c, 12, 10, 64
1, 543, Control_c, 12, 7, 127
1, 543, Control_c, 12, 10, 64
1, 543, Control_c, 12, 7, 127
1, 543, Control_c, 12, 10, 64
1, 543, Control_c, 12, 7, 127
1, 543, Control_c, 12, 10, 64
1, 545, Control_c, 13, 0, 0
1, 546, Control_c, 13, 32, 0
1, 547, Program_c, 13, 126
1, 547, Program_c, 13, 126
1, 547, Program_c, 13, 126
1, 548, Control_c, 13, 7, 0
1, 548, Control_c, 13, 10, 64
1, 548, Control_c, 13, 10, 64
1, 548, Control_c, 13, 10, 64
1, 548, Control_c, 13, 10, 64
1, 5760, Control_c, 13, 7, 0
1, 5760, Pitch_bend_c, 13, 8192
1, 9600, Note_on_c, 0, 35, 95
1, 9600, Control_c, 0, 7, 127
1, 9600, Note_on_c, 1, 23, 95
1, 9600, Control_c, 1, 7, 54
1, 9600, Note_on_c, 2, 71, 64
1, 9600, Note_on_c, 2, 59, 127
1, 9600, Note_on_c, 2, 47, 95
1, 9600, Control_c, 2, 7, 5
1, 9600, Note_on_c, 3, 35, 64
1, 9600, Control_c, 3, 7, 6
1, 9600, Note_on_c, 9, 35, 103
1, 9720, Note_on_c, 9, 35, 0
1, 9960, Note_on_c, 2, 47, 0
1, 9960, Note_on_c, 1, 23, 0
1, 9960, Note_on_c, 2, 71, 0
1, 9960, Note_on_c, 0, 35, 0
1, 9960, Note_on_c, 3, 35, 0
1, 9960, Note_on_c, 2, 59, 0
1, 9960, Pitch_bend_c, 0, 0
1, 9960, Note_on_c, 0, 47, 95
1, 9960, Pitch_bend_c, 1, 0
1, 9960, Note_on_c, 1, 35, 95
1, 9960, Pitch_bend_c, 2, 0
1, 9960, Note_on_c, 2, 83, 64
1, 9960, Note_on_c, 2, 71, 127
1, 9960, Note_on_c, 2, 59, 95
1, 9960, Pitch_bend_c, 3, 0
1, 9960, Note_on_c, 3, 47, 64
1, 9975, Pitch_bend_c, 0, 8192
1, 9975, Pitch_bend_c, 1, 8192
1, 9975, Pitch_bend_c, 2, 8192
1, 9975, Pitch_bend_c, 3, 8192
1, 10080, Note_on_c, 3, 47, 0
1, 10080, Note_on_c, 1, 35, 0
1, 10080, Note_on_c, 2, 83, 0
1, 10080, Note_on_c, 0, 47, 0
1, 10080, Note_on_c, 2, 59, 0
1, 10080, Note_on_c, 2, 71, 0
1, 10080, Note_on_c, 9, 35, 102
1, 10110, Control_c, 1, 7, 59
1, 10200, Note_on_c, 9, 35, 0
1, 10235, Control_c, 2, 7, 11
1, 10270, Control_c, 3, 7, 12
1, 10320, Note_on_c, 0, 47, 95
1, 10320, Note_on_c, 1, 35, 95
1, 10320, Note_on_c, 2, 83, 64
1, 10320, Note_on_c, 2, 71, 127
1, 10320, Note_on_c, 2, 59, 95
1, 10320, Note_on_c, 3, 47, 64
1, 10560, Note_on_c, 3, 47, 0
1, 10560, Note_on_c, 1, 35, 0
1, 10560, Note_on_c, 2, 83, 0
1, 10560, Note_on_c, 0, 47, 0
1, 10560, Note_on_c, 2, 59, 0
1, 10560, Note_on_c, 2, 71, 0
1, 10560, Note_on_c, 9, 35, 102
1, 10620, Control_c, 1, 7, 64
1, 10680, Note_on_c, 9, 35, 0
1, 10680, Note_on_c, 0, 43, 95
1, 10680, Note_on_c, 1, 31, 95
1, 10680, Note_on_c, 2, 79, 64
1, 10680, Note_on_c, 2, 67, 127
1, 10680, Note_on_c, 2, 55, 95
1, 10680, Note_on_c, 3, 43, 64
1, 10800, Note_on_c, 3, 43, 0
1, 10800, Note_on_c, 1, 31, 0
1, 10800, Note_on_c, 2, 79, 0
1, 10800, Note_on_c, 0, 43, 0
1, 10800, Note_on_c, 2, 55, 0
1, 10800, Note_on_c, 2, 67, 0
1, 10800, Pitch_bend_c, 0, 5100
1, 10800, Note_on_c, 0, 47, 95
1, 10800, Pitch_bend_c, 1, 5100
1, 10800, Note_on_c, 1, 35, 95
1, 10800, Pitch_bend_c, 2, 5100
1, 10800, Note_on_c, 2, 83, 64
1, 10800, Note_on_c, 2, 71, 127
1, 10800, Note_on_c, 2, 59, 95
1, 10800, Pitch_bend_c, 3, 5100
1, 10800, Note_on_c, 3, 47, 64
1, 10815, Pitch_bend_c, 0, 6697
1, 10815, Pitch_bend_c, 1, 6697
1, 10815, Pitch_bend_c, 2, 6697
1, 10815, Pitch_bend_c, 3, 6697
1, 10875, Control_c, 2, 7, 17
1, 10880, Pitch_bend_c, 0, 6841
1, 10880, Pitch_bend_c, 1, 6841
1, 10880, Pitch_bend_c, 2, 6841
1, 10880, Pitch_bend_c, 3, 6841
1, 10910, Pitch_bend_c, 0, 6984
1, 10910, Pitch_bend_c, 1, 6984
1, 10910, Pitch_bend_c, 2, 6984
1, 10910, Pitch_bend_c, 3, 6984
1, 10925, Pitch_bend_c, 0, 7175
1, 10925, Pitch_bend_c, 1, 7175
1, 10925, Pitch_bend_c, 2, 7175
1, 10925, Pitch_bend_c, 3, 7175
1, 10940, Pitch_bend_c, 0, 7319
1, 10940, Pitch_bend_c, 1, 7319
1, 10940, Pitch_bend_c, 2, 7319
1, 10940, Pitch_bend_c, 3, 7319
1, 10940, Control_c, 3, 7, 18
1, 10960, Pitch_bend_c, 0, 7612
1, 10960, Pitch_bend_c, 1, 7612
1, 10960, Pitch_bend_c, 2, 7612
1, 10960, Pitch_bend_c, 3, 7612
1, 10975, Pitch_bend_c, 0, 7756
1, 10975, Pitch_bend_c, 1, 7756
1, 10975, Pitch_bend_c, 2, 7756
1, 10975, Pitch_bend_c, 3, 7756
1, 10990, Pitch_bend_c, 0, 7899
1, 10990, Pitch_bend_c, 1, 7899
1, 10990, Pitch_bend_c, 2, 7899
1, 10990, Pitch_bend_c, 3, 7899
1, 11005, Pitch_bend_c, 0, 8049
1, 11005, Pitch_bend_c, 1, 8049
1, 11005, Pitch_bend_c, 2, 8049
1, 11005, Pitch_bend_c, 3, 8049
1, 11020, Pitch_bend_c, 0, 8192
1, 11020, Pitch_bend_c, 1, 8192
1, 11020, Pitch_bend_c, 2, 8192
1, 11020, Pitch_bend_c, 3, 8192
1, 11040, Note_on_c, 3, 47, 0
1, 11040, Note_on_c, 1, 35, 0
1, 11040, Note_on_c, 2, 83, 0
1, 11040, Note_on_c, 0, 47, 0
1, 11040, Note_on_c, 2, 59, 0
1, 11040, Note_on_c, 2, 71, 0
1, 11040, Note_on_c, 0, 47, 95
1, 11040, Note_on_c, 1, 35, 95
1, 11040, Note_on_c, 2, 83, 64
1, 11040, Note_on_c, 2, 71, 127
1, 11040, Note_on_c, 2, 59, 95
1, 11040, Note_on_c, 3, 47, 64
1, 11040, Note_on_c, 9, 35, 103
1, 11135, Control_c, 1, 7, 70
1, 11160, Note_on_c, 9, 35, 0
1, 11280, Note_on_c, 2, 59, 0
1, 11280, Note_on_c, 1, 35, 0
1, 11280, Note_on_c, 2, 83, 0
1, 11280, Note_on_c, 0, 47, 0
1, 11280, Note_on_c, 3, 47, 0
1, 11280, Note_on_c, 2, 71, 0
1, 11280, Note_on_c, 0, 47, 95
1, 11280, Note_on_c, 1, 35, 95
1, 11280, Note_on_c, 2, 83, 64
1, 11280, Note_on_c, 2, 71, 127
1, 11280, Note_on_c, 2, 59, 95
1, 11280, Note_on_c, 3, 47, 64
1, 11310, Pitch_bend_c, 0, 8335
1, 11310, Pitch_bend_c, 1, 8335
1, 11310, Pitch_bend_c, 2, 8335
1, 11310, Pitch_bend_c, 3, 8335
1, 11360, Pitch_bend_c, 0, 8485
1, 11360, Pitch_bend_c, 1, 8485
1, 11360, Pitch_bend_c, 2, 8485
1, 11360, Pitch_bend_c, 3, 8485
1, 11375, Pitch_bend_c, 0, 8628
1, 11375, Pitch_bend_c, 1, 8628
1, 11375, Pitch_bend_c, 2, 8628
1, 11375, Pitch_bend_c, 3, 8628
1, 11390, Pitch_bend_c, 0, 8772
1, 11390, Pitch_bend_c, 1, 8772
1, 11390, Pitch_bend_c, 2, 8772
1, 11390, Pitch_bend_c, 3, 8772
1, 11405, Pitch_bend_c, 0, 9065
1, 11405, Pitch_bend_c, 1, 9065
1, 11405, Pitch_bend_c, 2, 9065
1, 11405, Pitch_bend_c, 3, 9065
1, 11420, Pitch_bend_c, 0, 9400
1, 11420, Pitch_bend_c, 1, 9400
1, 11420, Pitch_bend_c, 2, 9400
1, 11420, Pitch_bend_c, 3, 9400
1, 11440, Pitch_bend_c, 0, 9543
1, 11440, Pitch_bend_c, 1, 9543
1, 11440, Pitch_bend_c, 2, 9543
1, 11440, Pitch_bend_c, 3, 9543
1, 11455, Pitch_bend_c, 0, 9830
1, 11455, Pitch_bend_c, 1, 9830
1, 11455, Pitch_bend_c, 2, 9830
1, 11455, Pitch_bend_c, 3, 9830
1, 11470, Pitch_bend_c, 0, 10110
1, 11470, Pitch_bend_c, 1, 10110
1, 11470, Pitch_bend_c, 2, 10110
1, 11470, Pitch_bend_c, 3, 10110
1, 11485, Pitch_bend_c, 0, 10253
1, 11485, Pitch_bend_c, 1, 10253
1, 11485, Pitch_bend_c, 2, 10253
1, 11485, Pitch_bend_c, 3, 10253
1, 11500, Pitch_bend_c, 0, 10397
1, 11500, Pitch_bend_c, 1, 10397
1, 11500, Pitch_bend_c, 2, 10397
1, 11500, Pitch_bend_c, 3, 10397
1, 11515, Control_c, 2, 7, 23
1, 11520, Note_on_c, 3, 47, 0
1, 11520, Note_on_c, 1, 35, 0
1, 11520, Note_on_c, 2, 83, 0
1, 11520, Note_on_c, 0, 47, 0
1, 11520, Note_on_c, 2, 59, 0
1, 11520, Note_on_c, 2, 71, 0
1, 11520, Pitch_bend_c, 0, 12165
1, 11520, Note_on_c, 0, 35, 95
1, 11520, Pitch_bend_c, 1, 12165
1, 11520, Note_on_c, 1, 23, 95
1, 11520, Pitch_bend_c, 2, 12165
1, 11520, Note_on_c, 2, 71, 64
1, 11520, Note_on_c, 2, 59, 127
1, 11520, Note_on_c, 2, 47, 95
1, 11520, Pitch_bend_c, 3, 12165
1, 11520, Note_on_c, 3, 35, 64
1, 11520, Note_on_c, 9, 35, 103
1, 11530, Pitch_bend_c, 4, 8192
1, 11530, Pitch_bend_c, 6, 8192
1, 11535, Pitch_bend_c, 0, 8192
1, 11535, Pitch_bend_c, 1, 8192
1, 11535, Pitch_bend_c, 2, 8192
1, 11535, Pitch_bend_c, 3, 8192
1, 11615, Control_c, 3, 7, 24
1, 11640, Note_on_c, 9, 35, 0
1, 11645, Control_c, 1, 7, 75
1, 11880, Note_on_c, 2, 47, 0
1, 11880, Note_on_c, 1, 23, 0
1, 11880, Note_on_c, 2, 71, 0
1, 11880, Note_on_c, 0, 35, 0
1, 11880, Note_on_c, 3, 35, 0
1, 11880, Note_on_c, 2, 59, 0
1, 11880, Pitch_bend_c, 0, 0
1, 11880, Note_on_c, 0, 47, 95
1, 11880, Pitch_bend_c, 1, 0
1, 11880, Note_on_c, 1, 35, 95
1, 11880, Pitch_bend_c, 2, 0
1, 11880, Note_on_c, 2, 83, 64
1, 11880, Note_on_c, 2, 71, 127
1, 11880, Note_on_c, 2, 59, 95
1, 11880, Pitch_bend_c, 3, 0
1, 11880, Note_on_c, 3, 47, 64
1, 11895, Pitch_bend_c, 0, 8192
1, 11895, Pitch_bend_c, 1, 8192
1, 11895, Pitch_bend_c, 2, 8192
1, 11895, Pitch_bend_c, 3, 8192
1, 12000, Note_on_c, 3, 47, 0
1, 12000, Note_on_c, 1, 35, 0
1, 12000, Note_on_c, 2, 83, 0
1, 12000, Note_on_c, 0, 47, 0
1, 12000, Note_on_c, 2, 59, 0
1, 12000, Note_on_c, 2, 71, 0
1, 12000, Note_on_c, 9, 35, 103
1, 12120, Note_on_c, 9, 35, 0
1, 12155, Control_c, 1, 7, 80
1, 12155, Control_c, 2, 7, 29
1, 12240, Note_on_c, 0, 47, 95
1, 12240, Note_on_c, 1, 35, 95
1, 12240, Note_on_c, 2, 83, 64
1, 12240, Note_on_c, 2, 71, 127
1, 12240, Note_on_c, 2, 59, 95
1, 12240, Note_on_c, 3, 47, 64
1, 12285, Control_c, 3, 7, 30
1, 12480, Note_on_c, 3, 47, 0
1, 12480, Note_on_c, 1, 35, 0
1, 12480, Note_on_c, 2, 83, 0
1, 12480, Note_on_c, 0, 47, 0
1, 12480, Note_on_c, 2, 59, 0
1, 12480, Note_on_c, 2, 71, 0
1, 12480, Note_on_c, 0, 47, 95
1, 12480, Note_on_c, 1, 35, 95
1, 12480, Note_on_c, 2, 83, 64
1, 12480, Note_on_c, 2, 71, 127
1, 12480, Note_on_c, 2, 59, 95
1, 12480, Note_on_c, 3, 47, 64
1, 12480, Note_on_c, 9, 35, 104
1, 12510, Pitch_bend_c, 0, 8049
1, 12510, Pitch_bend_c, 1, 8049
1, 12510, Pitch_bend_c, 2, 8049
1, 12510, Pitch_bend_c, 3, 8049
1, 12540, Pitch_bend_c, 0, 7899
1, 12540, Pitch_bend_c, 1, 7899
1, 12540, Pitch_bend_c, 2, 7899
1, 12540, Pitch_bend_c, 3, 7899
1, 12575, Pitch_bend_c, 0, 7756
1, 12575, Pitch_bend_c, 1, 7756
1, 12575, Pitch_bend_c, 2, 7756
1, 12575, Pitch_bend_c, 3, 7756
1, 12600, Note_on_c, 9, 35, 0
1, 12605, Pitch_bend_c, 0, 7612
1, 12605, Pitch_bend_c, 1, 7612
1, 12605, Pitch_bend_c, 2, 7612
1, 12605, Pitch_bend_c, 3, 7612
1, 12640, Pitch_bend_c, 0, 7469
1, 12640, Pitch_bend_c, 1, 7469
1, 12640, Pitch_bend_c, 2, 7469
1, 12640, Pitch_bend_c, 3, 7469
1, 12660, Note_on_c, 2, 59, 0
1, 12660, Note_on_c, 1, 35, 0
1, 12660, Note_on_c, 2, 83, 0
1, 12660, Note_on_c, 0, 47, 0
1, 12660, Note_on_c, 3, 47, 0
1, 12660, Note_on_c, 2, 71, 0
1, 12670, Control_c, 1, 7, 85
1, 12720, Note_on_c, 0, 47, 95
1, 12720, Note_on_c, 1, 35, 95
1, 12720, Note_on_c, 2, 83, 64
1, 12720, Note_on_c, 2, 71, 127
1, 12720, Note_on_c, 2, 59, 95
1, 12720, Note_on_c, 3, 47, 64
1, 12735, Pitch_bend_c, 0, 7319
1, 12735, Pitch_bend_c, 1, 7319
1, 12735, Pitch_bend_c, 2, 7319
1, 12735, Pitch_bend_c, 3, 7319
1, 12780, Pitch_bend_c, 0, 7175
1, 12780, Pitch_bend_c, 1, 7175
1, 12780, Pitch_bend_c, 2, 7175
1, 12780, Pitch_bend_c, 3, 7175
1, 12795, Control_c, 2, 7, 34
1, 12800, Pitch_bend_c, 0, 6984
1, 12800, Pitch_bend_c, 1, 6984
1, 12800, Pitch_bend_c, 2, 6984
1, 12800, Pitch_bend_c, 3, 6984
1, 12830, Pitch_bend_c, 0, 6841
1, 12830, Pitch_bend_c, 1, 6841
1, 12830, Pitch_bend_c, 2, 6841
1, 12830, Pitch_bend_c, 3, 6841
1, 12860, Pitch_bend_c, 0, 6697
1, 12860, Pitch_bend_c, 1, 6697
1, 12860, Pitch_bend_c, 2, 6697
1, 12860, Pitch_bend_c, 3, 6697
1, 12940, Pitch_bend_c, 0, 6554
1, 12940, Pitch_bend_c, 1, 6554
1, 12940, Pitch_bend_c, 2, 6554
1, 12940, Pitch_bend_c, 3, 6554
1, 12955, Control_c, 3, 7, 36
1, 12960, Note_on_c, 3, 47, 0
1, 12960, Note_on_c, 1, 35, 0
1, 12960, Note_on_c, 2, 83, 0
1, 12960, Note_on_c, 0, 47, 0
1, 12960, Note_on_c, 2, 59, 0
1, 12960, Note_on_c, 2, 71, 0
1, 12960, Note_on_c, 0, 47, 95
1, 12960, Note_on_c, 1, 35, 95
1, 12960, Note_on_c, 2, 83, 64
1, 12960, Note_on_c, 2, 71, 127
1, 12960, Note_on_c, 2, 59, 95
1, 12960, Note_on_c, 3, 47, 64
1, 12960, Note_on_c, 9, 35, 104
1, 12990, Pitch_bend_c, 0, 6418
1, 12990, Pitch_bend_c, 1, 6418
1, 12990, Pitch_bend_c, 2, 6418
1, 12990, Pitch_bend_c, 3, 6418
1, 13005, Pitch_bend_c, 0, 6274
1, 13005, Pitch_bend_c, 1, 6274
1, 13005, Pitch_bend_c, 2, 6274
1, 13005, Pitch_bend_c, 3, 6274
1, 13020, Pitch_bend_c, 0, 6131
1, 13020, Pitch_bend_c, 1, 6131
1, 13020, Pitch_bend_c, 2, 6131
1, 13020, Pitch_bend_c, 3, 6131
1, 13040, Pitch_bend_c, 0, 5987
1, 13040, Pitch_bend_c, 1, 5987
1, 13040, Pitch_bend_c, 2, 5987
1, 13040, Pitch_bend_c, 3, 5987
1, 13055, Pitch_bend_c, 0, 5803
1, 13055, Pitch_bend_c, 1, 5803
1, 13055, Pitch_bend_c, 2, 5803
1, 13055, Pitch_bend_c, 3, 5803
1, 13070, Pitch_bend_c, 0, 5660
1, 13070, Pitch_bend_c, 1, 5660
1, 13070, Pitch_bend_c, 2, 5660
1, 13070, Pitch_bend_c, 3, 5660
1, 13080, Note_on_c, 9, 35, 0
1, 13085, Pitch_bend_c, 0, 5516
1, 13085, Pitch_bend_c, 1, 5516
1, 13085, Pitch_bend_c, 2, 5516
1, 13085, Pitch_bend_c, 3, 5516
1, 13100, Pitch_bend_c, 0, 5380
1, 13100, Pitch_bend_c, 1, 5380
1, 13100, Pitch_bend_c, 2, 5380
1, 13100, Pitch_bend_c, 3, 5380
1, 13120, Pitch_bend_c, 0, 5237
1, 13120, Pitch_bend_c, 1, 5237
1, 13120, Pitch_bend_c, 2, 5237
1, 13120, Pitch_bend_c, 3, 5237
1, 13150, Pitch_bend_c, 0, 5100
1, 13150, Pitch_bend_c, 1, 5100
1, 13150, Pitch_bend_c, 2, 5100
1, 13150, Pitch_bend_c, 3, 5100
1, 13180, Control_c, 1, 7, 91
1, 13200, Note_on_c, 2, 59, 0
1, 13200, Note_on_c, 1, 35, 0
1, 13200, Note_on_c, 2, 83, 0
1, 13200, Note_on_c, 0, 47, 0
1, 13200, Note_on_c, 3, 47, 0
1, 13200, Note_on_c, 2, 71, 0
1, 13200, Note_on_c, 0, 47, 95
1, 13200, Note_on_c, 1, 35, 95
1, 13200, Note_on_c, 2, 83, 64
1, 13200, Note_on_c, 2, 71, 127
1, 13200, Note_on_c, 2, 59, 95
1, 13200, Note_on_c, 3, 47, 64
1, 13215, Pitch_bend_c, 0, 4963
1, 13215, Pitch_bend_c, 1, 4963
1, 13215, Pitch_bend_c, 2, 4963
1, 13215, Pitch_bend_c, 3, 4963
1, 13230, Pitch_bend_c, 0, 4636
1, 13230, Pitch_bend_c, 1, 4636
1, 13230, Pitch_bend_c, 2, 4636
1, 13230, Pitch_bend_c, 3, 4636
1, 13245, Pitch_bend_c, 0, 4499
1, 13245, Pitch_bend_c, 1, 4499
1, 13245, Pitch_bend_c, 2, 4499
1, 13245, Pitch_bend_c, 3, 4499
1, 13260, Pitch_bend_c, 0, 4083
1, 13260, Pitch_bend_c, 1, 4083
1, 13260, Pitch_bend_c, 2, 4083
1, 13260, Pitch_bend_c, 3, 4083
1, 13280, Pitch_bend_c, 0, 3810
1, 13280, Pitch_bend_c, 1, 3810
1, 13280, Pitch_bend_c, 2, 3810
1, 13280, Pitch_bend_c, 3, 3810
1, 13295, Pitch_bend_c, 0, 3359
1, 13295, Pitch_bend_c, 1, 3359
1, 13295, Pitch_bend_c, 2, 3359
1, 13295, Pitch_bend_c, 3, 3359
1, 13310, Pitch_bend_c, 0, 3086
1, 13310, Pitch_bend_c, 1, 3086
1, 13310, Pitch_bend_c, 2, 3086
1, 13310, Pitch_bend_c, 3, 3086
1, 13325, Pitch_bend_c, 0, 2820
1, 13325, Pitch_bend_c, 1, 2820
1, 13325, Pitch_bend_c, 2, 2820
1, 13325, Pitch_bend_c, 3, 2820
1, 13340, Pitch_bend_c, 0, 2683
1, 13340, Pitch_bend_c, 1, 2683
1, 13340, Pitch_bend_c, 2, 2683
1, 13340, Pitch_bend_c, 3, 2683
1, 13360, Pitch_bend_c, 0, 2369
1, 13360, Pitch_bend_c, 1, 2369
1, 13360, Pitch_bend_c, 2, 2369
1, 13360, Pitch_bend_c, 3, 2369
1, 13375, Pitch_bend_c, 0, 2240
1, 13375, Pitch_bend_c, 1, 2240
1, 13375, Pitch_bend_c, 2, 2240
1, 13375, Pitch_bend_c, 3, 2240
1, 13405, Pitch_bend_c, 0, 2103
1, 13405, Pitch_bend_c, 1, 2103
1, 13405, Pitch_bend_c, 2, 2103
1, 13405, Pitch_bend_c, 3, 2103
1, 13435, Control_c, 2, 7, 40
1, 13440, Note_on_c, 3, 47, 0
1, 13440, Note_on_c, 1, 35, 0
1, 13440, Note_on_c, 2, 83, 0
1, 13440, Note_on_c, 0, 47, 0
1, 13440, Note_on_c, 2, 59, 0
1, 13440, Note_on_c, 2, 71, 0
1, 13440, Pitch_bend_c, 0, 8192
1, 13440, Note_on_c, 0, 35, 95
1, 13440, Pitch_bend_c, 1, 8192
1, 13440, Note_on_c, 1, 23, 95
1, 13440, Pitch_bend_c, 2, 8192
1, 13440, Note_on_c, 2, 71, 64
1, 13440, Note_on_c, 2, 59, 127
1, 13440, Note_on_c, 2, 47, 95
1, 13440, Pitch_bend_c, 3, 8192
1, 13440, Note_on_c, 3, 35, 64
1, 13440, Note_on_c, 9, 35, 103
1, 13560, Note_on_c, 9, 35, 0
1, 13630, Control_c, 3, 7, 42
1, 13695, Control_c, 1, 7, 96
1, 13800, Note_on_c, 2, 47, 0
1, 13800, Note_on_c, 1, 23, 0
1, 13800, Note_on_c, 2, 71, 0
1, 13800, Note_on_c, 0, 35, 0
1, 13800, Note_on_c, 3, 35, 0
1, 13800, Note_on_c, 2, 59, 0
1, 13800, Pitch_bend_c, 0, 0
1, 13800, Note_on_c, 0, 47, 95
1, 13800, Pitch_bend_c, 1, 0
1, 13800, Note_on_c, 1, 35, 95
1, 13800, Pitch_bend_c, 2, 0
1, 13800, Note_on_c, 2, 83, 64
1, 13800, Note_on_c, 2, 71, 127
1, 13800, Note_on_c, 2, 59, 95
1, 13800, Pitch_bend_c, 3, 0
1, 13800, Note_on_c, 3, 47, 64
1, 13815, Pitch_bend_c, 0, 8192
1, 13815, Pitch_bend_c, 1, 8192
1, 13815, Pitch_bend_c, 2, 8192
1, 13815, Pitch_bend_c, 3, 8192
1, 13920, Note_on_c, 3, 47, 0
1, 13920, Note_on_c, 1, 35, 0
1, 13920, Note_on_c, 2, 83, 0
1, 13920, Note_on_c, 0, 47, 0
1, 13920, Note_on_c, 2, 59, 0
1, 13920, Note_on_c, 2, 71, 0
1, 13920, Note_on_c, 9, 35, 102
1, 14040, Note_on_c, 9, 35, 0
1, 14075, Control_c, 2, 7, 46
1, 14160, Note_on_c, 0, 47, 95
1, 14160, Note_on_c, 1, 35, 95
1, 14160, Note_on_c, 2, 83, 64
1, 14160, Note_on_c, 2, 71, 127
1, 14160, Note_on_c, 2, 59, 95
1, 14160, Note_on_c, 3, 47, 64
1, 14205, Control_c, 1, 7, 101
1, 14300, Control_c, 3, 7, 48
1, 14400, Note_on_c, 3, 47, 0
1, 14400, Note_on_c, 1, 35, 0
1, 14400, Note_on_c, 2, 83, 0
1, 14400, Note_on_c, 0, 47, 0
1, 14400, Note_on_c, 2, 59, 0
1, 14400, Note_on_c, 2, 71, 0
1, 14400, Note_on_c, 9, 35, 102
1, 14520, Note_on_c, 9, 35, 0
1, 14520, Note_on_c, 0, 43, 95
1, 14520, Note_on_c, 1, 31, 95
1, 14520, Note_on_c, 2, 79, 64
1, 14520, Note_on_c, 2, 67, 127
1, 14520, Note_on_c, 2, 55, 95
1, 14520, Note_on_c, 3, 43, 64
1, 14640, Note_on_c, 3, 43, 0
1, 14640, Note_on_c, 1, 31, 0
1, 14640, Note_on_c, 2, 79, 0
1, 14640, Note_on_c, 0, 43, 0
1, 14640, Note_on_c, 2, 55, 0
1, 14640, Note_on_c, 2, 67, 0
1, 14640, Pitch_bend_c, 0, 5100
1, 14640, Note_on_c, 0, 47, 95
1, 14640, Pitch_bend_c, 1, 5100
1, 14640, Note_on_c, 1, 35, 95
1, 14640, Pitch_bend_c, 2, 5100
1, 14640, Note_on_c, 2, 83, 64
1, 14640, Note_on_c, 2, 71, 127
1, 14640, Note_on_c, 2, 59, 95
1, 14640, Pitch_bend_c, 3, 5100
1, 14640, Note_on_c, 3, 47, 64
1, 14655, Pitch_bend_c, 0, 6697
1, 14655, Pitch_bend_c, 1, 6697
1, 14655, Pitch_bend_c, 2, 6697
1, 14655, Pitch_bend_c, 3, 6697
1, 14715, Control_c, 1, 7, 106
1, 14715, Control_c, 2, 7, 52
1, 14720, Pitch_bend_c, 0, 6841
1, 14720, Pitch_bend_c, 1, 6841
1, 14720, Pitch_bend_c, 2, 6841
1, 14720, Pitch_bend_c, 3, 6841
1, 14750, Pitch_bend_c, 0, 6984
1, 14750, Pitch_bend_c, 1, 6984
1, 14750, Pitch_bend_c, 2, 6984
1, 14750, Pitch_bend_c, 3, 6984
1, 14765, Pitch_bend_c, 0, 7175
1, 14765, Pitch_bend_c, 1, 7175
1, 14765, Pitch_bend_c, 2, 7175
1, 14765, Pitch_bend_c, 3, 7175
1, 14780, Pitch_bend_c, 0, 7319
1, 14780, Pitch_bend_c, 1, 7319
1, 14780, Pitch_bend_c, 2, 7319
1, 14780, Pitch_bend_c, 3, 7319
1, 14800, Pitch_bend_c, 0, 7612
1, 14800, Pitch_bend_c, 1, 7612
1, 14800, Pitch_bend_c, 2, 7612
1, 14800, Pitch_bend_c, 3, 7612
1, 14815, Pitch_bend_c, 0, 7756
1, 14815, Pitch_bend_c, 1, 7756
1, 14815, Pitch_bend_c, 2, 7756
1, 14815, Pitch_bend_c, 3, 7756
1, 14830, Pitch_bend_c, 0, 7899
1, 14830, Pitch_bend_c, 1, 7899
1, 14830, Pitch_bend_c, 2, 7899
1, 14830, Pitch_bend_c, 3, 7899
1, 14845, Pitch_bend_c, 0, 8049
1, 14845, Pitch_bend_c, 1, 8049
1, 14845, Pitch_bend_c, 2, 8049
1, 14845, Pitch_bend_c, 3, 8049
1, 14860, Pitch_bend_c, 0, 8192
1, 14860, Pitch_bend_c, 1, 8192
1, 14860, Pitch_bend_c, 2, 8192
1, 14860, Pitch_bend_c, 3, 8192
1, 14880, Note_on_c, 3, 47, 0
1, 14880, Note_on_c, 1, 35, 0
1, 14880, Note_on_c, 2, 83, 0
1, 14880, Note_on_c, 0, 47, 0
1, 14880, Note_on_c, 2, 59, 0
1, 14880, Note_on_c, 2, 71, 0
1, 14880, Note_on_c, 0, 47, 95
1, 14880, Note_on_c, 1, 35, 95
1, 14880, Note_on_c, 2, 83, 64
1, 14880, Note_on_c, 2, 71, 127
1, 14880, Note_on_c, 2, 59, 95
1, 14880, Note_on_c, 3, 47, 64
1, 14880, Note_on_c, 9, 35, 103
1, 14975, Control_c, 3, 7, 54
1, 15000, Note_on_c, 9, 35, 0
1, 15120, Note_on_c, 2, 59, 0
1, 15120, Note_on_c, 1, 35, 0
1, 15120, Note_on_c, 2, 83, 0
1, 15120, Note_on_c, 0, 47, 0
1, 15120, Note_on_c, 3, 47, 0
1, 15120, Note_on_c, 2, 71, 0
1, 15120, Note_on_c, 0, 47, 95
1, 15120, Note_on_c, 1, 35, 95
1, 15120, Note_on_c, 2, 83, 64
1, 15120, Note_on_c, 2, 71, 127
1, 15120, Note_on_c, 2, 59, 95
1, 15120, Note_on_c, 3, 47, 64
1, 15150, Pitch_bend_c, 0, 8335
1, 15150, Pitch_bend_c, 1, 8335
1, 15150, Pitch_bend_c, 2, 8335
1, 15150, Pitch_bend_c, 3, 8335
1, 15200, Pitch_bend_c, 0, 8485
1, 15200, Pitch_bend_c, 1, 8485
1, 15200, Pitch_bend_c, 2, 8485
1, 15200, Pitch_bend_c, 3, 8485
1, 15215, Pitch_bend_c, 0, 8628
1, 15215, Pitch_bend_c, 1, 8628
1, 15215, Pitch_bend_c, 2, 8628
1, 15215, Pitch_bend_c, 3, 8628
1, 15230, Pitch_bend_c, 0, 8772
1, 15230, Pitch_bend_c, 1, 8772
1, 15230, Control_c, 1, 7, 112
1, 15230, Pitch_bend_c, 2, 8772
1, 15230, Pitch_bend_c, 3, 8772
1, 15245, Pitch_bend_c, 0, 9065
1, 15245, Pitch_bend_c, 1, 9065
1, 15245, Pitch_bend_c, 2, 9065
1, 15245, Pitch_bend_c, 3, 9065
1, 15260, Pitch_bend_c, 0, 9400
1, 15260, Pitch_bend_c, 1, 9400
1, 15260, Pitch_bend_c, 2, 9400
1, 15260, Pitch_bend_c, 3, 9400
1, 15280, Pitch_bend_c, 0, 9543
1, 15280, Pitch_bend_c, 1, 9543
1, 15280, Pitch_bend_c, 2, 9543
1, 15280, Pitch_bend_c, 3, 9543
1, 15295, Pitch_bend_c, 0, 9830
1, 15295, Pitch_bend_c, 1, 9830
1, 15295, Pitch_bend_c, 2, 9830
1, 15295, Pitch_bend_c, 3, 9830
1, 15310, Pitch_bend_c, 0, 10110
1, 15310, Pitch_bend_c, 1, 10110
1, 15310, Pitch_bend_c, 2, 10110
1, 15310, Pitch_bend_c, 3, 10110
1, 15325, Pitch_bend_c, 0, 10253
1, 15325, Pitch_bend_c, 1, 10253
1, 15325, Pitch_bend_c, 2, 10253
1, 15325, Pitch_bend_c, 3, 10253
1, 15340, Pitch_bend_c, 0, 10397
1, 15340, Pitch_bend_c, 1, 10397
1, 15340, Pitch_bend_c, 2, 10397
1, 15340, Pitch_bend_c, 3, 10397
1, 15355, Control_c, 2, 7, 58
1, 15360, Note_on_c, 3, 47, 0
1, 15360, Note_on_c, 1, 35, 0
1, 15360, Note_on_c, 2, 83, 0
1, 15360, Note_on_c, 0, 47, 0
1, 15360, Note_on_c, 2, 59, 0
1, 15360, Note_on_c, 2, 71, 0
1, 15360, Pitch_bend_c, 0, 12165
1, 15360, Note_on_c, 0, 35, 95
1, 15360, Pitch_bend_c, 1, 12165
1, 15360, Note_on_c, 1, 23, 95
1, 15360, Pitch_bend_c, 2, 12165
1, 15360, Note_on_c, 2, 71, 64
1, 15360, Note_on_c, 2, 59, 127
1, 15360, Note_on_c, 2, 47, 95
1, 15360, Pitch_bend_c, 3, 12165
1, 15360, Note_on_c, 3, 35, 64
1, 15360, Note_on_c, 9, 35, 103
1, 15360, Note_on_c, 13, 75, 63
1, 15360, Note_on_c, 13, 74, 63
1, 15360, Note_on_c, 13, 73, 63
1, 15360, Note_on_c, 13, 72, 63
1, 15360, Note_on_c, 13, 60, 63
1, 15360, Note_on_c, 13, 71, 63
1, 15360, Note_on_c, 13, 70, 63
1, 15360, Note_on_c, 13, 69, 63
1, 15360, Note_on_c, 13, 68, 63
1, 15360, Note_on_c, 13, 67, 63
1, 15360, Note_on_c, 13, 66, 63
1, 15360, Note_on_c, 13, 65, 63
1, 15360, Note_on_c, 13, 64, 63
1, 15360, Note_on_c, 13, 62, 63
1, 15360, Note_on_c, 13, 63, 63
1, 15360, Note_on_c, 13, 61, 63
1, 15375, Pitch_bend_c, 0, 8192
1, 15375, Pitch_bend_c, 1, 8192
1, 15375, Pitch_bend_c, 2, 8192
1, 15375, Pitch_bend_c, 3, 8192
1, 15480, Note_on_c, 9, 35, 0
1, 15645, Control_c, 3, 7, 60
1, 15720, Note_on_c, 2, 59, 0
1, 15720, Note_on_c, 0, 35, 0
1, 15720, Note_on_c, 2, 71, 0
1, 15720, Note_on_c, 3, 35, 0
1, 15720, Note_on_c, 1, 23, 0
1, 15720, Note_on_c, 2, 47, 0
1, 15720, Pitch_bend_c, 0, 0
1, 15720, Note_on_c, 0, 47, 95
1, 15720, Pitch_bend_c, 1, 0
1, 15720, Note_on_c, 1, 35, 95
1, 15720, Pitch_bend_c, 2, 0
1, 15720, Note_on_c, 2, 83, 64
1, 15720, Note_on_c, 2, 71, 127
1, 15720, Note_on_c, 2, 59, 95
1, 15720, Pitch_bend_c, 3, 0
1, 15720, Note_on_c, 3, 47, 64
1, 15735, Pitch_bend_c, 0, 8192
1, 15735, Pitch_bend_c, 1, 8192
1, 15735, Pitch_bend_c, 2, 8192
1, 15735, Pitch_bend_c, 3, 8192
1, 15740, Control_c, 1, 7, 117
1, 15840, Note_on_c, 3, 47, 0
1, 15840, Note_on_c, 2, 59, 0
1, 15840, Note_on_c, 0, 47, 0
1, 15840, Note_on_c, 2, 71, 0
1, 15840, Note_on_c, 1, 35, 0
1, 15840, Note_on_c, 2, 83, 0
1, 15840, Note_on_c, 9, 35, 103
1, 15960, Note_on_c, 9, 35, 0
1, 15995, Control_c, 2, 7, 64
1, 16080, Note_on_c, 0, 47, 95
1, 16080, Note_on_c, 1, 35, 95
1, 16080, Note_on_c, 2, 83, 64
1, 16080, Note_on_c, 2, 71, 127
1, 16080, Note_on_c, 2, 59, 95
1, 16080, Note_on_c, 3, 47, 64
1, 16255, Control_c, 1, 7, 122
1, 16315, Control_c, 3, 7, 67
1, 16320, Note_on_c, 3, 47, 0
1, 16320, Note_on_c, 2, 59, 0
1, 16320, Note_on_c, 0, 47, 0
1, 16320, Note_on_c, 2, 71, 0
1, 16320, Note_on_c, 1, 35, 0
1, 16320, Note_on_c, 2, 83, 0
1, 16320, Note_on_c, 0, 47, 95
1, 16320, Note_on_c, 1, 35, 95
1, 16320, Note_on_c, 2, 83, 64
1, 16320, Note_on_c, 2, 71, 127
1, 16320, Note_on_c, 2, 59, 95
1, 16320, Note_on_c, 3, 47, 64
1, 16320, Note_on_c, 9, 35, 104
1, 16350, Pitch_bend_c, 0, 8049
1, 16350, Pitch_bend_c, 1, 8049
1, 16350, Pitch_bend_c, 2, 8049
1, 16350, Pitch_bend_c, 3, 8049
1, 16380, Pitch_bend_c, 0, 7899
1, 16380, Pitch_bend_c, 1, 7899
1, 16380, Pitch_bend_c, 2, 7899
1, 16380, Pitch_bend_c, 3, 7899
1, 16415, Pitch_bend_c, 0, 7756
1, 16415, Pitch_bend_c, 1, 7756
1, 16415, Pitch_bend_c, 2, 7756
1, 16415, Pitch_bend_c, 3, 7756
1, 16440, Note_on_c, 9, 35, 0
1, 16445, Pitch_bend_c, 0, 7612
1, 16445, Pitch_bend_c, 1, 7612
1, 16445, Pitch_bend_c, 2, 7612
1, 16445, Pitch_bend_c, 3, 7612
1, 16480, Pitch_bend_c, 0, 7469
1, 16480, Pitch_bend_c, 1, 7469
1, 16480, Pitch_bend_c, 2, 7469
1, 16480, Pitch_bend_c, 3, 7469
1, 16500, Note_on_c, 2, 83, 0
1, 16500, Note_on_c, 3, 47, 0
1, 16500, Note_on_c, 0, 47, 0
1, 16500, Note_on_c, 2, 59, 0
1, 16500, Note_on_c, 1, 35, 0
1, 16500, Note_on_c, 2, 71, 0
1, 16560, Note_on_c, 0, 47, 95
1, 16560, Note_on_c, 1, 35, 95
1, 16560, Note_on_c, 2, 83, 64
1, 16560, Note_on_c, 2, 71, 127
1, 16560, Note_on_c, 2, 59, 95
1, 16560, Note_on_c, 3, 47, 64
1, 16575, Pitch_bend_c, 0, 7319
1, 16575, Pitch_bend_c, 1, 7319
1, 16575, Pitch_bend_c, 2, 7319
1, 16575, Pitch_bend_c, 3, 7319
1, 16620, Pitch_bend_c, 0, 7175
1, 16620, Pitch_bend_c, 1, 7175
1, 16620, Pitch_bend_c, 2, 7175
1, 16620, Pitch_bend_c, 3, 7175
1, 16635, Control_c, 2, 7, 69
1, 16640, Pitch_bend_c, 0, 6984
1, 16640, Pitch_bend_c, 1, 6984
1, 16640, Pitch_bend_c, 2, 6984
1, 16640, Pitch_bend_c, 3, 6984
1, 16670, Pitch_bend_c, 0, 6841
1, 16670, Pitch_bend_c, 1, 6841
1, 16670, Pitch_bend_c, 2, 6841
1, 16670, Pitch_bend_c, 3, 6841
1, 16700, Pitch_bend_c, 0, 6697
1, 16700, Pitch_bend_c, 1, 6697
1, 16700, Pitch_bend_c, 2, 6697
1, 16700, Pitch_bend_c, 3, 6697
1, 16765, Control_c, 1, 7, 127
1, 16780, Pitch_bend_c, 0, 6554
1, 16780, Pitch_bend_c, 1, 6554
1, 16780, Pitch_bend_c, 2, 6554
1, 16780, Pitch_bend_c, 3, 6554
1, 16800, Note_on_c, 3, 47, 0
1, 16800, Note_on_c, 2, 59, 0
1, 16800, Note_on_c, 0, 47, 0
1, 16800, Note_on_c, 2, 71, 0
1, 16800, Note_on_c, 1, 35, 0
1, 16800, Note_on_c, 2, 83, 0
1, 16800, Note_on_c, 0, 47, 95
1, 16800, Note_on_c, 1, 35, 95
1, 16800, Note_on_c, 2, 83, 64
1, 16800, Note_on_c, 2, 71, 127
1, 16800, Note_on_c, 2, 59, 95
1, 16800, Note_on_c, 3, 47, 64
1, 16800, Note_on_c, 9, 35, 104
1, 16830, Pitch_bend_c, 0, 6418
1, 16830, Pitch_bend_c, 1, 6418
1, 16830, Pitch_bend_c, 2, 6418
1, 16830, Pitch_bend_c, 3, 6418
1, 16845, Pitch_bend_c, 0, 6274
1, 16845, Pitch_bend_c, 1, 6274
1, 16845, Pitch_bend_c, 2, 6274
1, 16845, Pitch_bend_c, 3, 6274
1, 16860, Pitch_bend_c, 0, 6131
1, 16860, Pitch_bend_c, 1, 6131
1, 16860, Pitch_bend_c, 2, 6131
1, 16860, Pitch_bend_c, 3, 6131
1, 16880, Pitch_bend_c, 0, 5987
1, 16880, Pitch_bend_c, 1, 5987
1, 16880, Pitch_bend_c, 2, 5987
1, 16880, Pitch_bend_c, 3, 5987
1, 16895, Pitch_bend_c, 0, 5803
1, 16895, Pitch_bend_c, 1, 5803
1, 16895, Pitch_bend_c, 2, 5803
1, 16895, Pitch_bend_c, 3, 5803
1, 16910, Pitch_bend_c, 0, 5660
1, 16910, Pitch_bend_c, 1, 5660
1, 16910, Pitch_bend_c, 2, 5660
1, 16910, Pitch_bend_c, 3, 5660
1, 16920, Note_on_c, 9, 35, 0
1, 16925, Pitch_bend_c, 0, 5516
1, 16925, Pitch_bend_c, 1, 5516
1, 16925, Pitch_bend_c, 2, 5516
1, 16925, Pitch_bend_c, 3, 5516
1, 16940, Pitch_bend_c, 0, 5380
1, 16940, Pitch_bend_c, 1, 5380
1, 16940, Pitch_bend_c, 2, 5380
1, 16940, Pitch_bend_c, 3, 5380
1, 16960, Pitch_bend_c, 0, 5237
1, 16960, Pitch_bend_c, 1, 5237
1, 16960, Pitch_bend_c, 2, 5237
1, 16960, Pitch_bend_c, 3, 5237
1, 16990, Pitch_bend_c, 0, 5100
1, 16990, Pitch_bend_c, 1, 5100
1, 16990, Pitch_bend_c, 2, 5100
1, 16990, Pitch_bend_c, 3, 5100
1, 16990, Control_c, 3, 7, 73
1, 17040, Note_on_c, 2, 83, 0
1, 17040, Note_on_c, 3, 47, 0
1, 17040, Note_on_c, 0, 47, 0
1, 17040, Note_on_c, 2, 59, 0
1, 17040, Note_on_c, 1, 35, 0
1, 17040, Note_on_c, 2, 71, 0
1, 17040, Note_on_c, 0, 47, 95
1, 17040, Note_on_c, 1, 35, 95
1, 17040, Note_on_c, 2, 83, 64
1, 17040, Note_on_c, 2, 71, 127
1, 17040, Note_on_c, 2, 59, 95
1, 17040, Note_on_c, 3, 47, 64
1, 17055, Pitch_bend_c, 0, 4963
1, 17055, Pitch_bend_c, 1, 4963
1, 17055, Pitch_bend_c, 2, 4963
1, 17055, Pitch_bend_c, 3, 4963
1, 17070, Pitch_bend_c, 0, 4636
1, 17070, Pitch_bend_c, 1, 4636
1, 17070, Pitch_bend_c, 2, 4636
1, 17070, Pitch_bend_c, 3, 4636
1, 17085, Pitch_bend_c, 0, 4499
1, 17085, Pitch_bend_c, 1, 4499
1, 17085, Pitch_bend_c, 2, 4499
1, 17085, Pitch_bend_c, 3, 4499
1, 17100, Pitch_bend_c, 0, 4083
1, 17100, Pitch_bend_c, 1, 4083
1, 17100, Pitch_bend_c, 2, 4083
1, 17100, Pitch_bend_c, 3, 4083
1, 17120, Pitch_bend_c, 0, 3810
1, 17120, Pitch_bend_c, 1, 3810
1, 17120, Pitch_bend_c, 2, 3810
1, 17120, Pitch_bend_c, 3, 3810
1, 17135, Pitch_bend_c, 0, 3359
1, 17135, Pitch_bend_c, 1, 3359
1, 17135, Pitch_bend_c, 2, 3359
1, 17135, Pitch_bend_c, 3, 3359
1, 17150, Pitch_bend_c, 0, 3086
1, 17150, Pitch_bend_c, 1, 3086
1, 17150, Pitch_bend_c, 2, 3086
1, 17150, Pitch_bend_c, 3, 3086
1, 17165, Pitch_bend_c, 0, 2820
1, 17165, Pitch_bend_c, 1, 2820
1, 17165, Pitch_bend_c, 2, 2820
1, 17165, Pitch_bend_c, 3, 2820
1, 17180, Pitch_bend_c, 0, 2683
1, 17180, Pitch_bend_c, 1, 2683
1, 17180, Pitch_bend_c, 2, 2683
1, 17180, Pitch_bend_c, 3, 2683
1, 17200, Pitch_bend_c, 0, 2369
1, 17200, Pitch_bend_c, 1, 2369
1, 17200, Pitch_bend_c, 2, 2369
1, 17200, Pitch_bend_c, 3, 2369
1, 17215, Pitch_bend_c, 0, 2240
1, 17215, Pitch_bend_c, 1, 2240
1, 17215, Pitch_bend_c, 2, 2240
1, 17215, Pitch_bend_c, 3, 2240
1, 17245, Pitch_bend_c, 0, 2103
1, 17245, Pitch_bend_c, 1, 2103
1, 17245, Pitch_bend_c, 2, 2103
1, 17245, Pitch_bend_c, 3, 2103
1, 17275, Control_c, 2, 7, 75
1, 17280, Note_on_c, 3, 47, 0
1, 17280, Note_on_c, 2, 59, 0
1, 17280, Note_on_c, 0, 47, 0
1, 17280, Note_on_c, 2, 71, 0
1, 17280, Note_on_c, 1, 35, 0
1, 17280, Note_on_c, 2, 83, 0
1, 17280, Pitch_bend_c, 0, 8192
1, 17280, Note_on_c, 0, 35, 95
1, 17280, Pitch_bend_c, 1, 8192
1, 17280, Note_on_c, 1, 23, 95
1, 17280, Pitch_bend_c, 2, 8192
1, 17280, Note_on_c, 2, 71, 64
1, 17280, Note_on_c, 2, 59, 127
1, 17280, Note_on_c, 2, 47, 95
1, 17280, Pitch_bend_c, 3, 8192
1, 17280, Note_on_c, 3, 35, 64
1, 17280, Note_on_c, 9, 57, 103
1, 17280, Note_on_c, 9, 52, 127
1, 17280, Note_on_c, 9, 49, 103
1, 17280, Note_on_c, 9, 35, 103
1, 17280, Control_c, 13, 7, 127
1, 17340, Control_c, 13, 7, 127
1, 17400, Note_on_c, 9, 35, 0
1, 17400, Control_c, 13, 7, 125
1, 17460, Control_c, 13, 7, 124
1, 17520, Control_c, 13, 7, 121
1, 17580, Control_c, 13, 7, 119
1, 17640, Note_on_c, 2, 47, 0
1, 17640, Note_on_c, 0, 35, 0
1, 17640, Note_on_c, 2, 59, 0
1, 17640, Note_on_c, 1, 23, 0
1, 17640, Note_on_c, 2, 71, 0
1, 17640, Note_on_c, 3, 35, 0
1, 17640, Pitch_bend_c, 0, 0
1, 17640, Note_on_c, 0, 47, 95
1, 17640, Pitch_bend_c, 1, 0
1, 17640, Note_on_c, 1, 35, 95
1, 17640, Pitch_bend_c, 2, 0
1, 17640, Note_on_c, 2, 83, 64
1, 17640, Note_on_c, 2, 71, 127
1, 17640, Note_on_c, 2, 59, 95
1, 17640, Pitch_bend_c, 3, 0
1, 17640, Note_on_c, 3, 47, 64
1, 17640, Control_c, 13, 7, 117
1, 17655, Pitch_bend_c, 0, 8192
1, 17655, Pitch_bend_c, 1, 8192
1, 17655, Pitch_bend_c, 2, 8192
1, 17655, Pitch_bend_c, 3, 8192
1, 17660, Control_c, 3, 7, 79
1, 17700, Control_c, 13, 7, 114
1, 17760, Note_on_c, 3, 47, 0
1, 17760, Note_on_c, 2, 83, 0
1, 17760, Note_on_c, 1, 35, 0
1, 17760, Note_on_c, 0, 47, 0
1, 17760, Note_on_c, 2, 59, 0
1, 17760, Note_on_c, 2, 71, 0
1, 17760, Note_on_c, 9, 35, 102
1, 17760, Control_c, 13, 7, 112
1, 17820, Control_c, 13, 7, 110
1, 17880, Note_on_c, 9, 35, 0
1, 17880, Control_c, 13, 7, 108
1, 17915, Control_c, 2, 7, 81
1, 17940, Control_c, 13, 7, 106
1, 18000, Note_on_c, 0, 47, 95
1, 18000, Note_on_c, 1, 35, 95
1, 18000, Note_on_c, 2, 83, 64
1, 18000, Note_on_c, 2, 71, 127
1, 18000, Note_on_c, 2, 59, 95
1, 18000, Note_on_c, 3, 47, 64
1, 18000, Control_c, 13, 7, 105
1, 18060, Control_c, 13, 7, 103
1, 18120, Control_c, 13, 7, 101
1, 18180, Control_c, 13, 7, 99
1, 18240, Note_on_c, 3, 47, 0
1, 18240, Note_on_c, 2, 83, 0
1, 18240, Note_on_c, 1, 35, 0
1, 18240, Note_on_c, 0, 47, 0
1, 18240, Note_on_c, 2, 59, 0
1, 18240, Note_on_c, 2, 71, 0
1, 18240, Note_on_c, 9, 35, 102
1, 18240, Control_c, 13, 7, 96
1, 18300, Control_c, 13, 7, 95
1, 18335, Control_c, 3, 7, 85
1, 18360, Note_on_c, 9, 35, 0
1, 18360, Note_on_c, 0, 43, 95
1, 18360, Note_on_c, 1, 31, 95
1, 18360, Note_on_c, 2, 79, 64
1, 18360, Note_on_c, 2, 67, 127
1, 18360, Note_on_c, 2, 55, 95
1, 18360, Note_on_c, 3, 43, 64
1, 18360, Control_c, 13, 7, 92
1, 18420, Control_c, 13, 7, 91
1, 18480, Note_on_c, 3, 43, 0
1, 18480, Note_on_c, 2, 79, 0
1, 18480, Note_on_c, 1, 31, 0
1, 18480, Note_on_c, 0, 43, 0
1, 18480, Note_on_c, 2, 55, 0
1, 18480, Note_on_c, 2, 67, 0
1, 18480, Pitch_bend_c, 0, 5100
1, 18480, Note_on_c, 0, 47, 95
1, 18480, Pitch_bend_c, 1, 5100
1, 18480, Note_on_c, 1, 35, 95
1, 18480, Pitch_bend_c, 2, 5100
1, 18480, Note_on_c, 2, 83, 64
1, 18480, Note_on_c, 2, 71, 127
1, 18480, Note_on_c, 2, 59, 95
1, 18480, Pitch_bend_c, 3, 5100
1, 18480, Note_on_c, 3, 47, 64
1, 18480, Control_c, 13, 7, 90
1, 18495, Pitch_bend_c, 0, 6697
1, 18495, Pitch_bend_c, 1, 6697
1, 18495, Pitch_bend_c, 2, 6697
1, 18495, Pitch_bend_c, 3, 6697
1, 18540, Control_c, 13, 7, 88
1, 18555, Control_c, 2, 7, 87
1, 18560, Pitch_bend_c, 0, 6841
1, 18560, Pitch_bend_c, 1, 6841
1, 18560, Pitch_bend_c, 2, 6841
1, 18560, Pitch_bend_c, 3, 6841
1, 18590, Pitch_bend_c, 0, 6984
1, 18590, Pitch_bend_c, 1, 6984
1, 18590, Pitch_bend_c, 2, 6984
1, 18590, Pitch_bend_c, 3, 6984
1, 18600, Control_c, 13, 7, 86
1, 18605, Pitch_bend_c, 0, 7175
1, 18605, Pitch_bend_c, 1, 7175
1, 18605, Pitch_bend_c, 2, 7175
1, 18605, Pitch_bend_c, 3, 7175
1, 18620, Pitch_bend_c, 0, 7319
1, 18620, Pitch_bend_c, 1, 7319
1, 18620, Pitch_bend_c, 2, 7319
1, 18620, Pitch_bend_c, 3, 7319
1, 18640, Pitch_bend_c, 0, 7612
1, 18640, Pitch_bend_c, 1, 7612
1, 18640, Pitch_bend_c, 2, 7612
1, 18640, Pitch_bend_c, 3, 7612
1, 18655, Pitch_bend_c, 0, 7756
1, 18655, Pitch_bend_c, 1, 7756
1, 18655, Pitch_bend_c, 2, 7756
1, 18655, Pitch_bend_c, 3, 7756
1, 18660, Control_c, 13, 7, 83
1, 18670, Pitch_bend_c, 0, 7899
1, 18670, Pitch_bend_c, 1, 7899
1, 18670, Pitch_bend_c, 2, 7899
1, 18670, Pitch_bend_c, 3, 7899
1, 18685, Pitch_bend_c, 0, 8049
1, 18685, Pitch_bend_c, 1, 8049
1, 18685, Pitch_bend_c, 2, 8049
1, 18685, Pitch_bend_c, 3, 8049
1, 18700, Pitch_bend_c, 0, 8192
1, 18700, Pitch_bend_c, 1, 8192
1, 18700, Pitch_bend_c, 2, 8192
1, 18700, Pitch_bend_c, 3, 8192
1, 18720, Note_on_c, 3, 47, 0
1, 18720, Note_on_c, 2, 83, 0
1, 18720, Note_on_c, 1, 35, 0
1, 18720, Note_on_c, 0, 47, 0
1, 18720, Note_on_c, 2, 59, 0
1, 18720, Note_on_c, 2, 71, 0
1, 18720, Note_on_c, 0, 47, 95
1, 18720, Note_on_c, 1, 35, 95
1, 18720, Note_on_c, 2, 83, 64
1, 18720, Note_on_c, 2, 71, 127
1, 18720, Note_on_c, 2, 59, 95
1, 18720, Note_on_c, 3, 47, 64
1, 18720, Note_on_c, 9, 35, 103
1, 18720, Control_c, 13, 7, 82
1, 18780, Control_c, 13, 7, 80
1, 18840, Note_on_c, 9, 35, 0
1, 18840, Control_c, 13, 7, 77
1, 18900, Control_c, 13, 7, 76
1, 18960, Note_on_c, 2, 83, 0
1, 18960, Note_on_c, 1, 35, 0
1, 18960, Note_on_c, 0, 47, 0
1, 18960, Note_on_c, 3, 47, 0
1, 18960, Note_on_c, 2, 59, 0
1, 18960, Note_on_c, 2, 71, 0
1, 18960, Note_on_c, 0, 47, 95
1, 18960, Note_on_c, 1, 35, 95
1, 18960, Note_on_c, 2, 83, 64
1, 18960, Note_on_c, 2, 71, 127
1, 18960, Note_on_c, 2, 59, 95
1, 18960, Note_on_c, 3, 47, 64
1, 18960, Control_c, 13, 7, 74
1, 18990, Pitch_bend_c, 0, 8335
1, 18990, Pitch_bend_c, 1, 8335
1, 18990, Pitch_bend_c, 2, 8335
1, 18990, Pitch_bend_c, 3, 8335
1, 19005, Control_c, 3, 7, 91
1, 19020, Control_c, 13, 7, 71
1, 19040, Pitch_bend_c, 0, 8485
1, 19040, Pitch_bend_c, 1, 8485
1, 19040, Pitch_bend_c, 2, 8485
1, 19040, Pitch_bend_c, 3, 8485
1, 19055, Pitch_bend_c, 0, 8628
1, 19055, Pitch_bend_c, 1, 8628
1, 19055, Pitch_bend_c, 2, 8628
1, 19055, Pitch_bend_c, 3, 8628
1, 19070, Pitch_bend_c, 0, 8772
1, 19070, Pitch_bend_c, 1, 8772
1, 19070, Pitch_bend_c, 2, 8772
1, 19070, Pitch_bend_c, 3, 8772
1, 19080, Control_c, 13, 7, 69
1, 19085, Pitch_bend_c, 0, 9065
1, 19085, Pitch_bend_c, 1, 9065
1, 19085, Pitch_bend_c, 2, 9065
1, 19085, Pitch_bend_c, 3, 9065
1, 19100, Pitch_bend_c, 0, 9400
1, 19100, Pitch_bend_c, 1, 9400
1, 19100, Pitch_bend_c, 2, 9400
1, 19100, Pitch_bend_c, 3, 9400
1, 19120, Pitch_bend_c, 0, 9543
1, 19120, Pitch_bend_c, 1, 9543
1, 19120, Pitch_bend_c, 2, 9543
1, 19120, Pitch_bend_c, 3, 9543
1, 19135, Pitch_bend_c, 0, 9830
1, 19135, Pitch_bend_c, 1, 9830
1, 19135, Pitch_bend_c, 2, 9830
1, 19135, Pitch_bend_c, 3, 9830
1, 19140, Control_c, 13, 7, 68
1, 19150, Pitch_bend_c, 0, 10110
1, 19150, Pitch_bend_c, 1, 10110
1, 19150, Pitch_bend_c, 2, 10110
1, 19150, Pitch_bend_c, 3, 10110
1, 19165, Pitch_bend_c, 0, 10253
1, 19165, Pitch_bend_c, 1, 10253
1, 19165, Pitch_bend_c, 2, 10253
1, 19165, Pitch_bend_c, 3, 10253
1, 19180, Pitch_bend_c, 0, 10397
1, 19180, Pitch_bend_c, 1, 10397
1, 19180, Pitch_bend_c, 2, 10397
1, 19180, Pitch_bend_c, 3, 10397
1, 19195, Control_c, 2, 7, 93
1, 19200, Note_on_c, 3, 47, 0
1, 19200, Note_on_c, 2, 83, 0
1, 19200, Note_on_c, 1, 35, 0
1, 19200, Note_on_c, 0, 47, 0
1, 19200, Note_on_c, 2, 59, 0
1, 19200, Note_on_c, 2, 71, 0
1, 19200, Pitch_bend_c, 0, 12165
1, 19200, Note_on_c, 0, 35, 95
1, 19200, Pitch_bend_c, 1, 12165
1, 19200, Note_on_c, 1, 23, 95
1, 19200, Pitch_bend_c, 2, 12165
1, 19200, Note_on_c, 2, 71, 64
1, 19200, Note_on_c, 2, 59, 127
1, 19200, Note_on_c, 2, 47, 95
1, 19200, Pitch_bend_c, 3, 12165
1, 19200, Note_on_c, 3, 35, 64
1, 19200, Note_on_c, 9, 35, 103
1, 19200, Control_c, 13, 7, 66
1, 19215, Pitch_bend_c, 0, 8192
1, 19215, Pitch_bend_c, 1, 8192
1, 19215, Pitch_bend_c, 2, 8192
1, 19215, Pitch_bend_c, 3, 8192
1, 19260, Control_c, 13, 7, 63
1, 19320, Note_on_c, 9, 35, 0
1, 19320, Control_c, 13, 7, 60
1, 19380, Control_c, 13, 7, 59
1, 19440, Control_c, 13, 7, 57
1, 19500, Control_c, 13, 7, 55
1, 19560, Note_on_c, 2, 71, 0
1, 19560, Note_on_c, 1, 23, 0
1, 19560, Note_on_c, 0, 35, 0
1, 19560, Note_on_c, 3, 35, 0
1, 19560, Note_on_c, 2, 47, 0
1, 19560, Note_on_c, 2, 59, 0
1, 19560, Pitch_bend_c, 0, 0
1, 19560, Note_on_c, 0, 47, 95
1, 19560, Pitch_bend_c, 1, 0
1, 19560, Note_on_c, 1, 35, 95
1, 19560, Pitch_bend_c, 2, 0
1, 19560, Note_on_c, 2, 83, 64
1, 19560, Note_on_c, 2, 71, 127
1, 19560, Note_on_c, 2, 59, 95
1, 19560, Pitch_bend_c, 3, 0
1, 19560, Note_on_c, 3, 47, 64
1, 19560, Control_c, 13, 7, 52
1, 19575, Pitch_bend_c, 0, 8192
1, 19575, Pitch_bend_c, 1, 8192
1, 19575, Pitch_bend_c, 2, 8192
1, 19575, Pitch_bend_c, 3, 8192
1, 19620, Control_c, 13, 7, 50
1, 19675, Control_c, 3, 7, 97
1, 19680, Note_on_c, 3, 47, 0
1, 19680, Note_on_c, 2, 83, 0
1, 19680, Note_on_c, 1, 35, 0
1, 19680, Note_on_c, 0, 47, 0
1, 19680, Note_on_c, 2, 59, 0
1, 19680, Note_on_c, 2, 71, 0
1, 19680, Note_on_c, 9, 35, 103
1, 19680, Control_c, 13, 7, 48
1, 19740, Control_c, 13, 7, 47
1, 19800, Note_on_c, 9, 35, 0
1, 19800, Control_c, 13, 7, 45
1, 19835, Control_c, 2, 7, 98
1, 19860, Control_c, 13, 7, 44
1, 19920, Note_on_c, 0, 47, 95
1, 19920, Note_on_c, 1, 35, 95
1, 19920, Note_on_c, 2, 83, 64
1, 19920, Note_on_c, 2, 71, 127
1, 19920, Note_on_c, 2, 59, 95
1, 19920, Note_on_c, 3, 47, 64
1, 19920, Control_c, 13, 7, 42
1, 19980, Control_c, 13, 7, 41
1, 20040, Control_c, 13, 7, 38
1, 20100, Control_c, 13, 7, 36
1, 20160, Note_on_c, 3, 47, 0
1, 20160, Note_on_c, 2, 83, 0
1, 20160, Note_on_c, 1, 35, 0
1, 20160, Note_on_c, 0, 47, 0
1, 20160, Note_on_c, 2, 59, 0
1, 20160, Note_on_c, 2, 71, 0
1, 20160, Note_on_c, 0, 47, 95
1, 20160, Note_on_c, 1, 35, 95
1, 20160, Note_on_c, 2, 83, 64
1, 20160, Note_on_c, 2, 71, 127
1, 20160, Note_on_c, 2, 59, 95
1, 20160, Note_on_c, 3, 47, 64
1, 20160, Note_on_c, 9, 35, 104
1, 20160, Control_c, 13, 7, 34
1, 20190, Pitch_bend_c, 0, 8049
1, 20190, Pitch_bend_c, 1, 8049
1, 20190, Pitch_bend_c, 2, 8049
1, 20190, Pitch_bend_c, 3, 8049
1, 20220, Pitch_bend_c, 0, 7899
1, 20220, Pitch_bend_c, 1, 7899
1, 20220, Pitch_bend_c, 2, 7899
1, 20220, Pitch_bend_c, 3, 7899
1, 20220, Control_c, 13, 7, 33
1, 20255, Pitch_bend_c, 0, 7756
1, 20255, Pitch_bend_c, 1, 7756
1, 20255, Pitch_bend_c, 2, 7756
1, 20255, Pitch_bend_c, 3, 7756
1, 20280, Note_on_c, 9, 35, 0
1, 20280, Control_c, 13, 7, 31
1, 20285, Pitch_bend_c, 0, 7612
1, 20285, Pitch_bend_c, 1, 7612
1, 20285, Pitch_bend_c, 2, 7612
1, 20285, Pitch_bend_c, 3, 7612
1, 20320, Pitch_bend_c, 0, 7469
1, 20320, Pitch_bend_c, 1, 7469
1, 20320, Pitch_bend_c, 2, 7469
1, 20320, Pitch_bend_c, 3, 7469
1, 20340, Note_on_c, 2, 83, 0
1, 20340, Note_on_c, 1, 35, 0
1, 20340, Note_on_c, 0, 47, 0
1, 20340, Note_on_c, 3, 47, 0
1, 20340, Note_on_c, 2, 59, 0
1, 20340, Note_on_c, 2, 71, 0
1, 20340, Control_c, 13, 7, 29
1, 20350, Control_c, 3, 7, 103
1, 20400, Note_on_c, 0, 47, 95
1, 20400, Note_on_c, 1, 35, 95
1, 20400, Note_on_c, 2, 83, 64
1, 20400, Note_on_c, 2, 71, 127
1, 20400, Note_on_c, 2, 59, 95
1, 20400, Note_on_c, 3, 47, 64
1, 20400, Control_c, 13, 7, 29
1, 20415, Pitch_bend_c, 0, 7319
1, 20415, Pitch_bend_c, 1, 7319
1, 20415, Pitch_bend_c, 2, 7319
1, 20415, Pitch_bend_c, 3, 7319
1, 20460, Pitch_bend_c, 0, 7175
1, 20460, Pitch_bend_c, 1, 7175
1, 20460, Pitch_bend_c, 2, 7175
1, 20460, Pitch_bend_c, 3, 7175
1, 20460, Control_c, 13, 7, 26
1, 20475, Control_c, 2, 7, 104
1, 20480, Pitch_bend_c, 0, 6984
1, 20480, Pitch_bend_c, 1, 6984
1, 20480, Pitch_bend_c, 2, 6984
1, 20480, Pitch_bend_c, 3, 6984
1, 20510, Pitch_bend_c, 0, 6841
1, 20510, Pitch_bend_c, 1, 6841
1, 20510, Pitch_bend_c, 2, 6841
1, 20510, Pitch_bend_c, 3, 6841
1, 20520, Control_c, 13, 7, 24
1, 20540, Pitch_bend_c, 0, 6697
1, 20540, Pitch_bend_c, 1, 6697
1, 20540, Pitch_bend_c, 2, 6697
1, 20540, Pitch_bend_c, 3, 6697
1, 20580, Control_c, 13, 7, 21
1, 20620, Pitch_bend_c, 0, 6554
1, 20620, Pitch_bend_c, 1, 6554
1, 20620, Pitch_bend_c, 2, 6554
1, 20620, Pitch_bend_c, 3, 6554
1, 20640, Note_on_c, 3, 47, 0
1, 20640, Note_on_c, 2, 83, 0
1, 20640, Note_on_c, 1, 35, 0
1, 20640, Note_on_c, 0, 47, 0
1, 20640, Note_on_c, 2, 59, 0
1, 20640, Note_on_c, 2, 71, 0
1, 20640, Note_on_c, 0, 47, 95
1, 20640, Note_on_c, 1, 35, 95
1, 20640, Note_on_c, 2, 83, 64
1, 20640, Note_on_c, 2, 71, 127
1, 20640, Note_on_c, 2, 59, 95
1, 20640, Note_on_c, 3, 47, 64
1, 20640, Note_on_c, 9, 35, 104
1, 20640, Control_c, 13, 7, 19
1, 20670, Pitch_bend_c, 0, 6418
1, 20670, Pitch_bend_c, 1, 6418
1, 20670, Pitch_bend_c, 2, 6418
1, 20670, Pitch_bend_c, 3, 6418
1, 20685, Pitch_bend_c, 0, 6274
1, 20685, Pitch_bend_c, 1, 6274
1, 20685, Pitch_bend_c, 2, 6274
1, 20685, Pitch_bend_c, 3, 6274
1, 20700, Pitch_bend_c, 0, 6131
1, 20700, Pitch_bend_c, 1, 6131
1, 20700, Pitch_bend_c, 2, 6131
1, 20700, Pitch_bend_c, 3, 6131
1, 20700, Control_c, 13, 7, 17
1, 20720, Pitch_bend_c, 0, 5987
1, 20720, Pitch_bend_c, 1, 5987
1, 20720, Pitch_bend_c, 2, 5987
1, 20720, Pitch_bend_c, 3, 5987
1, 20735, Pitch_bend_c, 0, 5803
1, 20735, Pitch_bend_c, 1, 5803
1, 20735, Pitch_bend_c, 2, 5803
1, 20735, Pitch_bend_c, 3, 5803
1, 20750, Pitch_bend_c, 0, 5660
1, 20750, Pitch_bend_c, 1, 5660
1, 20750, Pitch_bend_c, 2, 5660
1, 20750, Pitch_bend_c, 3, 5660
1, 20760, Note_on_c, 9, 35, 0
1, 20760, Control_c, 13, 7, 15
1, 20765, Pitch_bend_c, 0, 5516
1, 20765, Pitch_bend_c, 1, 5516
1, 20765, Pitch_bend_c, 2, 5516
1, 20765, Pitch_bend_c, 3, 5516
1, 20780, Pitch_bend_c, 0, 5380
1, 20780, Pitch_bend_c, 1, 5380
1, 20780, Pitch_bend_c, 2, 5380
1, 20780, Pitch_bend_c, 3, 5380
1, 20800, Pitch_bend_c, 0, 5237
1, 20800, Pitch_bend_c, 1, 5237
1, 20800, Pitch_bend_c, 2, 5237
1, 20800, Pitch_bend_c, 3, 5237
1, 20820, Control_c, 13, 7, 13
1, 20830, Pitch_bend_c, 0, 5100
1, 20830, Pitch_bend_c, 1, 5100
1, 20830, Pitch_bend_c, 2, 5100
1, 20830, Pitch_bend_c, 3, 5100
1, 20880, Note_on_c, 2, 83, 0
1, 20880, Note_on_c, 1, 35, 0
1, 20880, Note_on_c, 0, 47, 0
1, 20880, Note_on_c, 3, 47, 0
1, 20880, Note_on_c, 2, 59, 0
1, 20880, Note_on_c, 2, 71, 0
1, 20880, Note_on_c, 0, 47, 95
1, 20880, Note_on_c, 1, 35, 95
1, 20880, Note_on_c, 2, 83, 64
1, 20880, Note_on_c, 2, 71, 127
1, 20880, Note_on_c, 2, 59, 95
1, 20880, Note_on_c, 3, 47, 64
1, 20880, Control_c, 13, 7, 11
1, 20895, Pitch_bend_c, 0, 4963
1, 20895, Pitch_bend_c, 1, 4963
1, 20895, Pitch_bend_c, 2, 4963
1, 20895, Pitch_bend_c, 3, 4963
1, 20910, Pitch_bend_c, 0, 4636
1, 20910, Pitch_bend_c, 1, 4636
1, 20910, Pitch_bend_c, 2, 4636
1, 20910, Pitch_bend_c, 3, 4636
1, 20925, Pitch_bend_c, 0, 4499
1, 20925, Pitch_bend_c, 1, 4499
1, 20925, Pitch_bend_c, 2, 4499
1, 20925, Pitch_bend_c, 3, 4499
1, 20940, Pitch_bend_c, 0, 4083
1, 20940, Pitch_bend_c, 1, 4083
1, 20940, Pitch_bend_c, 2, 4083
1, 20940, Pitch_bend_c, 3, 4083
1, 20940, Control_c, 13, 7, 9
1, 20960, Pitch_bend_c, 0, 3810
1, 20960, Pitch_bend_c, 1, 3810
1, 20960, Pitch_bend_c, 2, 3810
1, 20960, Pitch_bend_c, 3, 3810
1, 20975, Pitch_bend_c, 0, 3359
1, 20975, Pitch_bend_c, 1, 3359
1, 20975, Pitch_bend_c, 2, 3359
1, 20975, Pitch_bend_c, 3, 3359
1, 20990, Pitch_bend_c, 0, 3086
1, 20990, Pitch_bend_c, 1, 3086
1, 20990, Pitch_bend_c, 2, 3086
1, 20990, Pitch_bend_c, 3, 3086
1, 21000, Control_c, 13, 7, 8
1, 21005, Pitch_bend_c, 0, 2820
1, 21005, Pitch_bend_c, 1, 2820
1, 21005, Pitch_bend_c, 2, 2820
1, 21005, Pitch_bend_c, 3, 2820
1, 21020, Pitch_bend_c, 0, 2683
1, 21020, Pitch_bend_c, 1, 2683
1, 21020, Pitch_bend_c, 2, 2683
1, 21020, Pitch_bend_c, 3, 2683
1, 21020, Control_c, 3, 7, 109
1, 21040, Pitch_bend_c, 0, 2369
1, 21040, Pitch_bend_c, 1, 2369
1, 21040, Pitch_bend_c, 2, 2369
1, 21040, Pitch_bend_c, 3, 2369
1, 21055, Pitch_bend_c, 0, 2240
1, 21055, Pitch_bend_c, 1, 2240
1, 21055, Pitch_bend_c, 2, 2240
1, 21055, Pitch_bend_c, 3, 2240
1, 21060, Control_c, 13, 7, 6
1, 21085, Pitch_bend_c, 0, 2103
1, 21085, Pitch_bend_c, 1, 2103
1, 21085, Pitch_bend_c, 2, 2103
1, 21085, Pitch_bend_c, 3, 2103
1, 21115, Control_c, 2, 7, 110
1, 21120, Note_on_c, 3, 47, 0
1, 21120, Note_on_c, 13, 74, 0
1, 21120, Note_on_c, 13, 60, 0
1, 21120, Note_on_c, 9, 52, 0
1, 21120, Note_on_c, 9, 49, 0
1, 21120, Note_on_c, 13, 65, 0
1, 21120, Note_on_c, 13, 73, 0
1, 21120, Note_on_c, 13, 62, 0
1, 21120, Note_on_c, 13, 72, 0
1, 21120, Note_on_c, 13, 67, 0
1, 21120, Note_on_c, 13, 75, 0
1, 21120, Note_on_c, 13, 69, 0
1, 21120, Note_on_c, 13, 70, 0
1, 21120, Note_on_c, 13, 61, 0
1, 21120, Note_on_c, 13, 63, 0
1, 21120, Note_on_c, 0, 47, 0
1, 21120, Note_on_c, 9, 57, 0
1, 21120, Note_on_c, 13, 64, 0
1, 21120, Note_on_c, 13, 68, 0
1, 21120, Note_on_c, 13, 66, 0
1, 21120, Note_on_c, 2, 71, 0
1, 21120, Note_on_c, 1, 35, 0
1, 21120, Note_on_c, 13, 71, 0
1, 21120, Note_on_c, 2, 59, 0
1, 21120, Note_on_c, 2, 83, 0
1, 21120, Pitch_bend_c, 0, 8192
1, 21120, Note_on_c, 0, 35, 95
1, 21120, Pitch_bend_c, 1, 8192
1, 21120, Note_on_c, 1, 23, 95
1, 21120, Pitch_bend_c, 2, 8192
1, 21120, Note_on_c, 2, 71, 64
1, 21120, Note_on_c, 2, 59, 127
1, 21120, Note_on_c, 2, 47, 95
1, 21120, Pitch_bend_c, 3, 8192
1, 21120, Note_on_c, 3, 35, 64
1, 21120, Note_on_c, 9, 35, 103
1, 21120, Control_c, 13, 7, 0
1, 21240, Note_on_c, 9, 35, 0
1, 21480, Note_on_c, 2, 47, 0
1, 21480, Note_on_c, 1, 23, 0
1, 21480, Note_on_c, 2, 71, 0
1, 21480, Note_on_c, 0, 35, 0
1, 21480, Note_on_c, 3, 35, 0
1, 21480, Note_on_c, 2, 59, 0
1, 21480, Pitch_bend_c, 0, 0
1, 21480, Note_on_c, 0, 47, 95
1, 21480, Pitch_bend_c, 1, 0
1, 21480, Note_on_c, 1, 35, 95
1, 21480, Pitch_bend_c, 2, 0
1, 21480, Note_on_c, 2, 83, 64
1, 21480, Note_on_c, 2, 71, 127
1, 21480, Note_on_c, 2, 59, 95
1, 21480, Pitch_bend_c, 3, 0
1, 21480, Note_on_c, 3, 47, 64
1, 21495, Pitch_bend_c, 0, 8192
1, 21495, Pitch_bend_c, 1, 8192
1, 21495, Pitch_bend_c, 2, 8192
1, 21495, Pitch_bend_c, 3, 8192
1, 21600, Note_on_c, 3, 47, 0
1, 21600, Note_on_c, 1, 35, 0
1, 21600, Note_on_c, 2, 83, 0
1, 21600, Note_on_c, 0, 47, 0
1, 21600, Note_on_c, 2, 59, 0
1, 21600, Note_on_c, 2, 71, 0
1, 21600, Note_on_c, 9, 35, 102
1, 21695, Control_c, 3, 7, 115
1, 21720, Note_on_c, 9, 35, 0
1, 21755, Control_c, 2, 7, 116
1, 21840, Note_on_c, 0, 47, 95
1, 21840, Note_on_c, 1, 35, 95
1, 21840, Note_on_c, 2, 83, 64
1, 21840, Note_on_c, 2, 71, 127
1, 21840, Note_on_c, 2, 59, 95
1, 21840, Note_on_c, 3, 47, 64
1, 22080, Note_on_c, 3, 47, 0
1, 22080, Note_on_c, 1, 35, 0
1, 22080, Note_on_c, 2, 83, 0
1, 22080, Note_on_c, 0, 47, 0
1, 22080, Note_on_c, 2, 59, 0
1, 22080, Note_on_c, 2, 71, 0
1, 22080, Note_on_c, 9, 35, 102
1, 22200, Note_on_c, 9, 35, 0
1, 22200, Note_on_c, 0, 43, 95
1, 22200, Note_on_c, 1, 31, 95
1, 22200, Note_on_c, 2, 79, 64
1, 22200, Note_on_c, 2, 67, 127
1, 22200, Note_on_c, 2, 55, 95
1, 22200, Note_on_c, 3, 43, 64
1, 22320, Note_on_c, 3, 43, 0
1, 22320, Note_on_c, 1, 31, 0
1, 22320, Note_on_c, 2, 79, 0
1, 22320, Note_on_c, 0, 43, 0
1, 22320, Note_on_c, 2, 55, 0
1, 22320, Note_on_c, 2, 67, 0
1, 22320, Pitch_bend_c, 0, 5100
1, 22320, Note_on_c, 0, 47, 95
1, 22320, Pitch_bend_c, 1, 5100
1, 22320, Note_on_c, 1, 35, 95
1, 22320, Pitch_bend_c, 2, 5100
1, 22320, Note_on_c, 2, 83, 64
1, 22320, Note_on_c, 2, 71, 127
1, 22320, Note_on_c, 2, 59, 95
1, 22320, Pitch_bend_c, 3, 5100
1, 22320, Note_on_c, 3, 47, 64
1, 22335, Pitch_bend_c, 0, 6697
1, 22335, Pitch_bend_c, 1, 6697
1, 22335, Pitch_bend_c, 2, 6697
1, 22335, Pitch_bend_c, 3, 6697
1, 22365, Control_c, 3, 7, 121
1, 22395, Control_c, 2, 7, 122
1, 22400, Pitch_bend_c, 0, 6841
1, 22400, Pitch_bend_c, 1, 6841
1, 22400, Pitch_bend_c, 2, 6841
1, 22400, Pitch_bend_c, 3, 6841
1, 22430, Pitch_bend_c, 0, 6984
1, 22430, Pitch_bend_c, 1, 6984
1, 22430, Pitch_bend_c, 2, 6984
1, 22430, Pitch_bend_c, 3, 6984
1, 22445, Pitch_bend_c, 0, 7175
1, 22445, Pitch_bend_c, 1, 7175
1, 22445, Pitch_bend_c, 2, 7175
1, 22445, Pitch_bend_c, 3, 7175
1, 22460, Pitch_bend_c, 0, 7319
1, 22460, Pitch_bend_c, 1, 7319
1, 22460, Pitch_bend_c, 2, 7319
1, 22460, Pitch_bend_c, 3, 7319
1, 22480, Pitch_bend_c, 0, 7612
1, 22480, Pitch_bend_c, 1, 7612
1, 22480, Pitch_bend_c, 2, 7612
1, 22480, Pitch_bend_c, 3, 7612
1, 22495, Pitch_bend_c, 0, 7756
1, 22495, Pitch_bend_c, 1, 7756
1, 22495, Pitch_bend_c, 2, 7756
1, 22495, Pitch_bend_c, 3, 7756
1, 22510, Pitch_bend_c, 0, 7899
1, 22510, Pitch_bend_c, 1, 7899
1, 22510, Pitch_bend_c, 2, 7899
1, 22510, Pitch_bend_c, 3, 7899
1, 22525, Pitch_bend_c, 0, 8049
1, 22525, Pitch_bend_c, 1, 8049
1, 22525, Pitch_bend_c, 2, 8049
1, 22525, Pitch_bend_c, 3, 8049
1, 22540, Pitch_bend_c, 0, 8192
1, 22540, Pitch_bend_c, 1, 8192
1, 22540, Pitch_bend_c, 2, 8192
1, 22540, Pitch_bend_c, 3, 8192
1, 22560, Note_on_c, 3, 47, 0
1, 22560, Note_on_c, 1, 35, 0
1, 22560, Note_on_c, 2, 83, 0
1, 22560, Note_on_c, 0, 47, 0
1, 22560, Note_on_c, 2, 59, 0
1, 22560, Note_on_c, 2, 71, 0
1, 22560, Note_on_c, 0, 47, 95
1, 22560, Note_on_c, 1, 35, 95
1, 22560, Note_on_c, 2, 83, 64
1, 22560, Note_on_c, 2, 71, 127
1, 22560, Note_on_c, 2, 59, 95
1, 22560, Note_on_c, 3, 47, 64
1, 22560, Note_on_c, 9, 35, 103
1, 22680, Note_on_c, 9, 35, 0
1, 22800, Note_on_c, 2, 59, 0
1, 22800, Note_on_c, 1, 35, 0
1, 22800, Note_on_c, 2, 83, 0
1, 22800, Note_on_c, 0, 47, 0
1, 22800, Note_on_c, 3, 47, 0
1, 22800, Note_on_c, 2, 71, 0
1, 22800, Note_on_c, 0, 47, 95
1, 22800, Note_on_c, 1, 35, 95
1, 22800, Note_on_c, 2, 83, 64
1, 22800, Note_on_c, 2, 71, 127
1, 22800, Note_on_c, 2, 59, 95
1, 22800, Note_on_c, 3, 47, 64
1, 22830, Pitch_bend_c, 0, 8335
1, 22830, Pitch_bend_c, 1, 8335
1, 22830, Pitch_bend_c, 2, 8335
1, 22830, Pitch_bend_c, 3, 8335
1, 22880, Pitch_bend_c, 0, 8485
1, 22880, Pitch_bend_c, 1, 8485
1, 22880, Pitch_bend_c, 2, 8485
1, 22880, Pitch_bend_c, 3, 8485
1, 22895, Pitch_bend_c, 0, 8628
1, 22895, Pitch_bend_c, 1, 8628
1, 22895, Pitch_bend_c, 2, 8628
1, 22895, Pitch_bend_c, 3, 8628
1, 22910, Pitch_bend_c, 0, 8772
1, 22910, Pitch_bend_c, 1, 8772
1, 22910, Pitch_bend_c, 2, 8772
1, 22910, Pitch_bend_c, 3, 8772
1, 22925, Pitch_bend_c, 0, 9065
1, 22925, Pitch_bend_c, 1, 9065
1, 22925, Pitch_bend_c, 2, 9065
1, 22925, Pitch_bend_c, 3, 9065
1, 22940, Pitch_bend_c, 0, 9400
1, 22940, Pitch_bend_c, 1, 9400
1, 22940, Pitch_bend_c, 2, 9400
1, 22940, Pitch_bend_c, 3, 9400
1, 22960, Pitch_bend_c, 0, 9543
1, 22960, Pitch_bend_c, 1, 9543
1, 22960, Pitch_bend_c, 2, 9543
1, 22960, Pitch_bend_c, 3, 9543
1, 22975, Pitch_bend_c, 0, 9830
1, 22975, Pitch_bend_c, 1, 9830
1, 22975, Pitch_bend_c, 2, 9830
1, 22975, Pitch_bend_c, 3, 9830
1, 22990, Pitch_bend_c, 0, 10110
1, 22990, Pitch_bend_c, 1, 10110
1, 22990, Pitch_bend_c, 2, 10110
1, 22990, Pitch_bend_c, 3, 10110
1, 23005, Pitch_bend_c, 0, 10253
1, 23005, Pitch_bend_c, 1, 10253
1, 23005, Pitch_bend_c, 2, 10253
1, 23005, Pitch_bend_c, 3, 10253
1, 23020, Pitch_bend_c, 0, 10397
1, 23020, Pitch_bend_c, 1, 10397
1, 23020, Pitch_bend_c, 2, 10397
1, 23020, Pitch_bend_c, 3, 10397
1, 23035, Control_c, 2, 7, 127
1, 23035, Control_c, 3, 7, 127
1, 23040, Note_on_c, 3, 47, 0
1, 23040, Note_on_c, 1, 35, 0
1, 23040, Note_on_c, 2, 83, 0
1, 23040, Note_on_c, 0, 47, 0
1, 23040, Note_on_c, 2, 59, 0
1, 23040, Note_on_c, 2, 71, 0
1, 23040, Note_on_c, 4, 67, 101
1, 23040, Note_on_c, 4, 79, 101
1, 23040, Note_on_c, 4, 71, 101
1, 23040, Note_on_c, 4, 83, 101
1, 23040, Note_on_c, 6, 71, 101
1, 23040, Note_on_c, 6, 55, 101
1, 23040, Note_on_c, 6, 67, 101
1, 23040, Note_on_c, 6, 59, 101
1, 23280, Note_on_c, 6, 59, 0
1, 23280, Note_on_c, 4, 67, 0
1, 23280, Note_on_c, 6, 71, 0
1, 23280, Note_on_c, 4, 79, 0
1, 23280, Note_on_c, 4, 71, 0
1, 23280, Note_on_c, 4, 83, 0
1, 23280, Note_on_c, 6, 55, 0
1, 23280, Note_on_c, 6, 67, 0
1, 23400, Note_on_c, 4, 67, 101
1, 23400, Note_on_c, 4, 79, 101
1, 23400, Note_on_c, 4, 71, 101
1, 23400, Note_on_c, 4, 83, 101
1, 23400, Note_on_c, 6, 71, 101
1, 23400, Note_on_c, 6, 59, 101
1, 23400, Note_on_c, 6, 67, 101
1, 23400, Note_on_c, 6, 55, 101
1, 23640, Note_on_c, 6, 55, 0
1, 23640, Note_on_c, 4, 67, 0
1, 23640, Note_on_c, 6, 71, 0
1, 23640, Note_on_c, 4, 79, 0
1, 23640, Note_on_c, 4, 71, 0
1, 23640, Note_on_c, 4, 83, 0
1, 23640, Note_on_c, 6, 59, 0
1, 23640, Note_on_c, 6, 67, 0
1, 23760, Note_on_c, 4, 83, 101
1, 23760, Note_on_c, 4, 71, 101
1, 23760, Note_on_c, 4, 79, 101
1, 23760, Note_on_c, 4, 67, 101
1, 23760, Note_on_c, 6, 71, 101
1, 23760, Note_on_c, 6, 59, 101
1, 23760, Note_on_c, 6, 67, 101
1, 23760, Note_on_c, 6, 55, 101
1, 24000, Note_on_c, 6, 55, 0
1, 24000, Note_on_c, 4, 83, 0
1, 24000, Note_on_c, 6, 71, 0
1, 24000, Note_on_c, 4, 71, 0
1, 24000, Note_on_c, 4, 79, 0
1, 24000, Note_on_c, 4, 67, 0
1, 24000, Note_on_c, 6, 59, 0
1, 24000, Note_on_c, 6, 67, 0
1, 24000, Note_on_c, 4, 69, 101
1, 24000, Note_on_c, 4, 81, 101
1, 24000, Note_on_c, 4, 73, 101
1, 24000, Note_on_c, 4, 85, 101
1, 24000, Note_on_c, 6, 73, 101
1, 24000, Note_on_c, 6, 61, 101
1, 24000, Note_on_c, 6, 69, 101
1, 24000, Note_on_c, 6, 57, 101
1, 24000, Note_on_c, 8, 52, 127
1, 24000, Note_on_c, 9, 41, 127
1, 24000, Note_on_c, 12, 60, 103
1, 24120, Note_on_c, 9, 41, 0
1, 24240, Note_on_c, 6, 57, 0
1, 24240, Note_on_c, 4, 73, 0
1, 24240, Note_on_c, 4, 85, 0
1, 24240, Note_on_c, 4, 69, 0
1, 24240, Note_on_c, 6, 73, 0
1, 24240, Note_on_c, 4, 81, 0
1, 24240, Note_on_c, 6, 69, 0
1, 24240, Note_on_c, 6, 61, 0
1, 24360, Note_on_c, 4, 85, 101
1, 24360, Note_on_c, 4, 73, 101
1, 24360, Note_on_c, 4, 81, 101
1, 24360, Note_on_c, 4, 69, 101
1, 24360, Note_on_c, 6, 73, 101
1, 24360, Note_on_c, 6, 61, 101
1, 24360, Note_on_c, 6, 69, 101
1, 24360, Note_on_c, 6, 57, 101
1, 24360, Note_on_c, 9, 44, 80
1, 24360, Note_on_c, 9, 38, 80
1, 24480, Note_on_c, 9, 38, 0
1, 24480, Note_on_c, 9, 44, 0
1, 24480, Note_on_c, 9, 38, 80
1, 24600, Note_on_c, 9, 38, 0
1, 24600, Note_on_c, 6, 69, 0
1, 24600, Note_on_c, 4, 85, 0
1, 24600, Note_on_c, 4, 73, 0
1, 24600, Note_on_c, 6, 61, 0
1, 24600, Note_on_c, 4, 81, 0
1, 24600, Note_on_c, 6, 73, 0
1, 24600, Note_on_c, 6, 57, 0
1, 24600, Note_on_c, 4, 69, 0
1, 24720, Note_on_c, 8, 52, 0
1, 24720, Note_on_c, 4, 69, 101
1, 24720, Note_on_c, 4, 81, 101
1, 24720, Note_on_c, 4, 73, 101
1, 24720, Note_on_c, 4, 85, 101
1, 24720, Note_on_c, 6, 73, 101
1, 24720, Note_on_c, 6, 61, 101
1, 24720, Note_on_c, 6, 69, 101
1, 24720, Note_on_c, 6, 57, 101
1, 24720, Note_on_c, 8, 56, 127
1, 24720, Note_on_c, 9, 43, 127
1, 24840, Note_on_c, 9, 43, 0
1, 24960, Note_on_c, 6, 69, 0
1, 24960, Note_on_c, 4, 81, 0
1, 24960, Note_on_c, 4, 73, 0
1, 24960, Note_on_c, 8, 56, 0
1, 24960, Note_on_c, 4, 85, 0
1, 24960, Note_on_c, 4, 69, 0
1, 24960, Note_on_c, 6, 57, 0
1, 24960, Note_on_c, 6, 61, 0
1, 24960, Note_on_c, 6, 73, 0
1, 24960, Pitch_bend_c, 0, 8192
1, 24960, Note_on_c, 0, 35, 95
1, 24960, Pitch_bend_c, 1, 8192
1, 24960, Note_on_c, 1, 23, 95
1, 24960, Pitch_bend_c, 2, 8192
1, 24960, Note_on_c, 2, 71, 64
1, 24960, Note_on_c, 2, 59, 127
1, 24960, Note_on_c, 2, 47, 95
1, 24960, Pitch_bend_c, 3, 8192
1, 24960, Note_on_c, 3, 35, 64
1, 24960, Note_on_c, 9, 55, 127
1, 24960, Note_on_c, 9, 57, 127
1, 24960, Note_on_c, 9, 49, 127
1, 24960, Note_on_c, 9, 42, 100
1, 24960, Note_on_c, 9, 35, 103
1, 25080, Note_on_c, 9, 35, 0
1, 25080, Note_on_c, 12, 60, 0
1, 25200, Note_on_c, 9, 42, 0
1, 25320, Note_on_c, 2, 71, 0
1, 25320, Note_on_c, 0, 35, 0
1, 25320, Note_on_c, 2, 59, 0
1, 25320, Note_on_c, 2, 47, 0
1, 25320, Note_on_c, 3, 35, 0
1, 25320, Note_on_c, 1, 23, 0
1, 25320, Pitch_bend_c, 0, 0
1, 25320, Note_on_c, 0, 47, 95
1, 25320, Pitch_bend_c, 1, 0
1, 25320, Note_on_c, 1, 35, 95
1, 25320, Pitch_bend_c, 2, 0
1, 25320, Note_on_c, 2, 83, 64
1, 25320, Note_on_c, 2, 71, 127
1, 25320, Note_on_c, 2, 59, 95
1, 25320, Pitch_bend_c, 3, 0
1, 25320, Note_on_c, 3, 47, 64
1, 25335, Pitch_bend_c, 0, 8192
1, 25335, Pitch_bend_c, 1, 8192
1, 25335, Pitch_bend_c, 2, 8192
1, 25335, Pitch_bend_c, 3, 8192
1, 25440, Note_on_c, 3, 47, 0
1, 25440, Note_on_c, 0, 47, 0
1, 25440, Note_on_c, 2, 59, 0
1, 25440, Note_on_c, 1, 35, 0
1, 25440, Note_on_c, 2, 71, 0
1, 25440, Note_on_c, 2, 83, 0
1, 25440, Note_on_c, 9, 42, 63
1, 25440, Note_on_c, 9, 35, 102
1, 25560, Note_on_c, 9, 35, 0
1, 25680, Note_on_c, 9, 42, 0
1, 25680, Note_on_c, 0, 47, 95
1, 25680, Note_on_c, 1, 35, 95
1, 25680, Note_on_c, 2, 83, 64
1, 25680, Note_on_c, 2, 71, 127
1, 25680, Note_on_c, 2, 59, 95
1, 25680, Note_on_c, 3, 47, 64
1, 25920, Note_on_c, 3, 47, 0
1, 25920, Note_on_c, 0, 47, 0
1, 25920, Note_on_c, 2, 59, 0
1, 25920, Note_on_c, 1, 35, 0
1, 25920, Note_on_c, 2, 71, 0
1, 25920, Note_on_c, 2, 83, 0
1, 25920, Note_on_c, 9, 42, 79
1, 25920, Note_on_c, 9, 35, 102
1, 26040, Note_on_c, 9, 35, 0
1, 26040, Note_on_c, 0, 43, 95
1, 26040, Note_on_c, 1, 31, 95
1, 26040, Note_on_c, 2, 79, 64
1, 26040, Note_on_c, 2, 67, 127
1, 26040, Note_on_c, 2, 55, 95
1, 26040, Note_on_c, 3, 43, 64
1, 26160, Note_on_c, 3, 43, 0
1, 26160, Note_on_c, 2, 55, 0
1, 26160, Note_on_c, 2, 79, 0
1, 26160, Note_on_c, 9, 42, 0
1, 26160, Note_on_c, 0, 43, 0
1, 26160, Note_on_c, 2, 67, 0
1, 26160, Note_on_c, 1, 31, 0
1, 26160, Pitch_bend_c, 0, 5100
1, 26160, Note_on_c, 0, 47, 95
1, 26160, Pitch_bend_c, 1, 5100
1, 26160, Note_on_c, 1, 35, 95
1, 26160, Pitch_bend_c, 2, 5100
1, 26160, Note_on_c, 2, 83, 64
1, 26160, Note_on_c, 2, 71, 127
1, 26160, Note_on_c, 2, 59, 95
1, 26160, Pitch_bend_c, 3, 5100
1, 26160, Note_on_c, 3, 47, 64
1, 26175, Pitch_bend_c, 0, 6697
1, 26175, Pitch_bend_c, 1, 6697
1, 26175, Pitch_bend_c, 2, 6697
1, 26175, Pitch_bend_c, 3, 6697
1, 26240, Pitch_bend_c, 0, 6841
1, 26240, Pitch_bend_c, 1, 6841
1, 26240, Pitch_bend_c, 2, 6841
1, 26240, Pitch_bend_c, 3, 6841
1, 26270, Pitch_bend_c, 0, 6984
1, 26270, Pitch_bend_c, 1, 6984
1, 26270, Pitch_bend_c, 2, 6984
1, 26270, Pitch_bend_c, 3, 6984
1, 26285, Pitch_bend_c, 0, 7175
1, 26285, Pitch_bend_c, 1, 7175
1, 26285, Pitch_bend_c, 2, 7175
1, 26285, Pitch_bend_c, 3, 7175
1, 26300, Pitch_bend_c, 0, 7319
1, 26300, Pitch_bend_c, 1, 7319
1, 26300, Pitch_bend_c, 2, 7319
1, 26300, Pitch_bend_c, 3, 7319
1, 26320, Pitch_bend_c, 0, 7612
1, 26320, Pitch_bend_c, 1, 7612
1, 26320, Pitch_bend_c, 2, 7612
1, 26320, Pitch_bend_c, 3, 7612
1, 26335, Pitch_bend_c, 0, 7756
1, 26335, Pitch_bend_c, 1, 7756
1, 26335, Pitch_bend_c, 2, 7756
1, 26335, Pitch_bend_c, 3, 7756
1, 26350, Pitch_bend_c, 0, 7899
1, 26350, Pitch_bend_c, 1, 7899
1, 26350, Pitch_bend_c, 2, 7899
1, 26350, Pitch_bend_c, 3, 7899
1, 26365, Pitch_bend_c, 0, 8049
1, 26365, Pitch_bend_c, 1, 8049
1, 26365, Pitch_bend_c, 2, 8049
1, 26365, Pitch_bend_c, 3, 8049
1, 26380, Pitch_bend_c, 0, 8192
1, 26380, Pitch_bend_c, 1, 8192
1, 26380, Pitch_bend_c, 2, 8192
1, 26380, Pitch_bend_c, 3, 8192
1, 26400, Note_on_c, 3, 47, 0
1, 26400, Note_on_c, 0, 47, 0
1, 26400, Note_on_c, 2, 59, 0
1, 26400, Note_on_c, 1, 35, 0
1, 26400, Note_on_c, 2, 71, 0
1, 26400, Note_on_c, 2, 83, 0
1, 26400, Note_on_c, 0, 47, 95
1, 26400, Note_on_c, 1, 35, 95
1, 26400, Note_on_c, 2, 83, 64
1, 26400, Note_on_c, 2, 71, 127
1, 26400, Note_on_c, 2, 59, 95
1, 26400, Note_on_c, 3, 47, 64
1, 26400, Note_on_c, 9, 42, 63
1, 26400, Note_on_c, 9, 35, 103
1, 26520, Note_on_c, 9, 35, 0
1, 26640, Note_on_c, 2, 59, 0
1, 26640, Note_on_c, 9, 42, 0
1, 26640, Note_on_c, 2, 71, 0
1, 26640, Note_on_c, 0, 47, 0
1, 26640, Note_on_c, 1, 35, 0
1, 26640, Note_on_c, 3, 47, 0
1, 26640, Note_on_c, 2, 83, 0
1, 26640, Note_on_c, 0, 47, 95
1, 26640, Note_on_c, 1, 35, 95
1, 26640, Note_on_c, 2, 83, 64
1, 26640, Note_on_c, 2, 71, 127
1, 26640, Note_on_c, 2, 59, 95
1, 26640, Note_on_c, 3, 47, 64
1, 26670, Pitch_bend_c, 0, 8335
1, 26670, Pitch_bend_c, 1, 8335
1, 26670, Pitch_bend_c, 2, 8335
1, 26670, Pitch_bend_c, 3, 8335
1, 26720, Pitch_bend_c, 0, 8485
1, 26720, Pitch_bend_c, 1, 8485
1, 26720, Pitch_bend_c, 2, 8485
1, 26720, Pitch_bend_c, 3, 8485
1, 26735, Pitch_bend_c, 0, 8628
1, 26735, Pitch_bend_c, 1, 8628
1, 26735, Pitch_bend_c, 2, 8628
1, 26735, Pitch_bend_c, 3, 8628
1, 26750, Pitch_bend_c, 0, 8772
1, 26750, Pitch_bend_c, 1, 8772
1, 26750, Pitch_bend_c, 2, 8772
1, 26750, Pitch_bend_c, 3, 8772
1, 26765, Pitch_bend_c, 0, 9065
1, 26765, Pitch_bend_c, 1, 9065
1, 26765, Pitch_bend_c, 2, 9065
1, 26765, Pitch_bend_c, 3, 9065
1, 26780, Pitch_bend_c, 0, 9400
1, 26780, Pitch_bend_c, 1, 9400
1, 26780, Pitch_bend_c, 2, 9400
1, 26780, Pitch_bend_c, 3, 9400
1, 26800, Pitch_bend_c, 0, 9543
1, 26800, Pitch_bend_c, 1, 9543
1, 26800, Pitch_bend_c, 2, 9543
1, 26800, Pitch_bend_c, 3, 9543
1, 26815, Pitch_bend_c, 0, 9830
1, 26815, Pitch_bend_c, 1, 9830
1, 26815, Pitch_bend_c, 2, 9830
1, 26815, Pitch_bend_c, 3, 9830
1, 26830, Pitch_bend_c, 0, 10110
1, 26830, Pitch_bend_c, 1, 10110
1, 26830, Pitch_bend_c, 2, 10110
1, 26830, Pitch_bend_c, 3, 10110
1, 26845, Pitch_bend_c, 0, 10253
1, 26845, Pitch_bend_c, 1, 10253
1, 26845, Pitch_bend_c, 2, 10253
1, 26845, Pitch_bend_c, 3, 10253
1, 26860, Pitch_bend_c, 0, 10397
1, 26860, Pitch_bend_c, 1, 10397
1, 26860, Pitch_bend_c, 2, 10397
1, 26860, Pitch_bend_c, 3, 10397
1, 26880, Note_on_c, 3, 47, 0
1, 26880, Note_on_c, 0, 47, 0
1, 26880, Note_on_c, 9, 55, 0
1, 26880, Note_on_c, 1, 35, 0
1, 26880, Note_on_c, 9, 49, 0
1, 26880, Note_on_c, 9, 57, 0
1, 26880, Note_on_c, 2, 71, 0
1, 26880, Note_on_c, 2, 83, 0
1, 26880, Note_on_c, 2, 59, 0
1, 26880, Pitch_bend_c, 0, 12165
1, 26880, Note_on_c, 0, 35, 95
1, 26880, Pitch_bend_c, 1, 12165
1, 26880, Note_on_c, 1, 23, 95
1, 26880, Pitch_bend_c, 2, 12165
1, 26880, Note_on_c, 2, 71, 64
1, 26880, Note_on_c, 2, 59, 127
1, 26880, Note_on_c, 2, 47, 95
1, 26880, Pitch_bend_c, 3, 12165
1, 26880, Note_on_c, 3, 35, 64
1, 26880, Note_on_c, 9, 42, 100
1, 26880, Note_on_c, 9, 35, 103
1, 26895, Pitch_bend_c, 0, 8192
1, 26895, Pitch_bend_c, 1, 8192
1, 26895, Pitch_bend_c, 2, 8192
1, 26895, Pitch_bend_c, 3, 8192
1, 27000, Note_on_c, 9, 35, 0
1, 27120, Note_on_c, 9, 42, 0
1, 27240, Note_on_c, 2, 47, 0
1, 27240, Note_on_c, 1, 23, 0
1, 27240, Note_on_c, 2, 71, 0
1, 27240, Note_on_c, 2, 59, 0
1, 27240, Note_on_c, 3, 35, 0
1, 27240, Note_on_c, 0, 35, 0
1, 27240, Pitch_bend_c, 0, 0
1, 27240, Note_on_c, 0, 47, 95
1, 27240, Pitch_bend_c, 1, 0
1, 27240, Note_on_c, 1, 35, 95
1, 27240, Pitch_bend_c, 2, 0
1, 27240, Note_on_c, 2, 83, 64
1, 27240, Note_on_c, 2, 71, 127
1, 27240, Note_on_c, 2, 59, 95
1, 27240, Pitch_bend_c, 3, 0
1, 27240, Note_on_c, 3, 47, 64
1, 27255, Pitch_bend_c, 0, 8192
1, 27255, Pitch_bend_c, 1, 8192
1, 27255, Pitch_bend_c, 2, 8192
1, 27255, Pitch_bend_c, 3, 8192
1, 27360, Note_on_c, 3, 47, 0
1, 27360, Note_on_c, 1, 35, 0
1, 27360, Note_on_c, 2, 83, 0
1, 27360, Note_on_c, 0, 47, 0
1, 27360, Note_on_c, 2, 59, 0
1, 27360, Note_on_c, 2, 71, 0
1, 27360, Note_on_c, 9, 42, 64
1, 27360, Note_on_c, 9, 35, 103
1, 27480, Note_on_c, 9, 35, 0
1, 27600, Note_on_c, 9, 42, 0
1, 27600, Note_on_c, 0, 47, 95
1, 27600, Note_on_c, 1, 35, 95
1, 27600, Note_on_c, 2, 83, 64
1, 27600, Note_on_c, 2, 71, 127
1, 27600, Note_on_c, 2, 59, 95
1, 27600, Note_on_c, 3, 47, 64
1, 27840, Note_on_c, 3, 47, 0
1, 27840, Note_on_c, 1, 35, 0
1, 27840, Note_on_c, 2, 83, 0
1, 27840, Note_on_c, 0, 47, 0
1, 27840, Note_on_c, 2, 59, 0
1, 27840, Note_on_c, 2, 71, 0
1, 27840, Note_on_c, 0, 47, 95
1, 27840, Note_on_c, 1, 35, 95
1, 27840, Note_on_c, 2, 83, 64
1, 27840, Note_on_c, 2, 71, 127
1, 27840, Note_on_c, 2, 59, 95
1, 27840, Note_on_c, 3, 47, 64
1, 27840, Note_on_c, 9, 42, 80
1, 27840, Note_on_c, 9, 35, 104
1, 27870, Pitch_bend_c, 0, 8049
1, 27870, Pitch_bend_c, 1, 8049
1, 27870, Pitch_bend_c, 2, 8049
1, 27870, Pitch_bend_c, 3, 8049
1, 27900, Pitch_bend_c, 0, 7899
1, 27900, Pitch_bend_c, 1, 7899
1, 27900, Pitch_bend_c, 2, 7899
1, 27900, Pitch_bend_c, 3, 7899
1, 27935, Pitch_bend_c, 0, 7756
1, 27935, Pitch_bend_c, 1, 7756
1, 27935, Pitch_bend_c, 2, 7756
1, 27935, Pitch_bend_c, 3, 7756
1, 27960, Note_on_c, 9, 35, 0
1, 27965, Pitch_bend_c, 0, 7612
1, 27965, Pitch_bend_c, 1, 7612
1, 27965, Pitch_bend_c, 2, 7612
1, 27965, Pitch_bend_c, 3, 7612
1, 28000, Pitch_bend_c, 0, 7469
1, 28000, Pitch_bend_c, 1, 7469
1, 28000, Pitch_bend_c, 2, 7469
1, 28000, Pitch_bend_c, 3, 7469
1, 28020, Note_on_c, 0, 47, 0
1, 28020, Note_on_c, 3, 47, 0
1, 28020, Note_on_c, 1, 35, 0
1, 28020, Note_on_c, 2, 83, 0
1, 28020, Note_on_c, 2, 71, 0
1, 28020, Note_on_c, 2, 59, 0
1, 28080, Note_on_c, 9, 42, 0
1, 28080, Note_on_c, 0, 47, 95
1, 28080, Note_on_c, 1, 35, 95
1, 28080, Note_on_c, 2, 83, 64
1, 28080, Note_on_c, 2, 71, 127
1, 28080, Note_on_c, 2, 59, 95
1, 28080, Note_on_c, 3, 47, 64
1, 28095, Pitch_bend_c, 0, 7319
1, 28095, Pitch_bend_c, 1, 7319
1, 28095, Pitch_bend_c, 2, 7319
1, 28095, Pitch_bend_c, 3, 7319
1, 28140, Pitch_bend_c, 0, 7175
1, 28140, Pitch_bend_c, 1, 7175
1, 28140, Pitch_bend_c, 2, 7175
1, 28140, Pitch_bend_c, 3, 7175
1, 28160, Pitch_bend_c, 0, 6984
1, 28160, Pitch_bend_c, 1, 6984
1, 28160, Pitch_bend_c, 2, 6984
1, 28160, Pitch_bend_c, 3, 6984
1, 28190, Pitch_bend_c, 0, 6841
1, 28190, Pitch_bend_c, 1, 6841
1, 28190, Pitch_bend_c, 2, 6841
1, 28190, Pitch_bend_c, 3, 6841
1, 28220, Pitch_bend_c, 0, 6697
1, 28220, Pitch_bend_c, 1, 6697
1, 28220, Pitch_bend_c, 2, 6697
1, 28220, Pitch_bend_c, 3, 6697
1, 28300, Pitch_bend_c, 0, 6554
1, 28300, Pitch_bend_c, 1, 6554
1, 28300, Pitch_bend_c, 2, 6554
1, 28300, Pitch_bend_c, 3, 6554
1, 28320, Note_on_c, 3, 47, 0
1, 28320, Note_on_c, 1, 35, 0
1, 28320, Note_on_c, 2, 83, 0
1, 28320, Note_on_c, 0, 47, 0
1, 28320, Note_on_c, 2, 59, 0
1, 28320, Note_on_c, 2, 71, 0
1, 28320, Note_on_c, 0, 47, 95
1, 28320, Note_on_c, 1, 35, 95
1, 28320, Note_on_c, 2, 83, 64
1, 28320, Note_on_c, 2, 71, 127
1, 28320, Note_on_c, 2, 59, 95
1, 28320, Note_on_c, 3, 47, 64
1, 28320, Note_on_c, 9, 42, 65
1, 28320, Note_on_c, 9, 35, 104
1, 28350, Pitch_bend_c, 0, 6418
1, 28350, Pitch_bend_c, 1, 6418
1, 28350, Pitch_bend_c, 2, 6418
1, 28350, Pitch_bend_c, 3, 6418
1, 28365, Pitch_bend_c, 0, 6274
1, 28365, Pitch_bend_c, 1, 6274
1, 28365, Pitch_bend_c, 2, 6274
1, 28365, Pitch_bend_c, 3, 6274
1, 28380, Pitch_bend_c, 0, 6131
1, 28380, Pitch_bend_c, 1, 6131
1, 28380, Pitch_bend_c, 2, 6131
1, 28380, Pitch_bend_c, 3, 6131
1, 28400, Pitch_bend_c, 0, 5987
1, 28400, Pitch_bend_c, 1, 5987
1, 28400, Pitch_bend_c, 2, 5987
1, 28400, Pitch_bend_c, 3, 5987
1, 28415, Pitch_bend_c, 0, 5803
1, 28415, Pitch_bend_c, 1, 5803
1, 28415, Pitch_bend_c, 2, 5803
1, 28415, Pitch_bend_c, 3, 5803
1, 28430, Pitch_bend_c, 0, 5660
1, 28430, Pitch_bend_c, 1, 5660
1, 28430, Pitch_bend_c, 2, 5660
1, 28430, Pitch_bend_c, 3, 5660
1, 28440, Note_on_c, 9, 35, 0
1, 28445, Pitch_bend_c, 0, 5516
1, 28445, Pitch_bend_c, 1, 5516
1, 28445, Pitch_bend_c, 2, 5516
1, 28445, Pitch_bend_c, 3, 5516
1, 28460, Pitch_bend_c, 0, 5380
1, 28460, Pitch_bend_c, 1, 5380
1, 28460, Pitch_bend_c, 2, 5380
1, 28460, Pitch_bend_c, 3, 5380
1, 28480, Pitch_bend_c, 0, 5237
1, 28480, Pitch_bend_c, 1, 5237
1, 28480, Pitch_bend_c, 2, 5237
1, 28480, Pitch_bend_c, 3, 5237
1, 28510, Pitch_bend_c, 0, 5100
1, 28510, Pitch_bend_c, 1, 5100
1, 28510, Pitch_bend_c, 2, 5100
1, 28510, Pitch_bend_c, 3, 5100
1, 28560, Note_on_c, 0, 47, 0
1, 28560, Note_on_c, 2, 59, 0
1, 28560, Note_on_c, 1, 35, 0
1, 28560, Note_on_c, 2, 83, 0
1, 28560, Note_on_c, 2, 71, 0
1, 28560, Note_on_c, 3, 47, 0
1, 28560, Note_on_c, 9, 42, 0
1, 28560, Note_on_c, 0, 47, 95
1, 28560, Note_on_c, 1, 35, 95
1, 28560, Note_on_c, 2, 83, 64
1, 28560, Note_on_c, 2, 71, 127
1, 28560, Note_on_c, 2, 59, 95
1, 28560, Note_on_c, 3, 47, 64
1, 28575, Pitch_bend_c, 0, 4963
1, 28575, Pitch_bend_c, 1, 4963
1, 28575, Pitch_bend_c, 2, 4963
1, 28575, Pitch_bend_c, 3, 4963
1, 28590, Pitch_bend_c, 0, 4636
1, 28590, Pitch_bend_c, 1, 4636
1, 28590, Pitch_bend_c, 2, 4636
1, 28590, Pitch_bend_c, 3, 4636
1, 28605, Pitch_bend_c, 0, 4499
1, 28605, Pitch_bend_c, 1, 4499
1, 28605, Pitch_bend_c, 2, 4499
1, 28605, Pitch_bend_c, 3, 4499
1, 28620, Pitch_bend_c, 0, 4083
1, 28620, Pitch_bend_c, 1, 4083
1, 28620, Pitch_bend_c, 2, 4083
1, 28620, Pitch_bend_c, 3, 4083
1, 28640, Pitch_bend_c, 0, 3810
1, 28640, Pitch_bend_c, 1, 3810
1, 28640, Pitch_bend_c, 2, 3810
1, 28640, Pitch_bend_c, 3, 3810
1, 28655, Pitch_bend_c, 0, 3359
1, 28655, Pitch_bend_c, 1, 3359
1, 28655, Pitch_bend_c, 2, 3359
1, 28655, Pitch_bend_c, 3, 3359
1, 28670, Pitch_bend_c, 0, 3086
1, 28670, Pitch_bend_c, 1, 3086
1, 28670, Pitch_bend_c, 2, 3086
1, 28670, Pitch_bend_c, 3, 3086
1, 28685, Pitch_bend_c, 0, 2820
1, 28685, Pitch_bend_c, 1, 2820
1, 28685, Pitch_bend_c, 2, 2820
1, 28685, Pitch_bend_c, 3, 2820
1, 28700, Pitch_bend_c, 0, 2683
1, 28700, Pitch_bend_c, 1, 2683
1, 28700, Pitch_bend_c, 2, 2683
1, 28700, Pitch_bend_c, 3, 2683
1, 28720, Pitch_bend_c, 0, 2369
1, 28720, Pitch_bend_c, 1, 2369
1, 28720, Pitch_bend_c, 2, 2369
1, 28720, Pitch_bend_c, 3, 2369
1, 28735, Pitch_bend_c, 0, 2240
1, 28735, Pitch_bend_c, 1, 2240
1, 28735, Pitch_bend_c, 2, 2240
1, 28735, Pitch_bend_c, 3, 2240
1, 28765, Pitch_bend_c, 0, 2103
1, 28765, Pitch_bend_c, 1, 2103
1, 28765, Pitch_bend_c, 2, 2103
1, 28765, Pitch_bend_c, 3, 2103
1, 28800, Note_on_c, 3, 47, 0
1, 28800, Note_on_c, 1, 35, 0
1, 28800, Note_on_c, 2, 83, 0
1, 28800, Note_on_c, 0, 47, 0
1, 28800, Note_on_c, 2, 59, 0
1, 28800, Note_on_c, 2, 71, 0
1, 28800, Pitch_bend_c, 0, 8192
1, 28800, Note_on_c, 0, 35, 95
1, 28800, Pitch_bend_c, 1, 8192
1, 28800, Note_on_c, 1, 23, 95
1, 28800, Pitch_bend_c, 2, 8192
1, 28800, Note_on_c, 2, 71, 64
1, 28800, Note_on_c, 2, 59, 127
1, 28800, Note_on_c, 2, 47, 95
1, 28800, Pitch_bend_c, 3, 8192
1, 28800, Note_on_c, 3, 35, 64
1, 28800, Note_on_c, 9, 42, 100
1, 28800, Note_on_c, 9, 35, 103
1, 28920, Note_on_c, 9, 35, 0
1, 29040, Note_on_c, 9, 42, 0
1, 29160, Note_on_c, 2, 47, 0
1, 29160, Note_on_c, 1, 23, 0
1, 29160, Note_on_c, 2, 71, 0
1, 29160, Note_on_c, 2, 59, 0
1, 29160, Note_on_c, 3, 35, 0
1, 29160, Note_on_c, 0, 35, 0
1, 29160, Pitch_bend_c, 0, 0
1, 29160, Note_on_c, 0, 47, 95
1, 29160, Pitch_bend_c, 1, 0
1, 29160, Note_on_c, 1, 35, 95
1, 29160, Pitch_bend_c, 2, 0
1, 29160, Note_on_c, 2, 83, 64
1, 29160, Note_on_c, 2, 71, 127
1, 29160, Note_on_c, 2, 59, 95
1, 29160, Pitch_bend_c, 3, 0
1, 29160, Note_on_c, 3, 47, 64
1, 29175, Pitch_bend_c, 0, 8192
1, 29175, Pitch_bend_c, 1, 8192
1, 29175, Pitch_bend_c, 2, 8192
1, 29175, Pitch_bend_c, 3, 8192
1, 29280, Note_on_c, 3, 47, 0
1, 29280, Note_on_c, 1, 35, 0
1, 29280, Note_on_c, 2, 83, 0
1, 29280, Note_on_c, 0, 47, 0
1, 29280, Note_on_c, 2, 59, 0
1, 29280, Note_on_c, 2, 71, 0
1, 29280, Note_on_c, 9, 42, 63
1, 29280, Note_on_c, 9, 35, 102
1, 29400, Note_on_c, 9, 35, 0
1, 29520, Note_on_c, 9, 42, 0
1, 29520, Note_on_c, 0, 47, 95
1, 29520, Note_on_c, 1, 35, 95
1, 29520, Note_on_c, 2, 83, 64
1, 29520, Note_on_c, 2, 71, 127
1, 29520, Note_on_c, 2, 59, 95
1, 29520, Note_on_c, 3, 47, 64
1, 29760, Note_on_c, 3, 47, 0
1, 29760, Note_on_c, 1, 35, 0
1, 29760, Note_on_c, 2, 83, 0
1, 29760, Note_on_c, 0, 47, 0
1, 29760, Note_on_c, 2, 59, 0
1, 29760, Note_on_c, 2, 71, 0
1, 29760, Note_on_c, 9, 42, 79
1, 29760, Note_on_c, 9, 35, 102
1, 29880, Note_on_c, 9, 35, 0
1, 29880, Note_on_c, 0, 43, 95
1, 29880, Note_on_c, 1, 31, 95
1, 29880, Note_on_c, 2, 79, 64
1, 29880, Note_on_c, 2, 67, 127
1, 29880, Note_on_c, 2, 55, 95
1, 29880, Note_on_c, 3, 43, 64
1, 30000, Note_on_c, 3, 43, 0
1, 30000, Note_on_c, 2, 67, 0
1, 30000, Note_on_c, 0, 43, 0
1, 30000, Note_on_c, 1, 31, 0
1, 30000, Note_on_c, 9, 42, 0
1, 30000, Note_on_c, 2, 55, 0
1, 30000, Note_on_c, 2, 79, 0
1, 30000, Pitch_bend_c, 0, 5100
1, 30000, Note_on_c, 0, 47, 95
1, 30000, Pitch_bend_c, 1, 5100
1, 30000, Note_on_c, 1, 35, 95
1, 30000, Pitch_bend_c, 2, 5100
1, 30000, Note_on_c, 2, 83, 64
1, 30000, Note_on_c, 2, 71, 127
1, 30000, Note_on_c, 2, 59, 95
1, 30000, Pitch_bend_c, 3, 5100
1, 30000, Note_on_c, 3, 47, 64
1, 30015, Pitch_bend_c, 0, 6697
1, 30015, Pitch_bend_c, 1, 6697
1, 30015, Pitch_bend_c, 2, 6697
1, 30015, Pitch_bend_c, 3, 6697
1, 30080, Pitch_bend_c, 0, 6841
1, 30080, Pitch_bend_c, 1, 6841
1, 30080, Pitch_bend_c, 2, 6841
1, 30080, Pitch_bend_c, 3, 6841
1, 30110, Pitch_bend_c, 0, 6984
1, 30110, Pitch_bend_c, 1, 6984
1, 30110, Pitch_bend_c, 2, 6984
1, 30110, Pitch_bend_c, 3, 6984
1, 30125, Pitch_bend_c, 0, 7175
1, 30125, Pitch_bend_c, 1, 7175
1, 30125, Pitch_bend_c, 2, 7175
1, 30125, Pitch_bend_c, 3, 7175
1, 30140, Pitch_bend_c, 0, 7319
1, 30140, Pitch_bend_c, 1, 7319
1, 30140, Pitch_bend_c, 2, 7319
1, 30140, Pitch_bend_c, 3, 7319
1, 30160, Pitch_bend_c, 0, 7612
1, 30160, Pitch_bend_c, 1, 7612
1, 30160, Pitch_bend_c, 2, 7612
1, 30160, Pitch_bend_c, 3, 7612
1, 30175, Pitch_bend_c, 0, 7756
1, 30175, Pitch_bend_c, 1, 7756
1, 30175, Pitch_bend_c, 2, 7756
1, 30175, Pitch_bend_c, 3, 7756
1, 30190, Pitch_bend_c, 0, 7899
1, 30190, Pitch_bend_c, 1, 7899
1, 30190, Pitch_bend_c, 2, 7899
1, 30190, Pitch_bend_c, 3, 7899
1, 30205, Pitch_bend_c, 0, 8049
1, 30205, Pitch_bend_c, 1, 8049
1, 30205, Pitch_bend_c, 2, 8049
1, 30205, Pitch_bend_c, 3, 8049
1, 30220, Pitch_bend_c, 0, 8192
1, 30220, Pitch_bend_c, 1, 8192
1, 30220, Pitch_bend_c, 2, 8192
1, 30220, Pitch_bend_c, 3, 8192
1, 30240, Note_on_c, 3, 47, 0
1, 30240, Note_on_c, 1, 35, 0
1, 30240, Note_on_c, 2, 83, 0
1, 30240, Note_on_c, 0, 47, 0
1, 30240, Note_on_c, 2, 59, 0
1, 30240, Note_on_c, 2, 71, 0
1, 30240, Note_on_c, 0, 47, 95
1, 30240, Note_on_c, 1, 35, 95
1, 30240, Note_on_c, 2, 83, 64
1, 30240, Note_on_c, 2, 71, 127
1, 30240, Note_on_c, 2, 59, 95
1, 30240, Note_on_c, 3, 47, 64
1, 30240, Note_on_c, 9, 42, 63
1, 30240, Note_on_c, 9, 35, 103
1, 30360, Note_on_c, 9, 35, 0
1, 30480, Note_on_c, 0, 47, 0
1, 30480, Note_on_c, 2, 59, 0
1, 30480, Note_on_c, 1, 35, 0
1, 30480, Note_on_c, 2, 83, 0
1, 30480, Note_on_c, 2, 71, 0
1, 30480, Note_on_c, 3, 47, 0
1, 30480, Note_on_c, 9, 42, 0
1, 30480, Note_on_c, 0, 47, 95
1, 30480, Note_on_c, 1, 35, 95
1, 30480, Note_on_c, 2, 83, 64
1, 30480, Note_on_c, 2, 71, 127
1, 30480, Note_on_c, 2, 59, 95
1, 30480, Note_on_c, 3, 47, 64
1, 30510, Pitch_bend_c, 0, 8335
1, 30510, Pitch_bend_c, 1, 8335
1, 30510, Pitch_bend_c, 2, 8335
1, 30510, Pitch_bend_c, 3, 8335
1, 30560, Pitch_bend_c, 0, 8485
1, 30560, Pitch_bend_c, 1, 8485
1, 30560, Pitch_bend_c, 2, 8485
1, 30560, Pitch_bend_c, 3, 8485
1, 30575, Pitch_bend_c, 0, 8628
1, 30575, Pitch_bend_c, 1, 8628
1, 30575, Pitch_bend_c, 2, 8628
1, 30575, Pitch_bend_c, 3, 8628
1, 30590, Pitch_bend_c, 0, 8772
1, 30590, Pitch_bend_c, 1, 8772
1, 30590, Pitch_bend_c, 2, 8772
1, 30590, Pitch_bend_c, 3, 8772
1, 30605, Pitch_bend_c, 0, 9065
1, 30605, Pitch_bend_c, 1, 9065
1, 30605, Pitch_bend_c, 2, 9065
1, 30605, Pitch_bend_c, 3, 9065
1, 30620, Pitch_bend_c, 0, 9400
1, 30620, Pitch_bend_c, 1, 9400
1, 30620, Pitch_bend_c, 2, 9400
1, 30620, Pitch_bend_c, 3, 9400
1, 30640, Pitch_bend_c, 0, 9543
1, 30640, Pitch_bend_c, 1, 9543
1, 30640, Pitch_bend_c, 2, 9543
1, 30640, Pitch_bend_c, 3, 9543
1, 30655, Pitch_bend_c, 0, 9830
1, 30655, Pitch_bend_c, 1, 9830
1, 30655, Pitch_bend_c, 2, 9830
1, 30655, Pitch_bend_c, 3, 9830
1, 30670, Pitch_bend_c, 0, 10110
1, 30670, Pitch_bend_c, 1, 10110
1, 30670, Pitch_bend_c, 2, 10110
1, 30670, Pitch_bend_c, 3, 10110
1, 30685, Pitch_bend_c, 0, 10253
1, 30685, Pitch_bend_c, 1, 10253
1, 30685, Pitch_bend_c, 2, 10253
1, 30685, Pitch_bend_c, 3, 10253
1, 30700, Pitch_bend_c, 0, 10397
1, 30700, Pitch_bend_c, 1, 10397
1, 30700, Pitch_bend_c, 2, 10397
1, 30700, Pitch_bend_c, 3, 10397
1, 30720, Note_on_c, 3, 47, 0
1, 30720, Note_on_c, 1, 35, 0
1, 30720, Note_on_c, 2, 83, 0
1, 30720, Note_on_c, 0, 47, 0
1, 30720, Note_on_c, 2, 59, 0
1, 30720, Note_on_c, 2, 71, 0
1, 30720, Pitch_bend_c, 0, 12165
1, 30720, Note_on_c, 0, 35, 95
1, 30720, Pitch_bend_c, 1, 12165
1, 30720, Note_on_c, 1, 23, 95
1, 30720, Pitch_bend_c, 2, 12165
1, 30720, Note_on_c, 2, 71, 64
1, 30720, Note_on_c, 2, 59, 127
1, 30720, Note_on_c, 2, 47, 95
1, 30720, Pitch_bend_c, 3, 12165
1, 30720, Note_on_c, 3, 35, 64
1, 30720, Pitch_bend_c, 7, 8192
1, 30720, Note_on_c, 9, 42, 100
1, 30720, Note_on_c, 9, 35, 103
1, 30735, Pitch_bend_c, 0, 8192
1, 30735, Pitch_bend_c, 1, 8192
1, 30735, Pitch_bend_c, 2, 8192
1, 30735, Pitch_bend_c, 3, 8192
1, 30840, Note_on_c, 9, 35, 0
1, 30960, Note_on_c, 9, 42, 0
1, 31080, Note_on_c, 2, 47, 0
1, 31080, Note_on_c, 1, 23, 0
1, 31080, Note_on_c, 2, 71, 0
1, 31080, Note_on_c, 2, 59, 0
1, 31080, Note_on_c, 3, 35, 0
1, 31080, Note_on_c, 0, 35, 0
1, 31080, Pitch_bend_c, 0, 0
1, 31080, Note_on_c, 0, 47, 95
1, 31080, Pitch_bend_c, 1, 0
1, 31080, Note_on_c, 1, 35, 95
1, 31080, Pitch_bend_c, 2, 0
1, 31080, Note_on_c, 2, 83, 64
1, 31080, Note_on_c, 2, 71, 127
1, 31080, Note_on_c, 2, 59, 95
1, 31080, Pitch_bend_c, 3, 0
1, 31080, Note_on_c, 3, 47, 64
1, 31095, Pitch_bend_c, 0, 8192
1, 31095, Pitch_bend_c, 1, 8192
1, 31095, Pitch_bend_c, 2, 8192
1, 31095, Pitch_bend_c, 3, 8192
1, 31200, Note_on_c, 3, 47, 0
1, 31200, Note_on_c, 1, 35, 0
1, 31200, Note_on_c, 2, 83, 0
1, 31200, Note_on_c, 0, 47, 0
1, 31200, Note_on_c, 2, 59, 0
1, 31200, Note_on_c, 2, 71, 0
1, 31200, Note_on_c, 9, 42, 64
1, 31200, Note_on_c, 9, 35, 103
1, 31320, Note_on_c, 9, 35, 0
1, 31440, Note_on_c, 9, 42, 0
1, 31440, Note_on_c, 0, 47, 95
1, 31440, Note_on_c, 1, 35, 95
1, 31440, Note_on_c, 2, 83, 64
1, 31440, Note_on_c, 2, 71, 127
1, 31440, Note_on_c, 2, 59, 95
1, 31440, Note_on_c, 3, 47, 64
1, 31680, Note_on_c, 3, 47, 0
1, 31680, Note_on_c, 1, 35, 0
1, 31680, Note_on_c, 2, 83, 0
1, 31680, Note_on_c, 0, 47, 0
1, 31680, Note_on_c, 2, 59, 0
1, 31680, Note_on_c, 2, 71, 0
1, 31680, Note_on_c, 0, 47, 95
1, 31680, Note_on_c, 1, 35, 95
1, 31680, Note_on_c, 2, 83, 64
1, 31680, Note_on_c, 2, 71, 127
1, 31680, Note_on_c, 2, 59, 95
1, 31680, Note_on_c, 3, 47, 64
1, 31680, Note_on_c, 9, 42, 80
1, 31680, Note_on_c, 9, 35, 104
1, 31710, Pitch_bend_c, 0, 8049
1, 31710, Pitch_bend_c, 1, 8049
1, 31710, Pitch_bend_c, 2, 8049
1, 31710, Pitch_bend_c, 3, 8049
1, 31740, Pitch_bend_c, 0, 7899
1, 31740, Pitch_bend_c, 1, 7899
1, 31740, Pitch_bend_c, 2, 7899
1, 31740, Pitch_bend_c, 3, 7899
1, 31775, Pitch_bend_c, 0, 7756
1, 31775, Pitch_bend_c, 1, 7756
1, 31775, Pitch_bend_c, 2, 7756
1, 31775, Pitch_bend_c, 3, 7756
1, 31800, Note_on_c, 9, 35, 0
1, 31805, Pitch_bend_c, 0, 7612
1, 31805, Pitch_bend_c, 1, 7612
1, 31805, Pitch_bend_c, 2, 7612
1, 31805, Pitch_bend_c, 3, 7612
1, 31840, Pitch_bend_c, 0, 7469
1, 31840, Pitch_bend_c, 1, 7469
1, 31840, Pitch_bend_c, 2, 7469
1, 31840, Pitch_bend_c, 3, 7469
1, 31860, Note_on_c, 0, 47, 0
1, 31860, Note_on_c, 3, 47, 0
1, 31860, Note_on_c, 1, 35, 0
1, 31860, Note_on_c, 2, 83, 0
1, 31860, Note_on_c, 2, 71, 0
1, 31860, Note_on_c, 2, 59, 0
1, 31920, Note_on_c, 9, 42, 0
1, 31920, Note_on_c, 0, 47, 95
1, 31920, Note_on_c, 1, 35, 95
1, 31920, Note_on_c, 2, 83, 64
1, 31920, Note_on_c, 2, 71, 127
1, 31920, Note_on_c, 2, 59, 95
1, 31920, Note_on_c, 3, 47, 64
1, 31935, Pitch_bend_c, 0, 7319
1, 31935, Pitch_bend_c, 1, 7319
1, 31935, Pitch_bend_c, 2, 7319
1, 31935, Pitch_bend_c, 3, 7319
1, 31980, Pitch_bend_c, 0, 7175
1, 31980, Pitch_bend_c, 1, 7175
1, 31980, Pitch_bend_c, 2, 7175
1, 31980, Pitch_bend_c, 3, 7175
1, 32000, Pitch_bend_c, 0, 6984
1, 32000, Pitch_bend_c, 1, 6984
1, 32000, Pitch_bend_c, 2, 6984
1, 32000, Pitch_bend_c, 3, 6984
1, 32030, Pitch_bend_c, 0, 6841
1, 32030, Pitch_bend_c, 1, 6841
1, 32030, Pitch_bend_c, 2, 6841
1, 32030, Pitch_bend_c, 3, 6841
1, 32060, Pitch_bend_c, 0, 6697
1, 32060, Pitch_bend_c, 1, 6697
1, 32060, Pitch_bend_c, 2, 6697
1, 32060, Pitch_bend_c, 3, 6697
1, 32140, Pitch_bend_c, 0, 6554
1, 32140, Pitch_bend_c, 1, 6554
1, 32140, Pitch_bend_c, 2, 6554
1, 32140, Pitch_bend_c, 3, 6554
1, 32160, Note_on_c, 3, 47, 0
1, 32160, Note_on_c, 1, 35, 0
1, 32160, Note_on_c, 2, 83, 0
1, 32160, Note_on_c, 0, 47, 0
1, 32160, Note_on_c, 2, 59, 0
1, 32160, Note_on_c, 2, 71, 0
1, 32160, Note_on_c, 0, 47, 95
1, 32160, Note_on_c, 1, 35, 95
1, 32160, Note_on_c, 2, 83, 64
1, 32160, Note_on_c, 2, 71, 127
1, 32160, Note_on_c, 2, 59, 95
1, 32160, Note_on_c, 3, 47, 64
1, 32160, Note_on_c, 9, 42, 65
1, 32160, Note_on_c, 9, 35, 104
1, 32190, Pitch_bend_c, 0, 6418
1, 32190, Pitch_bend_c, 1, 6418
1, 32190, Pitch_bend_c, 2, 6418
1, 32190, Pitch_bend_c, 3, 6418
1, 32205, Pitch_bend_c, 0, 6274
1, 32205, Pitch_bend_c, 1, 6274
1, 32205, Pitch_bend_c, 2, 6274
1, 32205, Pitch_bend_c, 3, 6274
1, 32220, Pitch_bend_c, 0, 6131
1, 32220, Pitch_bend_c, 1, 6131
1, 32220, Pitch_bend_c, 2, 6131
1, 32220, Pitch_bend_c, 3, 6131
1, 32240, Pitch_bend_c, 0, 5987
1, 32240, Pitch_bend_c, 1, 5987
1, 32240, Pitch_bend_c, 2, 5987
1, 32240, Pitch_bend_c, 3, 5987
1, 32255, Pitch_bend_c, 0, 5803
1, 32255, Pitch_bend_c, 1, 5803
1, 32255, Pitch_bend_c, 2, 5803
1, 32255, Pitch_bend_c, 3, 5803
1, 32270, Pitch_bend_c, 0, 5660
1, 32270, Pitch_bend_c, 1, 5660
1, 32270, Pitch_bend_c, 2, 5660
1, 32270, Pitch_bend_c, 3, 5660
1, 32280, Note_on_c, 9, 35, 0
1, 32285, Pitch_bend_c, 0, 5516
1, 32285, Pitch_bend_c, 1, 5516
1, 32285, Pitch_bend_c, 2, 5516
1, 32285, Pitch_bend_c, 3, 5516
1, 32300, Pitch_bend_c, 0, 5380
1, 32300, Pitch_bend_c, 1, 5380
1, 32300, Pitch_bend_c, 2, 5380
1, 32300, Pitch_bend_c, 3, 5380
1, 32320, Pitch_bend_c, 0, 5237
1, 32320, Pitch_bend_c, 1, 5237
1, 32320, Pitch_bend_c, 2, 5237
1, 32320, Pitch_bend_c, 3, 5237
1, 32350, Pitch_bend_c, 0, 5100
1, 32350, Pitch_bend_c, 1, 5100
1, 32350, Pitch_bend_c, 2, 5100
1, 32350, Pitch_bend_c, 3, 5100
1, 32400, Note_on_c, 0, 47, 0
1, 32400, Note_on_c, 2, 59, 0
1, 32400, Note_on_c, 1, 35, 0
1, 32400, Note_on_c, 2, 83, 0
1, 32400, Note_on_c, 2, 71, 0
1, 32400, Note_on_c, 3, 47, 0
1, 32400, Note_on_c, 9, 42, 0
1, 32400, Note_on_c, 0, 47, 95
1, 32400, Note_on_c, 1, 35, 95
1, 32400, Note_on_c, 2, 83, 64
1, 32400, Note_on_c, 2, 71, 127
1, 32400, Note_on_c, 2, 59, 95
1, 32400, Note_on_c, 3, 47, 64
1, 32415, Pitch_bend_c, 0, 4963
1, 32415, Pitch_bend_c, 1, 4963
1, 32415, Pitch_bend_c, 2, 4963
1, 32415, Pitch_bend_c, 3, 4963
1, 32430, Pitch_bend_c, 0, 4636
1, 32430, Pitch_bend_c, 1, 4636
1, 32430, Pitch_bend_c, 2, 4636
1, 32430, Pitch_bend_c, 3, 4636
1, 32445, Pitch_bend_c, 0, 4499
1, 32445, Pitch_bend_c, 1, 4499
1, 32445, Pitch_bend_c, 2, 4499
1, 32445, Pitch_bend_c, 3, 4499
1, 32460, Pitch_bend_c, 0, 4083
1, 32460, Pitch_bend_c, 1, 4083
1, 32460, Pitch_bend_c, 2, 4083
1, 32460, Pitch_bend_c, 3, 4083
1, 32480, Pitch_bend_c, 0, 3810
1, 32480, Pitch_bend_c, 1, 3810
1, 32480, Pitch_bend_c, 2, 3810
1, 32480, Pitch_bend_c, 3, 3810
1, 32495, Pitch_bend_c, 0, 3359
1, 32495, Pitch_bend_c, 1, 3359
1, 32495, Pitch_bend_c, 2, 3359
1, 32495, Pitch_bend_c, 3, 3359
1, 32510, Pitch_bend_c, 0, 3086
1, 32510, Pitch_bend_c, 1, 3086
1, 32510, Pitch_bend_c, 2, 3086
1, 32510, Pitch_bend_c, 3, 3086
1, 32525, Pitch_bend_c, 0, 2820
1, 32525, Pitch_bend_c, 1, 2820
1, 32525, Pitch_bend_c, 2, 2820
1, 32525, Pitch_bend_c, 3, 2820
1, 32540, Pitch_bend_c, 0, 2683
1, 32540, Pitch_bend_c, 1, 2683
1, 32540, Pitch_bend_c, 2, 2683
1, 32540, Pitch_bend_c, 3, 2683
1, 32560, Pitch_bend_c, 0, 2369
1, 32560, Pitch_bend_c, 1, 2369
1, 32560, Pitch_bend_c, 2, 2369
1, 32560, Pitch_bend_c, 3, 2369
1, 32575, Pitch_bend_c, 0, 2240
1, 32575, Pitch_bend_c, 1, 2240
1, 32575, Pitch_bend_c, 2, 2240
1, 32575, Pitch_bend_c, 3, 2240
1, 32605, Pitch_bend_c, 0, 2103
1, 32605, Pitch_bend_c, 1, 2103
1, 32605, Pitch_bend_c, 2, 2103
1, 32605, Pitch_bend_c, 3, 2103
1, 32640, Note_on_c, 3, 47, 0
1, 32640, Note_on_c, 1, 35, 0
1, 32640, Note_on_c, 2, 83, 0
1, 32640, Note_on_c, 0, 47, 0
1, 32640, Note_on_c, 2, 59, 0
1, 32640, Note_on_c, 2, 71, 0
1, 32640, Pitch_bend_c, 0, 8192
1, 32640, Note_on_c, 0, 35, 95
1, 32640, Pitch_bend_c, 1, 8192
1, 32640, Note_on_c, 1, 23, 95
1, 32640, Pitch_bend_c, 2, 8192
1, 32640, Note_on_c, 2, 71, 64
1, 32640, Note_on_c, 2, 59, 127
1, 32640, Note_on_c, 2, 47, 95
1, 32640, Pitch_bend_c, 3, 8192
1, 32640, Note_on_c, 3, 35, 64
1, 32640, Note_on_c, 9, 42, 100
1, 32640, Note_on_c, 9, 35, 103
1, 32760, Note_on_c, 9, 35, 0
1, 32880, Note_on_c, 9, 42, 0
1, 33000, Note_on_c, 2, 47, 0
1, 33000, Note_on_c, 1, 23, 0
1, 33000, Note_on_c, 2, 71, 0
1, 33000, Note_on_c, 2, 59, 0
1, 33000, Note_on_c, 3, 35, 0
1, 33000, Note_on_c, 0, 35, 0
1, 33000, Pitch_bend_c, 0, 0
1, 33000, Note_on_c, 0, 47, 95
1, 33000, Pitch_bend_c, 1, 0
1, 33000, Note_on_c, 1, 35, 95
1, 33000, Pitch_bend_c, 2, 0
1, 33000, Note_on_c, 2, 83, 64
1, 33000, Note_on_c, 2, 71, 127
1, 33000, Note_on_c, 2, 59, 95
1, 33000, Pitch_bend_c, 3, 0
1, 33000, Note_on_c, 3, 47, 64
1, 33015, Pitch_bend_c, 0, 8192
1, 33015, Pitch_bend_c, 1, 8192
1, 33015, Pitch_bend_c, 2, 8192
1, 33015, Pitch_bend_c, 3, 8192
1, 33120, Note_on_c, 3, 47, 0
1, 33120, Note_on_c, 1, 35, 0
1, 33120, Note_on_c, 2, 83, 0
1, 33120, Note_on_c, 0, 47, 0
1, 33120, Note_on_c, 2, 59, 0
1, 33120, Note_on_c, 2, 71, 0
1, 33120, Note_on_c, 9, 42, 63
1, 33120, Note_on_c, 9, 35, 102
1, 33240, Note_on_c, 9, 35, 0
1, 33360, Note_on_c, 9, 42, 0
1, 33360, Note_on_c, 0, 47, 95
1, 33360, Note_on_c, 1, 35, 95
1, 33360, Note_on_c, 2, 83, 64
1, 33360, Note_on_c, 2, 71, 127
1, 33360, Note_on_c, 2, 59, 95
1, 33360, Note_on_c, 3, 47, 64
1, 33600, Note_on_c, 3, 47, 0
1, 33600, Note_on_c, 1, 35, 0
1, 33600, Note_on_c, 2, 83, 0
1, 33600, Note_on_c, 0, 47, 0
1, 33600, Note_on_c, 2, 59, 0
1, 33600, Note_on_c, 2, 71, 0
1, 33600, Note_on_c, 9, 42, 79
1, 33600, Note_on_c, 9, 35, 102
1, 33720, Note_on_c, 9, 35, 0
1, 33720, Note_on_c, 0, 43, 95
1, 33720, Note_on_c, 1, 31, 95
1, 33720, Note_on_c, 2, 79, 64
1, 33720, Note_on_c, 2, 67, 127
1, 33720, Note_on_c, 2, 55, 95
1, 33720, Note_on_c, 3, 43, 64
1, 33840, Note_on_c, 3, 43, 0
1, 33840, Note_on_c, 2, 67, 0
1, 33840, Note_on_c, 0, 43, 0
1, 33840, Note_on_c, 1, 31, 0
1, 33840, Note_on_c, 9, 42, 0
1, 33840, Note_on_c, 2, 55, 0
1, 33840, Note_on_c, 2, 79, 0
1, 33840, Pitch_bend_c, 0, 5100
1, 33840, Note_on_c, 0, 47, 95
1, 33840, Pitch_bend_c, 1, 5100
1, 33840, Note_on_c, 1, 35, 95
1, 33840, Pitch_bend_c, 2, 5100
1, 33840, Note_on_c, 2, 83, 64
1, 33840, Note_on_c, 2, 71, 127
1, 33840, Note_on_c, 2, 59, 95
1, 33840, Pitch_bend_c, 3, 5100
1, 33840, Note_on_c, 3, 47, 64
1, 33855, Pitch_bend_c, 0, 6697
1, 33855, Pitch_bend_c, 1, 6697
1, 33855, Pitch_bend_c, 2, 6697
1, 33855, Pitch_bend_c, 3, 6697
1, 33920, Pitch_bend_c, 0, 6841
1, 33920, Pitch_bend_c, 1, 6841
1, 33920, Pitch_bend_c, 2, 6841
1, 33920, Pitch_bend_c, 3, 6841
1, 33950, Pitch_bend_c, 0, 6984
1, 33950, Pitch_bend_c, 1, 6984
1, 33950, Pitch_bend_c, 2, 6984
1, 33950, Pitch_bend_c, 3, 6984
1, 33965, Pitch_bend_c, 0, 7175
1, 33965, Pitch_bend_c, 1, 7175
1, 33965, Pitch_bend_c, 2, 7175
1, 33965, Pitch_bend_c, 3, 7175
1, 33980, Pitch_bend_c, 0, 7319
1, 33980, Pitch_bend_c, 1, 7319
1, 33980, Pitch_bend_c, 2, 7319
1, 33980, Pitch_bend_c, 3, 7319
1, 34000, Pitch_bend_c, 0, 7612
1, 34000, Pitch_bend_c, 1, 7612
1, 34000, Pitch_bend_c, 2, 7612
1, 34000, Pitch_bend_c, 3, 7612
1, 34015, Pitch_bend_c, 0, 7756
1, 34015, Pitch_bend_c, 1, 7756
1, 34015, Pitch_bend_c, 2, 7756
1, 34015, Pitch_bend_c, 3, 7756
1, 34030, Pitch_bend_c, 0, 7899
1, 34030, Pitch_bend_c, 1, 7899
1, 34030, Pitch_bend_c, 2, 7899
1, 34030, Pitch_bend_c, 3, 7899
1, 34045, Pitch_bend_c, 0, 8049
1, 34045, Pitch_bend_c, 1, 8049
1, 34045, Pitch_bend_c, 2, 8049
1, 34045, Pitch_bend_c, 3, 8049
1, 34060, Pitch_bend_c, 0, 8192
1, 34060, Pitch_bend_c, 1, 8192
1, 34060, Pitch_bend_c, 2, 8192
1, 34060, Pitch_bend_c, 3, 8192
1, 34080, Note_on_c, 3, 47, 0
1, 34080, Note_on_c, 1, 35, 0
1, 34080, Note_on_c, 2, 83, 0
1, 34080, Note_on_c, 0, 47, 0
1, 34080, Note_on_c, 2, 59, 0
1, 34080, Note_on_c, 2, 71, 0
1, 34080, Note_on_c, 0, 47, 95
1, 34080, Note_on_c, 1, 35, 95
1, 34080, Note_on_c, 2, 83, 64
1, 34080, Note_on_c, 2, 71, 127
1, 34080, Note_on_c, 2, 59, 95
1, 34080, Note_on_c, 3, 47, 64
1, 34080, Note_on_c, 9, 42, 63
1, 34080, Note_on_c, 9, 35, 103
1, 34200, Note_on_c, 9, 35, 0
1, 34320, Note_on_c, 0, 47, 0
1, 34320, Note_on_c, 2, 59, 0
1, 34320, Note_on_c, 1, 35, 0
1, 34320, Note_on_c, 2, 83, 0
1, 34320, Note_on_c, 2, 71, 0
1, 34320, Note_on_c, 3, 47, 0
1, 34320, Note_on_c, 9, 42, 0
1, 34320, Note_on_c, 0, 47, 95
1, 34320, Note_on_c, 1, 35, 95
1, 34320, Note_on_c, 2, 83, 64
1, 34320, Note_on_c, 2, 71, 127
1, 34320, Note_on_c, 2, 59, 95
1, 34320, Note_on_c, 3, 47, 64
1, 34350, Pitch_bend_c, 0, 8335
1, 34350, Pitch_bend_c, 1, 8335
1, 34350, Pitch_bend_c, 2, 8335
1, 34350, Pitch_bend_c, 3, 8335
1, 34400, Pitch_bend_c, 0, 8485
1, 34400, Pitch_bend_c, 1, 8485
1, 34400, Pitch_bend_c, 2, 8485
1, 34400, Pitch_bend_c, 3, 8485
1, 34415, Pitch_bend_c, 0, 8628
1, 34415, Pitch_bend_c, 1, 8628
1, 34415, Pitch_bend_c, 2, 8628
1, 34415, Pitch_bend_c, 3, 8628
1, 34430, Pitch_bend_c, 0, 8772
1, 34430, Pitch_bend_c, 1, 8772
1, 34430, Pitch_bend_c, 2, 8772
1, 34430, Pitch_bend_c, 3, 8772
1, 34445, Pitch_bend_c, 0, 9065
1, 34445, Pitch_bend_c, 1, 9065
1, 34445, Pitch_bend_c, 2, 9065
1, 34445, Pitch_bend_c, 3, 9065
1, 34460, Pitch_bend_c, 0, 9400
1, 34460, Pitch_bend_c, 1, 9400
1, 34460, Pitch_bend_c, 2, 9400
1, 34460, Pitch_bend_c, 3, 9400
1, 34480, Pitch_bend_c, 0, 9543
1, 34480, Pitch_bend_c, 1, 9543
1, 34480, Pitch_bend_c, 2, 9543
1, 34480, Pitch_bend_c, 3, 9543
1, 34495, Pitch_bend_c, 0, 9830
1, 34495, Pitch_bend_c, 1, 9830
1, 34495, Pitch_bend_c, 2, 9830
1, 34495, Pitch_bend_c, 3, 9830
1, 34510, Pitch_bend_c, 0, 10110
1, 34510, Pitch_bend_c, 1, 10110
1, 34510, Pitch_bend_c, 2, 10110
1, 34510, Pitch_bend_c, 3, 10110
1, 34525, Pitch_bend_c, 0, 10253
1, 34525, Pitch_bend_c, 1, 10253
1, 34525, Pitch_bend_c, 2, 10253
1, 34525, Pitch_bend_c, 3, 10253
1, 34540, Pitch_bend_c, 0, 10397
1, 34540, Pitch_bend_c, 1, 10397
1, 34540, Pitch_bend_c, 2, 10397
1, 34540, Pitch_bend_c, 3, 10397
1, 34560, Note_on_c, 3, 47, 0
1, 34560, Note_on_c, 1, 35, 0
1, 34560, Note_on_c, 2, 83, 0
1, 34560, Note_on_c, 0, 47, 0
1, 34560, Note_on_c, 2, 59, 0
1, 34560, Note_on_c, 2, 71, 0
1, 34560, Pitch_bend_c, 0, 12165
1, 34560, Note_on_c, 0, 35, 95
1, 34560, Pitch_bend_c, 1, 12165
1, 34560, Note_on_c, 1, 23, 95
1, 34560, Pitch_bend_c, 2, 12165
1, 34560, Note_on_c, 2, 71, 64
1, 34560, Note_on_c, 2, 59, 127
1, 34560, Note_on_c, 2, 47, 95
1, 34560, Pitch_bend_c, 3, 12165
1, 34560, Note_on_c, 3, 35, 64
1, 34560, Note_on_c, 9, 42, 100
1, 34560, Note_on_c, 9, 35, 103
1, 34575, Pitch_bend_c, 0, 8192
1, 34575, Pitch_bend_c, 1, 8192
1, 34575, Pitch_bend_c, 2, 8192
1, 34575, Pitch_bend_c, 3, 8192
1, 34680, Note_on_c, 9, 35, 0
1, 34800, Note_on_c, 9, 42, 0
1, 34920, Note_on_c, 2, 47, 0
1, 34920, Note_on_c, 1, 23, 0
1, 34920, Note_on_c, 2, 71, 0
1, 34920, Note_on_c, 2, 59, 0
1, 34920, Note_on_c, 3, 35, 0
1, 34920, Note_on_c, 0, 35, 0
1, 34920, Pitch_bend_c, 0, 0
1, 34920, Note_on_c, 0, 47, 95
1, 34920, Pitch_bend_c, 1, 0
1, 34920, Note_on_c, 1, 35, 95
1, 34920, Pitch_bend_c, 2, 0
1, 34920, Note_on_c, 2, 83, 64
1, 34920, Note_on_c, 2, 71, 127
1, 34920, Note_on_c, 2, 59, 95
1, 34920, Pitch_bend_c, 3, 0
1, 34920, Note_on_c, 3, 47, 64
1, 34935, Pitch_bend_c, 0, 8192
1, 34935, Pitch_bend_c, 1, 8192
1, 34935, Pitch_bend_c, 2, 8192
1, 34935, Pitch_bend_c, 3, 8192
1, 35040, Note_on_c, 3, 47, 0
1, 35040, Note_on_c, 1, 35, 0
1, 35040, Note_on_c, 2, 83, 0
1, 35040, Note_on_c, 0, 47, 0
1, 35040, Note_on_c, 2, 59, 0
1, 35040, Note_on_c, 2, 71, 0
1, 35040, Note_on_c, 9, 42, 64
1, 35040, Note_on_c, 9, 35, 103
1, 35160, Note_on_c, 9, 35, 0
1, 35280, Note_on_c, 9, 42, 0
1, 35280, Note_on_c, 0, 47, 95
1, 35280, Note_on_c, 1, 35, 95
1, 35280, Note_on_c, 2, 83, 64
1, 35280, Note_on_c, 2, 71, 127
1, 35280, Note_on_c, 2, 59, 95
1, 35280, Note_on_c, 3, 47, 64
1, 35520, Note_on_c, 3, 47, 0
1, 35520, Note_on_c, 1, 35, 0
1, 35520, Note_on_c, 2, 83, 0
1, 35520, Note_on_c, 0, 47, 0
1, 35520, Note_on_c, 2, 59, 0
1, 35520, Note_on_c, 2, 71, 0
1, 35520, Note_on_c, 0, 47, 95
1, 35520, Note_on_c, 1, 35, 95
1, 35520, Note_on_c, 2, 83, 64
1, 35520, Note_on_c, 2, 71, 127
1, 35520, Note_on_c, 2, 59, 95
1, 35520, Note_on_c, 3, 47, 64
1, 35520, Note_on_c, 9, 42, 80
1, 35520, Note_on_c, 9, 35, 104
1, 35550, Pitch_bend_c, 0, 8049
1, 35550, Pitch_bend_c, 1, 8049
1, 35550, Pitch_bend_c, 2, 8049
1, 35550, Pitch_bend_c, 3, 8049
1, 35580, Pitch_bend_c, 0, 7899
1, 35580, Pitch_bend_c, 1, 7899
1, 35580, Pitch_bend_c, 2, 7899
1, 35580, Pitch_bend_c, 3, 7899
1, 35615, Pitch_bend_c, 0, 7756
1, 35615, Pitch_bend_c, 1, 7756
1, 35615, Pitch_bend_c, 2, 7756
1, 35615, Pitch_bend_c, 3, 7756
1, 35640, Note_on_c, 9, 35, 0
1, 35645, Pitch_bend_c, 0, 7612
1, 35645, Pitch_bend_c, 1, 7612
1, 35645, Pitch_bend_c, 2, 7612
1, 35645, Pitch_bend_c, 3, 7612
1, 35680, Pitch_bend_c, 0, 7469
1, 35680, Pitch_bend_c, 1, 7469
1, 35680, Pitch_bend_c, 2, 7469
1, 35680, Pitch_bend_c, 3, 7469
1, 35700, Note_on_c, 0, 47, 0
1, 35700, Note_on_c, 3, 47, 0
1, 35700, Note_on_c, 1, 35, 0
1, 35700, Note_on_c, 2, 83, 0
1, 35700, Note_on_c, 2, 71, 0
1, 35700, Note_on_c, 2, 59, 0
1, 35760, Note_on_c, 9, 42, 0
1, 35760, Note_on_c, 0, 47, 95
1, 35760, Note_on_c, 1, 35, 95
1, 35760, Note_on_c, 2, 83, 64
1, 35760, Note_on_c, 2, 71, 127
1, 35760, Note_on_c, 2, 59, 95
1, 35760, Note_on_c, 3, 47, 64
1, 35775, Pitch_bend_c, 0, 7319
1, 35775, Pitch_bend_c, 1, 7319
1, 35775, Pitch_bend_c, 2, 7319
1, 35775, Pitch_bend_c, 3, 7319
1, 35820, Pitch_bend_c, 0, 7175
1, 35820, Pitch_bend_c, 1, 7175
1, 35820, Pitch_bend_c, 2, 7175
1, 35820, Pitch_bend_c, 3, 7175
1, 35840, Pitch_bend_c, 0, 6984
1, 35840, Pitch_bend_c, 1, 6984
1, 35840, Pitch_bend_c, 2, 6984
1, 35840, Pitch_bend_c, 3, 6984
1, 35870, Pitch_bend_c, 0, 6841
1, 35870, Pitch_bend_c, 1, 6841
1, 35870, Pitch_bend_c, 2, 6841
1, 35870, Pitch_bend_c, 3, 6841
1, 35900, Pitch_bend_c, 0, 6697
1, 35900, Pitch_bend_c, 1, 6697
1, 35900, Pitch_bend_c, 2, 6697
1, 35900, Pitch_bend_c, 3, 6697
1, 35980, Pitch_bend_c, 0, 6554
1, 35980, Pitch_bend_c, 1, 6554
1, 35980, Pitch_bend_c, 2, 6554
1, 35980, Pitch_bend_c, 3, 6554
1, 36000, Note_on_c, 3, 47, 0
1, 36000, Note_on_c, 1, 35, 0
1, 36000, Note_on_c, 2, 83, 0
1, 36000, Note_on_c, 0, 47, 0
1, 36000, Note_on_c, 2, 59, 0
1, 36000, Note_on_c, 2, 71, 0
1, 36000, Note_on_c, 0, 47, 95
1, 36000, Note_on_c, 1, 35, 95
1, 36000, Note_on_c, 2, 83, 64
1, 36000, Note_on_c, 2, 71, 127
1, 36000, Note_on_c, 2, 59, 95
1, 36000, Note_on_c, 3, 47, 64
1, 36000, Note_on_c, 9, 42, 65
1, 36000, Note_on_c, 9, 35, 104
1, 36030, Pitch_bend_c, 0, 6418
1, 36030, Pitch_bend_c, 1, 6418
1, 36030, Pitch_bend_c, 2, 6418
1, 36030, Pitch_bend_c, 3, 6418
1, 36045, Pitch_bend_c, 0, 6274
1, 36045, Pitch_bend_c, 1, 6274
1, 36045, Pitch_bend_c, 2, 6274
1, 36045, Pitch_bend_c, 3, 6274
1, 36060, Pitch_bend_c, 0, 6131
1, 36060, Pitch_bend_c, 1, 6131
1, 36060, Pitch_bend_c, 2, 6131
1, 36060, Pitch_bend_c, 3, 6131
1, 36080, Pitch_bend_c, 0, 5987
1, 36080, Pitch_bend_c, 1, 5987
1, 36080, Pitch_bend_c, 2, 5987
1, 36080, Pitch_bend_c, 3, 5987
1, 36095, Pitch_bend_c, 0, 5803
1, 36095, Pitch_bend_c, 1, 5803
1, 36095, Pitch_bend_c, 2, 5803
1, 36095, Pitch_bend_c, 3, 5803
1, 36110, Pitch_bend_c, 0, 5660
1, 36110, Pitch_bend_c, 1, 5660
1, 36110, Pitch_bend_c, 2, 5660
1, 36110, Pitch_bend_c, 3, 5660
1, 36120, Note_on_c, 9, 35, 0
1, 36125, Pitch_bend_c, 0, 5516
1, 36125, Pitch_bend_c, 1, 5516
1, 36125, Pitch_bend_c, 2, 5516
1, 36125, Pitch_bend_c, 3, 5516
1, 36140, Pitch_bend_c, 0, 5380
1, 36140, Pitch_bend_c, 1, 5380
1, 36140, Pitch_bend_c, 2, 5380
1, 36140, Pitch_bend_c, 3, 5380
1, 36160, Pitch_bend_c, 0, 5237
1, 36160, Pitch_bend_c, 1, 5237
1, 36160, Pitch_bend_c, 2, 5237
1, 36160, Pitch_bend_c, 3, 5237
1, 36190, Pitch_bend_c, 0, 5100
1, 36190, Pitch_bend_c, 1, 5100
1, 36190, Pitch_bend_c, 2, 5100
1, 36190, Pitch_bend_c, 3, 5100
1, 36240, Note_on_c, 0, 47, 0
1, 36240, Note_on_c, 2, 59, 0
1, 36240, Note_on_c, 1, 35, 0
1, 36240, Note_on_c, 2, 83, 0
1, 36240, Note_on_c, 2, 71, 0
1, 36240, Note_on_c, 3, 47, 0
1, 36240, Note_on_c, 9, 42, 0
1, 36240, Note_on_c, 0, 47, 95
1, 36240, Note_on_c, 1, 35, 95
1, 36240, Note_on_c, 2, 83, 64
1, 36240, Note_on_c, 2, 71, 127
1, 36240, Note_on_c, 2, 59, 95
1, 36240, Note_on_c, 3, 47, 64
1, 36255, Pitch_bend_c, 0, 4963
1, 36255, Pitch_bend_c, 1, 4963
1, 36255, Pitch_bend_c, 2, 4963
1, 36255, Pitch_bend_c, 3, 4963
1, 36270, Pitch_bend_c, 0, 4636
1, 36270, Pitch_bend_c, 1, 4636
1, 36270, Pitch_bend_c, 2, 4636
1, 36270, Pitch_bend_c, 3, 4636
1, 36285, Pitch_bend_c, 0, 4499
1, 36285, Pitch_bend_c, 1, 4499
1, 36285, Pitch_bend_c, 2, 4499
1, 36285, Pitch_bend_c, 3, 4499
1, 36300, Pitch_bend_c, 0, 4083
1, 36300, Pitch_bend_c, 1, 4083
1, 36300, Pitch_bend_c, 2, 4083
1, 36300, Pitch_bend_c, 3, 4083
1, 36320, Pitch_bend_c, 0, 3810
1, 36320, Pitch_bend_c, 1, 3810
1, 36320, Pitch_bend_c, 2, 3810
1, 36320, Pitch_bend_c, 3, 3810
1, 36335, Pitch_bend_c, 0, 3359
1, 36335, Pitch_bend_c, 1, 3359
1, 36335, Pitch_bend_c, 2, 3359
1, 36335, Pitch_bend_c, 3, 3359
1, 36350, Pitch_bend_c, 0, 3086
1, 36350, Pitch_bend_c, 1, 3086
1, 36350, Pitch_bend_c, 2, 3086
1, 36350, Pitch_bend_c, 3, 3086
1, 36365, Pitch_bend_c, 0, 2820
1, 36365, Pitch_bend_c, 1, 2820
1, 36365, Pitch_bend_c, 2, 2820
1, 36365, Pitch_bend_c, 3, 2820
1, 36380, Pitch_bend_c, 0, 2683
1, 36380, Pitch_bend_c, 1, 2683
1, 36380, Pitch_bend_c, 2, 2683
1, 36380, Pitch_bend_c, 3, 2683
1, 36400, Pitch_bend_c, 0, 2369
1, 36400, Pitch_bend_c, 1, 2369
1, 36400, Pitch_bend_c, 2, 2369
1, 36400, Pitch_bend_c, 3, 2369
1, 36415, Pitch_bend_c, 0, 2240
1, 36415, Pitch_bend_c, 1, 2240
1, 36415, Pitch_bend_c, 2, 2240
1, 36415, Pitch_bend_c, 3, 2240
1, 36445, Pitch_bend_c, 0, 2103
1, 36445, Pitch_bend_c, 1, 2103
1, 36445, Pitch_bend_c, 2, 2103
1, 36445, Pitch_bend_c, 3, 2103
1, 36480, Note_on_c, 3, 47, 0
1, 36480, Note_on_c, 1, 35, 0
1, 36480, Note_on_c, 2, 83, 0
1, 36480, Note_on_c, 0, 47, 0
1, 36480, Note_on_c, 2, 59, 0
1, 36480, Note_on_c, 2, 71, 0
1, 36480, Pitch_bend_c, 0, 8192
1, 36480, Note_on_c, 0, 35, 95
1, 36480, Pitch_bend_c, 1, 8192
1, 36480, Note_on_c, 1, 23, 95
1, 36480, Pitch_bend_c, 2, 8192
1, 36480, Note_on_c, 2, 71, 64
1, 36480, Note_on_c, 2, 59, 127
1, 36480, Note_on_c, 2, 47, 95
1, 36480, Pitch_bend_c, 3, 8192
1, 36480, Note_on_c, 3, 35, 64
1, 36480, Note_on_c, 9, 42, 100
1, 36480, Note_on_c, 9, 35, 103
1, 36490, Pitch_bend_c, 4, 8192
1, 36490, Pitch_bend_c, 6, 8192
1, 36600, Note_on_c, 9, 35, 0
1, 36720, Note_on_c, 9, 42, 0
1, 36840, Note_on_c, 2, 47, 0
1, 36840, Note_on_c, 1, 23, 0
1, 36840, Note_on_c, 2, 71, 0
1, 36840, Note_on_c, 2, 59, 0
1, 36840, Note_on_c, 3, 35, 0
1, 36840, Note_on_c, 0, 35, 0
1, 36840, Pitch_bend_c, 0, 0
1, 36840, Note_on_c, 0, 47, 95
1, 36840, Pitch_bend_c, 1, 0
1, 36840, Note_on_c, 1, 35, 95
1, 36840, Pitch_bend_c, 2, 0
1, 36840, Note_on_c, 2, 83, 64
1, 36840, Note_on_c, 2, 71, 127
1, 36840, Note_on_c, 2, 59, 95
1, 36840, Pitch_bend_c, 3, 0
1, 36840, Note_on_c, 3, 47, 64
1, 36855, Pitch_bend_c, 0, 8192
1, 36855, Pitch_bend_c, 1, 8192
1, 36855, Pitch_bend_c, 2, 8192
1, 36855, Pitch_bend_c, 3, 8192
1, 36960, Note_on_c, 3, 47, 0
1, 36960, Note_on_c, 1, 35, 0
1, 36960, Note_on_c, 2, 83, 0
1, 36960, Note_on_c, 0, 47, 0
1, 36960, Note_on_c, 2, 59, 0
1, 36960, Note_on_c, 2, 71, 0
1, 36960, Note_on_c, 9, 42, 63
1, 36960, Note_on_c, 9, 35, 102
1, 37080, Note_on_c, 9, 35, 0
1, 37200, Note_on_c, 9, 42, 0
1, 37200, Note_on_c, 0, 47, 95
1, 37200, Note_on_c, 1, 35, 95
1, 37200, Note_on_c, 2, 83, 64
1, 37200, Note_on_c, 2, 71, 127
1, 37200, Note_on_c, 2, 59, 95
1, 37200, Note_on_c, 3, 47, 64
1, 37440, Note_on_c, 3, 47, 0
1, 37440, Note_on_c, 1, 35, 0
1, 37440, Note_on_c, 2, 83, 0
1, 37440, Note_on_c, 0, 47, 0
1, 37440, Note_on_c, 2, 59, 0
1, 37440, Note_on_c, 2, 71, 0
1, 37440, Note_on_c, 9, 42, 79
1, 37440, Note_on_c, 9, 35, 102
1, 37560, Note_on_c, 9, 35, 0
1, 37560, Note_on_c, 0, 43, 95
1, 37560, Note_on_c, 1, 31, 95
1, 37560, Note_on_c, 2, 79, 64
1, 37560, Note_on_c, 2, 67, 127
1, 37560, Note_on_c, 2, 55, 95
1, 37560, Note_on_c, 3, 43, 64
1, 37680, Note_on_c, 3, 43, 0
1, 37680, Note_on_c, 2, 67, 0
1, 37680, Note_on_c, 0, 43, 0
1, 37680, Note_on_c, 1, 31, 0
1, 37680, Note_on_c, 9, 42, 0
1, 37680, Note_on_c, 2, 55, 0
1, 37680, Note_on_c, 2, 79, 0
1, 37680, Pitch_bend_c, 0, 5100
1, 37680, Note_on_c, 0, 47, 95
1, 37680, Pitch_bend_c, 1, 5100
1, 37680, Note_on_c, 1, 35, 95
1, 37680, Pitch_bend_c, 2, 5100
1, 37680, Note_on_c, 2, 83, 64
1, 37680, Note_on_c, 2, 71, 127
1, 37680, Note_on_c, 2, 59, 95
1, 37680, Pitch_bend_c, 3, 5100
1, 37680, Note_on_c, 3, 47, 64
1, 37695, Pitch_bend_c, 0, 6697
1, 37695, Pitch_bend_c, 1, 6697
1, 37695, Pitch_bend_c, 2, 6697
1, 37695, Pitch_bend_c, 3, 6697
1, 37760, Pitch_bend_c, 0, 6841
1, 37760, Pitch_bend_c, 1, 6841
1, 37760, Pitch_bend_c, 2, 6841
1, 37760, Pitch_bend_c, 3, 6841
1, 37790, Pitch_bend_c, 0, 6984
1, 37790, Pitch_bend_c, 1, 6984
1, 37790, Pitch_bend_c, 2, 6984
1, 37790, Pitch_bend_c, 3, 6984
1, 37805, Pitch_bend_c, 0, 7175
1, 37805, Pitch_bend_c, 1, 7175
1, 37805, Pitch_bend_c, 2, 7175
1, 37805, Pitch_bend_c, 3, 7175
1, 37820, Pitch_bend_c, 0, 7319
1, 37820, Pitch_bend_c, 1, 7319
1, 37820, Pitch_bend_c, 2, 7319
1, 37820, Pitch_bend_c, 3, 7319
1, 37840, Pitch_bend_c, 0, 7612
1, 37840, Pitch_bend_c, 1, 7612
1, 37840, Pitch_bend_c, 2, 7612
1, 37840, Pitch_bend_c, 3, 7612
1, 37855, Pitch_bend_c, 0, 7756
1, 37855, Pitch_bend_c, 1, 7756
1, 37855, Pitch_bend_c, 2, 7756
1, 37855, Pitch_bend_c, 3, 7756
1, 37870, Pitch_bend_c, 0, 7899
1, 37870, Pitch_bend_c, 1, 7899
1, 37870, Pitch_bend_c, 2, 7899
1, 37870, Pitch_bend_c, 3, 7899
1, 37885, Pitch_bend_c, 0, 8049
1, 37885, Pitch_bend_c, 1, 8049
1, 37885, Pitch_bend_c, 2, 8049
1, 37885, Pitch_bend_c, 3, 8049
1, 37900, Pitch_bend_c, 0, 8192
1, 37900, Pitch_bend_c, 1, 8192
1, 37900, Pitch_bend_c, 2, 8192
1, 37900, Pitch_bend_c, 3, 8192
1, 37920, Note_on_c, 3, 47, 0
1, 37920, Note_on_c, 1, 35, 0
1, 37920, Note_on_c, 2, 83, 0
1, 37920, Note_on_c, 0, 47, 0
1, 37920, Note_on_c, 2, 59, 0
1, 37920, Note_on_c, 2, 71, 0
1, 37920, Note_on_c, 0, 47, 95
1, 37920, Note_on_c, 1, 35, 95
1, 37920, Note_on_c, 2, 83, 64
1, 37920, Note_on_c, 2, 71, 127
1, 37920, Note_on_c, 2, 59, 95
1, 37920, Note_on_c, 3, 47, 64
1, 37920, Note_on_c, 9, 42, 63
1, 37920, Note_on_c, 9, 35, 103
1, 38040, Note_on_c, 9, 35, 0
1, 38160, Note_on_c, 0, 47, 0
1, 38160, Note_on_c, 2, 59, 0
1, 38160, Note_on_c, 1, 35, 0
1, 38160, Note_on_c, 2, 83, 0
1, 38160, Note_on_c, 2, 71, 0
1, 38160, Note_on_c, 3, 47, 0
1, 38160, Note_on_c, 9, 42, 0
1, 38160, Note_on_c, 0, 47, 95
1, 38160, Note_on_c, 1, 35, 95
1, 38160, Note_on_c, 2, 83, 64
1, 38160, Note_on_c, 2, 71, 127
1, 38160, Note_on_c, 2, 59, 95
1, 38160, Note_on_c, 3, 47, 64
1, 38190, Pitch_bend_c, 0, 8335
1, 38190, Pitch_bend_c, 1, 8335
1, 38190, Pitch_bend_c, 2, 8335
1, 38190, Pitch_bend_c, 3, 8335
1, 38240, Pitch_bend_c, 0, 8485
1, 38240, Pitch_bend_c, 1, 8485
1, 38240, Pitch_bend_c, 2, 8485
1, 38240, Pitch_bend_c, 3, 8485
1, 38255, Pitch_bend_c, 0, 8628
1, 38255, Pitch_bend_c, 1, 8628
1, 38255, Pitch_bend_c, 2, 8628
1, 38255, Pitch_bend_c, 3, 8628
1, 38270, Pitch_bend_c, 0, 8772
1, 38270, Pitch_bend_c, 1, 8772
1, 38270, Pitch_bend_c, 2, 8772
1, 38270, Pitch_bend_c, 3, 8772
1, 38285, Pitch_bend_c, 0, 9065
1, 38285, Pitch_bend_c, 1, 9065
1, 38285, Pitch_bend_c, 2, 9065
1, 38285, Pitch_bend_c, 3, 9065
1, 38300, Pitch_bend_c, 0, 9400
1, 38300, Pitch_bend_c, 1, 9400
1, 38300, Pitch_bend_c, 2, 9400
1, 38300, Pitch_bend_c, 3, 9400
1, 38320, Pitch_bend_c, 0, 9543
1, 38320, Pitch_bend_c, 1, 9543
1, 38320, Pitch_bend_c, 2, 9543
1, 38320, Pitch_bend_c, 3, 9543
1, 38335, Pitch_bend_c, 0, 9830
1, 38335, Pitch_bend_c, 1, 9830
1, 38335, Pitch_bend_c, 2, 9830
1, 38335, Pitch_bend_c, 3, 9830
1, 38350, Pitch_bend_c, 0, 10110
1, 38350, Pitch_bend_c, 1, 10110
1, 38350, Pitch_bend_c, 2, 10110
1, 38350, Pitch_bend_c, 3, 10110
1, 38365, Pitch_bend_c, 0, 10253
1, 38365, Pitch_bend_c, 1, 10253
1, 38365, Pitch_bend_c, 2, 10253
1, 38365, Pitch_bend_c, 3, 10253
1, 38380, Pitch_bend_c, 0, 10397
1, 38380, Pitch_bend_c, 1, 10397
1, 38380, Pitch_bend_c, 2, 10397
1, 38380, Pitch_bend_c, 3, 10397
1, 38400, Note_on_c, 3, 47, 0
1, 38400, Note_on_c, 1, 35, 0
1, 38400, Note_on_c, 2, 83, 0
1, 38400, Note_on_c, 0, 47, 0
1, 38400, Note_on_c, 2, 59, 0
1, 38400, Note_on_c, 2, 71, 0
1, 38400, Note_on_c, 4, 67, 101
1, 38400, Note_on_c, 4, 79, 101
1, 38400, Note_on_c, 4, 71, 101
1, 38400, Note_on_c, 4, 83, 101
1, 38400, Note_on_c, 6, 71, 101
1, 38400, Note_on_c, 6, 55, 101
1, 38400, Note_on_c, 6, 67, 101
1, 38400, Note_on_c, 6, 59, 101
1, 38400, Note_on_c, 9, 42, 100
1, 38400, Note_on_c, 9, 35, 103
1, 38520, Note_on_c, 9, 35, 0
1, 38640, Note_on_c, 4, 71, 0
1, 38640, Note_on_c, 4, 83, 0
1, 38640, Note_on_c, 4, 67, 0
1, 38640, Note_on_c, 6, 71, 0
1, 38640, Note_on_c, 4, 79, 0
1, 38640, Note_on_c, 6, 59, 0
1, 38640, Note_on_c, 6, 67, 0
1, 38640, Note_on_c, 6, 55, 0
1, 38640, Note_on_c, 9, 42, 0
1, 38760, Note_on_c, 4, 67, 101
1, 38760, Note_on_c, 4, 79, 101
1, 38760, Note_on_c, 4, 71, 101
1, 38760, Note_on_c, 4, 83, 101
1, 38760, Note_on_c, 6, 71, 101
1, 38760, Note_on_c, 6, 59, 101
1, 38760, Note_on_c, 6, 67, 101
1, 38760, Note_on_c, 6, 55, 101
1, 38880, Note_on_c, 9, 42, 64
1, 38880, Note_on_c, 9, 35, 103
1, 39000, Note_on_c, 9, 35, 0
1, 39000, Note_on_c, 4, 71, 0
1, 39000, Note_on_c, 6, 55, 0
1, 39000, Note_on_c, 4, 83, 0
1, 39000, Note_on_c, 6, 71, 0
1, 39000, Note_on_c, 4, 79, 0
1, 39000, Note_on_c, 6, 67, 0
1, 39000, Note_on_c, 4, 67, 0
1, 39000, Note_on_c, 6, 59, 0
1, 39120, Note_on_c, 9, 42, 0
1, 39120, Note_on_c, 4, 83, 101
1, 39120, Note_on_c, 4, 71, 101
1, 39120, Note_on_c, 4, 79, 101
1, 39120, Note_on_c, 4, 67, 101
1, 39120, Note_on_c, 6, 71, 101
1, 39120, Note_on_c, 6, 59, 101
1, 39120, Note_on_c, 6, 67, 101
1, 39120, Note_on_c, 6, 55, 101
1, 39360, Note_on_c, 6, 55, 0
1, 39360, Note_on_c, 4, 83, 0
1, 39360, Note_on_c, 6, 71, 0
1, 39360, Note_on_c, 4, 71, 0
1, 39360, Note_on_c, 4, 79, 0
1, 39360, Note_on_c, 4, 67, 0
1, 39360, Note_on_c, 6, 59, 0
1, 39360, Note_on_c, 6, 67, 0
1, 39360, Note_on_c, 4, 69, 101
1, 39360, Note_on_c, 4, 81, 101
1, 39360, Note_on_c, 4, 73, 101
1, 39360, Note_on_c, 4, 85, 101
1, 39360, Note_on_c, 6, 73, 101
1, 39360, Note_on_c, 6, 61, 101
1, 39360, Note_on_c, 6, 69, 101
1, 39360, Note_on_c, 6, 57, 101
1, 39360, Note_on_c, 8, 52, 127
1, 39360, Note_on_c, 9, 41, 127
1, 39360, Note_on_c, 12, 60, 103
1, 39480, Note_on_c, 9, 41, 0
1, 39600, Note_on_c, 6, 57, 0
1, 39600, Note_on_c, 4, 73, 0
1, 39600, Note_on_c, 4, 85, 0
1, 39600, Note_on_c, 4, 69, 0
1, 39600, Note_on_c, 6, 73, 0
1, 39600, Note_on_c, 4, 81, 0
1, 39600, Note_on_c, 6, 69, 0
1, 39600, Note_on_c, 6, 61, 0
1, 39720, Note_on_c, 4, 85, 101
1, 39720, Note_on_c, 4, 73, 101
1, 39720, Note_on_c, 4, 81, 101
1, 39720, Note_on_c, 4, 69, 101
1, 39720, Note_on_c, 6, 73, 101
1, 39720, Note_on_c, 6, 61, 101
1, 39720, Note_on_c, 6, 69, 101
1, 39720, Note_on_c, 6, 57, 101
1, 39720, Note_on_c, 9, 44, 80
1, 39720, Note_on_c, 9, 38, 80
1, 39840, Note_on_c, 9, 38, 0
1, 39840, Note_on_c, 9, 44, 0
1, 39840, Note_on_c, 9, 38, 80
1, 39960, Note_on_c, 9, 38, 0
1, 39960, Note_on_c, 6, 69, 0
1, 39960, Note_on_c, 4, 85, 0
1, 39960, Note_on_c, 4, 73, 0
1, 39960, Note_on_c, 6, 61, 0
1, 39960, Note_on_c, 4, 81, 0
1, 39960, Note_on_c, 6, 73, 0
1, 39960, Note_on_c, 6, 57, 0
1, 39960, Note_on_c, 4, 69, 0
1, 40080, Note_on_c, 8, 52, 0
1, 40080, Note_on_c, 4, 69, 101
1, 40080, Note_on_c, 4, 81, 101
1, 40080, Note_on_c, 4, 73, 101
1, 40080, Note_on_c, 4, 85, 101
1, 40080, Note_on_c, 6, 73, 101
1, 40080, Note_on_c, 6, 61, 101
1, 40080, Note_on_c, 6, 69, 101
1, 40080, Note_on_c, 6, 57, 101
1, 40080, Note_on_c, 8, 56, 127
1, 40080, Note_on_c, 9, 43, 127
1, 40200, Note_on_c, 9, 43, 0
1, 40320, Note_on_c, 6, 69, 0
1, 40320, Note_on_c, 4, 81, 0
1, 40320, Note_on_c, 4, 73, 0
1, 40320, Note_on_c, 8, 56, 0
1, 40320, Note_on_c, 4, 85, 0
1, 40320, Note_on_c, 4, 69, 0
1, 40320, Note_on_c, 6, 57, 0
1, 40320, Note_on_c, 6, 61, 0
1, 40320, Note_on_c, 6, 73, 0
1, 40320, Pitch_bend_c, 0, 8192
1, 40320, Note_on_c, 0, 35, 95
1, 40320, Pitch_bend_c, 1, 8192
1, 40320, Note_on_c, 1, 23, 95
1, 40320, Pitch_bend_c, 2, 8192
1, 40320, Note_on_c, 2, 71, 64
1, 40320, Note_on_c, 2, 59, 127
1, 40320, Note_on_c, 2, 47, 95
1, 40320, Pitch_bend_c, 3, 8192
1, 40320, Note_on_c, 3, 35, 64
1, 40320, Note_on_c, 7, 83, 100
1, 40320, Note_on_c, 7, 71, 100
1, 40320, Note_on_c, 9, 55, 127
1, 40320, Note_on_c, 9, 57, 127
1, 40320, Note_on_c, 9, 49, 127
1, 40320, Note_on_c, 9, 42, 103
1, 40320, Note_on_c, 9, 35, 103
1, 40335, Pitch_bend_c, 7, 7960
1, 40350, Pitch_bend_c, 7, 7646
1, 40365, Pitch_bend_c, 7, 7469
1, 40380, Pitch_bend_c, 7, 7394
1, 40440, Note_on_c, 9, 35, 0
1, 40440, Note_on_c, 9, 42, 0
1, 40440, Note_on_c, 12, 60, 0
1, 40560, Note_on_c, 9, 42, 73
1, 40680, Note_on_c, 9, 42, 0
1, 40680, Note_on_c, 3, 35, 0
1, 40680, Note_on_c, 0, 35, 0
1, 40680, Note_on_c, 2, 71, 0
1, 40680, Note_on_c, 2, 59, 0
1, 40680, Note_on_c, 1, 23, 0
1, 40680, Note_on_c, 2, 47, 0
1, 40680, Pitch_bend_c, 0, 0
1, 40680, Note_on_c, 0, 47, 95
1, 40680, Pitch_bend_c, 1, 0
1, 40680, Note_on_c, 1, 35, 95
1, 40680, Pitch_bend_c, 2, 0
1, 40680, Note_on_c, 2, 83, 64
1, 40680, Note_on_c, 2, 71, 127
1, 40680, Note_on_c, 2, 59, 95
1, 40680, Pitch_bend_c, 3, 0
1, 40680, Note_on_c, 3, 47, 64
1, 40695, Pitch_bend_c, 0, 8192
1, 40695, Pitch_bend_c, 1, 8192
1, 40695, Pitch_bend_c, 2, 8192
1, 40695, Pitch_bend_c, 3, 8192
1, 40720, Pitch_bend_c, 7, 7435
1, 40735, Pitch_bend_c, 7, 7510
1, 40750, Pitch_bend_c, 7, 7646
1, 40765, Pitch_bend_c, 7, 7858
1, 40780, Pitch_bend_c, 7, 8083
1, 40800, Note_on_c, 3, 47, 0
1, 40800, Note_on_c, 2, 83, 0
1, 40800, Note_on_c, 2, 59, 0
1, 40800, Note_on_c, 1, 35, 0
1, 40800, Note_on_c, 2, 71, 0
1, 40800, Note_on_c, 0, 47, 0
1, 40800, Pitch_bend_c, 7, 8192
1, 40800, Note_on_c, 9, 42, 73
1, 40800, Note_on_c, 9, 35, 102
1, 40800, Note_on_c, 9, 40, 89
1, 40800, Note_on_c, 9, 28, 103
1, 40920, Note_on_c, 9, 28, 0
1, 40920, Note_on_c, 9, 40, 0
1, 40920, Note_on_c, 9, 35, 0
1, 40920, Note_on_c, 9, 42, 0
1, 41040, Note_on_c, 0, 47, 95
1, 41040, Note_on_c, 1, 35, 95
1, 41040, Note_on_c, 2, 83, 64
1, 41040, Note_on_c, 2, 71, 127
1, 41040, Note_on_c, 2, 59, 95
1, 41040, Note_on_c, 3, 47, 64
1, 41040, Note_on_c, 9, 42, 73
1, 41160, Note_on_c, 9, 42, 0
1, 41280, Note_on_c, 2, 59, 0
1, 41280, Note_on_c, 2, 83, 0
1, 41280, Note_on_c, 1, 35, 0
1, 41280, Note_on_c, 2, 71, 0
1, 41280, Note_on_c, 3, 47, 0
1, 41280, Note_on_c, 0, 47, 0
1, 41280, Note_on_c, 9, 42, 88
1, 41280, Note_on_c, 9, 35, 102
1, 41400, Note_on_c, 9, 35, 0
1, 41400, Note_on_c, 9, 42, 0
1, 41400, Note_on_c, 0, 43, 95
1, 41400, Note_on_c, 1, 31, 95
1, 41400, Note_on_c, 2, 79, 64
1, 41400, Note_on_c, 2, 67, 127
1, 41400, Note_on_c, 2, 55, 95
1, 41400, Note_on_c, 3, 43, 64
1, 41520, Note_on_c, 3, 43, 0
1, 41520, Note_on_c, 2, 79, 0
1, 41520, Note_on_c, 2, 55, 0
1, 41520, Note_on_c, 1, 31, 0
1, 41520, Note_on_c, 2, 67, 0
1, 41520, Note_on_c, 0, 43, 0
1, 41520, Pitch_bend_c, 0, 5100
1, 41520, Note_on_c, 0, 47, 95
1, 41520, Pitch_bend_c, 1, 5100
1, 41520, Note_on_c, 1, 35, 95
1, 41520, Pitch_bend_c, 2, 5100
1, 41520, Note_on_c, 2, 83, 64
1, 41520, Note_on_c, 2, 71, 127
1, 41520, Note_on_c, 2, 59, 95
1, 41520, Pitch_bend_c, 3, 5100
1, 41520, Note_on_c, 3, 47, 64
1, 41520, Note_on_c, 9, 42, 73
1, 41535, Pitch_bend_c, 0, 6697
1, 41535, Pitch_bend_c, 1, 6697
1, 41535, Pitch_bend_c, 2, 6697
1, 41535, Pitch_bend_c, 3, 6697
1, 41580, Pitch_bend_c, 7, 8179
1, 41600, Pitch_bend_c, 0, 6841
1, 41600, Pitch_bend_c, 1, 6841
1, 41600, Pitch_bend_c, 2, 6841
1, 41600, Pitch_bend_c, 3, 6841
1, 41630, Pitch_bend_c, 0, 6984
1, 41630, Pitch_bend_c, 1, 6984
1, 41630, Pitch_bend_c, 2, 6984
1, 41630, Pitch_bend_c, 3, 6984
1, 41630, Pitch_bend_c, 7, 8172
1, 41640, Note_on_c, 9, 42, 0
1, 41645, Pitch_bend_c, 0, 7175
1, 41645, Pitch_bend_c, 1, 7175
1, 41645, Pitch_bend_c, 2, 7175
1, 41645, Pitch_bend_c, 3, 7175
1, 41645, Pitch_bend_c, 7, 8158
1, 41660, Pitch_bend_c, 0, 7319
1, 41660, Pitch_bend_c, 1, 7319
1, 41660, Pitch_bend_c, 2, 7319
1, 41660, Pitch_bend_c, 3, 7319
1, 41680, Pitch_bend_c, 0, 7612
1, 41680, Pitch_bend_c, 1, 7612
1, 41680, Pitch_bend_c, 2, 7612
1, 41680, Pitch_bend_c, 3, 7612
1, 41680, Pitch_bend_c, 7, 8145
1, 41695, Pitch_bend_c, 0, 7756
1, 41695, Pitch_bend_c, 1, 7756
1, 41695, Pitch_bend_c, 2, 7756
1, 41695, Pitch_bend_c, 3, 7756
1, 41695, Pitch_bend_c, 7, 8131
1, 41710, Pitch_bend_c, 0, 7899
1, 41710, Pitch_bend_c, 1, 7899
1, 41710, Pitch_bend_c, 2, 7899
1, 41710, Pitch_bend_c, 3, 7899
1, 41710, Pitch_bend_c, 7, 8124
1, 41725, Pitch_bend_c, 0, 8049
1, 41725, Pitch_bend_c, 1, 8049
1, 41725, Pitch_bend_c, 2, 8049
1, 41725, Pitch_bend_c, 3, 8049
1, 41740, Pitch_bend_c, 0, 8192
1, 41740, Pitch_bend_c, 1, 8192
1, 41740, Pitch_bend_c, 2, 8192
1, 41740, Pitch_bend_c, 3, 8192
1, 41740, Pitch_bend_c, 7, 8097
1, 41760, Note_on_c, 2, 59, 0
1, 41760, Note_on_c, 2, 83, 0
1, 41760, Note_on_c, 1, 35, 0
1, 41760, Note_on_c, 2, 71, 0
1, 41760, Note_on_c, 3, 47, 0
1, 41760, Note_on_c, 0, 47, 0
1, 41760, Note_on_c, 0, 47, 95
1, 41760, Note_on_c, 1, 35, 95
1, 41760, Note_on_c, 2, 83, 64
1, 41760, Note_on_c, 2, 71, 127
1, 41760, Note_on_c, 2, 59, 95
1, 41760, Note_on_c, 3, 47, 64
1, 41760, Pitch_bend_c, 7, 8083
1, 41760, Note_on_c, 9, 42, 73
1, 41760, Note_on_c, 9, 28, 103
1, 41760, Note_on_c, 9, 35, 103
1, 41760, Note_on_c, 9, 40, 90
1, 41790, Pitch_bend_c, 7, 8070
1, 41805, Pitch_bend_c, 7, 8056
1, 41840, Pitch_bend_c, 7, 8049
1, 41855, Pitch_bend_c, 7, 8035
1, 41880, Note_on_c, 9, 40, 0
1, 41880, Note_on_c, 9, 42, 0
1, 41880, Note_on_c, 9, 35, 0
1, 41880, Note_on_c, 9, 28, 0
1, 41885, Pitch_bend_c, 7, 8008
1, 41935, Pitch_bend_c, 7, 7995
1, 41950, Pitch_bend_c, 7, 7981
1, 41980, Pitch_bend_c, 7, 7974
1, 42000, Note_on_c, 2, 59, 0
1, 42000, Note_on_c, 2, 83, 0
1, 42000, Note_on_c, 1, 35, 0
1, 42000, Note_on_c, 2, 71, 0
1, 42000, Note_on_c, 0, 47, 0
1, 42000, Note_on_c, 3, 47, 0
1, 42000, Note_on_c, 0, 47, 95
1, 42000, Note_on_c, 1, 35, 95
1, 42000, Note_on_c, 2, 83, 64
1, 42000, Note_on_c, 2, 71, 127
1, 42000, Note_on_c, 2, 59, 95
1, 42000, Note_on_c, 3, 47, 64
1, 42000, Note_on_c, 9, 42, 73
1, 42030, Pitch_bend_c, 0, 8335
1, 42030, Pitch_bend_c, 1, 8335
1, 42030, Pitch_bend_c, 2, 8335
1, 42030, Pitch_bend_c, 3, 8335
1, 42030, Pitch_bend_c, 7, 7960
1, 42080, Pitch_bend_c, 0, 8485
1, 42080, Pitch_bend_c, 1, 8485
1, 42080, Pitch_bend_c, 2, 8485
1, 42080, Pitch_bend_c, 3, 8485
1, 42080, Pitch_bend_c, 7, 7947
1, 42095, Pitch_bend_c, 0, 8628
1, 42095, Pitch_bend_c, 1, 8628
1, 42095, Pitch_bend_c, 2, 8628
1, 42095, Pitch_bend_c, 3, 8628
1, 42110, Pitch_bend_c, 0, 8772
1, 42110, Pitch_bend_c, 1, 8772
1, 42110, Pitch_bend_c, 2, 8772
1, 42110, Pitch_bend_c, 3, 8772
1, 42120, Note_on_c, 9, 42, 0
1, 42125, Pitch_bend_c, 0, 9065
1, 42125, Pitch_bend_c, 1, 9065
1, 42125, Pitch_bend_c, 2, 9065
1, 42125, Pitch_bend_c, 3, 9065
1, 42140, Pitch_bend_c, 0, 9400
1, 42140, Pitch_bend_c, 1, 9400
1, 42140, Pitch_bend_c, 2, 9400
1, 42140, Pitch_bend_c, 3, 9400
1, 42160, Pitch_bend_c, 0, 9543
1, 42160, Pitch_bend_c, 1, 9543
1, 42160, Pitch_bend_c, 2, 9543
1, 42160, Pitch_bend_c, 3, 9543
1, 42160, Pitch_bend_c, 7, 7933
1, 42175, Pitch_bend_c, 0, 9830
1, 42175, Pitch_bend_c, 1, 9830
1, 42175, Pitch_bend_c, 2, 9830
1, 42175, Pitch_bend_c, 3, 9830
1, 42190, Pitch_bend_c, 0, 10110
1, 42190, Pitch_bend_c, 1, 10110
1, 42190, Pitch_bend_c, 2, 10110
1, 42190, Pitch_bend_c, 3, 10110
1, 42205, Pitch_bend_c, 0, 10253
1, 42205, Pitch_bend_c, 1, 10253
1, 42205, Pitch_bend_c, 2, 10253
1, 42205, Pitch_bend_c, 3, 10253
1, 42220, Pitch_bend_c, 0, 10397
1, 42220, Pitch_bend_c, 1, 10397
1, 42220, Pitch_bend_c, 2, 10397
1, 42220, Pitch_bend_c, 3, 10397
1, 42240, Note_on_c, 9, 55, 0
1, 42240, Note_on_c, 2, 83, 0
1, 42240, Note_on_c, 9, 57, 0
1, 42240, Note_on_c, 7, 83, 0
1, 42240, Note_on_c, 9, 49, 0
1, 42240, Note_on_c, 7, 71, 0
1, 42240, Note_on_c, 0, 47, 0
1, 42240, Note_on_c, 2, 71, 0
1, 42240, Note_on_c, 1, 35, 0
1, 42240, Note_on_c, 3, 47, 0
1, 42240, Note_on_c, 2, 59, 0
1, 42240, Pitch_bend_c, 0, 12165
1, 42240, Note_on_c, 0, 35, 95
1, 42240, Pitch_bend_c, 1, 12165
1, 42240, Note_on_c, 1, 23, 95
1, 42240, Pitch_bend_c, 2, 12165
1, 42240, Note_on_c, 2, 71, 64
1, 42240, Note_on_c, 2, 59, 127
1, 42240, Note_on_c, 2, 47, 95
1, 42240, Pitch_bend_c, 3, 12165
1, 42240, Note_on_c, 3, 35, 64
1, 42240, Pitch_bend_c, 7, 8192
1, 42240, Note_on_c, 7, 83, 100
1, 42240, Note_on_c, 7, 71, 100
1, 42240, Note_on_c, 9, 42, 103
1, 42240, Note_on_c, 9, 35, 103
1, 42255, Pitch_bend_c, 0, 8192
1, 42255, Pitch_bend_c, 1, 8192
1, 42255, Pitch_bend_c, 2, 8192
1, 42255, Pitch_bend_c, 3, 8192
1, 42255, Pitch_bend_c, 7, 8260
1, 42270, Pitch_bend_c, 7, 8437
1, 42285, Pitch_bend_c, 7, 8744
1, 42300, Pitch_bend_c, 7, 8977
1, 42360, Note_on_c, 9, 35, 0
1, 42360, Note_on_c, 9, 42, 0
1, 42480, Note_on_c, 9, 42, 73
1, 42600, Note_on_c, 9, 42, 0
1, 42600, Note_on_c, 2, 59, 0
1, 42600, Note_on_c, 0, 35, 0
1, 42600, Note_on_c, 2, 71, 0
1, 42600, Note_on_c, 1, 23, 0
1, 42600, Note_on_c, 3, 35, 0
1, 42600, Note_on_c, 2, 47, 0
1, 42600, Pitch_bend_c, 0, 0
1, 42600, Note_on_c, 0, 47, 95
1, 42600, Pitch_bend_c, 1, 0
1, 42600, Note_on_c, 1, 35, 95
1, 42600, Pitch_bend_c, 2, 0
1, 42600, Note_on_c, 2, 83, 64
1, 42600, Note_on_c, 2, 71, 127
1, 42600, Note_on_c, 2, 59, 95
1, 42600, Pitch_bend_c, 3, 0
1, 42600, Note_on_c, 3, 47, 64
1, 42615, Pitch_bend_c, 0, 8192
1, 42615, Pitch_bend_c, 1, 8192
1, 42615, Pitch_bend_c, 2, 8192
1, 42615, Pitch_bend_c, 3, 8192
1, 42640, Pitch_bend_c, 7, 8874
1, 42655, Pitch_bend_c, 7, 8649
1, 42670, Pitch_bend_c, 7, 8437
1, 42685, Pitch_bend_c, 7, 8301
1, 42700, Pitch_bend_c, 7, 8226
1, 42720, Note_on_c, 3, 47, 0
1, 42720, Note_on_c, 2, 59, 0
1, 42720, Note_on_c, 2, 83, 0
1, 42720, Note_on_c, 1, 35, 0
1, 42720, Note_on_c, 0, 47, 0
1, 42720, Note_on_c, 2, 71, 0
1, 42720, Pitch_bend_c, 7, 8192
1, 42720, Note_on_c, 9, 42, 73
1, 42720, Note_on_c, 9, 28, 102
1, 42720, Note_on_c, 9, 35, 103
1, 42720, Note_on_c, 9, 40, 91
1, 42840, Note_on_c, 9, 40, 0
1, 42840, Note_on_c, 9, 28, 0
1, 42840, Note_on_c, 9, 42, 0
1, 42840, Note_on_c, 9, 35, 0
1, 42960, Note_on_c, 0, 47, 95
1, 42960, Note_on_c, 1, 35, 95
1, 42960, Note_on_c, 2, 83, 64
1, 42960, Note_on_c, 2, 71, 127
1, 42960, Note_on_c, 2, 59, 95
1, 42960, Note_on_c, 3, 47, 64
1, 42960, Note_on_c, 9, 42, 73
1, 43080, Note_on_c, 9, 42, 0
1, 43200, Note_on_c, 1, 35, 0
1, 43200, Note_on_c, 3, 47, 0
1, 43200, Note_on_c, 2, 83, 0
1, 43200, Note_on_c, 2, 59, 0
1, 43200, Note_on_c, 0, 47, 0
1, 43200, Note_on_c, 2, 71, 0
1, 43200, Note_on_c, 0, 47, 95
1, 43200, Note_on_c, 1, 35, 95
1, 43200, Note_on_c, 2, 83, 64
1, 43200, Note_on_c, 2, 71, 127
1, 43200, Note_on_c, 2, 59, 95
1, 43200, Note_on_c, 3, 47, 64
1, 43200, Note_on_c, 9, 42, 88
1, 43200, Note_on_c, 9, 35, 104
1, 43230, Pitch_bend_c, 0, 8049
1, 43230, Pitch_bend_c, 1, 8049
1, 43230, Pitch_bend_c, 2, 8049
1, 43230, Pitch_bend_c, 3, 8049
1, 43260, Pitch_bend_c, 0, 7899
1, 43260, Pitch_bend_c, 1, 7899
1, 43260, Pitch_bend_c, 2, 7899
1, 43260, Pitch_bend_c, 3, 7899
1, 43295, Pitch_bend_c, 0, 7756
1, 43295, Pitch_bend_c, 1, 7756
1, 43295, Pitch_bend_c, 2, 7756
1, 43295, Pitch_bend_c, 3, 7756
1, 43320, Note_on_c, 9, 35, 0
1, 43320, Note_on_c, 9, 42, 0
1, 43325, Pitch_bend_c, 0, 7612
1, 43325, Pitch_bend_c, 1, 7612
1, 43325, Pitch_bend_c, 2, 7612
1, 43325, Pitch_bend_c, 3, 7612
1, 43360, Pitch_bend_c, 0, 7469
1, 43360, Pitch_bend_c, 1, 7469
1, 43360, Pitch_bend_c, 2, 7469
1, 43360, Pitch_bend_c, 3, 7469
1, 43380, Note_on_c, 1, 35, 0
1, 43380, Note_on_c, 0, 47, 0
1, 43380, Note_on_c, 2, 83, 0
1, 43380, Note_on_c, 2, 59, 0
1, 43380, Note_on_c, 3, 47, 0
1, 43380, Note_on_c, 2, 71, 0
1, 43440, Note_on_c, 0, 47, 95
1, 43440, Note_on_c, 1, 35, 95
1, 43440, Note_on_c, 2, 83, 64
1, 43440, Note_on_c, 2, 71, 127
1, 43440, Note_on_c, 2, 59, 95
1, 43440, Note_on_c, 3, 47, 64
1, 43440, Note_on_c, 9, 42, 73
1, 43455, Pitch_bend_c, 0, 7319
1, 43455, Pitch_bend_c, 1, 7319
1, 43455, Pitch_bend_c, 2, 7319
1, 43455, Pitch_bend_c, 3, 7319
1, 43500, Pitch_bend_c, 0, 7175
1, 43500, Pitch_bend_c, 1, 7175
1, 43500, Pitch_bend_c, 2, 7175
1, 43500, Pitch_bend_c, 3, 7175
1, 43500, Pitch_bend_c, 7, 8179
1, 43520, Pitch_bend_c, 0, 6984
1, 43520, Pitch_bend_c, 1, 6984
1, 43520, Pitch_bend_c, 2, 6984
1, 43520, Pitch_bend_c, 3, 6984
1, 43550, Pitch_bend_c, 0, 6841
1, 43550, Pitch_bend_c, 1, 6841
1, 43550, Pitch_bend_c, 2, 6841
1, 43550, Pitch_bend_c, 3, 6841
1, 43550, Pitch_bend_c, 7, 8172
1, 43560, Note_on_c, 9, 42, 0
1, 43565, Pitch_bend_c, 7, 8158
1, 43580, Pitch_bend_c, 0, 6697
1, 43580, Pitch_bend_c, 1, 6697
1, 43580, Pitch_bend_c, 2, 6697
1, 43580, Pitch_bend_c, 3, 6697
1, 43600, Pitch_bend_c, 7, 8145
1, 43615, Pitch_bend_c, 7, 8131
1, 43630, Pitch_bend_c, 7, 8124
1, 43660, Pitch_bend_c, 0, 6554
1, 43660, Pitch_bend_c, 1, 6554
1, 43660, Pitch_bend_c, 2, 6554
1, 43660, Pitch_bend_c, 3, 6554
1, 43660, Pitch_bend_c, 7, 8097
1, 43680, Note_on_c, 1, 35, 0
1, 43680, Note_on_c, 3, 47, 0
1, 43680, Note_on_c, 2, 83, 0
1, 43680, Note_on_c, 2, 59, 0
1, 43680, Note_on_c, 0, 47, 0
1, 43680, Note_on_c, 2, 71, 0
1, 43680, Note_on_c, 0, 47, 95
1, 43680, Note_on_c, 1, 35, 95
1, 43680, Note_on_c, 2, 83, 64
1, 43680, Note_on_c, 2, 71, 127
1, 43680, Note_on_c, 2, 59, 95
1, 43680, Note_on_c, 3, 47, 64
1, 43680, Pitch_bend_c, 7, 8083
1, 43680, Note_on_c, 9, 42, 73
1, 43680, Note_on_c, 9, 28, 102
1, 43680, Note_on_c, 9, 35, 104
1, 43680, Note_on_c, 9, 40, 92
1, 43710, Pitch_bend_c, 0, 6418
1, 43710, Pitch_bend_c, 1, 6418
1, 43710, Pitch_bend_c, 2, 6418
1, 43710, Pitch_bend_c, 3, 6418
1, 43710, Pitch_bend_c, 7, 8070
1, 43725, Pitch_bend_c, 0, 6274
1, 43725, Pitch_bend_c, 1, 6274
1, 43725, Pitch_bend_c, 2, 6274
1, 43725, Pitch_bend_c, 3, 6274
1, 43725, Pitch_bend_c, 7, 8056
1, 43740, Pitch_bend_c, 0, 6131
1, 43740, Pitch_bend_c, 1, 6131
1, 43740, Pitch_bend_c, 2, 6131
1, 43740, Pitch_bend_c, 3, 6131
1, 43760, Pitch_bend_c, 0, 5987
1, 43760, Pitch_bend_c, 1, 5987
1, 43760, Pitch_bend_c, 2, 5987
1, 43760, Pitch_bend_c, 3, 5987
1, 43760, Pitch_bend_c, 7, 8049
1, 43775, Pitch_bend_c, 0, 5803
1, 43775, Pitch_bend_c, 1, 5803
1, 43775, Pitch_bend_c, 2, 5803
1, 43775, Pitch_bend_c, 3, 5803
1, 43775, Pitch_bend_c, 7, 8035
1, 43790, Pitch_bend_c, 0, 5660
1, 43790, Pitch_bend_c, 1, 5660
1, 43790, Pitch_bend_c, 2, 5660
1, 43790, Pitch_bend_c, 3, 5660
1, 43800, Note_on_c, 9, 40, 0
1, 43800, Note_on_c, 9, 28, 0
1, 43800, Note_on_c, 9, 42, 0
1, 43800, Note_on_c, 9, 35, 0
1, 43805, Pitch_bend_c, 0, 5516
1, 43805, Pitch_bend_c, 1, 5516
1, 43805, Pitch_bend_c, 2, 5516
1, 43805, Pitch_bend_c, 3, 5516
1, 43805, Pitch_bend_c, 7, 8008
1, 43820, Pitch_bend_c, 0, 5380
1, 43820, Pitch_bend_c, 1, 5380
1, 43820, Pitch_bend_c, 2, 5380
1, 43820, Pitch_bend_c, 3, 5380
1, 43840, Pitch_bend_c, 0, 5237
1, 43840, Pitch_bend_c, 1, 5237
1, 43840, Pitch_bend_c, 2, 5237
1, 43840, Pitch_bend_c, 3, 5237
1, 43855, Pitch_bend_c, 7, 7995
1, 43870, Pitch_bend_c, 0, 5100
1, 43870, Pitch_bend_c, 1, 5100
1, 43870, Pitch_bend_c, 2, 5100
1, 43870, Pitch_bend_c, 3, 5100
1, 43870, Pitch_bend_c, 7, 7981
1, 43900, Pitch_bend_c, 7, 7974
1, 43920, Note_on_c, 1, 35, 0
1, 43920, Note_on_c, 3, 47, 0
1, 43920, Note_on_c, 2, 83, 0
1, 43920, Note_on_c, 2, 59, 0
1, 43920, Note_on_c, 0, 47, 0
1, 43920, Note_on_c, 2, 71, 0
1, 43920, Note_on_c, 0, 47, 95
1, 43920, Note_on_c, 1, 35, 95
1, 43920, Note_on_c, 2, 83, 64
1, 43920, Note_on_c, 2, 71, 127
1, 43920, Note_on_c, 2, 59, 95
1, 43920, Note_on_c, 3, 47, 64
1, 43920, Note_on_c, 9, 42, 73
1, 43935, Pitch_bend_c, 0, 4963
1, 43935, Pitch_bend_c, 1, 4963
1, 43935, Pitch_bend_c, 2, 4963
1, 43935, Pitch_bend_c, 3, 4963
1, 43950, Pitch_bend_c, 0, 4636
1, 43950, Pitch_bend_c, 1, 4636
1, 43950, Pitch_bend_c, 2, 4636
1, 43950, Pitch_bend_c, 3, 4636
1, 43950, Pitch_bend_c, 7, 7960
1, 43965, Pitch_bend_c, 0, 4499
1, 43965, Pitch_bend_c, 1, 4499
1, 43965, Pitch_bend_c, 2, 4499
1, 43965, Pitch_bend_c, 3, 4499
1, 43980, Pitch_bend_c, 0, 4083
1, 43980, Pitch_bend_c, 1, 4083
1, 43980, Pitch_bend_c, 2, 4083
1, 43980, Pitch_bend_c, 3, 4083
1, 44000, Pitch_bend_c, 0, 3810
1, 44000, Pitch_bend_c, 1, 3810
1, 44000, Pitch_bend_c, 2, 3810
1, 44000, Pitch_bend_c, 3, 3810
1, 44000, Pitch_bend_c, 7, 7947
1, 44015, Pitch_bend_c, 0, 3359
1, 44015, Pitch_bend_c, 1, 3359
1, 44015, Pitch_bend_c, 2, 3359
1, 44015, Pitch_bend_c, 3, 3359
1, 44030, Pitch_bend_c, 0, 3086
1, 44030, Pitch_bend_c, 1, 3086
1, 44030, Pitch_bend_c, 2, 3086
1, 44030, Pitch_bend_c, 3, 3086
1, 44040, Note_on_c, 9, 42, 0
1, 44045, Pitch_bend_c, 0, 2820
1, 44045, Pitch_bend_c, 1, 2820
1, 44045, Pitch_bend_c, 2, 2820
1, 44045, Pitch_bend_c, 3, 2820
1, 44060, Pitch_bend_c, 0, 2683
1, 44060, Pitch_bend_c, 1, 2683
1, 44060, Pitch_bend_c, 2, 2683
1, 44060, Pitch_bend_c, 3, 2683
1, 44080, Pitch_bend_c, 0, 2369
1, 44080, Pitch_bend_c, 1, 2369
1, 44080, Pitch_bend_c, 2, 2369
1, 44080, Pitch_bend_c, 3, 2369
1, 44080, Pitch_bend_c, 7, 7933
1, 44095, Pitch_bend_c, 0, 2240
1, 44095, Pitch_bend_c, 1, 2240
1, 44095, Pitch_bend_c, 2, 2240
1, 44095, Pitch_bend_c, 3, 2240
1, 44125, Pitch_bend_c, 0, 2103
1, 44125, Pitch_bend_c, 1, 2103
1, 44125, Pitch_bend_c, 2, 2103
1, 44125, Pitch_bend_c, 3, 2103
1, 44160, Note_on_c, 1, 35, 0
1, 44160, Note_on_c, 7, 83, 0
1, 44160, Note_on_c, 2, 83, 0
1, 44160, Note_on_c, 7, 71, 0
1, 44160, Note_on_c, 0, 47, 0
1, 44160, Note_on_c, 2, 59, 0
1, 44160, Note_on_c, 2, 71, 0
1, 44160, Note_on_c, 3, 47, 0
1, 44160, Pitch_bend_c, 0, 8192
1, 44160, Note_on_c, 0, 35, 95
1, 44160, Pitch_bend_c, 1, 8192
1, 44160, Note_on_c, 1, 23, 95
1, 44160, Pitch_bend_c, 2, 8192
1, 44160, Note_on_c, 2, 71, 64
1, 44160, Note_on_c, 2, 59, 127
1, 44160, Note_on_c, 2, 47, 95
1, 44160, Pitch_bend_c, 3, 8192
1, 44160, Note_on_c, 3, 35, 64
1, 44160, Pitch_bend_c, 7, 8192
1, 44160, Note_on_c, 7, 83, 100
1, 44160, Note_on_c, 7, 71, 100
1, 44160, Note_on_c, 9, 42, 103
1, 44160, Note_on_c, 9, 35, 103
1, 44175, Pitch_bend_c, 7, 7960
1, 44190, Pitch_bend_c, 7, 7646
1, 44205, Pitch_bend_c, 7, 7469
1, 44220, Pitch_bend_c, 7, 7394
1, 44280, Note_on_c, 9, 35, 0
1, 44280, Note_on_c, 9, 42, 0
1, 44400, Note_on_c, 9, 42, 73
1, 44520, Note_on_c, 9, 42, 0
1, 44520, Note_on_c, 2, 59, 0
1, 44520, Note_on_c, 0, 35, 0
1, 44520, Note_on_c, 2, 71, 0
1, 44520, Note_on_c, 1, 23, 0
1, 44520, Note_on_c, 3, 35, 0
1, 44520, Note_on_c, 2, 47, 0
1, 44520, Pitch_bend_c, 0, 0
1, 44520, Note_on_c, 0, 47, 95
1, 44520, Pitch_bend_c, 1, 0
1, 44520, Note_on_c, 1, 35, 95
1, 44520, Pitch_bend_c, 2, 0
1, 44520, Note_on_c, 2, 83, 64
1, 44520, Note_on_c, 2, 71, 127
1, 44520, Note_on_c, 2, 59, 95
1, 44520, Pitch_bend_c, 3, 0
1, 44520, Note_on_c, 3, 47, 64
1, 44535, Pitch_bend_c, 0, 8192
1, 44535, Pitch_bend_c, 1, 8192
1, 44535, Pitch_bend_c, 2, 8192
1, 44535, Pitch_bend_c, 3, 8192
1, 44560, Pitch_bend_c, 7, 7435
1, 44575, Pitch_bend_c, 7, 7510
1, 44590, Pitch_bend_c, 7, 7646
1, 44605, Pitch_bend_c, 7, 7858
1, 44620, Pitch_bend_c, 7, 8083
1, 44640, Note_on_c, 3, 47, 0
1, 44640, Note_on_c, 2, 59, 0
1, 44640, Note_on_c, 2, 83, 0
1, 44640, Note_on_c, 1, 35, 0
1, 44640, Note_on_c, 0, 47, 0
1, 44640, Note_on_c, 2, 71, 0
1, 44640, Pitch_bend_c, 7, 8192
1, 44640, Note_on_c, 9, 42, 73
1, 44640, Note_on_c, 9, 35, 102
1, 44640, Note_on_c, 9, 40, 89
1, 44640, Note_on_c, 9, 28, 103
1, 44760, Note_on_c, 9, 28, 0
1, 44760, Note_on_c, 9, 35, 0
1, 44760, Note_on_c, 9, 42, 0
1, 44760, Note_on_c, 9, 40, 0
1, 44880, Note_on_c, 0, 47, 95
1, 44880, Note_on_c, 1, 35, 95
1, 44880, Note_on_c, 2, 83, 64
1, 44880, Note_on_c, 2, 71, 127
1, 44880, Note_on_c, 2, 59, 95
1, 44880, Note_on_c, 3, 47, 64
1, 44880, Note_on_c, 9, 42, 73
1, 45000, Note_on_c, 9, 42, 0
1, 45120, Note_on_c, 1, 35, 0
1, 45120, Note_on_c, 3, 47, 0
1, 45120, Note_on_c, 2, 83, 0
1, 45120, Note_on_c, 2, 59, 0
1, 45120, Note_on_c, 0, 47, 0
1, 45120, Note_on_c, 2, 71, 0
1, 45120, Note_on_c, 9, 42, 88
1, 45120, Note_on_c, 9, 35, 102
1, 45240, Note_on_c, 9, 35, 0
1, 45240, Note_on_c, 9, 42, 0
1, 45240, Note_on_c, 0, 43, 95
1, 45240, Note_on_c, 1, 31, 95
1, 45240, Note_on_c, 2, 79, 64
1, 45240, Note_on_c, 2, 67, 127
1, 45240, Note_on_c, 2, 55, 95
1, 45240, Note_on_c, 3, 43, 64
1, 45360, Note_on_c, 3, 43, 0
1, 45360, Note_on_c, 2, 55, 0
1, 45360, Note_on_c, 2, 79, 0
1, 45360, Note_on_c, 1, 31, 0
1, 45360, Note_on_c, 0, 43, 0
1, 45360, Note_on_c, 2, 67, 0
1, 45360, Pitch_bend_c, 0, 5100
1, 45360, Note_on_c, 0, 47, 95
1, 45360, Pitch_bend_c, 1, 5100
1, 45360, Note_on_c, 1, 35, 95
1, 45360, Pitch_bend_c, 2, 5100
1, 45360, Note_on_c, 2, 83, 64
1, 45360, Note_on_c, 2, 71, 127
1, 45360, Note_on_c, 2, 59, 95
1, 45360, Pitch_bend_c, 3, 5100
1, 45360, Note_on_c, 3, 47, 64
1, 45360, Note_on_c, 9, 42, 73
1, 45375, Pitch_bend_c, 0, 6697
1, 45375, Pitch_bend_c, 1, 6697
1, 45375, Pitch_bend_c, 2, 6697
1, 45375, Pitch_bend_c, 3, 6697
1, 45420, Pitch_bend_c, 7, 8179
1, 45440, Pitch_bend_c, 0, 6841
1, 45440, Pitch_bend_c, 1, 6841
1, 45440, Pitch_bend_c, 2, 6841
1, 45440, Pitch_bend_c, 3, 6841
1, 45470, Pitch_bend_c, 0, 6984
1, 45470, Pitch_bend_c, 1, 6984
1, 45470, Pitch_bend_c, 2, 6984
1, 45470, Pitch_bend_c, 3, 6984
1, 45470, Pitch_bend_c, 7, 8172
1, 45480, Note_on_c, 9, 42, 0
1, 45485, Pitch_bend_c, 0, 7175
1, 45485, Pitch_bend_c, 1, 7175
1, 45485, Pitch_bend_c, 2, 7175
1, 45485, Pitch_bend_c, 3, 7175
1, 45485, Pitch_bend_c, 7, 8158
1, 45500, Pitch_bend_c, 0, 7319
1, 45500, Pitch_bend_c, 1, 7319
1, 45500, Pitch_bend_c, 2, 7319
1, 45500, Pitch_bend_c, 3, 7319
1, 45520, Pitch_bend_c, 0, 7612
1, 45520, Pitch_bend_c, 1, 7612
1, 45520, Pitch_bend_c, 2, 7612
1, 45520, Pitch_bend_c, 3, 7612
1, 45520, Pitch_bend_c, 7, 8145
1, 45535, Pitch_bend_c, 0, 7756
1, 45535, Pitch_bend_c, 1, 7756
1, 45535, Pitch_bend_c, 2, 7756
1, 45535, Pitch_bend_c, 3, 7756
1, 45535, Pitch_bend_c, 7, 8131
1, 45550, Pitch_bend_c, 0, 7899
1, 45550, Pitch_bend_c, 1, 7899
1, 45550, Pitch_bend_c, 2, 7899
1, 45550, Pitch_bend_c, 3, 7899
1, 45550, Pitch_bend_c, 7, 8124
1, 45565, Pitch_bend_c, 0, 8049
1, 45565, Pitch_bend_c, 1, 8049
1, 45565, Pitch_bend_c, 2, 8049
1, 45565, Pitch_bend_c, 3, 8049
1, 45580, Pitch_bend_c, 0, 8192
1, 45580, Pitch_bend_c, 1, 8192
1, 45580, Pitch_bend_c, 2, 8192
1, 45580, Pitch_bend_c, 3, 8192
1, 45580, Pitch_bend_c, 7, 8097
1, 45600, Note_on_c, 1, 35, 0
1, 45600, Note_on_c, 3, 47, 0
1, 45600, Note_on_c, 2, 83, 0
1, 45600, Note_on_c, 2, 59, 0
1, 45600, Note_on_c, 0, 47, 0
1, 45600, Note_on_c, 2, 71, 0
1, 45600, Note_on_c, 0, 47, 95
1, 45600, Note_on_c, 1, 35, 95
1, 45600, Note_on_c, 2, 83, 64
1, 45600, Note_on_c, 2, 71, 127
1, 45600, Note_on_c, 2, 59, 95
1, 45600, Note_on_c, 3, 47, 64
1, 45600, Pitch_bend_c, 7, 8083
1, 45600, Note_on_c, 9, 42, 73
1, 45600, Note_on_c, 9, 28, 103
1, 45600, Note_on_c, 9, 35, 103
1, 45600, Note_on_c, 9, 40, 90
1, 45630, Pitch_bend_c, 7, 8070
1, 45645, Pitch_bend_c, 7, 8056
1, 45680, Pitch_bend_c, 7, 8049
1, 45695, Pitch_bend_c, 7, 8035
1, 45720, Note_on_c, 9, 40, 0
1, 45720, Note_on_c, 9, 28, 0
1, 45720, Note_on_c, 9, 42, 0
1, 45720, Note_on_c, 9, 35, 0
1, 45725, Pitch_bend_c, 7, 8008
1, 45775, Pitch_bend_c, 7, 7995
1, 45790, Pitch_bend_c, 7, 7981
1, 45820, Pitch_bend_c, 7, 7974
1, 45840, Note_on_c, 1, 35, 0
1, 45840, Note_on_c, 3, 47, 0
1, 45840, Note_on_c, 2, 83, 0
1, 45840, Note_on_c, 2, 59, 0
1, 45840, Note_on_c, 0, 47, 0
1, 45840, Note_on_c, 2, 71, 0
1, 45840, Note_on_c, 0, 47, 95
1, 45840, Note_on_c, 1, 35, 95
1, 45840, Note_on_c, 2, 83, 64
1, 45840, Note_on_c, 2, 71, 127
1, 45840, Note_on_c, 2, 59, 95
1, 45840, Note_on_c, 3, 47, 64
1, 45840, Note_on_c, 9, 42, 73
1, 45870, Pitch_bend_c, 0, 8335
1, 45870, Pitch_bend_c, 1, 8335
1, 45870, Pitch_bend_c, 2, 8335
1, 45870, Pitch_bend_c, 3, 8335
1, 45870, Pitch_bend_c, 7, 7960
1, 45920, Pitch_bend_c, 0, 8485
1, 45920, Pitch_bend_c, 1, 8485
1, 45920, Pitch_bend_c, 2, 8485
1, 45920, Pitch_bend_c, 3, 8485
1, 45920, Pitch_bend_c, 7, 7947
1, 45935, Pitch_bend_c, 0, 8628
1, 45935, Pitch_bend_c, 1, 8628
1, 45935, Pitch_bend_c, 2, 8628
1, 45935, Pitch_bend_c, 3, 8628
1, 45950, Pitch_bend_c, 0, 8772
1, 45950, Pitch_bend_c, 1, 8772
1, 45950, Pitch_bend_c, 2, 8772
1, 45950, Pitch_bend_c, 3, 8772
1, 45960, Note_on_c, 9, 42, 0
1, 45965, Pitch_bend_c, 0, 9065
1, 45965, Pitch_bend_c, 1, 9065
1, 45965, Pitch_bend_c, 2, 9065
1, 45965, Pitch_bend_c, 3, 9065
1, 45980, Pitch_bend_c, 0, 9400
1, 45980, Pitch_bend_c, 1, 9400
1, 45980, Pitch_bend_c, 2, 9400
1, 45980, Pitch_bend_c, 3, 9400
1, 46000, Pitch_bend_c, 0, 9543
1, 46000, Pitch_bend_c, 1, 9543
1, 46000, Pitch_bend_c, 2, 9543
1, 46000, Pitch_bend_c, 3, 9543
1, 46000, Pitch_bend_c, 7, 7933
1, 46015, Pitch_bend_c, 0, 9830
1, 46015, Pitch_bend_c, 1, 9830
1, 46015, Pitch_bend_c, 2, 9830
1, 46015, Pitch_bend_c, 3, 9830
1, 46030, Pitch_bend_c, 0, 10110
1, 46030, Pitch_bend_c, 1, 10110
1, 46030, Pitch_bend_c, 2, 10110
1, 46030, Pitch_bend_c, 3, 10110
1, 46045, Pitch_bend_c, 0, 10253
1, 46045, Pitch_bend_c, 1, 10253
1, 46045, Pitch_bend_c, 2, 10253
1, 46045, Pitch_bend_c, 3, 10253
1, 46060, Pitch_bend_c, 0, 10397
1, 46060, Pitch_bend_c, 1, 10397
1, 46060, Pitch_bend_c, 2, 10397
1, 46060, Pitch_bend_c, 3, 10397
1, 46080, Note_on_c, 1, 35, 0
1, 46080, Note_on_c, 7, 83, 0
1, 46080, Note_on_c, 2, 83, 0
1, 46080, Note_on_c, 7, 71, 0
1, 46080, Note_on_c, 0, 47, 0
1, 46080, Note_on_c, 2, 59, 0
1, 46080, Note_on_c, 2, 71, 0
1, 46080, Note_on_c, 3, 47, 0
1, 46080, Pitch_bend_c, 0, 12165
1, 46080, Note_on_c, 0, 35, 95
1, 46080, Pitch_bend_c, 1, 12165
1, 46080, Note_on_c, 1, 23, 95
1, 46080, Pitch_bend_c, 2, 12165
1, 46080, Note_on_c, 2, 71, 64
1, 46080, Note_on_c, 2, 59, 127
1, 46080, Note_on_c, 2, 47, 95
1, 46080, Pitch_bend_c, 3, 12165
1, 46080, Note_on_c, 3, 35, 64
1, 46080, Pitch_bend_c, 7, 8192
1, 46080, Note_on_c, 7, 83, 100
1, 46080, Note_on_c, 7, 71, 100
1, 46080, Note_on_c, 9, 42, 103
1, 46080, Note_on_c, 9, 35, 103
1, 46095, Pitch_bend_c, 0, 8192
1, 46095, Pitch_bend_c, 1, 8192
1, 46095, Pitch_bend_c, 2, 8192
1, 46095, Pitch_bend_c, 3, 8192
1, 46095, Pitch_bend_c, 7, 8260
1, 46110, Pitch_bend_c, 7, 8437
1, 46125, Pitch_bend_c, 7, 8744
1, 46140, Pitch_bend_c, 7, 8977
1, 46200, Note_on_c, 9, 35, 0
1, 46200, Note_on_c, 9, 42, 0
1, 46320, Note_on_c, 9, 42, 73
1, 46440, Note_on_c, 9, 42, 0
1, 46440, Note_on_c, 2, 59, 0
1, 46440, Note_on_c, 0, 35, 0
1, 46440, Note_on_c, 2, 71, 0
1, 46440, Note_on_c, 1, 23, 0
1, 46440, Note_on_c, 3, 35, 0
1, 46440, Note_on_c, 2, 47, 0
1, 46440, Pitch_bend_c, 0, 0
1, 46440, Note_on_c, 0, 47, 95
1, 46440, Pitch_bend_c, 1, 0
1, 46440, Note_on_c, 1, 35, 95
1, 46440, Pitch_bend_c, 2, 0
1, 46440, Note_on_c, 2, 83, 64
1, 46440, Note_on_c, 2, 71, 127
1, 46440, Note_on_c, 2, 59, 95
1, 46440, Pitch_bend_c, 3, 0
1, 46440, Note_on_c, 3, 47, 64
1, 46455, Pitch_bend_c, 0, 8192
1, 46455, Pitch_bend_c, 1, 8192
1, 46455, Pitch_bend_c, 2, 8192
1, 46455, Pitch_bend_c, 3, 8192
1, 46480, Pitch_bend_c, 7, 8874
1, 46495, Pitch_bend_c, 7, 8649
1, 46510, Pitch_bend_c, 7, 8437
1, 46525, Pitch_bend_c, 7, 8301
1, 46540, Pitch_bend_c, 7, 8226
1, 46560, Note_on_c, 3, 47, 0
1, 46560, Note_on_c, 2, 59, 0
1, 46560, Note_on_c, 2, 83, 0
1, 46560, Note_on_c, 1, 35, 0
1, 46560, Note_on_c, 0, 47, 0
1, 46560, Note_on_c, 2, 71, 0
1, 46560, Pitch_bend_c, 7, 8192
1, 46560, Note_on_c, 9, 42, 73
1, 46560, Note_on_c, 9, 28, 102
1, 46560, Note_on_c, 9, 35, 103
1, 46560, Note_on_c, 9, 40, 91
1, 46680, Note_on_c, 9, 40, 0
1, 46680, Note_on_c, 9, 28, 0
1, 46680, Note_on_c, 9, 42, 0
1, 46680, Note_on_c, 9, 35, 0
1, 46800, Note_on_c, 0, 47, 95
1, 46800, Note_on_c, 1, 35, 95
1, 46800, Note_on_c, 2, 83, 64
1, 46800, Note_on_c, 2, 71, 127
1, 46800, Note_on_c, 2, 59, 95
1, 46800, Note_on_c, 3, 47, 64
1, 46800, Note_on_c, 9, 42, 73
1, 46920, Note_on_c, 9, 42, 0
1, 47040, Note_on_c, 1, 35, 0
1, 47040, Note_on_c, 3, 47, 0
1, 47040, Note_on_c, 2, 83, 0
1, 47040, Note_on_c, 2, 59, 0
1, 47040, Note_on_c, 0, 47, 0
1, 47040, Note_on_c, 2, 71, 0
1, 47040, Note_on_c, 0, 47, 95
1, 47040, Note_on_c, 1, 35, 95
1, 47040, Note_on_c, 2, 83, 64
1, 47040, Note_on_c, 2, 71, 127
1, 47040, Note_on_c, 2, 59, 95
1, 47040, Note_on_c, 3, 47, 64
1, 47040, Note_on_c, 9, 42, 88
1, 47040, Note_on_c, 9, 35, 104
1, 47070, Pitch_bend_c, 0, 8049
1, 47070, Pitch_bend_c, 1, 8049
1, 47070, Pitch_bend_c, 2, 8049
1, 47070, Pitch_bend_c, 3, 8049
1, 47100, Pitch_bend_c, 0, 7899
1, 47100, Pitch_bend_c, 1, 7899
1, 47100, Pitch_bend_c, 2, 7899
1, 47100, Pitch_bend_c, 3, 7899
1, 47135, Pitch_bend_c, 0, 7756
1, 47135, Pitch_bend_c, 1, 7756
1, 47135, Pitch_bend_c, 2, 7756
1, 47135, Pitch_bend_c, 3, 7756
1, 47160, Note_on_c, 9, 35, 0
1, 47160, Note_on_c, 9, 42, 0
1, 47165, Pitch_bend_c, 0, 7612
1, 47165, Pitch_bend_c, 1, 7612
1, 47165, Pitch_bend_c, 2, 7612
1, 47165, Pitch_bend_c, 3, 7612
1, 47200, Pitch_bend_c, 0, 7469
1, 47200, Pitch_bend_c, 1, 7469
1, 47200, Pitch_bend_c, 2, 7469
1, 47200, Pitch_bend_c, 3, 7469
1, 47220, Note_on_c, 1, 35, 0
1, 47220, Note_on_c, 0, 47, 0
1, 47220, Note_on_c, 2, 83, 0
1, 47220, Note_on_c, 2, 59, 0
1, 47220, Note_on_c, 3, 47, 0
1, 47220, Note_on_c, 2, 71, 0
1, 47280, Note_on_c, 0, 47, 95
1, 47280, Note_on_c, 1, 35, 95
1, 47280, Note_on_c, 2, 83, 64
1, 47280, Note_on_c, 2, 71, 127
1, 47280, Note_on_c, 2, 59, 95
1, 47280, Note_on_c, 3, 47, 64
1, 47280, Note_on_c, 9, 42, 73
1, 47295, Pitch_bend_c, 0, 7319
1, 47295, Pitch_bend_c, 1, 7319
1, 47295, Pitch_bend_c, 2, 7319
1, 47295, Pitch_bend_c, 3, 7319
1, 47340, Pitch_bend_c, 0, 7175
1, 47340, Pitch_bend_c, 1, 7175
1, 47340, Pitch_bend_c, 2, 7175
1, 47340, Pitch_bend_c, 3, 7175
1, 47340, Pitch_bend_c, 7, 8179
1, 47360, Pitch_bend_c, 0, 6984
1, 47360, Pitch_bend_c, 1, 6984
1, 47360, Pitch_bend_c, 2, 6984
1, 47360, Pitch_bend_c, 3, 6984
1, 47390, Pitch_bend_c, 0, 6841
1, 47390, Pitch_bend_c, 1, 6841
1, 47390, Pitch_bend_c, 2, 6841
1, 47390, Pitch_bend_c, 3, 6841
1, 47390, Pitch_bend_c, 7, 8172
1, 47400, Note_on_c, 9, 42, 0
1, 47405, Pitch_bend_c, 7, 8158
1, 47420, Pitch_bend_c, 0, 6697
1, 47420, Pitch_bend_c, 1, 6697
1, 47420, Pitch_bend_c, 2, 6697
1, 47420, Pitch_bend_c, 3, 6697
1, 47440, Pitch_bend_c, 7, 8145
1, 47455, Pitch_bend_c, 7, 8131
1, 47470, Pitch_bend_c, 7, 8124
1, 47500, Pitch_bend_c, 0, 6554
1, 47500, Pitch_bend_c, 1, 6554
1, 47500, Pitch_bend_c, 2, 6554
1, 47500, Pitch_bend_c, 3, 6554
1, 47500, Pitch_bend_c, 7, 8097
1, 47520, Note_on_c, 1, 35, 0
1, 47520, Note_on_c, 3, 47, 0
1, 47520, Note_on_c, 2, 83, 0
1, 47520, Note_on_c, 2, 59, 0
1, 47520, Note_on_c, 0, 47, 0
1, 47520, Note_on_c, 2, 71, 0
1, 47520, Note_on_c, 0, 47, 95
1, 47520, Note_on_c, 1, 35, 95
1, 47520, Note_on_c, 2, 83, 64
1, 47520, Note_on_c, 2, 71, 127
1, 47520, Note_on_c, 2, 59, 95
1, 47520, Note_on_c, 3, 47, 64
1, 47520, Pitch_bend_c, 7, 8083
1, 47520, Note_on_c, 9, 42, 73
1, 47520, Note_on_c, 9, 28, 102
1, 47520, Note_on_c, 9, 35, 104
1, 47520, Note_on_c, 9, 40, 92
1, 47550, Pitch_bend_c, 0, 6418
1, 47550, Pitch_bend_c, 1, 6418
1, 47550, Pitch_bend_c, 2, 6418
1, 47550, Pitch_bend_c, 3, 6418
1, 47550, Pitch_bend_c, 7, 8070
1, 47565, Pitch_bend_c, 0, 6274
1, 47565, Pitch_bend_c, 1, 6274
1, 47565, Pitch_bend_c, 2, 6274
1, 47565, Pitch_bend_c, 3, 6274
1, 47565, Pitch_bend_c, 7, 8056
1, 47580, Pitch_bend_c, 0, 6131
1, 47580, Pitch_bend_c, 1, 6131
1, 47580, Pitch_bend_c, 2, 6131
1, 47580, Pitch_bend_c, 3, 6131
1, 47600, Pitch_bend_c, 0, 5987
1, 47600, Pitch_bend_c, 1, 5987
1, 47600, Pitch_bend_c, 2, 5987
1, 47600, Pitch_bend_c, 3, 5987
1, 47600, Pitch_bend_c, 7, 8049
1, 47615, Pitch_bend_c, 0, 5803
1, 47615, Pitch_bend_c, 1, 5803
1, 47615, Pitch_bend_c, 2, 5803
1, 47615, Pitch_bend_c, 3, 5803
1, 47615, Pitch_bend_c, 7, 8035
1, 47630, Pitch_bend_c, 0, 5660
1, 47630, Pitch_bend_c, 1, 5660
1, 47630, Pitch_bend_c, 2, 5660
1, 47630, Pitch_bend_c, 3, 5660
1, 47640, Note_on_c, 9, 40, 0
1, 47640, Note_on_c, 9, 28, 0
1, 47640, Note_on_c, 9, 42, 0
1, 47640, Note_on_c, 9, 35, 0
1, 47645, Pitch_bend_c, 0, 5516
1, 47645, Pitch_bend_c, 1, 5516
1, 47645, Pitch_bend_c, 2, 5516
1, 47645, Pitch_bend_c, 3, 5516
1, 47645, Pitch_bend_c, 7, 8008
1, 47660, Pitch_bend_c, 0, 5380
1, 47660, Pitch_bend_c, 1, 5380
1, 47660, Pitch_bend_c, 2, 5380
1, 47660, Pitch_bend_c, 3, 5380
1, 47680, Pitch_bend_c, 0, 5237
1, 47680, Pitch_bend_c, 1, 5237
1, 47680, Pitch_bend_c, 2, 5237
1, 47680, Pitch_bend_c, 3, 5237
1, 47695, Pitch_bend_c, 7, 7995
1, 47710, Pitch_bend_c, 0, 5100
1, 47710, Pitch_bend_c, 1, 5100
1, 47710, Pitch_bend_c, 2, 5100
1, 47710, Pitch_bend_c, 3, 5100
1, 47710, Pitch_bend_c, 7, 7981
1, 47740, Pitch_bend_c, 7, 7974
1, 47760, Note_on_c, 1, 35, 0
1, 47760, Note_on_c, 3, 47, 0
1, 47760, Note_on_c, 2, 83, 0
1, 47760, Note_on_c, 2, 59, 0
1, 47760, Note_on_c, 0, 47, 0
1, 47760, Note_on_c, 2, 71, 0
1, 47760, Note_on_c, 0, 47, 95
1, 47760, Note_on_c, 1, 35, 95
1, 47760, Note_on_c, 2, 83, 64
1, 47760, Note_on_c, 2, 71, 127
1, 47760, Note_on_c, 2, 59, 95
1, 47760, Note_on_c, 3, 47, 64
1, 47760, Note_on_c, 9, 42, 73
1, 47775, Pitch_bend_c, 0, 4963
1, 47775, Pitch_bend_c, 1, 4963
1, 47775, Pitch_bend_c, 2, 4963
1, 47775, Pitch_bend_c, 3, 4963
1, 47790, Pitch_bend_c, 0, 4636
1, 47790, Pitch_bend_c, 1, 4636
1, 47790, Pitch_bend_c, 2, 4636
1, 47790, Pitch_bend_c, 3, 4636
1, 47790, Pitch_bend_c, 7, 7960
1, 47805, Pitch_bend_c, 0, 4499
1, 47805, Pitch_bend_c, 1, 4499
1, 47805, Pitch_bend_c, 2, 4499
1, 47805, Pitch_bend_c, 3, 4499
1, 47820, Pitch_bend_c, 0, 4083
1, 47820, Pitch_bend_c, 1, 4083
1, 47820, Pitch_bend_c, 2, 4083
1, 47820, Pitch_bend_c, 3, 4083
1, 47840, Pitch_bend_c, 0, 3810
1, 47840, Pitch_bend_c, 1, 3810
1, 47840, Pitch_bend_c, 2, 3810
1, 47840, Pitch_bend_c, 3, 3810
1, 47840, Pitch_bend_c, 7, 7947
1, 47855, Pitch_bend_c, 0, 3359
1, 47855, Pitch_bend_c, 1, 3359
1, 47855, Pitch_bend_c, 2, 3359
1, 47855, Pitch_bend_c, 3, 3359
1, 47870, Pitch_bend_c, 0, 3086
1, 47870, Pitch_bend_c, 1, 3086
1, 47870, Pitch_bend_c, 2, 3086
1, 47870, Pitch_bend_c, 3, 3086
1, 47880, Note_on_c, 9, 42, 0
1, 47885, Pitch_bend_c, 0, 2820
1, 47885, Pitch_bend_c, 1, 2820
1, 47885, Pitch_bend_c, 2, 2820
1, 47885, Pitch_bend_c, 3, 2820
1, 47900, Pitch_bend_c, 0, 2683
1, 47900, Pitch_bend_c, 1, 2683
1, 47900, Pitch_bend_c, 2, 2683
1, 47900, Pitch_bend_c, 3, 2683
1, 47920, Pitch_bend_c, 0, 2369
1, 47920, Pitch_bend_c, 1, 2369
1, 47920, Pitch_bend_c, 2, 2369
1, 47920, Pitch_bend_c, 3, 2369
1, 47920, Pitch_bend_c, 7, 7933
1, 47935, Pitch_bend_c, 0, 2240
1, 47935, Pitch_bend_c, 1, 2240
1, 47935, Pitch_bend_c, 2, 2240
1, 47935, Pitch_bend_c, 3, 2240
1, 47965, Pitch_bend_c, 0, 2103
1, 47965, Pitch_bend_c, 1, 2103
1, 47965, Pitch_bend_c, 2, 2103
1, 47965, Pitch_bend_c, 3, 2103
1, 48000, Note_on_c, 1, 35, 0
1, 48000, Note_on_c, 7, 83, 0
1, 48000, Note_on_c, 2, 83, 0
1, 48000, Note_on_c, 7, 71, 0
1, 48000, Note_on_c, 0, 47, 0
1, 48000, Note_on_c, 2, 59, 0
1, 48000, Note_on_c, 2, 71, 0
1, 48000, Note_on_c, 3, 47, 0
1, 48000, Pitch_bend_c, 0, 8192
1, 48000, Note_on_c, 0, 35, 95
1, 48000, Pitch_bend_c, 1, 8192
1, 48000, Note_on_c, 1, 23, 95
1, 48000, Pitch_bend_c, 2, 8192
1, 48000, Note_on_c, 2, 71, 64
1, 48000, Note_on_c, 2, 59, 127
1, 48000, Note_on_c, 2, 47, 95
1, 48000, Pitch_bend_c, 3, 8192
1, 48000, Note_on_c, 3, 35, 64
1, 48000, Pitch_bend_c, 7, 8192
1, 48000, Note_on_c, 7, 83, 100
1, 48000, Note_on_c, 7, 71, 100
1, 48000, Note_on_c, 9, 55, 127
1, 48000, Note_on_c, 9, 57, 127
1, 48000, Note_on_c, 9, 49, 127
1, 48000, Note_on_c, 9, 42, 103
1, 48000, Note_on_c, 9, 35, 103
1, 48015, Pitch_bend_c, 7, 7960
1, 48030, Pitch_bend_c, 7, 7646
1, 48045, Pitch_bend_c, 7, 7469
1, 48060, Pitch_bend_c, 7, 7394
1, 48120, Note_on_c, 9, 35, 0
1, 48120, Note_on_c, 9, 42, 0
1, 48240, Note_on_c, 9, 42, 73
1, 48360, Note_on_c, 9, 42, 0
1, 48360, Note_on_c, 3, 35, 0
1, 48360, Note_on_c, 2, 59, 0
1, 48360, Note_on_c, 0, 35, 0
1, 48360, Note_on_c, 2, 71, 0
1, 48360, Note_on_c, 1, 23, 0
1, 48360, Note_on_c, 2, 47, 0
1, 48360, Pitch_bend_c, 0, 0
1, 48360, Note_on_c, 0, 47, 95
1, 48360, Pitch_bend_c, 1, 0
1, 48360, Note_on_c, 1, 35, 95
1, 48360, Pitch_bend_c, 2, 0
1, 48360, Note_on_c, 2, 83, 64
1, 48360, Note_on_c, 2, 71, 127
1, 48360, Note_on_c, 2, 59, 95
1, 48360, Pitch_bend_c, 3, 0
1, 48360, Note_on_c, 3, 47, 64
1, 48375, Pitch_bend_c, 0, 8192
1, 48375, Pitch_bend_c, 1, 8192
1, 48375, Pitch_bend_c, 2, 8192
1, 48375, Pitch_bend_c, 3, 8192
1, 48400, Pitch_bend_c, 7, 7435
1, 48415, Pitch_bend_c, 7, 7510
1, 48430, Pitch_bend_c, 7, 7646
1, 48445, Pitch_bend_c, 7, 7858
1, 48460, Pitch_bend_c, 7, 8083
1, 48480, Note_on_c, 3, 47, 0
1, 48480, Note_on_c, 2, 83, 0
1, 48480, Note_on_c, 2, 59, 0
1, 48480, Note_on_c, 1, 35, 0
1, 48480, Note_on_c, 2, 71, 0
1, 48480, Note_on_c, 0, 47, 0
1, 48480, Pitch_bend_c, 7, 8192
1, 48480, Note_on_c, 9, 42, 73
1, 48480, Note_on_c, 9, 35, 102
1, 48480, Note_on_c, 9, 40, 89
1, 48480, Note_on_c, 9, 28, 103
1, 48600, Note_on_c, 9, 28, 0
1, 48600, Note_on_c, 9, 40, 0
1, 48600, Note_on_c, 9, 35, 0
1, 48600, Note_on_c, 9, 42, 0
1, 48720, Note_on_c, 0, 47, 95
1, 48720, Note_on_c, 1, 35, 95
1, 48720, Note_on_c, 2, 83, 64
1, 48720, Note_on_c, 2, 71, 127
1, 48720, Note_on_c, 2, 59, 95
1, 48720, Note_on_c, 3, 47, 64
1, 48720, Note_on_c, 9, 42, 73
1, 48840, Note_on_c, 9, 42, 0
1, 48960, Note_on_c, 2, 59, 0
1, 48960, Note_on_c, 2, 83, 0
1, 48960, Note_on_c, 1, 35, 0
1, 48960, Note_on_c, 2, 71, 0
1, 48960, Note_on_c, 3, 47, 0
1, 48960, Note_on_c, 0, 47, 0
1, 48960, Note_on_c, 9, 42, 88
1, 48960, Note_on_c, 9, 35, 102
1, 49080, Note_on_c, 9, 35, 0
1, 49080, Note_on_c, 9, 42, 0
1, 49080, Note_on_c, 0, 43, 95
1, 49080, Note_on_c, 1, 31, 95
1, 49080, Note_on_c, 2, 79, 64
1, 49080, Note_on_c, 2, 67, 127
1, 49080, Note_on_c, 2, 55, 95
1, 49080, Note_on_c, 3, 43, 64
1, 49200, Note_on_c, 3, 43, 0
1, 49200, Note_on_c, 2, 79, 0
1, 49200, Note_on_c, 2, 55, 0
1, 49200, Note_on_c, 1, 31, 0
1, 49200, Note_on_c, 2, 67, 0
1, 49200, Note_on_c, 0, 43, 0
1, 49200, Pitch_bend_c, 0, 5100
1, 49200, Note_on_c, 0, 47, 95
1, 49200, Pitch_bend_c, 1, 5100
1, 49200, Note_on_c, 1, 35, 95
1, 49200, Pitch_bend_c, 2, 5100
1, 49200, Note_on_c, 2, 83, 64
1, 49200, Note_on_c, 2, 71, 127
1, 49200, Note_on_c, 2, 59, 95
1, 49200, Pitch_bend_c, 3, 5100
1, 49200, Note_on_c, 3, 47, 64
1, 49200, Note_on_c, 9, 42, 73
1, 49215, Pitch_bend_c, 0, 6697
1, 49215, Pitch_bend_c, 1, 6697
1, 49215, Pitch_bend_c, 2, 6697
1, 49215, Pitch_bend_c, 3, 6697
1, 49260, Pitch_bend_c, 7, 8179
1, 49280, Pitch_bend_c, 0, 6841
1, 49280, Pitch_bend_c, 1, 6841
1, 49280, Pitch_bend_c, 2, 6841
1, 49280, Pitch_bend_c, 3, 6841
1, 49310, Pitch_bend_c, 0, 6984
1, 49310, Pitch_bend_c, 1, 6984
1, 49310, Pitch_bend_c, 2, 6984
1, 49310, Pitch_bend_c, 3, 6984
1, 49310, Pitch_bend_c, 7, 8172
1, 49320, Note_on_c, 9, 42, 0
1, 49325, Pitch_bend_c, 0, 7175
1, 49325, Pitch_bend_c, 1, 7175
1, 49325, Pitch_bend_c, 2, 7175
1, 49325, Pitch_bend_c, 3, 7175
1, 49325, Pitch_bend_c, 7, 8158
1, 49340, Pitch_bend_c, 0, 7319
1, 49340, Pitch_bend_c, 1, 7319
1, 49340, Pitch_bend_c, 2, 7319
1, 49340, Pitch_bend_c, 3, 7319
1, 49360, Pitch_bend_c, 0, 7612
1, 49360, Pitch_bend_c, 1, 7612
1, 49360, Pitch_bend_c, 2, 7612
1, 49360, Pitch_bend_c, 3, 7612
1, 49360, Pitch_bend_c, 7, 8145
1, 49375, Pitch_bend_c, 0, 7756
1, 49375, Pitch_bend_c, 1, 7756
1, 49375, Pitch_bend_c, 2, 7756
1, 49375, Pitch_bend_c, 3, 7756
1, 49375, Pitch_bend_c, 7, 8131
1, 49390, Pitch_bend_c, 0, 7899
1, 49390, Pitch_bend_c, 1, 7899
1, 49390, Pitch_bend_c, 2, 7899
1, 49390, Pitch_bend_c, 3, 7899
1, 49390, Pitch_bend_c, 7, 8124
1, 49405, Pitch_bend_c, 0, 8049
1, 49405, Pitch_bend_c, 1, 8049
1, 49405, Pitch_bend_c, 2, 8049
1, 49405, Pitch_bend_c, 3, 8049
1, 49420, Pitch_bend_c, 0, 8192
1, 49420, Pitch_bend_c, 1, 8192
1, 49420, Pitch_bend_c, 2, 8192
1, 49420, Pitch_bend_c, 3, 8192
1, 49420, Pitch_bend_c, 7, 8097
1, 49440, Note_on_c, 2, 59, 0
1, 49440, Note_on_c, 2, 83, 0
1, 49440, Note_on_c, 1, 35, 0
1, 49440, Note_on_c, 2, 71, 0
1, 49440, Note_on_c, 3, 47, 0
1, 49440, Note_on_c, 0, 47, 0
1, 49440, Note_on_c, 0, 47, 95
1, 49440, Note_on_c, 1, 35, 95
1, 49440, Note_on_c, 2, 83, 64
1, 49440, Note_on_c, 2, 71, 127
1, 49440, Note_on_c, 2, 59, 95
1, 49440, Note_on_c, 3, 47, 64
1, 49440, Pitch_bend_c, 7, 8083
1, 49440, Note_on_c, 9, 42, 73
1, 49440, Note_on_c, 9, 28, 103
1, 49440, Note_on_c, 9, 35, 103
1, 49440, Note_on_c, 9, 40, 90
1, 49470, Pitch_bend_c, 7, 8070
1, 49485, Pitch_bend_c, 7, 8056
1, 49520, Pitch_bend_c, 7, 8049
1, 49535, Pitch_bend_c, 7, 8035
1, 49560, Note_on_c, 9, 40, 0
1, 49560, Note_on_c, 9, 42, 0
1, 49560, Note_on_c, 9, 35, 0
1, 49560, Note_on_c, 9, 28, 0
1, 49565, Pitch_bend_c, 7, 8008
1, 49615, Pitch_bend_c, 7, 7995
1, 49630, Pitch_bend_c, 7, 7981
1, 49660, Pitch_bend_c, 7, 7974
1, 49680, Note_on_c, 2, 59, 0
1, 49680, Note_on_c, 2, 83, 0
1, 49680, Note_on_c, 1, 35, 0
1, 49680, Note_on_c, 2, 71, 0
1, 49680, Note_on_c, 0, 47, 0
1, 49680, Note_on_c, 3, 47, 0
1, 49680, Note_on_c, 0, 47, 95
1, 49680, Note_on_c, 1, 35, 95
1, 49680, Note_on_c, 2, 83, 64
1, 49680, Note_on_c, 2, 71, 127
1, 49680, Note_on_c, 2, 59, 95
1, 49680, Note_on_c, 3, 47, 64
1, 49680, Note_on_c, 9, 42, 73
1, 49710, Pitch_bend_c, 0, 8335
1, 49710, Pitch_bend_c, 1, 8335
1, 49710, Pitch_bend_c, 2, 8335
1, 49710, Pitch_bend_c, 3, 8335
1, 49710, Pitch_bend_c, 7, 7960
1, 49760, Pitch_bend_c, 0, 8485
1, 49760, Pitch_bend_c, 1, 8485
1, 49760, Pitch_bend_c, 2, 8485
1, 49760, Pitch_bend_c, 3, 8485
1, 49760, Pitch_bend_c, 7, 7947
1, 49775, Pitch_bend_c, 0, 8628
1, 49775, Pitch_bend_c, 1, 8628
1, 49775, Pitch_bend_c, 2, 8628
1, 49775, Pitch_bend_c, 3, 8628
1, 49790, Pitch_bend_c, 0, 8772
1, 49790, Pitch_bend_c, 1, 8772
1, 49790, Pitch_bend_c, 2, 8772
1, 49790, Pitch_bend_c, 3, 8772
1, 49800, Note_on_c, 9, 42, 0
1, 49805, Pitch_bend_c, 0, 9065
1, 49805, Pitch_bend_c, 1, 9065
1, 49805, Pitch_bend_c, 2, 9065
1, 49805, Pitch_bend_c, 3, 9065
1, 49820, Pitch_bend_c, 0, 9400
1, 49820, Pitch_bend_c, 1, 9400
1, 49820, Pitch_bend_c, 2, 9400
1, 49820, Pitch_bend_c, 3, 9400
1, 49840, Pitch_bend_c, 0, 9543
1, 49840, Pitch_bend_c, 1, 9543
1, 49840, Pitch_bend_c, 2, 9543
1, 49840, Pitch_bend_c, 3, 9543
1, 49840, Pitch_bend_c, 7, 7933
1, 49855, Pitch_bend_c, 0, 9830
1, 49855, Pitch_bend_c, 1, 9830
1, 49855, Pitch_bend_c, 2, 9830
1, 49855, Pitch_bend_c, 3, 9830
1, 49870, Pitch_bend_c, 0, 10110
1, 49870, Pitch_bend_c, 1, 10110
1, 49870, Pitch_bend_c, 2, 10110
1, 49870, Pitch_bend_c, 3, 10110
1, 49885, Pitch_bend_c, 0, 10253
1, 49885, Pitch_bend_c, 1, 10253
1, 49885, Pitch_bend_c, 2, 10253
1, 49885, Pitch_bend_c, 3, 10253
1, 49900, Pitch_bend_c, 0, 10397
1, 49900, Pitch_bend_c, 1, 10397
1, 49900, Pitch_bend_c, 2, 10397
1, 49900, Pitch_bend_c, 3, 10397
1, 49920, Note_on_c, 9, 55, 0
1, 49920, Note_on_c, 2, 83, 0
1, 49920, Note_on_c, 9, 57, 0
1, 49920, Note_on_c, 7, 83, 0
1, 49920, Note_on_c, 9, 49, 0
1, 49920, Note_on_c, 7, 71, 0
1, 49920, Note_on_c, 0, 47, 0
1, 49920, Note_on_c, 2, 71, 0
1, 49920, Note_on_c, 1, 35, 0
1, 49920, Note_on_c, 3, 47, 0
1, 49920, Note_on_c, 2, 59, 0
1, 49920, Pitch_bend_c, 0, 12165
1, 49920, Note_on_c, 0, 35, 95
1, 49920, Pitch_bend_c, 1, 12165
1, 49920, Note_on_c, 1, 23, 95
1, 49920, Pitch_bend_c, 2, 12165
1, 49920, Note_on_c, 2, 71, 64
1, 49920, Note_on_c, 2, 59, 127
1, 49920, Note_on_c, 2, 47, 95
1, 49920, Pitch_bend_c, 3, 12165
1, 49920, Note_on_c, 3, 35, 64
1, 49920, Pitch_bend_c, 7, 8192
1, 49920, Note_on_c, 7, 83, 100
1, 49920, Note_on_c, 7, 71, 100
1, 49920, Note_on_c, 9, 42, 103
1, 49920, Note_on_c, 9, 35, 103
1, 49935, Pitch_bend_c, 0, 8192
1, 49935, Pitch_bend_c, 1, 8192
1, 49935, Pitch_bend_c, 2, 8192
1, 49935, Pitch_bend_c, 3, 8192
1, 49935, Pitch_bend_c, 7, 8260
1, 49950, Pitch_bend_c, 7, 8437
1, 49965, Pitch_bend_c, 7, 8744
1, 49980, Pitch_bend_c, 7, 8977
1, 50040, Note_on_c, 9, 35, 0
1, 50040, Note_on_c, 9, 42, 0
1, 50160, Note_on_c, 9, 42, 73
1, 50280, Note_on_c, 9, 42, 0
1, 50280, Note_on_c, 2, 59, 0
1, 50280, Note_on_c, 0, 35, 0
1, 50280, Note_on_c, 2, 71, 0
1, 50280, Note_on_c, 1, 23, 0
1, 50280, Note_on_c, 3, 35, 0
1, 50280, Note_on_c, 2, 47, 0
1, 50280, Pitch_bend_c, 0, 0
1, 50280, Note_on_c, 0, 47, 95
1, 50280, Pitch_bend_c, 1, 0
1, 50280, Note_on_c, 1, 35, 95
1, 50280, Pitch_bend_c, 2, 0
1, 50280, Note_on_c, 2, 83, 64
1, 50280, Note_on_c, 2, 71, 127
1, 50280, Note_on_c, 2, 59, 95
1, 50280, Pitch_bend_c, 3, 0
1, 50280, Note_on_c, 3, 47, 64
1, 50295, Pitch_bend_c, 0, 8192
1, 50295, Pitch_bend_c, 1, 8192
1, 50295, Pitch_bend_c, 2, 8192
1, 50295, Pitch_bend_c, 3, 8192
1, 50320, Pitch_bend_c, 7, 8874
1, 50335, Pitch_bend_c, 7, 8649
1, 50350, Pitch_bend_c, 7, 8437
1, 50365, Pitch_bend_c, 7, 8301
1, 50380, Pitch_bend_c, 7, 8226
1, 50400, Note_on_c, 3, 47, 0
1, 50400, Note_on_c, 2, 59, 0
1, 50400, Note_on_c, 2, 83, 0
1, 50400, Note_on_c, 1, 35, 0
1, 50400, Note_on_c, 0, 47, 0
1, 50400, Note_on_c, 2, 71, 0
1, 50400, Pitch_bend_c, 7, 8192
1, 50400, Note_on_c, 9, 42, 73
1, 50400, Note_on_c, 9, 28, 102
1, 50400, Note_on_c, 9, 35, 103
1, 50400, Note_on_c, 9, 40, 91
1, 50520, Note_on_c, 9, 40, 0
1, 50520, Note_on_c, 9, 28, 0
1, 50520, Note_on_c, 9, 42, 0
1, 50520, Note_on_c, 9, 35, 0
1, 50640, Note_on_c, 0, 47, 95
1, 50640, Note_on_c, 1, 35, 95
1, 50640, Note_on_c, 2, 83, 64
1, 50640, Note_on_c, 2, 71, 127
1, 50640, Note_on_c, 2, 59, 95
1, 50640, Note_on_c, 3, 47, 64
1, 50640, Note_on_c, 9, 42, 73
1, 50760, Note_on_c, 9, 42, 0
1, 50880, Note_on_c, 1, 35, 0
1, 50880, Note_on_c, 3, 47, 0
1, 50880, Note_on_c, 2, 83, 0
1, 50880, Note_on_c, 2, 59, 0
1, 50880, Note_on_c, 0, 47, 0
1, 50880, Note_on_c, 2, 71, 0
1, 50880, Note_on_c, 0, 47, 95
1, 50880, Note_on_c, 1, 35, 95
1, 50880, Note_on_c, 2, 83, 64
1, 50880, Note_on_c, 2, 71, 127
1, 50880, Note_on_c, 2, 59, 95
1, 50880, Note_on_c, 3, 47, 64
1, 50880, Note_on_c, 9, 42, 88
1, 50880, Note_on_c, 9, 35, 104
1, 50910, Pitch_bend_c, 0, 8049
1, 50910, Pitch_bend_c, 1, 8049
1, 50910, Pitch_bend_c, 2, 8049
1, 50910, Pitch_bend_c, 3, 8049
1, 50940, Pitch_bend_c, 0, 7899
1, 50940, Pitch_bend_c, 1, 7899
1, 50940, Pitch_bend_c, 2, 7899
1, 50940, Pitch_bend_c, 3, 7899
1, 50975, Pitch_bend_c, 0, 7756
1, 50975, Pitch_bend_c, 1, 7756
1, 50975, Pitch_bend_c, 2, 7756
1, 50975, Pitch_bend_c, 3, 7756
1, 51000, Note_on_c, 9, 35, 0
1, 51000, Note_on_c, 9, 42, 0
1, 51005, Pitch_bend_c, 0, 7612
1, 51005, Pitch_bend_c, 1, 7612
1, 51005, Pitch_bend_c, 2, 7612
1, 51005, Pitch_bend_c, 3, 7612
1, 51040, Pitch_bend_c, 0, 7469
1, 51040, Pitch_bend_c, 1, 7469
1, 51040, Pitch_bend_c, 2, 7469
1, 51040, Pitch_bend_c, 3, 7469
1, 51060, Note_on_c, 1, 35, 0
1, 51060, Note_on_c, 0, 47, 0
1, 51060, Note_on_c, 2, 83, 0
1, 51060, Note_on_c, 2, 59, 0
1, 51060, Note_on_c, 3, 47, 0
1, 51060, Note_on_c, 2, 71, 0
1, 51120, Note_on_c, 0, 47, 95
1, 51120, Note_on_c, 1, 35, 95
1, 51120, Note_on_c, 2, 83, 64
1, 51120, Note_on_c, 2, 71, 127
1, 51120, Note_on_c, 2, 59, 95
1, 51120, Note_on_c, 3, 47, 64
1, 51120, Note_on_c, 9, 42, 73
1, 51135, Pitch_bend_c, 0, 7319
1, 51135, Pitch_bend_c, 1, 7319
1, 51135, Pitch_bend_c, 2, 7319
1, 51135, Pitch_bend_c, 3, 7319
1, 51180, Pitch_bend_c, 0, 7175
1, 51180, Pitch_bend_c, 1, 7175
1, 51180, Pitch_bend_c, 2, 7175
1, 51180, Pitch_bend_c, 3, 7175
1, 51180, Pitch_bend_c, 7, 8179
1, 51200, Pitch_bend_c, 0, 6984
1, 51200, Pitch_bend_c, 1, 6984
1, 51200, Pitch_bend_c, 2, 6984
1, 51200, Pitch_bend_c, 3, 6984
1, 51230, Pitch_bend_c, 0, 6841
1, 51230, Pitch_bend_c, 1, 6841
1, 51230, Pitch_bend_c, 2, 6841
1, 51230, Pitch_bend_c, 3, 6841
1, 51230, Pitch_bend_c, 7, 8172
1, 51240, Note_on_c, 9, 42, 0
1, 51245, Pitch_bend_c, 7, 8158
1, 51260, Pitch_bend_c, 0, 6697
1, 51260, Pitch_bend_c, 1, 6697
1, 51260, Pitch_bend_c, 2, 6697
1, 51260, Pitch_bend_c, 3, 6697
1, 51280, Pitch_bend_c, 7, 8145
1, 51295, Pitch_bend_c, 7, 8131
1, 51310, Pitch_bend_c, 7, 8124
1, 51340, Pitch_bend_c, 0, 6554
1, 51340, Pitch_bend_c, 1, 6554
1, 51340, Pitch_bend_c, 2, 6554
1, 51340, Pitch_bend_c, 3, 6554
1, 51340, Pitch_bend_c, 7, 8097
1, 51360, Note_on_c, 1, 35, 0
1, 51360, Note_on_c, 3, 47, 0
1, 51360, Note_on_c, 2, 83, 0
1, 51360, Note_on_c, 2, 59, 0
1, 51360, Note_on_c, 0, 47, 0
1, 51360, Note_on_c, 2, 71, 0
1, 51360, Note_on_c, 0, 47, 95
1, 51360, Note_on_c, 1, 35, 95
1, 51360, Note_on_c, 2, 83, 64
1, 51360, Note_on_c, 2, 71, 127
1, 51360, Note_on_c, 2, 59, 95
1, 51360, Note_on_c, 3, 47, 64
1, 51360, Pitch_bend_c, 7, 8083
1, 51360, Note_on_c, 9, 42, 73
1, 51360, Note_on_c, 9, 28, 102
1, 51360, Note_on_c, 9, 35, 104
1, 51360, Note_on_c, 9, 40, 92
1, 51390, Pitch_bend_c, 0, 6418
1, 51390, Pitch_bend_c, 1, 6418
1, 51390, Pitch_bend_c, 2, 6418
1, 51390, Pitch_bend_c, 3, 6418
1, 51390, Pitch_bend_c, 7, 8070
1, 51405, Pitch_bend_c, 0, 6274
1, 51405, Pitch_bend_c, 1, 6274
1, 51405, Pitch_bend_c, 2, 6274
1, 51405, Pitch_bend_c, 3, 6274
1, 51405, Pitch_bend_c, 7, 8056
1, 51420, Pitch_bend_c, 0, 6131
1, 51420, Pitch_bend_c, 1, 6131
1, 51420, Pitch_bend_c, 2, 6131
1, 51420, Pitch_bend_c, 3, 6131
1, 51440, Pitch_bend_c, 0, 5987
1, 51440, Pitch_bend_c, 1, 5987
1, 51440, Pitch_bend_c, 2, 5987
1, 51440, Pitch_bend_c, 3, 5987
1, 51440, Pitch_bend_c, 7, 8049
1, 51455, Pitch_bend_c, 0, 5803
1, 51455, Pitch_bend_c, 1, 5803
1, 51455, Pitch_bend_c, 2, 5803
1, 51455, Pitch_bend_c, 3, 5803
1, 51455, Pitch_bend_c, 7, 8035
1, 51470, Pitch_bend_c, 0, 5660
1, 51470, Pitch_bend_c, 1, 5660
1, 51470, Pitch_bend_c, 2, 5660
1, 51470, Pitch_bend_c, 3, 5660
1, 51480, Note_on_c, 9, 40, 0
1, 51480, Note_on_c, 9, 28, 0
1, 51480, Note_on_c, 9, 42, 0
1, 51480, Note_on_c, 9, 35, 0
1, 51485, Pitch_bend_c, 0, 5516
1, 51485, Pitch_bend_c, 1, 5516
1, 51485, Pitch_bend_c, 2, 5516
1, 51485, Pitch_bend_c, 3, 5516
1, 51485, Pitch_bend_c, 7, 8008
1, 51500, Pitch_bend_c, 0, 5380
1, 51500, Pitch_bend_c, 1, 5380
1, 51500, Pitch_bend_c, 2, 5380
1, 51500, Pitch_bend_c, 3, 5380
1, 51520, Pitch_bend_c, 0, 5237
1, 51520, Pitch_bend_c, 1, 5237
1, 51520, Pitch_bend_c, 2, 5237
1, 51520, Pitch_bend_c, 3, 5237
1, 51535, Pitch_bend_c, 7, 7995
1, 51550, Pitch_bend_c, 0, 5100
1, 51550, Pitch_bend_c, 1, 5100
1, 51550, Pitch_bend_c, 2, 5100
1, 51550, Pitch_bend_c, 3, 5100
1, 51550, Pitch_bend_c, 7, 7981
1, 51580, Pitch_bend_c, 7, 7974
1, 51600, Note_on_c, 1, 35, 0
1, 51600, Note_on_c, 3, 47, 0
1, 51600, Note_on_c, 2, 83, 0
1, 51600, Note_on_c, 2, 59, 0
1, 51600, Note_on_c, 0, 47, 0
1, 51600, Note_on_c, 2, 71, 0
1, 51600, Note_on_c, 0, 47, 95
1, 51600, Note_on_c, 1, 35, 95
1, 51600, Note_on_c, 2, 83, 64
1, 51600, Note_on_c, 2, 71, 127
1, 51600, Note_on_c, 2, 59, 95
1, 51600, Note_on_c, 3, 47, 64
1, 51600, Note_on_c, 9, 42, 73
1, 51615, Pitch_bend_c, 0, 4963
1, 51615, Pitch_bend_c, 1, 4963
1, 51615, Pitch_bend_c, 2, 4963
1, 51615, Pitch_bend_c, 3, 4963
1, 51630, Pitch_bend_c, 0, 4636
1, 51630, Pitch_bend_c, 1, 4636
1, 51630, Pitch_bend_c, 2, 4636
1, 51630, Pitch_bend_c, 3, 4636
1, 51630, Pitch_bend_c, 7, 7960
1, 51645, Pitch_bend_c, 0, 4499
1, 51645, Pitch_bend_c, 1, 4499
1, 51645, Pitch_bend_c, 2, 4499
1, 51645, Pitch_bend_c, 3, 4499
1, 51660, Pitch_bend_c, 0, 4083
1, 51660, Pitch_bend_c, 1, 4083
1, 51660, Pitch_bend_c, 2, 4083
1, 51660, Pitch_bend_c, 3, 4083
1, 51680, Pitch_bend_c, 0, 3810
1, 51680, Pitch_bend_c, 1, 3810
1, 51680, Pitch_bend_c, 2, 3810
1, 51680, Pitch_bend_c, 3, 3810
1, 51680, Pitch_bend_c, 7, 7947
1, 51695, Pitch_bend_c, 0, 3359
1, 51695, Pitch_bend_c, 1, 3359
1, 51695, Pitch_bend_c, 2, 3359
1, 51695, Pitch_bend_c, 3, 3359
1, 51710, Pitch_bend_c, 0, 3086
1, 51710, Pitch_bend_c, 1, 3086
1, 51710, Pitch_bend_c, 2, 3086
1, 51710, Pitch_bend_c, 3, 3086
1, 51720, Note_on_c, 9, 42, 0
1, 51725, Pitch_bend_c, 0, 2820
1, 51725, Pitch_bend_c, 1, 2820
1, 51725, Pitch_bend_c, 2, 2820
1, 51725, Pitch_bend_c, 3, 2820
1, 51740, Pitch_bend_c, 0, 2683
1, 51740, Pitch_bend_c, 1, 2683
1, 51740, Pitch_bend_c, 2, 2683
1, 51740, Pitch_bend_c, 3, 2683
1, 51760, Pitch_bend_c, 0, 2369
1, 51760, Pitch_bend_c, 1, 2369
1, 51760, Pitch_bend_c, 2, 2369
1, 51760, Pitch_bend_c, 3, 2369
1, 51760, Pitch_bend_c, 7, 7933
1, 51775, Pitch_bend_c, 0, 2240
1, 51775, Pitch_bend_c, 1, 2240
1, 51775, Pitch_bend_c, 2, 2240
1, 51775, Pitch_bend_c, 3, 2240
1, 51805, Pitch_bend_c, 0, 2103
1, 51805, Pitch_bend_c, 1, 2103
1, 51805, Pitch_bend_c, 2, 2103
1, 51805, Pitch_bend_c, 3, 2103
1, 51840, Note_on_c, 1, 35, 0
1, 51840, Note_on_c, 7, 83, 0
1, 51840, Note_on_c, 2, 83, 0
1, 51840, Note_on_c, 7, 71, 0
1, 51840, Note_on_c, 0, 47, 0
1, 51840, Note_on_c, 2, 59, 0
1, 51840, Note_on_c, 2, 71, 0
1, 51840, Note_on_c, 3, 47, 0
1, 51840, Pitch_bend_c, 0, 8192
1, 51840, Note_on_c, 0, 35, 95
1, 51840, Pitch_bend_c, 1, 8192
1, 51840, Note_on_c, 1, 23, 95
1, 51840, Pitch_bend_c, 2, 8192
1, 51840, Note_on_c, 2, 71, 64
1, 51840, Note_on_c, 2, 59, 127
1, 51840, Note_on_c, 2, 47, 95
1, 51840, Pitch_bend_c, 3, 8192
1, 51840, Note_on_c, 3, 35, 64
1, 51840, Pitch_bend_c, 7, 8192
1, 51840, Note_on_c, 7, 83, 100
1, 51840, Note_on_c, 7, 71, 100
1, 51840, Note_on_c, 9, 42, 103
1, 51840, Note_on_c, 9, 35, 103
1, 51850, Pitch_bend_c, 4, 8192
1, 51850, Pitch_bend_c, 6, 8192
1, 51855, Pitch_bend_c, 7, 7960
1, 51870, Pitch_bend_c, 7, 7646
1, 51885, Pitch_bend_c, 7, 7469
1, 51900, Pitch_bend_c, 7, 7394
1, 51960, Note_on_c, 9, 35, 0
1, 51960, Note_on_c, 9, 42, 0
1, 52080, Note_on_c, 9, 42, 73
1, 52200, Note_on_c, 9, 42, 0
1, 52200, Note_on_c, 2, 59, 0
1, 52200, Note_on_c, 0, 35, 0
1, 52200, Note_on_c, 2, 71, 0
1, 52200, Note_on_c, 1, 23, 0
1, 52200, Note_on_c, 3, 35, 0
1, 52200, Note_on_c, 2, 47, 0
1, 52200, Pitch_bend_c, 0, 0
1, 52200, Note_on_c, 0, 47, 95
1, 52200, Pitch_bend_c, 1, 0
1, 52200, Note_on_c, 1, 35, 95
1, 52200, Pitch_bend_c, 2, 0
1, 52200, Note_on_c, 2, 83, 64
1, 52200, Note_on_c, 2, 71, 127
1, 52200, Note_on_c, 2, 59, 95
1, 52200, Pitch_bend_c, 3, 0
1, 52200, Note_on_c, 3, 47, 64
1, 52215, Pitch_bend_c, 0, 8192
1, 52215, Pitch_bend_c, 1, 8192
1, 52215, Pitch_bend_c, 2, 8192
1, 52215, Pitch_bend_c, 3, 8192
1, 52240, Pitch_bend_c, 7, 7435
1, 52255, Pitch_bend_c, 7, 7510
1, 52270, Pitch_bend_c, 7, 7646
1, 52285, Pitch_bend_c, 7, 7858
1, 52300, Pitch_bend_c, 7, 8083
1, 52320, Note_on_c, 3, 47, 0
1, 52320, Note_on_c, 2, 59, 0
1, 52320, Note_on_c, 2, 83, 0
1, 52320, Note_on_c, 1, 35, 0
1, 52320, Note_on_c, 0, 47, 0
1, 52320, Note_on_c, 2, 71, 0
1, 52320, Pitch_bend_c, 7, 8192
1, 52320, Note_on_c, 9, 42, 73
1, 52320, Note_on_c, 9, 35, 102
1, 52320, Note_on_c, 9, 40, 89
1, 52320, Note_on_c, 9, 28, 103
1, 52440, Note_on_c, 9, 28, 0
1, 52440, Note_on_c, 9, 35, 0
1, 52440, Note_on_c, 9, 42, 0
1, 52440, Note_on_c, 9, 40, 0
1, 52560, Note_on_c, 0, 47, 95
1, 52560, Note_on_c, 1, 35, 95
1, 52560, Note_on_c, 2, 83, 64
1, 52560, Note_on_c, 2, 71, 127
1, 52560, Note_on_c, 2, 59, 95
1, 52560, Note_on_c, 3, 47, 64
1, 52560, Note_on_c, 9, 42, 73
1, 52680, Note_on_c, 9, 42, 0
1, 52800, Note_on_c, 1, 35, 0
1, 52800, Note_on_c, 3, 47, 0
1, 52800, Note_on_c, 2, 83, 0
1, 52800, Note_on_c, 2, 59, 0
1, 52800, Note_on_c, 0, 47, 0
1, 52800, Note_on_c, 2, 71, 0
1, 52800, Note_on_c, 9, 42, 88
1, 52800, Note_on_c, 9, 35, 102
1, 52920, Note_on_c, 9, 35, 0
1, 52920, Note_on_c, 9, 42, 0
1, 52920, Note_on_c, 0, 43, 95
1, 52920, Note_on_c, 1, 31, 95
1, 52920, Note_on_c, 2, 79, 64
1, 52920, Note_on_c, 2, 67, 127
1, 52920, Note_on_c, 2, 55, 95
1, 52920, Note_on_c, 3, 43, 64
1, 53040, Note_on_c, 3, 43, 0
1, 53040, Note_on_c, 2, 55, 0
1, 53040, Note_on_c, 2, 79, 0
1, 53040, Note_on_c, 1, 31, 0
1, 53040, Note_on_c, 0, 43, 0
1, 53040, Note_on_c, 2, 67, 0
1, 53040, Pitch_bend_c, 0, 5100
1, 53040, Note_on_c, 0, 47, 95
1, 53040, Pitch_bend_c, 1, 5100
1, 53040, Note_on_c, 1, 35, 95
1, 53040, Pitch_bend_c, 2, 5100
1, 53040, Note_on_c, 2, 83, 64
1, 53040, Note_on_c, 2, 71, 127
1, 53040, Note_on_c, 2, 59, 95
1, 53040, Pitch_bend_c, 3, 5100
1, 53040, Note_on_c, 3, 47, 64
1, 53040, Note_on_c, 9, 42, 73
1, 53055, Pitch_bend_c, 0, 6697
1, 53055, Pitch_bend_c, 1, 6697
1, 53055, Pitch_bend_c, 2, 6697
1, 53055, Pitch_bend_c, 3, 6697
1, 53100, Pitch_bend_c, 7, 8179
1, 53120, Pitch_bend_c, 0, 6841
1, 53120, Pitch_bend_c, 1, 6841
1, 53120, Pitch_bend_c, 2, 6841
1, 53120, Pitch_bend_c, 3, 6841
1, 53150, Pitch_bend_c, 0, 6984
1, 53150, Pitch_bend_c, 1, 6984
1, 53150, Pitch_bend_c, 2, 6984
1, 53150, Pitch_bend_c, 3, 6984
1, 53150, Pitch_bend_c, 7, 8172
1, 53160, Note_on_c, 9, 42, 0
1, 53165, Pitch_bend_c, 0, 7175
1, 53165, Pitch_bend_c, 1, 7175
1, 53165, Pitch_bend_c, 2, 7175
1, 53165, Pitch_bend_c, 3, 7175
1, 53165, Pitch_bend_c, 7, 8158
1, 53180, Pitch_bend_c, 0, 7319
1, 53180, Pitch_bend_c, 1, 7319
1, 53180, Pitch_bend_c, 2, 7319
1, 53180, Pitch_bend_c, 3, 7319
1, 53200, Pitch_bend_c, 0, 7612
1, 53200, Pitch_bend_c, 1, 7612
1, 53200, Pitch_bend_c, 2, 7612
1, 53200, Pitch_bend_c, 3, 7612
1, 53200, Pitch_bend_c, 7, 8145
1, 53215, Pitch_bend_c, 0, 7756
1, 53215, Pitch_bend_c, 1, 7756
1, 53215, Pitch_bend_c, 2, 7756
1, 53215, Pitch_bend_c, 3, 7756
1, 53215, Pitch_bend_c, 7, 8131
1, 53230, Pitch_bend_c, 0, 7899
1, 53230, Pitch_bend_c, 1, 7899
1, 53230, Pitch_bend_c, 2, 7899
1, 53230, Pitch_bend_c, 3, 7899
1, 53230, Pitch_bend_c, 7, 8124
1, 53245, Pitch_bend_c, 0, 8049
1, 53245, Pitch_bend_c, 1, 8049
1, 53245, Pitch_bend_c, 2, 8049
1, 53245, Pitch_bend_c, 3, 8049
1, 53260, Pitch_bend_c, 0, 8192
1, 53260, Pitch_bend_c, 1, 8192
1, 53260, Pitch_bend_c, 2, 8192
1, 53260, Pitch_bend_c, 3, 8192
1, 53260, Pitch_bend_c, 7, 8097
1, 53280, Note_on_c, 1, 35, 0
1, 53280, Note_on_c, 3, 47, 0
1, 53280, Note_on_c, 2, 83, 0
1, 53280, Note_on_c, 2, 59, 0
1, 53280, Note_on_c, 0, 47, 0
1, 53280, Note_on_c, 2, 71, 0
1, 53280, Note_on_c, 0, 47, 95
1, 53280, Note_on_c, 1, 35, 95
1, 53280, Note_on_c, 2, 83, 64
1, 53280, Note_on_c, 2, 71, 127
1, 53280, Note_on_c, 2, 59, 95
1, 53280, Note_on_c, 3, 47, 64
1, 53280, Pitch_bend_c, 7, 8083
1, 53280, Note_on_c, 9, 42, 73
1, 53280, Note_on_c, 9, 28, 103
1, 53280, Note_on_c, 9, 35, 103
1, 53280, Note_on_c, 9, 40, 90
1, 53310, Pitch_bend_c, 7, 8070
1, 53325, Pitch_bend_c, 7, 8056
1, 53360, Pitch_bend_c, 7, 8049
1, 53375, Pitch_bend_c, 7, 8035
1, 53400, Note_on_c, 9, 40, 0
1, 53400, Note_on_c, 9, 28, 0
1, 53400, Note_on_c, 9, 42, 0
1, 53400, Note_on_c, 9, 35, 0
1, 53405, Pitch_bend_c, 7, 8008
1, 53455, Pitch_bend_c, 7, 7995
1, 53470, Pitch_bend_c, 7, 7981
1, 53500, Pitch_bend_c, 7, 7974
1, 53520, Note_on_c, 1, 35, 0
1, 53520, Note_on_c, 3, 47, 0
1, 53520, Note_on_c, 2, 83, 0
1, 53520, Note_on_c, 2, 59, 0
1, 53520, Note_on_c, 0, 47, 0
1, 53520, Note_on_c, 2, 71, 0
1, 53520, Note_on_c, 0, 47, 95
1, 53520, Note_on_c, 1, 35, 95
1, 53520, Note_on_c, 2, 83, 64
1, 53520, Note_on_c, 2, 71, 127
1, 53520, Note_on_c, 2, 59, 95
1, 53520, Note_on_c, 3, 47, 64
1, 53520, Note_on_c, 9, 42, 73
1, 53550, Pitch_bend_c, 0, 8335
1, 53550, Pitch_bend_c, 1, 8335
1, 53550, Pitch_bend_c, 2, 8335
1, 53550, Pitch_bend_c, 3, 8335
1, 53550, Pitch_bend_c, 7, 7960
1, 53600, Pitch_bend_c, 0, 8485
1, 53600, Pitch_bend_c, 1, 8485
1, 53600, Pitch_bend_c, 2, 8485
1, 53600, Pitch_bend_c, 3, 8485
1, 53600, Pitch_bend_c, 7, 7947
1, 53615, Pitch_bend_c, 0, 8628
1, 53615, Pitch_bend_c, 1, 8628
1, 53615, Pitch_bend_c, 2, 8628
1, 53615, Pitch_bend_c, 3, 8628
1, 53630, Pitch_bend_c, 0, 8772
1, 53630, Pitch_bend_c, 1, 8772
1, 53630, Pitch_bend_c, 2, 8772
1, 53630, Pitch_bend_c, 3, 8772
1, 53640, Note_on_c, 9, 42, 0
1, 53645, Pitch_bend_c, 0, 9065
1, 53645, Pitch_bend_c, 1, 9065
1, 53645, Pitch_bend_c, 2, 9065
1, 53645, Pitch_bend_c, 3, 9065
1, 53660, Pitch_bend_c, 0, 9400
1, 53660, Pitch_bend_c, 1, 9400
1, 53660, Pitch_bend_c, 2, 9400
1, 53660, Pitch_bend_c, 3, 9400
1, 53680, Pitch_bend_c, 0, 9543
1, 53680, Pitch_bend_c, 1, 9543
1, 53680, Pitch_bend_c, 2, 9543
1, 53680, Pitch_bend_c, 3, 9543
1, 53680, Pitch_bend_c, 7, 7933
1, 53695, Pitch_bend_c, 0, 9830
1, 53695, Pitch_bend_c, 1, 9830
1, 53695, Pitch_bend_c, 2, 9830
1, 53695, Pitch_bend_c, 3, 9830
1, 53710, Pitch_bend_c, 0, 10110
1, 53710, Pitch_bend_c, 1, 10110
1, 53710, Pitch_bend_c, 2, 10110
1, 53710, Pitch_bend_c, 3, 10110
1, 53725, Pitch_bend_c, 0, 10253
1, 53725, Pitch_bend_c, 1, 10253
1, 53725, Pitch_bend_c, 2, 10253
1, 53725, Pitch_bend_c, 3, 10253
1, 53740, Pitch_bend_c, 0, 10397
1, 53740, Pitch_bend_c, 1, 10397
1, 53740, Pitch_bend_c, 2, 10397
1, 53740, Pitch_bend_c, 3, 10397
1, 53760, Note_on_c, 1, 35, 0
1, 53760, Note_on_c, 7, 83, 0
1, 53760, Note_on_c, 2, 83, 0
1, 53760, Note_on_c, 7, 71, 0
1, 53760, Note_on_c, 0, 47, 0
1, 53760, Note_on_c, 2, 59, 0
1, 53760, Note_on_c, 2, 71, 0
1, 53760, Note_on_c, 3, 47, 0
1, 53760, Note_on_c, 4, 67, 101
1, 53760, Note_on_c, 4, 79, 101
1, 53760, Note_on_c, 4, 71, 101
1, 53760, Note_on_c, 4, 83, 101
1, 53760, Note_on_c, 6, 71, 101
1, 53760, Note_on_c, 6, 55, 101
1, 53760, Note_on_c, 6, 67, 101
1, 53760, Note_on_c, 6, 59, 101
1, 53760, Note_on_c, 9, 42, 103
1, 53760, Note_on_c, 9, 35, 103
1, 53760, Control_c, 13, 7, 0
1, 53760, Pitch_bend_c, 13, 8192
1, 53760, Note_on_c, 13, 75, 63
1, 53760, Note_on_c, 13, 74, 63
1, 53760, Note_on_c, 13, 73, 63
1, 53760, Note_on_c, 13, 72, 63
1, 53760, Note_on_c, 13, 60, 63
1, 53760, Note_on_c, 13, 71, 63
1, 53760, Note_on_c, 13, 70, 63
1, 53760, Note_on_c, 13, 69, 63
1, 53760, Note_on_c, 13, 68, 63
1, 53760, Note_on_c, 13, 67, 63
1, 53760, Note_on_c, 13, 66, 63
1, 53760, Note_on_c, 13, 65, 63
1, 53760, Note_on_c, 13, 64, 63
1, 53760, Note_on_c, 13, 62, 63
1, 53760, Note_on_c, 13, 63, 63
1, 53760, Note_on_c, 13, 61, 63
1, 53880, Note_on_c, 9, 35, 0
1, 53880, Note_on_c, 9, 42, 0
1, 54000, Note_on_c, 6, 67, 0
1, 54000, Note_on_c, 4, 67, 0
1, 54000, Note_on_c, 4, 83, 0
1, 54000, Note_on_c, 6, 59, 0
1, 54000, Note_on_c, 4, 71, 0
1, 54000, Note_on_c, 6, 55, 0
1, 54000, Note_on_c, 4, 79, 0
1, 54000, Note_on_c, 6, 71, 0
1, 54000, Note_on_c, 9, 42, 73
1, 54120, Note_on_c, 9, 42, 0
1, 54120, Note_on_c, 4, 67, 101
1, 54120, Note_on_c, 4, 79, 101
1, 54120, Note_on_c, 4, 71, 101
1, 54120, Note_on_c, 4, 83, 101
1, 54120, Note_on_c, 6, 71, 101
1, 54120, Note_on_c, 6, 59, 101
1, 54120, Note_on_c, 6, 67, 101
1, 54120, Note_on_c, 6, 55, 101
1, 54240, Note_on_c, 9, 42, 73
1, 54240, Note_on_c, 9, 28, 102
1, 54240, Note_on_c, 9, 35, 103
1, 54240, Note_on_c, 9, 40, 91
1, 54360, Note_on_c, 9, 40, 0
1, 54360, Note_on_c, 6, 59, 0
1, 54360, Note_on_c, 6, 67, 0
1, 54360, Note_on_c, 4, 67, 0
1, 54360, Note_on_c, 6, 71, 0
1, 54360, Note_on_c, 4, 79, 0
1, 54360, Note_on_c, 4, 83, 0
1, 54360, Note_on_c, 4, 71, 0
1, 54360, Note_on_c, 9, 35, 0
1, 54360, Note_on_c, 9, 42, 0
1, 54360, Note_on_c, 6, 55, 0
1, 54360, Note_on_c, 9, 28, 0
1, 54480, Note_on_c, 4, 83, 101
1, 54480, Note_on_c, 4, 71, 101
1, 54480, Note_on_c, 4, 79, 101
1, 54480, Note_on_c, 4, 67, 101
1, 54480, Note_on_c, 6, 71, 101
1, 54480, Note_on_c, 6, 59, 101
1, 54480, Note_on_c, 6, 67, 101
1, 54480, Note_on_c, 6, 55, 101
1, 54720, Note_on_c, 6, 55, 0
1, 54720, Note_on_c, 6, 59, 0
1, 54720, Note_on_c, 4, 79, 0
1, 54720, Note_on_c, 4, 83, 0
1, 54720, Note_on_c, 6, 71, 0
1, 54720, Note_on_c, 4, 71, 0
1, 54720, Note_on_c, 4, 67, 0
1, 54720, Note_on_c, 6, 67, 0
1, 54720, Note_on_c, 4, 69, 101
1, 54720, Note_on_c, 4, 81, 101
1, 54720, Note_on_c, 4, 73, 101
1, 54720, Note_on_c, 4, 85, 101
1, 54720, Note_on_c, 6, 73, 101
1, 54720, Note_on_c, 6, 61, 101
1, 54720, Note_on_c, 6, 69, 101
1, 54720, Note_on_c, 6, 57, 101
1, 54720, Note_on_c, 8, 52, 127
1, 54720, Note_on_c, 9, 41, 127
1, 54720, Note_on_c, 12, 60, 103
1, 54840, Note_on_c, 9, 41, 0
1, 54960, Note_on_c, 6, 61, 0
1, 54960, Note_on_c, 4, 69, 0
1, 54960, Note_on_c, 6, 73, 0
1, 54960, Note_on_c, 4, 81, 0
1, 54960, Note_on_c, 4, 85, 0
1, 54960, Note_on_c, 4, 73, 0
1, 54960, Note_on_c, 6, 57, 0
1, 54960, Note_on_c, 6, 69, 0
1, 55080, Note_on_c, 4, 85, 101
1, 55080, Note_on_c, 4, 73, 101
1, 55080, Note_on_c, 4, 81, 101
1, 55080, Note_on_c, 4, 69, 101
1, 55080, Note_on_c, 6, 73, 101
1, 55080, Note_on_c, 6, 61, 101
1, 55080, Note_on_c, 6, 69, 101
1, 55080, Note_on_c, 6, 57, 101
1, 55080, Note_on_c, 9, 44, 80
1, 55080, Note_on_c, 9, 38, 80
1, 55200, Note_on_c, 9, 38, 0
1, 55200, Note_on_c, 9, 44, 0
1, 55200, Note_on_c, 9, 38, 80
1, 55320, Note_on_c, 9, 38, 0
1, 55320, Note_on_c, 6, 73, 0
1, 55320, Note_on_c, 4, 81, 0
1, 55320, Note_on_c, 4, 73, 0
1, 55320, Note_on_c, 4, 85, 0
1, 55320, Note_on_c, 4, 69, 0
1, 55320, Note_on_c, 6, 69, 0
1, 55320, Note_on_c, 6, 61, 0
1, 55320, Note_on_c, 6, 57, 0
1, 55440, Note_on_c, 8, 52, 0
1, 55440, Note_on_c, 4, 69, 101
1, 55440, Note_on_c, 4, 81, 101
1, 55440, Note_on_c, 4, 73, 101
1, 55440, Note_on_c, 4, 85, 101
1, 55440, Note_on_c, 6, 73, 101
1, 55440, Note_on_c, 6, 61, 101
1, 55440, Note_on_c, 6, 69, 101
1, 55440, Note_on_c, 6, 57, 101
1, 55440, Note_on_c, 8, 56, 127
1, 55440, Note_on_c, 9, 43, 127
1, 55560, Note_on_c, 9, 43, 0
1, 55680, Note_on_c, 6, 61, 0
1, 55680, Note_on_c, 6, 73, 0
1, 55680, Note_on_c, 4, 85, 0
1, 55680, Note_on_c, 4, 69, 0
1, 55680, Note_on_c, 4, 73, 0
1, 55680, Note_on_c, 4, 81, 0
1, 55680, Note_on_c, 8, 56, 0
1, 55680, Note_on_c, 6, 57, 0
1, 55680, Note_on_c, 6, 69, 0
1, 55680, Pitch_bend_c, 4, 8192
1, 55680, Note_on_c, 4, 83, 101
1, 55680, Note_on_c, 4, 79, 101
1, 55680, Note_on_c, 4, 67, 101
1, 55680, Note_on_c, 4, 71, 101
1, 55680, Pitch_bend_c, 6, 8192
1, 55680, Note_on_c, 6, 71, 101
1, 55680, Note_on_c, 6, 59, 101
1, 55680, Note_on_c, 6, 55, 101
1, 55680, Note_on_c, 6, 67, 101
1, 55680, Note_on_c, 9, 57, 103
1, 55680, Note_on_c, 9, 52, 127
1, 55680, Note_on_c, 9, 49, 103
1, 55680, Note_on_c, 9, 35, 103
1, 55680, Note_on_c, 9, 39, 127
1, 55680, Control_c, 13, 7, 127
1, 55740, Control_c, 13, 7, 127
1, 55800, Note_on_c, 9, 39, 0
1, 55800, Note_on_c, 9, 35, 0
1, 55800, Note_on_c, 12, 60, 0
1, 55800, Control_c, 13, 7, 125
1, 55860, Control_c, 13, 7, 124
1, 55920, Note_on_c, 6, 59, 0
1, 55920, Note_on_c, 4, 83, 0
1, 55920, Note_on_c, 6, 71, 0
1, 55920, Note_on_c, 4, 79, 0
1, 55920, Note_on_c, 4, 71, 0
1, 55920, Note_on_c, 4, 67, 0
1, 55920, Note_on_c, 6, 55, 0
1, 55920, Note_on_c, 6, 67, 0
1, 55920, Control_c, 13, 7, 121
1, 55980, Control_c, 13, 7, 119
1, 56040, Note_on_c, 4, 83, 101
1, 56040, Note_on_c, 4, 79, 101
1, 56040, Note_on_c, 4, 71, 101
1, 56040, Note_on_c, 4, 67, 101
1, 56040, Note_on_c, 6, 71, 101
1, 56040, Note_on_c, 6, 55, 101
1, 56040, Note_on_c, 6, 59, 101
1, 56040, Note_on_c, 6, 67, 101
1, 56040, Control_c, 13, 7, 117
1, 56100, Control_c, 13, 7, 114
1, 56160, Note_on_c, 9, 35, 103
1, 56160, Note_on_c, 9, 39, 127
1, 56160, Control_c, 13, 7, 112
1, 56220, Control_c, 13, 7, 110
1, 56280, Note_on_c, 9, 39, 0
1, 56280, Note_on_c, 4, 71, 0
1, 56280, Note_on_c, 4, 79, 0
1, 56280, Note_on_c, 4, 67, 0
1, 56280, Note_on_c, 4, 83, 0
1, 56280, Note_on_c, 9, 35, 0
1, 56280, Note_on_c, 6, 55, 0
1, 56280, Note_on_c, 6, 71, 0
1, 56280, Note_on_c, 6, 67, 0
1, 56280, Note_on_c, 6, 59, 0
1, 56280, Control_c, 13, 7, 108
1, 56340, Control_c, 13, 7, 106
1, 56400, Note_on_c, 4, 83, 101
1, 56400, Note_on_c, 4, 79, 101
1, 56400, Note_on_c, 4, 67, 101
1, 56400, Note_on_c, 4, 71, 101
1, 56400, Note_on_c, 6, 71, 101
1, 56400, Note_on_c, 6, 59, 101
1, 56400, Note_on_c, 6, 55, 101
1, 56400, Note_on_c, 6, 67, 101
1, 56400, Control_c, 13, 7, 105
1, 56460, Control_c, 13, 7, 103
1, 56520, Control_c, 13, 7, 101
1, 56580, Control_c, 13, 7, 99
1, 56640, Note_on_c, 6, 67, 0
1, 56640, Note_on_c, 4, 71, 0
1, 56640, Note_on_c, 4, 67, 0
1, 56640, Note_on_c, 4, 79, 0
1, 56640, Note_on_c, 4, 83, 0
1, 56640, Note_on_c, 6, 55, 0
1, 56640, Note_on_c, 6, 59, 0
1, 56640, Note_on_c, 6, 71, 0
1, 56640, Note_on_c, 9, 35, 103
1, 56640, Note_on_c, 9, 39, 127
1, 56640, Control_c, 13, 7, 96
1, 56700, Control_c, 13, 7, 95
1, 56760, Note_on_c, 9, 39, 0
1, 56760, Note_on_c, 9, 35, 0
1, 56760, Note_on_c, 4, 83, 101
1, 56760, Note_on_c, 4, 79, 101
1, 56760, Note_on_c, 4, 67, 101
1, 56760, Note_on_c, 4, 71, 101
1, 56760, Note_on_c, 6, 71, 101
1, 56760, Note_on_c, 6, 59, 101
1, 56760, Note_on_c, 6, 55, 101
1, 56760, Note_on_c, 6, 67, 101
1, 56760, Control_c, 13, 7, 92
1, 56820, Control_c, 13, 7, 91
1, 56880, Control_c, 13, 7, 90
1, 56940, Control_c, 13, 7, 88
1, 57000, Note_on_c, 6, 67, 0
1, 57000, Note_on_c, 4, 71, 0
1, 57000, Note_on_c, 4, 67, 0
1, 57000, Note_on_c, 4, 79, 0
1, 57000, Note_on_c, 4, 83, 0
1, 57000, Note_on_c, 6, 55, 0
1, 57000, Note_on_c, 6, 59, 0
1, 57000, Note_on_c, 6, 71, 0
1, 57000, Control_c, 13, 7, 86
1, 57060, Control_c, 13, 7, 83
1, 57120, Note_on_c, 4, 83, 101
1, 57120, Note_on_c, 4, 79, 101
1, 57120, Note_on_c, 4, 71, 101
1, 57120, Note_on_c, 4, 67, 101
1, 57120, Note_on_c, 6, 71, 101
1, 57120, Note_on_c, 6, 55, 101
1, 57120, Note_on_c, 6, 59, 101
1, 57120, Note_on_c, 6, 67, 101
1, 57120, Note_on_c, 9, 35, 103
1, 57120, Note_on_c, 9, 39, 127
1, 57120, Control_c, 13, 7, 82
1, 57135, Pitch_bend_c, 4, 8049
1, 57135, Pitch_bend_c, 6, 8049
1, 57150, Pitch_bend_c, 4, 7756
1, 57150, Pitch_bend_c, 6, 7756
1, 57165, Pitch_bend_c, 4, 7612
1, 57165, Pitch_bend_c, 6, 7612
1, 57180, Pitch_bend_c, 4, 7175
1, 57180, Pitch_bend_c, 6, 7175
1, 57180, Control_c, 13, 7, 80
1, 57200, Pitch_bend_c, 4, 6841
1, 57200, Pitch_bend_c, 6, 6841
1, 57215, Pitch_bend_c, 4, 6418
1, 57215, Pitch_bend_c, 6, 6418
1, 57230, Pitch_bend_c, 4, 5803
1, 57230, Pitch_bend_c, 6, 5803
1, 57240, Note_on_c, 9, 39, 0
1, 57240, Note_on_c, 9, 35, 0
1, 57240, Control_c, 13, 7, 77
1, 57245, Pitch_bend_c, 4, 5380
1, 57245, Pitch_bend_c, 6, 5380
1, 57260, Pitch_bend_c, 4, 4820
1, 57260, Pitch_bend_c, 6, 4820
1, 57280, Pitch_bend_c, 4, 4219
1, 57280, Pitch_bend_c, 6, 4219
1, 57295, Pitch_bend_c, 4, 3810
1, 57295, Pitch_bend_c, 6, 3810
1, 57300, Control_c, 13, 7, 76
1, 57310, Pitch_bend_c, 4, 3223
1, 57310, Pitch_bend_c, 6, 3223
1, 57325, Pitch_bend_c, 4, 2820
1, 57325, Pitch_bend_c, 6, 2820
1, 57340, Pitch_bend_c, 4, 2369
1, 57340, Pitch_bend_c, 6, 2369
1, 57360, Pitch_bend_c, 4, 1837
1, 57360, Pitch_bend_c, 6, 1837
1, 57360, Control_c, 13, 7, 74
1, 57375, Pitch_bend_c, 4, 1577
1, 57375, Pitch_bend_c, 6, 1577
1, 57390, Pitch_bend_c, 4, 1134
1, 57390, Pitch_bend_c, 6, 1134
1, 57405, Pitch_bend_c, 4, 874
1, 57405, Pitch_bend_c, 6, 874
1, 57420, Pitch_bend_c, 4, 615
1, 57420, Pitch_bend_c, 6, 615
1, 57420, Control_c, 13, 7, 71
1, 57440, Pitch_bend_c, 4, 355
1, 57440, Pitch_bend_c, 6, 355
1, 57455, Pitch_bend_c, 4, 55
1, 57455, Pitch_bend_c, 6, 55
1, 57470, Pitch_bend_c, 4, 0
1, 57470, Pitch_bend_c, 6, 0
1, 57480, Control_c, 13, 7, 69
1, 57485, Pitch_bend_c, 4, 0
1, 57485, Pitch_bend_c, 6, 0
1, 57500, Pitch_bend_c, 4, 0
1, 57500, Pitch_bend_c, 6, 0
1, 57520, Pitch_bend_c, 4, 0
1, 57520, Pitch_bend_c, 6, 0
1, 57535, Pitch_bend_c, 4, 0
1, 57535, Pitch_bend_c, 6, 0
1, 57540, Control_c, 13, 7, 68
1, 57565, Pitch_bend_c, 4, 0
1, 57565, Pitch_bend_c, 6, 0
1, 57600, Note_on_c, 4, 71, 0
1, 57600, Note_on_c, 4, 79, 0
1, 57600, Note_on_c, 4, 83, 0
1, 57600, Note_on_c, 6, 55, 0
1, 57600, Note_on_c, 6, 71, 0
1, 57600, Note_on_c, 4, 67, 0
1, 57600, Note_on_c, 6, 67, 0
1, 57600, Note_on_c, 6, 59, 0
1, 57600, Pitch_bend_c, 4, 8192
1, 57600, Note_on_c, 4, 85, 101
1, 57600, Note_on_c, 4, 81, 101
1, 57600, Note_on_c, 4, 73, 101
1, 57600, Note_on_c, 4, 69, 101
1, 57600, Pitch_bend_c, 6, 8192
1, 57600, Note_on_c, 6, 73, 101
1, 57600, Note_on_c, 6, 57, 101
1, 57600, Note_on_c, 6, 61, 101
1, 57600, Note_on_c, 6, 69, 101
1, 57600, Note_on_c, 9, 35, 103
1, 57600, Note_on_c, 9, 39, 127
1, 57600, Control_c, 13, 7, 66
1, 57660, Control_c, 13, 7, 63
1, 57720, Note_on_c, 9, 39, 0
1, 57720, Note_on_c, 9, 35, 0
1, 57720, Control_c, 13, 7, 60
1, 57780, Control_c, 13, 7, 59
1, 57840, Note_on_c, 4, 73, 0
1, 57840, Note_on_c, 4, 81, 0
1, 57840, Note_on_c, 4, 85, 0
1, 57840, Note_on_c, 6, 57, 0
1, 57840, Note_on_c, 6, 73, 0
1, 57840, Note_on_c, 4, 69, 0
1, 57840, Note_on_c, 6, 69, 0
1, 57840, Note_on_c, 6, 61, 0
1, 57840, Control_c, 13, 7, 57
1, 57900, Control_c, 13, 7, 55
1, 57960, Note_on_c, 4, 85, 101
1, 57960, Note_on_c, 4, 81, 101
1, 57960, Note_on_c, 4, 73, 101
1, 57960, Note_on_c, 4, 69, 101
1, 57960, Note_on_c, 6, 73, 101
1, 57960, Note_on_c, 6, 57, 101
1, 57960, Note_on_c, 6, 61, 101
1, 57960, Note_on_c, 6, 69, 101
1, 57960, Control_c, 13, 7, 52
1, 58020, Control_c, 13, 7, 50
1, 58080, Note_on_c, 9, 35, 103
1, 58080, Note_on_c, 9, 39, 127
1, 58080, Control_c, 13, 7, 48
1, 58140, Control_c, 13, 7, 47
1, 58200, Note_on_c, 9, 39, 0
1, 58200, Note_on_c, 4, 73, 0
1, 58200, Note_on_c, 4, 81, 0
1, 58200, Note_on_c, 4, 69, 0
1, 58200, Note_on_c, 4, 85, 0
1, 58200, Note_on_c, 9, 35, 0
1, 58200, Note_on_c, 6, 57, 0
1, 58200, Note_on_c, 6, 73, 0
1, 58200, Note_on_c, 6, 69, 0
1, 58200, Note_on_c, 6, 61, 0
1, 58200, Control_c, 13, 7, 45
1, 58260, Control_c, 13, 7, 44
1, 58320, Note_on_c, 4, 85, 101
1, 58320, Note_on_c, 4, 81, 101
1, 58320, Note_on_c, 4, 69, 101
1, 58320, Note_on_c, 4, 73, 101
1, 58320, Note_on_c, 6, 73, 101
1, 58320, Note_on_c, 6, 61, 101
1, 58320, Note_on_c, 6, 57, 101
1, 58320, Note_on_c, 6, 69, 101
1, 58320, Control_c, 13, 7, 42
1, 58380, Control_c, 13, 7, 41
1, 58440, Control_c, 13, 7, 38
1, 58500, Control_c, 13, 7, 36
1, 58560, Note_on_c, 6, 69, 0
1, 58560, Note_on_c, 4, 73, 0
1, 58560, Note_on_c, 4, 69, 0
1, 58560, Note_on_c, 4, 81, 0
1, 58560, Note_on_c, 4, 85, 0
1, 58560, Note_on_c, 6, 57, 0
1, 58560, Note_on_c, 6, 61, 0
1, 58560, Note_on_c, 6, 73, 0
1, 58560, Note_on_c, 9, 35, 103
1, 58560, Note_on_c, 9, 39, 127
1, 58560, Control_c, 13, 7, 34
1, 58620, Control_c, 13, 7, 33
1, 58680, Note_on_c, 9, 39, 0
1, 58680, Note_on_c, 9, 35, 0
1, 58680, Note_on_c, 4, 85, 101
1, 58680, Note_on_c, 4, 81, 101
1, 58680, Note_on_c, 4, 69, 101
1, 58680, Note_on_c, 4, 73, 101
1, 58680, Note_on_c, 6, 73, 101
1, 58680, Note_on_c, 6, 61, 101
1, 58680, Note_on_c, 6, 57, 101
1, 58680, Note_on_c, 6, 69, 101
1, 58680, Control_c, 13, 7, 31
1, 58740, Control_c, 13, 7, 29
1, 58800, Control_c, 13, 7, 29
1, 58860, Control_c, 13, 7, 26
1, 58920, Note_on_c, 6, 69, 0
1, 58920, Note_on_c, 4, 73, 0
1, 58920, Note_on_c, 4, 69, 0
1, 58920, Note_on_c, 4, 81, 0
1, 58920, Note_on_c, 4, 85, 0
1, 58920, Note_on_c, 6, 57, 0
1, 58920, Note_on_c, 6, 61, 0
1, 58920, Note_on_c, 6, 73, 0
1, 58920, Control_c, 13, 7, 24
1, 58980, Control_c, 13, 7, 21
1, 59040, Note_on_c, 4, 85, 101
1, 59040, Note_on_c, 4, 81, 101
1, 59040, Note_on_c, 4, 69, 101
1, 59040, Note_on_c, 4, 73, 101
1, 59040, Note_on_c, 6, 73, 101
1, 59040, Note_on_c, 6, 61, 101
1, 59040, Note_on_c, 6, 57, 101
1, 59040, Note_on_c, 6, 69, 101
1, 59040, Note_on_c, 9, 35, 103
1, 59040, Note_on_c, 9, 39, 127
1, 59040, Control_c, 13, 7, 19
1, 59100, Control_c, 13, 7, 17
1, 59160, Note_on_c, 9, 39, 0
1, 59160, Note_on_c, 9, 35, 0
1, 59160, Control_c, 13, 7, 15
1, 59220, Note_on_c, 4, 69, 0
1, 59220, Note_on_c, 4, 81, 0
1, 59220, Note_on_c, 4, 85, 0
1, 59220, Note_on_c, 6, 61, 0
1, 59220, Note_on_c, 6, 73, 0
1, 59220, Note_on_c, 4, 73, 0
1, 59220, Note_on_c, 6, 69, 0
1, 59220, Note_on_c, 6, 57, 0
1, 59220, Control_c, 13, 7, 13
1, 59280, Note_on_c, 4, 85, 101
1, 59280, Note_on_c, 4, 69, 101
1, 59280, Note_on_c, 4, 73, 101
1, 59280, Note_on_c, 4, 81, 101
1, 59280, Note_on_c, 6, 73, 101
1, 59280, Note_on_c, 6, 69, 101
1, 59280, Note_on_c, 6, 61, 101
1, 59280, Note_on_c, 6, 57, 101
1, 59280, Control_c, 13, 7, 11
1, 59340, Control_c, 13, 7, 9
1, 59400, Control_c, 13, 7, 8
1, 59460, Note_on_c, 6, 57, 0
1, 59460, Note_on_c, 4, 81, 0
1, 59460, Note_on_c, 4, 73, 0
1, 59460, Note_on_c, 4, 69, 0
1, 59460, Note_on_c, 4, 85, 0
1, 59460, Note_on_c, 6, 61, 0
1, 59460, Note_on_c, 6, 69, 0
1, 59460, Note_on_c, 6, 73, 0
1, 59460, Control_c, 13, 7, 6
1, 59520, Note_on_c, 9, 57, 0
1, 59520, Note_on_c, 13, 61, 0
1, 59520, Note_on_c, 13, 74, 0
1, 59520, Note_on_c, 13, 72, 0
1, 59520, Note_on_c, 13, 71, 0
1, 59520, Note_on_c, 13, 60, 0
1, 59520, Note_on_c, 13, 63, 0
1, 59520, Note_on_c, 13, 64, 0
1, 59520, Note_on_c, 13, 68, 0
1, 59520, Note_on_c, 13, 73, 0
1, 59520, Note_on_c, 9, 49, 0
1, 59520, Note_on_c, 13, 67, 0
1, 59520, Note_on_c, 13, 69, 0
1, 59520, Note_on_c, 9, 52, 0
1, 59520, Note_on_c, 13, 75, 0
1, 59520, Note_on_c, 13, 66, 0
1, 59520, Note_on_c, 13, 70, 0
1, 59520, Note_on_c, 13, 65, 0
1, 59520, Note_on_c, 13, 62, 0
1, 59520, Note_on_c, 4, 87, 101
1, 59520, Note_on_c, 4, 75, 101
1, 59520, Note_on_c, 4, 71, 101
1, 59520, Note_on_c, 4, 83, 101
1, 59520, Note_on_c, 6, 75, 101
1, 59520, Note_on_c, 6, 71, 101
1, 59520, Note_on_c, 6, 59, 101
1, 59520, Note_on_c, 6, 63, 101
1, 59520, Note_on_c, 9, 35, 103
1, 59520, Note_on_c, 9, 39, 127
1, 59520, Control_c, 13, 7, 0
1, 59640, Note_on_c, 9, 39, 0
1, 59640, Note_on_c, 9, 35, 0
1, 59760, Note_on_c, 4, 83, 0
1, 59760, Note_on_c, 4, 87, 0
1, 59760, Note_on_c, 6, 75, 0
1, 59760, Note_on_c, 4, 75, 0
1, 59760, Note_on_c, 6, 63, 0
1, 59760, Note_on_c, 6, 59, 0
1, 59760, Note_on_c, 6, 71, 0
1, 59760, Note_on_c, 4, 71, 0
1, 59880, Note_on_c, 4, 87, 101
1, 59880, Note_on_c, 4, 83, 101
1, 59880, Note_on_c, 4, 71, 101
1, 59880, Note_on_c, 4, 75, 101
1, 59880, Note_on_c, 6, 75, 101
1, 59880, Note_on_c, 6, 63, 101
1, 59880, Note_on_c, 6, 59, 101
1, 59880, Note_on_c, 6, 71, 101
1, 60000, Note_on_c, 9, 35, 103
1, 60000, Note_on_c, 9, 39, 127
1, 60120, Note_on_c, 9, 39, 0
1, 60120, Note_on_c, 4, 71, 0
1, 60120, Note_on_c, 4, 75, 0
1, 60120, Note_on_c, 4, 87, 0
1, 60120, Note_on_c, 6, 75, 0
1, 60120, Note_on_c, 4, 83, 0
1, 60120, Note_on_c, 6, 71, 0
1, 60120, Note_on_c, 6, 59, 0
1, 60120, Note_on_c, 6, 63, 0
1, 60120, Note_on_c, 9, 35, 0
1, 60240, Note_on_c, 4, 87, 101
1, 60240, Note_on_c, 4, 83, 101
1, 60240, Note_on_c, 4, 71, 101
1, 60240, Note_on_c, 4, 75, 101
1, 60240, Note_on_c, 6, 75, 101
1, 60240, Note_on_c, 6, 63, 101
1, 60240, Note_on_c, 6, 59, 101
1, 60240, Note_on_c, 6, 71, 101
1, 60480, Note_on_c, 6, 71, 0
1, 60480, Note_on_c, 4, 87, 0
1, 60480, Note_on_c, 6, 75, 0
1, 60480, Note_on_c, 4, 83, 0
1, 60480, Note_on_c, 4, 71, 0
1, 60480, Note_on_c, 4, 75, 0
1, 60480, Note_on_c, 6, 63, 0
1, 60480, Note_on_c, 6, 59, 0
1, 60480, Note_on_c, 9, 35, 103
1, 60480, Note_on_c, 9, 39, 127
1, 60600, Note_on_c, 9, 39, 0
1, 60600, Note_on_c, 9, 35, 0
1, 60600, Note_on_c, 4, 87, 101
1, 60600, Note_on_c, 4, 83, 101
1, 60600, Note_on_c, 4, 71, 101
1, 60600, Note_on_c, 4, 75, 101
1, 60600, Note_on_c, 6, 75, 101
1, 60600, Note_on_c, 6, 63, 101
1, 60600, Note_on_c, 6, 59, 101
1, 60600, Note_on_c, 6, 71, 101
1, 60840, Note_on_c, 6, 71, 0
1, 60840, Note_on_c, 4, 87, 0
1, 60840, Note_on_c, 6, 75, 0
1, 60840, Note_on_c, 4, 83, 0
1, 60840, Note_on_c, 4, 71, 0
1, 60840, Note_on_c, 4, 75, 0
1, 60840, Note_on_c, 6, 63, 0
1, 60840, Note_on_c, 6, 59, 0
1, 60960, Note_on_c, 4, 87, 101
1, 60960, Note_on_c, 4, 83, 101
1, 60960, Note_on_c, 4, 71, 101
1, 60960, Note_on_c, 4, 75, 101
1, 60960, Note_on_c, 6, 75, 101
1, 60960, Note_on_c, 6, 63, 101
1, 60960, Note_on_c, 6, 59, 101
1, 60960, Note_on_c, 6, 71, 101
1, 60960, Note_on_c, 9, 35, 103
1, 60960, Note_on_c, 9, 39, 127
1, 60985, Pitch_bend_c, 4, 8049
1, 60985, Pitch_bend_c, 6, 8049
1, 61000, Pitch_bend_c, 4, 7756
1, 61000, Pitch_bend_c, 6, 7756
1, 61015, Pitch_bend_c, 4, 7612
1, 61015, Pitch_bend_c, 6, 7612
1, 61030, Pitch_bend_c, 4, 7175
1, 61030, Pitch_bend_c, 6, 7175
1, 61050, Pitch_bend_c, 4, 6841
1, 61050, Pitch_bend_c, 6, 6841
1, 61065, Pitch_bend_c, 4, 6418
1, 61065, Pitch_bend_c, 6, 6418
1, 61080, Note_on_c, 9, 39, 0
1, 61080, Note_on_c, 9, 35, 0
1, 61080, Pitch_bend_c, 4, 5803
1, 61080, Pitch_bend_c, 6, 5803
1, 61095, Pitch_bend_c, 4, 5380
1, 61095, Pitch_bend_c, 6, 5380
1, 61110, Pitch_bend_c, 4, 4820
1, 61110, Pitch_bend_c, 6, 4820
1, 61130, Pitch_bend_c, 4, 4219
1, 61130, Pitch_bend_c, 6, 4219
1, 61145, Pitch_bend_c, 4, 3810
1, 61145, Pitch_bend_c, 6, 3810
1, 61160, Pitch_bend_c, 4, 3223
1, 61160, Pitch_bend_c, 6, 3223
1, 61175, Pitch_bend_c, 4, 2820
1, 61175, Pitch_bend_c, 6, 2820
1, 61190, Pitch_bend_c, 4, 2369
1, 61190, Pitch_bend_c, 6, 2369
1, 61210, Pitch_bend_c, 4, 1837
1, 61210, Pitch_bend_c, 6, 1837
1, 61225, Pitch_bend_c, 4, 1577
1, 61225, Pitch_bend_c, 6, 1577
1, 61240, Pitch_bend_c, 4, 1134
1, 61240, Pitch_bend_c, 6, 1134
1, 61255, Pitch_bend_c, 4, 874
1, 61255, Pitch_bend_c, 6, 874
1, 61270, Pitch_bend_c, 4, 615
1, 61270, Pitch_bend_c, 6, 615
1, 61290, Pitch_bend_c, 4, 355
1, 61290, Pitch_bend_c, 6, 355
1, 61305, Pitch_bend_c, 4, 55
1, 61305, Pitch_bend_c, 6, 55
1, 61320, Pitch_bend_c, 4, 0
1, 61320, Pitch_bend_c, 6, 0
1, 61335, Pitch_bend_c, 4, 0
1, 61335, Pitch_bend_c, 6, 0
1, 61350, Pitch_bend_c, 4, 0
1, 61350, Pitch_bend_c, 6, 0
1, 61370, Pitch_bend_c, 4, 0
1, 61370, Pitch_bend_c, 6, 0
1, 61385, Pitch_bend_c, 4, 0
1, 61385, Pitch_bend_c, 6, 0
1, 61415, Pitch_bend_c, 4, 0
1, 61415, Pitch_bend_c, 6, 0
1, 61440, Note_on_c, 4, 75, 0
1, 61440, Note_on_c, 4, 87, 0
1, 61440, Note_on_c, 6, 75, 0
1, 61440, Note_on_c, 4, 83, 0
1, 61440, Note_on_c, 6, 71, 0
1, 61440, Note_on_c, 6, 59, 0
1, 61440, Note_on_c, 6, 63, 0
1, 61440, Note_on_c, 4, 71, 0
1, 61440, Note_on_c, 4, 87, 101
1, 61440, Note_on_c, 4, 83, 101
1, 61440, Note_on_c, 4, 75, 101
1, 61440, Note_on_c, 4, 71, 101
1, 61440, Note_on_c, 6, 75, 101
1, 61440, Note_on_c, 6, 59, 101
1, 61440, Note_on_c, 6, 63, 101
1, 61440, Note_on_c, 6, 71, 101
1, 61440, Note_on_c, 9, 35, 103
1, 61440, Note_on_c, 9, 39, 127
1, 61440, Control_c, 13, 7, 0
1, 61440, Pitch_bend_c, 13, 8192
1, 61440, Note_on_c, 13, 75, 63
1, 61440, Note_on_c, 13, 74, 63
1, 61440, Note_on_c, 13, 73, 63
1, 61440, Note_on_c, 13, 72, 63
1, 61440, Note_on_c, 13, 60, 63
1, 61440, Note_on_c, 13, 71, 63
1, 61440, Note_on_c, 13, 70, 63
1, 61440, Note_on_c, 13, 69, 63
1, 61440, Note_on_c, 13, 68, 63
1, 61440, Note_on_c, 13, 67, 63
1, 61440, Note_on_c, 13, 66, 63
1, 61440, Note_on_c, 13, 65, 63
1, 61440, Note_on_c, 13, 64, 63
1, 61440, Note_on_c, 13, 62, 63
1, 61440, Note_on_c, 13, 63, 63
1, 61440, Note_on_c, 13, 61, 63
1, 61450, Pitch_bend_c, 4, 8192
1, 61450, Pitch_bend_c, 6, 8192
1, 61560, Note_on_c, 9, 39, 0
1, 61560, Note_on_c, 9, 35, 0
1, 61680, Note_on_c, 6, 63, 0
1, 61680, Note_on_c, 4, 87, 0
1, 61680, Note_on_c, 4, 71, 0
1, 61680, Note_on_c, 6, 71, 0
1, 61680, Note_on_c, 4, 75, 0
1, 61680, Note_on_c, 6, 59, 0
1, 61680, Note_on_c, 4, 83, 0
1, 61680, Note_on_c, 6, 75, 0
1, 61800, Note_on_c, 4, 87, 101
1, 61800, Note_on_c, 4, 83, 101
1, 61800, Note_on_c, 4, 71, 101
1, 61800, Note_on_c, 4, 75, 101
1, 61800, Note_on_c, 6, 75, 101
1, 61800, Note_on_c, 6, 63, 101
1, 61800, Note_on_c, 6, 59, 101
1, 61800, Note_on_c, 6, 71, 101
1, 61920, Note_on_c, 9, 35, 103
1, 61920, Note_on_c, 9, 39, 127
1, 62040, Note_on_c, 9, 39, 0
1, 62040, Note_on_c, 6, 63, 0
1, 62040, Note_on_c, 4, 87, 0
1, 62040, Note_on_c, 6, 75, 0
1, 62040, Note_on_c, 4, 83, 0
1, 62040, Note_on_c, 4, 75, 0
1, 62040, Note_on_c, 4, 71, 0
1, 62040, Note_on_c, 9, 35, 0
1, 62040, Note_on_c, 6, 71, 0
1, 62040, Note_on_c, 6, 59, 0
1, 62160, Note_on_c, 4, 87, 101
1, 62160, Note_on_c, 4, 83, 101
1, 62160, Note_on_c, 4, 75, 101
1, 62160, Note_on_c, 4, 71, 101
1, 62160, Note_on_c, 6, 75, 101
1, 62160, Note_on_c, 6, 59, 101
1, 62160, Note_on_c, 6, 63, 101
1, 62160, Note_on_c, 6, 71, 101
1, 62400, Note_on_c, 6, 71, 0
1, 62400, Note_on_c, 6, 59, 0
1, 62400, Note_on_c, 4, 75, 0
1, 62400, Note_on_c, 4, 87, 0
1, 62400, Note_on_c, 6, 75, 0
1, 62400, Note_on_c, 4, 83, 0
1, 62400, Note_on_c, 4, 71, 0
1, 62400, Note_on_c, 6, 63, 0
1, 62400, Note_on_c, 4, 85, 101
1, 62400, Note_on_c, 4, 73, 101
1, 62400, Note_on_c, 4, 69, 101
1, 62400, Note_on_c, 4, 81, 101
1, 62400, Note_on_c, 6, 73, 101
1, 62400, Note_on_c, 6, 69, 101
1, 62400, Note_on_c, 6, 57, 101
1, 62400, Note_on_c, 6, 61, 101
1, 62400, Note_on_c, 9, 35, 103
1, 62400, Note_on_c, 9, 39, 127
1, 62520, Note_on_c, 9, 39, 0
1, 62520, Note_on_c, 9, 35, 0
1, 62580, Note_on_c, 6, 69, 0
1, 62580, Note_on_c, 4, 85, 0
1, 62580, Note_on_c, 4, 69, 0
1, 62580, Note_on_c, 6, 73, 0
1, 62580, Note_on_c, 4, 73, 0
1, 62580, Note_on_c, 4, 81, 0
1, 62580, Note_on_c, 6, 61, 0
1, 62580, Note_on_c, 6, 57, 0
1, 62640, Note_on_c, 4, 85, 101
1, 62640, Note_on_c, 4, 69, 101
1, 62640, Note_on_c, 4, 73, 101
1, 62640, Note_on_c, 4, 81, 101
1, 62640, Note_on_c, 6, 73, 101
1, 62640, Note_on_c, 6, 69, 101
1, 62640, Note_on_c, 6, 61, 101
1, 62640, Note_on_c, 6, 57, 101
1, 62820, Note_on_c, 6, 57, 0
1, 62820, Note_on_c, 6, 69, 0
1, 62820, Note_on_c, 4, 73, 0
1, 62820, Note_on_c, 4, 85, 0
1, 62820, Note_on_c, 6, 73, 0
1, 62820, Note_on_c, 4, 69, 0
1, 62820, Note_on_c, 4, 81, 0
1, 62820, Note_on_c, 6, 61, 0
1, 62880, Note_on_c, 4, 87, 101
1, 62880, Note_on_c, 4, 71, 101
1, 62880, Note_on_c, 4, 75, 101
1, 62880, Note_on_c, 4, 83, 101
1, 62880, Note_on_c, 6, 75, 101
1, 62880, Note_on_c, 6, 71, 101
1, 62880, Note_on_c, 6, 63, 101
1, 62880, Note_on_c, 6, 59, 101
1, 62880, Note_on_c, 9, 35, 103
1, 62880, Note_on_c, 9, 39, 127
1, 63000, Note_on_c, 9, 39, 0
1, 63000, Note_on_c, 9, 35, 0
1, 63060, Note_on_c, 6, 71, 0
1, 63060, Note_on_c, 4, 87, 0
1, 63060, Note_on_c, 4, 75, 0
1, 63060, Note_on_c, 6, 75, 0
1, 63060, Note_on_c, 4, 71, 0
1, 63060, Note_on_c, 4, 83, 0
1, 63060, Note_on_c, 6, 59, 0
1, 63060, Note_on_c, 6, 63, 0
1, 63120, Note_on_c, 4, 87, 101
1, 63120, Note_on_c, 4, 71, 101
1, 63120, Note_on_c, 4, 75, 101
1, 63120, Note_on_c, 4, 83, 101
1, 63120, Note_on_c, 6, 75, 101
1, 63120, Note_on_c, 6, 71, 101
1, 63120, Note_on_c, 6, 63, 101
1, 63120, Note_on_c, 6, 59, 101
1, 63300, Note_on_c, 6, 59, 0
1, 63300, Note_on_c, 6, 71, 0
1, 63300, Note_on_c, 4, 75, 0
1, 63300, Note_on_c, 4, 87, 0
1, 63300, Note_on_c, 6, 75, 0
1, 63300, Note_on_c, 4, 71, 0
1, 63300, Note_on_c, 4, 83, 0
1, 63300, Note_on_c, 6, 63, 0
1, 63360, Pitch_bend_c, 4, 8192
1, 63360, Note_on_c, 4, 83, 101
1, 63360, Note_on_c, 4, 79, 101
1, 63360, Note_on_c, 4, 67, 101
1, 63360, Note_on_c, 4, 71, 101
1, 63360, Pitch_bend_c, 6, 8192
1, 63360, Note_on_c, 6, 71, 101
1, 63360, Note_on_c, 6, 59, 101
1, 63360, Note_on_c, 6, 55, 101
1, 63360, Note_on_c, 6, 67, 101
1, 63360, Note_on_c, 9, 57, 103
1, 63360, Note_on_c, 9, 52, 127
1, 63360, Note_on_c, 9, 49, 103
1, 63360, Note_on_c, 9, 40, 103
1, 63360, Note_on_c, 9, 35, 103
1, 63360, Note_on_c, 9, 39, 127
1, 63360, Control_c, 13, 7, 127
1, 63420, Control_c, 13, 7, 127
1, 63480, Note_on_c, 9, 39, 0
1, 63480, Note_on_c, 9, 35, 0
1, 63480, Note_on_c, 9, 40, 0
1, 63480, Control_c, 13, 7, 125
1, 63540, Control_c, 13, 7, 124
1, 63600, Note_on_c, 6, 59, 0
1, 63600, Note_on_c, 4, 83, 0
1, 63600, Note_on_c, 6, 71, 0
1, 63600, Note_on_c, 4, 79, 0
1, 63600, Note_on_c, 4, 71, 0
1, 63600, Note_on_c, 4, 67, 0
1, 63600, Note_on_c, 6, 55, 0
1, 63600, Note_on_c, 6, 67, 0
1, 63600, Control_c, 13, 7, 121
1, 63660, Control_c, 13, 7, 119
1, 63720, Note_on_c, 4, 83, 101
1, 63720, Note_on_c, 4, 79, 101
1, 63720, Note_on_c, 4, 71, 101
1, 63720, Note_on_c, 4, 67, 101
1, 63720, Note_on_c, 6, 71, 101
1, 63720, Note_on_c, 6, 55, 101
1, 63720, Note_on_c, 6, 59, 101
1, 63720, Note_on_c, 6, 67, 101
1, 63720, Note_on_c, 9, 40, 103
1, 63720, Control_c, 13, 7, 117
1, 63780, Control_c, 13, 7, 114
1, 63840, Note_on_c, 9, 40, 0
1, 63840, Note_on_c, 9, 35, 103
1, 63840, Note_on_c, 9, 39, 127
1, 63840, Control_c, 13, 7, 112
1, 63900, Control_c, 13, 7, 110
1, 63960, Note_on_c, 9, 39, 0
1, 63960, Note_on_c, 6, 59, 0
1, 63960, Note_on_c, 4, 79, 0
1, 63960, Note_on_c, 4, 67, 0
1, 63960, Note_on_c, 4, 83, 0
1, 63960, Note_on_c, 9, 35, 0
1, 63960, Note_on_c, 6, 55, 0
1, 63960, Note_on_c, 6, 71, 0
1, 63960, Note_on_c, 4, 71, 0
1, 63960, Note_on_c, 6, 67, 0
1, 63960, Control_c, 13, 7, 108
1, 64020, Control_c, 13, 7, 106
1, 64080, Note_on_c, 4, 83, 101
1, 64080, Note_on_c, 4, 79, 101
1, 64080, Note_on_c, 4, 67, 101
1, 64080, Note_on_c, 4, 71, 101
1, 64080, Note_on_c, 6, 71, 101
1, 64080, Note_on_c, 6, 59, 101
1, 64080, Note_on_c, 6, 55, 101
1, 64080, Note_on_c, 6, 67, 101
1, 64080, Note_on_c, 9, 40, 103
1, 64080, Control_c, 13, 7, 105
1, 64140, Control_c, 13, 7, 103
1, 64200, Note_on_c, 9, 40, 0
1, 64200, Control_c, 13, 7, 101
1, 64260, Control_c, 13, 7, 99
1, 64320, Note_on_c, 4, 67, 0
1, 64320, Note_on_c, 4, 71, 0
1, 64320, Note_on_c, 4, 79, 0
1, 64320, Note_on_c, 4, 83, 0
1, 64320, Note_on_c, 6, 67, 0
1, 64320, Note_on_c, 6, 59, 0
1, 64320, Note_on_c, 6, 71, 0
1, 64320, Note_on_c, 6, 55, 0
1, 64320, Note_on_c, 9, 35, 103
1, 64320, Note_on_c, 9, 39, 127
1, 64320, Control_c, 13, 7, 96
1, 64380, Control_c, 13, 7, 95
1, 64440, Note_on_c, 9, 39, 0
1, 64440, Note_on_c, 9, 35, 0
1, 64440, Note_on_c, 4, 83, 101
1, 64440, Note_on_c, 4, 79, 101
1, 64440, Note_on_c, 4, 67, 101
1, 64440, Note_on_c, 4, 71, 101
1, 64440, Note_on_c, 6, 71, 101
1, 64440, Note_on_c, 6, 59, 101
1, 64440, Note_on_c, 6, 55, 101
1, 64440, Note_on_c, 6, 67, 101
1, 64440, Note_on_c, 9, 40, 103
1, 64440, Control_c, 13, 7, 92
1, 64500, Control_c, 13, 7, 91
1, 64560, Note_on_c, 9, 40, 0
1, 64560, Control_c, 13, 7, 90
1, 64620, Control_c, 13, 7, 88
1, 64680, Note_on_c, 4, 67, 0
1, 64680, Note_on_c, 4, 71, 0
1, 64680, Note_on_c, 4, 79, 0
1, 64680, Note_on_c, 4, 83, 0
1, 64680, Note_on_c, 6, 67, 0
1, 64680, Note_on_c, 6, 59, 0
1, 64680, Note_on_c, 6, 71, 0
1, 64680, Note_on_c, 6, 55, 0
1, 64680, Control_c, 13, 7, 86
1, 64740, Control_c, 13, 7, 83
1, 64800, Note_on_c, 4, 83, 101
1, 64800, Note_on_c, 4, 79, 101
1, 64800, Note_on_c, 4, 71, 101
1, 64800, Note_on_c, 4, 67, 101
1, 64800, Note_on_c, 6, 71, 101
1, 64800, Note_on_c, 6, 55, 101
1, 64800, Note_on_c, 6, 59, 101
1, 64800, Note_on_c, 6, 67, 101
1, 64800, Note_on_c, 9, 40, 103
1, 64800, Note_on_c, 9, 35, 103
1, 64800, Note_on_c, 9, 39, 127
1, 64800, Control_c, 13, 7, 82
1, 64815, Pitch_bend_c, 4, 8049
1, 64815, Pitch_bend_c, 6, 8049
1, 64830, Pitch_bend_c, 4, 7756
1, 64830, Pitch_bend_c, 6, 7756
1, 64845, Pitch_bend_c, 4, 7612
1, 64845, Pitch_bend_c, 6, 7612
1, 64860, Pitch_bend_c, 4, 7175
1, 64860, Pitch_bend_c, 6, 7175
1, 64860, Control_c, 13, 7, 80
1, 64880, Pitch_bend_c, 4, 6841
1, 64880, Pitch_bend_c, 6, 6841
1, 64895, Pitch_bend_c, 4, 6418
1, 64895, Pitch_bend_c, 6, 6418
1, 64910, Pitch_bend_c, 4, 5803
1, 64910, Pitch_bend_c, 6, 5803
1, 64920, Note_on_c, 9, 39, 0
1, 64920, Note_on_c, 9, 35, 0
1, 64920, Note_on_c, 9, 40, 0
1, 64920, Control_c, 13, 7, 77
1, 64925, Pitch_bend_c, 4, 5380
1, 64925, Pitch_bend_c, 6, 5380
1, 64940, Pitch_bend_c, 4, 4820
1, 64940, Pitch_bend_c, 6, 4820
1, 64960, Pitch_bend_c, 4, 4219
1, 64960, Pitch_bend_c, 6, 4219
1, 64975, Pitch_bend_c, 4, 3810
1, 64975, Pitch_bend_c, 6, 3810
1, 64980, Control_c, 13, 7, 76
1, 64990, Pitch_bend_c, 4, 3223
1, 64990, Pitch_bend_c, 6, 3223
1, 65005, Pitch_bend_c, 4, 2820
1, 65005, Pitch_bend_c, 6, 2820
1, 65020, Pitch_bend_c, 4, 2369
1, 65020, Pitch_bend_c, 6, 2369
1, 65040, Pitch_bend_c, 4, 1837
1, 65040, Pitch_bend_c, 6, 1837
1, 65040, Control_c, 13, 7, 74
1, 65055, Pitch_bend_c, 4, 1577
1, 65055, Pitch_bend_c, 6, 1577
1, 65070, Pitch_bend_c, 4, 1134
1, 65070, Pitch_bend_c, 6, 1134
1, 65085, Pitch_bend_c, 4, 874
1, 65085, Pitch_bend_c, 6, 874
1, 65100, Pitch_bend_c, 4, 615
1, 65100, Pitch_bend_c, 6, 615
1, 65100, Control_c, 13, 7, 71
1, 65120, Pitch_bend_c, 4, 355
1, 65120, Pitch_bend_c, 6, 355
1, 65135, Pitch_bend_c, 4, 55
1, 65135, Pitch_bend_c, 6, 55
1, 65150, Pitch_bend_c, 4, 0
1, 65150, Pitch_bend_c, 6, 0
1, 65160, Control_c, 13, 7, 69
1, 65165, Pitch_bend_c, 4, 0
1, 65165, Pitch_bend_c, 6, 0
1, 65180, Pitch_bend_c, 4, 0
1, 65180, Pitch_bend_c, 6, 0
1, 65200, Pitch_bend_c, 4, 0
1, 65200, Pitch_bend_c, 6, 0
1, 65215, Pitch_bend_c, 4, 0
1, 65215, Pitch_bend_c, 6, 0
1, 65220, Control_c, 13, 7, 68
1, 65245, Pitch_bend_c, 4, 0
1, 65245, Pitch_bend_c, 6, 0
1, 65280, Note_on_c, 4, 71, 0
1, 65280, Note_on_c, 4, 79, 0
1, 65280, Note_on_c, 4, 83, 0
1, 65280, Note_on_c, 6, 55, 0
1, 65280, Note_on_c, 6, 71, 0
1, 65280, Note_on_c, 4, 67, 0
1, 65280, Note_on_c, 6, 59, 0
1, 65280, Note_on_c, 6, 67, 0
1, 65280, Pitch_bend_c, 4, 8192
1, 65280, Note_on_c, 4, 85, 101
1, 65280, Note_on_c, 4, 81, 101
1, 65280, Note_on_c, 4, 73, 101
1, 65280, Note_on_c, 4, 69, 101
1, 65280, Pitch_bend_c, 6, 8192
1, 65280, Note_on_c, 6, 73, 101
1, 65280, Note_on_c, 6, 57, 101
1, 65280, Note_on_c, 6, 61, 101
1, 65280, Note_on_c, 6, 69, 101
1, 65280, Pitch_bend_c, 7, 8192
1, 65280, Control_c, 7, 7, 108
1, 65280, Note_on_c, 7, 35, 127
1, 65280, Note_on_c, 9, 40, 103
1, 65280, Note_on_c, 9, 35, 103
1, 65280, Note_on_c, 9, 39, 127
1, 65280, Control_c, 13, 7, 66
1, 65340, Control_c, 13, 7, 63
1, 65400, Note_on_c, 9, 39, 0
1, 65400, Note_on_c, 9, 35, 0
1, 65400, Note_on_c, 9, 40, 0
1, 65400, Control_c, 13, 7, 60
1, 65440, Pitch_bend_c, 7, 8198
1, 65460, Control_c, 13, 7, 59
1, 65465, Pitch_bend_c, 7, 8205
1, 65490, Pitch_bend_c, 7, 8212
1, 65515, Pitch_bend_c, 7, 8219
1, 65520, Note_on_c, 4, 73, 0
1, 65520, Note_on_c, 4, 81, 0
1, 65520, Note_on_c, 4, 85, 0
1, 65520, Note_on_c, 6, 57, 0
1, 65520, Note_on_c, 6, 73, 0
1, 65520, Note_on_c, 4, 69, 0
1, 65520, Note_on_c, 6, 61, 0
1, 65520, Note_on_c, 6, 69, 0
1, 65520, Control_c, 13, 7, 57
1, 65535, Pitch_bend_c, 7, 8226
1, 65560, Pitch_bend_c, 7, 8232
1, 65580, Control_c, 13, 7, 55
1, 65585, Pitch_bend_c, 7, 8239
1, 65610, Pitch_bend_c, 7, 8246
1, 65630, Pitch_bend_c, 7, 8253
1, 65640, Note_on_c, 4, 85, 101
1, 65640, Note_on_c, 4, 81, 101
1, 65640, Note_on_c, 4, 73, 101
1, 65640, Note_on_c, 4, 69, 101
1, 65640, Note_on_c, 6, 73, 101
1, 65640, Note_on_c, 6, 57, 101
1, 65640, Note_on_c, 6, 61, 101
1, 65640, Note_on_c, 6, 69, 101
1, 65640, Note_on_c, 9, 40, 103
1, 65640, Control_c, 13, 7, 52
1, 65655, Pitch_bend_c, 7, 8260
1, 65680, Pitch_bend_c, 7, 8267
1, 65700, Control_c, 13, 7, 50
1, 65705, Pitch_bend_c, 7, 8273
1, 65730, Pitch_bend_c, 7, 8280
1, 65750, Pitch_bend_c, 7, 8287
1, 65760, Note_on_c, 9, 40, 0
1, 65760, Note_on_c, 9, 35, 103
1, 65760, Note_on_c, 9, 39, 127
1, 65760, Control_c, 13, 7, 48
1, 65775, Pitch_bend_c, 7, 8294
1, 65800, Pitch_bend_c, 7, 8301
1, 65820, Control_c, 13, 7, 47
1, 65825, Pitch_bend_c, 7, 8308
1, 65845, Pitch_bend_c, 7, 8314
1, 65870, Pitch_bend_c, 7, 8321
1, 65880, Note_on_c, 9, 39, 0
1, 65880, Note_on_c, 4, 85, 0
1, 65880, Note_on_c, 6, 57, 0
1, 65880, Note_on_c, 9, 35, 0
1, 65880, Note_on_c, 6, 73, 0
1, 65880, Note_on_c, 4, 69, 0
1, 65880, Note_on_c, 4, 73, 0
1, 65880, Note_on_c, 4, 81, 0
1, 65880, Note_on_c, 6, 61, 0
1, 65880, Note_on_c, 6, 69, 0
1, 65880, Control_c, 13, 7, 45
1, 65895, Pitch_bend_c, 7, 8328
1, 65920, Pitch_bend_c, 7, 8335
1, 65940, Control_c, 13, 7, 44
1, 65945, Pitch_bend_c, 7, 8342
1, 65965, Pitch_bend_c, 7, 8349
1, 65990, Pitch_bend_c, 7, 8355
1, 66000, Note_on_c, 4, 85, 101
1, 66000, Note_on_c, 4, 81, 101
1, 66000, Note_on_c, 4, 69, 101
1, 66000, Note_on_c, 4, 73, 101
1, 66000, Note_on_c, 6, 73, 101
1, 66000, Note_on_c, 6, 61, 101
1, 66000, Note_on_c, 6, 57, 101
1, 66000, Note_on_c, 6, 69, 101
1, 66000, Note_on_c, 9, 40, 103
1, 66000, Control_c, 13, 7, 42
1, 66015, Pitch_bend_c, 7, 8362
1, 66040, Pitch_bend_c, 7, 8369
1, 66060, Pitch_bend_c, 7, 8376
1, 66060, Control_c, 13, 7, 41
1, 66085, Pitch_bend_c, 7, 8383
1, 66110, Pitch_bend_c, 7, 8389
1, 66120, Note_on_c, 9, 40, 0
1, 66120, Control_c, 13, 7, 38
1, 66135, Pitch_bend_c, 7, 8396
1, 66160, Pitch_bend_c, 7, 8403
1, 66180, Pitch_bend_c, 7, 8410
1, 66180, Control_c, 13, 7, 36
1, 66205, Pitch_bend_c, 7, 8417
1, 66230, Pitch_bend_c, 7, 8424
1, 66240, Note_on_c, 4, 81, 0
1, 66240, Note_on_c, 4, 85, 0
1, 66240, Note_on_c, 4, 69, 0
1, 66240, Note_on_c, 6, 69, 0
1, 66240, Note_on_c, 6, 73, 0
1, 66240, Note_on_c, 4, 73, 0
1, 66240, Note_on_c, 6, 57, 0
1, 66240, Note_on_c, 6, 61, 0
1, 66240, Note_on_c, 9, 35, 103
1, 66240, Note_on_c, 9, 39, 127
1, 66240, Control_c, 13, 7, 34
1, 66255, Pitch_bend_c, 7, 8430
1, 66275, Pitch_bend_c, 7, 8437
1, 66300, Pitch_bend_c, 7, 8444
1, 66300, Control_c, 13, 7, 33
1, 66325, Pitch_bend_c, 7, 8451
1, 66350, Pitch_bend_c, 7, 8458
1, 66360, Note_on_c, 9, 39, 0
1, 66360, Note_on_c, 9, 35, 0
1, 66360, Note_on_c, 4, 85, 101
1, 66360, Note_on_c, 4, 81, 101
1, 66360, Note_on_c, 4, 69, 101
1, 66360, Note_on_c, 4, 73, 101
1, 66360, Note_on_c, 6, 73, 101
1, 66360, Note_on_c, 6, 61, 101
1, 66360, Note_on_c, 6, 57, 101
1, 66360, Note_on_c, 6, 69, 101
1, 66360, Note_on_c, 9, 40, 103
1, 66360, Control_c, 13, 7, 31
1, 66375, Pitch_bend_c, 7, 8465
1, 66395, Pitch_bend_c, 7, 8471
1, 66420, Pitch_bend_c, 7, 8478
1, 66420, Control_c, 13, 7, 29
1, 66445, Pitch_bend_c, 7, 8485
1, 66470, Pitch_bend_c, 7, 8492
1, 66480, Note_on_c, 9, 40, 0
1, 66480, Control_c, 13, 7, 29
1, 66490, Pitch_bend_c, 7, 8499
1, 66515, Pitch_bend_c, 7, 8506
1, 66540, Pitch_bend_c, 7, 8512
1, 66540, Control_c, 13, 7, 26
1, 66565, Pitch_bend_c, 7, 8519
1, 66590, Pitch_bend_c, 7, 8526
1, 66600, Note_on_c, 4, 81, 0
1, 66600, Note_on_c, 4, 85, 0
1, 66600, Note_on_c, 4, 69, 0
1, 66600, Note_on_c, 6, 69, 0
1, 66600, Note_on_c, 6, 73, 0
1, 66600, Note_on_c, 4, 73, 0
1, 66600, Note_on_c, 6, 57, 0
1, 66600, Note_on_c, 6, 61, 0
1, 66600, Control_c, 13, 7, 24
1, 66610, Pitch_bend_c, 7, 8533
1, 66635, Pitch_bend_c, 7, 8540
1, 66660, Pitch_bend_c, 7, 8546
1, 66660, Control_c, 13, 7, 21
1, 66685, Pitch_bend_c, 7, 8553
1, 66705, Pitch_bend_c, 7, 8560
1, 66720, Note_on_c, 4, 85, 101
1, 66720, Note_on_c, 4, 81, 101
1, 66720, Note_on_c, 4, 69, 101
1, 66720, Note_on_c, 4, 73, 101
1, 66720, Note_on_c, 6, 73, 101
1, 66720, Note_on_c, 6, 61, 101
1, 66720, Note_on_c, 6, 57, 101
1, 66720, Note_on_c, 6, 69, 101
1, 66720, Note_on_c, 9, 40, 103
1, 66720, Note_on_c, 9, 35, 103
1, 66720, Note_on_c, 9, 39, 127
1, 66720, Control_c, 13, 7, 19
1, 66730, Pitch_bend_c, 7, 8567
1, 66755, Pitch_bend_c, 7, 8574
1, 66780, Pitch_bend_c, 7, 8581
1, 66780, Control_c, 13, 7, 17
1, 66805, Pitch_bend_c, 7, 8587
1, 66825, Pitch_bend_c, 7, 8594
1, 66840, Note_on_c, 9, 39, 0
1, 66840, Note_on_c, 9, 35, 0
1, 66840, Note_on_c, 9, 40, 0
1, 66840, Control_c, 13, 7, 15
1, 66850, Pitch_bend_c, 7, 8601
1, 66875, Pitch_bend_c, 7, 8608
1, 66900, Note_on_c, 4, 81, 0
1, 66900, Note_on_c, 4, 85, 0
1, 66900, Note_on_c, 6, 73, 0
1, 66900, Note_on_c, 4, 73, 0
1, 66900, Note_on_c, 4, 69, 0
1, 66900, Note_on_c, 6, 57, 0
1, 66900, Note_on_c, 6, 61, 0
1, 66900, Note_on_c, 6, 69, 0
1, 66900, Pitch_bend_c, 7, 8615
1, 66900, Control_c, 13, 7, 13
1, 66920, Pitch_bend_c, 7, 8622
1, 66945, Pitch_bend_c, 7, 8628
1, 66960, Note_on_c, 4, 85, 101
1, 66960, Note_on_c, 4, 69, 101
1, 66960, Note_on_c, 4, 73, 101
1, 66960, Note_on_c, 4, 81, 101
1, 66960, Note_on_c, 6, 73, 101
1, 66960, Note_on_c, 6, 69, 101
1, 66960, Note_on_c, 6, 61, 101
1, 66960, Note_on_c, 6, 57, 101
1, 66960, Note_on_c, 9, 40, 103
1, 66960, Control_c, 13, 7, 11
1, 66970, Pitch_bend_c, 7, 8635
1, 66995, Pitch_bend_c, 7, 8642
1, 67020, Pitch_bend_c, 7, 8649
1, 67020, Control_c, 13, 7, 9
1, 67040, Pitch_bend_c, 7, 8656
1, 67065, Pitch_bend_c, 7, 8663
1, 67080, Note_on_c, 9, 40, 0
1, 67080, Control_c, 13, 7, 8
1, 67090, Pitch_bend_c, 7, 8669
1, 67115, Pitch_bend_c, 7, 8676
1, 67135, Pitch_bend_c, 7, 8683
1, 67140, Note_on_c, 4, 69, 0
1, 67140, Note_on_c, 4, 85, 0
1, 67140, Note_on_c, 4, 73, 0
1, 67140, Note_on_c, 6, 57, 0
1, 67140, Note_on_c, 6, 73, 0
1, 67140, Note_on_c, 4, 81, 0
1, 67140, Note_on_c, 6, 61, 0
1, 67140, Note_on_c, 6, 69, 0
1, 67140, Control_c, 13, 7, 6
1, 67160, Pitch_bend_c, 7, 8690
1, 67185, Pitch_bend_c, 7, 8697
1, 67200, Note_on_c, 13, 65, 0
1, 67200, Note_on_c, 9, 52, 0
1, 67200, Note_on_c, 13, 64, 0
1, 67200, Note_on_c, 13, 62, 0
1, 67200, Note_on_c, 13, 73, 0
1, 67200, Note_on_c, 13, 72, 0
1, 67200, Note_on_c, 13, 67, 0
1, 67200, Note_on_c, 13, 66, 0
1, 67200, Note_on_c, 13, 75, 0
1, 67200, Note_on_c, 9, 49, 0
1, 67200, Note_on_c, 13, 63, 0
1, 67200, Note_on_c, 9, 57, 0
1, 67200, Note_on_c, 13, 70, 0
1, 67200, Note_on_c, 13, 74, 0
1, 67200, Note_on_c, 13, 68, 0
1, 67200, Note_on_c, 13, 61, 0
1, 67200, Note_on_c, 13, 60, 0
1, 67200, Note_on_c, 13, 71, 0
1, 67200, Note_on_c, 13, 69, 0
1, 67200, Pitch_bend_c, 4, 8192
1, 67200, Note_on_c, 4, 85, 101
1, 67200, Note_on_c, 4, 73, 101
1, 67200, Note_on_c, 4, 66, 101
1, 67200, Note_on_c, 4, 78, 101
1, 67200, Control_c, 6, 7, 127
1, 67200, Pitch_bend_c, 6, 8192
1, 67200, Note_on_c, 6, 73, 101
1, 67200, Note_on_c, 6, 66, 101
1, 67200, Note_on_c, 6, 54, 101
1, 67200, Note_on_c, 6, 61, 101
1, 67200, Note_on_c, 7, 47, 65
1, 67200, Note_on_c, 9, 40, 103
1, 67200, Note_on_c, 9, 35, 103
1, 67200, Note_on_c, 9, 39, 127
1, 67200, Control_c, 13, 7, 0
1, 67210, Pitch_bend_c, 7, 8704
1, 67235, Pitch_bend_c, 7, 8710
1, 67255, Pitch_bend_c, 7, 8717
1, 67260, Pitch_bend_c, 13, 8192
1, 67260, Control_c, 13, 7, 109
1, 67260, Note_on_c, 13, 49, 63
1, 67260, Note_on_c, 13, 51, 63
1, 67260, Note_on_c, 13, 50, 63
1, 67260, Note_on_c, 13, 52, 63
1, 67260, Note_on_c, 13, 53, 63
1, 67260, Note_on_c, 13, 54, 63
1, 67260, Note_on_c, 13, 55, 63
1, 67260, Note_on_c, 13, 56, 63
1, 67260, Note_on_c, 13, 57, 63
1, 67260, Note_on_c, 13, 58, 63
1, 67260, Note_on_c, 13, 59, 63
1, 67260, Note_on_c, 13, 48, 63
1, 67260, Note_on_c, 13, 60, 63
1, 67260, Note_on_c, 13, 61, 63
1, 67260, Note_on_c, 13, 62, 63
1, 67260, Note_on_c, 13, 63, 63
1, 67280, Pitch_bend_c, 7, 8724
1, 67305, Pitch_bend_c, 7, 8731
1, 67320, Note_on_c, 9, 39, 0
1, 67320, Note_on_c, 9, 35, 0
1, 67320, Note_on_c, 9, 40, 0
1, 67330, Pitch_bend_c, 7, 8738
1, 67350, Pitch_bend_c, 7, 8744
1, 67375, Pitch_bend_c, 7, 8751
1, 67400, Pitch_bend_c, 7, 8758
1, 67420, Pitch_bend_c, 13, 8198
1, 67425, Pitch_bend_c, 7, 8765
1, 67440, Note_on_c, 6, 61, 0
1, 67440, Note_on_c, 6, 66, 0
1, 67440, Note_on_c, 4, 66, 0
1, 67440, Note_on_c, 6, 54, 0
1, 67440, Note_on_c, 4, 73, 0
1, 67440, Note_on_c, 4, 85, 0
1, 67440, Note_on_c, 6, 73, 0
1, 67440, Note_on_c, 4, 78, 0
1, 67445, Pitch_bend_c, 13, 8205
1, 67450, Pitch_bend_c, 7, 8772
1, 67470, Pitch_bend_c, 7, 8779
1, 67470, Pitch_bend_c, 13, 8212
1, 67495, Pitch_bend_c, 7, 8785
1, 67495, Pitch_bend_c, 13, 8219
1, 67515, Pitch_bend_c, 13, 8226
1, 67520, Pitch_bend_c, 7, 8792
1, 67540, Pitch_bend_c, 13, 8232
1, 67545, Pitch_bend_c, 7, 8799
1, 67560, Note_on_c, 4, 85, 101
1, 67560, Note_on_c, 4, 66, 101
1, 67560, Note_on_c, 4, 73, 101
1, 67560, Note_on_c, 4, 78, 101
1, 67560, Note_on_c, 6, 73, 101
1, 67560, Note_on_c, 6, 66, 101
1, 67560, Note_on_c, 6, 61, 101
1, 67560, Note_on_c, 6, 54, 101
1, 67560, Note_on_c, 9, 40, 103
1, 67565, Pitch_bend_c, 7, 8806
1, 67565, Pitch_bend_c, 13, 8239
1, 67590, Pitch_bend_c, 7, 8813
1, 67590, Pitch_bend_c, 13, 8246
1, 67610, Pitch_bend_c, 13, 8253
1, 67615, Pitch_bend_c, 7, 8820
1, 67635, Pitch_bend_c, 13, 8260
1, 67640, Pitch_bend_c, 7, 8826
1, 67660, Pitch_bend_c, 13, 8267
1, 67665, Pitch_bend_c, 7, 8833
1, 67680, Note_on_c, 9, 40, 0
1, 67680, Note_on_c, 9, 35, 103
1, 67680, Note_on_c, 9, 39, 127
1, 67685, Pitch_bend_c, 7, 8840
1, 67685, Pitch_bend_c, 13, 8273
1, 67710, Pitch_bend_c, 7, 8847
1, 67710, Pitch_bend_c, 13, 8280
1, 67730, Pitch_bend_c, 13, 8287
1, 67735, Pitch_bend_c, 7, 8854
1, 67755, Pitch_bend_c, 13, 8294
1, 67760, Pitch_bend_c, 7, 8861
1, 67780, Pitch_bend_c, 7, 8867
1, 67780, Pitch_bend_c, 13, 8301
1, 67800, Note_on_c, 9, 39, 0
1, 67800, Note_on_c, 4, 78, 0
1, 67800, Note_on_c, 6, 66, 0
1, 67800, Note_on_c, 4, 73, 0
1, 67800, Note_on_c, 4, 66, 0
1, 67800, Note_on_c, 4, 85, 0
1, 67800, Note_on_c, 9, 35, 0
1, 67800, Note_on_c, 6, 54, 0
1, 67800, Note_on_c, 6, 61, 0
1, 67800, Note_on_c, 6, 73, 0
1, 67805, Pitch_bend_c, 7, 8874
1, 67805, Pitch_bend_c, 13, 8308
1, 67825, Pitch_bend_c, 13, 8314
1, 67830, Pitch_bend_c, 7, 8881
1, 67850, Pitch_bend_c, 13, 8321
1, 67855, Pitch_bend_c, 7, 8888
1, 67875, Pitch_bend_c, 13, 8328
1, 67880, Pitch_bend_c, 7, 8895
1, 67900, Pitch_bend_c, 7, 8901
1, 67900, Pitch_bend_c, 13, 8335
1, 67920, Note_on_c, 4, 85, 101
1, 67920, Note_on_c, 4, 66, 101
1, 67920, Note_on_c, 4, 73, 101
1, 67920, Note_on_c, 4, 78, 101
1, 67920, Note_on_c, 6, 73, 101
1, 67920, Note_on_c, 6, 66, 101
1, 67920, Note_on_c, 6, 61, 101
1, 67920, Note_on_c, 6, 54, 101
1, 67920, Note_on_c, 9, 40, 103
1, 67925, Pitch_bend_c, 7, 8908
1, 67925, Pitch_bend_c, 13, 8342
1, 67945, Pitch_bend_c, 13, 8349
1, 67950, Pitch_bend_c, 7, 8915
1, 67970, Pitch_bend_c, 13, 8355
1, 67975, Pitch_bend_c, 7, 8922
1, 67995, Pitch_bend_c, 7, 8929
1, 67995, Pitch_bend_c, 13, 8362
1, 68020, Pitch_bend_c, 7, 8936
1, 68020, Pitch_bend_c, 13, 8369
1, 68040, Note_on_c, 9, 40, 0
1, 68040, Pitch_bend_c, 13, 8376
1, 68045, Pitch_bend_c, 7, 8942
1, 68065, Pitch_bend_c, 13, 8383
1, 68070, Pitch_bend_c, 7, 8949
1, 68090, Pitch_bend_c, 13, 8389
1, 68095, Pitch_bend_c, 7, 8956
1, 68115, Pitch_bend_c, 7, 8963
1, 68115, Pitch_bend_c, 13, 8396
1, 68140, Pitch_bend_c, 7, 8970
1, 68140, Pitch_bend_c, 13, 8403
1, 68160, Note_on_c, 6, 73, 0
1, 68160, Note_on_c, 4, 78, 0
1, 68160, Note_on_c, 4, 73, 0
1, 68160, Note_on_c, 4, 66, 0
1, 68160, Note_on_c, 4, 85, 0
1, 68160, Note_on_c, 6, 54, 0
1, 68160, Note_on_c, 6, 61, 0
1, 68160, Note_on_c, 6, 66, 0
1, 68160, Note_on_c, 9, 35, 103
1, 68160, Note_on_c, 9, 39, 127
1, 68160, Pitch_bend_c, 13, 8410
1, 68165, Pitch_bend_c, 7, 8977
1, 68185, Pitch_bend_c, 13, 8417
1, 68190, Pitch_bend_c, 7, 8983
1, 68210, Pitch_bend_c, 7, 8990
1, 68210, Pitch_bend_c, 13, 8424
1, 68235, Pitch_bend_c, 7, 8997
1, 68235, Pitch_bend_c, 13, 8430
1, 68255, Pitch_bend_c, 13, 8437
1, 68260, Pitch_bend_c, 7, 9004
1, 68280, Note_on_c, 9, 39, 0
1, 68280, Note_on_c, 9, 35, 0
1, 68280, Note_on_c, 4, 85, 101
1, 68280, Note_on_c, 4, 73, 101
1, 68280, Note_on_c, 4, 66, 101
1, 68280, Note_on_c, 4, 78, 101
1, 68280, Note_on_c, 6, 73, 101
1, 68280, Note_on_c, 6, 66, 101
1, 68280, Note_on_c, 6, 54, 101
1, 68280, Note_on_c, 6, 61, 101
1, 68280, Note_on_c, 9, 40, 103
1, 68280, Pitch_bend_c, 13, 8444
1, 68285, Pitch_bend_c, 7, 9011
1, 68305, Pitch_bend_c, 13, 8451
1, 68310, Pitch_bend_c, 7, 9018
1, 68330, Pitch_bend_c, 7, 9024
1, 68330, Pitch_bend_c, 13, 8458
1, 68355, Pitch_bend_c, 7, 9031
1, 68355, Pitch_bend_c, 13, 8465
1, 68375, Pitch_bend_c, 13, 8471
1, 68380, Pitch_bend_c, 7, 9038
1, 68400, Note_on_c, 9, 40, 0
1, 68400, Pitch_bend_c, 13, 8478
1, 68405, Pitch_bend_c, 7, 9045
1, 68425, Pitch_bend_c, 7, 9052
1, 68425, Pitch_bend_c, 13, 8485
1, 68450, Pitch_bend_c, 7, 9058
1, 68450, Pitch_bend_c, 13, 8492
1, 68470, Pitch_bend_c, 13, 8499
1, 68475, Pitch_bend_c, 7, 9065
1, 68495, Pitch_bend_c, 13, 8506
1, 68500, Pitch_bend_c, 7, 9072
1, 68520, Note_on_c, 6, 73, 0
1, 68520, Note_on_c, 4, 78, 0
1, 68520, Note_on_c, 4, 66, 0
1, 68520, Note_on_c, 4, 73, 0
1, 68520, Note_on_c, 4, 85, 0
1, 68520, Note_on_c, 6, 61, 0
1, 68520, Note_on_c, 6, 54, 0
1, 68520, Note_on_c, 6, 66, 0
1, 68520, Pitch_bend_c, 13, 8512
1, 68525, Pitch_bend_c, 7, 9079
1, 68545, Pitch_bend_c, 7, 9086
1, 68545, Pitch_bend_c, 13, 8519
1, 68570, Pitch_bend_c, 7, 9093
1, 68570, Pitch_bend_c, 13, 8526
1, 68590, Pitch_bend_c, 13, 8533
1, 68595, Pitch_bend_c, 7, 9099
1, 68615, Pitch_bend_c, 13, 8540
1, 68620, Pitch_bend_c, 7, 9106
1, 68640, Note_on_c, 4, 85, 101
1, 68640, Note_on_c, 4, 73, 101
1, 68640, Note_on_c, 4, 66, 101
1, 68640, Note_on_c, 4, 78, 101
1, 68640, Note_on_c, 6, 73, 101
1, 68640, Note_on_c, 6, 66, 101
1, 68640, Note_on_c, 6, 54, 101
1, 68640, Note_on_c, 6, 61, 101
1, 68640, Pitch_bend_c, 7, 9113
1, 68640, Note_on_c, 9, 40, 103
1, 68640, Note_on_c, 9, 35, 103
1, 68640, Note_on_c, 9, 39, 127
1, 68640, Pitch_bend_c, 13, 8546
1, 68665, Pitch_bend_c, 7, 9120
1, 68665, Pitch_bend_c, 13, 8553
1, 68685, Pitch_bend_c, 13, 8560
1, 68690, Pitch_bend_c, 7, 9127
1, 68710, Pitch_bend_c, 13, 8567
1, 68715, Pitch_bend_c, 7, 9134
1, 68735, Pitch_bend_c, 13, 8574
1, 68740, Pitch_bend_c, 7, 9140
1, 68760, Note_on_c, 9, 39, 0
1, 68760, Note_on_c, 9, 35, 0
1, 68760, Note_on_c, 9, 40, 0
1, 68760, Pitch_bend_c, 7, 9147
1, 68760, Pitch_bend_c, 13, 8581
1, 68785, Pitch_bend_c, 7, 9154
1, 68785, Pitch_bend_c, 13, 8587
1, 68805, Pitch_bend_c, 13, 8594
1, 68810, Pitch_bend_c, 7, 9161
1, 68830, Pitch_bend_c, 13, 8601
1, 68835, Pitch_bend_c, 7, 9168
1, 68855, Pitch_bend_c, 7, 9175
1, 68855, Pitch_bend_c, 13, 8608
1, 68880, Pitch_bend_c, 7, 9181
1, 68880, Note_on_c, 9, 40, 103
1, 68880, Pitch_bend_c, 13, 8615
1, 68900, Pitch_bend_c, 13, 8622
1, 68905, Pitch_bend_c, 7, 9188
1, 68925, Pitch_bend_c, 13, 8628
1, 68930, Pitch_bend_c, 7, 9195
1, 68950, Pitch_bend_c, 13, 8635
1, 68955, Pitch_bend_c, 7, 9202
1, 68975, Pitch_bend_c, 7, 9209
1, 68975, Pitch_bend_c, 13, 8642
1, 69000, Note_on_c, 9, 40, 0
1, 69000, Pitch_bend_c, 7, 9216
1, 69000, Pitch_bend_c, 13, 8649
1, 69020, Pitch_bend_c, 13, 8656
1, 69025, Pitch_bend_c, 7, 9222
1, 69045, Pitch_bend_c, 13, 8663
1, 69050, Pitch_bend_c, 7, 9229
1, 69060, Note_on_c, 6, 73, 0
1, 69060, Note_on_c, 4, 66, 0
1, 69060, Note_on_c, 4, 73, 0
1, 69060, Note_on_c, 4, 85, 0
1, 69060, Note_on_c, 4, 78, 0
1, 69060, Note_on_c, 6, 54, 0
1, 69060, Note_on_c, 6, 66, 0
1, 69060, Note_on_c, 6, 61, 0
1, 69070, Pitch_bend_c, 7, 9236
1, 69070, Pitch_bend_c, 13, 8669
1, 69095, Pitch_bend_c, 7, 9243
1, 69095, Pitch_bend_c, 13, 8676
1, 69115, Pitch_bend_c, 13, 8683
1, 69120, Note_on_c, 4, 85, 101
1, 69120, Note_on_c, 4, 73, 101
1, 69120, Note_on_c, 4, 66, 101
1, 69120, Note_on_c, 4, 78, 101
1, 69120, Note_on_c, 6, 73, 101
1, 69120, Note_on_c, 6, 66, 101
1, 69120, Note_on_c, 6, 54, 101
1, 69120, Note_on_c, 6, 61, 101
1, 69120, Pitch_bend_c, 7, 9250
1, 69120, Note_on_c, 9, 40, 103
1, 69120, Note_on_c, 9, 35, 103
1, 69120, Note_on_c, 9, 39, 127
1, 69140, Pitch_bend_c, 13, 8690
1, 69145, Pitch_bend_c, 7, 9256
1, 69165, Pitch_bend_c, 13, 8697
1, 69170, Pitch_bend_c, 7, 9263
1, 69190, Pitch_bend_c, 7, 9270
1, 69190, Pitch_bend_c, 13, 8704
1, 69215, Pitch_bend_c, 7, 9277
1, 69215, Pitch_bend_c, 13, 8710
1, 69235, Pitch_bend_c, 13, 8717
1, 69240, Note_on_c, 9, 39, 0
1, 69240, Note_on_c, 9, 35, 0
1, 69240, Note_on_c, 9, 40, 0
1, 69240, Pitch_bend_c, 7, 9284
1, 69260, Pitch_bend_c, 13, 8724
1, 69265, Pitch_bend_c, 7, 9291
1, 69285, Pitch_bend_c, 7, 9297
1, 69285, Pitch_bend_c, 13, 8731
1, 69310, Pitch_bend_c, 7, 9304
1, 69310, Pitch_bend_c, 13, 8738
1, 69330, Pitch_bend_c, 13, 8744
1, 69335, Pitch_bend_c, 7, 9311
1, 69355, Pitch_bend_c, 13, 8751
1, 69360, Note_on_c, 4, 78, 0
1, 69360, Note_on_c, 4, 66, 0
1, 69360, Note_on_c, 4, 73, 0
1, 69360, Note_on_c, 4, 85, 0
1, 69360, Note_on_c, 6, 54, 0
1, 69360, Note_on_c, 6, 66, 0
1, 69360, Note_on_c, 6, 73, 0
1, 69360, Note_on_c, 6, 61, 0
1, 69360, Pitch_bend_c, 7, 9318
1, 69380, Pitch_bend_c, 13, 8758
1, 69385, Pitch_bend_c, 7, 9325
1, 69405, Pitch_bend_c, 7, 9332
1, 69405, Pitch_bend_c, 13, 8765
1, 69430, Pitch_bend_c, 7, 9338
1, 69430, Pitch_bend_c, 13, 8772
1, 69450, Pitch_bend_c, 13, 8779
1, 69455, Pitch_bend_c, 7, 9345
1, 69475, Pitch_bend_c, 13, 8785
1, 69480, Note_on_c, 4, 85, 101
1, 69480, Note_on_c, 4, 66, 101
1, 69480, Note_on_c, 4, 73, 101
1, 69480, Note_on_c, 4, 78, 101
1, 69480, Note_on_c, 6, 73, 101
1, 69480, Note_on_c, 6, 66, 101
1, 69480, Note_on_c, 6, 61, 101
1, 69480, Note_on_c, 6, 54, 101
1, 69480, Pitch_bend_c, 7, 9352
1, 69480, Note_on_c, 9, 40, 103
1, 69500, Pitch_bend_c, 7, 9359
1, 69500, Pitch_bend_c, 13, 8792
1, 69525, Pitch_bend_c, 7, 9366
1, 69525, Pitch_bend_c, 13, 8799
1, 69545, Pitch_bend_c, 13, 8806
1, 69550, Pitch_bend_c, 7, 9373
1, 69570, Pitch_bend_c, 13, 8813
1, 69575, Pitch_bend_c, 7, 9379
1, 69595, Pitch_bend_c, 13, 8820
1, 69600, Note_on_c, 9, 40, 0
1, 69600, Pitch_bend_c, 7, 9386
1, 69600, Note_on_c, 9, 35, 103
1, 69600, Note_on_c, 9, 39, 127
1, 69620, Pitch_bend_c, 7, 9393
1, 69620, Pitch_bend_c, 13, 8826
1, 69645, Pitch_bend_c, 7, 9400
1, 69645, Pitch_bend_c, 13, 8833
1, 69665, Pitch_bend_c, 13, 8840
1, 69670, Pitch_bend_c, 7, 9407
1, 69690, Pitch_bend_c, 13, 8847
1, 69695, Pitch_bend_c, 7, 9413
1, 69715, Pitch_bend_c, 7, 9420
1, 69715, Pitch_bend_c, 13, 8854
1, 69720, Note_on_c, 9, 39, 0
1, 69720, Note_on_c, 4, 78, 0
1, 69720, Note_on_c, 6, 66, 0
1, 69720, Note_on_c, 4, 73, 0
1, 69720, Note_on_c, 4, 66, 0
1, 69720, Note_on_c, 4, 85, 0
1, 69720, Note_on_c, 9, 35, 0
1, 69720, Note_on_c, 6, 54, 0
1, 69720, Note_on_c, 6, 61, 0
1, 69720, Note_on_c, 6, 73, 0
1, 69740, Pitch_bend_c, 7, 9427
1, 69740, Pitch_bend_c, 13, 8861
1, 69760, Pitch_bend_c, 13, 8867
1, 69765, Pitch_bend_c, 7, 9434
1, 69785, Pitch_bend_c, 13, 8874
1, 69790, Pitch_bend_c, 7, 9441
1, 69810, Pitch_bend_c, 13, 8881
1, 69815, Pitch_bend_c, 7, 9448
1, 69835, Pitch_bend_c, 7, 9454
1, 69835, Pitch_bend_c, 13, 8888
1, 69840, Note_on_c, 4, 85, 101
1, 69840, Note_on_c, 4, 66, 101
1, 69840, Note_on_c, 4, 73, 101
1, 69840, Note_on_c, 4, 78, 101
1, 69840, Note_on_c, 6, 73, 101
1, 69840, Note_on_c, 6, 66, 101
1, 69840, Note_on_c, 6, 61, 101
1, 69840, Note_on_c, 6, 54, 101
1, 69840, Note_on_c, 9, 40, 103
1, 69860, Pitch_bend_c, 7, 9461
1, 69860, Pitch_bend_c, 13, 8895
1, 69880, Pitch_bend_c, 13, 8901
1, 69885, Pitch_bend_c, 7, 9468
1, 69905, Pitch_bend_c, 13, 8908
1, 69910, Pitch_bend_c, 7, 9475
1, 69930, Pitch_bend_c, 7, 9482
1, 69930, Pitch_bend_c, 13, 8915
1, 69955, Pitch_bend_c, 7, 9489
1, 69955, Pitch_bend_c, 13, 8922
1, 69960, Note_on_c, 9, 40, 0
1, 69975, Pitch_bend_c, 13, 8929
1, 69980, Pitch_bend_c, 7, 9495
1, 70000, Pitch_bend_c, 13, 8936
1, 70005, Pitch_bend_c, 7, 9502
1, 70025, Pitch_bend_c, 13, 8942
1, 70030, Pitch_bend_c, 7, 9509
1, 70050, Pitch_bend_c, 7, 9516
1, 70050, Pitch_bend_c, 13, 8949
1, 70075, Pitch_bend_c, 7, 9523
1, 70075, Pitch_bend_c, 13, 8956
1, 70080, Note_on_c, 6, 73, 0
1, 70080, Note_on_c, 4, 78, 0
1, 70080, Note_on_c, 4, 73, 0
1, 70080, Note_on_c, 4, 66, 0
1, 70080, Note_on_c, 4, 85, 0
1, 70080, Note_on_c, 6, 54, 0
1, 70080, Note_on_c, 6, 61, 0
1, 70080, Note_on_c, 6, 66, 0
1, 70080, Note_on_c, 9, 35, 103
1, 70080, Note_on_c, 9, 39, 127
1, 70095, Pitch_bend_c, 13, 8963
1, 70100, Pitch_bend_c, 7, 9530
1, 70120, Pitch_bend_c, 13, 8970
1, 70125, Pitch_bend_c, 7, 9536
1, 70145, Pitch_bend_c, 7, 9543
1, 70145, Pitch_bend_c, 13, 8977
1, 70170, Pitch_bend_c, 7, 9550
1, 70170, Pitch_bend_c, 13, 8983
1, 70190, Pitch_bend_c, 13, 8990
1, 70195, Pitch_bend_c, 7, 9557
1, 70200, Note_on_c, 9, 39, 0
1, 70200, Note_on_c, 9, 35, 0
1, 70200, Note_on_c, 4, 85, 101
1, 70200, Note_on_c, 4, 73, 101
1, 70200, Note_on_c, 4, 66, 101
1, 70200, Note_on_c, 4, 78, 101
1, 70200, Note_on_c, 6, 73, 101
1, 70200, Note_on_c, 6, 66, 101
1, 70200, Note_on_c, 6, 54, 101
1, 70200, Note_on_c, 6, 61, 101
1, 70200, Note_on_c, 9, 40, 103
1, 70215, Pitch_bend_c, 13, 8997
1, 70220, Pitch_bend_c, 7, 9564
1, 70240, Pitch_bend_c, 7, 9570
1, 70240, Pitch_bend_c, 13, 9004
1, 70265, Pitch_bend_c, 7, 9577
1, 70265, Pitch_bend_c, 13, 9011
1, 70290, Pitch_bend_c, 7, 9584
1, 70290, Pitch_bend_c, 13, 9018
1, 70310, Pitch_bend_c, 13, 9024
1, 70315, Pitch_bend_c, 7, 9591
1, 70320, Note_on_c, 9, 40, 0
1, 70335, Pitch_bend_c, 13, 9031
1, 70340, Pitch_bend_c, 7, 9598
1, 70360, Pitch_bend_c, 7, 9605
1, 70360, Pitch_bend_c, 13, 9038
1, 70385, Pitch_bend_c, 7, 9611
1, 70385, Pitch_bend_c, 13, 9045
1, 70405, Pitch_bend_c, 13, 9052
1, 70410, Pitch_bend_c, 7, 9618
1, 70430, Pitch_bend_c, 13, 9058
1, 70435, Pitch_bend_c, 7, 9625
1, 70440, Note_on_c, 6, 73, 0
1, 70440, Note_on_c, 4, 78, 0
1, 70440, Note_on_c, 4, 66, 0
1, 70440, Note_on_c, 4, 73, 0
1, 70440, Note_on_c, 4, 85, 0
1, 70440, Note_on_c, 6, 61, 0
1, 70440, Note_on_c, 6, 54, 0
1, 70440, Note_on_c, 6, 66, 0
1, 70455, Pitch_bend_c, 7, 9632
1, 70455, Pitch_bend_c, 13, 9065
1, 70480, Pitch_bend_c, 7, 9639
1, 70480, Pitch_bend_c, 13, 9072
1, 70505, Pitch_bend_c, 7, 9646
1, 70505, Pitch_bend_c, 13, 9079
1, 70525, Pitch_bend_c, 13, 9086
1, 70530, Pitch_bend_c, 7, 9652
1, 70550, Pitch_bend_c, 13, 9093
1, 70555, Pitch_bend_c, 7, 9659
1, 70560, Note_on_c, 4, 85, 101
1, 70560, Note_on_c, 4, 73, 101
1, 70560, Note_on_c, 4, 66, 101
1, 70560, Note_on_c, 4, 78, 101
1, 70560, Note_on_c, 6, 73, 101
1, 70560, Note_on_c, 6, 66, 101
1, 70560, Note_on_c, 6, 54, 101
1, 70560, Note_on_c, 6, 61, 101
1, 70560, Note_on_c, 9, 40, 103
1, 70560, Note_on_c, 9, 35, 103
1, 70560, Note_on_c, 9, 39, 127
1, 70575, Pitch_bend_c, 7, 9666
1, 70575, Pitch_bend_c, 13, 9099
1, 70600, Pitch_bend_c, 7, 9673
1, 70600, Pitch_bend_c, 13, 9106
1, 70620, Pitch_bend_c, 13, 9113
1, 70625, Pitch_bend_c, 7, 9680
1, 70645, Pitch_bend_c, 13, 9120
1, 70650, Pitch_bend_c, 7, 9687
1, 70670, Pitch_bend_c, 7, 9693
1, 70670, Pitch_bend_c, 13, 9127
1, 70680, Note_on_c, 9, 39, 0
1, 70680, Note_on_c, 9, 35, 0
1, 70680, Note_on_c, 9, 40, 0
1, 70695, Pitch_bend_c, 7, 9700
1, 70695, Pitch_bend_c, 13, 9134
1, 70720, Pitch_bend_c, 7, 9707
1, 70720, Pitch_bend_c, 13, 9140
1, 70740, Note_on_c, 4, 78, 0
1, 70740, Note_on_c, 4, 66, 0
1, 70740, Note_on_c, 4, 73, 0
1, 70740, Note_on_c, 4, 85, 0
1, 70740, Note_on_c, 6, 54, 0
1, 70740, Note_on_c, 6, 66, 0
1, 70740, Note_on_c, 6, 73, 0
1, 70740, Note_on_c, 6, 61, 0
1, 70740, Pitch_bend_c, 13, 9147
1, 70745, Pitch_bend_c, 7, 9714
1, 70765, Pitch_bend_c, 13, 9154
1, 70770, Pitch_bend_c, 7, 9721
1, 70790, Pitch_bend_c, 7, 9728
1, 70790, Pitch_bend_c, 13, 9161
1, 70800, Note_on_c, 4, 85, 101
1, 70800, Note_on_c, 4, 66, 101
1, 70800, Note_on_c, 4, 73, 101
1, 70800, Note_on_c, 4, 78, 101
1, 70800, Note_on_c, 6, 73, 101
1, 70800, Note_on_c, 6, 66, 101
1, 70800, Note_on_c, 6, 61, 101
1, 70800, Note_on_c, 6, 54, 101
1, 70800, Note_on_c, 9, 40, 103
1, 70815, Pitch_bend_c, 7, 9734
1, 70815, Pitch_bend_c, 13, 9168
1, 70835, Pitch_bend_c, 13, 9175
1, 70840, Pitch_bend_c, 7, 9741
1, 70860, Pitch_bend_c, 13, 9181
1, 70865, Pitch_bend_c, 7, 9748
1, 70885, Pitch_bend_c, 7, 9755
1, 70885, Pitch_bend_c, 13, 9188
1, 70910, Pitch_bend_c, 7, 9762
1, 70910, Pitch_bend_c, 13, 9195
1, 70920, Note_on_c, 9, 40, 0
1, 70935, Pitch_bend_c, 7, 9768
1, 70935, Pitch_bend_c, 13, 9202
1, 70955, Pitch_bend_c, 13, 9209
1, 70960, Pitch_bend_c, 7, 9775
1, 70980, Note_on_c, 6, 73, 0
1, 70980, Note_on_c, 4, 78, 0
1, 70980, Note_on_c, 4, 73, 0
1, 70980, Note_on_c, 4, 66, 0
1, 70980, Note_on_c, 4, 85, 0
1, 70980, Note_on_c, 6, 54, 0
1, 70980, Note_on_c, 6, 61, 0
1, 70980, Note_on_c, 6, 66, 0
1, 70980, Pitch_bend_c, 13, 9216
1, 70985, Pitch_bend_c, 7, 9782
1, 71005, Pitch_bend_c, 7, 9789
1, 71005, Pitch_bend_c, 13, 9222
1, 71030, Pitch_bend_c, 7, 9796
1, 71030, Pitch_bend_c, 13, 9229
1, 71040, Note_on_c, 4, 85, 101
1, 71040, Note_on_c, 4, 66, 101
1, 71040, Note_on_c, 4, 73, 101
1, 71040, Note_on_c, 4, 78, 101
1, 71040, Note_on_c, 6, 73, 101
1, 71040, Note_on_c, 6, 66, 101
1, 71040, Note_on_c, 6, 61, 101
1, 71040, Note_on_c, 6, 54, 101
1, 71040, Note_on_c, 9, 35, 103
1, 71040, Note_on_c, 9, 40, 103
1, 71040, Note_on_c, 9, 39, 127
1, 71050, Pitch_bend_c, 13, 9236
1, 71055, Pitch_bend_c, 7, 9803
1, 71075, Pitch_bend_c, 13, 9243
1, 71080, Pitch_bend_c, 7, 9809
1, 71100, Pitch_bend_c, 7, 9816
1, 71100, Pitch_bend_c, 13, 9250
1, 71125, Pitch_bend_c, 7, 9823
1, 71125, Pitch_bend_c, 13, 9256
1, 71150, Pitch_bend_c, 7, 9830
1, 71150, Pitch_bend_c, 13, 9263
1, 71160, Note_on_c, 9, 39, 0
1, 71160, Note_on_c, 9, 40, 0
1, 71160, Note_on_c, 9, 35, 0
1, 71170, Pitch_bend_c, 13, 9270
1, 71175, Pitch_bend_c, 7, 9837
1, 71195, Pitch_bend_c, 13, 9277
1, 71200, Pitch_bend_c, 7, 9844
1, 71220, Note_on_c, 4, 78, 0
1, 71220, Note_on_c, 4, 73, 0
1, 71220, Note_on_c, 4, 66, 0
1, 71220, Note_on_c, 4, 85, 0
1, 71220, Note_on_c, 6, 61, 0
1, 71220, Note_on_c, 6, 66, 0
1, 71220, Note_on_c, 6, 73, 0
1, 71220, Note_on_c, 6, 54, 0
1, 71220, Pitch_bend_c, 7, 9850
1, 71220, Pitch_bend_c, 13, 9284
1, 71245, Pitch_bend_c, 7, 9857
1, 71245, Pitch_bend_c, 13, 9291
1, 71265, Pitch_bend_c, 13, 9297
1, 71270, Pitch_bend_c, 7, 9864
1, 71280, Note_on_c, 4, 85, 101
1, 71280, Note_on_c, 4, 73, 101
1, 71280, Note_on_c, 4, 66, 101
1, 71280, Note_on_c, 4, 78, 101
1, 71280, Note_on_c, 6, 73, 101
1, 71280, Note_on_c, 6, 66, 101
1, 71280, Note_on_c, 6, 54, 101
1, 71280, Note_on_c, 6, 61, 101
1, 71280, Note_on_c, 9, 35, 103
1, 71280, Note_on_c, 9, 40, 103
1, 71290, Pitch_bend_c, 13, 9304
1, 71295, Pitch_bend_c, 7, 9871
1, 71315, Pitch_bend_c, 7, 9878
1, 71315, Pitch_bend_c, 13, 9311
1, 71340, Pitch_bend_c, 7, 9885
1, 71340, Pitch_bend_c, 13, 9318
1, 71365, Pitch_bend_c, 7, 9891
1, 71365, Pitch_bend_c, 13, 9325
1, 71385, Pitch_bend_c, 13, 9332
1, 71390, Pitch_bend_c, 7, 9898
1, 71400, Note_on_c, 9, 40, 0
1, 71400, Note_on_c, 9, 35, 0
1, 71410, Pitch_bend_c, 13, 9338
1, 71415, Pitch_bend_c, 7, 9905
1, 71435, Pitch_bend_c, 7, 9912
1, 71435, Pitch_bend_c, 13, 9345
1, 71460, Note_on_c, 4, 78, 0
1, 71460, Note_on_c, 4, 66, 0
1, 71460, Note_on_c, 4, 73, 0
1, 71460, Note_on_c, 4, 85, 0
1, 71460, Note_on_c, 6, 54, 0
1, 71460, Note_on_c, 6, 66, 0
1, 71460, Note_on_c, 6, 73, 0
1, 71460, Note_on_c, 6, 61, 0
1, 71460, Pitch_bend_c, 7, 9919
1, 71460, Pitch_bend_c, 13, 9352
1, 71480, Pitch_bend_c, 13, 9359
1, 71485, Pitch_bend_c, 7, 9925
1, 71505, Pitch_bend_c, 13, 9366
1, 71510, Pitch_bend_c, 7, 9932
1, 71520, Note_on_c, 4, 85, 101
1, 71520, Note_on_c, 4, 66, 101
1, 71520, Note_on_c, 4, 73, 101
1, 71520, Note_on_c, 4, 78, 101
1, 71520, Note_on_c, 6, 73, 101
1, 71520, Note_on_c, 6, 66, 101
1, 71520, Note_on_c, 6, 61, 101
1, 71520, Note_on_c, 6, 54, 101
1, 71520, Note_on_c, 9, 40, 103
1, 71520, Note_on_c, 9, 35, 103
1, 71520, Note_on_c, 9, 39, 127
1, 71530, Pitch_bend_c, 7, 9939
1, 71530, Pitch_bend_c, 13, 9373
1, 71555, Pitch_bend_c, 7, 9946
1, 71555, Pitch_bend_c, 13, 9379
1, 71580, Pitch_bend_c, 7, 9953
1, 71580, Pitch_bend_c, 13, 9386
1, 71600, Pitch_bend_c, 13, 9393
1, 71605, Pitch_bend_c, 7, 9960
1, 71625, Pitch_bend_c, 13, 9400
1, 71630, Pitch_bend_c, 7, 9966
1, 71640, Note_on_c, 9, 39, 0
1, 71640, Note_on_c, 9, 35, 0
1, 71640, Note_on_c, 9, 40, 0
1, 71650, Pitch_bend_c, 7, 9973
1, 71650, Pitch_bend_c, 13, 9407
1, 71675, Pitch_bend_c, 7, 9980
1, 71675, Pitch_bend_c, 13, 9413
1, 71695, Pitch_bend_c, 13, 9420
1, 71700, Note_on_c, 4, 78, 0
1, 71700, Note_on_c, 4, 73, 0
1, 71700, Note_on_c, 4, 66, 0
1, 71700, Note_on_c, 4, 85, 0
1, 71700, Note_on_c, 6, 61, 0
1, 71700, Note_on_c, 6, 66, 0
1, 71700, Note_on_c, 6, 73, 0
1, 71700, Note_on_c, 6, 54, 0
1, 71700, Pitch_bend_c, 7, 9987
1, 71720, Pitch_bend_c, 13, 9427
1, 71725, Pitch_bend_c, 7, 9994
1, 71745, Pitch_bend_c, 7, 10001
1, 71745, Pitch_bend_c, 13, 9434
1, 71760, Note_on_c, 4, 85, 101
1, 71760, Note_on_c, 4, 66, 101
1, 71760, Note_on_c, 4, 73, 101
1, 71760, Note_on_c, 4, 78, 101
1, 71760, Note_on_c, 6, 73, 101
1, 71760, Note_on_c, 6, 66, 101
1, 71760, Note_on_c, 6, 61, 101
1, 71760, Note_on_c, 6, 54, 101
1, 71760, Note_on_c, 9, 35, 103
1, 71760, Note_on_c, 9, 40, 103
1, 71770, Pitch_bend_c, 7, 10007
1, 71770, Pitch_bend_c, 13, 9441
1, 71795, Pitch_bend_c, 7, 10014
1, 71795, Pitch_bend_c, 13, 9448
1, 71815, Pitch_bend_c, 13, 9454
1, 71820, Pitch_bend_c, 7, 10021
1, 71840, Pitch_bend_c, 13, 9461
1, 71845, Pitch_bend_c, 7, 10028
1, 71865, Pitch_bend_c, 7, 10035
1, 71865, Pitch_bend_c, 13, 9468
1, 71880, Note_on_c, 9, 40, 0
1, 71880, Note_on_c, 9, 35, 0
1, 71890, Pitch_bend_c, 7, 10042
1, 71890, Pitch_bend_c, 13, 9475
1, 71910, Pitch_bend_c, 13, 9482
1, 71915, Pitch_bend_c, 7, 10048
1, 71935, Pitch_bend_c, 13, 9489
1, 71940, Note_on_c, 4, 78, 0
1, 71940, Note_on_c, 4, 73, 0
1, 71940, Note_on_c, 4, 66, 0
1, 71940, Note_on_c, 4, 85, 0
1, 71940, Note_on_c, 6, 61, 0
1, 71940, Note_on_c, 6, 66, 0
1, 71940, Note_on_c, 6, 73, 0
1, 71940, Note_on_c, 6, 54, 0
1, 71940, Pitch_bend_c, 7, 10055
1, 71960, Pitch_bend_c, 7, 10062
1, 71960, Pitch_bend_c, 13, 9495
1, 71985, Pitch_bend_c, 7, 10069
1, 71985, Pitch_bend_c, 13, 9502
1, 72000, Note_on_c, 4, 85, 101
1, 72000, Note_on_c, 4, 73, 101
1, 72000, Note_on_c, 4, 66, 101
1, 72000, Note_on_c, 4, 78, 101
1, 72000, Note_on_c, 6, 73, 101
1, 72000, Note_on_c, 6, 66, 101
1, 72000, Note_on_c, 6, 54, 101
1, 72000, Note_on_c, 6, 61, 101
1, 72000, Note_on_c, 9, 40, 103
1, 72000, Note_on_c, 9, 35, 103
1, 72000, Note_on_c, 9, 39, 127
1, 72010, Pitch_bend_c, 7, 10076
1, 72010, Pitch_bend_c, 13, 9509
1, 72030, Pitch_bend_c, 13, 9516
1, 72035, Pitch_bend_c, 7, 10082
1, 72055, Pitch_bend_c, 13, 9523
1, 72060, Pitch_bend_c, 7, 10089
1, 72080, Pitch_bend_c, 7, 10096
1, 72080, Pitch_bend_c, 13, 9530
1, 72105, Pitch_bend_c, 7, 10103
1, 72105, Pitch_bend_c, 13, 9536
1, 72120, Note_on_c, 9, 39, 0
1, 72120, Note_on_c, 9, 35, 0
1, 72120, Note_on_c, 9, 40, 0
1, 72125, Pitch_bend_c, 13, 9543
1, 72130, Pitch_bend_c, 7, 10110
1, 72150, Pitch_bend_c, 13, 9550
1, 72155, Pitch_bend_c, 7, 10117
1, 72175, Pitch_bend_c, 7, 10123
1, 72175, Pitch_bend_c, 13, 9557
1, 72180, Note_on_c, 4, 78, 0
1, 72180, Note_on_c, 4, 66, 0
1, 72180, Note_on_c, 4, 73, 0
1, 72180, Note_on_c, 4, 85, 0
1, 72180, Note_on_c, 6, 54, 0
1, 72180, Note_on_c, 6, 66, 0
1, 72180, Note_on_c, 6, 73, 0
1, 72180, Note_on_c, 6, 61, 0
1, 72200, Pitch_bend_c, 7, 10130
1, 72200, Pitch_bend_c, 13, 9564
1, 72220, Pitch_bend_c, 13, 9570
1, 72225, Pitch_bend_c, 7, 10137
1, 72240, Note_on_c, 4, 85, 101
1, 72240, Note_on_c, 4, 73, 101
1, 72240, Note_on_c, 4, 66, 101
1, 72240, Note_on_c, 4, 78, 101
1, 72240, Note_on_c, 6, 73, 101
1, 72240, Note_on_c, 6, 66, 101
1, 72240, Note_on_c, 6, 54, 101
1, 72240, Note_on_c, 6, 61, 101
1, 72240, Note_on_c, 9, 35, 103
1, 72240, Note_on_c, 9, 40, 103
1, 72245, Pitch_bend_c, 13, 9577
1, 72250, Pitch_bend_c, 7, 10144
1, 72270, Pitch_bend_c, 13, 9584
1, 72275, Pitch_bend_c, 7, 10151
1, 72295, Pitch_bend_c, 7, 10158
1, 72295, Pitch_bend_c, 13, 9591
1, 72320, Pitch_bend_c, 7, 10164
1, 72320, Pitch_bend_c, 13, 9598
1, 72340, Pitch_bend_c, 13, 9605
1, 72345, Pitch_bend_c, 7, 10171
1, 72360, Note_on_c, 9, 40, 0
1, 72360, Note_on_c, 9, 35, 0
1, 72365, Pitch_bend_c, 13, 9611
1, 72370, Pitch_bend_c, 7, 10178
1, 72390, Pitch_bend_c, 7, 10185
1, 72390, Pitch_bend_c, 13, 9618
1, 72415, Pitch_bend_c, 7, 10192
1, 72415, Pitch_bend_c, 13, 9625
1, 72420, Note_on_c, 4, 78, 0
1, 72420, Note_on_c, 4, 66, 0
1, 72420, Note_on_c, 4, 73, 0
1, 72420, Note_on_c, 4, 85, 0
1, 72420, Note_on_c, 6, 54, 0
1, 72420, Note_on_c, 6, 66, 0
1, 72420, Note_on_c, 6, 73, 0
1, 72420, Note_on_c, 6, 61, 0
1, 72435, Pitch_bend_c, 13, 9632
1, 72440, Pitch_bend_c, 7, 10199
1, 72460, Pitch_bend_c, 13, 9639
1, 72465, Pitch_bend_c, 7, 10205
1, 72480, Note_on_c, 4, 85, 101
1, 72480, Note_on_c, 4, 73, 101
1, 72480, Note_on_c, 4, 66, 101
1, 72480, Note_on_c, 4, 78, 101
1, 72480, Note_on_c, 6, 73, 101
1, 72480, Note_on_c, 6, 66, 101
1, 72480, Note_on_c, 6, 54, 101
1, 72480, Note_on_c, 6, 61, 101
1, 72480, Note_on_c, 9, 40, 103
1, 72480, Note_on_c, 9, 35, 103
1, 72480, Note_on_c, 9, 39, 127
1, 72485, Pitch_bend_c, 13, 9646
1, 72490, Pitch_bend_c, 7, 10212
1, 72510, Pitch_bend_c, 7, 10219
1, 72510, Pitch_bend_c, 13, 9652
1, 72535, Pitch_bend_c, 7, 10226
1, 72535, Pitch_bend_c, 13, 9659
1, 72555, Pitch_bend_c, 13, 9666
1, 72560, Pitch_bend_c, 7, 10233
1, 72580, Pitch_bend_c, 13, 9673
1, 72585, Pitch_bend_c, 7, 10240
1, 72600, Note_on_c, 9, 39, 0
1, 72600, Note_on_c, 9, 35, 0
1, 72600, Note_on_c, 9, 40, 0
1, 72605, Pitch_bend_c, 7, 10246
1, 72605, Pitch_bend_c, 13, 9680
1, 72630, Pitch_bend_c, 7, 10253
1, 72630, Pitch_bend_c, 13, 9687
1, 72650, Pitch_bend_c, 13, 9693
1, 72655, Pitch_bend_c, 7, 10260
1, 72660, Note_on_c, 4, 78, 0
1, 72660, Note_on_c, 4, 66, 0
1, 72660, Note_on_c, 4, 73, 0
1, 72660, Note_on_c, 4, 85, 0
1, 72660, Note_on_c, 6, 54, 0
1, 72660, Note_on_c, 6, 66, 0
1, 72660, Note_on_c, 6, 73, 0
1, 72660, Note_on_c, 6, 61, 0
1, 72675, Pitch_bend_c, 13, 9700
1, 72680, Pitch_bend_c, 7, 10267
1, 72700, Pitch_bend_c, 13, 9707
1, 72705, Pitch_bend_c, 7, 10274
1, 72720, Note_on_c, 4, 85, 101
1, 72720, Note_on_c, 4, 66, 101
1, 72720, Note_on_c, 4, 73, 101
1, 72720, Note_on_c, 4, 78, 101
1, 72720, Note_on_c, 6, 73, 101
1, 72720, Note_on_c, 6, 66, 101
1, 72720, Note_on_c, 6, 61, 101
1, 72720, Note_on_c, 6, 54, 101
1, 72720, Note_on_c, 9, 35, 103
1, 72720, Note_on_c, 9, 40, 104
1, 72725, Pitch_bend_c, 7, 10280
1, 72725, Pitch_bend_c, 13, 9714
1, 72750, Pitch_bend_c, 7, 10287
1, 72750, Pitch_bend_c, 13, 9721
1, 72770, Pitch_bend_c, 13, 9728
1, 72775, Pitch_bend_c, 7, 10294
1, 72795, Pitch_bend_c, 13, 9734
1, 72800, Pitch_bend_c, 7, 10301
1, 72820, Pitch_bend_c, 7, 10308
1, 72820, Pitch_bend_c, 13, 9741
1, 72840, Note_on_c, 9, 40, 0
1, 72840, Note_on_c, 9, 35, 0
1, 72845, Pitch_bend_c, 7, 10315
1, 72845, Pitch_bend_c, 13, 9748
1, 72865, Pitch_bend_c, 13, 9755
1, 72870, Pitch_bend_c, 7, 10321
1, 72890, Pitch_bend_c, 13, 9762
1, 72895, Pitch_bend_c, 7, 10328
1, 72900, Note_on_c, 4, 78, 0
1, 72900, Note_on_c, 4, 73, 0
1, 72900, Note_on_c, 4, 66, 0
1, 72900, Note_on_c, 4, 85, 0
1, 72900, Note_on_c, 6, 61, 0
1, 72900, Note_on_c, 6, 66, 0
1, 72900, Note_on_c, 6, 73, 0
1, 72900, Note_on_c, 6, 54, 0
1, 72915, Pitch_bend_c, 13, 9768
1, 72920, Pitch_bend_c, 7, 10335
1, 72940, Pitch_bend_c, 7, 10342
1, 72940, Pitch_bend_c, 13, 9775
1, 72960, Note_on_c, 4, 85, 101
1, 72960, Note_on_c, 4, 73, 101
1, 72960, Note_on_c, 4, 66, 101
1, 72960, Note_on_c, 4, 78, 101
1, 72960, Note_on_c, 6, 73, 101
1, 72960, Note_on_c, 6, 66, 101
1, 72960, Note_on_c, 6, 54, 101
1, 72960, Note_on_c, 6, 61, 101
1, 72960, Note_on_c, 9, 40, 104
1, 72960, Note_on_c, 9, 35, 103
1, 72960, Note_on_c, 9, 39, 127
1, 72965, Pitch_bend_c, 7, 10349
1, 72965, Pitch_bend_c, 13, 9782
1, 72985, Pitch_bend_c, 13, 9789
1, 72990, Pitch_bend_c, 7, 10356
1, 73010, Pitch_bend_c, 13, 9796
1, 73015, Pitch_bend_c, 7, 10362
1, 73035, Pitch_bend_c, 7, 10369
1, 73035, Pitch_bend_c, 13, 9803
1, 73060, Pitch_bend_c, 7, 10376
1, 73060, Pitch_bend_c, 13, 9809
1, 73080, Note_on_c, 9, 39, 0
1, 73080, Note_on_c, 9, 35, 0
1, 73080, Note_on_c, 9, 40, 0
1, 73080, Pitch_bend_c, 13, 9816
1, 73085, Pitch_bend_c, 7, 10383
1, 73105, Pitch_bend_c, 13, 9823
1, 73110, Pitch_bend_c, 7, 10390
1, 73130, Pitch_bend_c, 13, 9830
1, 73135, Pitch_bend_c, 7, 10397
1, 73140, Note_on_c, 4, 78, 0
1, 73140, Note_on_c, 4, 66, 0
1, 73140, Note_on_c, 4, 73, 0
1, 73140, Note_on_c, 4, 85, 0
1, 73140, Note_on_c, 6, 54, 0
1, 73140, Note_on_c, 6, 66, 0
1, 73140, Note_on_c, 6, 73, 0
1, 73140, Note_on_c, 6, 61, 0
1, 73155, Pitch_bend_c, 7, 10403
1, 73155, Pitch_bend_c, 13, 9837
1, 73180, Pitch_bend_c, 7, 10410
1, 73180, Pitch_bend_c, 13, 9844
1, 73200, Note_on_c, 4, 85, 101
1, 73200, Note_on_c, 4, 73, 101
1, 73200, Note_on_c, 4, 66, 101
1, 73200, Note_on_c, 4, 78, 101
1, 73200, Note_on_c, 6, 73, 101
1, 73200, Note_on_c, 6, 66, 101
1, 73200, Note_on_c, 6, 54, 101
1, 73200, Note_on_c, 6, 61, 101
1, 73200, Note_on_c, 9, 35, 103
1, 73200, Note_on_c, 9, 40, 104
1, 73200, Pitch_bend_c, 13, 9850
1, 73205, Pitch_bend_c, 7, 10417
1, 73225, Pitch_bend_c, 13, 9857
1, 73230, Pitch_bend_c, 7, 10424
1, 73250, Pitch_bend_c, 7, 10431
1, 73250, Pitch_bend_c, 13, 9864
1, 73275, Pitch_bend_c, 7, 10437
1, 73275, Pitch_bend_c, 13, 9871
1, 73295, Pitch_bend_c, 13, 9878
1, 73300, Pitch_bend_c, 7, 10444
1, 73320, Note_on_c, 9, 40, 0
1, 73320, Note_on_c, 9, 35, 0
1, 73320, Pitch_bend_c, 13, 9885
1, 73325, Pitch_bend_c, 7, 10451
1, 73345, Pitch_bend_c, 13, 9891
1, 73350, Pitch_bend_c, 7, 10458
1, 73370, Pitch_bend_c, 7, 10465
1, 73370, Pitch_bend_c, 13, 9898
1, 73380, Note_on_c, 4, 78, 0
1, 73380, Note_on_c, 4, 66, 0
1, 73380, Note_on_c, 4, 73, 0
1, 73380, Note_on_c, 4, 85, 0
1, 73380, Note_on_c, 6, 54, 0
1, 73380, Note_on_c, 6, 66, 0
1, 73380, Note_on_c, 6, 73, 0
1, 73380, Note_on_c, 6, 61, 0
1, 73395, Pitch_bend_c, 7, 10472
1, 73395, Pitch_bend_c, 13, 9905
1, 73415, Pitch_bend_c, 13, 9912
1, 73420, Pitch_bend_c, 7, 10478
1, 73440, Note_on_c, 4, 85, 101
1, 73440, Note_on_c, 4, 73, 101
1, 73440, Note_on_c, 4, 66, 101
1, 73440, Note_on_c, 4, 78, 101
1, 73440, Note_on_c, 6, 73, 101
1, 73440, Note_on_c, 6, 66, 101
1, 73440, Note_on_c, 6, 54, 101
1, 73440, Note_on_c, 6, 61, 101
1, 73440, Note_on_c, 9, 40, 104
1, 73440, Note_on_c, 9, 35, 103
1, 73440, Note_on_c, 9, 39, 127
1, 73440, Pitch_bend_c, 13, 9919
1, 73445, Pitch_bend_c, 7, 10485
1, 73465, Pitch_bend_c, 7, 10492
1, 73465, Pitch_bend_c, 13, 9925
1, 73490, Pitch_bend_c, 7, 10499
1, 73490, Pitch_bend_c, 13, 9932
1, 73510, Pitch_bend_c, 13, 9939
1, 73515, Pitch_bend_c, 7, 10506
1, 73535, Pitch_bend_c, 13, 9946
1, 73540, Pitch_bend_c, 7, 10513
1, 73560, Note_on_c, 9, 39, 0
1, 73560, Note_on_c, 9, 35, 0
1, 73560, Note_on_c, 9, 40, 0
1, 73560, Pitch_bend_c, 13, 9953
1, 73565, Pitch_bend_c, 7, 10519
1, 73585, Pitch_bend_c, 7, 10526
1, 73585, Pitch_bend_c, 13, 9960
1, 73610, Pitch_bend_c, 7, 10533
1, 73610, Pitch_bend_c, 13, 9966
1, 73620, Note_on_c, 4, 78, 0
1, 73620, Note_on_c, 4, 66, 0
1, 73620, Note_on_c, 4, 73, 0
1, 73620, Note_on_c, 4, 85, 0
1, 73620, Note_on_c, 6, 54, 0
1, 73620, Note_on_c, 6, 66, 0
1, 73620, Note_on_c, 6, 73, 0
1, 73620, Note_on_c, 6, 61, 0
1, 73630, Pitch_bend_c, 13, 9973
1, 73635, Pitch_bend_c, 7, 10540
1, 73655, Pitch_bend_c, 13, 9980
1, 73660, Pitch_bend_c, 7, 10547
1, 73680, Note_on_c, 4, 85, 101
1, 73680, Note_on_c, 4, 66, 101
1, 73680, Note_on_c, 4, 73, 101
1, 73680, Note_on_c, 4, 78, 101
1, 73680, Note_on_c, 6, 73, 101
1, 73680, Note_on_c, 6, 66, 101
1, 73680, Note_on_c, 6, 61, 101
1, 73680, Note_on_c, 6, 54, 101
1, 73680, Pitch_bend_c, 7, 10554
1, 73680, Note_on_c, 9, 35, 103
1, 73680, Note_on_c, 9, 40, 104
1, 73680, Pitch_bend_c, 13, 9987
1, 73705, Pitch_bend_c, 7, 10560
1, 73705, Pitch_bend_c, 13, 9994
1, 73725, Pitch_bend_c, 13, 10001
1, 73730, Pitch_bend_c, 7, 10567
1, 73750, Pitch_bend_c, 13, 10007
1, 73755, Pitch_bend_c, 7, 10574
1, 73775, Pitch_bend_c, 13, 10014
1, 73780, Pitch_bend_c, 7, 10581
1, 73800, Note_on_c, 9, 40, 0
1, 73800, Note_on_c, 9, 35, 0
1, 73800, Pitch_bend_c, 7, 10588
1, 73800, Pitch_bend_c, 13, 10021
1, 73825, Pitch_bend_c, 7, 10594
1, 73825, Pitch_bend_c, 13, 10028
1, 73845, Pitch_bend_c, 13, 10035
1, 73850, Pitch_bend_c, 7, 10601
1, 73860, Note_on_c, 4, 78, 0
1, 73860, Note_on_c, 4, 73, 0
1, 73860, Note_on_c, 4, 66, 0
1, 73860, Note_on_c, 4, 85, 0
1, 73860, Note_on_c, 6, 61, 0
1, 73860, Note_on_c, 6, 66, 0
1, 73860, Note_on_c, 6, 73, 0
1, 73860, Note_on_c, 6, 54, 0
1, 73870, Pitch_bend_c, 13, 10042
1, 73875, Pitch_bend_c, 7, 10608
1, 73895, Pitch_bend_c, 7, 10615
1, 73895, Pitch_bend_c, 13, 10048
1, 73920, Note_on_c, 4, 85, 101
1, 73920, Note_on_c, 4, 73, 101
1, 73920, Note_on_c, 4, 66, 101
1, 73920, Note_on_c, 4, 78, 101
1, 73920, Note_on_c, 6, 73, 101
1, 73920, Note_on_c, 6, 66, 101
1, 73920, Note_on_c, 6, 54, 101
1, 73920, Note_on_c, 6, 61, 101
1, 73920, Pitch_bend_c, 7, 10622
1, 73920, Note_on_c, 9, 40, 104
1, 73920, Note_on_c, 9, 35, 103
1, 73920, Note_on_c, 9, 39, 127
1, 73920, Pitch_bend_c, 13, 10055
1, 73940, Pitch_bend_c, 13, 10062
1, 73945, Pitch_bend_c, 7, 10629
1, 73965, Pitch_bend_c, 13, 10069
1, 73970, Pitch_bend_c, 7, 10635
1, 73990, Pitch_bend_c, 13, 10076
1, 73995, Pitch_bend_c, 7, 10642
1, 74015, Pitch_bend_c, 7, 10649
1, 74015, Pitch_bend_c, 13, 10082
1, 74040, Note_on_c, 9, 39, 0
1, 74040, Note_on_c, 9, 35, 0
1, 74040, Note_on_c, 9, 40, 0
1, 74040, Pitch_bend_c, 7, 10656
1, 74040, Pitch_bend_c, 13, 10089
1, 74060, Pitch_bend_c, 13, 10096
1, 74065, Pitch_bend_c, 7, 10663
1, 74085, Pitch_bend_c, 13, 10103
1, 74090, Pitch_bend_c, 7, 10670
1, 74100, Note_on_c, 4, 78, 0
1, 74100, Note_on_c, 4, 66, 0
1, 74100, Note_on_c, 4, 73, 0
1, 74100, Note_on_c, 4, 85, 0
1, 74100, Note_on_c, 6, 54, 0
1, 74100, Note_on_c, 6, 66, 0
1, 74100, Note_on_c, 6, 73, 0
1, 74100, Note_on_c, 6, 61, 0
1, 74110, Pitch_bend_c, 7, 10676
1, 74110, Pitch_bend_c, 13, 10110
1, 74135, Pitch_bend_c, 7, 10683
1, 74135, Pitch_bend_c, 13, 10117
1, 74155, Pitch_bend_c, 13, 10123
1, 74160, Note_on_c, 4, 85, 101
1, 74160, Note_on_c, 4, 73, 101
1, 74160, Note_on_c, 4, 66, 101
1, 74160, Note_on_c, 4, 78, 101
1, 74160, Note_on_c, 6, 73, 101
1, 74160, Note_on_c, 6, 66, 101
1, 74160, Note_on_c, 6, 54, 101
1, 74160, Note_on_c, 6, 61, 101
1, 74160, Pitch_bend_c, 7, 10690
1, 74160, Note_on_c, 9, 35, 103
1, 74160, Note_on_c, 9, 40, 104
1, 74180, Pitch_bend_c, 13, 10130
1, 74185, Pitch_bend_c, 7, 10697
1, 74205, Pitch_bend_c, 13, 10137
1, 74210, Pitch_bend_c, 7, 10704
1, 74230, Pitch_bend_c, 7, 10711
1, 74230, Pitch_bend_c, 13, 10144
1, 74255, Pitch_bend_c, 7, 10717
1, 74255, Pitch_bend_c, 13, 10151
1, 74275, Pitch_bend_c, 13, 10158
1, 74280, Note_on_c, 9, 40, 0
1, 74280, Note_on_c, 9, 35, 0
1, 74280, Pitch_bend_c, 7, 10724
1, 74300, Pitch_bend_c, 13, 10164
1, 74305, Pitch_bend_c, 7, 10731
1, 74325, Pitch_bend_c, 7, 10738
1, 74325, Pitch_bend_c, 13, 10171
1, 74340, Note_on_c, 4, 78, 0
1, 74340, Note_on_c, 4, 66, 0
1, 74340, Note_on_c, 4, 73, 0
1, 74340, Note_on_c, 4, 85, 0
1, 74340, Note_on_c, 6, 54, 0
1, 74340, Note_on_c, 6, 66, 0
1, 74340, Note_on_c, 6, 73, 0
1, 74340, Note_on_c, 6, 61, 0
1, 74350, Pitch_bend_c, 7, 10745
1, 74350, Pitch_bend_c, 13, 10178
1, 74370, Pitch_bend_c, 13, 10185
1, 74375, Pitch_bend_c, 7, 10752
1, 74395, Pitch_bend_c, 13, 10192
1, 74400, Note_on_c, 4, 85, 101
1, 74400, Note_on_c, 4, 73, 101
1, 74400, Note_on_c, 4, 66, 101
1, 74400, Note_on_c, 4, 78, 101
1, 74400, Note_on_c, 6, 73, 101
1, 74400, Note_on_c, 6, 66, 101
1, 74400, Note_on_c, 6, 54, 101
1, 74400, Note_on_c, 6, 61, 101
1, 74400, Pitch_bend_c, 7, 10758
1, 74400, Note_on_c, 9, 40, 104
1, 74400, Note_on_c, 9, 35, 103
1, 74400, Note_on_c, 9, 39, 127
1, 74420, Pitch_bend_c, 13, 10199
1, 74425, Pitch_bend_c, 7, 10765
1, 74445, Pitch_bend_c, 7, 10772
1, 74445, Pitch_bend_c, 13, 10205
1, 74470, Pitch_bend_c, 7, 10779
1, 74470, Pitch_bend_c, 13, 10212
1, 74490, Pitch_bend_c, 13, 10219
1, 74495, Pitch_bend_c, 7, 10786
1, 74515, Pitch_bend_c, 13, 10226
1, 74520, Note_on_c, 9, 39, 0
1, 74520, Note_on_c, 9, 35, 0
1, 74520, Note_on_c, 9, 40, 0
1, 74520, Pitch_bend_c, 7, 10792
1, 74540, Pitch_bend_c, 7, 10799
1, 74540, Pitch_bend_c, 13, 10233
1, 74565, Pitch_bend_c, 7, 10806
1, 74565, Pitch_bend_c, 13, 10240
1, 74580, Note_on_c, 4, 78, 0
1, 74580, Note_on_c, 4, 66, 0
1, 74580, Note_on_c, 4, 73, 0
1, 74580, Note_on_c, 4, 85, 0
1, 74580, Note_on_c, 6, 54, 0
1, 74580, Note_on_c, 6, 66, 0
1, 74580, Note_on_c, 6, 73, 0
1, 74580, Note_on_c, 6, 61, 0
1, 74585, Pitch_bend_c, 13, 10246
1, 74590, Pitch_bend_c, 7, 10813
1, 74610, Pitch_bend_c, 13, 10253
1, 74615, Pitch_bend_c, 7, 10820
1, 74635, Pitch_bend_c, 13, 10260
1, 74640, Note_on_c, 4, 85, 101
1, 74640, Note_on_c, 4, 66, 101
1, 74640, Note_on_c, 4, 73, 101
1, 74640, Note_on_c, 4, 78, 101
1, 74640, Note_on_c, 6, 73, 101
1, 74640, Note_on_c, 6, 66, 101
1, 74640, Note_on_c, 6, 61, 101
1, 74640, Note_on_c, 6, 54, 101
1, 74640, Pitch_bend_c, 7, 10827
1, 74640, Note_on_c, 9, 35, 103
1, 74640, Note_on_c, 9, 40, 104
1, 74660, Pitch_bend_c, 7, 10833
1, 74660, Pitch_bend_c, 13, 10267
1, 74685, Pitch_bend_c, 7, 10840
1, 74685, Pitch_bend_c, 13, 10274
1, 74705, Pitch_bend_c, 13, 10280
1, 74710, Pitch_bend_c, 7, 10847
1, 74730, Pitch_bend_c, 13, 10287
1, 74735, Pitch_bend_c, 7, 10854
1, 74755, Pitch_bend_c, 7, 10861
1, 74755, Pitch_bend_c, 13, 10294
1, 74760, Note_on_c, 9, 40, 0
1, 74760, Note_on_c, 9, 35, 0
1, 74780, Pitch_bend_c, 7, 10868
1, 74780, Pitch_bend_c, 13, 10301
1, 74800, Pitch_bend_c, 13, 10308
1, 74805, Pitch_bend_c, 7, 10874
1, 74820, Note_on_c, 4, 78, 0
1, 74820, Note_on_c, 4, 73, 0
1, 74820, Note_on_c, 4, 66, 0
1, 74820, Note_on_c, 4, 85, 0
1, 74820, Note_on_c, 6, 61, 0
1, 74820, Note_on_c, 6, 66, 0
1, 74820, Note_on_c, 6, 73, 0
1, 74820, Note_on_c, 6, 54, 0
1, 74825, Pitch_bend_c, 13, 10315
1, 74830, Pitch_bend_c, 7, 10881
1, 74850, Pitch_bend_c, 7, 10888
1, 74850, Pitch_bend_c, 13, 10321
1, 74875, Pitch_bend_c, 13, 10328
1, 74880, Note_on_c, 4, 85, 101
1, 74880, Note_on_c, 4, 78, 101
1, 74880, Note_on_c, 4, 73, 101
1, 74880, Note_on_c, 4, 66, 101
1, 74880, Note_on_c, 6, 73, 101
1, 74880, Note_on_c, 6, 54, 101
1, 74880, Note_on_c, 6, 61, 101
1, 74880, Note_on_c, 6, 66, 101
1, 74880, Pitch_bend_c, 7, 10922
1, 74880, Note_on_c, 9, 40, 127
1, 74880, Note_on_c, 9, 35, 103
1, 74880, Note_on_c, 9, 39, 127
1, 74900, Pitch_bend_c, 13, 10335
1, 74920, Pitch_bend_c, 13, 10342
1, 74940, Note_on_c, 6, 66, 0
1, 74940, Note_on_c, 4, 66, 0
1, 74940, Note_on_c, 4, 73, 0
1, 74940, Note_on_c, 4, 78, 0
1, 74940, Note_on_c, 4, 85, 0
1, 74940, Note_on_c, 6, 61, 0
1, 74940, Note_on_c, 6, 54, 0
1, 74940, Note_on_c, 6, 73, 0
1, 74940, Control_c, 7, 7, 0
1, 74945, Pitch_bend_c, 13, 10349
1, 74970, Pitch_bend_c, 13, 10356
1, 74995, Pitch_bend_c, 13, 10362
1, 75000, Note_on_c, 9, 40, 0
1, 75000, Note_on_c, 9, 39, 0
1, 75000, Note_on_c, 9, 35, 0
1, 75000, Note_on_c, 4, 85, 101
1, 75000, Note_on_c, 4, 78, 101
1, 75000, Note_on_c, 4, 66, 101
1, 75000, Note_on_c, 4, 73, 101
1, 75000, Note_on_c, 6, 73, 101
1, 75000, Note_on_c, 6, 61, 101
1, 75000, Note_on_c, 6, 54, 101
1, 75000, Note_on_c, 6, 66, 101
1, 75000, Control_c, 7, 7, 108
1, 75000, Note_on_c, 9, 35, 103
1, 75000, Note_on_c, 9, 40, 104
1, 75015, Pitch_bend_c, 13, 10369
1, 75040, Pitch_bend_c, 13, 10376
1, 75060, Note_on_c, 6, 66, 0
1, 75060, Note_on_c, 4, 73, 0
1, 75060, Note_on_c, 4, 66, 0
1, 75060, Note_on_c, 4, 78, 0
1, 75060, Note_on_c, 4, 85, 0
1, 75060, Note_on_c, 6, 54, 0
1, 75060, Note_on_c, 6, 61, 0
1, 75060, Note_on_c, 6, 73, 0
1, 75060, Control_c, 7, 7, 0
1, 75065, Pitch_bend_c, 13, 10383
1, 75090, Pitch_bend_c, 13, 10390
1, 75115, Pitch_bend_c, 13, 10397
1, 75120, Note_on_c, 9, 35, 0
1, 75120, Note_on_c, 9, 40, 0
1, 75120, Note_on_c, 4, 85, 101
1, 75120, Note_on_c, 4, 78, 101
1, 75120, Note_on_c, 4, 66, 101
1, 75120, Note_on_c, 4, 73, 101
1, 75120, Note_on_c, 6, 73, 101
1, 75120, Note_on_c, 6, 61, 101
1, 75120, Note_on_c, 6, 54, 101
1, 75120, Note_on_c, 6, 66, 101
1, 75120, Control_c, 7, 7, 108
1, 75120, Note_on_c, 9, 35, 103
1, 75120, Note_on_c, 9, 40, 104
1, 75135, Pitch_bend_c, 13, 10403
1, 75160, Pitch_bend_c, 13, 10410
1, 75180, Note_on_c, 6, 66, 0
1, 75180, Note_on_c, 4, 73, 0
1, 75180, Note_on_c, 4, 66, 0
1, 75180, Note_on_c, 4, 78, 0
1, 75180, Note_on_c, 4, 85, 0
1, 75180, Note_on_c, 6, 54, 0
1, 75180, Note_on_c, 6, 61, 0
1, 75180, Note_on_c, 6, 73, 0
1, 75180, Control_c, 7, 7, 0
1, 75185, Pitch_bend_c, 13, 10417
1, 75210, Pitch_bend_c, 13, 10424
1, 75230, Pitch_bend_c, 13, 10431
1, 75240, Note_on_c, 9, 35, 0
1, 75240, Note_on_c, 9, 40, 0
1, 75240, Note_on_c, 4, 85, 101
1, 75240, Note_on_c, 4, 78, 101
1, 75240, Note_on_c, 4, 66, 101
1, 75240, Note_on_c, 4, 73, 101
1, 75240, Note_on_c, 6, 73, 101
1, 75240, Note_on_c, 6, 61, 101
1, 75240, Note_on_c, 6, 54, 101
1, 75240, Note_on_c, 6, 66, 101
1, 75240, Control_c, 7, 7, 108
1, 75240, Note_on_c, 9, 35, 103
1, 75240, Note_on_c, 9, 40, 104
1, 75255, Pitch_bend_c, 13, 10437
1, 75280, Pitch_bend_c, 13, 10444
1, 75300, Note_on_c, 6, 66, 0
1, 75300, Note_on_c, 4, 73, 0
1, 75300, Note_on_c, 4, 66, 0
1, 75300, Note_on_c, 4, 78, 0
1, 75300, Note_on_c, 4, 85, 0
1, 75300, Note_on_c, 6, 54, 0
1, 75300, Note_on_c, 6, 61, 0
1, 75300, Note_on_c, 6, 73, 0
1, 75300, Control_c, 7, 7, 0
1, 75305, Pitch_bend_c, 13, 10451
1, 75330, Pitch_bend_c, 13, 10458
1, 75350, Pitch_bend_c, 13, 10465
1, 75360, Note_on_c, 9, 35, 0
1, 75360, Note_on_c, 9, 40, 0
1, 75360, Note_on_c, 4, 85, 101
1, 75360, Note_on_c, 4, 78, 101
1, 75360, Note_on_c, 4, 66, 101
1, 75360, Note_on_c, 4, 73, 101
1, 75360, Note_on_c, 6, 73, 101
1, 75360, Note_on_c, 6, 61, 101
1, 75360, Note_on_c, 6, 54, 101
1, 75360, Note_on_c, 6, 66, 101
1, 75360, Control_c, 7, 7, 108
1, 75360, Note_on_c, 9, 40, 127
1, 75360, Note_on_c, 9, 35, 103
1, 75360, Note_on_c, 9, 39, 127
1, 75375, Pitch_bend_c, 13, 10472
1, 75400, Pitch_bend_c, 13, 10478
1, 75420, Note_on_c, 6, 66, 0
1, 75420, Note_on_c, 4, 73, 0
1, 75420, Note_on_c, 4, 66, 0
1, 75420, Note_on_c, 4, 78, 0
1, 75420, Note_on_c, 4, 85, 0
1, 75420, Note_on_c, 6, 54, 0
1, 75420, Note_on_c, 6, 61, 0
1, 75420, Note_on_c, 6, 73, 0
1, 75420, Control_c, 7, 7, 0
1, 75425, Pitch_bend_c, 13, 10485
1, 75445, Pitch_bend_c, 13, 10492
1, 75470, Pitch_bend_c, 13, 10499
1, 75480, Note_on_c, 9, 40, 0
1, 75480, Note_on_c, 9, 39, 0
1, 75480, Note_on_c, 9, 35, 0
1, 75480, Note_on_c, 4, 85, 101
1, 75480, Note_on_c, 4, 78, 101
1, 75480, Note_on_c, 4, 73, 101
1, 75480, Note_on_c, 4, 66, 101
1, 75480, Note_on_c, 6, 73, 101
1, 75480, Note_on_c, 6, 54, 101
1, 75480, Note_on_c, 6, 61, 101
1, 75480, Note_on_c, 6, 66, 101
1, 75480, Control_c, 7, 7, 108
1, 75480, Note_on_c, 9, 35, 103
1, 75480, Note_on_c, 9, 40, 104
1, 75495, Pitch_bend_c, 13, 10506
1, 75520, Pitch_bend_c, 13, 10513
1, 75540, Note_on_c, 6, 66, 0
1, 75540, Note_on_c, 4, 66, 0
1, 75540, Note_on_c, 4, 73, 0
1, 75540, Note_on_c, 4, 78, 0
1, 75540, Note_on_c, 4, 85, 0
1, 75540, Note_on_c, 6, 61, 0
1, 75540, Note_on_c, 6, 54, 0
1, 75540, Note_on_c, 6, 73, 0
1, 75540, Control_c, 7, 7, 0
1, 75545, Pitch_bend_c, 13, 10519
1, 75565, Pitch_bend_c, 13, 10526
1, 75590, Pitch_bend_c, 13, 10533
1, 75600, Note_on_c, 9, 35, 0
1, 75600, Note_on_c, 9, 40, 0
1, 75600, Note_on_c, 4, 85, 101
1, 75600, Note_on_c, 4, 78, 101
1, 75600, Note_on_c, 4, 73, 101
1, 75600, Note_on_c, 4, 66, 101
1, 75600, Note_on_c, 6, 73, 101
1, 75600, Note_on_c, 6, 54, 101
1, 75600, Note_on_c, 6, 61, 101
1, 75600, Note_on_c, 6, 66, 101
1, 75600, Control_c, 7, 7, 108
1, 75600, Note_on_c, 9, 35, 103
1, 75600, Note_on_c, 9, 40, 104
1, 75615, Pitch_bend_c, 13, 10540
1, 75640, Pitch_bend_c, 13, 10547
1, 75660, Note_on_c, 6, 66, 0
1, 75660, Note_on_c, 4, 66, 0
1, 75660, Note_on_c, 4, 73, 0
1, 75660, Note_on_c, 4, 78, 0
1, 75660, Note_on_c, 4, 85, 0
1, 75660, Note_on_c, 6, 61, 0
1, 75660, Note_on_c, 6, 54, 0
1, 75660, Note_on_c, 6, 73, 0
1, 75660, Control_c, 7, 7, 0
1, 75660, Pitch_bend_c, 13, 10554
1, 75685, Pitch_bend_c, 13, 10560
1, 75710, Pitch_bend_c, 13, 10567
1, 75720, Note_on_c, 9, 35, 0
1, 75720, Note_on_c, 9, 40, 0
1, 75720, Note_on_c, 4, 85, 101
1, 75720, Note_on_c, 4, 78, 101
1, 75720, Note_on_c, 4, 66, 101
1, 75720, Note_on_c, 4, 73, 101
1, 75720, Note_on_c, 6, 73, 101
1, 75720, Note_on_c, 6, 61, 101
1, 75720, Note_on_c, 6, 54, 101
1, 75720, Note_on_c, 6, 66, 101
1, 75720, Control_c, 7, 7, 108
1, 75720, Note_on_c, 9, 35, 103
1, 75720, Note_on_c, 9, 40, 104
1, 75735, Pitch_bend_c, 13, 10574
1, 75760, Pitch_bend_c, 13, 10581
1, 75780, Note_on_c, 6, 66, 0
1, 75780, Note_on_c, 4, 73, 0
1, 75780, Note_on_c, 4, 66, 0
1, 75780, Note_on_c, 4, 78, 0
1, 75780, Note_on_c, 4, 85, 0
1, 75780, Note_on_c, 6, 54, 0
1, 75780, Note_on_c, 6, 61, 0
1, 75780, Note_on_c, 6, 73, 0
1, 75780, Control_c, 7, 7, 0
1, 75780, Pitch_bend_c, 13, 10588
1, 75805, Pitch_bend_c, 13, 10594
1, 75830, Pitch_bend_c, 13, 10601
1, 75840, Note_on_c, 9, 35, 0
1, 75840, Note_on_c, 9, 40, 0
1, 75840, Note_on_c, 4, 85, 101
1, 75840, Note_on_c, 4, 78, 101
1, 75840, Note_on_c, 4, 66, 101
1, 75840, Note_on_c, 4, 73, 101
1, 75840, Note_on_c, 6, 73, 101
1, 75840, Note_on_c, 6, 61, 101
1, 75840, Note_on_c, 6, 54, 101
1, 75840, Note_on_c, 6, 66, 101
1, 75840, Control_c, 7, 7, 108
1, 75840, Note_on_c, 9, 40, 127
1, 75840, Note_on_c, 9, 35, 103
1, 75840, Note_on_c, 9, 39, 127
1, 75855, Pitch_bend_c, 13, 10608
1, 75875, Pitch_bend_c, 13, 10615
1, 75900, Note_on_c, 6, 66, 0
1, 75900, Note_on_c, 4, 73, 0
1, 75900, Note_on_c, 4, 66, 0
1, 75900, Note_on_c, 4, 78, 0
1, 75900, Note_on_c, 4, 85, 0
1, 75900, Note_on_c, 6, 54, 0
1, 75900, Note_on_c, 6, 61, 0
1, 75900, Note_on_c, 6, 73, 0
1, 75900, Control_c, 7, 7, 0
1, 75900, Pitch_bend_c, 13, 10622
1, 75925, Pitch_bend_c, 13, 10629
1, 75950, Pitch_bend_c, 13, 10635
1, 75960, Note_on_c, 9, 40, 0
1, 75960, Note_on_c, 9, 39, 0
1, 75960, Note_on_c, 9, 35, 0
1, 75960, Note_on_c, 4, 85, 101
1, 75960, Note_on_c, 4, 78, 101
1, 75960, Note_on_c, 4, 66, 101
1, 75960, Note_on_c, 4, 73, 101
1, 75960, Note_on_c, 6, 73, 101
1, 75960, Note_on_c, 6, 61, 101
1, 75960, Note_on_c, 6, 54, 101
1, 75960, Note_on_c, 6, 66, 101
1, 75960, Control_c, 7, 7, 108
1, 75960, Note_on_c, 9, 35, 103
1, 75960, Note_on_c, 9, 40, 104
1, 75975, Pitch_bend_c, 13, 10642
1, 75995, Pitch_bend_c, 13, 10649
1, 76020, Note_on_c, 6, 66, 0
1, 76020, Note_on_c, 4, 73, 0
1, 76020, Note_on_c, 4, 66, 0
1, 76020, Note_on_c, 4, 78, 0
1, 76020, Note_on_c, 4, 85, 0
1, 76020, Note_on_c, 6, 54, 0
1, 76020, Note_on_c, 6, 61, 0
1, 76020, Note_on_c, 6, 73, 0
1, 76020, Control_c, 7, 7, 0
1, 76020, Pitch_bend_c, 13, 10656
1, 76045, Pitch_bend_c, 13, 10663
1, 76070, Pitch_bend_c, 13, 10670
1, 76080, Note_on_c, 9, 35, 0
1, 76080, Note_on_c, 9, 40, 0
1, 76080, Note_on_c, 4, 85, 101
1, 76080, Note_on_c, 4, 78, 101
1, 76080, Note_on_c, 4, 66, 101
1, 76080, Note_on_c, 4, 73, 101
1, 76080, Note_on_c, 6, 73, 101
1, 76080, Note_on_c, 6, 61, 101
1, 76080, Note_on_c, 6, 54, 101
1, 76080, Note_on_c, 6, 66, 101
1, 76080, Control_c, 7, 7, 108
1, 76080, Note_on_c, 9, 35, 103
1, 76080, Note_on_c, 9, 40, 104
1, 76090, Pitch_bend_c, 13, 10676
1, 76115, Pitch_bend_c, 13, 10683
1, 76140, Note_on_c, 6, 66, 0
1, 76140, Note_on_c, 4, 73, 0
1, 76140, Note_on_c, 4, 66, 0
1, 76140, Note_on_c, 4, 78, 0
1, 76140, Note_on_c, 4, 85, 0
1, 76140, Note_on_c, 6, 54, 0
1, 76140, Note_on_c, 6, 61, 0
1, 76140, Note_on_c, 6, 73, 0
1, 76140, Control_c, 7, 7, 0
1, 76140, Pitch_bend_c, 13, 10690
1, 76165, Pitch_bend_c, 13, 10697
1, 76190, Pitch_bend_c, 13, 10704
1, 76200, Note_on_c, 9, 35, 0
1, 76200, Note_on_c, 9, 40, 0
1, 76200, Note_on_c, 4, 85, 101
1, 76200, Note_on_c, 4, 78, 101
1, 76200, Note_on_c, 4, 73, 101
1, 76200, Note_on_c, 4, 66, 101
1, 76200, Note_on_c, 6, 73, 101
1, 76200, Note_on_c, 6, 54, 101
1, 76200, Note_on_c, 6, 61, 101
1, 76200, Note_on_c, 6, 66, 101
1, 76200, Control_c, 7, 7, 108
1, 76200, Note_on_c, 9, 35, 103
1, 76200, Note_on_c, 9, 40, 104
1, 76210, Pitch_bend_c, 13, 10711
1, 76235, Pitch_bend_c, 13, 10717
1, 76260, Note_on_c, 6, 66, 0
1, 76260, Note_on_c, 4, 66, 0
1, 76260, Note_on_c, 4, 73, 0
1, 76260, Note_on_c, 4, 78, 0
1, 76260, Note_on_c, 4, 85, 0
1, 76260, Note_on_c, 6, 61, 0
1, 76260, Note_on_c, 6, 54, 0
1, 76260, Note_on_c, 6, 73, 0
1, 76260, Control_c, 7, 7, 0
1, 76260, Pitch_bend_c, 13, 10724
1, 76285, Pitch_bend_c, 13, 10731
1, 76305, Pitch_bend_c, 13, 10738
1, 76320, Note_on_c, 9, 35, 0
1, 76320, Note_on_c, 9, 40, 0
1, 76320, Note_on_c, 4, 85, 101
1, 76320, Note_on_c, 4, 78, 101
1, 76320, Note_on_c, 4, 66, 101
1, 76320, Note_on_c, 4, 73, 101
1, 76320, Note_on_c, 6, 73, 101
1, 76320, Note_on_c, 6, 61, 101
1, 76320, Note_on_c, 6, 54, 101
1, 76320, Note_on_c, 6, 66, 101
1, 76320, Control_c, 7, 7, 108
1, 76320, Note_on_c, 9, 40, 127
1, 76320, Note_on_c, 9, 35, 103
1, 76320, Note_on_c, 9, 39, 127
1, 76330, Pitch_bend_c, 13, 10745
1, 76355, Pitch_bend_c, 13, 10752
1, 76380, Note_on_c, 6, 66, 0
1, 76380, Note_on_c, 4, 73, 0
1, 76380, Note_on_c, 4, 66, 0
1, 76380, Note_on_c, 4, 78, 0
1, 76380, Note_on_c, 4, 85, 0
1, 76380, Note_on_c, 6, 54, 0
1, 76380, Note_on_c, 6, 61, 0
1, 76380, Note_on_c, 6, 73, 0
1, 76380, Control_c, 7, 7, 0
1, 76380, Pitch_bend_c, 13, 10758
1, 76405, Pitch_bend_c, 13, 10765
1, 76425, Pitch_bend_c, 13, 10772
1, 76440, Note_on_c, 9, 40, 0
1, 76440, Note_on_c, 9, 39, 0
1, 76440, Note_on_c, 9, 35, 0
1, 76440, Note_on_c, 4, 85, 101
1, 76440, Note_on_c, 4, 78, 101
1, 76440, Note_on_c, 4, 66, 101
1, 76440, Note_on_c, 4, 73, 101
1, 76440, Note_on_c, 6, 73, 101
1, 76440, Note_on_c, 6, 61, 101
1, 76440, Note_on_c, 6, 54, 101
1, 76440, Note_on_c, 6, 66, 101
1, 76440, Control_c, 7, 7, 109
1, 76440, Note_on_c, 9, 35, 103
1, 76440, Note_on_c, 9, 40, 104
1, 76450, Pitch_bend_c, 13, 10779
1, 76475, Pitch_bend_c, 13, 10786
1, 76500, Note_on_c, 6, 66, 0
1, 76500, Note_on_c, 4, 73, 0
1, 76500, Note_on_c, 4, 66, 0
1, 76500, Note_on_c, 4, 78, 0
1, 76500, Note_on_c, 4, 85, 0
1, 76500, Note_on_c, 6, 54, 0
1, 76500, Note_on_c, 6, 61, 0
1, 76500, Note_on_c, 6, 73, 0
1, 76500, Control_c, 7, 7, 0
1, 76500, Pitch_bend_c, 13, 10792
1, 76520, Pitch_bend_c, 13, 10799
1, 76545, Pitch_bend_c, 13, 10806
1, 76560, Note_on_c, 9, 35, 0
1, 76560, Note_on_c, 9, 40, 0
1, 76560, Note_on_c, 4, 85, 101
1, 76560, Note_on_c, 4, 78, 101
1, 76560, Note_on_c, 4, 73, 101
1, 76560, Note_on_c, 4, 66, 101
1, 76560, Note_on_c, 6, 73, 101
1, 76560, Note_on_c, 6, 54, 101
1, 76560, Note_on_c, 6, 61, 101
1, 76560, Note_on_c, 6, 66, 101
1, 76560, Control_c, 7, 7, 108
1, 76560, Note_on_c, 9, 35, 103
1, 76560, Note_on_c, 9, 40, 104
1, 76570, Pitch_bend_c, 13, 10813
1, 76595, Pitch_bend_c, 13, 10820
1, 76620, Note_on_c, 6, 66, 0
1, 76620, Note_on_c, 4, 66, 0
1, 76620, Note_on_c, 4, 73, 0
1, 76620, Note_on_c, 4, 78, 0
1, 76620, Note_on_c, 4, 85, 0
1, 76620, Note_on_c, 6, 61, 0
1, 76620, Note_on_c, 6, 54, 0
1, 76620, Note_on_c, 6, 73, 0
1, 76620, Control_c, 7, 7, 0
1, 76620, Pitch_bend_c, 13, 10827
1, 76640, Pitch_bend_c, 13, 10833
1, 76665, Pitch_bend_c, 13, 10840
1, 76680, Note_on_c, 9, 35, 0
1, 76680, Note_on_c, 9, 40, 0
1, 76680, Note_on_c, 4, 85, 101
1, 76680, Note_on_c, 4, 78, 101
1, 76680, Note_on_c, 4, 73, 101
1, 76680, Note_on_c, 4, 66, 101
1, 76680, Note_on_c, 6, 73, 101
1, 76680, Note_on_c, 6, 54, 101
1, 76680, Note_on_c, 6, 61, 101
1, 76680, Note_on_c, 6, 66, 101
1, 76680, Control_c, 7, 7, 108
1, 76680, Note_on_c, 9, 35, 103
1, 76680, Note_on_c, 9, 40, 104
1, 76690, Pitch_bend_c, 13, 10847
1, 76715, Pitch_bend_c, 13, 10854
1, 76735, Pitch_bend_c, 13, 10861
1, 76740, Note_on_c, 6, 66, 0
1, 76740, Note_on_c, 4, 66, 0
1, 76740, Note_on_c, 4, 73, 0
1, 76740, Note_on_c, 4, 78, 0
1, 76740, Note_on_c, 4, 85, 0
1, 76740, Note_on_c, 6, 61, 0
1, 76740, Note_on_c, 6, 54, 0
1, 76740, Note_on_c, 6, 73, 0
1, 76740, Control_c, 7, 7, 0
1, 76760, Pitch_bend_c, 13, 10868
1, 76785, Pitch_bend_c, 13, 10874
1, 76800, Note_on_c, 9, 35, 0
1, 76800, Note_on_c, 9, 40, 0
1, 76800, Note_on_c, 4, 85, 101
1, 76800, Note_on_c, 4, 66, 101
1, 76800, Note_on_c, 4, 73, 101
1, 76800, Note_on_c, 4, 78, 101
1, 76800, Note_on_c, 6, 73, 101
1, 76800, Note_on_c, 6, 66, 101
1, 76800, Note_on_c, 6, 61, 101
1, 76800, Note_on_c, 6, 54, 101
1, 76800, Control_c, 7, 7, 108
1, 76800, Pitch_bend_c, 7, 10902
1, 76810, Pitch_bend_c, 7, 10888
1, 76815, Pitch_bend_c, 7, 10874
1, 76820, Pitch_bend_c, 7, 10861
1, 76825, Pitch_bend_c, 7, 10847
1, 76830, Pitch_bend_c, 7, 10833
1, 76835, Pitch_bend_c, 7, 10820
1, 76840, Pitch_bend_c, 7, 10806
1, 76845, Pitch_bend_c, 7, 10792
1, 76850, Pitch_bend_c, 7, 10779
1, 76855, Pitch_bend_c, 7, 10758
1, 76860, Note_on_c, 13, 55, 0
1, 76860, Note_on_c, 13, 56, 0
1, 76860, Note_on_c, 13, 61, 0
1, 76860, Note_on_c, 13, 50, 0
1, 76860, Note_on_c, 13, 59, 0
1, 76860, Note_on_c, 13, 53, 0
1, 76860, Note_on_c, 13, 62, 0
1, 76860, Note_on_c, 13, 57, 0
1, 76860, Note_on_c, 13, 49, 0
1, 76860, Note_on_c, 13, 54, 0
1, 76860, Note_on_c, 13, 63, 0
1, 76860, Note_on_c, 13, 58, 0
1, 76860, Note_on_c, 13, 51, 0
1, 76860, Note_on_c, 13, 48, 0
1, 76860, Note_on_c, 13, 52, 0
1, 76860, Note_on_c, 13, 60, 0
1, 76860, Pitch_bend_c, 7, 10745
1, 76860, Pitch_bend_c, 13, 8192
1, 76865, Pitch_bend_c, 7, 10731
1, 76870, Pitch_bend_c, 7, 10717
1, 76875, Pitch_bend_c, 7, 10704
1, 76880, Pitch_bend_c, 4, 8104
1, 76880, Pitch_bend_c, 6, 8104
1, 76880, Pitch_bend_c, 7, 10690
1, 76885, Pitch_bend_c, 7, 10676
1, 76890, Pitch_bend_c, 7, 10663
1, 76895, Pitch_bend_c, 7, 10649
1, 76900, Pitch_bend_c, 4, 7967
1, 76900, Pitch_bend_c, 6, 7967
1, 76900, Pitch_bend_c, 7, 10635
1, 76905, Pitch_bend_c, 7, 10615
1, 76910, Pitch_bend_c, 7, 10601
1, 76915, Pitch_bend_c, 7, 10588
1, 76920, Pitch_bend_c, 4, 7646
1, 76920, Pitch_bend_c, 6, 7646
1, 76920, Pitch_bend_c, 7, 10574
1, 76925, Pitch_bend_c, 7, 10560
1, 76930, Pitch_bend_c, 7, 10547
1, 76935, Pitch_bend_c, 7, 10533
1, 76940, Pitch_bend_c, 4, 7510
1, 76940, Pitch_bend_c, 6, 7510
1, 76940, Pitch_bend_c, 7, 10519
1, 76945, Pitch_bend_c, 7, 10506
1, 76950, Pitch_bend_c, 7, 10492
1, 76955, Pitch_bend_c, 7, 10472
1, 76960, Pitch_bend_c, 4, 7093
1, 76960, Pitch_bend_c, 6, 7093
1, 76960, Pitch_bend_c, 7, 10458
1, 76965, Pitch_bend_c, 7, 10444
1, 76970, Pitch_bend_c, 7, 10431
1, 76975, Pitch_bend_c, 7, 10417
1, 76980, Pitch_bend_c, 4, 7005
1, 76980, Pitch_bend_c, 6, 7005
1, 76980, Pitch_bend_c, 7, 10403
1, 76985, Pitch_bend_c, 7, 10390
1, 76990, Pitch_bend_c, 7, 10376
1, 76995, Pitch_bend_c, 7, 10362
1, 77000, Pitch_bend_c, 4, 6636
1, 77000, Pitch_bend_c, 6, 6636
1, 77000, Pitch_bend_c, 7, 10349
1, 77005, Pitch_bend_c, 7, 10328
1, 77010, Pitch_bend_c, 7, 10315
1, 77015, Pitch_bend_c, 7, 10301
1, 77020, Pitch_bend_c, 4, 6459
1, 77020, Pitch_bend_c, 6, 6459
1, 77020, Pitch_bend_c, 7, 10287
1, 77025, Pitch_bend_c, 7, 10274
1, 77030, Pitch_bend_c, 7, 10260
1, 77035, Pitch_bend_c, 7, 10246
1, 77040, Pitch_bend_c, 4, 6090
1, 77040, Pitch_bend_c, 6, 6090
1, 77040, Pitch_bend_c, 7, 10233
1, 77045, Pitch_bend_c, 7, 10219
1, 77050, Pitch_bend_c, 7, 10205
1, 77055, Pitch_bend_c, 7, 10185
1, 77060, Pitch_bend_c, 4, 5817
1, 77060, Pitch_bend_c, 6, 5817
1, 77060, Pitch_bend_c, 7, 10171
1, 77065, Pitch_bend_c, 7, 10158
1, 77070, Pitch_bend_c, 7, 10144
1, 77075, Pitch_bend_c, 7, 10130
1, 77080, Pitch_bend_c, 4, 5407
1, 77080, Pitch_bend_c, 6, 5407
1, 77080, Pitch_bend_c, 7, 10117
1, 77085, Pitch_bend_c, 7, 10103
1, 77090, Pitch_bend_c, 7, 10089
1, 77095, Pitch_bend_c, 7, 10076
1, 77100, Pitch_bend_c, 4, 5223
1, 77100, Pitch_bend_c, 6, 5223
1, 77100, Pitch_bend_c, 7, 10062
1, 77105, Pitch_bend_c, 7, 10042
1, 77110, Pitch_bend_c, 7, 10028
1, 77115, Pitch_bend_c, 7, 10014
1, 77120, Pitch_bend_c, 4, 4718
1, 77120, Pitch_bend_c, 6, 4718
1, 77120, Pitch_bend_c, 7, 10001
1, 77125, Pitch_bend_c, 7, 9987
1, 77130, Pitch_bend_c, 7, 9973
1, 77135, Pitch_bend_c, 7, 9960
1, 77140, Pitch_bend_c, 4, 4356
1, 77140, Pitch_bend_c, 6, 4356
1, 77140, Pitch_bend_c, 7, 9946
1, 77145, Pitch_bend_c, 7, 9932
1, 77150, Pitch_bend_c, 7, 9919
1, 77155, Pitch_bend_c, 7, 9898
1, 77160, Pitch_bend_c, 4, 4035
1, 77160, Pitch_bend_c, 6, 4035
1, 77160, Pitch_bend_c, 7, 9885
1, 77165, Pitch_bend_c, 7, 9871
1, 77170, Pitch_bend_c, 7, 9857
1, 77175, Pitch_bend_c, 7, 9844
1, 77180, Pitch_bend_c, 4, 3939
1, 77180, Pitch_bend_c, 6, 3939
1, 77180, Pitch_bend_c, 7, 9830
1, 77185, Pitch_bend_c, 7, 9816
1, 77190, Pitch_bend_c, 7, 9803
1, 77195, Pitch_bend_c, 7, 9789
1, 77200, Pitch_bend_c, 4, 3482
1, 77200, Pitch_bend_c, 6, 3482
1, 77200, Pitch_bend_c, 7, 9775
1, 77205, Pitch_bend_c, 7, 9755
1, 77210, Pitch_bend_c, 7, 9741
1, 77215, Pitch_bend_c, 7, 9728
1, 77220, Pitch_bend_c, 4, 3209
1, 77220, Pitch_bend_c, 6, 3209
1, 77220, Pitch_bend_c, 7, 9714
1, 77225, Pitch_bend_c, 7, 9700
1, 77230, Pitch_bend_c, 7, 9687
1, 77235, Pitch_bend_c, 7, 9673
1, 77240, Pitch_bend_c, 4, 2799
1, 77240, Pitch_bend_c, 6, 2799
1, 77240, Pitch_bend_c, 7, 9659
1, 77245, Pitch_bend_c, 7, 9646
1, 77250, Pitch_bend_c, 7, 9632
1, 77255, Pitch_bend_c, 7, 9611
1, 77260, Pitch_bend_c, 4, 2574
1, 77260, Pitch_bend_c, 6, 2574
1, 77260, Pitch_bend_c, 7, 9598
1, 77265, Pitch_bend_c, 7, 9584
1, 77270, Pitch_bend_c, 7, 9570
1, 77275, Pitch_bend_c, 7, 9557
1, 77280, Pitch_bend_c, 4, 2342
1, 77280, Pitch_bend_c, 6, 2342
1, 77300, Pitch_bend_c, 4, 2206
1, 77300, Pitch_bend_c, 6, 2206
1, 77320, Pitch_bend_c, 4, 1932
1, 77320, Pitch_bend_c, 6, 1932
1, 77340, Pitch_bend_c, 4, 1700
1, 77340, Pitch_bend_c, 6, 1700
1, 77360, Pitch_bend_c, 4, 1427
1, 77360, Pitch_bend_c, 6, 1427
1, 77380, Pitch_bend_c, 4, 1243
1, 77380, Pitch_bend_c, 6, 1243
1, 77400, Pitch_bend_c, 4, 929
1, 77400, Pitch_bend_c, 6, 929
1, 77420, Pitch_bend_c, 4, 697
1, 77420, Pitch_bend_c, 6, 697
1, 77440, Pitch_bend_c, 4, 376
1, 77440, Pitch_bend_c, 6, 376
1, 77460, Pitch_bend_c, 4, 192
1, 77460, Pitch_bend_c, 6, 192
1, 77480, Pitch_bend_c, 4, 14
1, 77480, Pitch_bend_c, 6, 14
1, 77500, Pitch_bend_c, 4, 0
1, 77500, Pitch_bend_c, 6, 0
1, 77520, Pitch_bend_c, 4, 0
1, 77520, Pitch_bend_c, 6, 0
1, 77540, Pitch_bend_c, 4, 0
1, 77540, Pitch_bend_c, 6, 0
1, 77560, Pitch_bend_c, 4, 0
1, 77560, Pitch_bend_c, 6, 0
1, 77580, Pitch_bend_c, 4, 0
1, 77580, Pitch_bend_c, 6, 0
1, 77605, Pitch_bend_c, 4, 0
1, 77605, Pitch_bend_c, 6, 0
1, 77640, Note_on_c, 4, 73, 0
1, 77640, Note_on_c, 4, 78, 0
1, 77640, Note_on_c, 6, 66, 0
1, 77640, Note_on_c, 6, 54, 0
1, 77640, Note_on_c, 4, 85, 0
1, 77640, Note_on_c, 6, 73, 0
1, 77640, Note_on_c, 4, 66, 0
1, 77640, Note_on_c, 6, 61, 0
1, 77640, Pitch_bend_c, 4, 8192
1, 77640, Control_c, 6, 7, 0
1, 77640, Pitch_bend_c, 6, 8192
1, 77760, Note_on_c, 7, 47, 0
1, 77760, Note_on_c, 7, 35, 0
1, 78240, Control_c, 6, 7, 127
1, 78720, Control_c, 13, 7, 0
1, 78720, Pitch_bend_c, 13, 8192
1, 78720, Note_on_c, 13, 75, 63
1, 78720, Note_on_c, 13, 74, 63
1, 78720, Note_on_c, 13, 73, 63
1, 78720, Note_on_c, 13, 72, 63
1, 78720, Note_on_c, 13, 60, 63
1, 78720, Note_on_c, 13, 71, 63
1, 78720, Note_on_c, 13, 70, 63
1, 78720, Note_on_c, 13, 69, 63
1, 78720, Note_on_c, 13, 68, 63
1, 78720, Note_on_c, 13, 67, 63
1, 78720, Note_on_c, 13, 66, 63
1, 78720, Note_on_c, 13, 65, 63
1, 78720, Note_on_c, 13, 64, 63
1, 78720, Note_on_c, 13, 62, 63
1, 78720, Note_on_c, 13, 63, 63
1, 78720, Note_on_c, 13, 61, 63
1, 80640, Pitch_bend_c, 0, 8192
1, 80640, Note_on_c, 0, 35, 95
1, 80640, Pitch_bend_c, 1, 8192
1, 80640, Note_on_c, 1, 59, 95
1, 80640, Note_on_c, 1, 71, 64
1, 80640, Note_on_c, 1, 23, 95
1, 80640, Pitch_bend_c, 2, 8192
1, 80640, Note_on_c, 2, 83, 94
1, 80640, Note_on_c, 2, 71, 64
1, 80640, Note_on_c, 2, 59, 127
1, 80640, Note_on_c, 2, 47, 95
1, 80640, Pitch_bend_c, 3, 8192
1, 80640, Note_on_c, 3, 71, 64
1, 80640, Note_on_c, 3, 35, 64
1, 80640, Note_on_c, 9, 57, 103
1, 80640, Note_on_c, 9, 52, 127
1, 80640, Note_on_c, 9, 49, 103
1, 80640, Note_on_c, 9, 42, 103
1, 80640, Note_on_c, 9, 35, 103
1, 80640, Note_on_c, 9, 82, 18
1, 80640, Note_on_c, 10, 23, 127
1, 80640, Control_c, 13, 7, 127
1, 80700, Control_c, 13, 7, 127
1, 80760, Note_on_c, 9, 82, 0
1, 80760, Note_on_c, 9, 35, 0
1, 80760, Note_on_c, 9, 42, 0
1, 80760, Note_on_c, 9, 82, 18
1, 80760, Control_c, 13, 7, 125
1, 80820, Note_on_c, 10, 23, 0
1, 80820, Control_c, 13, 7, 124
1, 80880, Note_on_c, 9, 82, 0
1, 80880, Note_on_c, 9, 42, 73
1, 80880, Note_on_c, 9, 82, 31
1, 80880, Note_on_c, 10, 23, 93
1, 80880, Control_c, 13, 7, 121
1, 80940, Note_on_c, 10, 23, 0
1, 80940, Control_c, 13, 7, 119
1, 81000, Note_on_c, 9, 82, 0
1, 81000, Note_on_c, 2, 47, 0
1, 81000, Note_on_c, 3, 35, 0
1, 81000, Note_on_c, 0, 35, 0
1, 81000, Note_on_c, 2, 83, 0
1, 81000, Note_on_c, 1, 59, 0
1, 81000, Note_on_c, 1, 23, 0
1, 81000, Note_on_c, 1, 71, 0
1, 81000, Note_on_c, 9, 42, 0
1, 81000, Note_on_c, 2, 59, 0
1, 81000, Note_on_c, 2, 71, 0
1, 81000, Note_on_c, 3, 71, 0
1, 81000, Pitch_bend_c, 0, 0
1, 81000, Note_on_c, 0, 47, 95
1, 81000, Pitch_bend_c, 1, 0
1, 81000, Note_on_c, 1, 71, 95
1, 81000, Note_on_c, 1, 83, 64
1, 81000, Note_on_c, 1, 35, 95
1, 81000, Pitch_bend_c, 2, 0
1, 81000, Note_on_c, 2, 95, 64
1, 81000, Note_on_c, 2, 83, 64
1, 81000, Note_on_c, 2, 71, 127
1, 81000, Note_on_c, 2, 59, 95
1, 81000, Pitch_bend_c, 3, 0
1, 81000, Note_on_c, 3, 83, 64
1, 81000, Note_on_c, 3, 47, 64
1, 81000, Note_on_c, 9, 82, 39
1, 81000, Note_on_c, 10, 23, 75
1, 81000, Control_c, 13, 7, 117
1, 81015, Pitch_bend_c, 0, 8192
1, 81015, Pitch_bend_c, 1, 8192
1, 81015, Pitch_bend_c, 2, 8192
1, 81015, Pitch_bend_c, 3, 8192
1, 81060, Note_on_c, 10, 23, 0
1, 81060, Control_c, 13, 7, 114
1, 81120, Note_on_c, 2, 59, 0
1, 81120, Note_on_c, 1, 83, 0
1, 81120, Note_on_c, 1, 71, 0
1, 81120, Note_on_c, 0, 47, 0
1, 81120, Note_on_c, 1, 35, 0
1, 81120, Note_on_c, 9, 82, 0
1, 81120, Note_on_c, 2, 83, 0
1, 81120, Note_on_c, 2, 95, 0
1, 81120, Note_on_c, 3, 47, 0
1, 81120, Note_on_c, 2, 71, 0
1, 81120, Note_on_c, 3, 83, 0
1, 81120, Note_on_c, 9, 42, 73
1, 81120, Note_on_c, 9, 35, 102
1, 81120, Note_on_c, 9, 40, 89
1, 81120, Note_on_c, 9, 28, 103
1, 81120, Note_on_c, 9, 82, 40
1, 81120, Note_on_c, 10, 23, 68
1, 81120, Control_c, 13, 7, 112
1, 81180, Note_on_c, 10, 23, 0
1, 81180, Control_c, 13, 7, 110
1, 81240, Note_on_c, 9, 40, 0
1, 81240, Note_on_c, 9, 35, 0
1, 81240, Note_on_c, 9, 42, 0
1, 81240, Note_on_c, 9, 82, 0
1, 81240, Note_on_c, 9, 28, 0
1, 81240, Note_on_c, 9, 82, 25
1, 81240, Note_on_c, 10, 23, 75
1, 81240, Control_c, 13, 7, 108
1, 81300, Note_on_c, 10, 23, 0
1, 81300, Control_c, 13, 7, 106
1, 81360, Note_on_c, 9, 82, 0
1, 81360, Note_on_c, 0, 47, 95
1, 81360, Note_on_c, 1, 71, 95
1, 81360, Note_on_c, 1, 83, 64
1, 81360, Note_on_c, 1, 35, 95
1, 81360, Note_on_c, 2, 95, 64
1, 81360, Note_on_c, 2, 83, 64
1, 81360, Note_on_c, 2, 71, 127
1, 81360, Note_on_c, 2, 59, 95
1, 81360, Note_on_c, 3, 83, 64
1, 81360, Note_on_c, 3, 47, 64
1, 81360, Note_on_c, 9, 42, 73
1, 81360, Note_on_c, 9, 82, 11
1, 81360, Note_on_c, 10, 23, 99
1, 81360, Control_c, 13, 7, 105
1, 81420, Note_on_c, 10, 23, 0
1, 81420, Control_c, 13, 7, 103
1, 81480, Note_on_c, 9, 82, 0
1, 81480, Note_on_c, 9, 42, 0
1, 81480, Note_on_c, 9, 82, 11
1, 81480, Note_on_c, 10, 23, 127
1, 81480, Control_c, 13, 7, 101
1, 81540, Control_c, 13, 7, 99
1, 81600, Note_on_c, 9, 82, 0
1, 81600, Note_on_c, 1, 71, 0
1, 81600, Note_on_c, 3, 83, 0
1, 81600, Note_on_c, 0, 47, 0
1, 81600, Note_on_c, 1, 83, 0
1, 81600, Note_on_c, 2, 83, 0
1, 81600, Note_on_c, 2, 95, 0
1, 81600, Note_on_c, 1, 35, 0
1, 81600, Note_on_c, 2, 59, 0
1, 81600, Note_on_c, 2, 71, 0
1, 81600, Note_on_c, 3, 47, 0
1, 81600, Note_on_c, 9, 42, 88
1, 81600, Note_on_c, 9, 35, 102
1, 81600, Note_on_c, 9, 82, 18
1, 81600, Control_c, 13, 7, 96
1, 81660, Note_on_c, 10, 23, 0
1, 81660, Control_c, 13, 7, 95
1, 81720, Note_on_c, 9, 82, 0
1, 81720, Note_on_c, 9, 35, 0
1, 81720, Note_on_c, 9, 42, 0
1, 81720, Note_on_c, 0, 43, 95
1, 81720, Note_on_c, 1, 67, 95
1, 81720, Note_on_c, 1, 79, 64
1, 81720, Note_on_c, 1, 31, 95
1, 81720, Note_on_c, 2, 91, 64
1, 81720, Note_on_c, 2, 79, 64
1, 81720, Note_on_c, 2, 67, 127
1, 81720, Note_on_c, 2, 55, 95
1, 81720, Note_on_c, 3, 79, 64
1, 81720, Note_on_c, 3, 43, 64
1, 81720, Note_on_c, 9, 82, 18
1, 81720, Note_on_c, 10, 23, 93
1, 81720, Control_c, 13, 7, 92
1, 81780, Note_on_c, 10, 23, 0
1, 81780, Control_c, 13, 7, 91
1, 81840, Note_on_c, 2, 55, 0
1, 81840, Note_on_c, 1, 79, 0
1, 81840, Note_on_c, 1, 67, 0
1, 81840, Note_on_c, 0, 43, 0
1, 81840, Note_on_c, 1, 31, 0
1, 81840, Note_on_c, 9, 82, 0
1, 81840, Note_on_c, 2, 79, 0
1, 81840, Note_on_c, 2, 91, 0
1, 81840, Note_on_c, 3, 43, 0
1, 81840, Note_on_c, 2, 67, 0
1, 81840, Note_on_c, 3, 79, 0
1, 81840, Pitch_bend_c, 0, 5100
1, 81840, Note_on_c, 0, 47, 95
1, 81840, Pitch_bend_c, 1, 5100
1, 81840, Note_on_c, 1, 71, 95
1, 81840, Note_on_c, 1, 83, 64
1, 81840, Note_on_c, 1, 35, 95
1, 81840, Pitch_bend_c, 2, 5100
1, 81840, Note_on_c, 2, 95, 64
1, 81840, Note_on_c, 2, 83, 64
1, 81840, Note_on_c, 2, 71, 127
1, 81840, Note_on_c, 2, 59, 95
1, 81840, Pitch_bend_c, 3, 5100
1, 81840, Note_on_c, 3, 83, 64
1, 81840, Note_on_c, 3, 47, 64
1, 81840, Note_on_c, 9, 42, 73
1, 81840, Note_on_c, 9, 82, 31
1, 81840, Note_on_c, 10, 23, 75
1, 81840, Control_c, 13, 7, 90
1, 81855, Pitch_bend_c, 0, 6697
1, 81855, Pitch_bend_c, 1, 6697
1, 81855, Pitch_bend_c, 2, 6697
1, 81855, Pitch_bend_c, 3, 6697
1, 81900, Note_on_c, 10, 23, 0
1, 81900, Control_c, 13, 7, 88
1, 81920, Pitch_bend_c, 0, 6841
1, 81920, Pitch_bend_c, 1, 6841
1, 81920, Pitch_bend_c, 2, 6841
1, 81920, Pitch_bend_c, 3, 6841
1, 81950, Pitch_bend_c, 0, 6984
1, 81950, Pitch_bend_c, 1, 6984
1, 81950, Pitch_bend_c, 2, 6984
1, 81950, Pitch_bend_c, 3, 6984
1, 81960, Note_on_c, 9, 82, 0
1, 81960, Note_on_c, 9, 42, 0
1, 81960, Note_on_c, 9, 82, 39
1, 81960, Note_on_c, 10, 23, 59
1, 81960, Control_c, 13, 7, 86
1, 81965, Pitch_bend_c, 0, 7175
1, 81965, Pitch_bend_c, 1, 7175
1, 81965, Pitch_bend_c, 2, 7175
1, 81965, Pitch_bend_c, 3, 7175
1, 81980, Pitch_bend_c, 0, 7319
1, 81980, Pitch_bend_c, 1, 7319
1, 81980, Pitch_bend_c, 2, 7319
1, 81980, Pitch_bend_c, 3, 7319
1, 82000, Pitch_bend_c, 0, 7612
1, 82000, Pitch_bend_c, 1, 7612
1, 82000, Pitch_bend_c, 2, 7612
1, 82000, Pitch_bend_c, 3, 7612
1, 82015, Pitch_bend_c, 0, 7756
1, 82015, Pitch_bend_c, 1, 7756
1, 82015, Pitch_bend_c, 2, 7756
1, 82015, Pitch_bend_c, 3, 7756
1, 82020, Note_on_c, 10, 23, 0
1, 82020, Control_c, 13, 7, 83
1, 82030, Pitch_bend_c, 0, 7899
1, 82030, Pitch_bend_c, 1, 7899
1, 82030, Pitch_bend_c, 2, 7899
1, 82030, Pitch_bend_c, 3, 7899
1, 82045, Pitch_bend_c, 0, 8049
1, 82045, Pitch_bend_c, 1, 8049
1, 82045, Pitch_bend_c, 2, 8049
1, 82045, Pitch_bend_c, 3, 8049
1, 82060, Pitch_bend_c, 0, 8192
1, 82060, Pitch_bend_c, 1, 8192
1, 82060, Pitch_bend_c, 2, 8192
1, 82060, Pitch_bend_c, 3, 8192
1, 82080, Note_on_c, 3, 47, 0
1, 82080, Note_on_c, 3, 83, 0
1, 82080, Note_on_c, 1, 71, 0
1, 82080, Note_on_c, 0, 47, 0
1, 82080, Note_on_c, 1, 35, 0
1, 82080, Note_on_c, 9, 82, 0
1, 82080, Note_on_c, 2, 83, 0
1, 82080, Note_on_c, 2, 95, 0
1, 82080, Note_on_c, 1, 83, 0
1, 82080, Note_on_c, 2, 71, 0
1, 82080, Note_on_c, 2, 59, 0
1, 82080, Note_on_c, 0, 47, 95
1, 82080, Note_on_c, 1, 71, 95
1, 82080, Note_on_c, 1, 83, 64
1, 82080, Note_on_c, 1, 35, 95
1, 82080, Note_on_c, 2, 95, 64
1, 82080, Note_on_c, 2, 83, 64
1, 82080, Note_on_c, 2, 71, 127
1, 82080, Note_on_c, 2, 59, 95
1, 82080, Note_on_c, 3, 83, 64
1, 82080, Note_on_c, 3, 47, 64
1, 82080, Note_on_c, 9, 42, 73
1, 82080, Note_on_c, 9, 40, 90
1, 82080, Note_on_c, 9, 35, 103
1, 82080, Note_on_c, 9, 28, 103
1, 82080, Note_on_c, 9, 82, 40
1, 82080, Note_on_c, 10, 23, 58
1, 82080, Control_c, 13, 7, 82
1, 82140, Note_on_c, 10, 23, 0
1, 82140, Control_c, 13, 7, 80
1, 82200, Note_on_c, 9, 82, 0
1, 82200, Note_on_c, 9, 28, 0
1, 82200, Note_on_c, 9, 35, 0
1, 82200, Note_on_c, 9, 40, 0
1, 82200, Note_on_c, 9, 42, 0
1, 82200, Note_on_c, 9, 82, 25
1, 82200, Note_on_c, 10, 23, 72
1, 82200, Control_c, 13, 7, 77
1, 82260, Note_on_c, 10, 23, 0
1, 82260, Control_c, 13, 7, 76
1, 82320, Note_on_c, 3, 47, 0
1, 82320, Note_on_c, 3, 83, 0
1, 82320, Note_on_c, 1, 71, 0
1, 82320, Note_on_c, 0, 47, 0
1, 82320, Note_on_c, 1, 35, 0
1, 82320, Note_on_c, 9, 82, 0
1, 82320, Note_on_c, 2, 83, 0
1, 82320, Note_on_c, 2, 95, 0
1, 82320, Note_on_c, 1, 83, 0
1, 82320, Note_on_c, 2, 71, 0
1, 82320, Note_on_c, 2, 59, 0
1, 82320, Note_on_c, 0, 47, 95
1, 82320, Note_on_c, 1, 71, 95
1, 82320, Note_on_c, 1, 83, 64
1, 82320, Note_on_c, 1, 35, 95
1, 82320, Note_on_c, 2, 95, 64
1, 82320, Note_on_c, 2, 83, 64
1, 82320, Note_on_c, 2, 71, 127
1, 82320, Note_on_c, 2, 59, 95
1, 82320, Note_on_c, 3, 83, 64
1, 82320, Note_on_c, 3, 47, 64
1, 82320, Note_on_c, 9, 42, 73
1, 82320, Note_on_c, 9, 82, 11
1, 82320, Note_on_c, 10, 23, 91
1, 82320, Control_c, 13, 7, 74
1, 82350, Pitch_bend_c, 0, 8335
1, 82350, Pitch_bend_c, 1, 8335
1, 82350, Pitch_bend_c, 2, 8335
1, 82350, Pitch_bend_c, 3, 8335
1, 82380, Note_on_c, 10, 23, 0
1, 82380, Control_c, 13, 7, 71
1, 82400, Pitch_bend_c, 0, 8485
1, 82400, Pitch_bend_c, 1, 8485
1, 82400, Pitch_bend_c, 2, 8485
1, 82400, Pitch_bend_c, 3, 8485
1, 82415, Pitch_bend_c, 0, 8628
1, 82415, Pitch_bend_c, 1, 8628
1, 82415, Pitch_bend_c, 2, 8628
1, 82415, Pitch_bend_c, 3, 8628
1, 82430, Pitch_bend_c, 0, 8772
1, 82430, Pitch_bend_c, 1, 8772
1, 82430, Pitch_bend_c, 2, 8772
1, 82430, Pitch_bend_c, 3, 8772
1, 82440, Note_on_c, 9, 82, 0
1, 82440, Note_on_c, 9, 42, 0
1, 82440, Note_on_c, 9, 82, 11
1, 82440, Note_on_c, 10, 23, 127
1, 82440, Control_c, 13, 7, 69
1, 82445, Pitch_bend_c, 0, 9065
1, 82445, Pitch_bend_c, 1, 9065
1, 82445, Pitch_bend_c, 2, 9065
1, 82445, Pitch_bend_c, 3, 9065
1, 82460, Pitch_bend_c, 0, 9400
1, 82460, Pitch_bend_c, 1, 9400
1, 82460, Pitch_bend_c, 2, 9400
1, 82460, Pitch_bend_c, 3, 9400
1, 82480, Pitch_bend_c, 0, 9543
1, 82480, Pitch_bend_c, 1, 9543
1, 82480, Pitch_bend_c, 2, 9543
1, 82480, Pitch_bend_c, 3, 9543
1, 82495, Pitch_bend_c, 0, 9830
1, 82495, Pitch_bend_c, 1, 9830
1, 82495, Pitch_bend_c, 2, 9830
1, 82495, Pitch_bend_c, 3, 9830
1, 82500, Control_c, 13, 7, 68
1, 82510, Pitch_bend_c, 0, 10110
1, 82510, Pitch_bend_c, 1, 10110
1, 82510, Pitch_bend_c, 2, 10110
1, 82510, Pitch_bend_c, 3, 10110
1, 82525, Pitch_bend_c, 0, 10253
1, 82525, Pitch_bend_c, 1, 10253
1, 82525, Pitch_bend_c, 2, 10253
1, 82525, Pitch_bend_c, 3, 10253
1, 82540, Pitch_bend_c, 0, 10397
1, 82540, Pitch_bend_c, 1, 10397
1, 82540, Pitch_bend_c, 2, 10397
1, 82540, Pitch_bend_c, 3, 10397
1, 82560, Note_on_c, 9, 82, 0
1, 82560, Note_on_c, 1, 71, 0
1, 82560, Note_on_c, 3, 83, 0
1, 82560, Note_on_c, 0, 47, 0
1, 82560, Note_on_c, 1, 83, 0
1, 82560, Note_on_c, 2, 83, 0
1, 82560, Note_on_c, 2, 95, 0
1, 82560, Note_on_c, 1, 35, 0
1, 82560, Note_on_c, 2, 59, 0
1, 82560, Note_on_c, 2, 71, 0
1, 82560, Note_on_c, 3, 47, 0
1, 82560, Pitch_bend_c, 0, 12165
1, 82560, Note_on_c, 0, 35, 95
1, 82560, Pitch_bend_c, 1, 12165
1, 82560, Note_on_c, 1, 59, 95
1, 82560, Note_on_c, 1, 71, 64
1, 82560, Note_on_c, 1, 23, 95
1, 82560, Pitch_bend_c, 2, 12165
1, 82560, Note_on_c, 2, 83, 64
1, 82560, Note_on_c, 2, 71, 64
1, 82560, Note_on_c, 2, 59, 127
1, 82560, Note_on_c, 2, 47, 95
1, 82560, Pitch_bend_c, 3, 12165
1, 82560, Note_on_c, 3, 71, 64
1, 82560, Note_on_c, 3, 35, 64
1, 82560, Note_on_c, 9, 82, 18
1, 82560, Note_on_c, 9, 42, 103
1, 82560, Note_on_c, 9, 35, 103
1, 82560, Control_c, 13, 7, 66
1, 82575, Pitch_bend_c, 0, 8192
1, 82575, Pitch_bend_c, 1, 8192
1, 82575, Pitch_bend_c, 2, 8192
1, 82575, Pitch_bend_c, 3, 8192
1, 82620, Control_c, 13, 7, 63
1, 82680, Note_on_c, 9, 35, 0
1, 82680, Note_on_c, 9, 42, 0
1, 82680, Note_on_c, 9, 82, 0
1, 82680, Note_on_c, 10, 23, 0
1, 82680, Note_on_c, 9, 82, 18
1, 82680, Note_on_c, 10, 23, 79
1, 82680, Control_c, 13, 7, 60
1, 82740, Note_on_c, 10, 23, 0
1, 82740, Control_c, 13, 7, 59
1, 82800, Note_on_c, 9, 82, 0
1, 82800, Note_on_c, 9, 82, 31
1, 82800, Note_on_c, 9, 42, 73
1, 82800, Note_on_c, 10, 23, 64
1, 82800, Control_c, 13, 7, 57
1, 82860, Note_on_c, 10, 23, 0
1, 82860, Control_c, 13, 7, 55
1, 82920, Note_on_c, 9, 42, 0
1, 82920, Note_on_c, 1, 71, 0
1, 82920, Note_on_c, 2, 47, 0
1, 82920, Note_on_c, 1, 59, 0
1, 82920, Note_on_c, 0, 35, 0
1, 82920, Note_on_c, 1, 23, 0
1, 82920, Note_on_c, 9, 82, 0
1, 82920, Note_on_c, 2, 71, 0
1, 82920, Note_on_c, 2, 83, 0
1, 82920, Note_on_c, 3, 71, 0
1, 82920, Note_on_c, 2, 59, 0
1, 82920, Note_on_c, 3, 35, 0
1, 82920, Pitch_bend_c, 0, 0
1, 82920, Note_on_c, 0, 47, 95
1, 82920, Pitch_bend_c, 1, 0
1, 82920, Note_on_c, 1, 71, 95
1, 82920, Note_on_c, 1, 83, 64
1, 82920, Note_on_c, 1, 35, 95
1, 82920, Pitch_bend_c, 2, 0
1, 82920, Note_on_c, 2, 95, 64
1, 82920, Note_on_c, 2, 83, 64
1, 82920, Note_on_c, 2, 71, 127
1, 82920, Note_on_c, 2, 59, 95
1, 82920, Pitch_bend_c, 3, 0
1, 82920, Note_on_c, 3, 83, 64
1, 82920, Note_on_c, 3, 47, 64
1, 82920, Note_on_c, 9, 82, 39
1, 82920, Note_on_c, 10, 23, 62
1, 82920, Control_c, 13, 7, 52
1, 82935, Pitch_bend_c, 0, 8192
1, 82935, Pitch_bend_c, 1, 8192
1, 82935, Pitch_bend_c, 2, 8192
1, 82935, Pitch_bend_c, 3, 8192
1, 82980, Note_on_c, 10, 23, 0
1, 82980, Control_c, 13, 7, 50
1, 83040, Note_on_c, 2, 59, 0
1, 83040, Note_on_c, 1, 83, 0
1, 83040, Note_on_c, 1, 71, 0
1, 83040, Note_on_c, 0, 47, 0
1, 83040, Note_on_c, 1, 35, 0
1, 83040, Note_on_c, 9, 82, 0
1, 83040, Note_on_c, 2, 83, 0
1, 83040, Note_on_c, 2, 95, 0
1, 83040, Note_on_c, 3, 47, 0
1, 83040, Note_on_c, 2, 71, 0
1, 83040, Note_on_c, 3, 83, 0
1, 83040, Note_on_c, 9, 82, 40
1, 83040, Note_on_c, 9, 42, 73
1, 83040, Note_on_c, 9, 40, 91
1, 83040, Note_on_c, 9, 35, 103
1, 83040, Note_on_c, 9, 28, 102
1, 83040, Note_on_c, 10, 23, 66
1, 83040, Control_c, 13, 7, 48
1, 83100, Note_on_c, 10, 23, 0
1, 83100, Control_c, 13, 7, 47
1, 83160, Note_on_c, 9, 40, 0
1, 83160, Note_on_c, 9, 42, 0
1, 83160, Note_on_c, 9, 82, 0
1, 83160, Note_on_c, 9, 28, 0
1, 83160, Note_on_c, 9, 35, 0
1, 83160, Note_on_c, 9, 82, 25
1, 83160, Note_on_c, 10, 23, 91
1, 83160, Control_c, 13, 7, 45
1, 83220, Note_on_c, 10, 23, 0
1, 83220, Control_c, 13, 7, 44
1, 83280, Note_on_c, 9, 82, 0
1, 83280, Note_on_c, 0, 47, 95
1, 83280, Note_on_c, 1, 71, 95
1, 83280, Note_on_c, 1, 83, 64
1, 83280, Note_on_c, 1, 35, 95
1, 83280, Note_on_c, 2, 95, 64
1, 83280, Note_on_c, 2, 83, 64
1, 83280, Note_on_c, 2, 71, 127
1, 83280, Note_on_c, 2, 59, 95
1, 83280, Note_on_c, 3, 83, 64
1, 83280, Note_on_c, 3, 47, 64
1, 83280, Note_on_c, 9, 82, 11
1, 83280, Note_on_c, 9, 42, 73
1, 83280, Note_on_c, 10, 23, 98
1, 83280, Control_c, 13, 7, 42
1, 83340, Note_on_c, 10, 23, 0
1, 83340, Control_c, 13, 7, 41
1, 83400, Note_on_c, 9, 42, 0
1, 83400, Note_on_c, 9, 82, 0
1, 83400, Note_on_c, 9, 82, 11
1, 83400, Note_on_c, 10, 23, 127
1, 83400, Control_c, 13, 7, 38
1, 83460, Control_c, 13, 7, 36
1, 83520, Note_on_c, 9, 82, 0
1, 83520, Note_on_c, 1, 71, 0
1, 83520, Note_on_c, 3, 83, 0
1, 83520, Note_on_c, 0, 47, 0
1, 83520, Note_on_c, 1, 83, 0
1, 83520, Note_on_c, 2, 83, 0
1, 83520, Note_on_c, 2, 95, 0
1, 83520, Note_on_c, 1, 35, 0
1, 83520, Note_on_c, 2, 59, 0
1, 83520, Note_on_c, 2, 71, 0
1, 83520, Note_on_c, 3, 47, 0
1, 83520, Note_on_c, 0, 47, 95
1, 83520, Note_on_c, 1, 71, 95
1, 83520, Note_on_c, 1, 83, 64
1, 83520, Note_on_c, 1, 35, 95
1, 83520, Note_on_c, 2, 95, 64
1, 83520, Note_on_c, 2, 83, 64
1, 83520, Note_on_c, 2, 71, 127
1, 83520, Note_on_c, 2, 59, 95
1, 83520, Note_on_c, 3, 83, 64
1, 83520, Note_on_c, 3, 47, 64
1, 83520, Note_on_c, 9, 82, 18
1, 83520, Note_on_c, 9, 42, 88
1, 83520, Note_on_c, 9, 35, 104
1, 83520, Control_c, 13, 7, 34
1, 83550, Pitch_bend_c, 0, 8049
1, 83550, Pitch_bend_c, 1, 8049
1, 83550, Pitch_bend_c, 2, 8049
1, 83550, Pitch_bend_c, 3, 8049
1, 83580, Note_on_c, 10, 23, 0
1, 83580, Pitch_bend_c, 0, 7899
1, 83580, Pitch_bend_c, 1, 7899
1, 83580, Pitch_bend_c, 2, 7899
1, 83580, Pitch_bend_c, 3, 7899
1, 83580, Control_c, 13, 7, 33
1, 83615, Pitch_bend_c, 0, 7756
1, 83615, Pitch_bend_c, 1, 7756
1, 83615, Pitch_bend_c, 2, 7756
1, 83615, Pitch_bend_c, 3, 7756
1, 83640, Note_on_c, 9, 35, 0
1, 83640, Note_on_c, 9, 42, 0
1, 83640, Note_on_c, 9, 82, 0
1, 83640, Note_on_c, 9, 82, 18
1, 83640, Note_on_c, 10, 23, 66
1, 83640, Control_c, 13, 7, 31
1, 83645, Pitch_bend_c, 0, 7612
1, 83645, Pitch_bend_c, 1, 7612
1, 83645, Pitch_bend_c, 2, 7612
1, 83645, Pitch_bend_c, 3, 7612
1, 83680, Pitch_bend_c, 0, 7469
1, 83680, Pitch_bend_c, 1, 7469
1, 83680, Pitch_bend_c, 2, 7469
1, 83680, Pitch_bend_c, 3, 7469
1, 83700, Note_on_c, 10, 23, 0
1, 83700, Note_on_c, 3, 83, 0
1, 83700, Note_on_c, 1, 71, 0
1, 83700, Note_on_c, 0, 47, 0
1, 83700, Note_on_c, 1, 83, 0
1, 83700, Note_on_c, 2, 83, 0
1, 83700, Note_on_c, 2, 95, 0
1, 83700, Note_on_c, 1, 35, 0
1, 83700, Note_on_c, 2, 59, 0
1, 83700, Note_on_c, 2, 71, 0
1, 83700, Note_on_c, 3, 47, 0
1, 83700, Control_c, 13, 7, 29
1, 83760, Note_on_c, 9, 82, 0
1, 83760, Note_on_c, 0, 47, 95
1, 83760, Note_on_c, 1, 71, 95
1, 83760, Note_on_c, 1, 83, 64
1, 83760, Note_on_c, 1, 35, 95
1, 83760, Note_on_c, 2, 95, 64
1, 83760, Note_on_c, 2, 83, 64
1, 83760, Note_on_c, 2, 71, 127
1, 83760, Note_on_c, 2, 59, 95
1, 83760, Note_on_c, 3, 83, 64
1, 83760, Note_on_c, 3, 47, 64
1, 83760, Note_on_c, 9, 82, 31
1, 83760, Note_on_c, 9, 42, 73
1, 83760, Note_on_c, 10, 23, 74
1, 83760, Control_c, 13, 7, 29
1, 83775, Pitch_bend_c, 0, 7319
1, 83775, Pitch_bend_c, 1, 7319
1, 83775, Pitch_bend_c, 2, 7319
1, 83775, Pitch_bend_c, 3, 7319
1, 83820, Note_on_c, 10, 23, 0
1, 83820, Pitch_bend_c, 0, 7175
1, 83820, Pitch_bend_c, 1, 7175
1, 83820, Pitch_bend_c, 2, 7175
1, 83820, Pitch_bend_c, 3, 7175
1, 83820, Control_c, 13, 7, 26
1, 83840, Pitch_bend_c, 0, 6984
1, 83840, Pitch_bend_c, 1, 6984
1, 83840, Pitch_bend_c, 2, 6984
1, 83840, Pitch_bend_c, 3, 6984
1, 83870, Pitch_bend_c, 0, 6841
1, 83870, Pitch_bend_c, 1, 6841
1, 83870, Pitch_bend_c, 2, 6841
1, 83870, Pitch_bend_c, 3, 6841
1, 83880, Note_on_c, 9, 42, 0
1, 83880, Note_on_c, 9, 82, 0
1, 83880, Note_on_c, 9, 82, 39
1, 83880, Note_on_c, 10, 23, 84
1, 83880, Control_c, 13, 7, 24
1, 83900, Pitch_bend_c, 0, 6697
1, 83900, Pitch_bend_c, 1, 6697
1, 83900, Pitch_bend_c, 2, 6697
1, 83900, Pitch_bend_c, 3, 6697
1, 83940, Note_on_c, 10, 23, 0
1, 83940, Control_c, 13, 7, 21
1, 83980, Pitch_bend_c, 0, 6554
1, 83980, Pitch_bend_c, 1, 6554
1, 83980, Pitch_bend_c, 2, 6554
1, 83980, Pitch_bend_c, 3, 6554
1, 84000, Note_on_c, 3, 47, 0
1, 84000, Note_on_c, 3, 83, 0
1, 84000, Note_on_c, 1, 71, 0
1, 84000, Note_on_c, 0, 47, 0
1, 84000, Note_on_c, 1, 35, 0
1, 84000, Note_on_c, 9, 82, 0
1, 84000, Note_on_c, 2, 83, 0
1, 84000, Note_on_c, 2, 95, 0
1, 84000, Note_on_c, 1, 83, 0
1, 84000, Note_on_c, 2, 71, 0
1, 84000, Note_on_c, 2, 59, 0
1, 84000, Note_on_c, 0, 47, 95
1, 84000, Note_on_c, 1, 71, 95
1, 84000, Note_on_c, 1, 83, 64
1, 84000, Note_on_c, 1, 35, 95
1, 84000, Note_on_c, 2, 95, 64
1, 84000, Note_on_c, 2, 83, 64
1, 84000, Note_on_c, 2, 71, 127
1, 84000, Note_on_c, 2, 59, 95
1, 84000, Note_on_c, 3, 83, 64
1, 84000, Note_on_c, 3, 47, 64
1, 84000, Note_on_c, 9, 82, 40
1, 84000, Note_on_c, 9, 42, 73
1, 84000, Note_on_c, 9, 40, 92
1, 84000, Note_on_c, 9, 35, 104
1, 84000, Note_on_c, 9, 28, 102
1, 84000, Note_on_c, 10, 35, 127
1, 84000, Control_c, 13, 7, 19
1, 84030, Pitch_bend_c, 0, 6418
1, 84030, Pitch_bend_c, 1, 6418
1, 84030, Pitch_bend_c, 2, 6418
1, 84030, Pitch_bend_c, 3, 6418
1, 84045, Pitch_bend_c, 0, 6274
1, 84045, Pitch_bend_c, 1, 6274
1, 84045, Pitch_bend_c, 2, 6274
1, 84045, Pitch_bend_c, 3, 6274
1, 84060, Pitch_bend_c, 0, 6131
1, 84060, Pitch_bend_c, 1, 6131
1, 84060, Pitch_bend_c, 2, 6131
1, 84060, Pitch_bend_c, 3, 6131
1, 84060, Control_c, 13, 7, 17
1, 84080, Pitch_bend_c, 0, 5987
1, 84080, Pitch_bend_c, 1, 5987
1, 84080, Pitch_bend_c, 2, 5987
1, 84080, Pitch_bend_c, 3, 5987
1, 84095, Pitch_bend_c, 0, 5803
1, 84095, Pitch_bend_c, 1, 5803
1, 84095, Pitch_bend_c, 2, 5803
1, 84095, Pitch_bend_c, 3, 5803
1, 84110, Pitch_bend_c, 0, 5660
1, 84110, Pitch_bend_c, 1, 5660
1, 84110, Pitch_bend_c, 2, 5660
1, 84110, Pitch_bend_c, 3, 5660
1, 84120, Note_on_c, 9, 28, 0
1, 84120, Note_on_c, 9, 35, 0
1, 84120, Note_on_c, 9, 40, 0
1, 84120, Note_on_c, 9, 42, 0
1, 84120, Note_on_c, 9, 82, 0
1, 84120, Note_on_c, 9, 82, 25
1, 84120, Control_c, 13, 7, 15
1, 84125, Pitch_bend_c, 0, 5516
1, 84125, Pitch_bend_c, 1, 5516
1, 84125, Pitch_bend_c, 2, 5516
1, 84125, Pitch_bend_c, 3, 5516
1, 84140, Pitch_bend_c, 0, 5380
1, 84140, Pitch_bend_c, 1, 5380
1, 84140, Pitch_bend_c, 2, 5380
1, 84140, Pitch_bend_c, 3, 5380
1, 84160, Pitch_bend_c, 0, 5237
1, 84160, Pitch_bend_c, 1, 5237
1, 84160, Pitch_bend_c, 2, 5237
1, 84160, Pitch_bend_c, 3, 5237
1, 84180, Note_on_c, 10, 35, 0
1, 84180, Control_c, 13, 7, 13
1, 84190, Pitch_bend_c, 0, 5100
1, 84190, Pitch_bend_c, 1, 5100
1, 84190, Pitch_bend_c, 2, 5100
1, 84190, Pitch_bend_c, 3, 5100
1, 84240, Note_on_c, 3, 83, 0
1, 84240, Note_on_c, 2, 59, 0
1, 84240, Note_on_c, 1, 83, 0
1, 84240, Note_on_c, 1, 71, 0
1, 84240, Note_on_c, 0, 47, 0
1, 84240, Note_on_c, 9, 82, 0
1, 84240, Note_on_c, 2, 95, 0
1, 84240, Note_on_c, 1, 35, 0
1, 84240, Note_on_c, 2, 83, 0
1, 84240, Note_on_c, 2, 71, 0
1, 84240, Note_on_c, 3, 47, 0
1, 84240, Note_on_c, 0, 47, 95
1, 84240, Note_on_c, 1, 71, 95
1, 84240, Note_on_c, 1, 83, 64
1, 84240, Note_on_c, 1, 35, 95
1, 84240, Note_on_c, 2, 95, 64
1, 84240, Note_on_c, 2, 83, 64
1, 84240, Note_on_c, 2, 71, 127
1, 84240, Note_on_c, 2, 59, 95
1, 84240, Note_on_c, 3, 83, 64
1, 84240, Note_on_c, 3, 47, 64
1, 84240, Note_on_c, 9, 82, 11
1, 84240, Note_on_c, 9, 42, 73
1, 84240, Note_on_c, 10, 23, 103
1, 84240, Control_c, 13, 7, 11
1, 84255, Pitch_bend_c, 0, 4963
1, 84255, Pitch_bend_c, 1, 4963
1, 84255, Pitch_bend_c, 2, 4963
1, 84255, Pitch_bend_c, 3, 4963
1, 84270, Pitch_bend_c, 0, 4636
1, 84270, Pitch_bend_c, 1, 4636
1, 84270, Pitch_bend_c, 2, 4636
1, 84270, Pitch_bend_c, 3, 4636
1, 84285, Pitch_bend_c, 0, 4499
1, 84285, Pitch_bend_c, 1, 4499
1, 84285, Pitch_bend_c, 2, 4499
1, 84285, Pitch_bend_c, 3, 4499
1, 84300, Note_on_c, 10, 23, 0
1, 84300, Pitch_bend_c, 0, 4083
1, 84300, Pitch_bend_c, 1, 4083
1, 84300, Pitch_bend_c, 2, 4083
1, 84300, Pitch_bend_c, 3, 4083
1, 84300, Control_c, 13, 7, 9
1, 84320, Pitch_bend_c, 0, 3810
1, 84320, Pitch_bend_c, 1, 3810
1, 84320, Pitch_bend_c, 2, 3810
1, 84320, Pitch_bend_c, 3, 3810
1, 84335, Pitch_bend_c, 0, 3359
1, 84335, Pitch_bend_c, 1, 3359
1, 84335, Pitch_bend_c, 2, 3359
1, 84335, Pitch_bend_c, 3, 3359
1, 84350, Pitch_bend_c, 0, 3086
1, 84350, Pitch_bend_c, 1, 3086
1, 84350, Pitch_bend_c, 2, 3086
1, 84350, Pitch_bend_c, 3, 3086
1, 84360, Note_on_c, 9, 42, 0
1, 84360, Note_on_c, 9, 82, 0
1, 84360, Note_on_c, 9, 82, 11
1, 84360, Note_on_c, 10, 35, 127
1, 84360, Control_c, 13, 7, 8
1, 84365, Pitch_bend_c, 0, 2820
1, 84365, Pitch_bend_c, 1, 2820
1, 84365, Pitch_bend_c, 2, 2820
1, 84365, Pitch_bend_c, 3, 2820
1, 84380, Pitch_bend_c, 0, 2683
1, 84380, Pitch_bend_c, 1, 2683
1, 84380, Pitch_bend_c, 2, 2683
1, 84380, Pitch_bend_c, 3, 2683
1, 84400, Pitch_bend_c, 0, 2369
1, 84400, Pitch_bend_c, 1, 2369
1, 84400, Pitch_bend_c, 2, 2369
1, 84400, Pitch_bend_c, 3, 2369
1, 84415, Pitch_bend_c, 0, 2240
1, 84415, Pitch_bend_c, 1, 2240
1, 84415, Pitch_bend_c, 2, 2240
1, 84415, Pitch_bend_c, 3, 2240
1, 84420, Control_c, 13, 7, 6
1, 84445, Pitch_bend_c, 0, 2103
1, 84445, Pitch_bend_c, 1, 2103
1, 84445, Pitch_bend_c, 2, 2103
1, 84445, Pitch_bend_c, 3, 2103
1, 84480, Note_on_c, 10, 35, 0
1, 84480, Note_on_c, 3, 47, 0
1, 84480, Note_on_c, 3, 83, 0
1, 84480, Note_on_c, 13, 68, 0
1, 84480, Note_on_c, 13, 69, 0
1, 84480, Note_on_c, 1, 35, 0
1, 84480, Note_on_c, 13, 71, 0
1, 84480, Note_on_c, 9, 57, 0
1, 84480, Note_on_c, 13, 66, 0
1, 84480, Note_on_c, 13, 74, 0
1, 84480, Note_on_c, 13, 60, 0
1, 84480, Note_on_c, 13, 62, 0
1, 84480, Note_on_c, 13, 73, 0
1, 84480, Note_on_c, 13, 63, 0
1, 84480, Note_on_c, 13, 72, 0
1, 84480, Note_on_c, 13, 70, 0
1, 84480, Note_on_c, 9, 49, 0
1, 84480, Note_on_c, 2, 59, 0
1, 84480, Note_on_c, 2, 71, 0
1, 84480, Note_on_c, 2, 95, 0
1, 84480, Note_on_c, 13, 75, 0
1, 84480, Note_on_c, 0, 47, 0
1, 84480, Note_on_c, 13, 65, 0
1, 84480, Note_on_c, 13, 61, 0
1, 84480, Note_on_c, 13, 64, 0
1, 84480, Note_on_c, 9, 52, 0
1, 84480, Note_on_c, 2, 83, 0
1, 84480, Note_on_c, 1, 71, 0
1, 84480, Note_on_c, 1, 83, 0
1, 84480, Note_on_c, 9, 82, 0
1, 84480, Note_on_c, 13, 67, 0
1, 84480, Pitch_bend_c, 0, 8192
1, 84480, Note_on_c, 0, 35, 95
1, 84480, Pitch_bend_c, 1, 8192
1, 84480, Note_on_c, 1, 59, 95
1, 84480, Note_on_c, 1, 71, 64
1, 84480, Note_on_c, 1, 23, 95
1, 84480, Pitch_bend_c, 2, 8192
1, 84480, Note_on_c, 2, 83, 94
1, 84480, Note_on_c, 2, 71, 64
1, 84480, Note_on_c, 2, 59, 127
1, 84480, Note_on_c, 2, 47, 95
1, 84480, Pitch_bend_c, 3, 8192
1, 84480, Note_on_c, 3, 71, 64
1, 84480, Note_on_c, 3, 35, 64
1, 84480, Note_on_c, 9, 42, 103
1, 84480, Note_on_c, 9, 35, 103
1, 84480, Note_on_c, 9, 82, 18
1, 84480, Note_on_c, 10, 23, 127
1, 84480, Control_c, 13, 7, 0
1, 84600, Note_on_c, 9, 82, 0
1, 84600, Note_on_c, 9, 35, 0
1, 84600, Note_on_c, 9, 42, 0
1, 84600, Note_on_c, 9, 82, 18
1, 84660, Note_on_c, 10, 23, 0
1, 84720, Note_on_c, 9, 82, 0
1, 84720, Note_on_c, 9, 42, 73
1, 84720, Note_on_c, 9, 82, 31
1, 84720, Note_on_c, 10, 23, 93
1, 84780, Note_on_c, 10, 23, 0
1, 84840, Note_on_c, 2, 83, 0
1, 84840, Note_on_c, 1, 59, 0
1, 84840, Note_on_c, 3, 71, 0
1, 84840, Note_on_c, 1, 71, 0
1, 84840, Note_on_c, 1, 23, 0
1, 84840, Note_on_c, 0, 35, 0
1, 84840, Note_on_c, 2, 71, 0
1, 84840, Note_on_c, 9, 42, 0
1, 84840, Note_on_c, 3, 35, 0
1, 84840, Note_on_c, 2, 59, 0
1, 84840, Note_on_c, 9, 82, 0
1, 84840, Note_on_c, 2, 47, 0
1, 84840, Pitch_bend_c, 0, 0
1, 84840, Note_on_c, 0, 47, 95
1, 84840, Pitch_bend_c, 1, 0
1, 84840, Note_on_c, 1, 71, 95
1, 84840, Note_on_c, 1, 83, 64
1, 84840, Note_on_c, 1, 35, 95
1, 84840, Pitch_bend_c, 2, 0
1, 84840, Note_on_c, 2, 95, 64
1, 84840, Note_on_c, 2, 83, 64
1, 84840, Note_on_c, 2, 71, 127
1, 84840, Note_on_c, 2, 59, 95
1, 84840, Pitch_bend_c, 3, 0
1, 84840, Note_on_c, 3, 83, 64
1, 84840, Note_on_c, 3, 47, 64
1, 84840, Note_on_c, 9, 82, 39
1, 84840, Note_on_c, 10, 23, 75
1, 84855, Pitch_bend_c, 0, 8192
1, 84855, Pitch_bend_c, 1, 8192
1, 84855, Pitch_bend_c, 2, 8192
1, 84855, Pitch_bend_c, 3, 8192
1, 84900, Note_on_c, 10, 23, 0
1, 84960, Note_on_c, 1, 71, 0
1, 84960, Note_on_c, 2, 59, 0
1, 84960, Note_on_c, 1, 83, 0
1, 84960, Note_on_c, 1, 35, 0
1, 84960, Note_on_c, 0, 47, 0
1, 84960, Note_on_c, 2, 95, 0
1, 84960, Note_on_c, 2, 83, 0
1, 84960, Note_on_c, 3, 83, 0
1, 84960, Note_on_c, 2, 71, 0
1, 84960, Note_on_c, 9, 82, 0
1, 84960, Note_on_c, 3, 47, 0
1, 84960, Note_on_c, 9, 42, 73
1, 84960, Note_on_c, 9, 35, 102
1, 84960, Note_on_c, 9, 40, 89
1, 84960, Note_on_c, 9, 28, 103
1, 84960, Note_on_c, 9, 82, 40
1, 84960, Note_on_c, 10, 23, 68
1, 85020, Note_on_c, 10, 23, 0
1, 85080, Note_on_c, 9, 35, 0
1, 85080, Note_on_c, 9, 40, 0
1, 85080, Note_on_c, 9, 42, 0
1, 85080, Note_on_c, 9, 82, 0
1, 85080, Note_on_c, 9, 28, 0
1, 85080, Note_on_c, 9, 82, 25
1, 85080, Note_on_c, 10, 23, 75
1, 85140, Note_on_c, 10, 23, 0
1, 85200, Note_on_c, 9, 82, 0
1, 85200, Note_on_c, 0, 47, 95
1, 85200, Note_on_c, 1, 71, 95
1, 85200, Note_on_c, 1, 83, 64
1, 85200, Note_on_c, 1, 35, 95
1, 85200, Note_on_c, 2, 95, 64
1, 85200, Note_on_c, 2, 83, 64
1, 85200, Note_on_c, 2, 71, 127
1, 85200, Note_on_c, 2, 59, 95
1, 85200, Note_on_c, 3, 83, 64
1, 85200, Note_on_c, 3, 47, 64
1, 85200, Note_on_c, 9, 42, 73
1, 85200, Note_on_c, 9, 82, 11
1, 85200, Note_on_c, 10, 23, 99
1, 85260, Note_on_c, 10, 23, 0
1, 85320, Note_on_c, 9, 82, 0
1, 85320, Note_on_c, 9, 42, 0
1, 85320, Note_on_c, 9, 82, 11
1, 85320, Note_on_c, 10, 23, 127
1, 85440, Note_on_c, 9, 82, 0
1, 85440, Note_on_c, 2, 59, 0
1, 85440, Note_on_c, 3, 83, 0
1, 85440, Note_on_c, 1, 83, 0
1, 85440, Note_on_c, 1, 35, 0
1, 85440, Note_on_c, 2, 71, 0
1, 85440, Note_on_c, 2, 95, 0
1, 85440, Note_on_c, 2, 83, 0
1, 85440, Note_on_c, 3, 47, 0
1, 85440, Note_on_c, 0, 47, 0
1, 85440, Note_on_c, 1, 71, 0
1, 85440, Note_on_c, 9, 42, 88
1, 85440, Note_on_c, 9, 35, 102
1, 85440, Note_on_c, 9, 82, 18
1, 85500, Note_on_c, 10, 23, 0
1, 85560, Note_on_c, 9, 42, 0
1, 85560, Note_on_c, 9, 35, 0
1, 85560, Note_on_c, 9, 82, 0
1, 85560, Note_on_c, 0, 43, 95
1, 85560, Note_on_c, 1, 67, 95
1, 85560, Note_on_c, 1, 79, 64
1, 85560, Note_on_c, 1, 31, 95
1, 85560, Note_on_c, 2, 91, 64
1, 85560, Note_on_c, 2, 79, 64
1, 85560, Note_on_c, 2, 67, 127
1, 85560, Note_on_c, 2, 55, 95
1, 85560, Note_on_c, 3, 79, 64
1, 85560, Note_on_c, 3, 43, 64
1, 85560, Note_on_c, 9, 82, 18
1, 85560, Note_on_c, 10, 23, 93
1, 85620, Note_on_c, 10, 23, 0
1, 85680, Note_on_c, 1, 67, 0
1, 85680, Note_on_c, 2, 55, 0
1, 85680, Note_on_c, 1, 79, 0
1, 85680, Note_on_c, 1, 31, 0
1, 85680, Note_on_c, 0, 43, 0
1, 85680, Note_on_c, 2, 91, 0
1, 85680, Note_on_c, 2, 79, 0
1, 85680, Note_on_c, 3, 79, 0
1, 85680, Note_on_c, 2, 67, 0
1, 85680, Note_on_c, 9, 82, 0
1, 85680, Note_on_c, 3, 43, 0
1, 85680, Pitch_bend_c, 0, 5100
1, 85680, Note_on_c, 0, 47, 95
1, 85680, Pitch_bend_c, 1, 5100
1, 85680, Note_on_c, 1, 71, 95
1, 85680, Note_on_c, 1, 83, 64
1, 85680, Note_on_c, 1, 35, 95
1, 85680, Pitch_bend_c, 2, 5100
1, 85680, Note_on_c, 2, 95, 64
1, 85680, Note_on_c, 2, 83, 64
1, 85680, Note_on_c, 2, 71, 127
1, 85680, Note_on_c, 2, 59, 95
1, 85680, Pitch_bend_c, 3, 5100
1, 85680, Note_on_c, 3, 83, 64
1, 85680, Note_on_c, 3, 47, 64
1, 85680, Note_on_c, 9, 42, 73
1, 85680, Note_on_c, 9, 82, 31
1, 85680, Note_on_c, 10, 23, 75
1, 85695, Pitch_bend_c, 0, 6697
1, 85695, Pitch_bend_c, 1, 6697
1, 85695, Pitch_bend_c, 2, 6697
1, 85695, Pitch_bend_c, 3, 6697
1, 85740, Note_on_c, 10, 23, 0
1, 85760, Pitch_bend_c, 0, 6841
1, 85760, Pitch_bend_c, 1, 6841
1, 85760, Pitch_bend_c, 2, 6841
1, 85760, Pitch_bend_c, 3, 6841
1, 85790, Pitch_bend_c, 0, 6984
1, 85790, Pitch_bend_c, 1, 6984
1, 85790, Pitch_bend_c, 2, 6984
1, 85790, Pitch_bend_c, 3, 6984
1, 85800, Note_on_c, 9, 82, 0
1, 85800, Note_on_c, 9, 42, 0
1, 85800, Note_on_c, 9, 82, 39
1, 85800, Note_on_c, 10, 23, 59
1, 85805, Pitch_bend_c, 0, 7175
1, 85805, Pitch_bend_c, 1, 7175
1, 85805, Pitch_bend_c, 2, 7175
1, 85805, Pitch_bend_c, 3, 7175
1, 85820, Pitch_bend_c, 0, 7319
1, 85820, Pitch_bend_c, 1, 7319
1, 85820, Pitch_bend_c, 2, 7319
1, 85820, Pitch_bend_c, 3, 7319
1, 85840, Pitch_bend_c, 0, 7612
1, 85840, Pitch_bend_c, 1, 7612
1, 85840, Pitch_bend_c, 2, 7612
1, 85840, Pitch_bend_c, 3, 7612
1, 85855, Pitch_bend_c, 0, 7756
1, 85855, Pitch_bend_c, 1, 7756
1, 85855, Pitch_bend_c, 2, 7756
1, 85855, Pitch_bend_c, 3, 7756
1, 85860, Note_on_c, 10, 23, 0
1, 85870, Pitch_bend_c, 0, 7899
1, 85870, Pitch_bend_c, 1, 7899
1, 85870, Pitch_bend_c, 2, 7899
1, 85870, Pitch_bend_c, 3, 7899
1, 85885, Pitch_bend_c, 0, 8049
1, 85885, Pitch_bend_c, 1, 8049
1, 85885, Pitch_bend_c, 2, 8049
1, 85885, Pitch_bend_c, 3, 8049
1, 85900, Pitch_bend_c, 0, 8192
1, 85900, Pitch_bend_c, 1, 8192
1, 85900, Pitch_bend_c, 2, 8192
1, 85900, Pitch_bend_c, 3, 8192
1, 85920, Note_on_c, 2, 83, 0
1, 85920, Note_on_c, 3, 83, 0
1, 85920, Note_on_c, 1, 83, 0
1, 85920, Note_on_c, 1, 35, 0
1, 85920, Note_on_c, 0, 47, 0
1, 85920, Note_on_c, 2, 95, 0
1, 85920, Note_on_c, 1, 71, 0
1, 85920, Note_on_c, 3, 47, 0
1, 85920, Note_on_c, 2, 71, 0
1, 85920, Note_on_c, 9, 82, 0
1, 85920, Note_on_c, 2, 59, 0
1, 85920, Note_on_c, 0, 47, 95
1, 85920, Note_on_c, 1, 71, 95
1, 85920, Note_on_c, 1, 83, 64
1, 85920, Note_on_c, 1, 35, 95
1, 85920, Note_on_c, 2, 95, 64
1, 85920, Note_on_c, 2, 83, 64
1, 85920, Note_on_c, 2, 71, 127
1, 85920, Note_on_c, 2, 59, 95
1, 85920, Note_on_c, 3, 83, 64
1, 85920, Note_on_c, 3, 47, 64
1, 85920, Note_on_c, 9, 42, 73
1, 85920, Note_on_c, 9, 40, 90
1, 85920, Note_on_c, 9, 35, 103
1, 85920, Note_on_c, 9, 28, 103
1, 85920, Note_on_c, 9, 82, 40
1, 85920, Note_on_c, 10, 23, 58
1, 85980, Note_on_c, 10, 23, 0
1, 86040, Note_on_c, 9, 82, 0
1, 86040, Note_on_c, 9, 40, 0
1, 86040, Note_on_c, 9, 28, 0
1, 86040, Note_on_c, 9, 42, 0
1, 86040, Note_on_c, 9, 35, 0
1, 86040, Note_on_c, 9, 82, 25
1, 86040, Note_on_c, 10, 23, 72
1, 86100, Note_on_c, 10, 23, 0
1, 86160, Note_on_c, 2, 95, 0
1, 86160, Note_on_c, 3, 83, 0
1, 86160, Note_on_c, 1, 83, 0
1, 86160, Note_on_c, 1, 35, 0
1, 86160, Note_on_c, 2, 71, 0
1, 86160, Note_on_c, 2, 83, 0
1, 86160, Note_on_c, 1, 71, 0
1, 86160, Note_on_c, 0, 47, 0
1, 86160, Note_on_c, 3, 47, 0
1, 86160, Note_on_c, 9, 82, 0
1, 86160, Note_on_c, 2, 59, 0
1, 86160, Note_on_c, 0, 47, 95
1, 86160, Note_on_c, 1, 71, 95
1, 86160, Note_on_c, 1, 83, 64
1, 86160, Note_on_c, 1, 35, 95
1, 86160, Note_on_c, 2, 95, 64
1, 86160, Note_on_c, 2, 83, 64
1, 86160, Note_on_c, 2, 71, 127
1, 86160, Note_on_c, 2, 59, 95
1, 86160, Note_on_c, 3, 83, 64
1, 86160, Note_on_c, 3, 47, 64
1, 86160, Note_on_c, 9, 42, 73
1, 86160, Note_on_c, 9, 82, 11
1, 86160, Note_on_c, 10, 23, 91
1, 86190, Pitch_bend_c, 0, 8335
1, 86190, Pitch_bend_c, 1, 8335
1, 86190, Pitch_bend_c, 2, 8335
1, 86190, Pitch_bend_c, 3, 8335
1, 86220, Note_on_c, 10, 23, 0
1, 86240, Pitch_bend_c, 0, 8485
1, 86240, Pitch_bend_c, 1, 8485
1, 86240, Pitch_bend_c, 2, 8485
1, 86240, Pitch_bend_c, 3, 8485
1, 86255, Pitch_bend_c, 0, 8628
1, 86255, Pitch_bend_c, 1, 8628
1, 86255, Pitch_bend_c, 2, 8628
1, 86255, Pitch_bend_c, 3, 8628
1, 86270, Pitch_bend_c, 0, 8772
1, 86270, Pitch_bend_c, 1, 8772
1, 86270, Pitch_bend_c, 2, 8772
1, 86270, Pitch_bend_c, 3, 8772
1, 86280, Note_on_c, 9, 82, 0
1, 86280, Note_on_c, 9, 42, 0
1, 86280, Note_on_c, 9, 82, 11
1, 86280, Note_on_c, 10, 23, 127
1, 86285, Pitch_bend_c, 0, 9065
1, 86285, Pitch_bend_c, 1, 9065
1, 86285, Pitch_bend_c, 2, 9065
1, 86285, Pitch_bend_c, 3, 9065
1, 86300, Pitch_bend_c, 0, 9400
1, 86300, Pitch_bend_c, 1, 9400
1, 86300, Pitch_bend_c, 2, 9400
1, 86300, Pitch_bend_c, 3, 9400
1, 86320, Pitch_bend_c, 0, 9543
1, 86320, Pitch_bend_c, 1, 9543
1, 86320, Pitch_bend_c, 2, 9543
1, 86320, Pitch_bend_c, 3, 9543
1, 86335, Pitch_bend_c, 0, 9830
1, 86335, Pitch_bend_c, 1, 9830
1, 86335, Pitch_bend_c, 2, 9830
1, 86335, Pitch_bend_c, 3, 9830
1, 86350, Pitch_bend_c, 0, 10110
1, 86350, Pitch_bend_c, 1, 10110
1, 86350, Pitch_bend_c, 2, 10110
1, 86350, Pitch_bend_c, 3, 10110
1, 86365, Pitch_bend_c, 0, 10253
1, 86365, Pitch_bend_c, 1, 10253
1, 86365, Pitch_bend_c, 2, 10253
1, 86365, Pitch_bend_c, 3, 10253
1, 86380, Pitch_bend_c, 0, 10397
1, 86380, Pitch_bend_c, 1, 10397
1, 86380, Pitch_bend_c, 2, 10397
1, 86380, Pitch_bend_c, 3, 10397
1, 86400, Note_on_c, 9, 82, 0
1, 86400, Note_on_c, 2, 59, 0
1, 86400, Note_on_c, 3, 83, 0
1, 86400, Note_on_c, 1, 83, 0
1, 86400, Note_on_c, 1, 35, 0
1, 86400, Note_on_c, 2, 71, 0
1, 86400, Note_on_c, 2, 95, 0
1, 86400, Note_on_c, 2, 83, 0
1, 86400, Note_on_c, 3, 47, 0
1, 86400, Note_on_c, 0, 47, 0
1, 86400, Note_on_c, 1, 71, 0
1, 86400, Pitch_bend_c, 0, 12165
1, 86400, Note_on_c, 0, 35, 95
1, 86400, Pitch_bend_c, 1, 12165
1, 86400, Note_on_c, 1, 59, 95
1, 86400, Note_on_c, 1, 71, 64
1, 86400, Note_on_c, 1, 23, 95
1, 86400, Pitch_bend_c, 2, 12165
1, 86400, Note_on_c, 2, 83, 64
1, 86400, Note_on_c, 2, 71, 64
1, 86400, Note_on_c, 2, 59, 127
1, 86400, Note_on_c, 2, 47, 95
1, 86400, Pitch_bend_c, 3, 12165
1, 86400, Note_on_c, 3, 71, 64
1, 86400, Note_on_c, 3, 35, 64
1, 86400, Note_on_c, 9, 82, 18
1, 86400, Note_on_c, 9, 42, 103
1, 86400, Note_on_c, 9, 35, 103
1, 86400, Control_c, 13, 7, 0
1, 86400, Pitch_bend_c, 13, 8192
1, 86400, Note_on_c, 13, 75, 63
1, 86400, Note_on_c, 13, 74, 63
1, 86400, Note_on_c, 13, 73, 63
1, 86400, Note_on_c, 13, 72, 63
1, 86400, Note_on_c, 13, 60, 63
1, 86400, Note_on_c, 13, 71, 63
1, 86400, Note_on_c, 13, 70, 63
1, 86400, Note_on_c, 13, 69, 63
1, 86400, Note_on_c, 13, 68, 63
1, 86400, Note_on_c, 13, 67, 63
1, 86400, Note_on_c, 13, 66, 63
1, 86400, Note_on_c, 13, 65, 63
1, 86400, Note_on_c, 13, 64, 63
1, 86400, Note_on_c, 13, 62, 63
1, 86400, Note_on_c, 13, 63, 63
1, 86400, Note_on_c, 13, 61, 63
1, 86415, Pitch_bend_c, 0, 8192
1, 86415, Pitch_bend_c, 1, 8192
1, 86415, Pitch_bend_c, 2, 8192
1, 86415, Pitch_bend_c, 3, 8192
1, 86520, Note_on_c, 9, 35, 0
1, 86520, Note_on_c, 9, 42, 0
1, 86520, Note_on_c, 10, 23, 0
1, 86520, Note_on_c, 9, 82, 0
1, 86520, Note_on_c, 9, 82, 18
1, 86520, Note_on_c, 10, 23, 79
1, 86580, Note_on_c, 10, 23, 0
1, 86640, Note_on_c, 9, 82, 0
1, 86640, Note_on_c, 9, 82, 31
1, 86640, Note_on_c, 9, 42, 73
1, 86640, Note_on_c, 10, 23, 64
1, 86700, Note_on_c, 10, 23, 0
1, 86760, Note_on_c, 3, 35, 0
1, 86760, Note_on_c, 2, 83, 0
1, 86760, Note_on_c, 0, 35, 0
1, 86760, Note_on_c, 1, 23, 0
1, 86760, Note_on_c, 3, 71, 0
1, 86760, Note_on_c, 1, 71, 0
1, 86760, Note_on_c, 2, 47, 0
1, 86760, Note_on_c, 9, 42, 0
1, 86760, Note_on_c, 1, 59, 0
1, 86760, Note_on_c, 2, 71, 0
1, 86760, Note_on_c, 9, 82, 0
1, 86760, Note_on_c, 2, 59, 0
1, 86760, Pitch_bend_c, 0, 0
1, 86760, Note_on_c, 0, 47, 95
1, 86760, Pitch_bend_c, 1, 0
1, 86760, Note_on_c, 1, 71, 95
1, 86760, Note_on_c, 1, 83, 64
1, 86760, Note_on_c, 1, 35, 95
1, 86760, Pitch_bend_c, 2, 0
1, 86760, Note_on_c, 2, 95, 64
1, 86760, Note_on_c, 2, 83, 64
1, 86760, Note_on_c, 2, 71, 127
1, 86760, Note_on_c, 2, 59, 95
1, 86760, Pitch_bend_c, 3, 0
1, 86760, Note_on_c, 3, 83, 64
1, 86760, Note_on_c, 3, 47, 64
1, 86760, Note_on_c, 9, 82, 39
1, 86760, Note_on_c, 10, 23, 62
1, 86775, Pitch_bend_c, 0, 8192
1, 86775, Pitch_bend_c, 1, 8192
1, 86775, Pitch_bend_c, 2, 8192
1, 86775, Pitch_bend_c, 3, 8192
1, 86820, Note_on_c, 10, 23, 0
1, 86880, Note_on_c, 2, 83, 0
1, 86880, Note_on_c, 2, 71, 0
1, 86880, Note_on_c, 0, 47, 0
1, 86880, Note_on_c, 2, 95, 0
1, 86880, Note_on_c, 1, 71, 0
1, 86880, Note_on_c, 1, 35, 0
1, 86880, Note_on_c, 1, 83, 0
1, 86880, Note_on_c, 9, 82, 0
1, 86880, Note_on_c, 3, 83, 0
1, 86880, Note_on_c, 2, 59, 0
1, 86880, Note_on_c, 3, 47, 0
1, 86880, Note_on_c, 9, 82, 40
1, 86880, Note_on_c, 9, 42, 73
1, 86880, Note_on_c, 9, 40, 91
1, 86880, Note_on_c, 9, 35, 103
1, 86880, Note_on_c, 9, 28, 102
1, 86880, Note_on_c, 10, 23, 66
1, 86940, Note_on_c, 10, 23, 0
1, 87000, Note_on_c, 9, 28, 0
1, 87000, Note_on_c, 9, 82, 0
1, 87000, Note_on_c, 9, 35, 0
1, 87000, Note_on_c, 9, 42, 0
1, 87000, Note_on_c, 9, 40, 0
1, 87000, Note_on_c, 9, 82, 25
1, 87000, Note_on_c, 10, 23, 91
1, 87060, Note_on_c, 10, 23, 0
1, 87120, Note_on_c, 9, 82, 0
1, 87120, Note_on_c, 0, 47, 95
1, 87120, Note_on_c, 1, 71, 95
1, 87120, Note_on_c, 1, 83, 64
1, 87120, Note_on_c, 1, 35, 95
1, 87120, Note_on_c, 2, 95, 64
1, 87120, Note_on_c, 2, 83, 64
1, 87120, Note_on_c, 2, 71, 127
1, 87120, Note_on_c, 2, 59, 95
1, 87120, Note_on_c, 3, 83, 64
1, 87120, Note_on_c, 3, 47, 64
1, 87120, Note_on_c, 9, 82, 11
1, 87120, Note_on_c, 9, 42, 73
1, 87120, Note_on_c, 10, 23, 98
1, 87180, Note_on_c, 10, 23, 0
1, 87240, Note_on_c, 9, 42, 0
1, 87240, Note_on_c, 9, 82, 0
1, 87240, Note_on_c, 9, 82, 11
1, 87240, Note_on_c, 10, 23, 127
1, 87360, Note_on_c, 9, 82, 0
1, 87360, Note_on_c, 0, 47, 0
1, 87360, Note_on_c, 2, 71, 0
1, 87360, Note_on_c, 2, 95, 0
1, 87360, Note_on_c, 1, 71, 0
1, 87360, Note_on_c, 1, 35, 0
1, 87360, Note_on_c, 1, 83, 0
1, 87360, Note_on_c, 2, 83, 0
1, 87360, Note_on_c, 3, 83, 0
1, 87360, Note_on_c, 2, 59, 0
1, 87360, Note_on_c, 3, 47, 0
1, 87360, Note_on_c, 0, 47, 95
1, 87360, Note_on_c, 1, 71, 95
1, 87360, Note_on_c, 1, 83, 64
1, 87360, Note_on_c, 1, 35, 95
1, 87360, Note_on_c, 2, 95, 64
1, 87360, Note_on_c, 2, 83, 64
1, 87360, Note_on_c, 2, 71, 127
1, 87360, Note_on_c, 2, 59, 95
1, 87360, Note_on_c, 3, 83, 64
1, 87360, Note_on_c, 3, 47, 64
1, 87360, Note_on_c, 9, 82, 18
1, 87360, Note_on_c, 9, 42, 88
1, 87360, Note_on_c, 9, 35, 104
1, 87390, Pitch_bend_c, 0, 8049
1, 87390, Pitch_bend_c, 1, 8049
1, 87390, Pitch_bend_c, 2, 8049
1, 87390, Pitch_bend_c, 3, 8049
1, 87420, Note_on_c, 10, 23, 0
1, 87420, Pitch_bend_c, 0, 7899
1, 87420, Pitch_bend_c, 1, 7899
1, 87420, Pitch_bend_c, 2, 7899
1, 87420, Pitch_bend_c, 3, 7899
1, 87455, Pitch_bend_c, 0, 7756
1, 87455, Pitch_bend_c, 1, 7756
1, 87455, Pitch_bend_c, 2, 7756
1, 87455, Pitch_bend_c, 3, 7756
1, 87480, Note_on_c, 9, 35, 0
1, 87480, Note_on_c, 9, 42, 0
1, 87480, Note_on_c, 9, 82, 0
1, 87480, Note_on_c, 9, 82, 18
1, 87480, Note_on_c, 10, 23, 66
1, 87485, Pitch_bend_c, 0, 7612
1, 87485, Pitch_bend_c, 1, 7612
1, 87485, Pitch_bend_c, 2, 7612
1, 87485, Pitch_bend_c, 3, 7612
1, 87520, Pitch_bend_c, 0, 7469
1, 87520, Pitch_bend_c, 1, 7469
1, 87520, Pitch_bend_c, 2, 7469
1, 87520, Pitch_bend_c, 3, 7469
1, 87540, Note_on_c, 10, 23, 0
1, 87540, Note_on_c, 0, 47, 0
1, 87540, Note_on_c, 2, 95, 0
1, 87540, Note_on_c, 1, 71, 0
1, 87540, Note_on_c, 1, 35, 0
1, 87540, Note_on_c, 1, 83, 0
1, 87540, Note_on_c, 2, 83, 0
1, 87540, Note_on_c, 2, 59, 0
1, 87540, Note_on_c, 2, 71, 0
1, 87540, Note_on_c, 3, 83, 0
1, 87540, Note_on_c, 3, 47, 0
1, 87600, Note_on_c, 9, 82, 0
1, 87600, Note_on_c, 0, 47, 95
1, 87600, Note_on_c, 1, 71, 95
1, 87600, Note_on_c, 1, 83, 64
1, 87600, Note_on_c, 1, 35, 95
1, 87600, Note_on_c, 2, 95, 64
1, 87600, Note_on_c, 2, 83, 64
1, 87600, Note_on_c, 2, 71, 127
1, 87600, Note_on_c, 2, 59, 95
1, 87600, Note_on_c, 3, 83, 64
1, 87600, Note_on_c, 3, 47, 64
1, 87600, Note_on_c, 9, 82, 31
1, 87600, Note_on_c, 9, 42, 73
1, 87600, Note_on_c, 10, 23, 74
1, 87615, Pitch_bend_c, 0, 7319
1, 87615, Pitch_bend_c, 1, 7319
1, 87615, Pitch_bend_c, 2, 7319
1, 87615, Pitch_bend_c, 3, 7319
1, 87660, Note_on_c, 10, 23, 0
1, 87660, Pitch_bend_c, 0, 7175
1, 87660, Pitch_bend_c, 1, 7175
1, 87660, Pitch_bend_c, 2, 7175
1, 87660, Pitch_bend_c, 3, 7175
1, 87680, Pitch_bend_c, 0, 6984
1, 87680, Pitch_bend_c, 1, 6984
1, 87680, Pitch_bend_c, 2, 6984
1, 87680, Pitch_bend_c, 3, 6984
1, 87710, Pitch_bend_c, 0, 6841
1, 87710, Pitch_bend_c, 1, 6841
1, 87710, Pitch_bend_c, 2, 6841
1, 87710, Pitch_bend_c, 3, 6841
1, 87720, Note_on_c, 9, 42, 0
1, 87720, Note_on_c, 9, 82, 0
1, 87720, Note_on_c, 9, 82, 39
1, 87720, Note_on_c, 10, 23, 84
1, 87740, Pitch_bend_c, 0, 6697
1, 87740, Pitch_bend_c, 1, 6697
1, 87740, Pitch_bend_c, 2, 6697
1, 87740, Pitch_bend_c, 3, 6697
1, 87780, Note_on_c, 10, 23, 0
1, 87820, Pitch_bend_c, 0, 6554
1, 87820, Pitch_bend_c, 1, 6554
1, 87820, Pitch_bend_c, 2, 6554
1, 87820, Pitch_bend_c, 3, 6554
1, 87840, Note_on_c, 0, 47, 0
1, 87840, Note_on_c, 2, 71, 0
1, 87840, Note_on_c, 2, 95, 0
1, 87840, Note_on_c, 1, 71, 0
1, 87840, Note_on_c, 1, 35, 0
1, 87840, Note_on_c, 1, 83, 0
1, 87840, Note_on_c, 9, 82, 0
1, 87840, Note_on_c, 3, 83, 0
1, 87840, Note_on_c, 2, 59, 0
1, 87840, Note_on_c, 2, 83, 0
1, 87840, Note_on_c, 3, 47, 0
1, 87840, Note_on_c, 0, 47, 95
1, 87840, Note_on_c, 1, 71, 95
1, 87840, Note_on_c, 1, 83, 64
1, 87840, Note_on_c, 1, 35, 95
1, 87840, Note_on_c, 2, 95, 64
1, 87840, Note_on_c, 2, 83, 64
1, 87840, Note_on_c, 2, 71, 127
1, 87840, Note_on_c, 2, 59, 95
1, 87840, Note_on_c, 3, 83, 64
1, 87840, Note_on_c, 3, 47, 64
1, 87840, Note_on_c, 9, 82, 40
1, 87840, Note_on_c, 9, 42, 73
1, 87840, Note_on_c, 9, 40, 92
1, 87840, Note_on_c, 9, 35, 104
1, 87840, Note_on_c, 9, 28, 102
1, 87840, Note_on_c, 10, 35, 127
1, 87870, Pitch_bend_c, 0, 6418
1, 87870, Pitch_bend_c, 1, 6418
1, 87870, Pitch_bend_c, 2, 6418
1, 87870, Pitch_bend_c, 3, 6418
1, 87885, Pitch_bend_c, 0, 6274
1, 87885, Pitch_bend_c, 1, 6274
1, 87885, Pitch_bend_c, 2, 6274
1, 87885, Pitch_bend_c, 3, 6274
1, 87900, Pitch_bend_c, 0, 6131
1, 87900, Pitch_bend_c, 1, 6131
1, 87900, Pitch_bend_c, 2, 6131
1, 87900, Pitch_bend_c, 3, 6131
1, 87920, Pitch_bend_c, 0, 5987
1, 87920, Pitch_bend_c, 1, 5987
1, 87920, Pitch_bend_c, 2, 5987
1, 87920, Pitch_bend_c, 3, 5987
1, 87935, Pitch_bend_c, 0, 5803
1, 87935, Pitch_bend_c, 1, 5803
1, 87935, Pitch_bend_c, 2, 5803
1, 87935, Pitch_bend_c, 3, 5803
1, 87950, Pitch_bend_c, 0, 5660
1, 87950, Pitch_bend_c, 1, 5660
1, 87950, Pitch_bend_c, 2, 5660
1, 87950, Pitch_bend_c, 3, 5660
1, 87960, Note_on_c, 9, 28, 0
1, 87960, Note_on_c, 9, 35, 0
1, 87960, Note_on_c, 9, 40, 0
1, 87960, Note_on_c, 9, 42, 0
1, 87960, Note_on_c, 9, 82, 0
1, 87960, Note_on_c, 9, 82, 25
1, 87965, Pitch_bend_c, 0, 5516
1, 87965, Pitch_bend_c, 1, 5516
1, 87965, Pitch_bend_c, 2, 5516
1, 87965, Pitch_bend_c, 3, 5516
1, 87980, Pitch_bend_c, 0, 5380
1, 87980, Pitch_bend_c, 1, 5380
1, 87980, Pitch_bend_c, 2, 5380
1, 87980, Pitch_bend_c, 3, 5380
1, 88000, Pitch_bend_c, 0, 5237
1, 88000, Pitch_bend_c, 1, 5237
1, 88000, Pitch_bend_c, 2, 5237
1, 88000, Pitch_bend_c, 3, 5237
1, 88020, Note_on_c, 10, 35, 0
1, 88030, Pitch_bend_c, 0, 5100
1, 88030, Pitch_bend_c, 1, 5100
1, 88030, Pitch_bend_c, 2, 5100
1, 88030, Pitch_bend_c, 3, 5100
1, 88080, Note_on_c, 2, 83, 0
1, 88080, Note_on_c, 0, 47, 0
1, 88080, Note_on_c, 2, 95, 0
1, 88080, Note_on_c, 1, 71, 0
1, 88080, Note_on_c, 1, 35, 0
1, 88080, Note_on_c, 1, 83, 0
1, 88080, Note_on_c, 9, 82, 0
1, 88080, Note_on_c, 2, 59, 0
1, 88080, Note_on_c, 2, 71, 0
1, 88080, Note_on_c, 3, 83, 0
1, 88080, Note_on_c, 3, 47, 0
1, 88080, Note_on_c, 0, 47, 95
1, 88080, Note_on_c, 1, 71, 95
1, 88080, Note_on_c, 1, 83, 64
1, 88080, Note_on_c, 1, 35, 95
1, 88080, Note_on_c, 2, 95, 64
1, 88080, Note_on_c, 2, 83, 64
1, 88080, Note_on_c, 2, 71, 127
1, 88080, Note_on_c, 2, 59, 95
1, 88080, Note_on_c, 3, 83, 64
1, 88080, Note_on_c, 3, 47, 64
1, 88080, Note_on_c, 9, 82, 11
1, 88080, Note_on_c, 9, 42, 73
1, 88080, Note_on_c, 10, 23, 103
1, 88095, Pitch_bend_c, 0, 4963
1, 88095, Pitch_bend_c, 1, 4963
1, 88095, Pitch_bend_c, 2, 4963
1, 88095, Pitch_bend_c, 3, 4963
1, 88110, Pitch_bend_c, 0, 4636
1, 88110, Pitch_bend_c, 1, 4636
1, 88110, Pitch_bend_c, 2, 4636
1, 88110, Pitch_bend_c, 3, 4636
1, 88125, Pitch_bend_c, 0, 4499
1, 88125, Pitch_bend_c, 1, 4499
1, 88125, Pitch_bend_c, 2, 4499
1, 88125, Pitch_bend_c, 3, 4499
1, 88140, Note_on_c, 10, 23, 0
1, 88140, Pitch_bend_c, 0, 4083
1, 88140, Pitch_bend_c, 1, 4083
1, 88140, Pitch_bend_c, 2, 4083
1, 88140, Pitch_bend_c, 3, 4083
1, 88160, Pitch_bend_c, 0, 3810
1, 88160, Pitch_bend_c, 1, 3810
1, 88160, Pitch_bend_c, 2, 3810
1, 88160, Pitch_bend_c, 3, 3810
1, 88175, Pitch_bend_c, 0, 3359
1, 88175, Pitch_bend_c, 1, 3359
1, 88175, Pitch_bend_c, 2, 3359
1, 88175, Pitch_bend_c, 3, 3359
1, 88190, Pitch_bend_c, 0, 3086
1, 88190, Pitch_bend_c, 1, 3086
1, 88190, Pitch_bend_c, 2, 3086
1, 88190, Pitch_bend_c, 3, 3086
1, 88200, Note_on_c, 9, 42, 0
1, 88200, Note_on_c, 9, 82, 0
1, 88200, Note_on_c, 9, 82, 11
1, 88200, Note_on_c, 10, 35, 127
1, 88205, Pitch_bend_c, 0, 2820
1, 88205, Pitch_bend_c, 1, 2820
1, 88205, Pitch_bend_c, 2, 2820
1, 88205, Pitch_bend_c, 3, 2820
1, 88220, Pitch_bend_c, 0, 2683
1, 88220, Pitch_bend_c, 1, 2683
1, 88220, Pitch_bend_c, 2, 2683
1, 88220, Pitch_bend_c, 3, 2683
1, 88240, Pitch_bend_c, 0, 2369
1, 88240, Pitch_bend_c, 1, 2369
1, 88240, Pitch_bend_c, 2, 2369
1, 88240, Pitch_bend_c, 3, 2369
1, 88255, Pitch_bend_c, 0, 2240
1, 88255, Pitch_bend_c, 1, 2240
1, 88255, Pitch_bend_c, 2, 2240
1, 88255, Pitch_bend_c, 3, 2240
1, 88285, Pitch_bend_c, 0, 2103
1, 88285, Pitch_bend_c, 1, 2103
1, 88285, Pitch_bend_c, 2, 2103
1, 88285, Pitch_bend_c, 3, 2103
1, 88320, Note_on_c, 10, 35, 0
1, 88320, Note_on_c, 0, 47, 0
1, 88320, Note_on_c, 2, 71, 0
1, 88320, Note_on_c, 2, 95, 0
1, 88320, Note_on_c, 1, 71, 0
1, 88320, Note_on_c, 1, 35, 0
1, 88320, Note_on_c, 1, 83, 0
1, 88320, Note_on_c, 9, 82, 0
1, 88320, Note_on_c, 3, 83, 0
1, 88320, Note_on_c, 2, 59, 0
1, 88320, Note_on_c, 2, 83, 0
1, 88320, Note_on_c, 3, 47, 0
1, 88320, Pitch_bend_c, 0, 8192
1, 88320, Note_on_c, 0, 35, 95
1, 88320, Pitch_bend_c, 1, 8192
1, 88320, Note_on_c, 1, 59, 95
1, 88320, Note_on_c, 1, 71, 64
1, 88320, Note_on_c, 1, 23, 95
1, 88320, Pitch_bend_c, 2, 8192
1, 88320, Note_on_c, 2, 83, 94
1, 88320, Note_on_c, 2, 71, 64
1, 88320, Note_on_c, 2, 59, 127
1, 88320, Note_on_c, 2, 47, 95
1, 88320, Pitch_bend_c, 3, 8192
1, 88320, Note_on_c, 3, 71, 64
1, 88320, Note_on_c, 3, 35, 64
1, 88320, Note_on_c, 9, 57, 103
1, 88320, Note_on_c, 9, 52, 127
1, 88320, Note_on_c, 9, 49, 103
1, 88320, Note_on_c, 9, 42, 103
1, 88320, Note_on_c, 9, 35, 103
1, 88320, Note_on_c, 9, 82, 18
1, 88320, Note_on_c, 10, 23, 127
1, 88320, Control_c, 13, 7, 127
1, 88380, Control_c, 13, 7, 127
1, 88440, Note_on_c, 9, 82, 0
1, 88440, Note_on_c, 9, 35, 0
1, 88440, Note_on_c, 9, 42, 0
1, 88440, Note_on_c, 9, 82, 18
1, 88440, Control_c, 13, 7, 125
1, 88500, Note_on_c, 10, 23, 0
1, 88500, Control_c, 13, 7, 124
1, 88560, Note_on_c, 9, 82, 0
1, 88560, Note_on_c, 9, 42, 73
1, 88560, Note_on_c, 9, 82, 31
1, 88560, Note_on_c, 10, 23, 93
1, 88560, Control_c, 13, 7, 121
1, 88620, Note_on_c, 10, 23, 0
1, 88620, Control_c, 13, 7, 119
1, 88680, Note_on_c, 9, 82, 0
1, 88680, Note_on_c, 2, 47, 0
1, 88680, Note_on_c, 3, 35, 0
1, 88680, Note_on_c, 0, 35, 0
1, 88680, Note_on_c, 2, 83, 0
1, 88680, Note_on_c, 1, 59, 0
1, 88680, Note_on_c, 1, 23, 0
1, 88680, Note_on_c, 1, 71, 0
1, 88680, Note_on_c, 9, 42, 0
1, 88680, Note_on_c, 2, 59, 0
1, 88680, Note_on_c, 2, 71, 0
1, 88680, Note_on_c, 3, 71, 0
1, 88680, Pitch_bend_c, 0, 0
1, 88680, Note_on_c, 0, 47, 95
1, 88680, Pitch_bend_c, 1, 0
1, 88680, Note_on_c, 1, 71, 95
1, 88680, Note_on_c, 1, 83, 64
1, 88680, Note_on_c, 1, 35, 95
1, 88680, Pitch_bend_c, 2, 0
1, 88680, Note_on_c, 2, 95, 64
1, 88680, Note_on_c, 2, 83, 64
1, 88680, Note_on_c, 2, 71, 127
1, 88680, Note_on_c, 2, 59, 95
1, 88680, Pitch_bend_c, 3, 0
1, 88680, Note_on_c, 3, 83, 64
1, 88680, Note_on_c, 3, 47, 64
1, 88680, Note_on_c, 9, 82, 39
1, 88680, Note_on_c, 10, 23, 75
1, 88680, Control_c, 13, 7, 117
1, 88695, Pitch_bend_c, 0, 8192
1, 88695, Pitch_bend_c, 1, 8192
1, 88695, Pitch_bend_c, 2, 8192
1, 88695, Pitch_bend_c, 3, 8192
1, 88740, Note_on_c, 10, 23, 0
1, 88740, Control_c, 13, 7, 114
1, 88800, Note_on_c, 2, 59, 0
1, 88800, Note_on_c, 1, 83, 0
1, 88800, Note_on_c, 1, 71, 0
1, 88800, Note_on_c, 0, 47, 0
1, 88800, Note_on_c, 1, 35, 0
1, 88800, Note_on_c, 9, 82, 0
1, 88800, Note_on_c, 2, 83, 0
1, 88800, Note_on_c, 2, 95, 0
1, 88800, Note_on_c, 3, 47, 0
1, 88800, Note_on_c, 2, 71, 0
1, 88800, Note_on_c, 3, 83, 0
1, 88800, Note_on_c, 9, 42, 73
1, 88800, Note_on_c, 9, 35, 102
1, 88800, Note_on_c, 9, 40, 89
1, 88800, Note_on_c, 9, 28, 103
1, 88800, Note_on_c, 9, 82, 40
1, 88800, Note_on_c, 10, 23, 68
1, 88800, Control_c, 13, 7, 112
1, 88860, Note_on_c, 10, 23, 0
1, 88860, Control_c, 13, 7, 110
1, 88920, Note_on_c, 9, 40, 0
1, 88920, Note_on_c, 9, 35, 0
1, 88920, Note_on_c, 9, 42, 0
1, 88920, Note_on_c, 9, 82, 0
1, 88920, Note_on_c, 9, 28, 0
1, 88920, Note_on_c, 9, 82, 25
1, 88920, Note_on_c, 10, 23, 75
1, 88920, Control_c, 13, 7, 108
1, 88980, Note_on_c, 10, 23, 0
1, 88980, Control_c, 13, 7, 106
1, 89040, Note_on_c, 9, 82, 0
1, 89040, Note_on_c, 0, 47, 95
1, 89040, Note_on_c, 1, 71, 95
1, 89040, Note_on_c, 1, 83, 64
1, 89040, Note_on_c, 1, 35, 95
1, 89040, Note_on_c, 2, 95, 64
1, 89040, Note_on_c, 2, 83, 64
1, 89040, Note_on_c, 2, 71, 127
1, 89040, Note_on_c, 2, 59, 95
1, 89040, Note_on_c, 3, 83, 64
1, 89040, Note_on_c, 3, 47, 64
1, 89040, Note_on_c, 9, 42, 73
1, 89040, Note_on_c, 9, 82, 11
1, 89040, Note_on_c, 10, 23, 99
1, 89040, Control_c, 13, 7, 105
1, 89100, Note_on_c, 10, 23, 0
1, 89100, Control_c, 13, 7, 103
1, 89160, Note_on_c, 9, 82, 0
1, 89160, Note_on_c, 9, 42, 0
1, 89160, Note_on_c, 9, 82, 11
1, 89160, Note_on_c, 10, 23, 127
1, 89160, Control_c, 13, 7, 101
1, 89220, Control_c, 13, 7, 99
1, 89280, Note_on_c, 9, 82, 0
1, 89280, Note_on_c, 1, 71, 0
1, 89280, Note_on_c, 3, 83, 0
1, 89280, Note_on_c, 0, 47, 0
1, 89280, Note_on_c, 1, 83, 0
1, 89280, Note_on_c, 2, 83, 0
1, 89280, Note_on_c, 2, 95, 0
1, 89280, Note_on_c, 1, 35, 0
1, 89280, Note_on_c, 2, 59, 0
1, 89280, Note_on_c, 2, 71, 0
1, 89280, Note_on_c, 3, 47, 0
1, 89280, Note_on_c, 9, 42, 88
1, 89280, Note_on_c, 9, 35, 102
1, 89280, Note_on_c, 9, 82, 18
1, 89280, Control_c, 13, 7, 96
1, 89340, Note_on_c, 10, 23, 0
1, 89340, Control_c, 13, 7, 95
1, 89400, Note_on_c, 9, 82, 0
1, 89400, Note_on_c, 9, 35, 0
1, 89400, Note_on_c, 9, 42, 0
1, 89400, Note_on_c, 0, 43, 95
1, 89400, Note_on_c, 1, 67, 95
1, 89400, Note_on_c, 1, 79, 64
1, 89400, Note_on_c, 1, 31, 95
1, 89400, Note_on_c, 2, 91, 64
1, 89400, Note_on_c, 2, 79, 64
1, 89400, Note_on_c, 2, 67, 127
1, 89400, Note_on_c, 2, 55, 95
1, 89400, Note_on_c, 3, 79, 64
1, 89400, Note_on_c, 3, 43, 64
1, 89400, Note_on_c, 9, 82, 18
1, 89400, Note_on_c, 10, 23, 93
1, 89400, Control_c, 13, 7, 92
1, 89460, Note_on_c, 10, 23, 0
1, 89460, Control_c, 13, 7, 91
1, 89520, Note_on_c, 2, 55, 0
1, 89520, Note_on_c, 1, 79, 0
1, 89520, Note_on_c, 1, 67, 0
1, 89520, Note_on_c, 0, 43, 0
1, 89520, Note_on_c, 1, 31, 0
1, 89520, Note_on_c, 9, 82, 0
1, 89520, Note_on_c, 2, 79, 0
1, 89520, Note_on_c, 2, 91, 0
1, 89520, Note_on_c, 3, 43, 0
1, 89520, Note_on_c, 2, 67, 0
1, 89520, Note_on_c, 3, 79, 0
1, 89520, Pitch_bend_c, 0, 5100
1, 89520, Note_on_c, 0, 47, 95
1, 89520, Pitch_bend_c, 1, 5100
1, 89520, Note_on_c, 1, 71, 95
1, 89520, Note_on_c, 1, 83, 64
1, 89520, Note_on_c, 1, 35, 95
1, 89520, Pitch_bend_c, 2, 5100
1, 89520, Note_on_c, 2, 95, 64
1, 89520, Note_on_c, 2, 83, 64
1, 89520, Note_on_c, 2, 71, 127
1, 89520, Note_on_c, 2, 59, 95
1, 89520, Pitch_bend_c, 3, 5100
1, 89520, Note_on_c, 3, 83, 64
1, 89520, Note_on_c, 3, 47, 64
1, 89520, Note_on_c, 9, 42, 73
1, 89520, Note_on_c, 9, 82, 31
1, 89520, Note_on_c, 10, 23, 75
1, 89520, Control_c, 13, 7, 90
1, 89535, Pitch_bend_c, 0, 6697
1, 89535, Pitch_bend_c, 1, 6697
1, 89535, Pitch_bend_c, 2, 6697
1, 89535, Pitch_bend_c, 3, 6697
1, 89580, Note_on_c, 10, 23, 0
1, 89580, Control_c, 13, 7, 88
1, 89600, Pitch_bend_c, 0, 6841
1, 89600, Pitch_bend_c, 1, 6841
1, 89600, Pitch_bend_c, 2, 6841
1, 89600, Pitch_bend_c, 3, 6841
1, 89630, Pitch_bend_c, 0, 6984
1, 89630, Pitch_bend_c, 1, 6984
1, 89630, Pitch_bend_c, 2, 6984
1, 89630, Pitch_bend_c, 3, 6984
1, 89640, Note_on_c, 9, 82, 0
1, 89640, Note_on_c, 9, 42, 0
1, 89640, Note_on_c, 9, 82, 39
1, 89640, Note_on_c, 10, 23, 59
1, 89640, Control_c, 13, 7, 86
1, 89645, Pitch_bend_c, 0, 7175
1, 89645, Pitch_bend_c, 1, 7175
1, 89645, Pitch_bend_c, 2, 7175
1, 89645, Pitch_bend_c, 3, 7175
1, 89660, Pitch_bend_c, 0, 7319
1, 89660, Pitch_bend_c, 1, 7319
1, 89660, Pitch_bend_c, 2, 7319
1, 89660, Pitch_bend_c, 3, 7319
1, 89680, Pitch_bend_c, 0, 7612
1, 89680, Pitch_bend_c, 1, 7612
1, 89680, Pitch_bend_c, 2, 7612
1, 89680, Pitch_bend_c, 3, 7612
1, 89695, Pitch_bend_c, 0, 7756
1, 89695, Pitch_bend_c, 1, 7756
1, 89695, Pitch_bend_c, 2, 7756
1, 89695, Pitch_bend_c, 3, 7756
1, 89700, Note_on_c, 10, 23, 0
1, 89700, Control_c, 13, 7, 83
1, 89710, Pitch_bend_c, 0, 7899
1, 89710, Pitch_bend_c, 1, 7899
1, 89710, Pitch_bend_c, 2, 7899
1, 89710, Pitch_bend_c, 3, 7899
1, 89725, Pitch_bend_c, 0, 8049
1, 89725, Pitch_bend_c, 1, 8049
1, 89725, Pitch_bend_c, 2, 8049
1, 89725, Pitch_bend_c, 3, 8049
1, 89740, Pitch_bend_c, 0, 8192
1, 89740, Pitch_bend_c, 1, 8192
1, 89740, Pitch_bend_c, 2, 8192
1, 89740, Pitch_bend_c, 3, 8192
1, 89760, Note_on_c, 3, 47, 0
1, 89760, Note_on_c, 3, 83, 0
1, 89760, Note_on_c, 1, 71, 0
1, 89760, Note_on_c, 0, 47, 0
1, 89760, Note_on_c, 1, 35, 0
1, 89760, Note_on_c, 9, 82, 0
1, 89760, Note_on_c, 2, 83, 0
1, 89760, Note_on_c, 2, 95, 0
1, 89760, Note_on_c, 1, 83, 0
1, 89760, Note_on_c, 2, 71, 0
1, 89760, Note_on_c, 2, 59, 0
1, 89760, Note_on_c, 0, 47, 95
1, 89760, Note_on_c, 1, 71, 95
1, 89760, Note_on_c, 1, 83, 64
1, 89760, Note_on_c, 1, 35, 95
1, 89760, Note_on_c, 2, 95, 64
1, 89760, Note_on_c, 2, 83, 64
1, 89760, Note_on_c, 2, 71, 127
1, 89760, Note_on_c, 2, 59, 95
1, 89760, Note_on_c, 3, 83, 64
1, 89760, Note_on_c, 3, 47, 64
1, 89760, Note_on_c, 9, 42, 73
1, 89760, Note_on_c, 9, 40, 90
1, 89760, Note_on_c, 9, 35, 103
1, 89760, Note_on_c, 9, 28, 103
1, 89760, Note_on_c, 9, 82, 40
1, 89760, Note_on_c, 10, 23, 58
1, 89760, Control_c, 13, 7, 82
1, 89820, Note_on_c, 10, 23, 0
1, 89820, Control_c, 13, 7, 80
1, 89880, Note_on_c, 9, 82, 0
1, 89880, Note_on_c, 9, 28, 0
1, 89880, Note_on_c, 9, 35, 0
1, 89880, Note_on_c, 9, 40, 0
1, 89880, Note_on_c, 9, 42, 0
1, 89880, Note_on_c, 9, 82, 25
1, 89880, Note_on_c, 10, 23, 72
1, 89880, Control_c, 13, 7, 77
1, 89940, Note_on_c, 10, 23, 0
1, 89940, Control_c, 13, 7, 76
1, 90000, Note_on_c, 3, 47, 0
1, 90000, Note_on_c, 3, 83, 0
1, 90000, Note_on_c, 1, 71, 0
1, 90000, Note_on_c, 0, 47, 0
1, 90000, Note_on_c, 1, 35, 0
1, 90000, Note_on_c, 9, 82, 0
1, 90000, Note_on_c, 2, 83, 0
1, 90000, Note_on_c, 2, 95, 0
1, 90000, Note_on_c, 1, 83, 0
1, 90000, Note_on_c, 2, 71, 0
1, 90000, Note_on_c, 2, 59, 0
1, 90000, Note_on_c, 0, 47, 95
1, 90000, Note_on_c, 1, 71, 95
1, 90000, Note_on_c, 1, 83, 64
1, 90000, Note_on_c, 1, 35, 95
1, 90000, Note_on_c, 2, 95, 64
1, 90000, Note_on_c, 2, 83, 64
1, 90000, Note_on_c, 2, 71, 127
1, 90000, Note_on_c, 2, 59, 95
1, 90000, Note_on_c, 3, 83, 64
1, 90000, Note_on_c, 3, 47, 64
1, 90000, Note_on_c, 9, 42, 73
1, 90000, Note_on_c, 9, 82, 11
1, 90000, Note_on_c, 10, 23, 91
1, 90000, Control_c, 13, 7, 74
1, 90030, Pitch_bend_c, 0, 8335
1, 90030, Pitch_bend_c, 1, 8335
1, 90030, Pitch_bend_c, 2, 8335
1, 90030, Pitch_bend_c, 3, 8335
1, 90060, Note_on_c, 10, 23, 0
1, 90060, Control_c, 13, 7, 71
1, 90080, Pitch_bend_c, 0, 8485
1, 90080, Pitch_bend_c, 1, 8485
1, 90080, Pitch_bend_c, 2, 8485
1, 90080, Pitch_bend_c, 3, 8485
1, 90095, Pitch_bend_c, 0, 8628
1, 90095, Pitch_bend_c, 1, 8628
1, 90095, Pitch_bend_c, 2, 8628
1, 90095, Pitch_bend_c, 3, 8628
1, 90110, Pitch_bend_c, 0, 8772
1, 90110, Pitch_bend_c, 1, 8772
1, 90110, Pitch_bend_c, 2, 8772
1, 90110, Pitch_bend_c, 3, 8772
1, 90120, Note_on_c, 9, 82, 0
1, 90120, Note_on_c, 9, 42, 0
1, 90120, Note_on_c, 9, 82, 11
1, 90120, Note_on_c, 10, 23, 127
1, 90120, Control_c, 13, 7, 69
1, 90125, Pitch_bend_c, 0, 9065
1, 90125, Pitch_bend_c, 1, 9065
1, 90125, Pitch_bend_c, 2, 9065
1, 90125, Pitch_bend_c, 3, 9065
1, 90140, Pitch_bend_c, 0, 9400
1, 90140, Pitch_bend_c, 1, 9400
1, 90140, Pitch_bend_c, 2, 9400
1, 90140, Pitch_bend_c, 3, 9400
1, 90160, Pitch_bend_c, 0, 9543
1, 90160, Pitch_bend_c, 1, 9543
1, 90160, Pitch_bend_c, 2, 9543
1, 90160, Pitch_bend_c, 3, 9543
1, 90175, Pitch_bend_c, 0, 9830
1, 90175, Pitch_bend_c, 1, 9830
1, 90175, Pitch_bend_c, 2, 9830
1, 90175, Pitch_bend_c, 3, 9830
1, 90180, Control_c, 13, 7, 68
1, 90190, Pitch_bend_c, 0, 10110
1, 90190, Pitch_bend_c, 1, 10110
1, 90190, Pitch_bend_c, 2, 10110
1, 90190, Pitch_bend_c, 3, 10110
1, 90205, Pitch_bend_c, 0, 10253
1, 90205, Pitch_bend_c, 1, 10253
1, 90205, Pitch_bend_c, 2, 10253
1, 90205, Pitch_bend_c, 3, 10253
1, 90220, Pitch_bend_c, 0, 10397
1, 90220, Pitch_bend_c, 1, 10397
1, 90220, Pitch_bend_c, 2, 10397
1, 90220, Pitch_bend_c, 3, 10397
1, 90240, Note_on_c, 9, 82, 0
1, 90240, Note_on_c, 1, 71, 0
1, 90240, Note_on_c, 3, 83, 0
1, 90240, Note_on_c, 0, 47, 0
1, 90240, Note_on_c, 1, 83, 0
1, 90240, Note_on_c, 2, 83, 0
1, 90240, Note_on_c, 2, 95, 0
1, 90240, Note_on_c, 1, 35, 0
1, 90240, Note_on_c, 2, 59, 0
1, 90240, Note_on_c, 2, 71, 0
1, 90240, Note_on_c, 3, 47, 0
1, 90240, Pitch_bend_c, 0, 12165
1, 90240, Note_on_c, 0, 35, 95
1, 90240, Pitch_bend_c, 1, 12165
1, 90240, Note_on_c, 1, 59, 95
1, 90240, Note_on_c, 1, 71, 64
1, 90240, Note_on_c, 1, 23, 95
1, 90240, Pitch_bend_c, 2, 12165
1, 90240, Note_on_c, 2, 83, 64
1, 90240, Note_on_c, 2, 71, 64
1, 90240, Note_on_c, 2, 59, 127
1, 90240, Note_on_c, 2, 47, 95
1, 90240, Pitch_bend_c, 3, 12165
1, 90240, Note_on_c, 3, 71, 64
1, 90240, Note_on_c, 3, 35, 64
1, 90240, Note_on_c, 9, 82, 18
1, 90240, Note_on_c, 9, 42, 103
1, 90240, Note_on_c, 9, 35, 103
1, 90240, Control_c, 13, 7, 66
1, 90255, Pitch_bend_c, 0, 8192
1, 90255, Pitch_bend_c, 1, 8192
1, 90255, Pitch_bend_c, 2, 8192
1, 90255, Pitch_bend_c, 3, 8192
1, 90300, Control_c, 13, 7, 63
1, 90360, Note_on_c, 9, 35, 0
1, 90360, Note_on_c, 9, 42, 0
1, 90360, Note_on_c, 9, 82, 0
1, 90360, Note_on_c, 10, 23, 0
1, 90360, Note_on_c, 9, 82, 18
1, 90360, Note_on_c, 10, 23, 79
1, 90360, Control_c, 13, 7, 60
1, 90420, Note_on_c, 10, 23, 0
1, 90420, Control_c, 13, 7, 59
1, 90480, Note_on_c, 9, 82, 0
1, 90480, Note_on_c, 9, 82, 31
1, 90480, Note_on_c, 9, 42, 73
1, 90480, Note_on_c, 10, 23, 64
1, 90480, Control_c, 13, 7, 57
1, 90540, Note_on_c, 10, 23, 0
1, 90540, Control_c, 13, 7, 55
1, 90600, Note_on_c, 9, 42, 0
1, 90600, Note_on_c, 1, 71, 0
1, 90600, Note_on_c, 2, 47, 0
1, 90600, Note_on_c, 1, 59, 0
1, 90600, Note_on_c, 0, 35, 0
1, 90600, Note_on_c, 1, 23, 0
1, 90600, Note_on_c, 9, 82, 0
1, 90600, Note_on_c, 2, 71, 0
1, 90600, Note_on_c, 2, 83, 0
1, 90600, Note_on_c, 3, 71, 0
1, 90600, Note_on_c, 2, 59, 0
1, 90600, Note_on_c, 3, 35, 0
1, 90600, Pitch_bend_c, 0, 0
1, 90600, Note_on_c, 0, 47, 95
1, 90600, Pitch_bend_c, 1, 0
1, 90600, Note_on_c, 1, 71, 95
1, 90600, Note_on_c, 1, 83, 64
1, 90600, Note_on_c, 1, 35, 95
1, 90600, Pitch_bend_c, 2, 0
1, 90600, Note_on_c, 2, 95, 64
1, 90600, Note_on_c, 2, 83, 64
1, 90600, Note_on_c, 2, 71, 127
1, 90600, Note_on_c, 2, 59, 95
1, 90600, Pitch_bend_c, 3, 0
1, 90600, Note_on_c, 3, 83, 64
1, 90600, Note_on_c, 3, 47, 64
1, 90600, Note_on_c, 9, 82, 39
1, 90600, Note_on_c, 10, 23, 62
1, 90600, Control_c, 13, 7, 52
1, 90615, Pitch_bend_c, 0, 8192
1, 90615, Pitch_bend_c, 1, 8192
1, 90615, Pitch_bend_c, 2, 8192
1, 90615, Pitch_bend_c, 3, 8192
1, 90660, Note_on_c, 10, 23, 0
1, 90660, Control_c, 13, 7, 50
1, 90720, Note_on_c, 2, 59, 0
1, 90720, Note_on_c, 1, 83, 0
1, 90720, Note_on_c, 1, 71, 0
1, 90720, Note_on_c, 0, 47, 0
1, 90720, Note_on_c, 1, 35, 0
1, 90720, Note_on_c, 9, 82, 0
1, 90720, Note_on_c, 2, 83, 0
1, 90720, Note_on_c, 2, 95, 0
1, 90720, Note_on_c, 3, 47, 0
1, 90720, Note_on_c, 2, 71, 0
1, 90720, Note_on_c, 3, 83, 0
1, 90720, Note_on_c, 9, 82, 40
1, 90720, Note_on_c, 9, 42, 73
1, 90720, Note_on_c, 9, 40, 91
1, 90720, Note_on_c, 9, 35, 103
1, 90720, Note_on_c, 9, 28, 102
1, 90720, Note_on_c, 10, 23, 66
1, 90720, Control_c, 13, 7, 48
1, 90780, Note_on_c, 10, 23, 0
1, 90780, Control_c, 13, 7, 47
1, 90840, Note_on_c, 9, 40, 0
1, 90840, Note_on_c, 9, 42, 0
1, 90840, Note_on_c, 9, 82, 0
1, 90840, Note_on_c, 9, 28, 0
1, 90840, Note_on_c, 9, 35, 0
1, 90840, Note_on_c, 9, 82, 25
1, 90840, Note_on_c, 10, 23, 91
1, 90840, Control_c, 13, 7, 45
1, 90900, Note_on_c, 10, 23, 0
1, 90900, Control_c, 13, 7, 44
1, 90960, Note_on_c, 9, 82, 0
1, 90960, Note_on_c, 0, 47, 95
1, 90960, Note_on_c, 1, 71, 95
1, 90960, Note_on_c, 1, 83, 64
1, 90960, Note_on_c, 1, 35, 95
1, 90960, Note_on_c, 2, 95, 64
1, 90960, Note_on_c, 2, 83, 64
1, 90960, Note_on_c, 2, 71, 127
1, 90960, Note_on_c, 2, 59, 95
1, 90960, Note_on_c, 3, 83, 64
1, 90960, Note_on_c, 3, 47, 64
1, 90960, Note_on_c, 9, 82, 11
1, 90960, Note_on_c, 9, 42, 73
1, 90960, Note_on_c, 10, 23, 98
1, 90960, Control_c, 13, 7, 42
1, 91020, Note_on_c, 10, 23, 0
1, 91020, Control_c, 13, 7, 41
1, 91080, Note_on_c, 9, 42, 0
1, 91080, Note_on_c, 9, 82, 0
1, 91080, Note_on_c, 9, 82, 11
1, 91080, Note_on_c, 10, 23, 127
1, 91080, Control_c, 13, 7, 38
1, 91140, Control_c, 13, 7, 36
1, 91200, Note_on_c, 9, 82, 0
1, 91200, Note_on_c, 1, 71, 0
1, 91200, Note_on_c, 3, 83, 0
1, 91200, Note_on_c, 0, 47, 0
1, 91200, Note_on_c, 1, 83, 0
1, 91200, Note_on_c, 2, 83, 0
1, 91200, Note_on_c, 2, 95, 0
1, 91200, Note_on_c, 1, 35, 0
1, 91200, Note_on_c, 2, 59, 0
1, 91200, Note_on_c, 2, 71, 0
1, 91200, Note_on_c, 3, 47, 0
1, 91200, Note_on_c, 0, 47, 95
1, 91200, Note_on_c, 1, 71, 95
1, 91200, Note_on_c, 1, 83, 64
1, 91200, Note_on_c, 1, 35, 95
1, 91200, Note_on_c, 2, 95, 64
1, 91200, Note_on_c, 2, 83, 64
1, 91200, Note_on_c, 2, 71, 127
1, 91200, Note_on_c, 2, 59, 95
1, 91200, Note_on_c, 3, 83, 64
1, 91200, Note_on_c, 3, 47, 64
1, 91200, Note_on_c, 9, 82, 18
1, 91200, Note_on_c, 9, 42, 88
1, 91200, Note_on_c, 9, 35, 104
1, 91200, Control_c, 13, 7, 34
1, 91230, Pitch_bend_c, 0, 8049
1, 91230, Pitch_bend_c, 1, 8049
1, 91230, Pitch_bend_c, 2, 8049
1, 91230, Pitch_bend_c, 3, 8049
1, 91260, Note_on_c, 10, 23, 0
1, 91260, Pitch_bend_c, 0, 7899
1, 91260, Pitch_bend_c, 1, 7899
1, 91260, Pitch_bend_c, 2, 7899
1, 91260, Pitch_bend_c, 3, 7899
1, 91260, Control_c, 13, 7, 33
1, 91295, Pitch_bend_c, 0, 7756
1, 91295, Pitch_bend_c, 1, 7756
1, 91295, Pitch_bend_c, 2, 7756
1, 91295, Pitch_bend_c, 3, 7756
1, 91320, Note_on_c, 9, 35, 0
1, 91320, Note_on_c, 9, 42, 0
1, 91320, Note_on_c, 9, 82, 0
1, 91320, Note_on_c, 9, 82, 18
1, 91320, Note_on_c, 10, 23, 66
1, 91320, Control_c, 13, 7, 31
1, 91325, Pitch_bend_c, 0, 7612
1, 91325, Pitch_bend_c, 1, 7612
1, 91325, Pitch_bend_c, 2, 7612
1, 91325, Pitch_bend_c, 3, 7612
1, 91360, Pitch_bend_c, 0, 7469
1, 91360, Pitch_bend_c, 1, 7469
1, 91360, Pitch_bend_c, 2, 7469
1, 91360, Pitch_bend_c, 3, 7469
1, 91380, Note_on_c, 10, 23, 0
1, 91380, Note_on_c, 3, 83, 0
1, 91380, Note_on_c, 1, 71, 0
1, 91380, Note_on_c, 0, 47, 0
1, 91380, Note_on_c, 1, 83, 0
1, 91380, Note_on_c, 2, 83, 0
1, 91380, Note_on_c, 2, 95, 0
1, 91380, Note_on_c, 1, 35, 0
1, 91380, Note_on_c, 2, 59, 0
1, 91380, Note_on_c, 2, 71, 0
1, 91380, Note_on_c, 3, 47, 0
1, 91380, Control_c, 13, 7, 29
1, 91440, Note_on_c, 9, 82, 0
1, 91440, Note_on_c, 0, 47, 95
1, 91440, Note_on_c, 1, 71, 95
1, 91440, Note_on_c, 1, 83, 64
1, 91440, Note_on_c, 1, 35, 95
1, 91440, Note_on_c, 2, 95, 64
1, 91440, Note_on_c, 2, 83, 64
1, 91440, Note_on_c, 2, 71, 127
1, 91440, Note_on_c, 2, 59, 95
1, 91440, Note_on_c, 3, 83, 64
1, 91440, Note_on_c, 3, 47, 64
1, 91440, Note_on_c, 9, 82, 31
1, 91440, Note_on_c, 9, 42, 73
1, 91440, Note_on_c, 10, 23, 74
1, 91440, Control_c, 13, 7, 29
1, 91455, Pitch_bend_c, 0, 7319
1, 91455, Pitch_bend_c, 1, 7319
1, 91455, Pitch_bend_c, 2, 7319
1, 91455, Pitch_bend_c, 3, 7319
1, 91500, Note_on_c, 10, 23, 0
1, 91500, Pitch_bend_c, 0, 7175
1, 91500, Pitch_bend_c, 1, 7175
1, 91500, Pitch_bend_c, 2, 7175
1, 91500, Pitch_bend_c, 3, 7175
1, 91500, Control_c, 13, 7, 26
1, 91520, Pitch_bend_c, 0, 6984
1, 91520, Pitch_bend_c, 1, 6984
1, 91520, Pitch_bend_c, 2, 6984
1, 91520, Pitch_bend_c, 3, 6984
1, 91550, Pitch_bend_c, 0, 6841
1, 91550, Pitch_bend_c, 1, 6841
1, 91550, Pitch_bend_c, 2, 6841
1, 91550, Pitch_bend_c, 3, 6841
1, 91560, Note_on_c, 9, 42, 0
1, 91560, Note_on_c, 9, 82, 0
1, 91560, Note_on_c, 9, 82, 39
1, 91560, Note_on_c, 10, 23, 84
1, 91560, Control_c, 13, 7, 24
1, 91580, Pitch_bend_c, 0, 6697
1, 91580, Pitch_bend_c, 1, 6697
1, 91580, Pitch_bend_c, 2, 6697
1, 91580, Pitch_bend_c, 3, 6697
1, 91620, Note_on_c, 10, 23, 0
1, 91620, Control_c, 13, 7, 21
1, 91660, Pitch_bend_c, 0, 6554
1, 91660, Pitch_bend_c, 1, 6554
1, 91660, Pitch_bend_c, 2, 6554
1, 91660, Pitch_bend_c, 3, 6554
1, 91680, Note_on_c, 3, 47, 0
1, 91680, Note_on_c, 3, 83, 0
1, 91680, Note_on_c, 1, 71, 0
1, 91680, Note_on_c, 0, 47, 0
1, 91680, Note_on_c, 1, 35, 0
1, 91680, Note_on_c, 9, 82, 0
1, 91680, Note_on_c, 2, 83, 0
1, 91680, Note_on_c, 2, 95, 0
1, 91680, Note_on_c, 1, 83, 0
1, 91680, Note_on_c, 2, 71, 0
1, 91680, Note_on_c, 2, 59, 0
1, 91680, Note_on_c, 0, 47, 95
1, 91680, Note_on_c, 1, 71, 95
1, 91680, Note_on_c, 1, 83, 64
1, 91680, Note_on_c, 1, 35, 95
1, 91680, Note_on_c, 2, 95, 64
1, 91680, Note_on_c, 2, 83, 64
1, 91680, Note_on_c, 2, 71, 127
1, 91680, Note_on_c, 2, 59, 95
1, 91680, Note_on_c, 3, 83, 64
1, 91680, Note_on_c, 3, 47, 64
1, 91680, Note_on_c, 9, 82, 40
1, 91680, Note_on_c, 9, 42, 73
1, 91680, Note_on_c, 9, 40, 92
1, 91680, Note_on_c, 9, 35, 104
1, 91680, Note_on_c, 9, 28, 102
1, 91680, Note_on_c, 10, 35, 127
1, 91680, Control_c, 13, 7, 19
1, 91710, Pitch_bend_c, 0, 6418
1, 91710, Pitch_bend_c, 1, 6418
1, 91710, Pitch_bend_c, 2, 6418
1, 91710, Pitch_bend_c, 3, 6418
1, 91725, Pitch_bend_c, 0, 6274
1, 91725, Pitch_bend_c, 1, 6274
1, 91725, Pitch_bend_c, 2, 6274
1, 91725, Pitch_bend_c, 3, 6274
1, 91740, Pitch_bend_c, 0, 6131
1, 91740, Pitch_bend_c, 1, 6131
1, 91740, Pitch_bend_c, 2, 6131
1, 91740, Pitch_bend_c, 3, 6131
1, 91740, Control_c, 13, 7, 17
1, 91760, Pitch_bend_c, 0, 5987
1, 91760, Pitch_bend_c, 1, 5987
1, 91760, Pitch_bend_c, 2, 5987
1, 91760, Pitch_bend_c, 3, 5987
1, 91775, Pitch_bend_c, 0, 5803
1, 91775, Pitch_bend_c, 1, 5803
1, 91775, Pitch_bend_c, 2, 5803
1, 91775, Pitch_bend_c, 3, 5803
1, 91790, Pitch_bend_c, 0, 5660
1, 91790, Pitch_bend_c, 1, 5660
1, 91790, Pitch_bend_c, 2, 5660
1, 91790, Pitch_bend_c, 3, 5660
1, 91800, Note_on_c, 9, 28, 0
1, 91800, Note_on_c, 9, 35, 0
1, 91800, Note_on_c, 9, 40, 0
1, 91800, Note_on_c, 9, 42, 0
1, 91800, Note_on_c, 9, 82, 0
1, 91800, Note_on_c, 9, 82, 25
1, 91800, Control_c, 13, 7, 15
1, 91805, Pitch_bend_c, 0, 5516
1, 91805, Pitch_bend_c, 1, 5516
1, 91805, Pitch_bend_c, 2, 5516
1, 91805, Pitch_bend_c, 3, 5516
1, 91820, Pitch_bend_c, 0, 5380
1, 91820, Pitch_bend_c, 1, 5380
1, 91820, Pitch_bend_c, 2, 5380
1, 91820, Pitch_bend_c, 3, 5380
1, 91840, Pitch_bend_c, 0, 5237
1, 91840, Pitch_bend_c, 1, 5237
1, 91840, Pitch_bend_c, 2, 5237
1, 91840, Pitch_bend_c, 3, 5237
1, 91860, Note_on_c, 10, 35, 0
1, 91860, Control_c, 13, 7, 13
1, 91870, Pitch_bend_c, 0, 5100
1, 91870, Pitch_bend_c, 1, 5100
1, 91870, Pitch_bend_c, 2, 5100
1, 91870, Pitch_bend_c, 3, 5100
1, 91920, Note_on_c, 3, 83, 0
1, 91920, Note_on_c, 2, 59, 0
1, 91920, Note_on_c, 1, 83, 0
1, 91920, Note_on_c, 1, 71, 0
1, 91920, Note_on_c, 0, 47, 0
1, 91920, Note_on_c, 9, 82, 0
1, 91920, Note_on_c, 2, 95, 0
1, 91920, Note_on_c, 1, 35, 0
1, 91920, Note_on_c, 2, 83, 0
1, 91920, Note_on_c, 2, 71, 0
1, 91920, Note_on_c, 3, 47, 0
1, 91920, Note_on_c, 0, 47, 95
1, 91920, Note_on_c, 1, 71, 95
1, 91920, Note_on_c, 1, 83, 64
1, 91920, Note_on_c, 1, 35, 95
1, 91920, Note_on_c, 2, 95, 64
1, 91920, Note_on_c, 2, 83, 64
1, 91920, Note_on_c, 2, 71, 127
1, 91920, Note_on_c, 2, 59, 95
1, 91920, Note_on_c, 3, 83, 64
1, 91920, Note_on_c, 3, 47, 64
1, 91920, Note_on_c, 9, 82, 11
1, 91920, Note_on_c, 9, 42, 73
1, 91920, Note_on_c, 10, 23, 103
1, 91920, Control_c, 13, 7, 11
1, 91935, Pitch_bend_c, 0, 4963
1, 91935, Pitch_bend_c, 1, 4963
1, 91935, Pitch_bend_c, 2, 4963
1, 91935, Pitch_bend_c, 3, 4963
1, 91950, Pitch_bend_c, 0, 4636
1, 91950, Pitch_bend_c, 1, 4636
1, 91950, Pitch_bend_c, 2, 4636
1, 91950, Pitch_bend_c, 3, 4636
1, 91965, Pitch_bend_c, 0, 4499
1, 91965, Pitch_bend_c, 1, 4499
1, 91965, Pitch_bend_c, 2, 4499
1, 91965, Pitch_bend_c, 3, 4499
1, 91980, Note_on_c, 10, 23, 0
1, 91980, Pitch_bend_c, 0, 4083
1, 91980, Pitch_bend_c, 1, 4083
1, 91980, Pitch_bend_c, 2, 4083
1, 91980, Pitch_bend_c, 3, 4083
1, 91980, Control_c, 13, 7, 9
1, 92000, Pitch_bend_c, 0, 3810
1, 92000, Pitch_bend_c, 1, 3810
1, 92000, Pitch_bend_c, 2, 3810
1, 92000, Pitch_bend_c, 3, 3810
1, 92015, Pitch_bend_c, 0, 3359
1, 92015, Pitch_bend_c, 1, 3359
1, 92015, Pitch_bend_c, 2, 3359
1, 92015, Pitch_bend_c, 3, 3359
1, 92030, Pitch_bend_c, 0, 3086
1, 92030, Pitch_bend_c, 1, 3086
1, 92030, Pitch_bend_c, 2, 3086
1, 92030, Pitch_bend_c, 3, 3086
1, 92040, Note_on_c, 9, 42, 0
1, 92040, Note_on_c, 9, 82, 0
1, 92040, Note_on_c, 9, 82, 11
1, 92040, Note_on_c, 10, 35, 127
1, 92040, Control_c, 13, 7, 8
1, 92045, Pitch_bend_c, 0, 2820
1, 92045, Pitch_bend_c, 1, 2820
1, 92045, Pitch_bend_c, 2, 2820
1, 92045, Pitch_bend_c, 3, 2820
1, 92060, Pitch_bend_c, 0, 2683
1, 92060, Pitch_bend_c, 1, 2683
1, 92060, Pitch_bend_c, 2, 2683
1, 92060, Pitch_bend_c, 3, 2683
1, 92080, Pitch_bend_c, 0, 2369
1, 92080, Pitch_bend_c, 1, 2369
1, 92080, Pitch_bend_c, 2, 2369
1, 92080, Pitch_bend_c, 3, 2369
1, 92095, Pitch_bend_c, 0, 2240
1, 92095, Pitch_bend_c, 1, 2240
1, 92095, Pitch_bend_c, 2, 2240
1, 92095, Pitch_bend_c, 3, 2240
1, 92100, Control_c, 13, 7, 6
1, 92125, Pitch_bend_c, 0, 2103
1, 92125, Pitch_bend_c, 1, 2103
1, 92125, Pitch_bend_c, 2, 2103
1, 92125, Pitch_bend_c, 3, 2103
1, 92160, Note_on_c, 10, 35, 0
1, 92160, Note_on_c, 3, 47, 0
1, 92160, Note_on_c, 3, 83, 0
1, 92160, Note_on_c, 13, 67, 0
1, 92160, Note_on_c, 13, 73, 0
1, 92160, Note_on_c, 1, 35, 0
1, 92160, Note_on_c, 13, 62, 0
1, 92160, Note_on_c, 9, 57, 0
1, 92160, Note_on_c, 13, 60, 0
1, 92160, Note_on_c, 13, 75, 0
1, 92160, Note_on_c, 13, 71, 0
1, 92160, Note_on_c, 13, 63, 0
1, 92160, Note_on_c, 13, 69, 0
1, 92160, Note_on_c, 13, 65, 0
1, 92160, Note_on_c, 13, 70, 0
1, 92160, Note_on_c, 13, 61, 0
1, 92160, Note_on_c, 9, 49, 0
1, 92160, Note_on_c, 2, 59, 0
1, 92160, Note_on_c, 2, 71, 0
1, 92160, Note_on_c, 2, 95, 0
1, 92160, Note_on_c, 13, 72, 0
1, 92160, Note_on_c, 0, 47, 0
1, 92160, Note_on_c, 13, 74, 0
1, 92160, Note_on_c, 13, 64, 0
1, 92160, Note_on_c, 13, 66, 0
1, 92160, Note_on_c, 9, 52, 0
1, 92160, Note_on_c, 2, 83, 0
1, 92160, Note_on_c, 1, 71, 0
1, 92160, Note_on_c, 1, 83, 0
1, 92160, Note_on_c, 9, 82, 0
1, 92160, Note_on_c, 13, 68, 0
1, 92160, Pitch_bend_c, 0, 8192
1, 92160, Note_on_c, 0, 35, 95
1, 92160, Pitch_bend_c, 1, 8192
1, 92160, Note_on_c, 1, 59, 95
1, 92160, Note_on_c, 1, 71, 64
1, 92160, Note_on_c, 1, 23, 95
1, 92160, Pitch_bend_c, 2, 8192
1, 92160, Note_on_c, 2, 83, 94
1, 92160, Note_on_c, 2, 71, 64
1, 92160, Note_on_c, 2, 59, 127
1, 92160, Note_on_c, 2, 47, 95
1, 92160, Pitch_bend_c, 3, 8192
1, 92160, Note_on_c, 3, 71, 64
1, 92160, Note_on_c, 3, 35, 64
1, 92160, Note_on_c, 9, 42, 103
1, 92160, Note_on_c, 9, 35, 103
1, 92160, Note_on_c, 9, 82, 18
1, 92160, Note_on_c, 10, 23, 127
1, 92160, Control_c, 13, 7, 0
1, 92170, Pitch_bend_c, 4, 8192
1, 92170, Pitch_bend_c, 6, 8192
1, 92280, Note_on_c, 9, 82, 0
1, 92280, Note_on_c, 9, 35, 0
1, 92280, Note_on_c, 9, 42, 0
1, 92280, Note_on_c, 9, 82, 18
1, 92340, Note_on_c, 10, 23, 0
1, 92400, Note_on_c, 9, 82, 0
1, 92400, Note_on_c, 9, 42, 73
1, 92400, Note_on_c, 9, 82, 31
1, 92400, Note_on_c, 10, 23, 93
1, 92460, Note_on_c, 10, 23, 0
1, 92520, Note_on_c, 2, 83, 0
1, 92520, Note_on_c, 1, 59, 0
1, 92520, Note_on_c, 3, 71, 0
1, 92520, Note_on_c, 1, 71, 0
1, 92520, Note_on_c, 1, 23, 0
1, 92520, Note_on_c, 0, 35, 0
1, 92520, Note_on_c, 2, 71, 0
1, 92520, Note_on_c, 9, 42, 0
1, 92520, Note_on_c, 3, 35, 0
1, 92520, Note_on_c, 2, 59, 0
1, 92520, Note_on_c, 9, 82, 0
1, 92520, Note_on_c, 2, 47, 0
1, 92520, Pitch_bend_c, 0, 0
1, 92520, Note_on_c, 0, 47, 95
1, 92520, Pitch_bend_c, 1, 0
1, 92520, Note_on_c, 1, 71, 95
1, 92520, Note_on_c, 1, 83, 64
1, 92520, Note_on_c, 1, 35, 95
1, 92520, Pitch_bend_c, 2, 0
1, 92520, Note_on_c, 2, 95, 64
1, 92520, Note_on_c, 2, 83, 64
1, 92520, Note_on_c, 2, 71, 127
1, 92520, Note_on_c, 2, 59, 95
1, 92520, Pitch_bend_c, 3, 0
1, 92520, Note_on_c, 3, 83, 64
1, 92520, Note_on_c, 3, 47, 64
1, 92520, Note_on_c, 9, 82, 39
1, 92520, Note_on_c, 10, 23, 75
1, 92535, Pitch_bend_c, 0, 8192
1, 92535, Pitch_bend_c, 1, 8192
1, 92535, Pitch_bend_c, 2, 8192
1, 92535, Pitch_bend_c, 3, 8192
1, 92580, Note_on_c, 10, 23, 0
1, 92640, Note_on_c, 1, 71, 0
1, 92640, Note_on_c, 2, 59, 0
1, 92640, Note_on_c, 1, 83, 0
1, 92640, Note_on_c, 1, 35, 0
1, 92640, Note_on_c, 0, 47, 0
1, 92640, Note_on_c, 2, 95, 0
1, 92640, Note_on_c, 2, 83, 0
1, 92640, Note_on_c, 3, 83, 0
1, 92640, Note_on_c, 2, 71, 0
1, 92640, Note_on_c, 9, 82, 0
1, 92640, Note_on_c, 3, 47, 0
1, 92640, Note_on_c, 9, 42, 73
1, 92640, Note_on_c, 9, 35, 102
1, 92640, Note_on_c, 9, 40, 89
1, 92640, Note_on_c, 9, 28, 103
1, 92640, Note_on_c, 9, 82, 40
1, 92640, Note_on_c, 10, 23, 68
1, 92700, Note_on_c, 10, 23, 0
1, 92760, Note_on_c, 9, 35, 0
1, 92760, Note_on_c, 9, 40, 0
1, 92760, Note_on_c, 9, 42, 0
1, 92760, Note_on_c, 9, 82, 0
1, 92760, Note_on_c, 9, 28, 0
1, 92760, Note_on_c, 9, 82, 25
1, 92760, Note_on_c, 10, 23, 75
1, 92820, Note_on_c, 10, 23, 0
1, 92880, Note_on_c, 9, 82, 0
1, 92880, Note_on_c, 0, 47, 95
1, 92880, Note_on_c, 1, 71, 95
1, 92880, Note_on_c, 1, 83, 64
1, 92880, Note_on_c, 1, 35, 95
1, 92880, Note_on_c, 2, 95, 64
1, 92880, Note_on_c, 2, 83, 64
1, 92880, Note_on_c, 2, 71, 127
1, 92880, Note_on_c, 2, 59, 95
1, 92880, Note_on_c, 3, 83, 64
1, 92880, Note_on_c, 3, 47, 64
1, 92880, Note_on_c, 9, 42, 73
1, 92880, Note_on_c, 9, 82, 11
1, 92880, Note_on_c, 10, 23, 99
1, 92940, Note_on_c, 10, 23, 0
1, 93000, Note_on_c, 9, 82, 0
1, 93000, Note_on_c, 9, 42, 0
1, 93000, Note_on_c, 9, 82, 11
1, 93000, Note_on_c, 10, 23, 127
1, 93120, Note_on_c, 9, 82, 0
1, 93120, Note_on_c, 2, 59, 0
1, 93120, Note_on_c, 3, 83, 0
1, 93120, Note_on_c, 1, 83, 0
1, 93120, Note_on_c, 1, 35, 0
1, 93120, Note_on_c, 2, 71, 0
1, 93120, Note_on_c, 2, 95, 0
1, 93120, Note_on_c, 2, 83, 0
1, 93120, Note_on_c, 3, 47, 0
1, 93120, Note_on_c, 0, 47, 0
1, 93120, Note_on_c, 1, 71, 0
1, 93120, Note_on_c, 9, 42, 88
1, 93120, Note_on_c, 9, 35, 102
1, 93120, Note_on_c, 9, 82, 18
1, 93180, Note_on_c, 10, 23, 0
1, 93240, Note_on_c, 9, 42, 0
1, 93240, Note_on_c, 9, 35, 0
1, 93240, Note_on_c, 9, 82, 0
1, 93240, Note_on_c, 0, 43, 95
1, 93240, Note_on_c, 1, 67, 95
1, 93240, Note_on_c, 1, 79, 64
1, 93240, Note_on_c, 1, 31, 95
1, 93240, Note_on_c, 2, 91, 64
1, 93240, Note_on_c, 2, 79, 64
1, 93240, Note_on_c, 2, 67, 127
1, 93240, Note_on_c, 2, 55, 95
1, 93240, Note_on_c, 3, 79, 64
1, 93240, Note_on_c, 3, 43, 64
1, 93240, Note_on_c, 9, 82, 18
1, 93240, Note_on_c, 10, 23, 93
1, 93300, Note_on_c, 10, 23, 0
1, 93360, Note_on_c, 1, 67, 0
1, 93360, Note_on_c, 2, 55, 0
1, 93360, Note_on_c, 1, 79, 0
1, 93360, Note_on_c, 1, 31, 0
1, 93360, Note_on_c, 0, 43, 0
1, 93360, Note_on_c, 2, 91, 0
1, 93360, Note_on_c, 2, 79, 0
1, 93360, Note_on_c, 3, 79, 0
1, 93360, Note_on_c, 2, 67, 0
1, 93360, Note_on_c, 9, 82, 0
1, 93360, Note_on_c, 3, 43, 0
1, 93360, Pitch_bend_c, 0, 5100
1, 93360, Note_on_c, 0, 47, 95
1, 93360, Pitch_bend_c, 1, 5100
1, 93360, Note_on_c, 1, 71, 95
1, 93360, Note_on_c, 1, 83, 64
1, 93360, Note_on_c, 1, 35, 95
1, 93360, Pitch_bend_c, 2, 5100
1, 93360, Note_on_c, 2, 95, 64
1, 93360, Note_on_c, 2, 83, 64
1, 93360, Note_on_c, 2, 71, 127
1, 93360, Note_on_c, 2, 59, 95
1, 93360, Pitch_bend_c, 3, 5100
1, 93360, Note_on_c, 3, 83, 64
1, 93360, Note_on_c, 3, 47, 64
1, 93360, Note_on_c, 9, 42, 73
1, 93360, Note_on_c, 9, 82, 31
1, 93360, Note_on_c, 10, 23, 75
1, 93375, Pitch_bend_c, 0, 6697
1, 93375, Pitch_bend_c, 1, 6697
1, 93375, Pitch_bend_c, 2, 6697
1, 93375, Pitch_bend_c, 3, 6697
1, 93420, Note_on_c, 10, 23, 0
1, 93440, Pitch_bend_c, 0, 6841
1, 93440, Pitch_bend_c, 1, 6841
1, 93440, Pitch_bend_c, 2, 6841
1, 93440, Pitch_bend_c, 3, 6841
1, 93470, Pitch_bend_c, 0, 6984
1, 93470, Pitch_bend_c, 1, 6984
1, 93470, Pitch_bend_c, 2, 6984
1, 93470, Pitch_bend_c, 3, 6984
1, 93480, Note_on_c, 9, 82, 0
1, 93480, Note_on_c, 9, 42, 0
1, 93480, Note_on_c, 9, 82, 39
1, 93480, Note_on_c, 10, 23, 59
1, 93485, Pitch_bend_c, 0, 7175
1, 93485, Pitch_bend_c, 1, 7175
1, 93485, Pitch_bend_c, 2, 7175
1, 93485, Pitch_bend_c, 3, 7175
1, 93500, Pitch_bend_c, 0, 7319
1, 93500, Pitch_bend_c, 1, 7319
1, 93500, Pitch_bend_c, 2, 7319
1, 93500, Pitch_bend_c, 3, 7319
1, 93520, Pitch_bend_c, 0, 7612
1, 93520, Pitch_bend_c, 1, 7612
1, 93520, Pitch_bend_c, 2, 7612
1, 93520, Pitch_bend_c, 3, 7612
1, 93535, Pitch_bend_c, 0, 7756
1, 93535, Pitch_bend_c, 1, 7756
1, 93535, Pitch_bend_c, 2, 7756
1, 93535, Pitch_bend_c, 3, 7756
1, 93540, Note_on_c, 10, 23, 0
1, 93550, Pitch_bend_c, 0, 7899
1, 93550, Pitch_bend_c, 1, 7899
1, 93550, Pitch_bend_c, 2, 7899
1, 93550, Pitch_bend_c, 3, 7899
1, 93565, Pitch_bend_c, 0, 8049
1, 93565, Pitch_bend_c, 1, 8049
1, 93565, Pitch_bend_c, 2, 8049
1, 93565, Pitch_bend_c, 3, 8049
1, 93580, Pitch_bend_c, 0, 8192
1, 93580, Pitch_bend_c, 1, 8192
1, 93580, Pitch_bend_c, 2, 8192
1, 93580, Pitch_bend_c, 3, 8192
1, 93600, Note_on_c, 2, 83, 0
1, 93600, Note_on_c, 3, 83, 0
1, 93600, Note_on_c, 1, 83, 0
1, 93600, Note_on_c, 1, 35, 0
1, 93600, Note_on_c, 0, 47, 0
1, 93600, Note_on_c, 2, 95, 0
1, 93600, Note_on_c, 1, 71, 0
1, 93600, Note_on_c, 3, 47, 0
1, 93600, Note_on_c, 2, 71, 0
1, 93600, Note_on_c, 9, 82, 0
1, 93600, Note_on_c, 2, 59, 0
1, 93600, Note_on_c, 0, 47, 95
1, 93600, Note_on_c, 1, 71, 95
1, 93600, Note_on_c, 1, 83, 64
1, 93600, Note_on_c, 1, 35, 95
1, 93600, Note_on_c, 2, 95, 64
1, 93600, Note_on_c, 2, 83, 64
1, 93600, Note_on_c, 2, 71, 127
1, 93600, Note_on_c, 2, 59, 95
1, 93600, Note_on_c, 3, 83, 64
1, 93600, Note_on_c, 3, 47, 64
1, 93600, Note_on_c, 9, 42, 73
1, 93600, Note_on_c, 9, 40, 90
1, 93600, Note_on_c, 9, 35, 103
1, 93600, Note_on_c, 9, 28, 103
1, 93600, Note_on_c, 9, 82, 40
1, 93600, Note_on_c, 10, 23, 58
1, 93660, Note_on_c, 10, 23, 0
1, 93720, Note_on_c, 9, 82, 0
1, 93720, Note_on_c, 9, 40, 0
1, 93720, Note_on_c, 9, 28, 0
1, 93720, Note_on_c, 9, 42, 0
1, 93720, Note_on_c, 9, 35, 0
1, 93720, Note_on_c, 9, 82, 25
1, 93720, Note_on_c, 10, 23, 72
1, 93780, Note_on_c, 10, 23, 0
1, 93840, Note_on_c, 2, 95, 0
1, 93840, Note_on_c, 3, 83, 0
1, 93840, Note_on_c, 1, 83, 0
1, 93840, Note_on_c, 1, 35, 0
1, 93840, Note_on_c, 2, 71, 0
1, 93840, Note_on_c, 2, 83, 0
1, 93840, Note_on_c, 1, 71, 0
1, 93840, Note_on_c, 0, 47, 0
1, 93840, Note_on_c, 3, 47, 0
1, 93840, Note_on_c, 9, 82, 0
1, 93840, Note_on_c, 2, 59, 0
1, 93840, Note_on_c, 0, 47, 95
1, 93840, Note_on_c, 1, 71, 95
1, 93840, Note_on_c, 1, 83, 64
1, 93840, Note_on_c, 1, 35, 95
1, 93840, Note_on_c, 2, 95, 64
1, 93840, Note_on_c, 2, 83, 64
1, 93840, Note_on_c, 2, 71, 127
1, 93840, Note_on_c, 2, 59, 95
1, 93840, Note_on_c, 3, 83, 64
1, 93840, Note_on_c, 3, 47, 64
1, 93840, Note_on_c, 9, 42, 73
1, 93840, Note_on_c, 9, 82, 11
1, 93840, Note_on_c, 10, 23, 91
1, 93870, Pitch_bend_c, 0, 8335
1, 93870, Pitch_bend_c, 1, 8335
1, 93870, Pitch_bend_c, 2, 8335
1, 93870, Pitch_bend_c, 3, 8335
1, 93900, Note_on_c, 10, 23, 0
1, 93920, Pitch_bend_c, 0, 8485
1, 93920, Pitch_bend_c, 1, 8485
1, 93920, Pitch_bend_c, 2, 8485
1, 93920, Pitch_bend_c, 3, 8485
1, 93935, Pitch_bend_c, 0, 8628
1, 93935, Pitch_bend_c, 1, 8628
1, 93935, Pitch_bend_c, 2, 8628
1, 93935, Pitch_bend_c, 3, 8628
1, 93950, Pitch_bend_c, 0, 8772
1, 93950, Pitch_bend_c, 1, 8772
1, 93950, Pitch_bend_c, 2, 8772
1, 93950, Pitch_bend_c, 3, 8772
1, 93960, Note_on_c, 9, 82, 0
1, 93960, Note_on_c, 9, 42, 0
1, 93960, Note_on_c, 9, 82, 11
1, 93960, Note_on_c, 10, 23, 127
1, 93965, Pitch_bend_c, 0, 9065
1, 93965, Pitch_bend_c, 1, 9065
1, 93965, Pitch_bend_c, 2, 9065
1, 93965, Pitch_bend_c, 3, 9065
1, 93980, Pitch_bend_c, 0, 9400
1, 93980, Pitch_bend_c, 1, 9400
1, 93980, Pitch_bend_c, 2, 9400
1, 93980, Pitch_bend_c, 3, 9400
1, 94000, Pitch_bend_c, 0, 9543
1, 94000, Pitch_bend_c, 1, 9543
1, 94000, Pitch_bend_c, 2, 9543
1, 94000, Pitch_bend_c, 3, 9543
1, 94015, Pitch_bend_c, 0, 9830
1, 94015, Pitch_bend_c, 1, 9830
1, 94015, Pitch_bend_c, 2, 9830
1, 94015, Pitch_bend_c, 3, 9830
1, 94030, Pitch_bend_c, 0, 10110
1, 94030, Pitch_bend_c, 1, 10110
1, 94030, Pitch_bend_c, 2, 10110
1, 94030, Pitch_bend_c, 3, 10110
1, 94045, Pitch_bend_c, 0, 10253
1, 94045, Pitch_bend_c, 1, 10253
1, 94045, Pitch_bend_c, 2, 10253
1, 94045, Pitch_bend_c, 3, 10253
1, 94060, Pitch_bend_c, 0, 10397
1, 94060, Pitch_bend_c, 1, 10397
1, 94060, Pitch_bend_c, 2, 10397
1, 94060, Pitch_bend_c, 3, 10397
1, 94080, Note_on_c, 9, 82, 0
1, 94080, Note_on_c, 2, 59, 0
1, 94080, Note_on_c, 3, 83, 0
1, 94080, Note_on_c, 1, 83, 0
1, 94080, Note_on_c, 1, 35, 0
1, 94080, Note_on_c, 2, 71, 0
1, 94080, Note_on_c, 2, 95, 0
1, 94080, Note_on_c, 2, 83, 0
1, 94080, Note_on_c, 3, 47, 0
1, 94080, Note_on_c, 0, 47, 0
1, 94080, Note_on_c, 1, 71, 0
1, 94080, Note_on_c, 4, 67, 101
1, 94080, Note_on_c, 4, 79, 101
1, 94080, Note_on_c, 4, 71, 101
1, 94080, Note_on_c, 4, 83, 101
1, 94080, Note_on_c, 6, 71, 101
1, 94080, Note_on_c, 6, 55, 101
1, 94080, Note_on_c, 6, 67, 101
1, 94080, Note_on_c, 6, 59, 101
1, 94080, Note_on_c, 9, 82, 18
1, 94080, Note_on_c, 9, 42, 103
1, 94080, Note_on_c, 9, 35, 103
1, 94080, Control_c, 13, 7, 0
1, 94080, Pitch_bend_c, 13, 8192
1, 94080, Note_on_c, 13, 75, 63
1, 94080, Note_on_c, 13, 74, 63
1, 94080, Note_on_c, 13, 73, 63
1, 94080, Note_on_c, 13, 72, 63
1, 94080, Note_on_c, 13, 60, 63
1, 94080, Note_on_c, 13, 71, 63
1, 94080, Note_on_c, 13, 70, 63
1, 94080, Note_on_c, 13, 69, 63
1, 94080, Note_on_c, 13, 68, 63
1, 94080, Note_on_c, 13, 67, 63
1, 94080, Note_on_c, 13, 66, 63
1, 94080, Note_on_c, 13, 65, 63
1, 94080, Note_on_c, 13, 64, 63
1, 94080, Note_on_c, 13, 62, 63
1, 94080, Note_on_c, 13, 63, 63
1, 94080, Note_on_c, 13, 61, 63
1, 94200, Note_on_c, 9, 35, 0
1, 94200, Note_on_c, 9, 82, 0
1, 94200, Note_on_c, 10, 23, 0
1, 94200, Note_on_c, 9, 42, 0
1, 94200, Note_on_c, 9, 82, 18
1, 94320, Note_on_c, 9, 82, 0
1, 94320, Note_on_c, 4, 67, 0
1, 94320, Note_on_c, 4, 83, 0
1, 94320, Note_on_c, 4, 71, 0
1, 94320, Note_on_c, 6, 59, 0
1, 94320, Note_on_c, 6, 67, 0
1, 94320, Note_on_c, 6, 55, 0
1, 94320, Note_on_c, 4, 79, 0
1, 94320, Note_on_c, 6, 71, 0
1, 94320, Note_on_c, 9, 82, 31
1, 94320, Note_on_c, 9, 42, 73
1, 94440, Note_on_c, 9, 42, 0
1, 94440, Note_on_c, 9, 82, 0
1, 94440, Note_on_c, 4, 67, 101
1, 94440, Note_on_c, 4, 79, 101
1, 94440, Note_on_c, 4, 71, 101
1, 94440, Note_on_c, 4, 83, 101
1, 94440, Note_on_c, 6, 71, 101
1, 94440, Note_on_c, 6, 59, 101
1, 94440, Note_on_c, 6, 67, 101
1, 94440, Note_on_c, 6, 55, 101
1, 94440, Note_on_c, 9, 82, 39
1, 94560, Note_on_c, 9, 82, 0
1, 94560, Note_on_c, 9, 82, 40
1, 94560, Note_on_c, 9, 42, 73
1, 94560, Note_on_c, 9, 40, 91
1, 94560, Note_on_c, 9, 35, 103
1, 94560, Note_on_c, 9, 28, 102
1, 94680, Note_on_c, 9, 28, 0
1, 94680, Note_on_c, 4, 67, 0
1, 94680, Note_on_c, 6, 71, 0
1, 94680, Note_on_c, 6, 55, 0
1, 94680, Note_on_c, 4, 79, 0
1, 94680, Note_on_c, 4, 83, 0
1, 94680, Note_on_c, 4, 71, 0
1, 94680, Note_on_c, 9, 35, 0
1, 94680, Note_on_c, 9, 82, 0
1, 94680, Note_on_c, 6, 67, 0
1, 94680, Note_on_c, 6, 59, 0
1, 94680, Note_on_c, 9, 40, 0
1, 94680, Note_on_c, 9, 42, 0
1, 94680, Note_on_c, 9, 82, 25
1, 94800, Note_on_c, 9, 82, 0
1, 94800, Note_on_c, 4, 83, 101
1, 94800, Note_on_c, 4, 71, 101
1, 94800, Note_on_c, 4, 79, 101
1, 94800, Note_on_c, 4, 67, 101
1, 94800, Note_on_c, 6, 71, 101
1, 94800, Note_on_c, 6, 59, 101
1, 94800, Note_on_c, 6, 67, 101
1, 94800, Note_on_c, 6, 55, 101
1, 94800, Note_on_c, 9, 82, 11
1, 94800, Note_on_c, 9, 42, 73
1, 94920, Note_on_c, 9, 42, 0
1, 94920, Note_on_c, 9, 82, 0
1, 94920, Note_on_c, 9, 82, 11
1, 95040, Note_on_c, 9, 82, 0
1, 95040, Note_on_c, 4, 83, 0
1, 95040, Note_on_c, 6, 71, 0
1, 95040, Note_on_c, 4, 71, 0
1, 95040, Note_on_c, 4, 67, 0
1, 95040, Note_on_c, 4, 79, 0
1, 95040, Note_on_c, 6, 59, 0
1, 95040, Note_on_c, 6, 55, 0
1, 95040, Note_on_c, 6, 67, 0
1, 95040, Note_on_c, 4, 69, 101
1, 95040, Note_on_c, 4, 81, 101
1, 95040, Note_on_c, 4, 73, 101
1, 95040, Note_on_c, 4, 85, 101
1, 95040, Note_on_c, 6, 73, 101
1, 95040, Note_on_c, 6, 61, 101
1, 95040, Note_on_c, 6, 69, 101
1, 95040, Note_on_c, 6, 57, 101
1, 95040, Note_on_c, 8, 52, 127
1, 95040, Note_on_c, 9, 41, 127
1, 95040, Note_on_c, 12, 60, 103
1, 95160, Note_on_c, 9, 41, 0
1, 95280, Note_on_c, 6, 61, 0
1, 95280, Note_on_c, 4, 69, 0
1, 95280, Note_on_c, 6, 73, 0
1, 95280, Note_on_c, 4, 81, 0
1, 95280, Note_on_c, 4, 85, 0
1, 95280, Note_on_c, 4, 73, 0
1, 95280, Note_on_c, 6, 57, 0
1, 95280, Note_on_c, 6, 69, 0
1, 95400, Note_on_c, 4, 85, 101
1, 95400, Note_on_c, 4, 73, 101
1, 95400, Note_on_c, 4, 81, 101
1, 95400, Note_on_c, 4, 69, 101
1, 95400, Note_on_c, 6, 73, 101
1, 95400, Note_on_c, 6, 61, 101
1, 95400, Note_on_c, 6, 69, 101
1, 95400, Note_on_c, 6, 57, 101
1, 95400, Note_on_c, 9, 44, 80
1, 95400, Note_on_c, 9, 38, 80
1, 95520, Note_on_c, 9, 38, 0
1, 95520, Note_on_c, 9, 44, 0
1, 95520, Note_on_c, 9, 38, 80
1, 95640, Note_on_c, 9, 38, 0
1, 95640, Note_on_c, 6, 73, 0
1, 95640, Note_on_c, 4, 81, 0
1, 95640, Note_on_c, 4, 73, 0
1, 95640, Note_on_c, 4, 85, 0
1, 95640, Note_on_c, 4, 69, 0
1, 95640, Note_on_c, 6, 69, 0
1, 95640, Note_on_c, 6, 61, 0
1, 95640, Note_on_c, 6, 57, 0
1, 95760, Note_on_c, 8, 52, 0
1, 95760, Note_on_c, 4, 69, 101
1, 95760, Note_on_c, 4, 81, 101
1, 95760, Note_on_c, 4, 73, 101
1, 95760, Note_on_c, 4, 85, 101
1, 95760, Note_on_c, 6, 73, 101
1, 95760, Note_on_c, 6, 61, 101
1, 95760, Note_on_c, 6, 69, 101
1, 95760, Note_on_c, 6, 57, 101
1, 95760, Note_on_c, 8, 56, 127
1, 95760, Note_on_c, 9, 43, 127
1, 95880, Note_on_c, 9, 43, 0
1, 96000, Note_on_c, 6, 61, 0
1, 96000, Note_on_c, 6, 73, 0
1, 96000, Note_on_c, 4, 85, 0
1, 96000, Note_on_c, 4, 69, 0
1, 96000, Note_on_c, 4, 73, 0
1, 96000, Note_on_c, 4, 81, 0
1, 96000, Note_on_c, 8, 56, 0
1, 96000, Note_on_c, 6, 57, 0
1, 96000, Note_on_c, 6, 69, 0
1, 96000, Pitch_bend_c, 0, 8192
1, 96000, Note_on_c, 0, 35, 95
1, 96000, Pitch_bend_c, 1, 8192
1, 96000, Note_on_c, 1, 59, 95
1, 96000, Note_on_c, 1, 71, 64
1, 96000, Note_on_c, 1, 23, 95
1, 96000, Pitch_bend_c, 2, 8192
1, 96000, Note_on_c, 2, 83, 94
1, 96000, Note_on_c, 2, 71, 64
1, 96000, Note_on_c, 2, 59, 127
1, 96000, Note_on_c, 2, 47, 95
1, 96000, Pitch_bend_c, 3, 8192
1, 96000, Note_on_c, 3, 71, 64
1, 96000, Note_on_c, 3, 35, 64
1, 96000, Note_on_c, 9, 57, 103
1, 96000, Note_on_c, 9, 52, 127
1, 96000, Note_on_c, 9, 49, 103
1, 96000, Note_on_c, 9, 42, 103
1, 96000, Note_on_c, 9, 35, 103
1, 96000, Note_on_c, 9, 82, 18
1, 96000, Note_on_c, 10, 23, 127
1, 96000, Control_c, 13, 7, 127
1, 96060, Control_c, 13, 7, 127
1, 96120, Note_on_c, 9, 82, 0
1, 96120, Note_on_c, 9, 35, 0
1, 96120, Note_on_c, 9, 42, 0
1, 96120, Note_on_c, 12, 60, 0
1, 96120, Note_on_c, 9, 82, 18
1, 96120, Control_c, 13, 7, 125
1, 96180, Note_on_c, 10, 23, 0
1, 96180, Control_c, 13, 7, 124
1, 96240, Note_on_c, 9, 82, 0
1, 96240, Note_on_c, 9, 42, 73
1, 96240, Note_on_c, 9, 82, 31
1, 96240, Note_on_c, 10, 23, 93
1, 96240, Control_c, 13, 7, 121
1, 96300, Note_on_c, 10, 23, 0
1, 96300, Control_c, 13, 7, 119
1, 96360, Note_on_c, 9, 82, 0
1, 96360, Note_on_c, 3, 71, 0
1, 96360, Note_on_c, 3, 35, 0
1, 96360, Note_on_c, 2, 71, 0
1, 96360, Note_on_c, 2, 83, 0
1, 96360, Note_on_c, 1, 59, 0
1, 96360, Note_on_c, 1, 23, 0
1, 96360, Note_on_c, 1, 71, 0
1, 96360, Note_on_c, 9, 42, 0
1, 96360, Note_on_c, 2, 59, 0
1, 96360, Note_on_c, 0, 35, 0
1, 96360, Note_on_c, 2, 47, 0
1, 96360, Pitch_bend_c, 0, 0
1, 96360, Note_on_c, 0, 47, 95
1, 96360, Pitch_bend_c, 1, 0
1, 96360, Note_on_c, 1, 71, 95
1, 96360, Note_on_c, 1, 83, 64
1, 96360, Note_on_c, 1, 35, 95
1, 96360, Pitch_bend_c, 2, 0
1, 96360, Note_on_c, 2, 95, 64
1, 96360, Note_on_c, 2, 83, 64
1, 96360, Note_on_c, 2, 71, 127
1, 96360, Note_on_c, 2, 59, 95
1, 96360, Pitch_bend_c, 3, 0
1, 96360, Note_on_c, 3, 83, 64
1, 96360, Note_on_c, 3, 47, 64
1, 96360, Note_on_c, 9, 82, 39
1, 96360, Note_on_c, 10, 23, 75
1, 96360, Control_c, 13, 7, 117
1, 96375, Pitch_bend_c, 0, 8192
1, 96375, Pitch_bend_c, 1, 8192
1, 96375, Pitch_bend_c, 2, 8192
1, 96375, Pitch_bend_c, 3, 8192
1, 96420, Note_on_c, 10, 23, 0
1, 96420, Control_c, 13, 7, 114
1, 96480, Note_on_c, 2, 59, 0
1, 96480, Note_on_c, 1, 83, 0
1, 96480, Note_on_c, 1, 71, 0
1, 96480, Note_on_c, 0, 47, 0
1, 96480, Note_on_c, 1, 35, 0
1, 96480, Note_on_c, 9, 82, 0
1, 96480, Note_on_c, 2, 83, 0
1, 96480, Note_on_c, 2, 95, 0
1, 96480, Note_on_c, 3, 47, 0
1, 96480, Note_on_c, 2, 71, 0
1, 96480, Note_on_c, 3, 83, 0
1, 96480, Note_on_c, 9, 42, 73
1, 96480, Note_on_c, 9, 35, 102
1, 96480, Note_on_c, 9, 40, 89
1, 96480, Note_on_c, 9, 28, 103
1, 96480, Note_on_c, 9, 82, 40
1, 96480, Note_on_c, 10, 23, 68
1, 96480, Control_c, 13, 7, 112
1, 96540, Note_on_c, 10, 23, 0
1, 96540, Control_c, 13, 7, 110
1, 96600, Note_on_c, 9, 40, 0
1, 96600, Note_on_c, 9, 35, 0
1, 96600, Note_on_c, 9, 42, 0
1, 96600, Note_on_c, 9, 82, 0
1, 96600, Note_on_c, 9, 28, 0
1, 96600, Note_on_c, 9, 82, 25
1, 96600, Note_on_c, 10, 23, 75
1, 96600, Control_c, 13, 7, 108
1, 96660, Note_on_c, 10, 23, 0
1, 96660, Control_c, 13, 7, 106
1, 96720, Note_on_c, 9, 82, 0
1, 96720, Note_on_c, 0, 47, 95
1, 96720, Note_on_c, 1, 71, 95
1, 96720, Note_on_c, 1, 83, 64
1, 96720, Note_on_c, 1, 35, 95
1, 96720, Note_on_c, 2, 95, 64
1, 96720, Note_on_c, 2, 83, 64
1, 96720, Note_on_c, 2, 71, 127
1, 96720, Note_on_c, 2, 59, 95
1, 96720, Note_on_c, 3, 83, 64
1, 96720, Note_on_c, 3, 47, 64
1, 96720, Note_on_c, 9, 42, 73
1, 96720, Note_on_c, 9, 82, 11
1, 96720, Note_on_c, 10, 23, 99
1, 96720, Control_c, 13, 7, 105
1, 96780, Note_on_c, 10, 23, 0
1, 96780, Control_c, 13, 7, 103
1, 96840, Note_on_c, 9, 82, 0
1, 96840, Note_on_c, 9, 42, 0
1, 96840, Note_on_c, 9, 82, 11
1, 96840, Note_on_c, 10, 23, 127
1, 96840, Control_c, 13, 7, 101
1, 96900, Control_c, 13, 7, 99
1, 96960, Note_on_c, 9, 82, 0
1, 96960, Note_on_c, 1, 71, 0
1, 96960, Note_on_c, 3, 83, 0
1, 96960, Note_on_c, 0, 47, 0
1, 96960, Note_on_c, 1, 83, 0
1, 96960, Note_on_c, 2, 83, 0
1, 96960, Note_on_c, 2, 95, 0
1, 96960, Note_on_c, 1, 35, 0
1, 96960, Note_on_c, 2, 59, 0
1, 96960, Note_on_c, 2, 71, 0
1, 96960, Note_on_c, 3, 47, 0
1, 96960, Note_on_c, 9, 42, 88
1, 96960, Note_on_c, 9, 35, 102
1, 96960, Note_on_c, 9, 82, 18
1, 96960, Control_c, 13, 7, 96
1, 97020, Note_on_c, 10, 23, 0
1, 97020, Control_c, 13, 7, 95
1, 97080, Note_on_c, 9, 82, 0
1, 97080, Note_on_c, 9, 35, 0
1, 97080, Note_on_c, 9, 42, 0
1, 97080, Note_on_c, 0, 43, 95
1, 97080, Note_on_c, 1, 67, 95
1, 97080, Note_on_c, 1, 79, 64
1, 97080, Note_on_c, 1, 31, 95
1, 97080, Note_on_c, 2, 91, 64
1, 97080, Note_on_c, 2, 79, 64
1, 97080, Note_on_c, 2, 67, 127
1, 97080, Note_on_c, 2, 55, 95
1, 97080, Note_on_c, 3, 79, 64
1, 97080, Note_on_c, 3, 43, 64
1, 97080, Note_on_c, 9, 82, 18
1, 97080, Note_on_c, 10, 23, 93
1, 97080, Control_c, 13, 7, 92
1, 97140, Note_on_c, 10, 23, 0
1, 97140, Control_c, 13, 7, 91
1, 97200, Note_on_c, 2, 55, 0
1, 97200, Note_on_c, 1, 79, 0
1, 97200, Note_on_c, 1, 67, 0
1, 97200, Note_on_c, 0, 43, 0
1, 97200, Note_on_c, 1, 31, 0
1, 97200, Note_on_c, 9, 82, 0
1, 97200, Note_on_c, 2, 79, 0
1, 97200, Note_on_c, 2, 91, 0
1, 97200, Note_on_c, 3, 43, 0
1, 97200, Note_on_c, 2, 67, 0
1, 97200, Note_on_c, 3, 79, 0
1, 97200, Pitch_bend_c, 0, 5100
1, 97200, Note_on_c, 0, 47, 95
1, 97200, Pitch_bend_c, 1, 5100
1, 97200, Note_on_c, 1, 71, 95
1, 97200, Note_on_c, 1, 83, 64
1, 97200, Note_on_c, 1, 35, 95
1, 97200, Pitch_bend_c, 2, 5100
1, 97200, Note_on_c, 2, 95, 64
1, 97200, Note_on_c, 2, 83, 64
1, 97200, Note_on_c, 2, 71, 127
1, 97200, Note_on_c, 2, 59, 95
1, 97200, Pitch_bend_c, 3, 5100
1, 97200, Note_on_c, 3, 83, 64
1, 97200, Note_on_c, 3, 47, 64
1, 97200, Note_on_c, 9, 42, 73
1, 97200, Note_on_c, 9, 82, 31
1, 97200, Note_on_c, 10, 23, 75
1, 97200, Control_c, 13, 7, 90
1, 97215, Pitch_bend_c, 0, 6697
1, 97215, Pitch_bend_c, 1, 6697
1, 97215, Pitch_bend_c, 2, 6697
1, 97215, Pitch_bend_c, 3, 6697
1, 97260, Note_on_c, 10, 23, 0
1, 97260, Control_c, 13, 7, 88
1, 97280, Pitch_bend_c, 0, 6841
1, 97280, Pitch_bend_c, 1, 6841
1, 97280, Pitch_bend_c, 2, 6841
1, 97280, Pitch_bend_c, 3, 6841
1, 97310, Pitch_bend_c, 0, 6984
1, 97310, Pitch_bend_c, 1, 6984
1, 97310, Pitch_bend_c, 2, 6984
1, 97310, Pitch_bend_c, 3, 6984
1, 97320, Note_on_c, 9, 82, 0
1, 97320, Note_on_c, 9, 42, 0
1, 97320, Note_on_c, 9, 82, 39
1, 97320, Note_on_c, 10, 23, 59
1, 97320, Control_c, 13, 7, 86
1, 97325, Pitch_bend_c, 0, 7175
1, 97325, Pitch_bend_c, 1, 7175
1, 97325, Pitch_bend_c, 2, 7175
1, 97325, Pitch_bend_c, 3, 7175
1, 97340, Pitch_bend_c, 0, 7319
1, 97340, Pitch_bend_c, 1, 7319
1, 97340, Pitch_bend_c, 2, 7319
1, 97340, Pitch_bend_c, 3, 7319
1, 97360, Pitch_bend_c, 0, 7612
1, 97360, Pitch_bend_c, 1, 7612
1, 97360, Pitch_bend_c, 2, 7612
1, 97360, Pitch_bend_c, 3, 7612
1, 97375, Pitch_bend_c, 0, 7756
1, 97375, Pitch_bend_c, 1, 7756
1, 97375, Pitch_bend_c, 2, 7756
1, 97375, Pitch_bend_c, 3, 7756
1, 97380, Note_on_c, 10, 23, 0
1, 97380, Control_c, 13, 7, 83
1, 97390, Pitch_bend_c, 0, 7899
1, 97390, Pitch_bend_c, 1, 7899
1, 97390, Pitch_bend_c, 2, 7899
1, 97390, Pitch_bend_c, 3, 7899
1, 97405, Pitch_bend_c, 0, 8049
1, 97405, Pitch_bend_c, 1, 8049
1, 97405, Pitch_bend_c, 2, 8049
1, 97405, Pitch_bend_c, 3, 8049
1, 97420, Pitch_bend_c, 0, 8192
1, 97420, Pitch_bend_c, 1, 8192
1, 97420, Pitch_bend_c, 2, 8192
1, 97420, Pitch_bend_c, 3, 8192
1, 97440, Note_on_c, 3, 47, 0
1, 97440, Note_on_c, 3, 83, 0
1, 97440, Note_on_c, 1, 71, 0
1, 97440, Note_on_c, 0, 47, 0
1, 97440, Note_on_c, 1, 35, 0
1, 97440, Note_on_c, 9, 82, 0
1, 97440, Note_on_c, 2, 83, 0
1, 97440, Note_on_c, 2, 95, 0
1, 97440, Note_on_c, 1, 83, 0
1, 97440, Note_on_c, 2, 71, 0
1, 97440, Note_on_c, 2, 59, 0
1, 97440, Note_on_c, 0, 47, 95
1, 97440, Note_on_c, 1, 71, 95
1, 97440, Note_on_c, 1, 83, 64
1, 97440, Note_on_c, 1, 35, 95
1, 97440, Note_on_c, 2, 95, 64
1, 97440, Note_on_c, 2, 83, 64
1, 97440, Note_on_c, 2, 71, 127
1, 97440, Note_on_c, 2, 59, 95
1, 97440, Note_on_c, 3, 83, 64
1, 97440, Note_on_c, 3, 47, 64
1, 97440, Note_on_c, 9, 42, 73
1, 97440, Note_on_c, 9, 40, 90
1, 97440, Note_on_c, 9, 35, 103
1, 97440, Note_on_c, 9, 28, 103
1, 97440, Note_on_c, 9, 82, 40
1, 97440, Note_on_c, 10, 23, 58
1, 97440, Control_c, 13, 7, 82
1, 97500, Note_on_c, 10, 23, 0
1, 97500, Control_c, 13, 7, 80
1, 97560, Note_on_c, 9, 82, 0
1, 97560, Note_on_c, 9, 28, 0
1, 97560, Note_on_c, 9, 35, 0
1, 97560, Note_on_c, 9, 40, 0
1, 97560, Note_on_c, 9, 42, 0
1, 97560, Note_on_c, 9, 82, 25
1, 97560, Note_on_c, 10, 23, 72
1, 97560, Control_c, 13, 7, 77
1, 97620, Note_on_c, 10, 23, 0
1, 97620, Control_c, 13, 7, 76
1, 97680, Note_on_c, 3, 47, 0
1, 97680, Note_on_c, 3, 83, 0
1, 97680, Note_on_c, 1, 71, 0
1, 97680, Note_on_c, 0, 47, 0
1, 97680, Note_on_c, 1, 35, 0
1, 97680, Note_on_c, 9, 82, 0
1, 97680, Note_on_c, 2, 83, 0
1, 97680, Note_on_c, 2, 95, 0
1, 97680, Note_on_c, 1, 83, 0
1, 97680, Note_on_c, 2, 71, 0
1, 97680, Note_on_c, 2, 59, 0
1, 97680, Note_on_c, 0, 47, 95
1, 97680, Note_on_c, 1, 71, 95
1, 97680, Note_on_c, 1, 83, 64
1, 97680, Note_on_c, 1, 35, 95
1, 97680, Note_on_c, 2, 95, 64
1, 97680, Note_on_c, 2, 83, 64
1, 97680, Note_on_c, 2, 71, 127
1, 97680, Note_on_c, 2, 59, 95
1, 97680, Note_on_c, 3, 83, 64
1, 97680, Note_on_c, 3, 47, 64
1, 97680, Note_on_c, 9, 42, 73
1, 97680, Note_on_c, 9, 82, 11
1, 97680, Note_on_c, 10, 23, 91
1, 97680, Control_c, 13, 7, 74
1, 97710, Pitch_bend_c, 0, 8335
1, 97710, Pitch_bend_c, 1, 8335
1, 97710, Pitch_bend_c, 2, 8335
1, 97710, Pitch_bend_c, 3, 8335
1, 97740, Note_on_c, 10, 23, 0
1, 97740, Control_c, 13, 7, 71
1, 97760, Pitch_bend_c, 0, 8485
1, 97760, Pitch_bend_c, 1, 8485
1, 97760, Pitch_bend_c, 2, 8485
1, 97760, Pitch_bend_c, 3, 8485
1, 97775, Pitch_bend_c, 0, 8628
1, 97775, Pitch_bend_c, 1, 8628
1, 97775, Pitch_bend_c, 2, 8628
1, 97775, Pitch_bend_c, 3, 8628
1, 97790, Pitch_bend_c, 0, 8772
1, 97790, Pitch_bend_c, 1, 8772
1, 97790, Pitch_bend_c, 2, 8772
1, 97790, Pitch_bend_c, 3, 8772
1, 97800, Note_on_c, 9, 82, 0
1, 97800, Note_on_c, 9, 42, 0
1, 97800, Note_on_c, 9, 82, 11
1, 97800, Note_on_c, 10, 23, 127
1, 97800, Control_c, 13, 7, 69
1, 97805, Pitch_bend_c, 0, 9065
1, 97805, Pitch_bend_c, 1, 9065
1, 97805, Pitch_bend_c, 2, 9065
1, 97805, Pitch_bend_c, 3, 9065
1, 97820, Pitch_bend_c, 0, 9400
1, 97820, Pitch_bend_c, 1, 9400
1, 97820, Pitch_bend_c, 2, 9400
1, 97820, Pitch_bend_c, 3, 9400
1, 97840, Pitch_bend_c, 0, 9543
1, 97840, Pitch_bend_c, 1, 9543
1, 97840, Pitch_bend_c, 2, 9543
1, 97840, Pitch_bend_c, 3, 9543
1, 97855, Pitch_bend_c, 0, 9830
1, 97855, Pitch_bend_c, 1, 9830
1, 97855, Pitch_bend_c, 2, 9830
1, 97855, Pitch_bend_c, 3, 9830
1, 97860, Control_c, 13, 7, 68
1, 97870, Pitch_bend_c, 0, 10110
1, 97870, Pitch_bend_c, 1, 10110
1, 97870, Pitch_bend_c, 2, 10110
1, 97870, Pitch_bend_c, 3, 10110
1, 97885, Pitch_bend_c, 0, 10253
1, 97885, Pitch_bend_c, 1, 10253
1, 97885, Pitch_bend_c, 2, 10253
1, 97885, Pitch_bend_c, 3, 10253
1, 97900, Pitch_bend_c, 0, 10397
1, 97900, Pitch_bend_c, 1, 10397
1, 97900, Pitch_bend_c, 2, 10397
1, 97900, Pitch_bend_c, 3, 10397
1, 97920, Note_on_c, 9, 82, 0
1, 97920, Note_on_c, 1, 71, 0
1, 97920, Note_on_c, 3, 83, 0
1, 97920, Note_on_c, 0, 47, 0
1, 97920, Note_on_c, 1, 83, 0
1, 97920, Note_on_c, 2, 83, 0
1, 97920, Note_on_c, 2, 95, 0
1, 97920, Note_on_c, 1, 35, 0
1, 97920, Note_on_c, 2, 59, 0
1, 97920, Note_on_c, 2, 71, 0
1, 97920, Note_on_c, 3, 47, 0
1, 97920, Pitch_bend_c, 0, 12165
1, 97920, Note_on_c, 0, 35, 95
1, 97920, Pitch_bend_c, 1, 12165
1, 97920, Note_on_c, 1, 59, 95
1, 97920, Note_on_c, 1, 71, 64
1, 97920, Note_on_c, 1, 23, 95
1, 97920, Pitch_bend_c, 2, 12165
1, 97920, Note_on_c, 2, 83, 64
1, 97920, Note_on_c, 2, 71, 64
1, 97920, Note_on_c, 2, 59, 127
1, 97920, Note_on_c, 2, 47, 95
1, 97920, Pitch_bend_c, 3, 12165
1, 97920, Note_on_c, 3, 71, 64
1, 97920, Note_on_c, 3, 35, 64
1, 97920, Note_on_c, 9, 82, 18
1, 97920, Note_on_c, 9, 42, 103
1, 97920, Note_on_c, 9, 35, 103
1, 97920, Control_c, 13, 7, 66
1, 97935, Pitch_bend_c, 0, 8192
1, 97935, Pitch_bend_c, 1, 8192
1, 97935, Pitch_bend_c, 2, 8192
1, 97935, Pitch_bend_c, 3, 8192
1, 97980, Control_c, 13, 7, 63
1, 98040, Note_on_c, 9, 35, 0
1, 98040, Note_on_c, 9, 42, 0
1, 98040, Note_on_c, 9, 82, 0
1, 98040, Note_on_c, 10, 23, 0
1, 98040, Note_on_c, 9, 82, 18
1, 98040, Note_on_c, 10, 23, 79
1, 98040, Control_c, 13, 7, 60
1, 98100, Note_on_c, 10, 23, 0
1, 98100, Control_c, 13, 7, 59
1, 98160, Note_on_c, 9, 82, 0
1, 98160, Note_on_c, 9, 82, 31
1, 98160, Note_on_c, 9, 42, 73
1, 98160, Note_on_c, 10, 23, 64
1, 98160, Control_c, 13, 7, 57
1, 98220, Note_on_c, 10, 23, 0
1, 98220, Control_c, 13, 7, 55
1, 98280, Note_on_c, 9, 42, 0
1, 98280, Note_on_c, 1, 71, 0
1, 98280, Note_on_c, 2, 47, 0
1, 98280, Note_on_c, 1, 59, 0
1, 98280, Note_on_c, 0, 35, 0
1, 98280, Note_on_c, 1, 23, 0
1, 98280, Note_on_c, 9, 82, 0
1, 98280, Note_on_c, 2, 71, 0
1, 98280, Note_on_c, 2, 83, 0
1, 98280, Note_on_c, 3, 71, 0
1, 98280, Note_on_c, 2, 59, 0
1, 98280, Note_on_c, 3, 35, 0
1, 98280, Pitch_bend_c, 0, 0
1, 98280, Note_on_c, 0, 47, 95
1, 98280, Pitch_bend_c, 1, 0
1, 98280, Note_on_c, 1, 71, 95
1, 98280, Note_on_c, 1, 83, 64
1, 98280, Note_on_c, 1, 35, 95
1, 98280, Pitch_bend_c, 2, 0
1, 98280, Note_on_c, 2, 95, 64
1, 98280, Note_on_c, 2, 83, 64
1, 98280, Note_on_c, 2, 71, 127
1, 98280, Note_on_c, 2, 59, 95
1, 98280, Pitch_bend_c, 3, 0
1, 98280, Note_on_c, 3, 83, 64
1, 98280, Note_on_c, 3, 47, 64
1, 98280, Note_on_c, 9, 82, 39
1, 98280, Note_on_c, 10, 23, 62
1, 98280, Control_c, 13, 7, 52
1, 98295, Pitch_bend_c, 0, 8192
1, 98295, Pitch_bend_c, 1, 8192
1, 98295, Pitch_bend_c, 2, 8192
1, 98295, Pitch_bend_c, 3, 8192
1, 98340, Note_on_c, 10, 23, 0
1, 98340, Control_c, 13, 7, 50
1, 98400, Note_on_c, 2, 59, 0
1, 98400, Note_on_c, 1, 83, 0
1, 98400, Note_on_c, 1, 71, 0
1, 98400, Note_on_c, 0, 47, 0
1, 98400, Note_on_c, 1, 35, 0
1, 98400, Note_on_c, 9, 82, 0
1, 98400, Note_on_c, 2, 83, 0
1, 98400, Note_on_c, 2, 95, 0
1, 98400, Note_on_c, 3, 47, 0
1, 98400, Note_on_c, 2, 71, 0
1, 98400, Note_on_c, 3, 83, 0
1, 98400, Note_on_c, 9, 82, 40
1, 98400, Note_on_c, 9, 42, 73
1, 98400, Note_on_c, 9, 40, 91
1, 98400, Note_on_c, 9, 35, 103
1, 98400, Note_on_c, 9, 28, 102
1, 98400, Note_on_c, 10, 23, 66
1, 98400, Control_c, 13, 7, 48
1, 98460, Note_on_c, 10, 23, 0
1, 98460, Control_c, 13, 7, 47
1, 98520, Note_on_c, 9, 40, 0
1, 98520, Note_on_c, 9, 42, 0
1, 98520, Note_on_c, 9, 82, 0
1, 98520, Note_on_c, 9, 28, 0
1, 98520, Note_on_c, 9, 35, 0
1, 98520, Note_on_c, 9, 82, 25
1, 98520, Note_on_c, 10, 23, 91
1, 98520, Control_c, 13, 7, 45
1, 98580, Note_on_c, 10, 23, 0
1, 98580, Control_c, 13, 7, 44
1, 98640, Note_on_c, 9, 82, 0
1, 98640, Note_on_c, 0, 47, 95
1, 98640, Note_on_c, 1, 71, 95
1, 98640, Note_on_c, 1, 83, 64
1, 98640, Note_on_c, 1, 35, 95
1, 98640, Note_on_c, 2, 95, 64
1, 98640, Note_on_c, 2, 83, 64
1, 98640, Note_on_c, 2, 71, 127
1, 98640, Note_on_c, 2, 59, 95
1, 98640, Note_on_c, 3, 83, 64
1, 98640, Note_on_c, 3, 47, 64
1, 98640, Note_on_c, 9, 82, 11
1, 98640, Note_on_c, 9, 42, 73
1, 98640, Note_on_c, 10, 23, 98
1, 98640, Control_c, 13, 7, 42
1, 98700, Note_on_c, 10, 23, 0
1, 98700, Control_c, 13, 7, 41
1, 98760, Note_on_c, 9, 42, 0
1, 98760, Note_on_c, 9, 82, 0
1, 98760, Note_on_c, 9, 82, 11
1, 98760, Note_on_c, 10, 23, 127
1, 98760, Control_c, 13, 7, 38
1, 98820, Control_c, 13, 7, 36
1, 98880, Note_on_c, 9, 82, 0
1, 98880, Note_on_c, 1, 71, 0
1, 98880, Note_on_c, 3, 83, 0
1, 98880, Note_on_c, 0, 47, 0
1, 98880, Note_on_c, 1, 83, 0
1, 98880, Note_on_c, 2, 83, 0
1, 98880, Note_on_c, 2, 95, 0
1, 98880, Note_on_c, 1, 35, 0
1, 98880, Note_on_c, 2, 59, 0
1, 98880, Note_on_c, 2, 71, 0
1, 98880, Note_on_c, 3, 47, 0
1, 98880, Note_on_c, 0, 47, 95
1, 98880, Note_on_c, 1, 71, 95
1, 98880, Note_on_c, 1, 83, 64
1, 98880, Note_on_c, 1, 35, 95
1, 98880, Note_on_c, 2, 95, 64
1, 98880, Note_on_c, 2, 83, 64
1, 98880, Note_on_c, 2, 71, 127
1, 98880, Note_on_c, 2, 59, 95
1, 98880, Note_on_c, 3, 83, 64
1, 98880, Note_on_c, 3, 47, 64
1, 98880, Note_on_c, 9, 82, 18
1, 98880, Note_on_c, 9, 42, 88
1, 98880, Note_on_c, 9, 35, 104
1, 98880, Control_c, 13, 7, 34
1, 98910, Pitch_bend_c, 0, 8049
1, 98910, Pitch_bend_c, 1, 8049
1, 98910, Pitch_bend_c, 2, 8049
1, 98910, Pitch_bend_c, 3, 8049
1, 98940, Note_on_c, 10, 23, 0
1, 98940, Pitch_bend_c, 0, 7899
1, 98940, Pitch_bend_c, 1, 7899
1, 98940, Pitch_bend_c, 2, 7899
1, 98940, Pitch_bend_c, 3, 7899
1, 98940, Control_c, 13, 7, 33
1, 98975, Pitch_bend_c, 0, 7756
1, 98975, Pitch_bend_c, 1, 7756
1, 98975, Pitch_bend_c, 2, 7756
1, 98975, Pitch_bend_c, 3, 7756
1, 99000, Note_on_c, 9, 35, 0
1, 99000, Note_on_c, 9, 42, 0
1, 99000, Note_on_c, 9, 82, 0
1, 99000, Note_on_c, 9, 82, 18
1, 99000, Note_on_c, 10, 23, 66
1, 99000, Control_c, 13, 7, 31
1, 99005, Pitch_bend_c, 0, 7612
1, 99005, Pitch_bend_c, 1, 7612
1, 99005, Pitch_bend_c, 2, 7612
1, 99005, Pitch_bend_c, 3, 7612
1, 99040, Pitch_bend_c, 0, 7469
1, 99040, Pitch_bend_c, 1, 7469
1, 99040, Pitch_bend_c, 2, 7469
1, 99040, Pitch_bend_c, 3, 7469
1, 99060, Note_on_c, 10, 23, 0
1, 99060, Note_on_c, 3, 83, 0
1, 99060, Note_on_c, 1, 71, 0
1, 99060, Note_on_c, 0, 47, 0
1, 99060, Note_on_c, 1, 83, 0
1, 99060, Note_on_c, 2, 83, 0
1, 99060, Note_on_c, 2, 95, 0
1, 99060, Note_on_c, 1, 35, 0
1, 99060, Note_on_c, 2, 59, 0
1, 99060, Note_on_c, 2, 71, 0
1, 99060, Note_on_c, 3, 47, 0
1, 99060, Control_c, 13, 7, 29
1, 99120, Note_on_c, 9, 82, 0
1, 99120, Note_on_c, 0, 47, 95
1, 99120, Note_on_c, 1, 71, 95
1, 99120, Note_on_c, 1, 83, 64
1, 99120, Note_on_c, 1, 35, 95
1, 99120, Note_on_c, 2, 95, 64
1, 99120, Note_on_c, 2, 83, 64
1, 99120, Note_on_c, 2, 71, 127
1, 99120, Note_on_c, 2, 59, 95
1, 99120, Note_on_c, 3, 83, 64
1, 99120, Note_on_c, 3, 47, 64
1, 99120, Note_on_c, 9, 82, 31
1, 99120, Note_on_c, 9, 42, 73
1, 99120, Note_on_c, 10, 23, 74
1, 99120, Control_c, 13, 7, 29
1, 99135, Pitch_bend_c, 0, 7319
1, 99135, Pitch_bend_c, 1, 7319
1, 99135, Pitch_bend_c, 2, 7319
1, 99135, Pitch_bend_c, 3, 7319
1, 99180, Note_on_c, 10, 23, 0
1, 99180, Pitch_bend_c, 0, 7175
1, 99180, Pitch_bend_c, 1, 7175
1, 99180, Pitch_bend_c, 2, 7175
1, 99180, Pitch_bend_c, 3, 7175
1, 99180, Control_c, 13, 7, 26
1, 99200, Pitch_bend_c, 0, 6984
1, 99200, Pitch_bend_c, 1, 6984
1, 99200, Pitch_bend_c, 2, 6984
1, 99200, Pitch_bend_c, 3, 6984
1, 99230, Pitch_bend_c, 0, 6841
1, 99230, Pitch_bend_c, 1, 6841
1, 99230, Pitch_bend_c, 2, 6841
1, 99230, Pitch_bend_c, 3, 6841
1, 99240, Note_on_c, 9, 42, 0
1, 99240, Note_on_c, 9, 82, 0
1, 99240, Note_on_c, 9, 82, 39
1, 99240, Note_on_c, 10, 23, 84
1, 99240, Control_c, 13, 7, 24
1, 99260, Pitch_bend_c, 0, 6697
1, 99260, Pitch_bend_c, 1, 6697
1, 99260, Pitch_bend_c, 2, 6697
1, 99260, Pitch_bend_c, 3, 6697
1, 99300, Note_on_c, 10, 23, 0
1, 99300, Control_c, 13, 7, 21
1, 99340, Pitch_bend_c, 0, 6554
1, 99340, Pitch_bend_c, 1, 6554
1, 99340, Pitch_bend_c, 2, 6554
1, 99340, Pitch_bend_c, 3, 6554
1, 99360, Note_on_c, 3, 47, 0
1, 99360, Note_on_c, 3, 83, 0
1, 99360, Note_on_c, 1, 71, 0
1, 99360, Note_on_c, 0, 47, 0
1, 99360, Note_on_c, 1, 35, 0
1, 99360, Note_on_c, 9, 82, 0
1, 99360, Note_on_c, 2, 83, 0
1, 99360, Note_on_c, 2, 95, 0
1, 99360, Note_on_c, 1, 83, 0
1, 99360, Note_on_c, 2, 71, 0
1, 99360, Note_on_c, 2, 59, 0
1, 99360, Note_on_c, 0, 47, 95
1, 99360, Note_on_c, 1, 71, 95
1, 99360, Note_on_c, 1, 83, 64
1, 99360, Note_on_c, 1, 35, 95
1, 99360, Note_on_c, 2, 95, 64
1, 99360, Note_on_c, 2, 83, 64
1, 99360, Note_on_c, 2, 71, 127
1, 99360, Note_on_c, 2, 59, 95
1, 99360, Note_on_c, 3, 83, 64
1, 99360, Note_on_c, 3, 47, 64
1, 99360, Note_on_c, 9, 82, 40
1, 99360, Note_on_c, 9, 42, 73
1, 99360, Note_on_c, 9, 40, 92
1, 99360, Note_on_c, 9, 35, 104
1, 99360, Note_on_c, 9, 28, 102
1, 99360, Note_on_c, 10, 35, 127
1, 99360, Control_c, 13, 7, 19
1, 99390, Pitch_bend_c, 0, 6418
1, 99390, Pitch_bend_c, 1, 6418
1, 99390, Pitch_bend_c, 2, 6418
1, 99390, Pitch_bend_c, 3, 6418
1, 99405, Pitch_bend_c, 0, 6274
1, 99405, Pitch_bend_c, 1, 6274
1, 99405, Pitch_bend_c, 2, 6274
1, 99405, Pitch_bend_c, 3, 6274
1, 99420, Pitch_bend_c, 0, 6131
1, 99420, Pitch_bend_c, 1, 6131
1, 99420, Pitch_bend_c, 2, 6131
1, 99420, Pitch_bend_c, 3, 6131
1, 99420, Control_c, 13, 7, 17
1, 99440, Pitch_bend_c, 0, 5987
1, 99440, Pitch_bend_c, 1, 5987
1, 99440, Pitch_bend_c, 2, 5987
1, 99440, Pitch_bend_c, 3, 5987
1, 99455, Pitch_bend_c, 0, 5803
1, 99455, Pitch_bend_c, 1, 5803
1, 99455, Pitch_bend_c, 2, 5803
1, 99455, Pitch_bend_c, 3, 5803
1, 99470, Pitch_bend_c, 0, 5660
1, 99470, Pitch_bend_c, 1, 5660
1, 99470, Pitch_bend_c, 2, 5660
1, 99470, Pitch_bend_c, 3, 5660
1, 99480, Note_on_c, 9, 28, 0
1, 99480, Note_on_c, 9, 35, 0
1, 99480, Note_on_c, 9, 40, 0
1, 99480, Note_on_c, 9, 42, 0
1, 99480, Note_on_c, 9, 82, 0
1, 99480, Note_on_c, 9, 82, 25
1, 99480, Control_c, 13, 7, 15
1, 99485, Pitch_bend_c, 0, 5516
1, 99485, Pitch_bend_c, 1, 5516
1, 99485, Pitch_bend_c, 2, 5516
1, 99485, Pitch_bend_c, 3, 5516
1, 99500, Pitch_bend_c, 0, 5380
1, 99500, Pitch_bend_c, 1, 5380
1, 99500, Pitch_bend_c, 2, 5380
1, 99500, Pitch_bend_c, 3, 5380
1, 99520, Pitch_bend_c, 0, 5237
1, 99520, Pitch_bend_c, 1, 5237
1, 99520, Pitch_bend_c, 2, 5237
1, 99520, Pitch_bend_c, 3, 5237
1, 99540, Note_on_c, 10, 35, 0
1, 99540, Control_c, 13, 7, 13
1, 99550, Pitch_bend_c, 0, 5100
1, 99550, Pitch_bend_c, 1, 5100
1, 99550, Pitch_bend_c, 2, 5100
1, 99550, Pitch_bend_c, 3, 5100
1, 99600, Note_on_c, 3, 83, 0
1, 99600, Note_on_c, 2, 59, 0
1, 99600, Note_on_c, 1, 83, 0
1, 99600, Note_on_c, 1, 71, 0
1, 99600, Note_on_c, 0, 47, 0
1, 99600, Note_on_c, 9, 82, 0
1, 99600, Note_on_c, 2, 95, 0
1, 99600, Note_on_c, 1, 35, 0
1, 99600, Note_on_c, 2, 83, 0
1, 99600, Note_on_c, 2, 71, 0
1, 99600, Note_on_c, 3, 47, 0
1, 99600, Note_on_c, 0, 47, 95
1, 99600, Note_on_c, 1, 71, 95
1, 99600, Note_on_c, 1, 83, 64
1, 99600, Note_on_c, 1, 35, 95
1, 99600, Note_on_c, 2, 95, 64
1, 99600, Note_on_c, 2, 83, 64
1, 99600, Note_on_c, 2, 71, 127
1, 99600, Note_on_c, 2, 59, 95
1, 99600, Note_on_c, 3, 83, 64
1, 99600, Note_on_c, 3, 47, 64
1, 99600, Note_on_c, 9, 82, 11
1, 99600, Note_on_c, 9, 42, 73
1, 99600, Note_on_c, 10, 23, 103
1, 99600, Control_c, 13, 7, 11
1, 99615, Pitch_bend_c, 0, 4963
1, 99615, Pitch_bend_c, 1, 4963
1, 99615, Pitch_bend_c, 2, 4963
1, 99615, Pitch_bend_c, 3, 4963
1, 99630, Pitch_bend_c, 0, 4636
1, 99630, Pitch_bend_c, 1, 4636
1, 99630, Pitch_bend_c, 2, 4636
1, 99630, Pitch_bend_c, 3, 4636
1, 99645, Pitch_bend_c, 0, 4499
1, 99645, Pitch_bend_c, 1, 4499
1, 99645, Pitch_bend_c, 2, 4499
1, 99645, Pitch_bend_c, 3, 4499
1, 99660, Note_on_c, 10, 23, 0
1, 99660, Pitch_bend_c, 0, 4083
1, 99660, Pitch_bend_c, 1, 4083
1, 99660, Pitch_bend_c, 2, 4083
1, 99660, Pitch_bend_c, 3, 4083
1, 99660, Control_c, 13, 7, 9
1, 99680, Pitch_bend_c, 0, 3810
1, 99680, Pitch_bend_c, 1, 3810
1, 99680, Pitch_bend_c, 2, 3810
1, 99680, Pitch_bend_c, 3, 3810
1, 99695, Pitch_bend_c, 0, 3359
1, 99695, Pitch_bend_c, 1, 3359
1, 99695, Pitch_bend_c, 2, 3359
1, 99695, Pitch_bend_c, 3, 3359
1, 99710, Pitch_bend_c, 0, 3086
1, 99710, Pitch_bend_c, 1, 3086
1, 99710, Pitch_bend_c, 2, 3086
1, 99710, Pitch_bend_c, 3, 3086
1, 99720, Note_on_c, 9, 42, 0
1, 99720, Note_on_c, 9, 82, 0
1, 99720, Note_on_c, 9, 82, 11
1, 99720, Note_on_c, 10, 35, 127
1, 99720, Control_c, 13, 7, 8
1, 99725, Pitch_bend_c, 0, 2820
1, 99725, Pitch_bend_c, 1, 2820
1, 99725, Pitch_bend_c, 2, 2820
1, 99725, Pitch_bend_c, 3, 2820
1, 99740, Pitch_bend_c, 0, 2683
1, 99740, Pitch_bend_c, 1, 2683
1, 99740, Pitch_bend_c, 2, 2683
1, 99740, Pitch_bend_c, 3, 2683
1, 99760, Pitch_bend_c, 0, 2369
1, 99760, Pitch_bend_c, 1, 2369
1, 99760, Pitch_bend_c, 2, 2369
1, 99760, Pitch_bend_c, 3, 2369
1, 99775, Pitch_bend_c, 0, 2240
1, 99775, Pitch_bend_c, 1, 2240
1, 99775, Pitch_bend_c, 2, 2240
1, 99775, Pitch_bend_c, 3, 2240
1, 99780, Control_c, 13, 7, 6
1, 99805, Pitch_bend_c, 0, 2103
1, 99805, Pitch_bend_c, 1, 2103
1, 99805, Pitch_bend_c, 2, 2103
1, 99805, Pitch_bend_c, 3, 2103
1, 99840, Note_on_c, 10, 35, 0
1, 99840, Note_on_c, 3, 47, 0
1, 99840, Note_on_c, 3, 83, 0
1, 99840, Note_on_c, 13, 70, 0
1, 99840, Note_on_c, 13, 71, 0
1, 99840, Note_on_c, 1, 35, 0
1, 99840, Note_on_c, 13, 62, 0
1, 99840, Note_on_c, 13, 72, 0
1, 99840, Note_on_c, 13, 67, 0
1, 99840, Note_on_c, 13, 65, 0
1, 99840, Note_on_c, 13, 64, 0
1, 99840, Note_on_c, 13, 69, 0
1, 99840, Note_on_c, 13, 74, 0
1, 99840, Note_on_c, 13, 63, 0
1, 99840, Note_on_c, 13, 60, 0
1, 99840, Note_on_c, 13, 66, 0
1, 99840, Note_on_c, 9, 52, 0
1, 99840, Note_on_c, 2, 59, 0
1, 99840, Note_on_c, 2, 71, 0
1, 99840, Note_on_c, 2, 95, 0
1, 99840, Note_on_c, 9, 49, 0
1, 99840, Note_on_c, 0, 47, 0
1, 99840, Note_on_c, 13, 73, 0
1, 99840, Note_on_c, 13, 61, 0
1, 99840, Note_on_c, 13, 75, 0
1, 99840, Note_on_c, 9, 57, 0
1, 99840, Note_on_c, 2, 83, 0
1, 99840, Note_on_c, 1, 71, 0
1, 99840, Note_on_c, 1, 83, 0
1, 99840, Note_on_c, 9, 82, 0
1, 99840, Note_on_c, 13, 68, 0
1, 99840, Pitch_bend_c, 0, 8192
1, 99840, Note_on_c, 0, 35, 95
1, 99840, Pitch_bend_c, 1, 8192
1, 99840, Note_on_c, 1, 59, 95
1, 99840, Note_on_c, 1, 71, 64
1, 99840, Note_on_c, 1, 23, 95
1, 99840, Pitch_bend_c, 2, 8192
1, 99840, Note_on_c, 2, 83, 94
1, 99840, Note_on_c, 2, 71, 64
1, 99840, Note_on_c, 2, 59, 127
1, 99840, Note_on_c, 2, 47, 95
1, 99840, Pitch_bend_c, 3, 8192
1, 99840, Note_on_c, 3, 71, 64
1, 99840, Note_on_c, 3, 35, 64
1, 99840, Note_on_c, 9, 42, 103
1, 99840, Note_on_c, 9, 35, 103
1, 99840, Note_on_c, 9, 82, 18
1, 99840, Note_on_c, 10, 23, 127
1, 99840, Control_c, 13, 7, 0
1, 99960, Note_on_c, 9, 82, 0
1, 99960, Note_on_c, 9, 35, 0
1, 99960, Note_on_c, 9, 42, 0
1, 99960, Note_on_c, 9, 82, 18
1, 100020, Note_on_c, 10, 23, 0
1, 100080, Note_on_c, 9, 82, 0
1, 100080, Note_on_c, 9, 42, 73
1, 100080, Note_on_c, 9, 82, 31
1, 100080, Note_on_c, 10, 23, 93
1, 100140, Note_on_c, 10, 23, 0
1, 100200, Note_on_c, 2, 83, 0
1, 100200, Note_on_c, 1, 59, 0
1, 100200, Note_on_c, 3, 71, 0
1, 100200, Note_on_c, 1, 71, 0
1, 100200, Note_on_c, 1, 23, 0
1, 100200, Note_on_c, 0, 35, 0
1, 100200, Note_on_c, 2, 71, 0
1, 100200, Note_on_c, 9, 42, 0
1, 100200, Note_on_c, 3, 35, 0
1, 100200, Note_on_c, 2, 59, 0
1, 100200, Note_on_c, 9, 82, 0
1, 100200, Note_on_c, 2, 47, 0
1, 100200, Pitch_bend_c, 0, 0
1, 100200, Note_on_c, 0, 47, 95
1, 100200, Pitch_bend_c, 1, 0
1, 100200, Note_on_c, 1, 71, 95
1, 100200, Note_on_c, 1, 83, 64
1, 100200, Note_on_c, 1, 35, 95
1, 100200, Pitch_bend_c, 2, 0
1, 100200, Note_on_c, 2, 95, 64
1, 100200, Note_on_c, 2, 83, 64
1, 100200, Note_on_c, 2, 71, 127
1, 100200, Note_on_c, 2, 59, 95
1, 100200, Pitch_bend_c, 3, 0
1, 100200, Note_on_c, 3, 83, 64
1, 100200, Note_on_c, 3, 47, 64
1, 100200, Note_on_c, 9, 82, 39
1, 100200, Note_on_c, 10, 23, 75
1, 100215, Pitch_bend_c, 0, 8192
1, 100215, Pitch_bend_c, 1, 8192
1, 100215, Pitch_bend_c, 2, 8192
1, 100215, Pitch_bend_c, 3, 8192
1, 100260, Note_on_c, 10, 23, 0
1, 100320, Note_on_c, 1, 71, 0
1, 100320, Note_on_c, 2, 59, 0
1, 100320, Note_on_c, 1, 83, 0
1, 100320, Note_on_c, 1, 35, 0
1, 100320, Note_on_c, 0, 47, 0
1, 100320, Note_on_c, 2, 95, 0
1, 100320, Note_on_c, 2, 83, 0
1, 100320, Note_on_c, 3, 83, 0
1, 100320, Note_on_c, 2, 71, 0
1, 100320, Note_on_c, 9, 82, 0
1, 100320, Note_on_c, 3, 47, 0
1, 100320, Note_on_c, 9, 42, 73
1, 100320, Note_on_c, 9, 35, 102
1, 100320, Note_on_c, 9, 40, 89
1, 100320, Note_on_c, 9, 28, 103
1, 100320, Note_on_c, 9, 82, 40
1, 100320, Note_on_c, 10, 23, 68
1, 100380, Note_on_c, 10, 23, 0
1, 100440, Note_on_c, 9, 35, 0
1, 100440, Note_on_c, 9, 40, 0
1, 100440, Note_on_c, 9, 42, 0
1, 100440, Note_on_c, 9, 82, 0
1, 100440, Note_on_c, 9, 28, 0
1, 100440, Note_on_c, 9, 82, 25
1, 100440, Note_on_c, 10, 23, 75
1, 100500, Note_on_c, 10, 23, 0
1, 100560, Note_on_c, 9, 82, 0
1, 100560, Note_on_c, 0, 47, 95
1, 100560, Note_on_c, 1, 71, 95
1, 100560, Note_on_c, 1, 83, 64
1, 100560, Note_on_c, 1, 35, 95
1, 100560, Note_on_c, 2, 95, 64
1, 100560, Note_on_c, 2, 83, 64
1, 100560, Note_on_c, 2, 71, 127
1, 100560, Note_on_c, 2, 59, 95
1, 100560, Note_on_c, 3, 83, 64
1, 100560, Note_on_c, 3, 47, 64
1, 100560, Note_on_c, 9, 42, 73
1, 100560, Note_on_c, 9, 82, 11
1, 100560, Note_on_c, 10, 23, 99
1, 100620, Note_on_c, 10, 23, 0
1, 100680, Note_on_c, 9, 82, 0
1, 100680, Note_on_c, 9, 42, 0
1, 100680, Note_on_c, 9, 82, 11
1, 100680, Note_on_c, 10, 23, 127
1, 100800, Note_on_c, 9, 82, 0
1, 100800, Note_on_c, 2, 59, 0
1, 100800, Note_on_c, 3, 83, 0
1, 100800, Note_on_c, 1, 83, 0
1, 100800, Note_on_c, 1, 35, 0
1, 100800, Note_on_c, 2, 71, 0
1, 100800, Note_on_c, 2, 95, 0
1, 100800, Note_on_c, 2, 83, 0
1, 100800, Note_on_c, 3, 47, 0
1, 100800, Note_on_c, 0, 47, 0
1, 100800, Note_on_c, 1, 71, 0
1, 100800, Note_on_c, 9, 42, 88
1, 100800, Note_on_c, 9, 35, 102
1, 100800, Note_on_c, 9, 82, 18
1, 100860, Note_on_c, 10, 23, 0
1, 100920, Note_on_c, 9, 42, 0
1, 100920, Note_on_c, 9, 35, 0
1, 100920, Note_on_c, 9, 82, 0
1, 100920, Note_on_c, 0, 43, 95
1, 100920, Note_on_c, 1, 67, 95
1, 100920, Note_on_c, 1, 79, 64
1, 100920, Note_on_c, 1, 31, 95
1, 100920, Note_on_c, 2, 91, 64
1, 100920, Note_on_c, 2, 79, 64
1, 100920, Note_on_c, 2, 67, 127
1, 100920, Note_on_c, 2, 55, 95
1, 100920, Note_on_c, 3, 79, 64
1, 100920, Note_on_c, 3, 43, 64
1, 100920, Note_on_c, 9, 82, 18
1, 100920, Note_on_c, 10, 23, 93
1, 100980, Note_on_c, 10, 23, 0
1, 101040, Note_on_c, 1, 67, 0
1, 101040, Note_on_c, 2, 55, 0
1, 101040, Note_on_c, 1, 79, 0
1, 101040, Note_on_c, 1, 31, 0
1, 101040, Note_on_c, 0, 43, 0
1, 101040, Note_on_c, 2, 91, 0
1, 101040, Note_on_c, 2, 79, 0
1, 101040, Note_on_c, 3, 79, 0
1, 101040, Note_on_c, 2, 67, 0
1, 101040, Note_on_c, 9, 82, 0
1, 101040, Note_on_c, 3, 43, 0
1, 101040, Pitch_bend_c, 0, 5100
1, 101040, Note_on_c, 0, 47, 95
1, 101040, Pitch_bend_c, 1, 5100
1, 101040, Note_on_c, 1, 71, 95
1, 101040, Note_on_c, 1, 83, 64
1, 101040, Note_on_c, 1, 35, 95
1, 101040, Pitch_bend_c, 2, 5100
1, 101040, Note_on_c, 2, 95, 64
1, 101040, Note_on_c, 2, 83, 64
1, 101040, Note_on_c, 2, 71, 127
1, 101040, Note_on_c, 2, 59, 95
1, 101040, Pitch_bend_c, 3, 5100
1, 101040, Note_on_c, 3, 83, 64
1, 101040, Note_on_c, 3, 47, 64
1, 101040, Note_on_c, 9, 42, 73
1, 101040, Note_on_c, 9, 82, 31
1, 101040, Note_on_c, 10, 23, 75
1, 101055, Pitch_bend_c, 0, 6697
1, 101055, Pitch_bend_c, 1, 6697
1, 101055, Pitch_bend_c, 2, 6697
1, 101055, Pitch_bend_c, 3, 6697
1, 101100, Note_on_c, 10, 23, 0
1, 101120, Pitch_bend_c, 0, 6841
1, 101120, Pitch_bend_c, 1, 6841
1, 101120, Pitch_bend_c, 2, 6841
1, 101120, Pitch_bend_c, 3, 6841
1, 101150, Pitch_bend_c, 0, 6984
1, 101150, Pitch_bend_c, 1, 6984
1, 101150, Pitch_bend_c, 2, 6984
1, 101150, Pitch_bend_c, 3, 6984
1, 101160, Note_on_c, 9, 82, 0
1, 101160, Note_on_c, 9, 42, 0
1, 101160, Note_on_c, 9, 82, 39
1, 101160, Note_on_c, 10, 23, 59
1, 101165, Pitch_bend_c, 0, 7175
1, 101165, Pitch_bend_c, 1, 7175
1, 101165, Pitch_bend_c, 2, 7175
1, 101165, Pitch_bend_c, 3, 7175
1, 101180, Pitch_bend_c, 0, 7319
1, 101180, Pitch_bend_c, 1, 7319
1, 101180, Pitch_bend_c, 2, 7319
1, 101180, Pitch_bend_c, 3, 7319
1, 101200, Pitch_bend_c, 0, 7612
1, 101200, Pitch_bend_c, 1, 7612
1, 101200, Pitch_bend_c, 2, 7612
1, 101200, Pitch_bend_c, 3, 7612
1, 101215, Pitch_bend_c, 0, 7756
1, 101215, Pitch_bend_c, 1, 7756
1, 101215, Pitch_bend_c, 2, 7756
1, 101215, Pitch_bend_c, 3, 7756
1, 101220, Note_on_c, 10, 23, 0
1, 101230, Pitch_bend_c, 0, 7899
1, 101230, Pitch_bend_c, 1, 7899
1, 101230, Pitch_bend_c, 2, 7899
1, 101230, Pitch_bend_c, 3, 7899
1, 101245, Pitch_bend_c, 0, 8049
1, 101245, Pitch_bend_c, 1, 8049
1, 101245, Pitch_bend_c, 2, 8049
1, 101245, Pitch_bend_c, 3, 8049
1, 101260, Pitch_bend_c, 0, 8192
1, 101260, Pitch_bend_c, 1, 8192
1, 101260, Pitch_bend_c, 2, 8192
1, 101260, Pitch_bend_c, 3, 8192
1, 101280, Note_on_c, 2, 83, 0
1, 101280, Note_on_c, 3, 83, 0
1, 101280, Note_on_c, 1, 83, 0
1, 101280, Note_on_c, 1, 35, 0
1, 101280, Note_on_c, 0, 47, 0
1, 101280, Note_on_c, 2, 95, 0
1, 101280, Note_on_c, 1, 71, 0
1, 101280, Note_on_c, 3, 47, 0
1, 101280, Note_on_c, 2, 71, 0
1, 101280, Note_on_c, 9, 82, 0
1, 101280, Note_on_c, 2, 59, 0
1, 101280, Note_on_c, 0, 47, 95
1, 101280, Note_on_c, 1, 71, 95
1, 101280, Note_on_c, 1, 83, 64
1, 101280, Note_on_c, 1, 35, 95
1, 101280, Note_on_c, 2, 95, 64
1, 101280, Note_on_c, 2, 83, 64
1, 101280, Note_on_c, 2, 71, 127
1, 101280, Note_on_c, 2, 59, 95
1, 101280, Note_on_c, 3, 83, 64
1, 101280, Note_on_c, 3, 47, 64
1, 101280, Note_on_c, 9, 42, 73
1, 101280, Note_on_c, 9, 40, 90
1, 101280, Note_on_c, 9, 35, 103
1, 101280, Note_on_c, 9, 28, 103
1, 101280, Note_on_c, 9, 82, 40
1, 101280, Note_on_c, 10, 23, 58
1, 101340, Note_on_c, 10, 23, 0
1, 101400, Note_on_c, 9, 82, 0
1, 101400, Note_on_c, 9, 40, 0
1, 101400, Note_on_c, 9, 28, 0
1, 101400, Note_on_c, 9, 42, 0
1, 101400, Note_on_c, 9, 35, 0
1, 101400, Note_on_c, 9, 82, 25
1, 101400, Note_on_c, 10, 23, 72
1, 101460, Note_on_c, 10, 23, 0
1, 101520, Note_on_c, 2, 95, 0
1, 101520, Note_on_c, 3, 83, 0
1, 101520, Note_on_c, 1, 83, 0
1, 101520, Note_on_c, 1, 35, 0
1, 101520, Note_on_c, 2, 71, 0
1, 101520, Note_on_c, 2, 83, 0
1, 101520, Note_on_c, 1, 71, 0
1, 101520, Note_on_c, 0, 47, 0
1, 101520, Note_on_c, 3, 47, 0
1, 101520, Note_on_c, 9, 82, 0
1, 101520, Note_on_c, 2, 59, 0
1, 101520, Note_on_c, 0, 47, 95
1, 101520, Note_on_c, 1, 71, 95
1, 101520, Note_on_c, 1, 83, 64
1, 101520, Note_on_c, 1, 35, 95
1, 101520, Note_on_c, 2, 95, 64
1, 101520, Note_on_c, 2, 83, 64
1, 101520, Note_on_c, 2, 71, 127
1, 101520, Note_on_c, 2, 59, 95
1, 101520, Note_on_c, 3, 83, 64
1, 101520, Note_on_c, 3, 47, 64
1, 101520, Note_on_c, 9, 42, 73
1, 101520, Note_on_c, 9, 82, 11
1, 101520, Note_on_c, 10, 23, 91
1, 101550, Pitch_bend_c, 0, 8335
1, 101550, Pitch_bend_c, 1, 8335
1, 101550, Pitch_bend_c, 2, 8335
1, 101550, Pitch_bend_c, 3, 8335
1, 101580, Note_on_c, 10, 23, 0
1, 101600, Pitch_bend_c, 0, 8485
1, 101600, Pitch_bend_c, 1, 8485
1, 101600, Pitch_bend_c, 2, 8485
1, 101600, Pitch_bend_c, 3, 8485
1, 101615, Pitch_bend_c, 0, 8628
1, 101615, Pitch_bend_c, 1, 8628
1, 101615, Pitch_bend_c, 2, 8628
1, 101615, Pitch_bend_c, 3, 8628
1, 101630, Pitch_bend_c, 0, 8772
1, 101630, Pitch_bend_c, 1, 8772
1, 101630, Pitch_bend_c, 2, 8772
1, 101630, Pitch_bend_c, 3, 8772
1, 101640, Note_on_c, 9, 82, 0
1, 101640, Note_on_c, 9, 42, 0
1, 101640, Note_on_c, 9, 82, 11
1, 101640, Note_on_c, 10, 23, 127
1, 101645, Pitch_bend_c, 0, 9065
1, 101645, Pitch_bend_c, 1, 9065
1, 101645, Pitch_bend_c, 2, 9065
1, 101645, Pitch_bend_c, 3, 9065
1, 101660, Pitch_bend_c, 0, 9400
1, 101660, Pitch_bend_c, 1, 9400
1, 101660, Pitch_bend_c, 2, 9400
1, 101660, Pitch_bend_c, 3, 9400
1, 101680, Pitch_bend_c, 0, 9543
1, 101680, Pitch_bend_c, 1, 9543
1, 101680, Pitch_bend_c, 2, 9543
1, 101680, Pitch_bend_c, 3, 9543
1, 101695, Pitch_bend_c, 0, 9830
1, 101695, Pitch_bend_c, 1, 9830
1, 101695, Pitch_bend_c, 2, 9830
1, 101695, Pitch_bend_c, 3, 9830
1, 101710, Pitch_bend_c, 0, 10110
1, 101710, Pitch_bend_c, 1, 10110
1, 101710, Pitch_bend_c, 2, 10110
1, 101710, Pitch_bend_c, 3, 10110
1, 101725, Pitch_bend_c, 0, 10253
1, 101725, Pitch_bend_c, 1, 10253
1, 101725, Pitch_bend_c, 2, 10253
1, 101725, Pitch_bend_c, 3, 10253
1, 101740, Pitch_bend_c, 0, 10397
1, 101740, Pitch_bend_c, 1, 10397
1, 101740, Pitch_bend_c, 2, 10397
1, 101740, Pitch_bend_c, 3, 10397
1, 101760, Note_on_c, 9, 82, 0
1, 101760, Note_on_c, 2, 59, 0
1, 101760, Note_on_c, 3, 83, 0
1, 101760, Note_on_c, 1, 83, 0
1, 101760, Note_on_c, 1, 35, 0
1, 101760, Note_on_c, 2, 71, 0
1, 101760, Note_on_c, 2, 95, 0
1, 101760, Note_on_c, 2, 83, 0
1, 101760, Note_on_c, 3, 47, 0
1, 101760, Note_on_c, 0, 47, 0
1, 101760, Note_on_c, 1, 71, 0
1, 101760, Pitch_bend_c, 0, 12165
1, 101760, Note_on_c, 0, 35, 95
1, 101760, Pitch_bend_c, 1, 12165
1, 101760, Note_on_c, 1, 59, 95
1, 101760, Note_on_c, 1, 71, 64
1, 101760, Note_on_c, 1, 23, 95
1, 101760, Pitch_bend_c, 2, 12165
1, 101760, Note_on_c, 2, 83, 64
1, 101760, Note_on_c, 2, 71, 64
1, 101760, Note_on_c, 2, 59, 127
1, 101760, Note_on_c, 2, 47, 95
1, 101760, Pitch_bend_c, 3, 12165
1, 101760, Note_on_c, 3, 71, 64
1, 101760, Note_on_c, 3, 35, 64
1, 101760, Note_on_c, 9, 82, 18
1, 101760, Note_on_c, 9, 42, 103
1, 101760, Note_on_c, 9, 35, 103
1, 101760, Control_c, 13, 7, 0
1, 101760, Pitch_bend_c, 13, 8192
1, 101760, Note_on_c, 13, 75, 63
1, 101760, Note_on_c, 13, 74, 63
1, 101760, Note_on_c, 13, 73, 63
1, 101760, Note_on_c, 13, 72, 63
1, 101760, Note_on_c, 13, 60, 63
1, 101760, Note_on_c, 13, 71, 63
1, 101760, Note_on_c, 13, 70, 63
1, 101760, Note_on_c, 13, 69, 63
1, 101760, Note_on_c, 13, 68, 63
1, 101760, Note_on_c, 13, 67, 63
1, 101760, Note_on_c, 13, 66, 63
1, 101760, Note_on_c, 13, 65, 63
1, 101760, Note_on_c, 13, 64, 63
1, 101760, Note_on_c, 13, 62, 63
1, 101760, Note_on_c, 13, 63, 63
1, 101760, Note_on_c, 13, 61, 63
1, 101775, Pitch_bend_c, 0, 8192
1, 101775, Pitch_bend_c, 1, 8192
1, 101775, Pitch_bend_c, 2, 8192
1, 101775, Pitch_bend_c, 3, 8192
1, 101880, Note_on_c, 9, 35, 0
1, 101880, Note_on_c, 9, 42, 0
1, 101880, Note_on_c, 10, 23, 0
1, 101880, Note_on_c, 9, 82, 0
1, 101880, Note_on_c, 9, 82, 18
1, 101880, Note_on_c, 10, 23, 79
1, 101940, Note_on_c, 10, 23, 0
1, 102000, Note_on_c, 9, 82, 0
1, 102000, Note_on_c, 9, 82, 31
1, 102000, Note_on_c, 9, 42, 73
1, 102000, Note_on_c, 10, 23, 64
1, 102060, Note_on_c, 10, 23, 0
1, 102120, Note_on_c, 3, 35, 0
1, 102120, Note_on_c, 2, 83, 0
1, 102120, Note_on_c, 0, 35, 0
1, 102120, Note_on_c, 1, 23, 0
1, 102120, Note_on_c, 3, 71, 0
1, 102120, Note_on_c, 1, 71, 0
1, 102120, Note_on_c, 2, 47, 0
1, 102120, Note_on_c, 9, 42, 0
1, 102120, Note_on_c, 1, 59, 0
1, 102120, Note_on_c, 2, 71, 0
1, 102120, Note_on_c, 9, 82, 0
1, 102120, Note_on_c, 2, 59, 0
1, 102120, Pitch_bend_c, 0, 0
1, 102120, Note_on_c, 0, 47, 95
1, 102120, Pitch_bend_c, 1, 0
1, 102120, Note_on_c, 1, 71, 95
1, 102120, Note_on_c, 1, 83, 64
1, 102120, Note_on_c, 1, 35, 95
1, 102120, Pitch_bend_c, 2, 0
1, 102120, Note_on_c, 2, 95, 64
1, 102120, Note_on_c, 2, 83, 64
1, 102120, Note_on_c, 2, 71, 127
1, 102120, Note_on_c, 2, 59, 95
1, 102120, Pitch_bend_c, 3, 0
1, 102120, Note_on_c, 3, 83, 64
1, 102120, Note_on_c, 3, 47, 64
1, 102120, Note_on_c, 9, 82, 39
1, 102120, Note_on_c, 10, 23, 62
1, 102135, Pitch_bend_c, 0, 8192
1, 102135, Pitch_bend_c, 1, 8192
1, 102135, Pitch_bend_c, 2, 8192
1, 102135, Pitch_bend_c, 3, 8192
1, 102180, Note_on_c, 10, 23, 0
1, 102240, Note_on_c, 2, 83, 0
1, 102240, Note_on_c, 2, 71, 0
1, 102240, Note_on_c, 0, 47, 0
1, 102240, Note_on_c, 2, 95, 0
1, 102240, Note_on_c, 1, 71, 0
1, 102240, Note_on_c, 1, 35, 0
1, 102240, Note_on_c, 1, 83, 0
1, 102240, Note_on_c, 9, 82, 0
1, 102240, Note_on_c, 3, 83, 0
1, 102240, Note_on_c, 2, 59, 0
1, 102240, Note_on_c, 3, 47, 0
1, 102240, Note_on_c, 9, 82, 40
1, 102240, Note_on_c, 9, 42, 73
1, 102240, Note_on_c, 9, 40, 91
1, 102240, Note_on_c, 9, 35, 103
1, 102240, Note_on_c, 9, 28, 102
1, 102240, Note_on_c, 10, 23, 66
1, 102300, Note_on_c, 10, 23, 0
1, 102360, Note_on_c, 9, 28, 0
1, 102360, Note_on_c, 9, 82, 0
1, 102360, Note_on_c, 9, 35, 0
1, 102360, Note_on_c, 9, 42, 0
1, 102360, Note_on_c, 9, 40, 0
1, 102360, Note_on_c, 9, 82, 25
1, 102360, Note_on_c, 10, 23, 91
1, 102420, Note_on_c, 10, 23, 0
1, 102480, Note_on_c, 9, 82, 0
1, 102480, Note_on_c, 0, 47, 95
1, 102480, Note_on_c, 1, 71, 95
1, 102480, Note_on_c, 1, 83, 64
1, 102480, Note_on_c, 1, 35, 95
1, 102480, Note_on_c, 2, 95, 64
1, 102480, Note_on_c, 2, 83, 64
1, 102480, Note_on_c, 2, 71, 127
1, 102480, Note_on_c, 2, 59, 95
1, 102480, Note_on_c, 3, 83, 64
1, 102480, Note_on_c, 3, 47, 64
1, 102480, Note_on_c, 9, 82, 11
1, 102480, Note_on_c, 9, 42, 73
1, 102480, Note_on_c, 10, 23, 98
1, 102540, Note_on_c, 10, 23, 0
1, 102600, Note_on_c, 9, 42, 0
1, 102600, Note_on_c, 9, 82, 0
1, 102600, Note_on_c, 9, 82, 11
1, 102600, Note_on_c, 10, 23, 127
1, 102720, Note_on_c, 9, 82, 0
1, 102720, Note_on_c, 0, 47, 0
1, 102720, Note_on_c, 2, 71, 0
1, 102720, Note_on_c, 2, 95, 0
1, 102720, Note_on_c, 1, 71, 0
1, 102720, Note_on_c, 1, 35, 0
1, 102720, Note_on_c, 1, 83, 0
1, 102720, Note_on_c, 2, 83, 0
1, 102720, Note_on_c, 3, 83, 0
1, 102720, Note_on_c, 2, 59, 0
1, 102720, Note_on_c, 3, 47, 0
1, 102720, Note_on_c, 0, 47, 95
1, 102720, Note_on_c, 1, 71, 95
1, 102720, Note_on_c, 1, 83, 64
1, 102720, Note_on_c, 1, 35, 95
1, 102720, Note_on_c, 2, 95, 64
1, 102720, Note_on_c, 2, 83, 64
1, 102720, Note_on_c, 2, 71, 127
1, 102720, Note_on_c, 2, 59, 95
1, 102720, Note_on_c, 3, 83, 64
1, 102720, Note_on_c, 3, 47, 64
1, 102720, Note_on_c, 9, 82, 18
1, 102720, Note_on_c, 9, 42, 88
1, 102720, Note_on_c, 9, 35, 104
1, 102750, Pitch_bend_c, 0, 8049
1, 102750, Pitch_bend_c, 1, 8049
1, 102750, Pitch_bend_c, 2, 8049
1, 102750, Pitch_bend_c, 3, 8049
1, 102780, Note_on_c, 10, 23, 0
1, 102780, Pitch_bend_c, 0, 7899
1, 102780, Pitch_bend_c, 1, 7899
1, 102780, Pitch_bend_c, 2, 7899
1, 102780, Pitch_bend_c, 3, 7899
1, 102815, Pitch_bend_c, 0, 7756
1, 102815, Pitch_bend_c, 1, 7756
1, 102815, Pitch_bend_c, 2, 7756
1, 102815, Pitch_bend_c, 3, 7756
1, 102840, Note_on_c, 9, 35, 0
1, 102840, Note_on_c, 9, 42, 0
1, 102840, Note_on_c, 9, 82, 0
1, 102840, Note_on_c, 9, 82, 18
1, 102840, Note_on_c, 10, 23, 66
1, 102845, Pitch_bend_c, 0, 7612
1, 102845, Pitch_bend_c, 1, 7612
1, 102845, Pitch_bend_c, 2, 7612
1, 102845, Pitch_bend_c, 3, 7612
1, 102880, Pitch_bend_c, 0, 7469
1, 102880, Pitch_bend_c, 1, 7469
1, 102880, Pitch_bend_c, 2, 7469
1, 102880, Pitch_bend_c, 3, 7469
1, 102900, Note_on_c, 10, 23, 0
1, 102900, Note_on_c, 0, 47, 0
1, 102900, Note_on_c, 2, 95, 0
1, 102900, Note_on_c, 1, 71, 0
1, 102900, Note_on_c, 1, 35, 0
1, 102900, Note_on_c, 1, 83, 0
1, 102900, Note_on_c, 2, 83, 0
1, 102900, Note_on_c, 2, 59, 0
1, 102900, Note_on_c, 2, 71, 0
1, 102900, Note_on_c, 3, 83, 0
1, 102900, Note_on_c, 3, 47, 0
1, 102960, Note_on_c, 9, 82, 0
1, 102960, Note_on_c, 0, 47, 95
1, 102960, Note_on_c, 1, 71, 95
1, 102960, Note_on_c, 1, 83, 64
1, 102960, Note_on_c, 1, 35, 95
1, 102960, Note_on_c, 2, 95, 64
1, 102960, Note_on_c, 2, 83, 64
1, 102960, Note_on_c, 2, 71, 127
1, 102960, Note_on_c, 2, 59, 95
1, 102960, Note_on_c, 3, 83, 64
1, 102960, Note_on_c, 3, 47, 64
1, 102960, Note_on_c, 9, 82, 31
1, 102960, Note_on_c, 9, 42, 73
1, 102960, Note_on_c, 10, 23, 74
1, 102975, Pitch_bend_c, 0, 7319
1, 102975, Pitch_bend_c, 1, 7319
1, 102975, Pitch_bend_c, 2, 7319
1, 102975, Pitch_bend_c, 3, 7319
1, 103020, Note_on_c, 10, 23, 0
1, 103020, Pitch_bend_c, 0, 7175
1, 103020, Pitch_bend_c, 1, 7175
1, 103020, Pitch_bend_c, 2, 7175
1, 103020, Pitch_bend_c, 3, 7175
1, 103040, Pitch_bend_c, 0, 6984
1, 103040, Pitch_bend_c, 1, 6984
1, 103040, Pitch_bend_c, 2, 6984
1, 103040, Pitch_bend_c, 3, 6984
1, 103070, Pitch_bend_c, 0, 6841
1, 103070, Pitch_bend_c, 1, 6841
1, 103070, Pitch_bend_c, 2, 6841
1, 103070, Pitch_bend_c, 3, 6841
1, 103080, Note_on_c, 9, 42, 0
1, 103080, Note_on_c, 9, 82, 0
1, 103080, Note_on_c, 9, 82, 39
1, 103080, Note_on_c, 10, 23, 84
1, 103100, Pitch_bend_c, 0, 6697
1, 103100, Pitch_bend_c, 1, 6697
1, 103100, Pitch_bend_c, 2, 6697
1, 103100, Pitch_bend_c, 3, 6697
1, 103140, Note_on_c, 10, 23, 0
1, 103180, Pitch_bend_c, 0, 6554
1, 103180, Pitch_bend_c, 1, 6554
1, 103180, Pitch_bend_c, 2, 6554
1, 103180, Pitch_bend_c, 3, 6554
1, 103200, Note_on_c, 0, 47, 0
1, 103200, Note_on_c, 2, 71, 0
1, 103200, Note_on_c, 2, 95, 0
1, 103200, Note_on_c, 1, 71, 0
1, 103200, Note_on_c, 1, 35, 0
1, 103200, Note_on_c, 1, 83, 0
1, 103200, Note_on_c, 9, 82, 0
1, 103200, Note_on_c, 3, 83, 0
1, 103200, Note_on_c, 2, 59, 0
1, 103200, Note_on_c, 2, 83, 0
1, 103200, Note_on_c, 3, 47, 0
1, 103200, Note_on_c, 0, 47, 95
1, 103200, Note_on_c, 1, 71, 95
1, 103200, Note_on_c, 1, 83, 64
1, 103200, Note_on_c, 1, 35, 95
1, 103200, Note_on_c, 2, 95, 64
1, 103200, Note_on_c, 2, 83, 64
1, 103200, Note_on_c, 2, 71, 127
1, 103200, Note_on_c, 2, 59, 95
1, 103200, Note_on_c, 3, 83, 64
1, 103200, Note_on_c, 3, 47, 64
1, 103200, Note_on_c, 9, 82, 40
1, 103200, Note_on_c, 9, 42, 73
1, 103200, Note_on_c, 9, 40, 92
1, 103200, Note_on_c, 9, 35, 104
1, 103200, Note_on_c, 9, 28, 102
1, 103200, Note_on_c, 10, 35, 127
1, 103230, Pitch_bend_c, 0, 6418
1, 103230, Pitch_bend_c, 1, 6418
1, 103230, Pitch_bend_c, 2, 6418
1, 103230, Pitch_bend_c, 3, 6418
1, 103245, Pitch_bend_c, 0, 6274
1, 103245, Pitch_bend_c, 1, 6274
1, 103245, Pitch_bend_c, 2, 6274
1, 103245, Pitch_bend_c, 3, 6274
1, 103260, Pitch_bend_c, 0, 6131
1, 103260, Pitch_bend_c, 1, 6131
1, 103260, Pitch_bend_c, 2, 6131
1, 103260, Pitch_bend_c, 3, 6131
1, 103280, Pitch_bend_c, 0, 5987
1, 103280, Pitch_bend_c, 1, 5987
1, 103280, Pitch_bend_c, 2, 5987
1, 103280, Pitch_bend_c, 3, 5987
1, 103295, Pitch_bend_c, 0, 5803
1, 103295, Pitch_bend_c, 1, 5803
1, 103295, Pitch_bend_c, 2, 5803
1, 103295, Pitch_bend_c, 3, 5803
1, 103310, Pitch_bend_c, 0, 5660
1, 103310, Pitch_bend_c, 1, 5660
1, 103310, Pitch_bend_c, 2, 5660
1, 103310, Pitch_bend_c, 3, 5660
1, 103320, Note_on_c, 9, 28, 0
1, 103320, Note_on_c, 9, 35, 0
1, 103320, Note_on_c, 9, 40, 0
1, 103320, Note_on_c, 9, 42, 0
1, 103320, Note_on_c, 9, 82, 0
1, 103320, Note_on_c, 9, 82, 25
1, 103325, Pitch_bend_c, 0, 5516
1, 103325, Pitch_bend_c, 1, 5516
1, 103325, Pitch_bend_c, 2, 5516
1, 103325, Pitch_bend_c, 3, 5516
1, 103340, Pitch_bend_c, 0, 5380
1, 103340, Pitch_bend_c, 1, 5380
1, 103340, Pitch_bend_c, 2, 5380
1, 103340, Pitch_bend_c, 3, 5380
1, 103360, Pitch_bend_c, 0, 5237
1, 103360, Pitch_bend_c, 1, 5237
1, 103360, Pitch_bend_c, 2, 5237
1, 103360, Pitch_bend_c, 3, 5237
1, 103380, Note_on_c, 10, 35, 0
1, 103390, Pitch_bend_c, 0, 5100
1, 103390, Pitch_bend_c, 1, 5100
1, 103390, Pitch_bend_c, 2, 5100
1, 103390, Pitch_bend_c, 3, 5100
1, 103440, Note_on_c, 2, 83, 0
1, 103440, Note_on_c, 0, 47, 0
1, 103440, Note_on_c, 2, 95, 0
1, 103440, Note_on_c, 1, 71, 0
1, 103440, Note_on_c, 1, 35, 0
1, 103440, Note_on_c, 1, 83, 0
1, 103440, Note_on_c, 9, 82, 0
1, 103440, Note_on_c, 2, 59, 0
1, 103440, Note_on_c, 2, 71, 0
1, 103440, Note_on_c, 3, 83, 0
1, 103440, Note_on_c, 3, 47, 0
1, 103440, Note_on_c, 0, 47, 95
1, 103440, Note_on_c, 1, 71, 95
1, 103440, Note_on_c, 1, 83, 64
1, 103440, Note_on_c, 1, 35, 95
1, 103440, Note_on_c, 2, 95, 64
1, 103440, Note_on_c, 2, 83, 64
1, 103440, Note_on_c, 2, 71, 127
1, 103440, Note_on_c, 2, 59, 95
1, 103440, Note_on_c, 3, 83, 64
1, 103440, Note_on_c, 3, 47, 64
1, 103440, Note_on_c, 9, 82, 11
1, 103440, Note_on_c, 9, 42, 73
1, 103440, Note_on_c, 10, 23, 103
1, 103455, Pitch_bend_c, 0, 4963
1, 103455, Pitch_bend_c, 1, 4963
1, 103455, Pitch_bend_c, 2, 4963
1, 103455, Pitch_bend_c, 3, 4963
1, 103470, Pitch_bend_c, 0, 4636
1, 103470, Pitch_bend_c, 1, 4636
1, 103470, Pitch_bend_c, 2, 4636
1, 103470, Pitch_bend_c, 3, 4636
1, 103485, Pitch_bend_c, 0, 4499
1, 103485, Pitch_bend_c, 1, 4499
1, 103485, Pitch_bend_c, 2, 4499
1, 103485, Pitch_bend_c, 3, 4499
1, 103500, Note_on_c, 10, 23, 0
1, 103500, Pitch_bend_c, 0, 4083
1, 103500, Pitch_bend_c, 1, 4083
1, 103500, Pitch_bend_c, 2, 4083
1, 103500, Pitch_bend_c, 3, 4083
1, 103520, Pitch_bend_c, 0, 3810
1, 103520, Pitch_bend_c, 1, 3810
1, 103520, Pitch_bend_c, 2, 3810
1, 103520, Pitch_bend_c, 3, 3810
1, 103535, Pitch_bend_c, 0, 3359
1, 103535, Pitch_bend_c, 1, 3359
1, 103535, Pitch_bend_c, 2, 3359
1, 103535, Pitch_bend_c, 3, 3359
1, 103550, Pitch_bend_c, 0, 3086
1, 103550, Pitch_bend_c, 1, 3086
1, 103550, Pitch_bend_c, 2, 3086
1, 103550, Pitch_bend_c, 3, 3086
1, 103560, Note_on_c, 9, 42, 0
1, 103560, Note_on_c, 9, 82, 0
1, 103560, Note_on_c, 9, 82, 11
1, 103560, Note_on_c, 10, 35, 127
1, 103565, Pitch_bend_c, 0, 2820
1, 103565, Pitch_bend_c, 1, 2820
1, 103565, Pitch_bend_c, 2, 2820
1, 103565, Pitch_bend_c, 3, 2820
1, 103580, Pitch_bend_c, 0, 2683
1, 103580, Pitch_bend_c, 1, 2683
1, 103580, Pitch_bend_c, 2, 2683
1, 103580, Pitch_bend_c, 3, 2683
1, 103600, Pitch_bend_c, 0, 2369
1, 103600, Pitch_bend_c, 1, 2369
1, 103600, Pitch_bend_c, 2, 2369
1, 103600, Pitch_bend_c, 3, 2369
1, 103615, Pitch_bend_c, 0, 2240
1, 103615, Pitch_bend_c, 1, 2240
1, 103615, Pitch_bend_c, 2, 2240
1, 103615, Pitch_bend_c, 3, 2240
1, 103645, Pitch_bend_c, 0, 2103
1, 103645, Pitch_bend_c, 1, 2103
1, 103645, Pitch_bend_c, 2, 2103
1, 103645, Pitch_bend_c, 3, 2103
1, 103680, Note_on_c, 10, 35, 0
1, 103680, Note_on_c, 0, 47, 0
1, 103680, Note_on_c, 2, 71, 0
1, 103680, Note_on_c, 2, 95, 0
1, 103680, Note_on_c, 1, 71, 0
1, 103680, Note_on_c, 1, 35, 0
1, 103680, Note_on_c, 1, 83, 0
1, 103680, Note_on_c, 9, 82, 0
1, 103680, Note_on_c, 3, 83, 0
1, 103680, Note_on_c, 2, 59, 0
1, 103680, Note_on_c, 2, 83, 0
1, 103680, Note_on_c, 3, 47, 0
1, 103680, Pitch_bend_c, 0, 8192
1, 103680, Note_on_c, 0, 35, 95
1, 103680, Pitch_bend_c, 1, 8192
1, 103680, Note_on_c, 1, 59, 95
1, 103680, Note_on_c, 1, 71, 64
1, 103680, Note_on_c, 1, 23, 95
1, 103680, Pitch_bend_c, 2, 8192
1, 103680, Note_on_c, 2, 83, 94
1, 103680, Note_on_c, 2, 71, 64
1, 103680, Note_on_c, 2, 59, 127
1, 103680, Note_on_c, 2, 47, 95
1, 103680, Pitch_bend_c, 3, 8192
1, 103680, Note_on_c, 3, 71, 64
1, 103680, Note_on_c, 3, 35, 64
1, 103680, Note_on_c, 9, 57, 103
1, 103680, Note_on_c, 9, 52, 127
1, 103680, Note_on_c, 9, 49, 103
1, 103680, Note_on_c, 9, 42, 103
1, 103680, Note_on_c, 9, 35, 103
1, 103680, Note_on_c, 9, 82, 18
1, 103680, Note_on_c, 10, 23, 127
1, 103680, Control_c, 13, 7, 127
1, 103740, Control_c, 13, 7, 127
1, 103800, Note_on_c, 9, 82, 0
1, 103800, Note_on_c, 9, 35, 0
1, 103800, Note_on_c, 9, 42, 0
1, 103800, Note_on_c, 9, 82, 18
1, 103800, Control_c, 13, 7, 125
1, 103860, Note_on_c, 10, 23, 0
1, 103860, Control_c, 13, 7, 124
1, 103920, Note_on_c, 9, 82, 0
1, 103920, Note_on_c, 9, 42, 73
1, 103920, Note_on_c, 9, 82, 31
1, 103920, Note_on_c, 10, 23, 93
1, 103920, Control_c, 13, 7, 121
1, 103980, Note_on_c, 10, 23, 0
1, 103980, Control_c, 13, 7, 119
1, 104040, Note_on_c, 9, 82, 0
1, 104040, Note_on_c, 2, 47, 0
1, 104040, Note_on_c, 3, 35, 0
1, 104040, Note_on_c, 0, 35, 0
1, 104040, Note_on_c, 2, 83, 0
1, 104040, Note_on_c, 1, 59, 0
1, 104040, Note_on_c, 1, 23, 0
1, 104040, Note_on_c, 1, 71, 0
1, 104040, Note_on_c, 9, 42, 0
1, 104040, Note_on_c, 2, 59, 0
1, 104040, Note_on_c, 2, 71, 0
1, 104040, Note_on_c, 3, 71, 0
1, 104040, Pitch_bend_c, 0, 0
1, 104040, Note_on_c, 0, 47, 95
1, 104040, Pitch_bend_c, 1, 0
1, 104040, Note_on_c, 1, 71, 95
1, 104040, Note_on_c, 1, 83, 64
1, 104040, Note_on_c, 1, 35, 95
1, 104040, Pitch_bend_c, 2, 0
1, 104040, Note_on_c, 2, 95, 64
1, 104040, Note_on_c, 2, 83, 64
1, 104040, Note_on_c, 2, 71, 127
1, 104040, Note_on_c, 2, 59, 95
1, 104040, Pitch_bend_c, 3, 0
1, 104040, Note_on_c, 3, 83, 64
1, 104040, Note_on_c, 3, 47, 64
1, 104040, Note_on_c, 9, 82, 39
1, 104040, Note_on_c, 10, 23, 75
1, 104040, Control_c, 13, 7, 117
1, 104055, Pitch_bend_c, 0, 8192
1, 104055, Pitch_bend_c, 1, 8192
1, 104055, Pitch_bend_c, 2, 8192
1, 104055, Pitch_bend_c, 3, 8192
1, 104100, Note_on_c, 10, 23, 0
1, 104100, Control_c, 13, 7, 114
1, 104160, Note_on_c, 2, 59, 0
1, 104160, Note_on_c, 1, 83, 0
1, 104160, Note_on_c, 1, 71, 0
1, 104160, Note_on_c, 0, 47, 0
1, 104160, Note_on_c, 1, 35, 0
1, 104160, Note_on_c, 9, 82, 0
1, 104160, Note_on_c, 2, 83, 0
1, 104160, Note_on_c, 2, 95, 0
1, 104160, Note_on_c, 3, 47, 0
1, 104160, Note_on_c, 2, 71, 0
1, 104160, Note_on_c, 3, 83, 0
1, 104160, Note_on_c, 9, 42, 73
1, 104160, Note_on_c, 9, 35, 102
1, 104160, Note_on_c, 9, 40, 89
1, 104160, Note_on_c, 9, 28, 103
1, 104160, Note_on_c, 9, 82, 40
1, 104160, Note_on_c, 10, 23, 68
1, 104160, Control_c, 13, 7, 112
1, 104220, Note_on_c, 10, 23, 0
1, 104220, Control_c, 13, 7, 110
1, 104280, Note_on_c, 9, 40, 0
1, 104280, Note_on_c, 9, 35, 0
1, 104280, Note_on_c, 9, 42, 0
1, 104280, Note_on_c, 9, 82, 0
1, 104280, Note_on_c, 9, 28, 0
1, 104280, Note_on_c, 9, 82, 25
1, 104280, Note_on_c, 10, 23, 75
1, 104280, Control_c, 13, 7, 108
1, 104340, Note_on_c, 10, 23, 0
1, 104340, Control_c, 13, 7, 106
1, 104400, Note_on_c, 9, 82, 0
1, 104400, Note_on_c, 0, 47, 95
1, 104400, Note_on_c, 1, 71, 95
1, 104400, Note_on_c, 1, 83, 64
1, 104400, Note_on_c, 1, 35, 95
1, 104400, Note_on_c, 2, 95, 64
1, 104400, Note_on_c, 2, 83, 64
1, 104400, Note_on_c, 2, 71, 127
1, 104400, Note_on_c, 2, 59, 95
1, 104400, Note_on_c, 3, 83, 64
1, 104400, Note_on_c, 3, 47, 64
1, 104400, Note_on_c, 9, 42, 73
1, 104400, Note_on_c, 9, 82, 11
1, 104400, Note_on_c, 10, 23, 99
1, 104400, Control_c, 13, 7, 105
1, 104460, Note_on_c, 10, 23, 0
1, 104460, Control_c, 13, 7, 103
1, 104520, Note_on_c, 9, 82, 0
1, 104520, Note_on_c, 9, 42, 0
1, 104520, Note_on_c, 9, 82, 11
1, 104520, Note_on_c, 10, 23, 127
1, 104520, Control_c, 13, 7, 101
1, 104580, Control_c, 13, 7, 99
1, 104640, Note_on_c, 9, 82, 0
1, 104640, Note_on_c, 1, 71, 0
1, 104640, Note_on_c, 3, 83, 0
1, 104640, Note_on_c, 0, 47, 0
1, 104640, Note_on_c, 1, 83, 0
1, 104640, Note_on_c, 2, 83, 0
1, 104640, Note_on_c, 2, 95, 0
1, 104640, Note_on_c, 1, 35, 0
1, 104640, Note_on_c, 2, 59, 0
1, 104640, Note_on_c, 2, 71, 0
1, 104640, Note_on_c, 3, 47, 0
1, 104640, Note_on_c, 9, 42, 88
1, 104640, Note_on_c, 9, 35, 102
1, 104640, Note_on_c, 9, 82, 18
1, 104640, Control_c, 13, 7, 96
1, 104700, Note_on_c, 10, 23, 0
1, 104700, Control_c, 13, 7, 95
1, 104760, Note_on_c, 9, 82, 0
1, 104760, Note_on_c, 9, 35, 0
1, 104760, Note_on_c, 9, 42, 0
1, 104760, Note_on_c, 0, 43, 95
1, 104760, Note_on_c, 1, 67, 95
1, 104760, Note_on_c, 1, 79, 64
1, 104760, Note_on_c, 1, 31, 95
1, 104760, Note_on_c, 2, 91, 64
1, 104760, Note_on_c, 2, 79, 64
1, 104760, Note_on_c, 2, 67, 127
1, 104760, Note_on_c, 2, 55, 95
1, 104760, Note_on_c, 3, 79, 64
1, 104760, Note_on_c, 3, 43, 64
1, 104760, Note_on_c, 9, 82, 18
1, 104760, Note_on_c, 10, 23, 93
1, 104760, Control_c, 13, 7, 92
1, 104820, Note_on_c, 10, 23, 0
1, 104820, Control_c, 13, 7, 91
1, 104880, Note_on_c, 2, 55, 0
1, 104880, Note_on_c, 1, 79, 0
1, 104880, Note_on_c, 1, 67, 0
1, 104880, Note_on_c, 0, 43, 0
1, 104880, Note_on_c, 1, 31, 0
1, 104880, Note_on_c, 9, 82, 0
1, 104880, Note_on_c, 2, 79, 0
1, 104880, Note_on_c, 2, 91, 0
1, 104880, Note_on_c, 3, 43, 0
1, 104880, Note_on_c, 2, 67, 0
1, 104880, Note_on_c, 3, 79, 0
1, 104880, Pitch_bend_c, 0, 5100
1, 104880, Note_on_c, 0, 47, 95
1, 104880, Pitch_bend_c, 1, 5100
1, 104880, Note_on_c, 1, 71, 95
1, 104880, Note_on_c, 1, 83, 64
1, 104880, Note_on_c, 1, 35, 95
1, 104880, Pitch_bend_c, 2, 5100
1, 104880, Note_on_c, 2, 95, 64
1, 104880, Note_on_c, 2, 83, 64
1, 104880, Note_on_c, 2, 71, 127
1, 104880, Note_on_c, 2, 59, 95
1, 104880, Pitch_bend_c, 3, 5100
1, 104880, Note_on_c, 3, 83, 64
1, 104880, Note_on_c, 3, 47, 64
1, 104880, Note_on_c, 9, 42, 73
1, 104880, Note_on_c, 9, 82, 31
1, 104880, Note_on_c, 10, 23, 75
1, 104880, Control_c, 13, 7, 90
1, 104895, Pitch_bend_c, 0, 6697
1, 104895, Pitch_bend_c, 1, 6697
1, 104895, Pitch_bend_c, 2, 6697
1, 104895, Pitch_bend_c, 3, 6697
1, 104940, Note_on_c, 10, 23, 0
1, 104940, Control_c, 13, 7, 88
1, 104960, Pitch_bend_c, 0, 6841
1, 104960, Pitch_bend_c, 1, 6841
1, 104960, Pitch_bend_c, 2, 6841
1, 104960, Pitch_bend_c, 3, 6841
1, 104990, Pitch_bend_c, 0, 6984
1, 104990, Pitch_bend_c, 1, 6984
1, 104990, Pitch_bend_c, 2, 6984
1, 104990, Pitch_bend_c, 3, 6984
1, 105000, Note_on_c, 9, 82, 0
1, 105000, Note_on_c, 9, 42, 0
1, 105000, Note_on_c, 9, 82, 39
1, 105000, Note_on_c, 10, 23, 59
1, 105000, Control_c, 13, 7, 86
1, 105005, Pitch_bend_c, 0, 7175
1, 105005, Pitch_bend_c, 1, 7175
1, 105005, Pitch_bend_c, 2, 7175
1, 105005, Pitch_bend_c, 3, 7175
1, 105020, Pitch_bend_c, 0, 7319
1, 105020, Pitch_bend_c, 1, 7319
1, 105020, Pitch_bend_c, 2, 7319
1, 105020, Pitch_bend_c, 3, 7319
1, 105040, Pitch_bend_c, 0, 7612
1, 105040, Pitch_bend_c, 1, 7612
1, 105040, Pitch_bend_c, 2, 7612
1, 105040, Pitch_bend_c, 3, 7612
1, 105055, Pitch_bend_c, 0, 7756
1, 105055, Pitch_bend_c, 1, 7756
1, 105055, Pitch_bend_c, 2, 7756
1, 105055, Pitch_bend_c, 3, 7756
1, 105060, Note_on_c, 10, 23, 0
1, 105060, Control_c, 13, 7, 83
1, 105070, Pitch_bend_c, 0, 7899
1, 105070, Pitch_bend_c, 1, 7899
1, 105070, Pitch_bend_c, 2, 7899
1, 105070, Pitch_bend_c, 3, 7899
1, 105085, Pitch_bend_c, 0, 8049
1, 105085, Pitch_bend_c, 1, 8049
1, 105085, Pitch_bend_c, 2, 8049
1, 105085, Pitch_bend_c, 3, 8049
1, 105100, Pitch_bend_c, 0, 8192
1, 105100, Pitch_bend_c, 1, 8192
1, 105100, Pitch_bend_c, 2, 8192
1, 105100, Pitch_bend_c, 3, 8192
1, 105120, Note_on_c, 3, 47, 0
1, 105120, Note_on_c, 3, 83, 0
1, 105120, Note_on_c, 1, 71, 0
1, 105120, Note_on_c, 0, 47, 0
1, 105120, Note_on_c, 1, 35, 0
1, 105120, Note_on_c, 9, 82, 0
1, 105120, Note_on_c, 2, 83, 0
1, 105120, Note_on_c, 2, 95, 0
1, 105120, Note_on_c, 1, 83, 0
1, 105120, Note_on_c, 2, 71, 0
1, 105120, Note_on_c, 2, 59, 0
1, 105120, Note_on_c, 0, 47, 95
1, 105120, Note_on_c, 1, 71, 95
1, 105120, Note_on_c, 1, 83, 64
1, 105120, Note_on_c, 1, 35, 95
1, 105120, Note_on_c, 2, 95, 64
1, 105120, Note_on_c, 2, 83, 64
1, 105120, Note_on_c, 2, 71, 127
1, 105120, Note_on_c, 2, 59, 95
1, 105120, Note_on_c, 3, 83, 64
1, 105120, Note_on_c, 3, 47, 64
1, 105120, Note_on_c, 9, 42, 73
1, 105120, Note_on_c, 9, 40, 90
1, 105120, Note_on_c, 9, 35, 103
1, 105120, Note_on_c, 9, 28, 103
1, 105120, Note_on_c, 9, 82, 40
1, 105120, Note_on_c, 10, 23, 58
1, 105120, Control_c, 13, 7, 82
1, 105180, Note_on_c, 10, 23, 0
1, 105180, Control_c, 13, 7, 80
1, 105240, Note_on_c, 9, 82, 0
1, 105240, Note_on_c, 9, 28, 0
1, 105240, Note_on_c, 9, 35, 0
1, 105240, Note_on_c, 9, 40, 0
1, 105240, Note_on_c, 9, 42, 0
1, 105240, Note_on_c, 9, 82, 25
1, 105240, Note_on_c, 10, 23, 72
1, 105240, Control_c, 13, 7, 77
1, 105300, Note_on_c, 10, 23, 0
1, 105300, Control_c, 13, 7, 76
1, 105360, Note_on_c, 3, 47, 0
1, 105360, Note_on_c, 3, 83, 0
1, 105360, Note_on_c, 1, 71, 0
1, 105360, Note_on_c, 0, 47, 0
1, 105360, Note_on_c, 1, 35, 0
1, 105360, Note_on_c, 9, 82, 0
1, 105360, Note_on_c, 2, 83, 0
1, 105360, Note_on_c, 2, 95, 0
1, 105360, Note_on_c, 1, 83, 0
1, 105360, Note_on_c, 2, 71, 0
1, 105360, Note_on_c, 2, 59, 0
1, 105360, Note_on_c, 0, 47, 95
1, 105360, Note_on_c, 1, 71, 95
1, 105360, Note_on_c, 1, 83, 64
1, 105360, Note_on_c, 1, 35, 95
1, 105360, Note_on_c, 2, 95, 64
1, 105360, Note_on_c, 2, 83, 64
1, 105360, Note_on_c, 2, 71, 127
1, 105360, Note_on_c, 2, 59, 95
1, 105360, Note_on_c, 3, 83, 64
1, 105360, Note_on_c, 3, 47, 64
1, 105360, Note_on_c, 9, 42, 73
1, 105360, Note_on_c, 9, 82, 11
1, 105360, Note_on_c, 10, 23, 91
1, 105360, Control_c, 13, 7, 74
1, 105390, Pitch_bend_c, 0, 8335
1, 105390, Pitch_bend_c, 1, 8335
1, 105390, Pitch_bend_c, 2, 8335
1, 105390, Pitch_bend_c, 3, 8335
1, 105420, Note_on_c, 10, 23, 0
1, 105420, Control_c, 13, 7, 71
1, 105440, Pitch_bend_c, 0, 8485
1, 105440, Pitch_bend_c, 1, 8485
1, 105440, Pitch_bend_c, 2, 8485
1, 105440, Pitch_bend_c, 3, 8485
1, 105455, Pitch_bend_c, 0, 8628
1, 105455, Pitch_bend_c, 1, 8628
1, 105455, Pitch_bend_c, 2, 8628
1, 105455, Pitch_bend_c, 3, 8628
1, 105470, Pitch_bend_c, 0, 8772
1, 105470, Pitch_bend_c, 1, 8772
1, 105470, Pitch_bend_c, 2, 8772
1, 105470, Pitch_bend_c, 3, 8772
1, 105480, Note_on_c, 9, 82, 0
1, 105480, Note_on_c, 9, 42, 0
1, 105480, Note_on_c, 9, 82, 11
1, 105480, Note_on_c, 10, 23, 127
1, 105480, Control_c, 13, 7, 69
1, 105485, Pitch_bend_c, 0, 9065
1, 105485, Pitch_bend_c, 1, 9065
1, 105485, Pitch_bend_c, 2, 9065
1, 105485, Pitch_bend_c, 3, 9065
1, 105500, Pitch_bend_c, 0, 9400
1, 105500, Pitch_bend_c, 1, 9400
1, 105500, Pitch_bend_c, 2, 9400
1, 105500, Pitch_bend_c, 3, 9400
1, 105520, Pitch_bend_c, 0, 9543
1, 105520, Pitch_bend_c, 1, 9543
1, 105520, Pitch_bend_c, 2, 9543
1, 105520, Pitch_bend_c, 3, 9543
1, 105535, Pitch_bend_c, 0, 9830
1, 105535, Pitch_bend_c, 1, 9830
1, 105535, Pitch_bend_c, 2, 9830
1, 105535, Pitch_bend_c, 3, 9830
1, 105540, Control_c, 13, 7, 68
1, 105550, Pitch_bend_c, 0, 10110
1, 105550, Pitch_bend_c, 1, 10110
1, 105550, Pitch_bend_c, 2, 10110
1, 105550, Pitch_bend_c, 3, 10110
1, 105565, Pitch_bend_c, 0, 10253
1, 105565, Pitch_bend_c, 1, 10253
1, 105565, Pitch_bend_c, 2, 10253
1, 105565, Pitch_bend_c, 3, 10253
1, 105580, Pitch_bend_c, 0, 10397
1, 105580, Pitch_bend_c, 1, 10397
1, 105580, Pitch_bend_c, 2, 10397
1, 105580, Pitch_bend_c, 3, 10397
1, 105600, Note_on_c, 9, 82, 0
1, 105600, Note_on_c, 1, 71, 0
1, 105600, Note_on_c, 3, 83, 0
1, 105600, Note_on_c, 0, 47, 0
1, 105600, Note_on_c, 1, 83, 0
1, 105600, Note_on_c, 2, 83, 0
1, 105600, Note_on_c, 2, 95, 0
1, 105600, Note_on_c, 1, 35, 0
1, 105600, Note_on_c, 2, 59, 0
1, 105600, Note_on_c, 2, 71, 0
1, 105600, Note_on_c, 3, 47, 0
1, 105600, Pitch_bend_c, 0, 12165
1, 105600, Note_on_c, 0, 35, 95
1, 105600, Pitch_bend_c, 1, 12165
1, 105600, Note_on_c, 1, 59, 95
1, 105600, Note_on_c, 1, 71, 64
1, 105600, Note_on_c, 1, 23, 95
1, 105600, Pitch_bend_c, 2, 12165
1, 105600, Note_on_c, 2, 83, 64
1, 105600, Note_on_c, 2, 71, 64
1, 105600, Note_on_c, 2, 59, 127
1, 105600, Note_on_c, 2, 47, 95
1, 105600, Pitch_bend_c, 3, 12165
1, 105600, Note_on_c, 3, 71, 64
1, 105600, Note_on_c, 3, 35, 64
1, 105600, Note_on_c, 9, 82, 18
1, 105600, Note_on_c, 9, 42, 103
1, 105600, Note_on_c, 9, 35, 103
1, 105600, Control_c, 13, 7, 66
1, 105615, Pitch_bend_c, 0, 8192
1, 105615, Pitch_bend_c, 1, 8192
1, 105615, Pitch_bend_c, 2, 8192
1, 105615, Pitch_bend_c, 3, 8192
1, 105660, Control_c, 13, 7, 63
1, 105720, Note_on_c, 9, 35, 0
1, 105720, Note_on_c, 9, 42, 0
1, 105720, Note_on_c, 9, 82, 0
1, 105720, Note_on_c, 10, 23, 0
1, 105720, Note_on_c, 9, 82, 18
1, 105720, Note_on_c, 10, 23, 79
1, 105720, Control_c, 13, 7, 60
1, 105780, Note_on_c, 10, 23, 0
1, 105780, Control_c, 13, 7, 59
1, 105840, Note_on_c, 9, 82, 0
1, 105840, Note_on_c, 9, 82, 31
1, 105840, Note_on_c, 9, 42, 73
1, 105840, Note_on_c, 10, 23, 64
1, 105840, Control_c, 13, 7, 57
1, 105900, Note_on_c, 10, 23, 0
1, 105900, Control_c, 13, 7, 55
1, 105960, Note_on_c, 9, 42, 0
1, 105960, Note_on_c, 1, 71, 0
1, 105960, Note_on_c, 2, 47, 0
1, 105960, Note_on_c, 1, 59, 0
1, 105960, Note_on_c, 0, 35, 0
1, 105960, Note_on_c, 1, 23, 0
1, 105960, Note_on_c, 9, 82, 0
1, 105960, Note_on_c, 2, 71, 0
1, 105960, Note_on_c, 2, 83, 0
1, 105960, Note_on_c, 3, 71, 0
1, 105960, Note_on_c, 2, 59, 0
1, 105960, Note_on_c, 3, 35, 0
1, 105960, Pitch_bend_c, 0, 0
1, 105960, Note_on_c, 0, 47, 95
1, 105960, Pitch_bend_c, 1, 0
1, 105960, Note_on_c, 1, 71, 95
1, 105960, Note_on_c, 1, 83, 64
1, 105960, Note_on_c, 1, 35, 95
1, 105960, Pitch_bend_c, 2, 0
1, 105960, Note_on_c, 2, 95, 64
1, 105960, Note_on_c, 2, 83, 64
1, 105960, Note_on_c, 2, 71, 127
1, 105960, Note_on_c, 2, 59, 95
1, 105960, Pitch_bend_c, 3, 0
1, 105960, Note_on_c, 3, 83, 64
1, 105960, Note_on_c, 3, 47, 64
1, 105960, Note_on_c, 9, 82, 39
1, 105960, Note_on_c, 10, 23, 62
1, 105960, Control_c, 13, 7, 52
1, 105975, Pitch_bend_c, 0, 8192
1, 105975, Pitch_bend_c, 1, 8192
1, 105975, Pitch_bend_c, 2, 8192
1, 105975, Pitch_bend_c, 3, 8192
1, 106020, Note_on_c, 10, 23, 0
1, 106020, Control_c, 13, 7, 50
1, 106080, Note_on_c, 2, 59, 0
1, 106080, Note_on_c, 1, 83, 0
1, 106080, Note_on_c, 1, 71, 0
1, 106080, Note_on_c, 0, 47, 0
1, 106080, Note_on_c, 1, 35, 0
1, 106080, Note_on_c, 9, 82, 0
1, 106080, Note_on_c, 2, 83, 0
1, 106080, Note_on_c, 2, 95, 0
1, 106080, Note_on_c, 3, 47, 0
1, 106080, Note_on_c, 2, 71, 0
1, 106080, Note_on_c, 3, 83, 0
1, 106080, Note_on_c, 9, 82, 40
1, 106080, Note_on_c, 9, 42, 73
1, 106080, Note_on_c, 9, 40, 91
1, 106080, Note_on_c, 9, 35, 103
1, 106080, Note_on_c, 9, 28, 102
1, 106080, Note_on_c, 10, 23, 66
1, 106080, Control_c, 13, 7, 48
1, 106140, Note_on_c, 10, 23, 0
1, 106140, Control_c, 13, 7, 47
1, 106200, Note_on_c, 9, 40, 0
1, 106200, Note_on_c, 9, 42, 0
1, 106200, Note_on_c, 9, 82, 0
1, 106200, Note_on_c, 9, 28, 0
1, 106200, Note_on_c, 9, 35, 0
1, 106200, Note_on_c, 9, 82, 25
1, 106200, Note_on_c, 10, 23, 91
1, 106200, Control_c, 13, 7, 45
1, 106260, Note_on_c, 10, 23, 0
1, 106260, Control_c, 13, 7, 44
1, 106320, Note_on_c, 9, 82, 0
1, 106320, Note_on_c, 0, 47, 95
1, 106320, Note_on_c, 1, 71, 95
1, 106320, Note_on_c, 1, 83, 64
1, 106320, Note_on_c, 1, 35, 95
1, 106320, Note_on_c, 2, 95, 64
1, 106320, Note_on_c, 2, 83, 64
1, 106320, Note_on_c, 2, 71, 127
1, 106320, Note_on_c, 2, 59, 95
1, 106320, Note_on_c, 3, 83, 64
1, 106320, Note_on_c, 3, 47, 64
1, 106320, Note_on_c, 9, 82, 11
1, 106320, Note_on_c, 9, 42, 73
1, 106320, Note_on_c, 10, 23, 98
1, 106320, Control_c, 13, 7, 42
1, 106380, Note_on_c, 10, 23, 0
1, 106380, Control_c, 13, 7, 41
1, 106440, Note_on_c, 9, 42, 0
1, 106440, Note_on_c, 9, 82, 0
1, 106440, Note_on_c, 9, 82, 11
1, 106440, Note_on_c, 10, 23, 127
1, 106440, Control_c, 13, 7, 38
1, 106500, Control_c, 13, 7, 36
1, 106560, Note_on_c, 9, 82, 0
1, 106560, Note_on_c, 1, 71, 0
1, 106560, Note_on_c, 3, 83, 0
1, 106560, Note_on_c, 0, 47, 0
1, 106560, Note_on_c, 1, 83, 0
1, 106560, Note_on_c, 2, 83, 0
1, 106560, Note_on_c, 2, 95, 0
1, 106560, Note_on_c, 1, 35, 0
1, 106560, Note_on_c, 2, 59, 0
1, 106560, Note_on_c, 2, 71, 0
1, 106560, Note_on_c, 3, 47, 0
1, 106560, Note_on_c, 0, 47, 95
1, 106560, Note_on_c, 1, 71, 95
1, 106560, Note_on_c, 1, 83, 64
1, 106560, Note_on_c, 1, 35, 95
1, 106560, Note_on_c, 2, 95, 64
1, 106560, Note_on_c, 2, 83, 64
1, 106560, Note_on_c, 2, 71, 127
1, 106560, Note_on_c, 2, 59, 95
1, 106560, Note_on_c, 3, 83, 64
1, 106560, Note_on_c, 3, 47, 64
1, 106560, Note_on_c, 9, 82, 18
1, 106560, Note_on_c, 9, 42, 88
1, 106560, Note_on_c, 9, 35, 104
1, 106560, Control_c, 13, 7, 34
1, 106590, Pitch_bend_c, 0, 8049
1, 106590, Pitch_bend_c, 1, 8049
1, 106590, Pitch_bend_c, 2, 8049
1, 106590, Pitch_bend_c, 3, 8049
1, 106620, Note_on_c, 10, 23, 0
1, 106620, Pitch_bend_c, 0, 7899
1, 106620, Pitch_bend_c, 1, 7899
1, 106620, Pitch_bend_c, 2, 7899
1, 106620, Pitch_bend_c, 3, 7899
1, 106620, Control_c, 13, 7, 33
1, 106655, Pitch_bend_c, 0, 7756
1, 106655, Pitch_bend_c, 1, 7756
1, 106655, Pitch_bend_c, 2, 7756
1, 106655, Pitch_bend_c, 3, 7756
1, 106680, Note_on_c, 9, 35, 0
1, 106680, Note_on_c, 9, 42, 0
1, 106680, Note_on_c, 9, 82, 0
1, 106680, Note_on_c, 9, 82, 18
1, 106680, Note_on_c, 10, 23, 66
1, 106680, Control_c, 13, 7, 31
1, 106685, Pitch_bend_c, 0, 7612
1, 106685, Pitch_bend_c, 1, 7612
1, 106685, Pitch_bend_c, 2, 7612
1, 106685, Pitch_bend_c, 3, 7612
1, 106720, Pitch_bend_c, 0, 7469
1, 106720, Pitch_bend_c, 1, 7469
1, 106720, Pitch_bend_c, 2, 7469
1, 106720, Pitch_bend_c, 3, 7469
1, 106740, Note_on_c, 10, 23, 0
1, 106740, Note_on_c, 3, 83, 0
1, 106740, Note_on_c, 1, 71, 0
1, 106740, Note_on_c, 0, 47, 0
1, 106740, Note_on_c, 1, 83, 0
1, 106740, Note_on_c, 2, 83, 0
1, 106740, Note_on_c, 2, 95, 0
1, 106740, Note_on_c, 1, 35, 0
1, 106740, Note_on_c, 2, 59, 0
1, 106740, Note_on_c, 2, 71, 0
1, 106740, Note_on_c, 3, 47, 0
1, 106740, Control_c, 13, 7, 29
1, 106800, Note_on_c, 9, 82, 0
1, 106800, Note_on_c, 0, 47, 95
1, 106800, Note_on_c, 1, 71, 95
1, 106800, Note_on_c, 1, 83, 64
1, 106800, Note_on_c, 1, 35, 95
1, 106800, Note_on_c, 2, 95, 64
1, 106800, Note_on_c, 2, 83, 64
1, 106800, Note_on_c, 2, 71, 127
1, 106800, Note_on_c, 2, 59, 95
1, 106800, Note_on_c, 3, 83, 64
1, 106800, Note_on_c, 3, 47, 64
1, 106800, Note_on_c, 9, 82, 31
1, 106800, Note_on_c, 9, 42, 73
1, 106800, Note_on_c, 10, 23, 74
1, 106800, Control_c, 13, 7, 29
1, 106815, Pitch_bend_c, 0, 7319
1, 106815, Pitch_bend_c, 1, 7319
1, 106815, Pitch_bend_c, 2, 7319
1, 106815, Pitch_bend_c, 3, 7319
1, 106860, Note_on_c, 10, 23, 0
1, 106860, Pitch_bend_c, 0, 7175
1, 106860, Pitch_bend_c, 1, 7175
1, 106860, Pitch_bend_c, 2, 7175
1, 106860, Pitch_bend_c, 3, 7175
1, 106860, Control_c, 13, 7, 26
1, 106880, Pitch_bend_c, 0, 6984
1, 106880, Pitch_bend_c, 1, 6984
1, 106880, Pitch_bend_c, 2, 6984
1, 106880, Pitch_bend_c, 3, 6984
1, 106910, Pitch_bend_c, 0, 6841
1, 106910, Pitch_bend_c, 1, 6841
1, 106910, Pitch_bend_c, 2, 6841
1, 106910, Pitch_bend_c, 3, 6841
1, 106920, Note_on_c, 9, 42, 0
1, 106920, Note_on_c, 9, 82, 0
1, 106920, Note_on_c, 9, 82, 39
1, 106920, Note_on_c, 10, 23, 84
1, 106920, Control_c, 13, 7, 24
1, 106940, Pitch_bend_c, 0, 6697
1, 106940, Pitch_bend_c, 1, 6697
1, 106940, Pitch_bend_c, 2, 6697
1, 106940, Pitch_bend_c, 3, 6697
1, 106980, Note_on_c, 10, 23, 0
1, 106980, Control_c, 13, 7, 21
1, 107020, Pitch_bend_c, 0, 6554
1, 107020, Pitch_bend_c, 1, 6554
1, 107020, Pitch_bend_c, 2, 6554
1, 107020, Pitch_bend_c, 3, 6554
1, 107040, Note_on_c, 3, 47, 0
1, 107040, Note_on_c, 3, 83, 0
1, 107040, Note_on_c, 1, 71, 0
1, 107040, Note_on_c, 0, 47, 0
1, 107040, Note_on_c, 1, 35, 0
1, 107040, Note_on_c, 9, 82, 0
1, 107040, Note_on_c, 2, 83, 0
1, 107040, Note_on_c, 2, 95, 0
1, 107040, Note_on_c, 1, 83, 0
1, 107040, Note_on_c, 2, 71, 0
1, 107040, Note_on_c, 2, 59, 0
1, 107040, Note_on_c, 0, 47, 95
1, 107040, Note_on_c, 1, 71, 95
1, 107040, Note_on_c, 1, 83, 64
1, 107040, Note_on_c, 1, 35, 95
1, 107040, Note_on_c, 2, 95, 64
1, 107040, Note_on_c, 2, 83, 64
1, 107040, Note_on_c, 2, 71, 127
1, 107040, Note_on_c, 2, 59, 95
1, 107040, Note_on_c, 3, 83, 64
1, 107040, Note_on_c, 3, 47, 64
1, 107040, Note_on_c, 9, 82, 40
1, 107040, Note_on_c, 9, 42, 73
1, 107040, Note_on_c, 9, 40, 92
1, 107040, Note_on_c, 9, 35, 104
1, 107040, Note_on_c, 9, 28, 102
1, 107040, Note_on_c, 10, 35, 127
1, 107040, Control_c, 13, 7, 19
1, 107070, Pitch_bend_c, 0, 6418
1, 107070, Pitch_bend_c, 1, 6418
1, 107070, Pitch_bend_c, 2, 6418
1, 107070, Pitch_bend_c, 3, 6418
1, 107085, Pitch_bend_c, 0, 6274
1, 107085, Pitch_bend_c, 1, 6274
1, 107085, Pitch_bend_c, 2, 6274
1, 107085, Pitch_bend_c, 3, 6274
1, 107100, Pitch_bend_c, 0, 6131
1, 107100, Pitch_bend_c, 1, 6131
1, 107100, Pitch_bend_c, 2, 6131
1, 107100, Pitch_bend_c, 3, 6131
1, 107100, Control_c, 13, 7, 17
1, 107120, Pitch_bend_c, 0, 5987
1, 107120, Pitch_bend_c, 1, 5987
1, 107120, Pitch_bend_c, 2, 5987
1, 107120, Pitch_bend_c, 3, 5987
1, 107135, Pitch_bend_c, 0, 5803
1, 107135, Pitch_bend_c, 1, 5803
1, 107135, Pitch_bend_c, 2, 5803
1, 107135, Pitch_bend_c, 3, 5803
1, 107150, Pitch_bend_c, 0, 5660
1, 107150, Pitch_bend_c, 1, 5660
1, 107150, Pitch_bend_c, 2, 5660
1, 107150, Pitch_bend_c, 3, 5660
1, 107160, Note_on_c, 9, 28, 0
1, 107160, Note_on_c, 9, 35, 0
1, 107160, Note_on_c, 9, 40, 0
1, 107160, Note_on_c, 9, 42, 0
1, 107160, Note_on_c, 9, 82, 0
1, 107160, Note_on_c, 9, 82, 25
1, 107160, Control_c, 13, 7, 15
1, 107165, Pitch_bend_c, 0, 5516
1, 107165, Pitch_bend_c, 1, 5516
1, 107165, Pitch_bend_c, 2, 5516
1, 107165, Pitch_bend_c, 3, 5516
1, 107180, Pitch_bend_c, 0, 5380
1, 107180, Pitch_bend_c, 1, 5380
1, 107180, Pitch_bend_c, 2, 5380
1, 107180, Pitch_bend_c, 3, 5380
1, 107200, Pitch_bend_c, 0, 5237
1, 107200, Pitch_bend_c, 1, 5237
1, 107200, Pitch_bend_c, 2, 5237
1, 107200, Pitch_bend_c, 3, 5237
1, 107220, Note_on_c, 10, 35, 0
1, 107220, Control_c, 13, 7, 13
1, 107230, Pitch_bend_c, 0, 5100
1, 107230, Pitch_bend_c, 1, 5100
1, 107230, Pitch_bend_c, 2, 5100
1, 107230, Pitch_bend_c, 3, 5100
1, 107280, Note_on_c, 3, 83, 0
1, 107280, Note_on_c, 2, 59, 0
1, 107280, Note_on_c, 1, 83, 0
1, 107280, Note_on_c, 1, 71, 0
1, 107280, Note_on_c, 0, 47, 0
1, 107280, Note_on_c, 9, 82, 0
1, 107280, Note_on_c, 2, 95, 0
1, 107280, Note_on_c, 1, 35, 0
1, 107280, Note_on_c, 2, 83, 0
1, 107280, Note_on_c, 2, 71, 0
1, 107280, Note_on_c, 3, 47, 0
1, 107280, Note_on_c, 0, 47, 95
1, 107280, Note_on_c, 1, 71, 95
1, 107280, Note_on_c, 1, 83, 64
1, 107280, Note_on_c, 1, 35, 95
1, 107280, Note_on_c, 2, 95, 64
1, 107280, Note_on_c, 2, 83, 64
1, 107280, Note_on_c, 2, 71, 127
1, 107280, Note_on_c, 2, 59, 95
1, 107280, Note_on_c, 3, 83, 64
1, 107280, Note_on_c, 3, 47, 64
1, 107280, Note_on_c, 9, 82, 11
1, 107280, Note_on_c, 9, 42, 73
1, 107280, Note_on_c, 10, 23, 103
1, 107280, Control_c, 13, 7, 11
1, 107295, Pitch_bend_c, 0, 4963
1, 107295, Pitch_bend_c, 1, 4963
1, 107295, Pitch_bend_c, 2, 4963
1, 107295, Pitch_bend_c, 3, 4963
1, 107310, Pitch_bend_c, 0, 4636
1, 107310, Pitch_bend_c, 1, 4636
1, 107310, Pitch_bend_c, 2, 4636
1, 107310, Pitch_bend_c, 3, 4636
1, 107325, Pitch_bend_c, 0, 4499
1, 107325, Pitch_bend_c, 1, 4499
1, 107325, Pitch_bend_c, 2, 4499
1, 107325, Pitch_bend_c, 3, 4499
1, 107340, Note_on_c, 10, 23, 0
1, 107340, Pitch_bend_c, 0, 4083
1, 107340, Pitch_bend_c, 1, 4083
1, 107340, Pitch_bend_c, 2, 4083
1, 107340, Pitch_bend_c, 3, 4083
1, 107340, Control_c, 13, 7, 9
1, 107360, Pitch_bend_c, 0, 3810
1, 107360, Pitch_bend_c, 1, 3810
1, 107360, Pitch_bend_c, 2, 3810
1, 107360, Pitch_bend_c, 3, 3810
1, 107375, Pitch_bend_c, 0, 3359
1, 107375, Pitch_bend_c, 1, 3359
1, 107375, Pitch_bend_c, 2, 3359
1, 107375, Pitch_bend_c, 3, 3359
1, 107390, Pitch_bend_c, 0, 3086
1, 107390, Pitch_bend_c, 1, 3086
1, 107390, Pitch_bend_c, 2, 3086
1, 107390, Pitch_bend_c, 3, 3086
1, 107400, Note_on_c, 9, 42, 0
1, 107400, Note_on_c, 9, 82, 0
1, 107400, Note_on_c, 9, 82, 11
1, 107400, Note_on_c, 10, 35, 127
1, 107400, Control_c, 13, 7, 8
1, 107405, Pitch_bend_c, 0, 2820
1, 107405, Pitch_bend_c, 1, 2820
1, 107405, Pitch_bend_c, 2, 2820
1, 107405, Pitch_bend_c, 3, 2820
1, 107420, Pitch_bend_c, 0, 2683
1, 107420, Pitch_bend_c, 1, 2683
1, 107420, Pitch_bend_c, 2, 2683
1, 107420, Pitch_bend_c, 3, 2683
1, 107440, Pitch_bend_c, 0, 2369
1, 107440, Pitch_bend_c, 1, 2369
1, 107440, Pitch_bend_c, 2, 2369
1, 107440, Pitch_bend_c, 3, 2369
1, 107455, Pitch_bend_c, 0, 2240
1, 107455, Pitch_bend_c, 1, 2240
1, 107455, Pitch_bend_c, 2, 2240
1, 107455, Pitch_bend_c, 3, 2240
1, 107460, Control_c, 13, 7, 6
1, 107485, Pitch_bend_c, 0, 2103
1, 107485, Pitch_bend_c, 1, 2103
1, 107485, Pitch_bend_c, 2, 2103
1, 107485, Pitch_bend_c, 3, 2103
1, 107520, Note_on_c, 10, 35, 0
1, 107520, Note_on_c, 3, 47, 0
1, 107520, Note_on_c, 3, 83, 0
1, 107520, Note_on_c, 13, 67, 0
1, 107520, Note_on_c, 13, 73, 0
1, 107520, Note_on_c, 1, 35, 0
1, 107520, Note_on_c, 13, 62, 0
1, 107520, Note_on_c, 9, 57, 0
1, 107520, Note_on_c, 13, 60, 0
1, 107520, Note_on_c, 13, 75, 0
1, 107520, Note_on_c, 13, 71, 0
1, 107520, Note_on_c, 13, 63, 0
1, 107520, Note_on_c, 13, 69, 0
1, 107520, Note_on_c, 13, 65, 0
1, 107520, Note_on_c, 13, 70, 0
1, 107520, Note_on_c, 13, 61, 0
1, 107520, Note_on_c, 9, 49, 0
1, 107520, Note_on_c, 2, 59, 0
1, 107520, Note_on_c, 2, 71, 0
1, 107520, Note_on_c, 2, 95, 0
1, 107520, Note_on_c, 13, 72, 0
1, 107520, Note_on_c, 0, 47, 0
1, 107520, Note_on_c, 13, 74, 0
1, 107520, Note_on_c, 13, 64, 0
1, 107520, Note_on_c, 13, 66, 0
1, 107520, Note_on_c, 9, 52, 0
1, 107520, Note_on_c, 2, 83, 0
1, 107520, Note_on_c, 1, 71, 0
1, 107520, Note_on_c, 1, 83, 0
1, 107520, Note_on_c, 9, 82, 0
1, 107520, Note_on_c, 13, 68, 0
1, 107520, Pitch_bend_c, 0, 8192
1, 107520, Note_on_c, 0, 35, 95
1, 107520, Pitch_bend_c, 1, 8192
1, 107520, Note_on_c, 1, 59, 95
1, 107520, Note_on_c, 1, 71, 64
1, 107520, Note_on_c, 1, 23, 95
1, 107520, Pitch_bend_c, 2, 8192
1, 107520, Note_on_c, 2, 83, 94
1, 107520, Note_on_c, 2, 71, 64
1, 107520, Note_on_c, 2, 59, 127
1, 107520, Note_on_c, 2, 47, 95
1, 107520, Pitch_bend_c, 3, 8192
1, 107520, Note_on_c, 3, 71, 64
1, 107520, Note_on_c, 3, 35, 64
1, 107520, Note_on_c, 9, 42, 103
1, 107520, Note_on_c, 9, 35, 103
1, 107520, Note_on_c, 9, 82, 18
1, 107520, Note_on_c, 10, 23, 127
1, 107520, Control_c, 13, 7, 0
1, 107530, Pitch_bend_c, 4, 8192
1, 107530, Pitch_bend_c, 6, 8192
1, 107640, Note_on_c, 9, 82, 0
1, 107640, Note_on_c, 9, 35, 0
1, 107640, Note_on_c, 9, 42, 0
1, 107640, Note_on_c, 9, 82, 18
1, 107700, Note_on_c, 10, 23, 0
1, 107760, Note_on_c, 9, 82, 0
1, 107760, Note_on_c, 9, 42, 73
1, 107760, Note_on_c, 9, 82, 31
1, 107760, Note_on_c, 10, 23, 93
1, 107820, Note_on_c, 10, 23, 0
1, 107880, Note_on_c, 2, 83, 0
1, 107880, Note_on_c, 1, 59, 0
1, 107880, Note_on_c, 3, 71, 0
1, 107880, Note_on_c, 1, 71, 0
1, 107880, Note_on_c, 1, 23, 0
1, 107880, Note_on_c, 0, 35, 0
1, 107880, Note_on_c, 2, 71, 0
1, 107880, Note_on_c, 9, 42, 0
1, 107880, Note_on_c, 3, 35, 0
1, 107880, Note_on_c, 2, 59, 0
1, 107880, Note_on_c, 9, 82, 0
1, 107880, Note_on_c, 2, 47, 0
1, 107880, Pitch_bend_c, 0, 0
1, 107880, Note_on_c, 0, 47, 95
1, 107880, Pitch_bend_c, 1, 0
1, 107880, Note_on_c, 1, 71, 95
1, 107880, Note_on_c, 1, 83, 64
1, 107880, Note_on_c, 1, 35, 95
1, 107880, Pitch_bend_c, 2, 0
1, 107880, Note_on_c, 2, 95, 64
1, 107880, Note_on_c, 2, 83, 64
1, 107880, Note_on_c, 2, 71, 127
1, 107880, Note_on_c, 2, 59, 95
1, 107880, Pitch_bend_c, 3, 0
1, 107880, Note_on_c, 3, 83, 64
1, 107880, Note_on_c, 3, 47, 64
1, 107880, Note_on_c, 9, 82, 39
1, 107880, Note_on_c, 10, 23, 75
1, 107895, Pitch_bend_c, 0, 8192
1, 107895, Pitch_bend_c, 1, 8192
1, 107895, Pitch_bend_c, 2, 8192
1, 107895, Pitch_bend_c, 3, 8192
1, 107940, Note_on_c, 10, 23, 0
1, 108000, Note_on_c, 1, 71, 0
1, 108000, Note_on_c, 2, 59, 0
1, 108000, Note_on_c, 1, 83, 0
1, 108000, Note_on_c, 1, 35, 0
1, 108000, Note_on_c, 0, 47, 0
1, 108000, Note_on_c, 2, 95, 0
1, 108000, Note_on_c, 2, 83, 0
1, 108000, Note_on_c, 3, 83, 0
1, 108000, Note_on_c, 2, 71, 0
1, 108000, Note_on_c, 9, 82, 0
1, 108000, Note_on_c, 3, 47, 0
1, 108000, Note_on_c, 9, 42, 73
1, 108000, Note_on_c, 9, 35, 102
1, 108000, Note_on_c, 9, 40, 89
1, 108000, Note_on_c, 9, 28, 103
1, 108000, Note_on_c, 9, 82, 40
1, 108000, Note_on_c, 10, 23, 68
1, 108060, Note_on_c, 10, 23, 0
1, 108120, Note_on_c, 9, 35, 0
1, 108120, Note_on_c, 9, 40, 0
1, 108120, Note_on_c, 9, 42, 0
1, 108120, Note_on_c, 9, 82, 0
1, 108120, Note_on_c, 9, 28, 0
1, 108120, Note_on_c, 9, 82, 25
1, 108120, Note_on_c, 10, 23, 75
1, 108180, Note_on_c, 10, 23, 0
1, 108240, Note_on_c, 9, 82, 0
1, 108240, Note_on_c, 0, 47, 95
1, 108240, Note_on_c, 1, 71, 95
1, 108240, Note_on_c, 1, 83, 64
1, 108240, Note_on_c, 1, 35, 95
1, 108240, Note_on_c, 2, 95, 64
1, 108240, Note_on_c, 2, 83, 64
1, 108240, Note_on_c, 2, 71, 127
1, 108240, Note_on_c, 2, 59, 95
1, 108240, Note_on_c, 3, 83, 64
1, 108240, Note_on_c, 3, 47, 64
1, 108240, Note_on_c, 9, 42, 73
1, 108240, Note_on_c, 9, 82, 11
1, 108240, Note_on_c, 10, 23, 99
1, 108300, Note_on_c, 10, 23, 0
1, 108360, Note_on_c, 9, 82, 0
1, 108360, Note_on_c, 9, 42, 0
1, 108360, Note_on_c, 9, 82, 11
1, 108360, Note_on_c, 10, 23, 127
1, 108480, Note_on_c, 9, 82, 0
1, 108480, Note_on_c, 2, 59, 0
1, 108480, Note_on_c, 3, 83, 0
1, 108480, Note_on_c, 1, 83, 0
1, 108480, Note_on_c, 1, 35, 0
1, 108480, Note_on_c, 2, 71, 0
1, 108480, Note_on_c, 2, 95, 0
1, 108480, Note_on_c, 2, 83, 0
1, 108480, Note_on_c, 3, 47, 0
1, 108480, Note_on_c, 0, 47, 0
1, 108480, Note_on_c, 1, 71, 0
1, 108480, Note_on_c, 9, 42, 88
1, 108480, Note_on_c, 9, 35, 102
1, 108480, Note_on_c, 9, 82, 18
1, 108540, Note_on_c, 10, 23, 0
1, 108600, Note_on_c, 9, 42, 0
1, 108600, Note_on_c, 9, 35, 0
1, 108600, Note_on_c, 9, 82, 0
1, 108600, Note_on_c, 0, 43, 95
1, 108600, Note_on_c, 1, 67, 95
1, 108600, Note_on_c, 1, 79, 64
1, 108600, Note_on_c, 1, 31, 95
1, 108600, Note_on_c, 2, 91, 64
1, 108600, Note_on_c, 2, 79, 64
1, 108600, Note_on_c, 2, 67, 127
1, 108600, Note_on_c, 2, 55, 95
1, 108600, Note_on_c, 3, 79, 64
1, 108600, Note_on_c, 3, 43, 64
1, 108600, Note_on_c, 9, 82, 18
1, 108600, Note_on_c, 10, 23, 93
1, 108660, Note_on_c, 10, 23, 0
1, 108720, Note_on_c, 1, 67, 0
1, 108720, Note_on_c, 2, 55, 0
1, 108720, Note_on_c, 1, 79, 0
1, 108720, Note_on_c, 1, 31, 0
1, 108720, Note_on_c, 0, 43, 0
1, 108720, Note_on_c, 2, 91, 0
1, 108720, Note_on_c, 2, 79, 0
1, 108720, Note_on_c, 3, 79, 0
1, 108720, Note_on_c, 2, 67, 0
1, 108720, Note_on_c, 9, 82, 0
1, 108720, Note_on_c, 3, 43, 0
1, 108720, Pitch_bend_c, 0, 5100
1, 108720, Note_on_c, 0, 47, 95
1, 108720, Pitch_bend_c, 1, 5100
1, 108720, Note_on_c, 1, 71, 95
1, 108720, Note_on_c, 1, 83, 64
1, 108720, Note_on_c, 1, 35, 95
1, 108720, Pitch_bend_c, 2, 5100
1, 108720, Note_on_c, 2, 95, 64
1, 108720, Note_on_c, 2, 83, 64
1, 108720, Note_on_c, 2, 71, 127
1, 108720, Note_on_c, 2, 59, 95
1, 108720, Pitch_bend_c, 3, 5100
1, 108720, Note_on_c, 3, 83, 64
1, 108720, Note_on_c, 3, 47, 64
1, 108720, Note_on_c, 9, 42, 73
1, 108720, Note_on_c, 9, 82, 31
1, 108720, Note_on_c, 10, 23, 75
1, 108735, Pitch_bend_c, 0, 6697
1, 108735, Pitch_bend_c, 1, 6697
1, 108735, Pitch_bend_c, 2, 6697
1, 108735, Pitch_bend_c, 3, 6697
1, 108780, Note_on_c, 10, 23, 0
1, 108800, Pitch_bend_c, 0, 6841
1, 108800, Pitch_bend_c, 1, 6841
1, 108800, Pitch_bend_c, 2, 6841
1, 108800, Pitch_bend_c, 3, 6841
1, 108830, Pitch_bend_c, 0, 6984
1, 108830, Pitch_bend_c, 1, 6984
1, 108830, Pitch_bend_c, 2, 6984
1, 108830, Pitch_bend_c, 3, 6984
1, 108840, Note_on_c, 9, 82, 0
1, 108840, Note_on_c, 9, 42, 0
1, 108840, Note_on_c, 9, 82, 39
1, 108840, Note_on_c, 10, 23, 59
1, 108845, Pitch_bend_c, 0, 7175
1, 108845, Pitch_bend_c, 1, 7175
1, 108845, Pitch_bend_c, 2, 7175
1, 108845, Pitch_bend_c, 3, 7175
1, 108860, Pitch_bend_c, 0, 7319
1, 108860, Pitch_bend_c, 1, 7319
1, 108860, Pitch_bend_c, 2, 7319
1, 108860, Pitch_bend_c, 3, 7319
1, 108880, Pitch_bend_c, 0, 7612
1, 108880, Pitch_bend_c, 1, 7612
1, 108880, Pitch_bend_c, 2, 7612
1, 108880, Pitch_bend_c, 3, 7612
1, 108895, Pitch_bend_c, 0, 7756
1, 108895, Pitch_bend_c, 1, 7756
1, 108895, Pitch_bend_c, 2, 7756
1, 108895, Pitch_bend_c, 3, 7756
1, 108900, Note_on_c, 10, 23, 0
1, 108910, Pitch_bend_c, 0, 7899
1, 108910, Pitch_bend_c, 1, 7899
1, 108910, Pitch_bend_c, 2, 7899
1, 108910, Pitch_bend_c, 3, 7899
1, 108925, Pitch_bend_c, 0, 8049
1, 108925, Pitch_bend_c, 1, 8049
1, 108925, Pitch_bend_c, 2, 8049
1, 108925, Pitch_bend_c, 3, 8049
1, 108940, Pitch_bend_c, 0, 8192
1, 108940, Pitch_bend_c, 1, 8192
1, 108940, Pitch_bend_c, 2, 8192
1, 108940, Pitch_bend_c, 3, 8192
1, 108960, Note_on_c, 2, 83, 0
1, 108960, Note_on_c, 3, 83, 0
1, 108960, Note_on_c, 1, 83, 0
1, 108960, Note_on_c, 1, 35, 0
1, 108960, Note_on_c, 0, 47, 0
1, 108960, Note_on_c, 2, 95, 0
1, 108960, Note_on_c, 1, 71, 0
1, 108960, Note_on_c, 3, 47, 0
1, 108960, Note_on_c, 2, 71, 0
1, 108960, Note_on_c, 9, 82, 0
1, 108960, Note_on_c, 2, 59, 0
1, 108960, Note_on_c, 0, 47, 95
1, 108960, Note_on_c, 1, 71, 95
1, 108960, Note_on_c, 1, 83, 64
1, 108960, Note_on_c, 1, 35, 95
1, 108960, Note_on_c, 2, 95, 64
1, 108960, Note_on_c, 2, 83, 64
1, 108960, Note_on_c, 2, 71, 127
1, 108960, Note_on_c, 2, 59, 95
1, 108960, Note_on_c, 3, 83, 64
1, 108960, Note_on_c, 3, 47, 64
1, 108960, Note_on_c, 9, 42, 73
1, 108960, Note_on_c, 9, 40, 90
1, 108960, Note_on_c, 9, 35, 103
1, 108960, Note_on_c, 9, 28, 103
1, 108960, Note_on_c, 9, 82, 40
1, 108960, Note_on_c, 10, 23, 58
1, 109020, Note_on_c, 10, 23, 0
1, 109080, Note_on_c, 9, 82, 0
1, 109080, Note_on_c, 9, 40, 0
1, 109080, Note_on_c, 9, 28, 0
1, 109080, Note_on_c, 9, 42, 0
1, 109080, Note_on_c, 9, 35, 0
1, 109080, Note_on_c, 9, 82, 25
1, 109080, Note_on_c, 10, 23, 72
1, 109140, Note_on_c, 10, 23, 0
1, 109200, Note_on_c, 2, 95, 0
1, 109200, Note_on_c, 3, 83, 0
1, 109200, Note_on_c, 1, 83, 0
1, 109200, Note_on_c, 1, 35, 0
1, 109200, Note_on_c, 2, 71, 0
1, 109200, Note_on_c, 2, 83, 0
1, 109200, Note_on_c, 1, 71, 0
1, 109200, Note_on_c, 0, 47, 0
1, 109200, Note_on_c, 3, 47, 0
1, 109200, Note_on_c, 9, 82, 0
1, 109200, Note_on_c, 2, 59, 0
1, 109200, Note_on_c, 0, 47, 95
1, 109200, Note_on_c, 1, 71, 95
1, 109200, Note_on_c, 1, 83, 64
1, 109200, Note_on_c, 1, 35, 95
1, 109200, Note_on_c, 2, 95, 64
1, 109200, Note_on_c, 2, 83, 64
1, 109200, Note_on_c, 2, 71, 127
1, 109200, Note_on_c, 2, 59, 95
1, 109200, Note_on_c, 3, 83, 64
1, 109200, Note_on_c, 3, 47, 64
1, 109200, Note_on_c, 9, 42, 73
1, 109200, Note_on_c, 9, 82, 11
1, 109200, Note_on_c, 10, 23, 91
1, 109230, Pitch_bend_c, 0, 8335
1, 109230, Pitch_bend_c, 1, 8335
1, 109230, Pitch_bend_c, 2, 8335
1, 109230, Pitch_bend_c, 3, 8335
1, 109260, Note_on_c, 10, 23, 0
1, 109280, Pitch_bend_c, 0, 8485
1, 109280, Pitch_bend_c, 1, 8485
1, 109280, Pitch_bend_c, 2, 8485
1, 109280, Pitch_bend_c, 3, 8485
1, 109295, Pitch_bend_c, 0, 8628
1, 109295, Pitch_bend_c, 1, 8628
1, 109295, Pitch_bend_c, 2, 8628
1, 109295, Pitch_bend_c, 3, 8628
1, 109310, Pitch_bend_c, 0, 8772
1, 109310, Pitch_bend_c, 1, 8772
1, 109310, Pitch_bend_c, 2, 8772
1, 109310, Pitch_bend_c, 3, 8772
1, 109320, Note_on_c, 9, 82, 0
1, 109320, Note_on_c, 9, 42, 0
1, 109320, Note_on_c, 9, 82, 11
1, 109320, Note_on_c, 10, 23, 127
1, 109325, Pitch_bend_c, 0, 9065
1, 109325, Pitch_bend_c, 1, 9065
1, 109325, Pitch_bend_c, 2, 9065
1, 109325, Pitch_bend_c, 3, 9065
1, 109340, Pitch_bend_c, 0, 9400
1, 109340, Pitch_bend_c, 1, 9400
1, 109340, Pitch_bend_c, 2, 9400
1, 109340, Pitch_bend_c, 3, 9400
1, 109360, Pitch_bend_c, 0, 9543
1, 109360, Pitch_bend_c, 1, 9543
1, 109360, Pitch_bend_c, 2, 9543
1, 109360, Pitch_bend_c, 3, 9543
1, 109375, Pitch_bend_c, 0, 9830
1, 109375, Pitch_bend_c, 1, 9830
1, 109375, Pitch_bend_c, 2, 9830
1, 109375, Pitch_bend_c, 3, 9830
1, 109390, Pitch_bend_c, 0, 10110
1, 109390, Pitch_bend_c, 1, 10110
1, 109390, Pitch_bend_c, 2, 10110
1, 109390, Pitch_bend_c, 3, 10110
1, 109405, Pitch_bend_c, 0, 10253
1, 109405, Pitch_bend_c, 1, 10253
1, 109405, Pitch_bend_c, 2, 10253
1, 109405, Pitch_bend_c, 3, 10253
1, 109420, Pitch_bend_c, 0, 10397
1, 109420, Pitch_bend_c, 1, 10397
1, 109420, Pitch_bend_c, 2, 10397
1, 109420, Pitch_bend_c, 3, 10397
1, 109440, Note_on_c, 9, 82, 0
1, 109440, Note_on_c, 2, 59, 0
1, 109440, Note_on_c, 3, 83, 0
1, 109440, Note_on_c, 1, 83, 0
1, 109440, Note_on_c, 1, 35, 0
1, 109440, Note_on_c, 2, 71, 0
1, 109440, Note_on_c, 2, 95, 0
1, 109440, Note_on_c, 2, 83, 0
1, 109440, Note_on_c, 3, 47, 0
1, 109440, Note_on_c, 0, 47, 0
1, 109440, Note_on_c, 1, 71, 0
1, 109440, Note_on_c, 4, 67, 101
1, 109440, Note_on_c, 4, 79, 101
1, 109440, Note_on_c, 4, 71, 101
1, 109440, Note_on_c, 4, 83, 101
1, 109440, Note_on_c, 6, 71, 101
1, 109440, Note_on_c, 6, 55, 101
1, 109440, Note_on_c, 6, 67, 101
1, 109440, Note_on_c, 6, 59, 101
1, 109440, Note_on_c, 9, 82, 18
1, 109440, Note_on_c, 9, 42, 103
1, 109440, Note_on_c, 9, 35, 103
1, 109560, Note_on_c, 9, 35, 0
1, 109560, Note_on_c, 9, 82, 0
1, 109560, Note_on_c, 10, 23, 0
1, 109560, Note_on_c, 9, 42, 0
1, 109560, Note_on_c, 9, 82, 18
1, 109680, Note_on_c, 9, 82, 0
1, 109680, Note_on_c, 6, 67, 0
1, 109680, Note_on_c, 4, 67, 0
1, 109680, Note_on_c, 6, 71, 0
1, 109680, Note_on_c, 6, 55, 0
1, 109680, Note_on_c, 4, 79, 0
1, 109680, Note_on_c, 6, 59, 0
1, 109680, Note_on_c, 4, 71, 0
1, 109680, Note_on_c, 4, 83, 0
1, 109680, Note_on_c, 9, 82, 31
1, 109680, Note_on_c, 9, 42, 73
1, 109800, Note_on_c, 9, 42, 0
1, 109800, Note_on_c, 9, 82, 0
1, 109800, Note_on_c, 4, 67, 101
1, 109800, Note_on_c, 4, 79, 101
1, 109800, Note_on_c, 4, 71, 101
1, 109800, Note_on_c, 4, 83, 101
1, 109800, Note_on_c, 6, 71, 101
1, 109800, Note_on_c, 6, 59, 101
1, 109800, Note_on_c, 6, 67, 101
1, 109800, Note_on_c, 6, 55, 101
1, 109800, Note_on_c, 9, 82, 39
1, 109920, Note_on_c, 9, 82, 0
1, 109920, Note_on_c, 9, 82, 40
1, 109920, Note_on_c, 9, 42, 73
1, 109920, Note_on_c, 9, 40, 91
1, 109920, Note_on_c, 9, 35, 103
1, 109920, Note_on_c, 9, 28, 102
1, 110040, Note_on_c, 9, 28, 0
1, 110040, Note_on_c, 6, 59, 0
1, 110040, Note_on_c, 4, 79, 0
1, 110040, Note_on_c, 4, 83, 0
1, 110040, Note_on_c, 4, 71, 0
1, 110040, Note_on_c, 6, 67, 0
1, 110040, Note_on_c, 4, 67, 0
1, 110040, Note_on_c, 6, 71, 0
1, 110040, Note_on_c, 9, 40, 0
1, 110040, Note_on_c, 9, 82, 0
1, 110040, Note_on_c, 6, 55, 0
1, 110040, Note_on_c, 9, 35, 0
1, 110040, Note_on_c, 9, 42, 0
1, 110040, Note_on_c, 9, 82, 25
1, 110160, Note_on_c, 9, 82, 0
1, 110160, Note_on_c, 4, 83, 101
1, 110160, Note_on_c, 4, 71, 101
1, 110160, Note_on_c, 4, 79, 101
1, 110160, Note_on_c, 4, 67, 101
1, 110160, Note_on_c, 6, 71, 101
1, 110160, Note_on_c, 6, 59, 101
1, 110160, Note_on_c, 6, 67, 101
1, 110160, Note_on_c, 6, 55, 101
1, 110160, Note_on_c, 9, 82, 11
1, 110160, Note_on_c, 9, 42, 73
1, 110280, Note_on_c, 9, 42, 0
1, 110280, Note_on_c, 9, 82, 0
1, 110280, Note_on_c, 9, 82, 11
1, 110400, Note_on_c, 9, 82, 0
1, 110400, Note_on_c, 6, 67, 0
1, 110400, Note_on_c, 4, 83, 0
1, 110400, Note_on_c, 6, 71, 0
1, 110400, Note_on_c, 4, 71, 0
1, 110400, Note_on_c, 6, 55, 0
1, 110400, Note_on_c, 4, 79, 0
1, 110400, Note_on_c, 6, 59, 0
1, 110400, Note_on_c, 4, 67, 0
1, 110400, Note_on_c, 4, 69, 101
1, 110400, Note_on_c, 4, 81, 101
1, 110400, Note_on_c, 4, 73, 101
1, 110400, Note_on_c, 4, 85, 101
1, 110400, Note_on_c, 6, 73, 101
1, 110400, Note_on_c, 6, 61, 101
1, 110400, Note_on_c, 6, 69, 101
1, 110400, Note_on_c, 6, 57, 101
1, 110400, Note_on_c, 8, 52, 127
1, 110400, Note_on_c, 9, 41, 127
1, 110400, Note_on_c, 12, 60, 103
1, 110520, Note_on_c, 9, 41, 0
1, 110640, Note_on_c, 6, 57, 0
1, 110640, Note_on_c, 4, 73, 0
1, 110640, Note_on_c, 4, 85, 0
1, 110640, Note_on_c, 4, 69, 0
1, 110640, Note_on_c, 6, 73, 0
1, 110640, Note_on_c, 4, 81, 0
1, 110640, Note_on_c, 6, 69, 0
1, 110640, Note_on_c, 6, 61, 0
1, 110760, Note_on_c, 4, 85, 101
1, 110760, Note_on_c, 4, 73, 101
1, 110760, Note_on_c, 4, 81, 101
1, 110760, Note_on_c, 4, 69, 101
1, 110760, Note_on_c, 6, 73, 101
1, 110760, Note_on_c, 6, 61, 101
1, 110760, Note_on_c, 6, 69, 101
1, 110760, Note_on_c, 6, 57, 101
1, 110760, Note_on_c, 9, 44, 80
1, 110760, Note_on_c, 9, 38, 80
1, 110880, Note_on_c, 9, 38, 0
1, 110880, Note_on_c, 9, 44, 0
1, 110880, Note_on_c, 9, 38, 80
1, 111000, Note_on_c, 9, 38, 0
1, 111000, Note_on_c, 6, 69, 0
1, 111000, Note_on_c, 4, 85, 0
1, 111000, Note_on_c, 4, 73, 0
1, 111000, Note_on_c, 6, 61, 0
1, 111000, Note_on_c, 4, 81, 0
1, 111000, Note_on_c, 6, 73, 0
1, 111000, Note_on_c, 6, 57, 0
1, 111000, Note_on_c, 4, 69, 0
1, 111120, Note_on_c, 8, 52, 0
1, 111120, Note_on_c, 4, 69, 101
1, 111120, Note_on_c, 4, 81, 101
1, 111120, Note_on_c, 4, 73, 101
1, 111120, Note_on_c, 4, 85, 101
1, 111120, Note_on_c, 6, 73, 101
1, 111120, Note_on_c, 6, 61, 101
1, 111120, Note_on_c, 6, 69, 101
1, 111120, Note_on_c, 6, 57, 101
1, 111120, Note_on_c, 8, 56, 127
1, 111120, Note_on_c, 9, 43, 127
1, 111240, Note_on_c, 9, 43, 0
1, 111360, Note_on_c, 6, 69, 0
1, 111360, Note_on_c, 4, 81, 0
1, 111360, Note_on_c, 4, 73, 0
1, 111360, Note_on_c, 8, 56, 0
1, 111360, Note_on_c, 4, 85, 0
1, 111360, Note_on_c, 4, 69, 0
1, 111360, Note_on_c, 6, 57, 0
1, 111360, Note_on_c, 6, 61, 0
1, 111360, Note_on_c, 6, 73, 0
1, 111360, Pitch_bend_c, 0, 8192
1, 111360, Note_on_c, 0, 35, 95
1, 111360, Pitch_bend_c, 1, 8192
1, 111360, Note_on_c, 1, 23, 95
1, 111360, Pitch_bend_c, 2, 8192
1, 111360, Note_on_c, 2, 71, 64
1, 111360, Note_on_c, 2, 59, 127
1, 111360, Note_on_c, 2, 47, 95
1, 111360, Pitch_bend_c, 3, 8192
1, 111360, Note_on_c, 3, 35, 64
1, 111360, Note_on_c, 9, 55, 127
1, 111360, Note_on_c, 9, 57, 127
1, 111360, Note_on_c, 9, 49, 127
1, 111360, Note_on_c, 9, 42, 100
1, 111360, Note_on_c, 9, 35, 103
1, 111480, Note_on_c, 9, 35, 0
1, 111480, Note_on_c, 12, 60, 0
1, 111600, Note_on_c, 9, 42, 0
1, 111720, Note_on_c, 2, 71, 0
1, 111720, Note_on_c, 0, 35, 0
1, 111720, Note_on_c, 2, 59, 0
1, 111720, Note_on_c, 2, 47, 0
1, 111720, Note_on_c, 3, 35, 0
1, 111720, Note_on_c, 1, 23, 0
1, 111720, Pitch_bend_c, 0, 0
1, 111720, Note_on_c, 0, 47, 95
1, 111720, Pitch_bend_c, 1, 0
1, 111720, Note_on_c, 1, 35, 95
1, 111720, Pitch_bend_c, 2, 0
1, 111720, Note_on_c, 2, 83, 64
1, 111720, Note_on_c, 2, 71, 127
1, 111720, Note_on_c, 2, 59, 95
1, 111720, Pitch_bend_c, 3, 0
1, 111720, Note_on_c, 3, 47, 64
1, 111735, Pitch_bend_c, 0, 8192
1, 111735, Pitch_bend_c, 1, 8192
1, 111735, Pitch_bend_c, 2, 8192
1, 111735, Pitch_bend_c, 3, 8192
1, 111840, Note_on_c, 3, 47, 0
1, 111840, Note_on_c, 0, 47, 0
1, 111840, Note_on_c, 2, 59, 0
1, 111840, Note_on_c, 1, 35, 0
1, 111840, Note_on_c, 2, 71, 0
1, 111840, Note_on_c, 2, 83, 0
1, 111840, Note_on_c, 9, 42, 63
1, 111840, Note_on_c, 9, 35, 102
1, 111960, Note_on_c, 9, 35, 0
1, 112080, Note_on_c, 9, 42, 0
1, 112080, Note_on_c, 0, 47, 95
1, 112080, Note_on_c, 1, 35, 95
1, 112080, Note_on_c, 2, 83, 64
1, 112080, Note_on_c, 2, 71, 127
1, 112080, Note_on_c, 2, 59, 95
1, 112080, Note_on_c, 3, 47, 64
1, 112320, Note_on_c, 3, 47, 0
1, 112320, Note_on_c, 0, 47, 0
1, 112320, Note_on_c, 2, 59, 0
1, 112320, Note_on_c, 1, 35, 0
1, 112320, Note_on_c, 2, 71, 0
1, 112320, Note_on_c, 2, 83, 0
1, 112320, Note_on_c, 9, 42, 79
1, 112320, Note_on_c, 9, 35, 102
1, 112440, Note_on_c, 9, 35, 0
1, 112440, Note_on_c, 0, 43, 95
1, 112440, Note_on_c, 1, 31, 95
1, 112440, Note_on_c, 2, 79, 64
1, 112440, Note_on_c, 2, 67, 127
1, 112440, Note_on_c, 2, 55, 95
1, 112440, Note_on_c, 3, 43, 64
1, 112560, Note_on_c, 3, 43, 0
1, 112560, Note_on_c, 2, 55, 0
1, 112560, Note_on_c, 2, 79, 0
1, 112560, Note_on_c, 9, 42, 0
1, 112560, Note_on_c, 0, 43, 0
1, 112560, Note_on_c, 2, 67, 0
1, 112560, Note_on_c, 1, 31, 0
1, 112560, Pitch_bend_c, 0, 5100
1, 112560, Note_on_c, 0, 47, 95
1, 112560, Pitch_bend_c, 1, 5100
1, 112560, Note_on_c, 1, 35, 95
1, 112560, Pitch_bend_c, 2, 5100
1, 112560, Note_on_c, 2, 83, 64
1, 112560, Note_on_c, 2, 71, 127
1, 112560, Note_on_c, 2, 59, 95
1, 112560, Pitch_bend_c, 3, 5100
1, 112560, Note_on_c, 3, 47, 64
1, 112575, Pitch_bend_c, 0, 6697
1, 112575, Pitch_bend_c, 1, 6697
1, 112575, Pitch_bend_c, 2, 6697
1, 112575, Pitch_bend_c, 3, 6697
1, 112640, Pitch_bend_c, 0, 6841
1, 112640, Pitch_bend_c, 1, 6841
1, 112640, Pitch_bend_c, 2, 6841
1, 112640, Pitch_bend_c, 3, 6841
1, 112670, Pitch_bend_c, 0, 6984
1, 112670, Pitch_bend_c, 1, 6984
1, 112670, Pitch_bend_c, 2, 6984
1, 112670, Pitch_bend_c, 3, 6984
1, 112685, Pitch_bend_c, 0, 7175
1, 112685, Pitch_bend_c, 1, 7175
1, 112685, Pitch_bend_c, 2, 7175
1, 112685, Pitch_bend_c, 3, 7175
1, 112700, Pitch_bend_c, 0, 7319
1, 112700, Pitch_bend_c, 1, 7319
1, 112700, Pitch_bend_c, 2, 7319
1, 112700, Pitch_bend_c, 3, 7319
1, 112720, Pitch_bend_c, 0, 7612
1, 112720, Pitch_bend_c, 1, 7612
1, 112720, Pitch_bend_c, 2, 7612
1, 112720, Pitch_bend_c, 3, 7612
1, 112735, Pitch_bend_c, 0, 7756
1, 112735, Pitch_bend_c, 1, 7756
1, 112735, Pitch_bend_c, 2, 7756
1, 112735, Pitch_bend_c, 3, 7756
1, 112750, Pitch_bend_c, 0, 7899
1, 112750, Pitch_bend_c, 1, 7899
1, 112750, Pitch_bend_c, 2, 7899
1, 112750, Pitch_bend_c, 3, 7899
1, 112765, Pitch_bend_c, 0, 8049
1, 112765, Pitch_bend_c, 1, 8049
1, 112765, Pitch_bend_c, 2, 8049
1, 112765, Pitch_bend_c, 3, 8049
1, 112780, Pitch_bend_c, 0, 8192
1, 112780, Pitch_bend_c, 1, 8192
1, 112780, Pitch_bend_c, 2, 8192
1, 112780, Pitch_bend_c, 3, 8192
1, 112800, Note_on_c, 3, 47, 0
1, 112800, Note_on_c, 0, 47, 0
1, 112800, Note_on_c, 2, 59, 0
1, 112800, Note_on_c, 1, 35, 0
1, 112800, Note_on_c, 2, 71, 0
1, 112800, Note_on_c, 2, 83, 0
1, 112800, Note_on_c, 0, 47, 95
1, 112800, Note_on_c, 1, 35, 95
1, 112800, Note_on_c, 2, 83, 64
1, 112800, Note_on_c, 2, 71, 127
1, 112800, Note_on_c, 2, 59, 95
1, 112800, Note_on_c, 3, 47, 64
1, 112800, Note_on_c, 9, 42, 63
1, 112800, Note_on_c, 9, 35, 103
1, 112920, Note_on_c, 9, 35, 0
1, 113040, Note_on_c, 2, 59, 0
1, 113040, Note_on_c, 9, 42, 0
1, 113040, Note_on_c, 2, 71, 0
1, 113040, Note_on_c, 0, 47, 0
1, 113040, Note_on_c, 1, 35, 0
1, 113040, Note_on_c, 3, 47, 0
1, 113040, Note_on_c, 2, 83, 0
1, 113040, Note_on_c, 0, 47, 95
1, 113040, Note_on_c, 1, 35, 95
1, 113040, Note_on_c, 2, 83, 64
1, 113040, Note_on_c, 2, 71, 127
1, 113040, Note_on_c, 2, 59, 95
1, 113040, Note_on_c, 3, 47, 64
1, 113070, Pitch_bend_c, 0, 8335
1, 113070, Pitch_bend_c, 1, 8335
1, 113070, Pitch_bend_c, 2, 8335
1, 113070, Pitch_bend_c, 3, 8335
1, 113120, Pitch_bend_c, 0, 8485
1, 113120, Pitch_bend_c, 1, 8485
1, 113120, Pitch_bend_c, 2, 8485
1, 113120, Pitch_bend_c, 3, 8485
1, 113135, Pitch_bend_c, 0, 8628
1, 113135, Pitch_bend_c, 1, 8628
1, 113135, Pitch_bend_c, 2, 8628
1, 113135, Pitch_bend_c, 3, 8628
1, 113150, Pitch_bend_c, 0, 8772
1, 113150, Pitch_bend_c, 1, 8772
1, 113150, Pitch_bend_c, 2, 8772
1, 113150, Pitch_bend_c, 3, 8772
1, 113165, Pitch_bend_c, 0, 9065
1, 113165, Pitch_bend_c, 1, 9065
1, 113165, Pitch_bend_c, 2, 9065
1, 113165, Pitch_bend_c, 3, 9065
1, 113180, Pitch_bend_c, 0, 9400
1, 113180, Pitch_bend_c, 1, 9400
1, 113180, Pitch_bend_c, 2, 9400
1, 113180, Pitch_bend_c, 3, 9400
1, 113200, Pitch_bend_c, 0, 9543
1, 113200, Pitch_bend_c, 1, 9543
1, 113200, Pitch_bend_c, 2, 9543
1, 113200, Pitch_bend_c, 3, 9543
1, 113215, Pitch_bend_c, 0, 9830
1, 113215, Pitch_bend_c, 1, 9830
1, 113215, Pitch_bend_c, 2, 9830
1, 113215, Pitch_bend_c, 3, 9830
1, 113230, Pitch_bend_c, 0, 10110
1, 113230, Pitch_bend_c, 1, 10110
1, 113230, Pitch_bend_c, 2, 10110
1, 113230, Pitch_bend_c, 3, 10110
1, 113245, Pitch_bend_c, 0, 10253
1, 113245, Pitch_bend_c, 1, 10253
1, 113245, Pitch_bend_c, 2, 10253
1, 113245, Pitch_bend_c, 3, 10253
1, 113260, Pitch_bend_c, 0, 10397
1, 113260, Pitch_bend_c, 1, 10397
1, 113260, Pitch_bend_c, 2, 10397
1, 113260, Pitch_bend_c, 3, 10397
1, 113280, Note_on_c, 3, 47, 0
1, 113280, Note_on_c, 0, 47, 0
1, 113280, Note_on_c, 9, 55, 0
1, 113280, Note_on_c, 1, 35, 0
1, 113280, Note_on_c, 9, 49, 0
1, 113280, Note_on_c, 9, 57, 0
1, 113280, Note_on_c, 2, 71, 0
1, 113280, Note_on_c, 2, 83, 0
1, 113280, Note_on_c, 2, 59, 0
1, 113280, Pitch_bend_c, 0, 12165
1, 113280, Note_on_c, 0, 35, 95
1, 113280, Pitch_bend_c, 1, 12165
1, 113280, Note_on_c, 1, 23, 95
1, 113280, Pitch_bend_c, 2, 12165
1, 113280, Note_on_c, 2, 71, 64
1, 113280, Note_on_c, 2, 59, 127
1, 113280, Note_on_c, 2, 47, 95
1, 113280, Pitch_bend_c, 3, 12165
1, 113280, Note_on_c, 3, 35, 64
1, 113280, Note_on_c, 9, 42, 100
1, 113280, Note_on_c, 9, 35, 103
1, 113295, Pitch_bend_c, 0, 8192
1, 113295, Pitch_bend_c, 1, 8192
1, 113295, Pitch_bend_c, 2, 8192
1, 113295, Pitch_bend_c, 3, 8192
1, 113400, Note_on_c, 9, 35, 0
1, 113520, Note_on_c, 9, 42, 0
1, 113640, Note_on_c, 2, 47, 0
1, 113640, Note_on_c, 1, 23, 0
1, 113640, Note_on_c, 2, 71, 0
1, 113640, Note_on_c, 2, 59, 0
1, 113640, Note_on_c, 3, 35, 0
1, 113640, Note_on_c, 0, 35, 0
1, 113640, Pitch_bend_c, 0, 0
1, 113640, Note_on_c, 0, 47, 95
1, 113640, Pitch_bend_c, 1, 0
1, 113640, Note_on_c, 1, 35, 95
1, 113640, Pitch_bend_c, 2, 0
1, 113640, Note_on_c, 2, 83, 64
1, 113640, Note_on_c, 2, 71, 127
1, 113640, Note_on_c, 2, 59, 95
1, 113640, Pitch_bend_c, 3, 0
1, 113640, Note_on_c, 3, 47, 64
1, 113655, Pitch_bend_c, 0, 8192
1, 113655, Pitch_bend_c, 1, 8192
1, 113655, Pitch_bend_c, 2, 8192
1, 113655, Pitch_bend_c, 3, 8192
1, 113760, Note_on_c, 3, 47, 0
1, 113760, Note_on_c, 1, 35, 0
1, 113760, Note_on_c, 2, 83, 0
1, 113760, Note_on_c, 0, 47, 0
1, 113760, Note_on_c, 2, 59, 0
1, 113760, Note_on_c, 2, 71, 0
1, 113760, Note_on_c, 9, 42, 64
1, 113760, Note_on_c, 9, 35, 103
1, 113880, Note_on_c, 9, 35, 0
1, 114000, Note_on_c, 9, 42, 0
1, 114000, Note_on_c, 0, 47, 95
1, 114000, Note_on_c, 1, 35, 95
1, 114000, Note_on_c, 2, 83, 64
1, 114000, Note_on_c, 2, 71, 127
1, 114000, Note_on_c, 2, 59, 95
1, 114000, Note_on_c, 3, 47, 64
1, 114240, Note_on_c, 3, 47, 0
1, 114240, Note_on_c, 1, 35, 0
1, 114240, Note_on_c, 2, 83, 0
1, 114240, Note_on_c, 0, 47, 0
1, 114240, Note_on_c, 2, 59, 0
1, 114240, Note_on_c, 2, 71, 0
1, 114240, Note_on_c, 0, 47, 95
1, 114240, Note_on_c, 1, 35, 95
1, 114240, Note_on_c, 2, 83, 64
1, 114240, Note_on_c, 2, 71, 127
1, 114240, Note_on_c, 2, 59, 95
1, 114240, Note_on_c, 3, 47, 64
1, 114240, Note_on_c, 9, 42, 80
1, 114240, Note_on_c, 9, 35, 104
1, 114270, Pitch_bend_c, 0, 8049
1, 114270, Pitch_bend_c, 1, 8049
1, 114270, Pitch_bend_c, 2, 8049
1, 114270, Pitch_bend_c, 3, 8049
1, 114300, Pitch_bend_c, 0, 7899
1, 114300, Pitch_bend_c, 1, 7899
1, 114300, Pitch_bend_c, 2, 7899
1, 114300, Pitch_bend_c, 3, 7899
1, 114335, Pitch_bend_c, 0, 7756
1, 114335, Pitch_bend_c, 1, 7756
1, 114335, Pitch_bend_c, 2, 7756
1, 114335, Pitch_bend_c, 3, 7756
1, 114360, Note_on_c, 9, 35, 0
1, 114365, Pitch_bend_c, 0, 7612
1, 114365, Pitch_bend_c, 1, 7612
1, 114365, Pitch_bend_c, 2, 7612
1, 114365, Pitch_bend_c, 3, 7612
1, 114400, Pitch_bend_c, 0, 7469
1, 114400, Pitch_bend_c, 1, 7469
1, 114400, Pitch_bend_c, 2, 7469
1, 114400, Pitch_bend_c, 3, 7469
1, 114420, Note_on_c, 0, 47, 0
1, 114420, Note_on_c, 3, 47, 0
1, 114420, Note_on_c, 1, 35, 0
1, 114420, Note_on_c, 2, 83, 0
1, 114420, Note_on_c, 2, 71, 0
1, 114420, Note_on_c, 2, 59, 0
1, 114480, Note_on_c, 9, 42, 0
1, 114480, Note_on_c, 0, 47, 95
1, 114480, Note_on_c, 1, 35, 95
1, 114480, Note_on_c, 2, 83, 64
1, 114480, Note_on_c, 2, 71, 127
1, 114480, Note_on_c, 2, 59, 95
1, 114480, Note_on_c, 3, 47, 64
1, 114495, Pitch_bend_c, 0, 7319
1, 114495, Pitch_bend_c, 1, 7319
1, 114495, Pitch_bend_c, 2, 7319
1, 114495, Pitch_bend_c, 3, 7319
1, 114540, Pitch_bend_c, 0, 7175
1, 114540, Pitch_bend_c, 1, 7175
1, 114540, Pitch_bend_c, 2, 7175
1, 114540, Pitch_bend_c, 3, 7175
1, 114560, Pitch_bend_c, 0, 6984
1, 114560, Pitch_bend_c, 1, 6984
1, 114560, Pitch_bend_c, 2, 6984
1, 114560, Pitch_bend_c, 3, 6984
1, 114590, Pitch_bend_c, 0, 6841
1, 114590, Pitch_bend_c, 1, 6841
1, 114590, Pitch_bend_c, 2, 6841
1, 114590, Pitch_bend_c, 3, 6841
1, 114620, Pitch_bend_c, 0, 6697
1, 114620, Pitch_bend_c, 1, 6697
1, 114620, Pitch_bend_c, 2, 6697
1, 114620, Pitch_bend_c, 3, 6697
1, 114700, Pitch_bend_c, 0, 6554
1, 114700, Pitch_bend_c, 1, 6554
1, 114700, Pitch_bend_c, 2, 6554
1, 114700, Pitch_bend_c, 3, 6554
1, 114720, Note_on_c, 3, 47, 0
1, 114720, Note_on_c, 1, 35, 0
1, 114720, Note_on_c, 2, 83, 0
1, 114720, Note_on_c, 0, 47, 0
1, 114720, Note_on_c, 2, 59, 0
1, 114720, Note_on_c, 2, 71, 0
1, 114720, Note_on_c, 0, 47, 95
1, 114720, Note_on_c, 1, 35, 95
1, 114720, Note_on_c, 2, 83, 64
1, 114720, Note_on_c, 2, 71, 127
1, 114720, Note_on_c, 2, 59, 95
1, 114720, Note_on_c, 3, 47, 64
1, 114720, Note_on_c, 9, 42, 65
1, 114720, Note_on_c, 9, 35, 104
1, 114750, Pitch_bend_c, 0, 6418
1, 114750, Pitch_bend_c, 1, 6418
1, 114750, Pitch_bend_c, 2, 6418
1, 114750, Pitch_bend_c, 3, 6418
1, 114765, Pitch_bend_c, 0, 6274
1, 114765, Pitch_bend_c, 1, 6274
1, 114765, Pitch_bend_c, 2, 6274
1, 114765, Pitch_bend_c, 3, 6274
1, 114780, Pitch_bend_c, 0, 6131
1, 114780, Pitch_bend_c, 1, 6131
1, 114780, Pitch_bend_c, 2, 6131
1, 114780, Pitch_bend_c, 3, 6131
1, 114800, Pitch_bend_c, 0, 5987
1, 114800, Pitch_bend_c, 1, 5987
1, 114800, Pitch_bend_c, 2, 5987
1, 114800, Pitch_bend_c, 3, 5987
1, 114815, Pitch_bend_c, 0, 5803
1, 114815, Pitch_bend_c, 1, 5803
1, 114815, Pitch_bend_c, 2, 5803
1, 114815, Pitch_bend_c, 3, 5803
1, 114830, Pitch_bend_c, 0, 5660
1, 114830, Pitch_bend_c, 1, 5660
1, 114830, Pitch_bend_c, 2, 5660
1, 114830, Pitch_bend_c, 3, 5660
1, 114840, Note_on_c, 9, 35, 0
1, 114845, Pitch_bend_c, 0, 5516
1, 114845, Pitch_bend_c, 1, 5516
1, 114845, Pitch_bend_c, 2, 5516
1, 114845, Pitch_bend_c, 3, 5516
1, 114860, Pitch_bend_c, 0, 5380
1, 114860, Pitch_bend_c, 1, 5380
1, 114860, Pitch_bend_c, 2, 5380
1, 114860, Pitch_bend_c, 3, 5380
1, 114880, Pitch_bend_c, 0, 5237
1, 114880, Pitch_bend_c, 1, 5237
1, 114880, Pitch_bend_c, 2, 5237
1, 114880, Pitch_bend_c, 3, 5237
1, 114910, Pitch_bend_c, 0, 5100
1, 114910, Pitch_bend_c, 1, 5100
1, 114910, Pitch_bend_c, 2, 5100
1, 114910, Pitch_bend_c, 3, 5100
1, 114960, Note_on_c, 0, 47, 0
1, 114960, Note_on_c, 2, 59, 0
1, 114960, Note_on_c, 1, 35, 0
1, 114960, Note_on_c, 2, 83, 0
1, 114960, Note_on_c, 2, 71, 0
1, 114960, Note_on_c, 3, 47, 0
1, 114960, Note_on_c, 9, 42, 0
1, 114960, Note_on_c, 0, 47, 95
1, 114960, Note_on_c, 1, 35, 95
1, 114960, Note_on_c, 2, 83, 64
1, 114960, Note_on_c, 2, 71, 127
1, 114960, Note_on_c, 2, 59, 95
1, 114960, Note_on_c, 3, 47, 64
1, 114975, Pitch_bend_c, 0, 4963
1, 114975, Pitch_bend_c, 1, 4963
1, 114975, Pitch_bend_c, 2, 4963
1, 114975, Pitch_bend_c, 3, 4963
1, 114990, Pitch_bend_c, 0, 4636
1, 114990, Pitch_bend_c, 1, 4636
1, 114990, Pitch_bend_c, 2, 4636
1, 114990, Pitch_bend_c, 3, 4636
1, 115005, Pitch_bend_c, 0, 4499
1, 115005, Pitch_bend_c, 1, 4499
1, 115005, Pitch_bend_c, 2, 4499
1, 115005, Pitch_bend_c, 3, 4499
1, 115020, Pitch_bend_c, 0, 4083
1, 115020, Pitch_bend_c, 1, 4083
1, 115020, Pitch_bend_c, 2, 4083
1, 115020, Pitch_bend_c, 3, 4083
1, 115040, Pitch_bend_c, 0, 3810
1, 115040, Pitch_bend_c, 1, 3810
1, 115040, Pitch_bend_c, 2, 3810
1, 115040, Pitch_bend_c, 3, 3810
1, 115055, Pitch_bend_c, 0, 3359
1, 115055, Pitch_bend_c, 1, 3359
1, 115055, Pitch_bend_c, 2, 3359
1, 115055, Pitch_bend_c, 3, 3359
1, 115070, Pitch_bend_c, 0, 3086
1, 115070, Pitch_bend_c, 1, 3086
1, 115070, Pitch_bend_c, 2, 3086
1, 115070, Pitch_bend_c, 3, 3086
1, 115085, Pitch_bend_c, 0, 2820
1, 115085, Pitch_bend_c, 1, 2820
1, 115085, Pitch_bend_c, 2, 2820
1, 115085, Pitch_bend_c, 3, 2820
1, 115100, Pitch_bend_c, 0, 2683
1, 115100, Pitch_bend_c, 1, 2683
1, 115100, Pitch_bend_c, 2, 2683
1, 115100, Pitch_bend_c, 3, 2683
1, 115120, Pitch_bend_c, 0, 2369
1, 115120, Pitch_bend_c, 1, 2369
1, 115120, Pitch_bend_c, 2, 2369
1, 115120, Pitch_bend_c, 3, 2369
1, 115135, Pitch_bend_c, 0, 2240
1, 115135, Pitch_bend_c, 1, 2240
1, 115135, Pitch_bend_c, 2, 2240
1, 115135, Pitch_bend_c, 3, 2240
1, 115165, Pitch_bend_c, 0, 2103
1, 115165, Pitch_bend_c, 1, 2103
1, 115165, Pitch_bend_c, 2, 2103
1, 115165, Pitch_bend_c, 3, 2103
1, 115200, Note_on_c, 3, 47, 0
1, 115200, Note_on_c, 1, 35, 0
1, 115200, Note_on_c, 2, 83, 0
1, 115200, Note_on_c, 0, 47, 0
1, 115200, Note_on_c, 2, 59, 0
1, 115200, Note_on_c, 2, 71, 0
1, 115200, Pitch_bend_c, 0, 8192
1, 115200, Note_on_c, 0, 35, 95
1, 115200, Pitch_bend_c, 1, 8192
1, 115200, Note_on_c, 1, 23, 95
1, 115200, Pitch_bend_c, 2, 8192
1, 115200, Note_on_c, 2, 71, 64
1, 115200, Note_on_c, 2, 59, 127
1, 115200, Note_on_c, 2, 47, 95
1, 115200, Pitch_bend_c, 3, 8192
1, 115200, Note_on_c, 3, 35, 64
1, 115200, Note_on_c, 9, 42, 100
1, 115200, Note_on_c, 9, 35, 103
1, 115320, Note_on_c, 9, 35, 0
1, 115440, Note_on_c, 9, 42, 0
1, 115560, Note_on_c, 2, 47, 0
1, 115560, Note_on_c, 1, 23, 0
1, 115560, Note_on_c, 2, 71, 0
1, 115560, Note_on_c, 2, 59, 0
1, 115560, Note_on_c, 3, 35, 0
1, 115560, Note_on_c, 0, 35, 0
1, 115560, Pitch_bend_c, 0, 0
1, 115560, Note_on_c, 0, 47, 95
1, 115560, Pitch_bend_c, 1, 0
1, 115560, Note_on_c, 1, 35, 95
1, 115560, Pitch_bend_c, 2, 0
1, 115560, Note_on_c, 2, 83, 64
1, 115560, Note_on_c, 2, 71, 127
1, 115560, Note_on_c, 2, 59, 95
1, 115560, Pitch_bend_c, 3, 0
1, 115560, Note_on_c, 3, 47, 64
1, 115575, Pitch_bend_c, 0, 8192
1, 115575, Pitch_bend_c, 1, 8192
1, 115575, Pitch_bend_c, 2, 8192
1, 115575, Pitch_bend_c, 3, 8192
1, 115680, Note_on_c, 3, 47, 0
1, 115680, Note_on_c, 1, 35, 0
1, 115680, Note_on_c, 2, 83, 0
1, 115680, Note_on_c, 0, 47, 0
1, 115680, Note_on_c, 2, 59, 0
1, 115680, Note_on_c, 2, 71, 0
1, 115680, Note_on_c, 9, 42, 63
1, 115680, Note_on_c, 9, 35, 102
1, 115800, Note_on_c, 9, 35, 0
1, 115920, Note_on_c, 9, 42, 0
1, 115920, Note_on_c, 0, 47, 95
1, 115920, Note_on_c, 1, 35, 95
1, 115920, Note_on_c, 2, 83, 64
1, 115920, Note_on_c, 2, 71, 127
1, 115920, Note_on_c, 2, 59, 95
1, 115920, Note_on_c, 3, 47, 64
1, 116160, Note_on_c, 3, 47, 0
1, 116160, Note_on_c, 1, 35, 0
1, 116160, Note_on_c, 2, 83, 0
1, 116160, Note_on_c, 0, 47, 0
1, 116160, Note_on_c, 2, 59, 0
1, 116160, Note_on_c, 2, 71, 0
1, 116160, Note_on_c, 9, 42, 79
1, 116160, Note_on_c, 9, 35, 102
1, 116280, Note_on_c, 9, 35, 0
1, 116280, Note_on_c, 0, 43, 95
1, 116280, Note_on_c, 1, 31, 95
1, 116280, Note_on_c, 2, 79, 64
1, 116280, Note_on_c, 2, 67, 127
1, 116280, Note_on_c, 2, 55, 95
1, 116280, Note_on_c, 3, 43, 64
1, 116400, Note_on_c, 3, 43, 0
1, 116400, Note_on_c, 2, 67, 0
1, 116400, Note_on_c, 0, 43, 0
1, 116400, Note_on_c, 1, 31, 0
1, 116400, Note_on_c, 9, 42, 0
1, 116400, Note_on_c, 2, 55, 0
1, 116400, Note_on_c, 2, 79, 0
1, 116400, Pitch_bend_c, 0, 5100
1, 116400, Note_on_c, 0, 47, 95
1, 116400, Pitch_bend_c, 1, 5100
1, 116400, Note_on_c, 1, 35, 95
1, 116400, Pitch_bend_c, 2, 5100
1, 116400, Note_on_c, 2, 83, 64
1, 116400, Note_on_c, 2, 71, 127
1, 116400, Note_on_c, 2, 59, 95
1, 116400, Pitch_bend_c, 3, 5100
1, 116400, Note_on_c, 3, 47, 64
1, 116415, Pitch_bend_c, 0, 6697
1, 116415, Pitch_bend_c, 1, 6697
1, 116415, Pitch_bend_c, 2, 6697
1, 116415, Pitch_bend_c, 3, 6697
1, 116480, Pitch_bend_c, 0, 6841
1, 116480, Pitch_bend_c, 1, 6841
1, 116480, Pitch_bend_c, 2, 6841
1, 116480, Pitch_bend_c, 3, 6841
1, 116510, Pitch_bend_c, 0, 6984
1, 116510, Pitch_bend_c, 1, 6984
1, 116510, Pitch_bend_c, 2, 6984
1, 116510, Pitch_bend_c, 3, 6984
1, 116525, Pitch_bend_c, 0, 7175
1, 116525, Pitch_bend_c, 1, 7175
1, 116525, Pitch_bend_c, 2, 7175
1, 116525, Pitch_bend_c, 3, 7175
1, 116540, Pitch_bend_c, 0, 7319
1, 116540, Pitch_bend_c, 1, 7319
1, 116540, Pitch_bend_c, 2, 7319
1, 116540, Pitch_bend_c, 3, 7319
1, 116560, Pitch_bend_c, 0, 7612
1, 116560, Pitch_bend_c, 1, 7612
1, 116560, Pitch_bend_c, 2, 7612
1, 116560, Pitch_bend_c, 3, 7612
1, 116575, Pitch_bend_c, 0, 7756
1, 116575, Pitch_bend_c, 1, 7756
1, 116575, Pitch_bend_c, 2, 7756
1, 116575, Pitch_bend_c, 3, 7756
1, 116590, Pitch_bend_c, 0, 7899
1, 116590, Pitch_bend_c, 1, 7899
1, 116590, Pitch_bend_c, 2, 7899
1, 116590, Pitch_bend_c, 3, 7899
1, 116605, Pitch_bend_c, 0, 8049
1, 116605, Pitch_bend_c, 1, 8049
1, 116605, Pitch_bend_c, 2, 8049
1, 116605, Pitch_bend_c, 3, 8049
1, 116620, Pitch_bend_c, 0, 8192
1, 116620, Pitch_bend_c, 1, 8192
1, 116620, Pitch_bend_c, 2, 8192
1, 116620, Pitch_bend_c, 3, 8192
1, 116640, Note_on_c, 3, 47, 0
1, 116640, Note_on_c, 1, 35, 0
1, 116640, Note_on_c, 2, 83, 0
1, 116640, Note_on_c, 0, 47, 0
1, 116640, Note_on_c, 2, 59, 0
1, 116640, Note_on_c, 2, 71, 0
1, 116640, Note_on_c, 0, 47, 95
1, 116640, Note_on_c, 1, 35, 95
1, 116640, Note_on_c, 2, 83, 64
1, 116640, Note_on_c, 2, 71, 127
1, 116640, Note_on_c, 2, 59, 95
1, 116640, Note_on_c, 3, 47, 64
1, 116640, Note_on_c, 9, 42, 63
1, 116640, Note_on_c, 9, 35, 103
1, 116760, Note_on_c, 9, 35, 0
1, 116880, Note_on_c, 0, 47, 0
1, 116880, Note_on_c, 2, 59, 0
1, 116880, Note_on_c, 1, 35, 0
1, 116880, Note_on_c, 2, 83, 0
1, 116880, Note_on_c, 2, 71, 0
1, 116880, Note_on_c, 3, 47, 0
1, 116880, Note_on_c, 9, 42, 0
1, 116880, Note_on_c, 0, 47, 95
1, 116880, Note_on_c, 1, 35, 95
1, 116880, Note_on_c, 2, 83, 64
1, 116880, Note_on_c, 2, 71, 127
1, 116880, Note_on_c, 2, 59, 95
1, 116880, Note_on_c, 3, 47, 64
1, 116910, Pitch_bend_c, 0, 8335
1, 116910, Pitch_bend_c, 1, 8335
1, 116910, Pitch_bend_c, 2, 8335
1, 116910, Pitch_bend_c, 3, 8335
1, 116960, Pitch_bend_c, 0, 8485
1, 116960, Pitch_bend_c, 1, 8485
1, 116960, Pitch_bend_c, 2, 8485
1, 116960, Pitch_bend_c, 3, 8485
1, 116975, Pitch_bend_c, 0, 8628
1, 116975, Pitch_bend_c, 1, 8628
1, 116975, Pitch_bend_c, 2, 8628
1, 116975, Pitch_bend_c, 3, 8628
1, 116990, Pitch_bend_c, 0, 8772
1, 116990, Pitch_bend_c, 1, 8772
1, 116990, Pitch_bend_c, 2, 8772
1, 116990, Pitch_bend_c, 3, 8772
1, 117005, Pitch_bend_c, 0, 9065
1, 117005, Pitch_bend_c, 1, 9065
1, 117005, Pitch_bend_c, 2, 9065
1, 117005, Pitch_bend_c, 3, 9065
1, 117020, Pitch_bend_c, 0, 9400
1, 117020, Pitch_bend_c, 1, 9400
1, 117020, Pitch_bend_c, 2, 9400
1, 117020, Pitch_bend_c, 3, 9400
1, 117040, Pitch_bend_c, 0, 9543
1, 117040, Pitch_bend_c, 1, 9543
1, 117040, Pitch_bend_c, 2, 9543
1, 117040, Pitch_bend_c, 3, 9543
1, 117055, Pitch_bend_c, 0, 9830
1, 117055, Pitch_bend_c, 1, 9830
1, 117055, Pitch_bend_c, 2, 9830
1, 117055, Pitch_bend_c, 3, 9830
1, 117070, Pitch_bend_c, 0, 10110
1, 117070, Pitch_bend_c, 1, 10110
1, 117070, Pitch_bend_c, 2, 10110
1, 117070, Pitch_bend_c, 3, 10110
1, 117085, Pitch_bend_c, 0, 10253
1, 117085, Pitch_bend_c, 1, 10253
1, 117085, Pitch_bend_c, 2, 10253
1, 117085, Pitch_bend_c, 3, 10253
1, 117100, Pitch_bend_c, 0, 10397
1, 117100, Pitch_bend_c, 1, 10397
1, 117100, Pitch_bend_c, 2, 10397
1, 117100, Pitch_bend_c, 3, 10397
1, 117120, Note_on_c, 3, 47, 0
1, 117120, Note_on_c, 1, 35, 0
1, 117120, Note_on_c, 2, 83, 0
1, 117120, Note_on_c, 0, 47, 0
1, 117120, Note_on_c, 2, 59, 0
1, 117120, Note_on_c, 2, 71, 0
1, 117120, Pitch_bend_c, 0, 12165
1, 117120, Note_on_c, 0, 35, 95
1, 117120, Pitch_bend_c, 1, 12165
1, 117120, Note_on_c, 1, 23, 95
1, 117120, Pitch_bend_c, 2, 12165
1, 117120, Note_on_c, 2, 71, 64
1, 117120, Note_on_c, 2, 59, 127
1, 117120, Note_on_c, 2, 47, 95
1, 117120, Pitch_bend_c, 3, 12165
1, 117120, Note_on_c, 3, 35, 64
1, 117120, Note_on_c, 9, 42, 100
1, 117120, Note_on_c, 9, 35, 103
1, 117135, Pitch_bend_c, 0, 8192
1, 117135, Pitch_bend_c, 1, 8192
1, 117135, Pitch_bend_c, 2, 8192
1, 117135, Pitch_bend_c, 3, 8192
1, 117240, Note_on_c, 9, 35, 0
1, 117360, Note_on_c, 9, 42, 0
1, 117480, Note_on_c, 2, 47, 0
1, 117480, Note_on_c, 1, 23, 0
1, 117480, Note_on_c, 2, 71, 0
1, 117480, Note_on_c, 2, 59, 0
1, 117480, Note_on_c, 3, 35, 0
1, 117480, Note_on_c, 0, 35, 0
1, 117480, Pitch_bend_c, 0, 0
1, 117480, Note_on_c, 0, 47, 95
1, 117480, Pitch_bend_c, 1, 0
1, 117480, Note_on_c, 1, 35, 95
1, 117480, Pitch_bend_c, 2, 0
1, 117480, Note_on_c, 2, 83, 64
1, 117480, Note_on_c, 2, 71, 127
1, 117480, Note_on_c, 2, 59, 95
1, 117480, Pitch_bend_c, 3, 0
1, 117480, Note_on_c, 3, 47, 64
1, 117495, Pitch_bend_c, 0, 8192
1, 117495, Pitch_bend_c, 1, 8192
1, 117495, Pitch_bend_c, 2, 8192
1, 117495, Pitch_bend_c, 3, 8192
1, 117600, Note_on_c, 3, 47, 0
1, 117600, Note_on_c, 1, 35, 0
1, 117600, Note_on_c, 2, 83, 0
1, 117600, Note_on_c, 0, 47, 0
1, 117600, Note_on_c, 2, 59, 0
1, 117600, Note_on_c, 2, 71, 0
1, 117600, Note_on_c, 9, 42, 64
1, 117600, Note_on_c, 9, 35, 103
1, 117720, Note_on_c, 9, 35, 0
1, 117840, Note_on_c, 9, 42, 0
1, 117840, Note_on_c, 0, 47, 95
1, 117840, Note_on_c, 1, 35, 95
1, 117840, Note_on_c, 2, 83, 64
1, 117840, Note_on_c, 2, 71, 127
1, 117840, Note_on_c, 2, 59, 95
1, 117840, Note_on_c, 3, 47, 64
1, 118080, Note_on_c, 3, 47, 0
1, 118080, Note_on_c, 1, 35, 0
1, 118080, Note_on_c, 2, 83, 0
1, 118080, Note_on_c, 0, 47, 0
1, 118080, Note_on_c, 2, 59, 0
1, 118080, Note_on_c, 2, 71, 0
1, 118080, Note_on_c, 0, 47, 95
1, 118080, Note_on_c, 1, 35, 95
1, 118080, Note_on_c, 2, 83, 64
1, 118080, Note_on_c, 2, 71, 127
1, 118080, Note_on_c, 2, 59, 95
1, 118080, Note_on_c, 3, 47, 64
1, 118080, Note_on_c, 9, 42, 80
1, 118080, Note_on_c, 9, 35, 104
1, 118110, Pitch_bend_c, 0, 8049
1, 118110, Pitch_bend_c, 1, 8049
1, 118110, Pitch_bend_c, 2, 8049
1, 118110, Pitch_bend_c, 3, 8049
1, 118140, Pitch_bend_c, 0, 7899
1, 118140, Pitch_bend_c, 1, 7899
1, 118140, Pitch_bend_c, 2, 7899
1, 118140, Pitch_bend_c, 3, 7899
1, 118175, Pitch_bend_c, 0, 7756
1, 118175, Pitch_bend_c, 1, 7756
1, 118175, Pitch_bend_c, 2, 7756
1, 118175, Pitch_bend_c, 3, 7756
1, 118200, Note_on_c, 9, 35, 0
1, 118205, Pitch_bend_c, 0, 7612
1, 118205, Pitch_bend_c, 1, 7612
1, 118205, Pitch_bend_c, 2, 7612
1, 118205, Pitch_bend_c, 3, 7612
1, 118240, Pitch_bend_c, 0, 7469
1, 118240, Pitch_bend_c, 1, 7469
1, 118240, Pitch_bend_c, 2, 7469
1, 118240, Pitch_bend_c, 3, 7469
1, 118260, Note_on_c, 0, 47, 0
1, 118260, Note_on_c, 3, 47, 0
1, 118260, Note_on_c, 1, 35, 0
1, 118260, Note_on_c, 2, 83, 0
1, 118260, Note_on_c, 2, 71, 0
1, 118260, Note_on_c, 2, 59, 0
1, 118320, Note_on_c, 9, 42, 0
1, 118320, Note_on_c, 0, 47, 95
1, 118320, Note_on_c, 1, 35, 95
1, 118320, Note_on_c, 2, 83, 64
1, 118320, Note_on_c, 2, 71, 127
1, 118320, Note_on_c, 2, 59, 95
1, 118320, Note_on_c, 3, 47, 64
1, 118335, Pitch_bend_c, 0, 7319
1, 118335, Pitch_bend_c, 1, 7319
1, 118335, Pitch_bend_c, 2, 7319
1, 118335, Pitch_bend_c, 3, 7319
1, 118380, Pitch_bend_c, 0, 7175
1, 118380, Pitch_bend_c, 1, 7175
1, 118380, Pitch_bend_c, 2, 7175
1, 118380, Pitch_bend_c, 3, 7175
1, 118400, Pitch_bend_c, 0, 6984
1, 118400, Pitch_bend_c, 1, 6984
1, 118400, Pitch_bend_c, 2, 6984
1, 118400, Pitch_bend_c, 3, 6984
1, 118430, Pitch_bend_c, 0, 6841
1, 118430, Pitch_bend_c, 1, 6841
1, 118430, Pitch_bend_c, 2, 6841
1, 118430, Pitch_bend_c, 3, 6841
1, 118460, Pitch_bend_c, 0, 6697
1, 118460, Pitch_bend_c, 1, 6697
1, 118460, Pitch_bend_c, 2, 6697
1, 118460, Pitch_bend_c, 3, 6697
1, 118540, Pitch_bend_c, 0, 6554
1, 118540, Pitch_bend_c, 1, 6554
1, 118540, Pitch_bend_c, 2, 6554
1, 118540, Pitch_bend_c, 3, 6554
1, 118560, Note_on_c, 3, 47, 0
1, 118560, Note_on_c, 1, 35, 0
1, 118560, Note_on_c, 2, 83, 0
1, 118560, Note_on_c, 0, 47, 0
1, 118560, Note_on_c, 2, 59, 0
1, 118560, Note_on_c, 2, 71, 0
1, 118560, Note_on_c, 0, 47, 95
1, 118560, Note_on_c, 1, 35, 95
1, 118560, Note_on_c, 2, 83, 64
1, 118560, Note_on_c, 2, 71, 127
1, 118560, Note_on_c, 2, 59, 95
1, 118560, Note_on_c, 3, 47, 64
1, 118560, Note_on_c, 9, 42, 65
1, 118560, Note_on_c, 9, 35, 104
1, 118590, Pitch_bend_c, 0, 6418
1, 118590, Pitch_bend_c, 1, 6418
1, 118590, Pitch_bend_c, 2, 6418
1, 118590, Pitch_bend_c, 3, 6418
1, 118605, Pitch_bend_c, 0, 6274
1, 118605, Pitch_bend_c, 1, 6274
1, 118605, Pitch_bend_c, 2, 6274
1, 118605, Pitch_bend_c, 3, 6274
1, 118620, Pitch_bend_c, 0, 6131
1, 118620, Pitch_bend_c, 1, 6131
1, 118620, Pitch_bend_c, 2, 6131
1, 118620, Pitch_bend_c, 3, 6131
1, 118640, Pitch_bend_c, 0, 5987
1, 118640, Pitch_bend_c, 1, 5987
1, 118640, Pitch_bend_c, 2, 5987
1, 118640, Pitch_bend_c, 3, 5987
1, 118655, Pitch_bend_c, 0, 5803
1, 118655, Pitch_bend_c, 1, 5803
1, 118655, Pitch_bend_c, 2, 5803
1, 118655, Pitch_bend_c, 3, 5803
1, 118670, Pitch_bend_c, 0, 5660
1, 118670, Pitch_bend_c, 1, 5660
1, 118670, Pitch_bend_c, 2, 5660
1, 118670, Pitch_bend_c, 3, 5660
1, 118680, Note_on_c, 9, 35, 0
1, 118685, Pitch_bend_c, 0, 5516
1, 118685, Pitch_bend_c, 1, 5516
1, 118685, Pitch_bend_c, 2, 5516
1, 118685, Pitch_bend_c, 3, 5516
1, 118700, Pitch_bend_c, 0, 5380
1, 118700, Pitch_bend_c, 1, 5380
1, 118700, Pitch_bend_c, 2, 5380
1, 118700, Pitch_bend_c, 3, 5380
1, 118720, Pitch_bend_c, 0, 5237
1, 118720, Pitch_bend_c, 1, 5237
1, 118720, Pitch_bend_c, 2, 5237
1, 118720, Pitch_bend_c, 3, 5237
1, 118750, Pitch_bend_c, 0, 5100
1, 118750, Pitch_bend_c, 1, 5100
1, 118750, Pitch_bend_c, 2, 5100
1, 118750, Pitch_bend_c, 3, 5100
1, 118800, Note_on_c, 0, 47, 0
1, 118800, Note_on_c, 2, 59, 0
1, 118800, Note_on_c, 1, 35, 0
1, 118800, Note_on_c, 2, 83, 0
1, 118800, Note_on_c, 2, 71, 0
1, 118800, Note_on_c, 3, 47, 0
1, 118800, Note_on_c, 9, 42, 0
1, 118800, Note_on_c, 0, 47, 95
1, 118800, Note_on_c, 1, 35, 95
1, 118800, Note_on_c, 2, 83, 64
1, 118800, Note_on_c, 2, 71, 127
1, 118800, Note_on_c, 2, 59, 95
1, 118800, Note_on_c, 3, 47, 64
1, 118815, Pitch_bend_c, 0, 4963
1, 118815, Pitch_bend_c, 1, 4963
1, 118815, Pitch_bend_c, 2, 4963
1, 118815, Pitch_bend_c, 3, 4963
1, 118830, Pitch_bend_c, 0, 4636
1, 118830, Pitch_bend_c, 1, 4636
1, 118830, Pitch_bend_c, 2, 4636
1, 118830, Pitch_bend_c, 3, 4636
1, 118845, Pitch_bend_c, 0, 4499
1, 118845, Pitch_bend_c, 1, 4499
1, 118845, Pitch_bend_c, 2, 4499
1, 118845, Pitch_bend_c, 3, 4499
1, 118860, Pitch_bend_c, 0, 4083
1, 118860, Pitch_bend_c, 1, 4083
1, 118860, Pitch_bend_c, 2, 4083
1, 118860, Pitch_bend_c, 3, 4083
1, 118880, Pitch_bend_c, 0, 3810
1, 118880, Pitch_bend_c, 1, 3810
1, 118880, Pitch_bend_c, 2, 3810
1, 118880, Pitch_bend_c, 3, 3810
1, 118895, Pitch_bend_c, 0, 3359
1, 118895, Pitch_bend_c, 1, 3359
1, 118895, Pitch_bend_c, 2, 3359
1, 118895, Pitch_bend_c, 3, 3359
1, 118910, Pitch_bend_c, 0, 3086
1, 118910, Pitch_bend_c, 1, 3086
1, 118910, Pitch_bend_c, 2, 3086
1, 118910, Pitch_bend_c, 3, 3086
1, 118925, Pitch_bend_c, 0, 2820
1, 118925, Pitch_bend_c, 1, 2820
1, 118925, Pitch_bend_c, 2, 2820
1, 118925, Pitch_bend_c, 3, 2820
1, 118940, Pitch_bend_c, 0, 2683
1, 118940, Pitch_bend_c, 1, 2683
1, 118940, Pitch_bend_c, 2, 2683
1, 118940, Pitch_bend_c, 3, 2683
1, 118960, Pitch_bend_c, 0, 2369
1, 118960, Pitch_bend_c, 1, 2369
1, 118960, Pitch_bend_c, 2, 2369
1, 118960, Pitch_bend_c, 3, 2369
1, 118975, Pitch_bend_c, 0, 2240
1, 118975, Pitch_bend_c, 1, 2240
1, 118975, Pitch_bend_c, 2, 2240
1, 118975, Pitch_bend_c, 3, 2240
1, 119005, Pitch_bend_c, 0, 2103
1, 119005, Pitch_bend_c, 1, 2103
1, 119005, Pitch_bend_c, 2, 2103
1, 119005, Pitch_bend_c, 3, 2103
1, 119040, Note_on_c, 3, 47, 0
1, 119040, Note_on_c, 1, 35, 0
1, 119040, Note_on_c, 2, 83, 0
1, 119040, Note_on_c, 0, 47, 0
1, 119040, Note_on_c, 2, 59, 0
1, 119040, Note_on_c, 2, 71, 0
1, 119040, Pitch_bend_c, 0, 8192
1, 119040, Note_on_c, 0, 35, 95
1, 119040, Pitch_bend_c, 1, 8192
1, 119040, Note_on_c, 1, 23, 95
1, 119040, Pitch_bend_c, 2, 8192
1, 119040, Note_on_c, 2, 71, 64
1, 119040, Note_on_c, 2, 59, 127
1, 119040, Note_on_c, 2, 47, 95
1, 119040, Pitch_bend_c, 3, 8192
1, 119040, Note_on_c, 3, 35, 64
1, 119040, Note_on_c, 9, 42, 100
1, 119040, Note_on_c, 9, 35, 103
1, 119160, Note_on_c, 9, 35, 0
1, 119280, Note_on_c, 9, 42, 0
1, 119400, Note_on_c, 2, 47, 0
1, 119400, Note_on_c, 1, 23, 0
1, 119400, Note_on_c, 2, 71, 0
1, 119400, Note_on_c, 2, 59, 0
1, 119400, Note_on_c, 3, 35, 0
1, 119400, Note_on_c, 0, 35, 0
1, 119400, Pitch_bend_c, 0, 0
1, 119400, Note_on_c, 0, 47, 95
1, 119400, Pitch_bend_c, 1, 0
1, 119400, Note_on_c, 1, 35, 95
1, 119400, Pitch_bend_c, 2, 0
1, 119400, Note_on_c, 2, 83, 64
1, 119400, Note_on_c, 2, 71, 127
1, 119400, Note_on_c, 2, 59, 95
1, 119400, Pitch_bend_c, 3, 0
1, 119400, Note_on_c, 3, 47, 64
1, 119415, Pitch_bend_c, 0, 8192
1, 119415, Pitch_bend_c, 1, 8192
1, 119415, Pitch_bend_c, 2, 8192
1, 119415, Pitch_bend_c, 3, 8192
1, 119520, Note_on_c, 3, 47, 0
1, 119520, Note_on_c, 1, 35, 0
1, 119520, Note_on_c, 2, 83, 0
1, 119520, Note_on_c, 0, 47, 0
1, 119520, Note_on_c, 2, 59, 0
1, 119520, Note_on_c, 2, 71, 0
1, 119520, Note_on_c, 9, 42, 63
1, 119520, Note_on_c, 9, 35, 102
1, 119640, Note_on_c, 9, 35, 0
1, 119760, Note_on_c, 9, 42, 0
1, 119760, Note_on_c, 0, 47, 95
1, 119760, Note_on_c, 1, 35, 95
1, 119760, Note_on_c, 2, 83, 64
1, 119760, Note_on_c, 2, 71, 127
1, 119760, Note_on_c, 2, 59, 95
1, 119760, Note_on_c, 3, 47, 64
1, 120000, Note_on_c, 3, 47, 0
1, 120000, Note_on_c, 1, 35, 0
1, 120000, Note_on_c, 2, 83, 0
1, 120000, Note_on_c, 0, 47, 0
1, 120000, Note_on_c, 2, 59, 0
1, 120000, Note_on_c, 2, 71, 0
1, 120000, Note_on_c, 9, 42, 79
1, 120000, Note_on_c, 9, 35, 102
1, 120120, Note_on_c, 9, 35, 0
1, 120120, Note_on_c, 0, 43, 95
1, 120120, Note_on_c, 1, 31, 95
1, 120120, Note_on_c, 2, 79, 64
1, 120120, Note_on_c, 2, 67, 127
1, 120120, Note_on_c, 2, 55, 95
1, 120120, Note_on_c, 3, 43, 64
1, 120240, Note_on_c, 3, 43, 0
1, 120240, Note_on_c, 2, 67, 0
1, 120240, Note_on_c, 0, 43, 0
1, 120240, Note_on_c, 1, 31, 0
1, 120240, Note_on_c, 9, 42, 0
1, 120240, Note_on_c, 2, 55, 0
1, 120240, Note_on_c, 2, 79, 0
1, 120240, Pitch_bend_c, 0, 5100
1, 120240, Note_on_c, 0, 47, 95
1, 120240, Pitch_bend_c, 1, 5100
1, 120240, Note_on_c, 1, 35, 95
1, 120240, Pitch_bend_c, 2, 5100
1, 120240, Note_on_c, 2, 83, 64
1, 120240, Note_on_c, 2, 71, 127
1, 120240, Note_on_c, 2, 59, 95
1, 120240, Pitch_bend_c, 3, 5100
1, 120240, Note_on_c, 3, 47, 64
1, 120255, Pitch_bend_c, 0, 6697
1, 120255, Pitch_bend_c, 1, 6697
1, 120255, Pitch_bend_c, 2, 6697
1, 120255, Pitch_bend_c, 3, 6697
1, 120320, Pitch_bend_c, 0, 6841
1, 120320, Pitch_bend_c, 1, 6841
1, 120320, Pitch_bend_c, 2, 6841
1, 120320, Pitch_bend_c, 3, 6841
1, 120350, Pitch_bend_c, 0, 6984
1, 120350, Pitch_bend_c, 1, 6984
1, 120350, Pitch_bend_c, 2, 6984
1, 120350, Pitch_bend_c, 3, 6984
1, 120365, Pitch_bend_c, 0, 7175
1, 120365, Pitch_bend_c, 1, 7175
1, 120365, Pitch_bend_c, 2, 7175
1, 120365, Pitch_bend_c, 3, 7175
1, 120380, Pitch_bend_c, 0, 7319
1, 120380, Pitch_bend_c, 1, 7319
1, 120380, Pitch_bend_c, 2, 7319
1, 120380, Pitch_bend_c, 3, 7319
1, 120400, Pitch_bend_c, 0, 7612
1, 120400, Pitch_bend_c, 1, 7612
1, 120400, Pitch_bend_c, 2, 7612
1, 120400, Pitch_bend_c, 3, 7612
1, 120415, Pitch_bend_c, 0, 7756
1, 120415, Pitch_bend_c, 1, 7756
1, 120415, Pitch_bend_c, 2, 7756
1, 120415, Pitch_bend_c, 3, 7756
1, 120430, Pitch_bend_c, 0, 7899
1, 120430, Pitch_bend_c, 1, 7899
1, 120430, Pitch_bend_c, 2, 7899
1, 120430, Pitch_bend_c, 3, 7899
1, 120445, Pitch_bend_c, 0, 8049
1, 120445, Pitch_bend_c, 1, 8049
1, 120445, Pitch_bend_c, 2, 8049
1, 120445, Pitch_bend_c, 3, 8049
1, 120460, Pitch_bend_c, 0, 8192
1, 120460, Pitch_bend_c, 1, 8192
1, 120460, Pitch_bend_c, 2, 8192
1, 120460, Pitch_bend_c, 3, 8192
1, 120480, Note_on_c, 3, 47, 0
1, 120480, Note_on_c, 1, 35, 0
1, 120480, Note_on_c, 2, 83, 0
1, 120480, Note_on_c, 0, 47, 0
1, 120480, Note_on_c, 2, 59, 0
1, 120480, Note_on_c, 2, 71, 0
1, 120480, Note_on_c, 0, 47, 95
1, 120480, Note_on_c, 1, 35, 95
1, 120480, Note_on_c, 2, 83, 64
1, 120480, Note_on_c, 2, 71, 127
1, 120480, Note_on_c, 2, 59, 95
1, 120480, Note_on_c, 3, 47, 64
1, 120480, Note_on_c, 9, 42, 63
1, 120480, Note_on_c, 9, 35, 103
1, 120600, Note_on_c, 9, 35, 0
1, 120720, Note_on_c, 0, 47, 0
1, 120720, Note_on_c, 2, 59, 0
1, 120720, Note_on_c, 1, 35, 0
1, 120720, Note_on_c, 2, 83, 0
1, 120720, Note_on_c, 2, 71, 0
1, 120720, Note_on_c, 3, 47, 0
1, 120720, Note_on_c, 9, 42, 0
1, 120720, Note_on_c, 0, 47, 95
1, 120720, Note_on_c, 1, 35, 95
1, 120720, Note_on_c, 2, 83, 64
1, 120720, Note_on_c, 2, 71, 127
1, 120720, Note_on_c, 2, 59, 95
1, 120720, Note_on_c, 3, 47, 64
1, 120750, Pitch_bend_c, 0, 8335
1, 120750, Pitch_bend_c, 1, 8335
1, 120750, Pitch_bend_c, 2, 8335
1, 120750, Pitch_bend_c, 3, 8335
1, 120800, Pitch_bend_c, 0, 8485
1, 120800, Pitch_bend_c, 1, 8485
1, 120800, Pitch_bend_c, 2, 8485
1, 120800, Pitch_bend_c, 3, 8485
1, 120815, Pitch_bend_c, 0, 8628
1, 120815, Pitch_bend_c, 1, 8628
1, 120815, Pitch_bend_c, 2, 8628
1, 120815, Pitch_bend_c, 3, 8628
1, 120830, Pitch_bend_c, 0, 8772
1, 120830, Pitch_bend_c, 1, 8772
1, 120830, Pitch_bend_c, 2, 8772
1, 120830, Pitch_bend_c, 3, 8772
1, 120845, Pitch_bend_c, 0, 9065
1, 120845, Pitch_bend_c, 1, 9065
1, 120845, Pitch_bend_c, 2, 9065
1, 120845, Pitch_bend_c, 3, 9065
1, 120860, Pitch_bend_c, 0, 9400
1, 120860, Pitch_bend_c, 1, 9400
1, 120860, Pitch_bend_c, 2, 9400
1, 120860, Pitch_bend_c, 3, 9400
1, 120880, Pitch_bend_c, 0, 9543
1, 120880, Pitch_bend_c, 1, 9543
1, 120880, Pitch_bend_c, 2, 9543
1, 120880, Pitch_bend_c, 3, 9543
1, 120895, Pitch_bend_c, 0, 9830
1, 120895, Pitch_bend_c, 1, 9830
1, 120895, Pitch_bend_c, 2, 9830
1, 120895, Pitch_bend_c, 3, 9830
1, 120910, Pitch_bend_c, 0, 10110
1, 120910, Pitch_bend_c, 1, 10110
1, 120910, Pitch_bend_c, 2, 10110
1, 120910, Pitch_bend_c, 3, 10110
1, 120925, Pitch_bend_c, 0, 10253
1, 120925, Pitch_bend_c, 1, 10253
1, 120925, Pitch_bend_c, 2, 10253
1, 120925, Pitch_bend_c, 3, 10253
1, 120940, Pitch_bend_c, 0, 10397
1, 120940, Pitch_bend_c, 1, 10397
1, 120940, Pitch_bend_c, 2, 10397
1, 120940, Pitch_bend_c, 3, 10397
1, 120960, Note_on_c, 3, 47, 0
1, 120960, Note_on_c, 1, 35, 0
1, 120960, Note_on_c, 2, 83, 0
1, 120960, Note_on_c, 0, 47, 0
1, 120960, Note_on_c, 2, 59, 0
1, 120960, Note_on_c, 2, 71, 0
1, 120960, Pitch_bend_c, 0, 12165
1, 120960, Note_on_c, 0, 35, 95
1, 120960, Pitch_bend_c, 1, 12165
1, 120960, Note_on_c, 1, 23, 95
1, 120960, Pitch_bend_c, 2, 12165
1, 120960, Note_on_c, 2, 71, 64
1, 120960, Note_on_c, 2, 59, 127
1, 120960, Note_on_c, 2, 47, 95
1, 120960, Pitch_bend_c, 3, 12165
1, 120960, Note_on_c, 3, 35, 64
1, 120960, Note_on_c, 9, 42, 100
1, 120960, Note_on_c, 9, 35, 103
1, 120975, Pitch_bend_c, 0, 8192
1, 120975, Pitch_bend_c, 1, 8192
1, 120975, Pitch_bend_c, 2, 8192
1, 120975, Pitch_bend_c, 3, 8192
1, 121080, Note_on_c, 9, 35, 0
1, 121200, Note_on_c, 9, 42, 0
1, 121320, Note_on_c, 2, 47, 0
1, 121320, Note_on_c, 1, 23, 0
1, 121320, Note_on_c, 2, 71, 0
1, 121320, Note_on_c, 2, 59, 0
1, 121320, Note_on_c, 3, 35, 0
1, 121320, Note_on_c, 0, 35, 0
1, 121320, Pitch_bend_c, 0, 0
1, 121320, Note_on_c, 0, 47, 95
1, 121320, Pitch_bend_c, 1, 0
1, 121320, Note_on_c, 1, 35, 95
1, 121320, Pitch_bend_c, 2, 0
1, 121320, Note_on_c, 2, 83, 64
1, 121320, Note_on_c, 2, 71, 127
1, 121320, Note_on_c, 2, 59, 95
1, 121320, Pitch_bend_c, 3, 0
1, 121320, Note_on_c, 3, 47, 64
1, 121335, Pitch_bend_c, 0, 8192
1, 121335, Pitch_bend_c, 1, 8192
1, 121335, Pitch_bend_c, 2, 8192
1, 121335, Pitch_bend_c, 3, 8192
1, 121440, Note_on_c, 3, 47, 0
1, 121440, Note_on_c, 1, 35, 0
1, 121440, Note_on_c, 2, 83, 0
1, 121440, Note_on_c, 0, 47, 0
1, 121440, Note_on_c, 2, 59, 0
1, 121440, Note_on_c, 2, 71, 0
1, 121440, Note_on_c, 9, 42, 64
1, 121440, Note_on_c, 9, 35, 103
1, 121560, Note_on_c, 9, 35, 0
1, 121680, Note_on_c, 9, 42, 0
1, 121680, Note_on_c, 0, 47, 95
1, 121680, Note_on_c, 1, 35, 95
1, 121680, Note_on_c, 2, 83, 64
1, 121680, Note_on_c, 2, 71, 127
1, 121680, Note_on_c, 2, 59, 95
1, 121680, Note_on_c, 3, 47, 64
1, 121920, Note_on_c, 3, 47, 0
1, 121920, Note_on_c, 1, 35, 0
1, 121920, Note_on_c, 2, 83, 0
1, 121920, Note_on_c, 0, 47, 0
1, 121920, Note_on_c, 2, 59, 0
1, 121920, Note_on_c, 2, 71, 0
1, 121920, Note_on_c, 0, 47, 95
1, 121920, Note_on_c, 1, 35, 95
1, 121920, Note_on_c, 2, 83, 64
1, 121920, Note_on_c, 2, 71, 127
1, 121920, Note_on_c, 2, 59, 95
1, 121920, Note_on_c, 3, 47, 64
1, 121920, Note_on_c, 9, 42, 80
1, 121920, Note_on_c, 9, 35, 104
1, 121950, Pitch_bend_c, 0, 8049
1, 121950, Pitch_bend_c, 1, 8049
1, 121950, Pitch_bend_c, 2, 8049
1, 121950, Pitch_bend_c, 3, 8049
1, 121980, Pitch_bend_c, 0, 7899
1, 121980, Pitch_bend_c, 1, 7899
1, 121980, Pitch_bend_c, 2, 7899
1, 121980, Pitch_bend_c, 3, 7899
1, 122015, Pitch_bend_c, 0, 7756
1, 122015, Pitch_bend_c, 1, 7756
1, 122015, Pitch_bend_c, 2, 7756
1, 122015, Pitch_bend_c, 3, 7756
1, 122040, Note_on_c, 9, 35, 0
1, 122045, Pitch_bend_c, 0, 7612
1, 122045, Pitch_bend_c, 1, 7612
1, 122045, Pitch_bend_c, 2, 7612
1, 122045, Pitch_bend_c, 3, 7612
1, 122080, Pitch_bend_c, 0, 7469
1, 122080, Pitch_bend_c, 1, 7469
1, 122080, Pitch_bend_c, 2, 7469
1, 122080, Pitch_bend_c, 3, 7469
1, 122100, Note_on_c, 0, 47, 0
1, 122100, Note_on_c, 3, 47, 0
1, 122100, Note_on_c, 1, 35, 0
1, 122100, Note_on_c, 2, 83, 0
1, 122100, Note_on_c, 2, 71, 0
1, 122100, Note_on_c, 2, 59, 0
1, 122160, Note_on_c, 9, 42, 0
1, 122160, Note_on_c, 0, 47, 95
1, 122160, Note_on_c, 1, 35, 95
1, 122160, Note_on_c, 2, 83, 64
1, 122160, Note_on_c, 2, 71, 127
1, 122160, Note_on_c, 2, 59, 95
1, 122160, Note_on_c, 3, 47, 64
1, 122175, Pitch_bend_c, 0, 7319
1, 122175, Pitch_bend_c, 1, 7319
1, 122175, Pitch_bend_c, 2, 7319
1, 122175, Pitch_bend_c, 3, 7319
1, 122220, Pitch_bend_c, 0, 7175
1, 122220, Pitch_bend_c, 1, 7175
1, 122220, Pitch_bend_c, 2, 7175
1, 122220, Pitch_bend_c, 3, 7175
1, 122240, Pitch_bend_c, 0, 6984
1, 122240, Pitch_bend_c, 1, 6984
1, 122240, Pitch_bend_c, 2, 6984
1, 122240, Pitch_bend_c, 3, 6984
1, 122270, Pitch_bend_c, 0, 6841
1, 122270, Pitch_bend_c, 1, 6841
1, 122270, Pitch_bend_c, 2, 6841
1, 122270, Pitch_bend_c, 3, 6841
1, 122300, Pitch_bend_c, 0, 6697
1, 122300, Pitch_bend_c, 1, 6697
1, 122300, Pitch_bend_c, 2, 6697
1, 122300, Pitch_bend_c, 3, 6697
1, 122380, Pitch_bend_c, 0, 6554
1, 122380, Pitch_bend_c, 1, 6554
1, 122380, Pitch_bend_c, 2, 6554
1, 122380, Pitch_bend_c, 3, 6554
1, 122400, Note_on_c, 3, 47, 0
1, 122400, Note_on_c, 1, 35, 0
1, 122400, Note_on_c, 2, 83, 0
1, 122400, Note_on_c, 0, 47, 0
1, 122400, Note_on_c, 2, 59, 0
1, 122400, Note_on_c, 2, 71, 0
1, 122400, Note_on_c, 0, 47, 95
1, 122400, Note_on_c, 1, 35, 95
1, 122400, Note_on_c, 2, 83, 64
1, 122400, Note_on_c, 2, 71, 127
1, 122400, Note_on_c, 2, 59, 95
1, 122400, Note_on_c, 3, 47, 64
1, 122400, Note_on_c, 9, 42, 65
1, 122400, Note_on_c, 9, 35, 104
1, 122430, Pitch_bend_c, 0, 6418
1, 122430, Pitch_bend_c, 1, 6418
1, 122430, Pitch_bend_c, 2, 6418
1, 122430, Pitch_bend_c, 3, 6418
1, 122445, Pitch_bend_c, 0, 6274
1, 122445, Pitch_bend_c, 1, 6274
1, 122445, Pitch_bend_c, 2, 6274
1, 122445, Pitch_bend_c, 3, 6274
1, 122460, Pitch_bend_c, 0, 6131
1, 122460, Pitch_bend_c, 1, 6131
1, 122460, Pitch_bend_c, 2, 6131
1, 122460, Pitch_bend_c, 3, 6131
1, 122480, Pitch_bend_c, 0, 5987
1, 122480, Pitch_bend_c, 1, 5987
1, 122480, Pitch_bend_c, 2, 5987
1, 122480, Pitch_bend_c, 3, 5987
1, 122495, Pitch_bend_c, 0, 5803
1, 122495, Pitch_bend_c, 1, 5803
1, 122495, Pitch_bend_c, 2, 5803
1, 122495, Pitch_bend_c, 3, 5803
1, 122510, Pitch_bend_c, 0, 5660
1, 122510, Pitch_bend_c, 1, 5660
1, 122510, Pitch_bend_c, 2, 5660
1, 122510, Pitch_bend_c, 3, 5660
1, 122520, Note_on_c, 9, 35, 0
1, 122525, Pitch_bend_c, 0, 5516
1, 122525, Pitch_bend_c, 1, 5516
1, 122525, Pitch_bend_c, 2, 5516
1, 122525, Pitch_bend_c, 3, 5516
1, 122540, Pitch_bend_c, 0, 5380
1, 122540, Pitch_bend_c, 1, 5380
1, 122540, Pitch_bend_c, 2, 5380
1, 122540, Pitch_bend_c, 3, 5380
1, 122560, Pitch_bend_c, 0, 5237
1, 122560, Pitch_bend_c, 1, 5237
1, 122560, Pitch_bend_c, 2, 5237
1, 122560, Pitch_bend_c, 3, 5237
1, 122590, Pitch_bend_c, 0, 5100
1, 122590, Pitch_bend_c, 1, 5100
1, 122590, Pitch_bend_c, 2, 5100
1, 122590, Pitch_bend_c, 3, 5100
1, 122640, Note_on_c, 0, 47, 0
1, 122640, Note_on_c, 2, 59, 0
1, 122640, Note_on_c, 1, 35, 0
1, 122640, Note_on_c, 2, 83, 0
1, 122640, Note_on_c, 2, 71, 0
1, 122640, Note_on_c, 3, 47, 0
1, 122640, Note_on_c, 9, 42, 0
1, 122640, Note_on_c, 0, 47, 95
1, 122640, Note_on_c, 1, 35, 95
1, 122640, Note_on_c, 2, 83, 64
1, 122640, Note_on_c, 2, 71, 127
1, 122640, Note_on_c, 2, 59, 95
1, 122640, Note_on_c, 3, 47, 64
1, 122655, Pitch_bend_c, 0, 4963
1, 122655, Pitch_bend_c, 1, 4963
1, 122655, Pitch_bend_c, 2, 4963
1, 122655, Pitch_bend_c, 3, 4963
1, 122670, Pitch_bend_c, 0, 4636
1, 122670, Pitch_bend_c, 1, 4636
1, 122670, Pitch_bend_c, 2, 4636
1, 122670, Pitch_bend_c, 3, 4636
1, 122685, Pitch_bend_c, 0, 4499
1, 122685, Pitch_bend_c, 1, 4499
1, 122685, Pitch_bend_c, 2, 4499
1, 122685, Pitch_bend_c, 3, 4499
1, 122700, Pitch_bend_c, 0, 4083
1, 122700, Pitch_bend_c, 1, 4083
1, 122700, Pitch_bend_c, 2, 4083
1, 122700, Pitch_bend_c, 3, 4083
1, 122720, Pitch_bend_c, 0, 3810
1, 122720, Pitch_bend_c, 1, 3810
1, 122720, Pitch_bend_c, 2, 3810
1, 122720, Pitch_bend_c, 3, 3810
1, 122735, Pitch_bend_c, 0, 3359
1, 122735, Pitch_bend_c, 1, 3359
1, 122735, Pitch_bend_c, 2, 3359
1, 122735, Pitch_bend_c, 3, 3359
1, 122750, Pitch_bend_c, 0, 3086
1, 122750, Pitch_bend_c, 1, 3086
1, 122750, Pitch_bend_c, 2, 3086
1, 122750, Pitch_bend_c, 3, 3086
1, 122765, Pitch_bend_c, 0, 2820
1, 122765, Pitch_bend_c, 1, 2820
1, 122765, Pitch_bend_c, 2, 2820
1, 122765, Pitch_bend_c, 3, 2820
1, 122780, Pitch_bend_c, 0, 2683
1, 122780, Pitch_bend_c, 1, 2683
1, 122780, Pitch_bend_c, 2, 2683
1, 122780, Pitch_bend_c, 3, 2683
1, 122800, Pitch_bend_c, 0, 2369
1, 122800, Pitch_bend_c, 1, 2369
1, 122800, Pitch_bend_c, 2, 2369
1, 122800, Pitch_bend_c, 3, 2369
1, 122815, Pitch_bend_c, 0, 2240
1, 122815, Pitch_bend_c, 1, 2240
1, 122815, Pitch_bend_c, 2, 2240
1, 122815, Pitch_bend_c, 3, 2240
1, 122845, Pitch_bend_c, 0, 2103
1, 122845, Pitch_bend_c, 1, 2103
1, 122845, Pitch_bend_c, 2, 2103
1, 122845, Pitch_bend_c, 3, 2103
1, 122880, Note_on_c, 3, 47, 0
1, 122880, Note_on_c, 1, 35, 0
1, 122880, Note_on_c, 2, 83, 0
1, 122880, Note_on_c, 0, 47, 0
1, 122880, Note_on_c, 2, 59, 0
1, 122880, Note_on_c, 2, 71, 0
1, 122880, Pitch_bend_c, 0, 8192
1, 122880, Note_on_c, 0, 35, 95
1, 122880, Pitch_bend_c, 1, 8192
1, 122880, Note_on_c, 1, 23, 95
1, 122880, Pitch_bend_c, 2, 8192
1, 122880, Note_on_c, 2, 71, 64
1, 122880, Note_on_c, 2, 59, 127
1, 122880, Note_on_c, 2, 47, 95
1, 122880, Pitch_bend_c, 3, 8192
1, 122880, Note_on_c, 3, 35, 64
1, 122880, Note_on_c, 9, 42, 100
1, 122880, Note_on_c, 9, 35, 103
1, 122890, Pitch_bend_c, 4, 8192
1, 122890, Pitch_bend_c, 6, 8192
1, 123000, Note_on_c, 9, 35, 0
1, 123120, Note_on_c, 9, 42, 0
1, 123240, Note_on_c, 2, 47, 0
1, 123240, Note_on_c, 1, 23, 0
1, 123240, Note_on_c, 2, 71, 0
1, 123240, Note_on_c, 2, 59, 0
1, 123240, Note_on_c, 3, 35, 0
1, 123240, Note_on_c, 0, 35, 0
1, 123240, Pitch_bend_c, 0, 0
1, 123240, Note_on_c, 0, 47, 95
1, 123240, Pitch_bend_c, 1, 0
1, 123240, Note_on_c, 1, 35, 95
1, 123240, Pitch_bend_c, 2, 0
1, 123240, Note_on_c, 2, 83, 64
1, 123240, Note_on_c, 2, 71, 127
1, 123240, Note_on_c, 2, 59, 95
1, 123240, Pitch_bend_c, 3, 0
1, 123240, Note_on_c, 3, 47, 64
1, 123255, Pitch_bend_c, 0, 8192
1, 123255, Pitch_bend_c, 1, 8192
1, 123255, Pitch_bend_c, 2, 8192
1, 123255, Pitch_bend_c, 3, 8192
1, 123360, Note_on_c, 3, 47, 0
1, 123360, Note_on_c, 1, 35, 0
1, 123360, Note_on_c, 2, 83, 0
1, 123360, Note_on_c, 0, 47, 0
1, 123360, Note_on_c, 2, 59, 0
1, 123360, Note_on_c, 2, 71, 0
1, 123360, Note_on_c, 9, 42, 63
1, 123360, Note_on_c, 9, 35, 102
1, 123480, Note_on_c, 9, 35, 0
1, 123600, Note_on_c, 9, 42, 0
1, 123600, Note_on_c, 0, 47, 95
1, 123600, Note_on_c, 1, 35, 95
1, 123600, Note_on_c, 2, 83, 64
1, 123600, Note_on_c, 2, 71, 127
1, 123600, Note_on_c, 2, 59, 95
1, 123600, Note_on_c, 3, 47, 64
1, 123840, Note_on_c, 3, 47, 0
1, 123840, Note_on_c, 1, 35, 0
1, 123840, Note_on_c, 2, 83, 0
1, 123840, Note_on_c, 0, 47, 0
1, 123840, Note_on_c, 2, 59, 0
1, 123840, Note_on_c, 2, 71, 0
1, 123840, Note_on_c, 9, 42, 79
1, 123840, Note_on_c, 9, 35, 102
1, 123960, Note_on_c, 9, 35, 0
1, 123960, Note_on_c, 0, 43, 95
1, 123960, Note_on_c, 1, 31, 95
1, 123960, Note_on_c, 2, 79, 64
1, 123960, Note_on_c, 2, 67, 127
1, 123960, Note_on_c, 2, 55, 95
1, 123960, Note_on_c, 3, 43, 64
1, 124080, Note_on_c, 3, 43, 0
1, 124080, Note_on_c, 2, 67, 0
1, 124080, Note_on_c, 0, 43, 0
1, 124080, Note_on_c, 1, 31, 0
1, 124080, Note_on_c, 9, 42, 0
1, 124080, Note_on_c, 2, 55, 0
1, 124080, Note_on_c, 2, 79, 0
1, 124080, Pitch_bend_c, 0, 5100
1, 124080, Note_on_c, 0, 47, 95
1, 124080, Pitch_bend_c, 1, 5100
1, 124080, Note_on_c, 1, 35, 95
1, 124080, Pitch_bend_c, 2, 5100
1, 124080, Note_on_c, 2, 83, 64
1, 124080, Note_on_c, 2, 71, 127
1, 124080, Note_on_c, 2, 59, 95
1, 124080, Pitch_bend_c, 3, 5100
1, 124080, Note_on_c, 3, 47, 64
1, 124095, Pitch_bend_c, 0, 6697
1, 124095, Pitch_bend_c, 1, 6697
1, 124095, Pitch_bend_c, 2, 6697
1, 124095, Pitch_bend_c, 3, 6697
1, 124160, Pitch_bend_c, 0, 6841
1, 124160, Pitch_bend_c, 1, 6841
1, 124160, Pitch_bend_c, 2, 6841
1, 124160, Pitch_bend_c, 3, 6841
1, 124190, Pitch_bend_c, 0, 6984
1, 124190, Pitch_bend_c, 1, 6984
1, 124190, Pitch_bend_c, 2, 6984
1, 124190, Pitch_bend_c, 3, 6984
1, 124205, Pitch_bend_c, 0, 7175
1, 124205, Pitch_bend_c, 1, 7175
1, 124205, Pitch_bend_c, 2, 7175
1, 124205, Pitch_bend_c, 3, 7175
1, 124220, Pitch_bend_c, 0, 7319
1, 124220, Pitch_bend_c, 1, 7319
1, 124220, Pitch_bend_c, 2, 7319
1, 124220, Pitch_bend_c, 3, 7319
1, 124240, Pitch_bend_c, 0, 7612
1, 124240, Pitch_bend_c, 1, 7612
1, 124240, Pitch_bend_c, 2, 7612
1, 124240, Pitch_bend_c, 3, 7612
1, 124255, Pitch_bend_c, 0, 7756
1, 124255, Pitch_bend_c, 1, 7756
1, 124255, Pitch_bend_c, 2, 7756
1, 124255, Pitch_bend_c, 3, 7756
1, 124270, Pitch_bend_c, 0, 7899
1, 124270, Pitch_bend_c, 1, 7899
1, 124270, Pitch_bend_c, 2, 7899
1, 124270, Pitch_bend_c, 3, 7899
1, 124285, Pitch_bend_c, 0, 8049
1, 124285, Pitch_bend_c, 1, 8049
1, 124285, Pitch_bend_c, 2, 8049
1, 124285, Pitch_bend_c, 3, 8049
1, 124300, Pitch_bend_c, 0, 8192
1, 124300, Pitch_bend_c, 1, 8192
1, 124300, Pitch_bend_c, 2, 8192
1, 124300, Pitch_bend_c, 3, 8192
1, 124320, Note_on_c, 3, 47, 0
1, 124320, Note_on_c, 1, 35, 0
1, 124320, Note_on_c, 2, 83, 0
1, 124320, Note_on_c, 0, 47, 0
1, 124320, Note_on_c, 2, 59, 0
1, 124320, Note_on_c, 2, 71, 0
1, 124320, Note_on_c, 0, 47, 95
1, 124320, Note_on_c, 1, 35, 95
1, 124320, Note_on_c, 2, 83, 64
1, 124320, Note_on_c, 2, 71, 127
1, 124320, Note_on_c, 2, 59, 95
1, 124320, Note_on_c, 3, 47, 64
1, 124320, Note_on_c, 9, 42, 63
1, 124320, Note_on_c, 9, 35, 103
1, 124440, Note_on_c, 9, 35, 0
1, 124560, Note_on_c, 0, 47, 0
1, 124560, Note_on_c, 2, 59, 0
1, 124560, Note_on_c, 1, 35, 0
1, 124560, Note_on_c, 2, 83, 0
1, 124560, Note_on_c, 2, 71, 0
1, 124560, Note_on_c, 3, 47, 0
1, 124560, Note_on_c, 9, 42, 0
1, 124560, Note_on_c, 0, 47, 95
1, 124560, Note_on_c, 1, 35, 95
1, 124560, Note_on_c, 2, 83, 64
1, 124560, Note_on_c, 2, 71, 127
1, 124560, Note_on_c, 2, 59, 95
1, 124560, Note_on_c, 3, 47, 64
1, 124590, Pitch_bend_c, 0, 8335
1, 124590, Pitch_bend_c, 1, 8335
1, 124590, Pitch_bend_c, 2, 8335
1, 124590, Pitch_bend_c, 3, 8335
1, 124640, Pitch_bend_c, 0, 8485
1, 124640, Pitch_bend_c, 1, 8485
1, 124640, Pitch_bend_c, 2, 8485
1, 124640, Pitch_bend_c, 3, 8485
1, 124655, Pitch_bend_c, 0, 8628
1, 124655, Pitch_bend_c, 1, 8628
1, 124655, Pitch_bend_c, 2, 8628
1, 124655, Pitch_bend_c, 3, 8628
1, 124670, Pitch_bend_c, 0, 8772
1, 124670, Pitch_bend_c, 1, 8772
1, 124670, Pitch_bend_c, 2, 8772
1, 124670, Pitch_bend_c, 3, 8772
1, 124685, Pitch_bend_c, 0, 9065
1, 124685, Pitch_bend_c, 1, 9065
1, 124685, Pitch_bend_c, 2, 9065
1, 124685, Pitch_bend_c, 3, 9065
1, 124700, Pitch_bend_c, 0, 9400
1, 124700, Pitch_bend_c, 1, 9400
1, 124700, Pitch_bend_c, 2, 9400
1, 124700, Pitch_bend_c, 3, 9400
1, 124720, Pitch_bend_c, 0, 9543
1, 124720, Pitch_bend_c, 1, 9543
1, 124720, Pitch_bend_c, 2, 9543
1, 124720, Pitch_bend_c, 3, 9543
1, 124735, Pitch_bend_c, 0, 9830
1, 124735, Pitch_bend_c, 1, 9830
1, 124735, Pitch_bend_c, 2, 9830
1, 124735, Pitch_bend_c, 3, 9830
1, 124750, Pitch_bend_c, 0, 10110
1, 124750, Pitch_bend_c, 1, 10110
1, 124750, Pitch_bend_c, 2, 10110
1, 124750, Pitch_bend_c, 3, 10110
1, 124765, Pitch_bend_c, 0, 10253
1, 124765, Pitch_bend_c, 1, 10253
1, 124765, Pitch_bend_c, 2, 10253
1, 124765, Pitch_bend_c, 3, 10253
1, 124780, Pitch_bend_c, 0, 10397
1, 124780, Pitch_bend_c, 1, 10397
1, 124780, Pitch_bend_c, 2, 10397
1, 124780, Pitch_bend_c, 3, 10397
1, 124800, Note_on_c, 3, 47, 0
1, 124800, Note_on_c, 1, 35, 0
1, 124800, Note_on_c, 2, 83, 0
1, 124800, Note_on_c, 0, 47, 0
1, 124800, Note_on_c, 2, 59, 0
1, 124800, Note_on_c, 2, 71, 0
1, 124800, Note_on_c, 4, 67, 101
1, 124800, Note_on_c, 4, 79, 101
1, 124800, Note_on_c, 4, 71, 101
1, 124800, Note_on_c, 4, 83, 101
1, 124800, Note_on_c, 6, 71, 101
1, 124800, Note_on_c, 6, 55, 101
1, 124800, Note_on_c, 6, 67, 101
1, 124800, Note_on_c, 6, 59, 101
1, 124800, Note_on_c, 9, 42, 100
1, 124800, Note_on_c, 9, 35, 103
1, 124920, Note_on_c, 9, 35, 0
1, 125040, Note_on_c, 4, 71, 0
1, 125040, Note_on_c, 4, 83, 0
1, 125040, Note_on_c, 4, 67, 0
1, 125040, Note_on_c, 6, 71, 0
1, 125040, Note_on_c, 4, 79, 0
1, 125040, Note_on_c, 6, 59, 0
1, 125040, Note_on_c, 6, 67, 0
1, 125040, Note_on_c, 6, 55, 0
1, 125040, Note_on_c, 9, 42, 0
1, 125160, Note_on_c, 4, 67, 101
1, 125160, Note_on_c, 4, 79, 101
1, 125160, Note_on_c, 4, 71, 101
1, 125160, Note_on_c, 4, 83, 101
1, 125160, Note_on_c, 6, 71, 101
1, 125160, Note_on_c, 6, 59, 101
1, 125160, Note_on_c, 6, 67, 101
1, 125160, Note_on_c, 6, 55, 101
1, 125280, Note_on_c, 9, 42, 64
1, 125280, Note_on_c, 9, 35, 103
1, 125400, Note_on_c, 9, 35, 0
1, 125400, Note_on_c, 4, 71, 0
1, 125400, Note_on_c, 6, 55, 0
1, 125400, Note_on_c, 4, 83, 0
1, 125400, Note_on_c, 6, 71, 0
1, 125400, Note_on_c, 4, 79, 0
1, 125400, Note_on_c, 6, 67, 0
1, 125400, Note_on_c, 4, 67, 0
1, 125400, Note_on_c, 6, 59, 0
1, 125520, Note_on_c, 9, 42, 0
1, 125520, Note_on_c, 4, 83, 101
1, 125520, Note_on_c, 4, 71, 101
1, 125520, Note_on_c, 4, 79, 101
1, 125520, Note_on_c, 4, 67, 101
1, 125520, Note_on_c, 6, 71, 101
1, 125520, Note_on_c, 6, 59, 101
1, 125520, Note_on_c, 6, 67, 101
1, 125520, Note_on_c, 6, 55, 101
1, 125760, Note_on_c, 6, 55, 0
1, 125760, Note_on_c, 4, 83, 0
1, 125760, Note_on_c, 6, 71, 0
1, 125760, Note_on_c, 4, 71, 0
1, 125760, Note_on_c, 4, 79, 0
1, 125760, Note_on_c, 4, 67, 0
1, 125760, Note_on_c, 6, 59, 0
1, 125760, Note_on_c, 6, 67, 0
1, 125760, Note_on_c, 4, 69, 101
1, 125760, Note_on_c, 4, 81, 101
1, 125760, Note_on_c, 4, 73, 101
1, 125760, Note_on_c, 4, 85, 101
1, 125760, Note_on_c, 6, 73, 101
1, 125760, Note_on_c, 6, 61, 101
1, 125760, Note_on_c, 6, 69, 101
1, 125760, Note_on_c, 6, 57, 101
1, 125760, Note_on_c, 8, 52, 127
1, 125760, Note_on_c, 9, 41, 127
1, 125760, Note_on_c, 12, 60, 103
1, 125880, Note_on_c, 9, 41, 0
1, 126000, Note_on_c, 6, 57, 0
1, 126000, Note_on_c, 4, 73, 0
1, 126000, Note_on_c, 4, 85, 0
1, 126000, Note_on_c, 4, 69, 0
1, 126000, Note_on_c, 6, 73, 0
1, 126000, Note_on_c, 4, 81, 0
1, 126000, Note_on_c, 6, 69, 0
1, 126000, Note_on_c, 6, 61, 0
1, 126120, Note_on_c, 4, 85, 101
1, 126120, Note_on_c, 4, 73, 101
1, 126120, Note_on_c, 4, 81, 101
1, 126120, Note_on_c, 4, 69, 101
1, 126120, Note_on_c, 6, 73, 101
1, 126120, Note_on_c, 6, 61, 101
1, 126120, Note_on_c, 6, 69, 101
1, 126120, Note_on_c, 6, 57, 101
1, 126120, Note_on_c, 9, 44, 80
1, 126120, Note_on_c, 9, 38, 80
1, 126240, Note_on_c, 9, 38, 0
1, 126240, Note_on_c, 9, 44, 0
1, 126240, Note_on_c, 9, 38, 80
1, 126360, Note_on_c, 9, 38, 0
1, 126360, Note_on_c, 6, 69, 0
1, 126360, Note_on_c, 4, 85, 0
1, 126360, Note_on_c, 4, 73, 0
1, 126360, Note_on_c, 6, 61, 0
1, 126360, Note_on_c, 4, 81, 0
1, 126360, Note_on_c, 6, 73, 0
1, 126360, Note_on_c, 6, 57, 0
1, 126360, Note_on_c, 4, 69, 0
1, 126480, Note_on_c, 8, 52, 0
1, 126480, Note_on_c, 4, 69, 101
1, 126480, Note_on_c, 4, 81, 101
1, 126480, Note_on_c, 4, 73, 101
1, 126480, Note_on_c, 4, 85, 101
1, 126480, Note_on_c, 6, 73, 101
1, 126480, Note_on_c, 6, 61, 101
1, 126480, Note_on_c, 6, 69, 101
1, 126480, Note_on_c, 6, 57, 101
1, 126480, Note_on_c, 8, 56, 127
1, 126480, Note_on_c, 9, 43, 127
1, 126600, Note_on_c, 9, 43, 0
1, 126720, Note_on_c, 6, 69, 0
1, 126720, Note_on_c, 4, 81, 0
1, 126720, Note_on_c, 4, 73, 0
1, 126720, Note_on_c, 8, 56, 0
1, 126720, Note_on_c, 4, 85, 0
1, 126720, Note_on_c, 4, 69, 0
1, 126720, Note_on_c, 6, 57, 0
1, 126720, Note_on_c, 6, 61, 0
1, 126720, Note_on_c, 6, 73, 0
1, 126720, Pitch_bend_c, 0, 8192
1, 126720, Note_on_c, 0, 35, 95
1, 126720, Pitch_bend_c, 1, 8192
1, 126720, Note_on_c, 1, 23, 95
1, 126720, Pitch_bend_c, 2, 8192
1, 126720, Note_on_c, 2, 71, 64
1, 126720, Note_on_c, 2, 59, 127
1, 126720, Note_on_c, 2, 47, 95
1, 126720, Pitch_bend_c, 3, 8192
1, 126720, Note_on_c, 3, 35, 64
1, 126720, Pitch_bend_c, 7, 8192
1, 126720, Note_on_c, 7, 83, 100
1, 126720, Note_on_c, 7, 71, 100
1, 126720, Note_on_c, 9, 42, 103
1, 126720, Note_on_c, 9, 35, 103
1, 126720, Note_on_c, 9, 55, 127
1, 126720, Note_on_c, 9, 57, 127
1, 126720, Note_on_c, 9, 49, 127
1, 126735, Pitch_bend_c, 7, 7960
1, 126750, Pitch_bend_c, 7, 7646
1, 126765, Pitch_bend_c, 7, 7469
1, 126780, Pitch_bend_c, 7, 7394
1, 126840, Note_on_c, 9, 35, 0
1, 126840, Note_on_c, 9, 42, 0
1, 126840, Note_on_c, 12, 60, 0
1, 126960, Note_on_c, 9, 42, 73
1, 127080, Note_on_c, 9, 42, 0
1, 127080, Note_on_c, 1, 23, 0
1, 127080, Note_on_c, 2, 71, 0
1, 127080, Note_on_c, 2, 59, 0
1, 127080, Note_on_c, 0, 35, 0
1, 127080, Note_on_c, 3, 35, 0
1, 127080, Note_on_c, 2, 47, 0
1, 127080, Pitch_bend_c, 0, 0
1, 127080, Note_on_c, 0, 47, 95
1, 127080, Pitch_bend_c, 1, 0
1, 127080, Note_on_c, 1, 35, 95
1, 127080, Pitch_bend_c, 2, 0
1, 127080, Note_on_c, 2, 83, 64
1, 127080, Note_on_c, 2, 71, 127
1, 127080, Note_on_c, 2, 59, 95
1, 127080, Pitch_bend_c, 3, 0
1, 127080, Note_on_c, 3, 47, 64
1, 127095, Pitch_bend_c, 0, 8192
1, 127095, Pitch_bend_c, 1, 8192
1, 127095, Pitch_bend_c, 2, 8192
1, 127095, Pitch_bend_c, 3, 8192
1, 127120, Pitch_bend_c, 7, 7435
1, 127135, Pitch_bend_c, 7, 7510
1, 127150, Pitch_bend_c, 7, 7646
1, 127165, Pitch_bend_c, 7, 7858
1, 127180, Pitch_bend_c, 7, 8083
1, 127200, Note_on_c, 3, 47, 0
1, 127200, Note_on_c, 2, 83, 0
1, 127200, Note_on_c, 2, 59, 0
1, 127200, Note_on_c, 1, 35, 0
1, 127200, Note_on_c, 2, 71, 0
1, 127200, Note_on_c, 0, 47, 0
1, 127200, Pitch_bend_c, 7, 8192
1, 127200, Note_on_c, 9, 42, 73
1, 127200, Note_on_c, 9, 35, 102
1, 127200, Note_on_c, 9, 40, 89
1, 127200, Note_on_c, 9, 28, 103
1, 127320, Note_on_c, 9, 28, 0
1, 127320, Note_on_c, 9, 40, 0
1, 127320, Note_on_c, 9, 35, 0
1, 127320, Note_on_c, 9, 42, 0
1, 127440, Note_on_c, 0, 47, 95
1, 127440, Note_on_c, 1, 35, 95
1, 127440, Note_on_c, 2, 83, 64
1, 127440, Note_on_c, 2, 71, 127
1, 127440, Note_on_c, 2, 59, 95
1, 127440, Note_on_c, 3, 47, 64
1, 127440, Note_on_c, 9, 42, 73
1, 127560, Note_on_c, 9, 42, 0
1, 127680, Note_on_c, 2, 59, 0
1, 127680, Note_on_c, 2, 83, 0
1, 127680, Note_on_c, 1, 35, 0
1, 127680, Note_on_c, 2, 71, 0
1, 127680, Note_on_c, 3, 47, 0
1, 127680, Note_on_c, 0, 47, 0
1, 127680, Note_on_c, 9, 42, 88
1, 127680, Note_on_c, 9, 35, 102
1, 127800, Note_on_c, 9, 35, 0
1, 127800, Note_on_c, 9, 42, 0
1, 127800, Note_on_c, 0, 43, 95
1, 127800, Note_on_c, 1, 31, 95
1, 127800, Note_on_c, 2, 79, 64
1, 127800, Note_on_c, 2, 67, 127
1, 127800, Note_on_c, 2, 55, 95
1, 127800, Note_on_c, 3, 43, 64
1, 127920, Note_on_c, 3, 43, 0
1, 127920, Note_on_c, 2, 79, 0
1, 127920, Note_on_c, 2, 55, 0
1, 127920, Note_on_c, 1, 31, 0
1, 127920, Note_on_c, 2, 67, 0
1, 127920, Note_on_c, 0, 43, 0
1, 127920, Pitch_bend_c, 0, 5100
1, 127920, Note_on_c, 0, 47, 95
1, 127920, Pitch_bend_c, 1, 5100
1, 127920, Note_on_c, 1, 35, 95
1, 127920, Pitch_bend_c, 2, 5100
1, 127920, Note_on_c, 2, 83, 64
1, 127920, Note_on_c, 2, 71, 127
1, 127920, Note_on_c, 2, 59, 95
1, 127920, Pitch_bend_c, 3, 5100
1, 127920, Note_on_c, 3, 47, 64
1, 127920, Note_on_c, 9, 42, 73
1, 127935, Pitch_bend_c, 0, 6697
1, 127935, Pitch_bend_c, 1, 6697
1, 127935, Pitch_bend_c, 2, 6697
1, 127935, Pitch_bend_c, 3, 6697
1, 127980, Pitch_bend_c, 7, 8179
1, 128000, Pitch_bend_c, 0, 6841
1, 128000, Pitch_bend_c, 1, 6841
1, 128000, Pitch_bend_c, 2, 6841
1, 128000, Pitch_bend_c, 3, 6841
1, 128030, Pitch_bend_c, 0, 6984
1, 128030, Pitch_bend_c, 1, 6984
1, 128030, Pitch_bend_c, 2, 6984
1, 128030, Pitch_bend_c, 3, 6984
1, 128030, Pitch_bend_c, 7, 8172
1, 128040, Note_on_c, 9, 42, 0
1, 128045, Pitch_bend_c, 0, 7175
1, 128045, Pitch_bend_c, 1, 7175
1, 128045, Pitch_bend_c, 2, 7175
1, 128045, Pitch_bend_c, 3, 7175
1, 128045, Pitch_bend_c, 7, 8158
1, 128060, Pitch_bend_c, 0, 7319
1, 128060, Pitch_bend_c, 1, 7319
1, 128060, Pitch_bend_c, 2, 7319
1, 128060, Pitch_bend_c, 3, 7319
1, 128080, Pitch_bend_c, 0, 7612
1, 128080, Pitch_bend_c, 1, 7612
1, 128080, Pitch_bend_c, 2, 7612
1, 128080, Pitch_bend_c, 3, 7612
1, 128080, Pitch_bend_c, 7, 8145
1, 128095, Pitch_bend_c, 0, 7756
1, 128095, Pitch_bend_c, 1, 7756
1, 128095, Pitch_bend_c, 2, 7756
1, 128095, Pitch_bend_c, 3, 7756
1, 128095, Pitch_bend_c, 7, 8131
1, 128110, Pitch_bend_c, 0, 7899
1, 128110, Pitch_bend_c, 1, 7899
1, 128110, Pitch_bend_c, 2, 7899
1, 128110, Pitch_bend_c, 3, 7899
1, 128110, Pitch_bend_c, 7, 8124
1, 128125, Pitch_bend_c, 0, 8049
1, 128125, Pitch_bend_c, 1, 8049
1, 128125, Pitch_bend_c, 2, 8049
1, 128125, Pitch_bend_c, 3, 8049
1, 128140, Pitch_bend_c, 0, 8192
1, 128140, Pitch_bend_c, 1, 8192
1, 128140, Pitch_bend_c, 2, 8192
1, 128140, Pitch_bend_c, 3, 8192
1, 128140, Pitch_bend_c, 7, 8097
1, 128160, Note_on_c, 2, 59, 0
1, 128160, Note_on_c, 2, 83, 0
1, 128160, Note_on_c, 1, 35, 0
1, 128160, Note_on_c, 2, 71, 0
1, 128160, Note_on_c, 3, 47, 0
1, 128160, Note_on_c, 0, 47, 0
1, 128160, Note_on_c, 0, 47, 95
1, 128160, Note_on_c, 1, 35, 95
1, 128160, Note_on_c, 2, 83, 64
1, 128160, Note_on_c, 2, 71, 127
1, 128160, Note_on_c, 2, 59, 95
1, 128160, Note_on_c, 3, 47, 64
1, 128160, Pitch_bend_c, 7, 8083
1, 128160, Note_on_c, 9, 42, 73
1, 128160, Note_on_c, 9, 28, 103
1, 128160, Note_on_c, 9, 35, 103
1, 128160, Note_on_c, 9, 40, 90
1, 128190, Pitch_bend_c, 7, 8070
1, 128205, Pitch_bend_c, 7, 8056
1, 128240, Pitch_bend_c, 7, 8049
1, 128255, Pitch_bend_c, 7, 8035
1, 128280, Note_on_c, 9, 40, 0
1, 128280, Note_on_c, 9, 42, 0
1, 128280, Note_on_c, 9, 35, 0
1, 128280, Note_on_c, 9, 28, 0
1, 128285, Pitch_bend_c, 7, 8008
1, 128335, Pitch_bend_c, 7, 7995
1, 128350, Pitch_bend_c, 7, 7981
1, 128380, Pitch_bend_c, 7, 7974
1, 128400, Note_on_c, 2, 59, 0
1, 128400, Note_on_c, 2, 83, 0
1, 128400, Note_on_c, 1, 35, 0
1, 128400, Note_on_c, 2, 71, 0
1, 128400, Note_on_c, 0, 47, 0
1, 128400, Note_on_c, 3, 47, 0
1, 128400, Note_on_c, 0, 47, 95
1, 128400, Note_on_c, 1, 35, 95
1, 128400, Note_on_c, 2, 83, 64
1, 128400, Note_on_c, 2, 71, 127
1, 128400, Note_on_c, 2, 59, 95
1, 128400, Note_on_c, 3, 47, 64
1, 128400, Note_on_c, 9, 42, 73
1, 128430, Pitch_bend_c, 0, 8335
1, 128430, Pitch_bend_c, 1, 8335
1, 128430, Pitch_bend_c, 2, 8335
1, 128430, Pitch_bend_c, 3, 8335
1, 128430, Pitch_bend_c, 7, 7960
1, 128480, Pitch_bend_c, 0, 8485
1, 128480, Pitch_bend_c, 1, 8485
1, 128480, Pitch_bend_c, 2, 8485
1, 128480, Pitch_bend_c, 3, 8485
1, 128480, Pitch_bend_c, 7, 7947
1, 128495, Pitch_bend_c, 0, 8628
1, 128495, Pitch_bend_c, 1, 8628
1, 128495, Pitch_bend_c, 2, 8628
1, 128495, Pitch_bend_c, 3, 8628
1, 128510, Pitch_bend_c, 0, 8772
1, 128510, Pitch_bend_c, 1, 8772
1, 128510, Pitch_bend_c, 2, 8772
1, 128510, Pitch_bend_c, 3, 8772
1, 128520, Note_on_c, 9, 42, 0
1, 128525, Pitch_bend_c, 0, 9065
1, 128525, Pitch_bend_c, 1, 9065
1, 128525, Pitch_bend_c, 2, 9065
1, 128525, Pitch_bend_c, 3, 9065
1, 128540, Pitch_bend_c, 0, 9400
1, 128540, Pitch_bend_c, 1, 9400
1, 128540, Pitch_bend_c, 2, 9400
1, 128540, Pitch_bend_c, 3, 9400
1, 128560, Pitch_bend_c, 0, 9543
1, 128560, Pitch_bend_c, 1, 9543
1, 128560, Pitch_bend_c, 2, 9543
1, 128560, Pitch_bend_c, 3, 9543
1, 128560, Pitch_bend_c, 7, 7933
1, 128575, Pitch_bend_c, 0, 9830
1, 128575, Pitch_bend_c, 1, 9830
1, 128575, Pitch_bend_c, 2, 9830
1, 128575, Pitch_bend_c, 3, 9830
1, 128590, Pitch_bend_c, 0, 10110
1, 128590, Pitch_bend_c, 1, 10110
1, 128590, Pitch_bend_c, 2, 10110
1, 128590, Pitch_bend_c, 3, 10110
1, 128605, Pitch_bend_c, 0, 10253
1, 128605, Pitch_bend_c, 1, 10253
1, 128605, Pitch_bend_c, 2, 10253
1, 128605, Pitch_bend_c, 3, 10253
1, 128620, Pitch_bend_c, 0, 10397
1, 128620, Pitch_bend_c, 1, 10397
1, 128620, Pitch_bend_c, 2, 10397
1, 128620, Pitch_bend_c, 3, 10397
1, 128640, Note_on_c, 9, 49, 0
1, 128640, Note_on_c, 2, 83, 0
1, 128640, Note_on_c, 9, 55, 0
1, 128640, Note_on_c, 7, 83, 0
1, 128640, Note_on_c, 9, 57, 0
1, 128640, Note_on_c, 7, 71, 0
1, 128640, Note_on_c, 0, 47, 0
1, 128640, Note_on_c, 2, 71, 0
1, 128640, Note_on_c, 1, 35, 0
1, 128640, Note_on_c, 3, 47, 0
1, 128640, Note_on_c, 2, 59, 0
1, 128640, Pitch_bend_c, 0, 12165
1, 128640, Note_on_c, 0, 35, 95
1, 128640, Pitch_bend_c, 1, 12165
1, 128640, Note_on_c, 1, 23, 95
1, 128640, Pitch_bend_c, 2, 12165
1, 128640, Note_on_c, 2, 71, 64
1, 128640, Note_on_c, 2, 59, 127
1, 128640, Note_on_c, 2, 47, 95
1, 128640, Pitch_bend_c, 3, 12165
1, 128640, Note_on_c, 3, 35, 64
1, 128640, Pitch_bend_c, 7, 8192
1, 128640, Note_on_c, 7, 83, 100
1, 128640, Note_on_c, 7, 71, 100
1, 128640, Note_on_c, 9, 42, 103
1, 128640, Note_on_c, 9, 35, 103
1, 128655, Pitch_bend_c, 0, 8192
1, 128655, Pitch_bend_c, 1, 8192
1, 128655, Pitch_bend_c, 2, 8192
1, 128655, Pitch_bend_c, 3, 8192
1, 128655, Pitch_bend_c, 7, 8260
1, 128670, Pitch_bend_c, 7, 8437
1, 128685, Pitch_bend_c, 7, 8744
1, 128700, Pitch_bend_c, 7, 8977
1, 128760, Note_on_c, 9, 35, 0
1, 128760, Note_on_c, 9, 42, 0
1, 128880, Note_on_c, 9, 42, 73
1, 129000, Note_on_c, 9, 42, 0
1, 129000, Note_on_c, 2, 59, 0
1, 129000, Note_on_c, 0, 35, 0
1, 129000, Note_on_c, 2, 71, 0
1, 129000, Note_on_c, 1, 23, 0
1, 129000, Note_on_c, 3, 35, 0
1, 129000, Note_on_c, 2, 47, 0
1, 129000, Pitch_bend_c, 0, 0
1, 129000, Note_on_c, 0, 47, 95
1, 129000, Pitch_bend_c, 1, 0
1, 129000, Note_on_c, 1, 35, 95
1, 129000, Pitch_bend_c, 2, 0
1, 129000, Note_on_c, 2, 83, 64
1, 129000, Note_on_c, 2, 71, 127
1, 129000, Note_on_c, 2, 59, 95
1, 129000, Pitch_bend_c, 3, 0
1, 129000, Note_on_c, 3, 47, 64
1, 129015, Pitch_bend_c, 0, 8192
1, 129015, Pitch_bend_c, 1, 8192
1, 129015, Pitch_bend_c, 2, 8192
1, 129015, Pitch_bend_c, 3, 8192
1, 129040, Pitch_bend_c, 7, 8874
1, 129055, Pitch_bend_c, 7, 8649
1, 129070, Pitch_bend_c, 7, 8437
1, 129085, Pitch_bend_c, 7, 8301
1, 129100, Pitch_bend_c, 7, 8226
1, 129120, Note_on_c, 3, 47, 0
1, 129120, Note_on_c, 2, 59, 0
1, 129120, Note_on_c, 2, 83, 0
1, 129120, Note_on_c, 1, 35, 0
1, 129120, Note_on_c, 0, 47, 0
1, 129120, Note_on_c, 2, 71, 0
1, 129120, Pitch_bend_c, 7, 8192
1, 129120, Note_on_c, 9, 42, 73
1, 129120, Note_on_c, 9, 28, 102
1, 129120, Note_on_c, 9, 35, 103
1, 129120, Note_on_c, 9, 40, 91
1, 129240, Note_on_c, 9, 40, 0
1, 129240, Note_on_c, 9, 28, 0
1, 129240, Note_on_c, 9, 42, 0
1, 129240, Note_on_c, 9, 35, 0
1, 129360, Note_on_c, 0, 47, 95
1, 129360, Note_on_c, 1, 35, 95
1, 129360, Note_on_c, 2, 83, 64
1, 129360, Note_on_c, 2, 71, 127
1, 129360, Note_on_c, 2, 59, 95
1, 129360, Note_on_c, 3, 47, 64
1, 129360, Note_on_c, 9, 42, 73
1, 129480, Note_on_c, 9, 42, 0
1, 129600, Note_on_c, 1, 35, 0
1, 129600, Note_on_c, 3, 47, 0
1, 129600, Note_on_c, 2, 83, 0
1, 129600, Note_on_c, 2, 59, 0
1, 129600, Note_on_c, 0, 47, 0
1, 129600, Note_on_c, 2, 71, 0
1, 129600, Note_on_c, 0, 47, 95
1, 129600, Note_on_c, 1, 35, 95
1, 129600, Note_on_c, 2, 83, 64
1, 129600, Note_on_c, 2, 71, 127
1, 129600, Note_on_c, 2, 59, 95
1, 129600, Note_on_c, 3, 47, 64
1, 129600, Note_on_c, 9, 42, 88
1, 129600, Note_on_c, 9, 35, 104
1, 129630, Pitch_bend_c, 0, 8049
1, 129630, Pitch_bend_c, 1, 8049
1, 129630, Pitch_bend_c, 2, 8049
1, 129630, Pitch_bend_c, 3, 8049
1, 129660, Pitch_bend_c, 0, 7899
1, 129660, Pitch_bend_c, 1, 7899
1, 129660, Pitch_bend_c, 2, 7899
1, 129660, Pitch_bend_c, 3, 7899
1, 129695, Pitch_bend_c, 0, 7756
1, 129695, Pitch_bend_c, 1, 7756
1, 129695, Pitch_bend_c, 2, 7756
1, 129695, Pitch_bend_c, 3, 7756
1, 129720, Note_on_c, 9, 35, 0
1, 129720, Note_on_c, 9, 42, 0
1, 129725, Pitch_bend_c, 0, 7612
1, 129725, Pitch_bend_c, 1, 7612
1, 129725, Pitch_bend_c, 2, 7612
1, 129725, Pitch_bend_c, 3, 7612
1, 129760, Pitch_bend_c, 0, 7469
1, 129760, Pitch_bend_c, 1, 7469
1, 129760, Pitch_bend_c, 2, 7469
1, 129760, Pitch_bend_c, 3, 7469
1, 129780, Note_on_c, 1, 35, 0
1, 129780, Note_on_c, 0, 47, 0
1, 129780, Note_on_c, 2, 83, 0
1, 129780, Note_on_c, 2, 59, 0
1, 129780, Note_on_c, 3, 47, 0
1, 129780, Note_on_c, 2, 71, 0
1, 129840, Note_on_c, 0, 47, 95
1, 129840, Note_on_c, 1, 35, 95
1, 129840, Note_on_c, 2, 83, 64
1, 129840, Note_on_c, 2, 71, 127
1, 129840, Note_on_c, 2, 59, 95
1, 129840, Note_on_c, 3, 47, 64
1, 129840, Note_on_c, 9, 42, 73
1, 129855, Pitch_bend_c, 0, 7319
1, 129855, Pitch_bend_c, 1, 7319
1, 129855, Pitch_bend_c, 2, 7319
1, 129855, Pitch_bend_c, 3, 7319
1, 129900, Pitch_bend_c, 0, 7175
1, 129900, Pitch_bend_c, 1, 7175
1, 129900, Pitch_bend_c, 2, 7175
1, 129900, Pitch_bend_c, 3, 7175
1, 129900, Pitch_bend_c, 7, 8179
1, 129920, Pitch_bend_c, 0, 6984
1, 129920, Pitch_bend_c, 1, 6984
1, 129920, Pitch_bend_c, 2, 6984
1, 129920, Pitch_bend_c, 3, 6984
1, 129950, Pitch_bend_c, 0, 6841
1, 129950, Pitch_bend_c, 1, 6841
1, 129950, Pitch_bend_c, 2, 6841
1, 129950, Pitch_bend_c, 3, 6841
1, 129950, Pitch_bend_c, 7, 8172
1, 129960, Note_on_c, 9, 42, 0
1, 129965, Pitch_bend_c, 7, 8158
1, 129980, Pitch_bend_c, 0, 6697
1, 129980, Pitch_bend_c, 1, 6697
1, 129980, Pitch_bend_c, 2, 6697
1, 129980, Pitch_bend_c, 3, 6697
1, 130000, Pitch_bend_c, 7, 8145
1, 130015, Pitch_bend_c, 7, 8131
1, 130030, Pitch_bend_c, 7, 8124
1, 130060, Pitch_bend_c, 0, 6554
1, 130060, Pitch_bend_c, 1, 6554
1, 130060, Pitch_bend_c, 2, 6554
1, 130060, Pitch_bend_c, 3, 6554
1, 130060, Pitch_bend_c, 7, 8097
1, 130080, Note_on_c, 1, 35, 0
1, 130080, Note_on_c, 3, 47, 0
1, 130080, Note_on_c, 2, 83, 0
1, 130080, Note_on_c, 2, 59, 0
1, 130080, Note_on_c, 0, 47, 0
1, 130080, Note_on_c, 2, 71, 0
1, 130080, Note_on_c, 0, 47, 95
1, 130080, Note_on_c, 1, 35, 95
1, 130080, Note_on_c, 2, 83, 64
1, 130080, Note_on_c, 2, 71, 127
1, 130080, Note_on_c, 2, 59, 95
1, 130080, Note_on_c, 3, 47, 64
1, 130080, Pitch_bend_c, 7, 8083
1, 130080, Note_on_c, 9, 42, 73
1, 130080, Note_on_c, 9, 28, 102
1, 130080, Note_on_c, 9, 35, 104
1, 130080, Note_on_c, 9, 40, 92
1, 130110, Pitch_bend_c, 0, 6418
1, 130110, Pitch_bend_c, 1, 6418
1, 130110, Pitch_bend_c, 2, 6418
1, 130110, Pitch_bend_c, 3, 6418
1, 130110, Pitch_bend_c, 7, 8070
1, 130125, Pitch_bend_c, 0, 6274
1, 130125, Pitch_bend_c, 1, 6274
1, 130125, Pitch_bend_c, 2, 6274
1, 130125, Pitch_bend_c, 3, 6274
1, 130125, Pitch_bend_c, 7, 8056
1, 130140, Pitch_bend_c, 0, 6131
1, 130140, Pitch_bend_c, 1, 6131
1, 130140, Pitch_bend_c, 2, 6131
1, 130140, Pitch_bend_c, 3, 6131
1, 130160, Pitch_bend_c, 0, 5987
1, 130160, Pitch_bend_c, 1, 5987
1, 130160, Pitch_bend_c, 2, 5987
1, 130160, Pitch_bend_c, 3, 5987
1, 130160, Pitch_bend_c, 7, 8049
1, 130175, Pitch_bend_c, 0, 5803
1, 130175, Pitch_bend_c, 1, 5803
1, 130175, Pitch_bend_c, 2, 5803
1, 130175, Pitch_bend_c, 3, 5803
1, 130175, Pitch_bend_c, 7, 8035
1, 130190, Pitch_bend_c, 0, 5660
1, 130190, Pitch_bend_c, 1, 5660
1, 130190, Pitch_bend_c, 2, 5660
1, 130190, Pitch_bend_c, 3, 5660
1, 130200, Note_on_c, 9, 40, 0
1, 130200, Note_on_c, 9, 28, 0
1, 130200, Note_on_c, 9, 42, 0
1, 130200, Note_on_c, 9, 35, 0
1, 130205, Pitch_bend_c, 0, 5516
1, 130205, Pitch_bend_c, 1, 5516
1, 130205, Pitch_bend_c, 2, 5516
1, 130205, Pitch_bend_c, 3, 5516
1, 130205, Pitch_bend_c, 7, 8008
1, 130220, Pitch_bend_c, 0, 5380
1, 130220, Pitch_bend_c, 1, 5380
1, 130220, Pitch_bend_c, 2, 5380
1, 130220, Pitch_bend_c, 3, 5380
1, 130240, Pitch_bend_c, 0, 5237
1, 130240, Pitch_bend_c, 1, 5237
1, 130240, Pitch_bend_c, 2, 5237
1, 130240, Pitch_bend_c, 3, 5237
1, 130255, Pitch_bend_c, 7, 7995
1, 130270, Pitch_bend_c, 0, 5100
1, 130270, Pitch_bend_c, 1, 5100
1, 130270, Pitch_bend_c, 2, 5100
1, 130270, Pitch_bend_c, 3, 5100
1, 130270, Pitch_bend_c, 7, 7981
1, 130300, Pitch_bend_c, 7, 7974
1, 130320, Note_on_c, 1, 35, 0
1, 130320, Note_on_c, 3, 47, 0
1, 130320, Note_on_c, 2, 83, 0
1, 130320, Note_on_c, 2, 59, 0
1, 130320, Note_on_c, 0, 47, 0
1, 130320, Note_on_c, 2, 71, 0
1, 130320, Note_on_c, 0, 47, 95
1, 130320, Note_on_c, 1, 35, 95
1, 130320, Note_on_c, 2, 83, 64
1, 130320, Note_on_c, 2, 71, 127
1, 130320, Note_on_c, 2, 59, 95
1, 130320, Note_on_c, 3, 47, 64
1, 130320, Note_on_c, 9, 42, 73
1, 130335, Pitch_bend_c, 0, 4963
1, 130335, Pitch_bend_c, 1, 4963
1, 130335, Pitch_bend_c, 2, 4963
1, 130335, Pitch_bend_c, 3, 4963
1, 130350, Pitch_bend_c, 0, 4636
1, 130350, Pitch_bend_c, 1, 4636
1, 130350, Pitch_bend_c, 2, 4636
1, 130350, Pitch_bend_c, 3, 4636
1, 130350, Pitch_bend_c, 7, 7960
1, 130365, Pitch_bend_c, 0, 4499
1, 130365, Pitch_bend_c, 1, 4499
1, 130365, Pitch_bend_c, 2, 4499
1, 130365, Pitch_bend_c, 3, 4499
1, 130380, Pitch_bend_c, 0, 4083
1, 130380, Pitch_bend_c, 1, 4083
1, 130380, Pitch_bend_c, 2, 4083
1, 130380, Pitch_bend_c, 3, 4083
1, 130400, Pitch_bend_c, 0, 3810
1, 130400, Pitch_bend_c, 1, 3810
1, 130400, Pitch_bend_c, 2, 3810
1, 130400, Pitch_bend_c, 3, 3810
1, 130400, Pitch_bend_c, 7, 7947
1, 130415, Pitch_bend_c, 0, 3359
1, 130415, Pitch_bend_c, 1, 3359
1, 130415, Pitch_bend_c, 2, 3359
1, 130415, Pitch_bend_c, 3, 3359
1, 130430, Pitch_bend_c, 0, 3086
1, 130430, Pitch_bend_c, 1, 3086
1, 130430, Pitch_bend_c, 2, 3086
1, 130430, Pitch_bend_c, 3, 3086
1, 130440, Note_on_c, 9, 42, 0
1, 130445, Pitch_bend_c, 0, 2820
1, 130445, Pitch_bend_c, 1, 2820
1, 130445, Pitch_bend_c, 2, 2820
1, 130445, Pitch_bend_c, 3, 2820
1, 130460, Pitch_bend_c, 0, 2683
1, 130460, Pitch_bend_c, 1, 2683
1, 130460, Pitch_bend_c, 2, 2683
1, 130460, Pitch_bend_c, 3, 2683
1, 130480, Pitch_bend_c, 0, 2369
1, 130480, Pitch_bend_c, 1, 2369
1, 130480, Pitch_bend_c, 2, 2369
1, 130480, Pitch_bend_c, 3, 2369
1, 130480, Pitch_bend_c, 7, 7933
1, 130495, Pitch_bend_c, 0, 2240
1, 130495, Pitch_bend_c, 1, 2240
1, 130495, Pitch_bend_c, 2, 2240
1, 130495, Pitch_bend_c, 3, 2240
1, 130525, Pitch_bend_c, 0, 2103
1, 130525, Pitch_bend_c, 1, 2103
1, 130525, Pitch_bend_c, 2, 2103
1, 130525, Pitch_bend_c, 3, 2103
1, 130560, Note_on_c, 1, 35, 0
1, 130560, Note_on_c, 7, 83, 0
1, 130560, Note_on_c, 2, 83, 0
1, 130560, Note_on_c, 7, 71, 0
1, 130560, Note_on_c, 0, 47, 0
1, 130560, Note_on_c, 2, 59, 0
1, 130560, Note_on_c, 2, 71, 0
1, 130560, Note_on_c, 3, 47, 0
1, 130560, Pitch_bend_c, 0, 8192
1, 130560, Note_on_c, 0, 35, 95
1, 130560, Pitch_bend_c, 1, 8192
1, 130560, Note_on_c, 1, 23, 95
1, 130560, Pitch_bend_c, 2, 8192
1, 130560, Note_on_c, 2, 71, 64
1, 130560, Note_on_c, 2, 59, 127
1, 130560, Note_on_c, 2, 47, 95
1, 130560, Pitch_bend_c, 3, 8192
1, 130560, Note_on_c, 3, 35, 64
1, 130560, Pitch_bend_c, 7, 8192
1, 130560, Note_on_c, 7, 83, 100
1, 130560, Note_on_c, 7, 71, 100
1, 130560, Note_on_c, 9, 42, 103
1, 130560, Note_on_c, 9, 35, 103
1, 130575, Pitch_bend_c, 7, 7960
1, 130590, Pitch_bend_c, 7, 7646
1, 130605, Pitch_bend_c, 7, 7469
1, 130620, Pitch_bend_c, 7, 7394
1, 130680, Note_on_c, 9, 35, 0
1, 130680, Note_on_c, 9, 42, 0
1, 130800, Note_on_c, 9, 42, 73
1, 130920, Note_on_c, 9, 42, 0
1, 130920, Note_on_c, 2, 59, 0
1, 130920, Note_on_c, 0, 35, 0
1, 130920, Note_on_c, 2, 71, 0
1, 130920, Note_on_c, 1, 23, 0
1, 130920, Note_on_c, 3, 35, 0
1, 130920, Note_on_c, 2, 47, 0
1, 130920, Pitch_bend_c, 0, 0
1, 130920, Note_on_c, 0, 47, 95
1, 130920, Pitch_bend_c, 1, 0
1, 130920, Note_on_c, 1, 35, 95
1, 130920, Pitch_bend_c, 2, 0
1, 130920, Note_on_c, 2, 83, 64
1, 130920, Note_on_c, 2, 71, 127
1, 130920, Note_on_c, 2, 59, 95
1, 130920, Pitch_bend_c, 3, 0
1, 130920, Note_on_c, 3, 47, 64
1, 130935, Pitch_bend_c, 0, 8192
1, 130935, Pitch_bend_c, 1, 8192
1, 130935, Pitch_bend_c, 2, 8192
1, 130935, Pitch_bend_c, 3, 8192
1, 130960, Pitch_bend_c, 7, 7435
1, 130975, Pitch_bend_c, 7, 7510
1, 130990, Pitch_bend_c, 7, 7646
1, 131005, Pitch_bend_c, 7, 7858
1, 131020, Pitch_bend_c, 7, 8083
1, 131040, Note_on_c, 3, 47, 0
1, 131040, Note_on_c, 2, 59, 0
1, 131040, Note_on_c, 2, 83, 0
1, 131040, Note_on_c, 1, 35, 0
1, 131040, Note_on_c, 0, 47, 0
1, 131040, Note_on_c, 2, 71, 0
1, 131040, Pitch_bend_c, 7, 8192
1, 131040, Note_on_c, 9, 42, 73
1, 131040, Note_on_c, 9, 35, 102
1, 131040, Note_on_c, 9, 40, 89
1, 131040, Note_on_c, 9, 28, 103
1, 131160, Note_on_c, 9, 28, 0
1, 131160, Note_on_c, 9, 35, 0
1, 131160, Note_on_c, 9, 42, 0
1, 131160, Note_on_c, 9, 40, 0
1, 131280, Note_on_c, 0, 47, 95
1, 131280, Note_on_c, 1, 35, 95
1, 131280, Note_on_c, 2, 83, 64
1, 131280, Note_on_c, 2, 71, 127
1, 131280, Note_on_c, 2, 59, 95
1, 131280, Note_on_c, 3, 47, 64
1, 131280, Note_on_c, 9, 42, 73
1, 131400, Note_on_c, 9, 42, 0
1, 131520, Note_on_c, 1, 35, 0
1, 131520, Note_on_c, 3, 47, 0
1, 131520, Note_on_c, 2, 83, 0
1, 131520, Note_on_c, 2, 59, 0
1, 131520, Note_on_c, 0, 47, 0
1, 131520, Note_on_c, 2, 71, 0
1, 131520, Note_on_c, 9, 42, 88
1, 131520, Note_on_c, 9, 35, 102
1, 131640, Note_on_c, 9, 35, 0
1, 131640, Note_on_c, 9, 42, 0
1, 131640, Note_on_c, 0, 43, 95
1, 131640, Note_on_c, 1, 31, 95
1, 131640, Note_on_c, 2, 79, 64
1, 131640, Note_on_c, 2, 67, 127
1, 131640, Note_on_c, 2, 55, 95
1, 131640, Note_on_c, 3, 43, 64
1, 131760, Note_on_c, 3, 43, 0
1, 131760, Note_on_c, 2, 55, 0
1, 131760, Note_on_c, 2, 79, 0
1, 131760, Note_on_c, 1, 31, 0
1, 131760, Note_on_c, 0, 43, 0
1, 131760, Note_on_c, 2, 67, 0
1, 131760, Pitch_bend_c, 0, 5100
1, 131760, Note_on_c, 0, 47, 95
1, 131760, Pitch_bend_c, 1, 5100
1, 131760, Note_on_c, 1, 35, 95
1, 131760, Pitch_bend_c, 2, 5100
1, 131760, Note_on_c, 2, 83, 64
1, 131760, Note_on_c, 2, 71, 127
1, 131760, Note_on_c, 2, 59, 95
1, 131760, Pitch_bend_c, 3, 5100
1, 131760, Note_on_c, 3, 47, 64
1, 131760, Note_on_c, 9, 42, 73
1, 131775, Pitch_bend_c, 0, 6697
1, 131775, Pitch_bend_c, 1, 6697
1, 131775, Pitch_bend_c, 2, 6697
1, 131775, Pitch_bend_c, 3, 6697
1, 131820, Pitch_bend_c, 7, 8179
1, 131840, Pitch_bend_c, 0, 6841
1, 131840, Pitch_bend_c, 1, 6841
1, 131840, Pitch_bend_c, 2, 6841
1, 131840, Pitch_bend_c, 3, 6841
1, 131870, Pitch_bend_c, 0, 6984
1, 131870, Pitch_bend_c, 1, 6984
1, 131870, Pitch_bend_c, 2, 6984
1, 131870, Pitch_bend_c, 3, 6984
1, 131870, Pitch_bend_c, 7, 8172
1, 131880, Note_on_c, 9, 42, 0
1, 131885, Pitch_bend_c, 0, 7175
1, 131885, Pitch_bend_c, 1, 7175
1, 131885, Pitch_bend_c, 2, 7175
1, 131885, Pitch_bend_c, 3, 7175
1, 131885, Pitch_bend_c, 7, 8158
1, 131900, Pitch_bend_c, 0, 7319
1, 131900, Pitch_bend_c, 1, 7319
1, 131900, Pitch_bend_c, 2, 7319
1, 131900, Pitch_bend_c, 3, 7319
1, 131920, Pitch_bend_c, 0, 7612
1, 131920, Pitch_bend_c, 1, 7612
1, 131920, Pitch_bend_c, 2, 7612
1, 131920, Pitch_bend_c, 3, 7612
1, 131920, Pitch_bend_c, 7, 8145
1, 131935, Pitch_bend_c, 0, 7756
1, 131935, Pitch_bend_c, 1, 7756
1, 131935, Pitch_bend_c, 2, 7756
1, 131935, Pitch_bend_c, 3, 7756
1, 131935, Pitch_bend_c, 7, 8131
1, 131950, Pitch_bend_c, 0, 7899
1, 131950, Pitch_bend_c, 1, 7899
1, 131950, Pitch_bend_c, 2, 7899
1, 131950, Pitch_bend_c, 3, 7899
1, 131950, Pitch_bend_c, 7, 8124
1, 131965, Pitch_bend_c, 0, 8049
1, 131965, Pitch_bend_c, 1, 8049
1, 131965, Pitch_bend_c, 2, 8049
1, 131965, Pitch_bend_c, 3, 8049
1, 131980, Pitch_bend_c, 0, 8192
1, 131980, Pitch_bend_c, 1, 8192
1, 131980, Pitch_bend_c, 2, 8192
1, 131980, Pitch_bend_c, 3, 8192
1, 131980, Pitch_bend_c, 7, 8097
1, 132000, Note_on_c, 1, 35, 0
1, 132000, Note_on_c, 3, 47, 0
1, 132000, Note_on_c, 2, 83, 0
1, 132000, Note_on_c, 2, 59, 0
1, 132000, Note_on_c, 0, 47, 0
1, 132000, Note_on_c, 2, 71, 0
1, 132000, Note_on_c, 0, 47, 95
1, 132000, Note_on_c, 1, 35, 95
1, 132000, Note_on_c, 2, 83, 64
1, 132000, Note_on_c, 2, 71, 127
1, 132000, Note_on_c, 2, 59, 95
1, 132000, Note_on_c, 3, 47, 64
1, 132000, Pitch_bend_c, 7, 8083
1, 132000, Note_on_c, 9, 42, 73
1, 132000, Note_on_c, 9, 28, 103
1, 132000, Note_on_c, 9, 35, 103
1, 132000, Note_on_c, 9, 40, 90
1, 132030, Pitch_bend_c, 7, 8070
1, 132045, Pitch_bend_c, 7, 8056
1, 132080, Pitch_bend_c, 7, 8049
1, 132095, Pitch_bend_c, 7, 8035
1, 132120, Note_on_c, 9, 40, 0
1, 132120, Note_on_c, 9, 28, 0
1, 132120, Note_on_c, 9, 42, 0
1, 132120, Note_on_c, 9, 35, 0
1, 132125, Pitch_bend_c, 7, 8008
1, 132175, Pitch_bend_c, 7, 7995
1, 132190, Pitch_bend_c, 7, 7981
1, 132220, Pitch_bend_c, 7, 7974
1, 132240, Note_on_c, 1, 35, 0
1, 132240, Note_on_c, 3, 47, 0
1, 132240, Note_on_c, 2, 83, 0
1, 132240, Note_on_c, 2, 59, 0
1, 132240, Note_on_c, 0, 47, 0
1, 132240, Note_on_c, 2, 71, 0
1, 132240, Note_on_c, 0, 47, 95
1, 132240, Note_on_c, 1, 35, 95
1, 132240, Note_on_c, 2, 83, 64
1, 132240, Note_on_c, 2, 71, 127
1, 132240, Note_on_c, 2, 59, 95
1, 132240, Note_on_c, 3, 47, 64
1, 132240, Note_on_c, 9, 42, 73
1, 132270, Pitch_bend_c, 0, 8335
1, 132270, Pitch_bend_c, 1, 8335
1, 132270, Pitch_bend_c, 2, 8335
1, 132270, Pitch_bend_c, 3, 8335
1, 132270, Pitch_bend_c, 7, 7960
1, 132320, Pitch_bend_c, 0, 8485
1, 132320, Pitch_bend_c, 1, 8485
1, 132320, Pitch_bend_c, 2, 8485
1, 132320, Pitch_bend_c, 3, 8485
1, 132320, Pitch_bend_c, 7, 7947
1, 132335, Pitch_bend_c, 0, 8628
1, 132335, Pitch_bend_c, 1, 8628
1, 132335, Pitch_bend_c, 2, 8628
1, 132335, Pitch_bend_c, 3, 8628
1, 132350, Pitch_bend_c, 0, 8772
1, 132350, Pitch_bend_c, 1, 8772
1, 132350, Pitch_bend_c, 2, 8772
1, 132350, Pitch_bend_c, 3, 8772
1, 132360, Note_on_c, 9, 42, 0
1, 132365, Pitch_bend_c, 0, 9065
1, 132365, Pitch_bend_c, 1, 9065
1, 132365, Pitch_bend_c, 2, 9065
1, 132365, Pitch_bend_c, 3, 9065
1, 132380, Pitch_bend_c, 0, 9400
1, 132380, Pitch_bend_c, 1, 9400
1, 132380, Pitch_bend_c, 2, 9400
1, 132380, Pitch_bend_c, 3, 9400
1, 132400, Pitch_bend_c, 0, 9543
1, 132400, Pitch_bend_c, 1, 9543
1, 132400, Pitch_bend_c, 2, 9543
1, 132400, Pitch_bend_c, 3, 9543
1, 132400, Pitch_bend_c, 7, 7933
1, 132415, Pitch_bend_c, 0, 9830
1, 132415, Pitch_bend_c, 1, 9830
1, 132415, Pitch_bend_c, 2, 9830
1, 132415, Pitch_bend_c, 3, 9830
1, 132430, Pitch_bend_c, 0, 10110
1, 132430, Pitch_bend_c, 1, 10110
1, 132430, Pitch_bend_c, 2, 10110
1, 132430, Pitch_bend_c, 3, 10110
1, 132445, Pitch_bend_c, 0, 10253
1, 132445, Pitch_bend_c, 1, 10253
1, 132445, Pitch_bend_c, 2, 10253
1, 132445, Pitch_bend_c, 3, 10253
1, 132460, Pitch_bend_c, 0, 10397
1, 132460, Pitch_bend_c, 1, 10397
1, 132460, Pitch_bend_c, 2, 10397
1, 132460, Pitch_bend_c, 3, 10397
1, 132480, Note_on_c, 1, 35, 0
1, 132480, Note_on_c, 7, 83, 0
1, 132480, Note_on_c, 2, 83, 0
1, 132480, Note_on_c, 7, 71, 0
1, 132480, Note_on_c, 0, 47, 0
1, 132480, Note_on_c, 2, 59, 0
1, 132480, Note_on_c, 2, 71, 0
1, 132480, Note_on_c, 3, 47, 0
1, 132480, Pitch_bend_c, 0, 12165
1, 132480, Note_on_c, 0, 35, 95
1, 132480, Pitch_bend_c, 1, 12165
1, 132480, Note_on_c, 1, 23, 95
1, 132480, Pitch_bend_c, 2, 12165
1, 132480, Note_on_c, 2, 71, 64
1, 132480, Note_on_c, 2, 59, 127
1, 132480, Note_on_c, 2, 47, 95
1, 132480, Pitch_bend_c, 3, 12165
1, 132480, Note_on_c, 3, 35, 64
1, 132480, Pitch_bend_c, 7, 8192
1, 132480, Note_on_c, 7, 83, 100
1, 132480, Note_on_c, 7, 71, 100
1, 132480, Note_on_c, 9, 42, 103
1, 132480, Note_on_c, 9, 35, 103
1, 132495, Pitch_bend_c, 0, 8192
1, 132495, Pitch_bend_c, 1, 8192
1, 132495, Pitch_bend_c, 2, 8192
1, 132495, Pitch_bend_c, 3, 8192
1, 132495, Pitch_bend_c, 7, 8260
1, 132510, Pitch_bend_c, 7, 8437
1, 132525, Pitch_bend_c, 7, 8744
1, 132540, Pitch_bend_c, 7, 8977
1, 132600, Note_on_c, 9, 35, 0
1, 132600, Note_on_c, 9, 42, 0
1, 132720, Note_on_c, 9, 42, 73
1, 132840, Note_on_c, 9, 42, 0
1, 132840, Note_on_c, 2, 59, 0
1, 132840, Note_on_c, 0, 35, 0
1, 132840, Note_on_c, 2, 71, 0
1, 132840, Note_on_c, 1, 23, 0
1, 132840, Note_on_c, 3, 35, 0
1, 132840, Note_on_c, 2, 47, 0
1, 132840, Pitch_bend_c, 0, 0
1, 132840, Note_on_c, 0, 47, 95
1, 132840, Pitch_bend_c, 1, 0
1, 132840, Note_on_c, 1, 35, 95
1, 132840, Pitch_bend_c, 2, 0
1, 132840, Note_on_c, 2, 83, 64
1, 132840, Note_on_c, 2, 71, 127
1, 132840, Note_on_c, 2, 59, 95
1, 132840, Pitch_bend_c, 3, 0
1, 132840, Note_on_c, 3, 47, 64
1, 132855, Pitch_bend_c, 0, 8192
1, 132855, Pitch_bend_c, 1, 8192
1, 132855, Pitch_bend_c, 2, 8192
1, 132855, Pitch_bend_c, 3, 8192
1, 132880, Pitch_bend_c, 7, 8874
1, 132895, Pitch_bend_c, 7, 8649
1, 132910, Pitch_bend_c, 7, 8437
1, 132925, Pitch_bend_c, 7, 8301
1, 132940, Pitch_bend_c, 7, 8226
1, 132960, Note_on_c, 3, 47, 0
1, 132960, Note_on_c, 2, 59, 0
1, 132960, Note_on_c, 2, 83, 0
1, 132960, Note_on_c, 1, 35, 0
1, 132960, Note_on_c, 0, 47, 0
1, 132960, Note_on_c, 2, 71, 0
1, 132960, Pitch_bend_c, 7, 8192
1, 132960, Note_on_c, 9, 42, 73
1, 132960, Note_on_c, 9, 28, 102
1, 132960, Note_on_c, 9, 35, 103
1, 132960, Note_on_c, 9, 40, 91
1, 133080, Note_on_c, 9, 40, 0
1, 133080, Note_on_c, 9, 28, 0
1, 133080, Note_on_c, 9, 42, 0
1, 133080, Note_on_c, 9, 35, 0
1, 133200, Note_on_c, 0, 47, 95
1, 133200, Note_on_c, 1, 35, 95
1, 133200, Note_on_c, 2, 83, 64
1, 133200, Note_on_c, 2, 71, 127
1, 133200, Note_on_c, 2, 59, 95
1, 133200, Note_on_c, 3, 47, 64
1, 133200, Note_on_c, 9, 42, 73
1, 133320, Note_on_c, 9, 42, 0
1, 133440, Note_on_c, 1, 35, 0
1, 133440, Note_on_c, 3, 47, 0
1, 133440, Note_on_c, 2, 83, 0
1, 133440, Note_on_c, 2, 59, 0
1, 133440, Note_on_c, 0, 47, 0
1, 133440, Note_on_c, 2, 71, 0
1, 133440, Note_on_c, 0, 47, 95
1, 133440, Note_on_c, 1, 35, 95
1, 133440, Note_on_c, 2, 83, 64
1, 133440, Note_on_c, 2, 71, 127
1, 133440, Note_on_c, 2, 59, 95
1, 133440, Note_on_c, 3, 47, 64
1, 133440, Note_on_c, 9, 42, 88
1, 133440, Note_on_c, 9, 35, 104
1, 133470, Pitch_bend_c, 0, 8049
1, 133470, Pitch_bend_c, 1, 8049
1, 133470, Pitch_bend_c, 2, 8049
1, 133470, Pitch_bend_c, 3, 8049
1, 133500, Pitch_bend_c, 0, 7899
1, 133500, Pitch_bend_c, 1, 7899
1, 133500, Pitch_bend_c, 2, 7899
1, 133500, Pitch_bend_c, 3, 7899
1, 133535, Pitch_bend_c, 0, 7756
1, 133535, Pitch_bend_c, 1, 7756
1, 133535, Pitch_bend_c, 2, 7756
1, 133535, Pitch_bend_c, 3, 7756
1, 133560, Note_on_c, 9, 35, 0
1, 133560, Note_on_c, 9, 42, 0
1, 133565, Pitch_bend_c, 0, 7612
1, 133565, Pitch_bend_c, 1, 7612
1, 133565, Pitch_bend_c, 2, 7612
1, 133565, Pitch_bend_c, 3, 7612
1, 133600, Pitch_bend_c, 0, 7469
1, 133600, Pitch_bend_c, 1, 7469
1, 133600, Pitch_bend_c, 2, 7469
1, 133600, Pitch_bend_c, 3, 7469
1, 133620, Note_on_c, 1, 35, 0
1, 133620, Note_on_c, 0, 47, 0
1, 133620, Note_on_c, 2, 83, 0
1, 133620, Note_on_c, 2, 59, 0
1, 133620, Note_on_c, 3, 47, 0
1, 133620, Note_on_c, 2, 71, 0
1, 133680, Note_on_c, 0, 47, 95
1, 133680, Note_on_c, 1, 35, 95
1, 133680, Note_on_c, 2, 83, 64
1, 133680, Note_on_c, 2, 71, 127
1, 133680, Note_on_c, 2, 59, 95
1, 133680, Note_on_c, 3, 47, 64
1, 133680, Note_on_c, 9, 42, 73
1, 133695, Pitch_bend_c, 0, 7319
1, 133695, Pitch_bend_c, 1, 7319
1, 133695, Pitch_bend_c, 2, 7319
1, 133695, Pitch_bend_c, 3, 7319
1, 133740, Pitch_bend_c, 0, 7175
1, 133740, Pitch_bend_c, 1, 7175
1, 133740, Pitch_bend_c, 2, 7175
1, 133740, Pitch_bend_c, 3, 7175
1, 133740, Pitch_bend_c, 7, 8179
1, 133760, Pitch_bend_c, 0, 6984
1, 133760, Pitch_bend_c, 1, 6984
1, 133760, Pitch_bend_c, 2, 6984
1, 133760, Pitch_bend_c, 3, 6984
1, 133790, Pitch_bend_c, 0, 6841
1, 133790, Pitch_bend_c, 1, 6841
1, 133790, Pitch_bend_c, 2, 6841
1, 133790, Pitch_bend_c, 3, 6841
1, 133790, Pitch_bend_c, 7, 8172
1, 133800, Note_on_c, 9, 42, 0
1, 133805, Pitch_bend_c, 7, 8158
1, 133820, Pitch_bend_c, 0, 6697
1, 133820, Pitch_bend_c, 1, 6697
1, 133820, Pitch_bend_c, 2, 6697
1, 133820, Pitch_bend_c, 3, 6697
1, 133840, Pitch_bend_c, 7, 8145
1, 133855, Pitch_bend_c, 7, 8131
1, 133870, Pitch_bend_c, 7, 8124
1, 133900, Pitch_bend_c, 0, 6554
1, 133900, Pitch_bend_c, 1, 6554
1, 133900, Pitch_bend_c, 2, 6554
1, 133900, Pitch_bend_c, 3, 6554
1, 133900, Pitch_bend_c, 7, 8097
1, 133920, Note_on_c, 1, 35, 0
1, 133920, Note_on_c, 3, 47, 0
1, 133920, Note_on_c, 2, 83, 0
1, 133920, Note_on_c, 2, 59, 0
1, 133920, Note_on_c, 0, 47, 0
1, 133920, Note_on_c, 2, 71, 0
1, 133920, Note_on_c, 0, 47, 95
1, 133920, Note_on_c, 1, 35, 95
1, 133920, Note_on_c, 2, 83, 64
1, 133920, Note_on_c, 2, 71, 127
1, 133920, Note_on_c, 2, 59, 95
1, 133920, Note_on_c, 3, 47, 64
1, 133920, Pitch_bend_c, 7, 8083
1, 133920, Note_on_c, 9, 42, 73
1, 133920, Note_on_c, 9, 28, 102
1, 133920, Note_on_c, 9, 35, 104
1, 133920, Note_on_c, 9, 40, 92
1, 133950, Pitch_bend_c, 0, 6418
1, 133950, Pitch_bend_c, 1, 6418
1, 133950, Pitch_bend_c, 2, 6418
1, 133950, Pitch_bend_c, 3, 6418
1, 133950, Pitch_bend_c, 7, 8070
1, 133965, Pitch_bend_c, 0, 6274
1, 133965, Pitch_bend_c, 1, 6274
1, 133965, Pitch_bend_c, 2, 6274
1, 133965, Pitch_bend_c, 3, 6274
1, 133965, Pitch_bend_c, 7, 8056
1, 133980, Pitch_bend_c, 0, 6131
1, 133980, Pitch_bend_c, 1, 6131
1, 133980, Pitch_bend_c, 2, 6131
1, 133980, Pitch_bend_c, 3, 6131
1, 134000, Pitch_bend_c, 0, 5987
1, 134000, Pitch_bend_c, 1, 5987
1, 134000, Pitch_bend_c, 2, 5987
1, 134000, Pitch_bend_c, 3, 5987
1, 134000, Pitch_bend_c, 7, 8049
1, 134015, Pitch_bend_c, 0, 5803
1, 134015, Pitch_bend_c, 1, 5803
1, 134015, Pitch_bend_c, 2, 5803
1, 134015, Pitch_bend_c, 3, 5803
1, 134015, Pitch_bend_c, 7, 8035
1, 134030, Pitch_bend_c, 0, 5660
1, 134030, Pitch_bend_c, 1, 5660
1, 134030, Pitch_bend_c, 2, 5660
1, 134030, Pitch_bend_c, 3, 5660
1, 134040, Note_on_c, 9, 40, 0
1, 134040, Note_on_c, 9, 28, 0
1, 134040, Note_on_c, 9, 42, 0
1, 134040, Note_on_c, 9, 35, 0
1, 134045, Pitch_bend_c, 0, 5516
1, 134045, Pitch_bend_c, 1, 5516
1, 134045, Pitch_bend_c, 2, 5516
1, 134045, Pitch_bend_c, 3, 5516
1, 134045, Pitch_bend_c, 7, 8008
1, 134060, Pitch_bend_c, 0, 5380
1, 134060, Pitch_bend_c, 1, 5380
1, 134060, Pitch_bend_c, 2, 5380
1, 134060, Pitch_bend_c, 3, 5380
1, 134080, Pitch_bend_c, 0, 5237
1, 134080, Pitch_bend_c, 1, 5237
1, 134080, Pitch_bend_c, 2, 5237
1, 134080, Pitch_bend_c, 3, 5237
1, 134095, Pitch_bend_c, 7, 7995
1, 134110, Pitch_bend_c, 0, 5100
1, 134110, Pitch_bend_c, 1, 5100
1, 134110, Pitch_bend_c, 2, 5100
1, 134110, Pitch_bend_c, 3, 5100
1, 134110, Pitch_bend_c, 7, 7981
1, 134140, Pitch_bend_c, 7, 7974
1, 134160, Note_on_c, 1, 35, 0
1, 134160, Note_on_c, 3, 47, 0
1, 134160, Note_on_c, 2, 83, 0
1, 134160, Note_on_c, 2, 59, 0
1, 134160, Note_on_c, 0, 47, 0
1, 134160, Note_on_c, 2, 71, 0
1, 134160, Note_on_c, 0, 47, 95
1, 134160, Note_on_c, 1, 35, 95
1, 134160, Note_on_c, 2, 83, 64
1, 134160, Note_on_c, 2, 71, 127
1, 134160, Note_on_c, 2, 59, 95
1, 134160, Note_on_c, 3, 47, 64
1, 134160, Note_on_c, 9, 42, 73
1, 134175, Pitch_bend_c, 0, 4963
1, 134175, Pitch_bend_c, 1, 4963
1, 134175, Pitch_bend_c, 2, 4963
1, 134175, Pitch_bend_c, 3, 4963
1, 134190, Pitch_bend_c, 0, 4636
1, 134190, Pitch_bend_c, 1, 4636
1, 134190, Pitch_bend_c, 2, 4636
1, 134190, Pitch_bend_c, 3, 4636
1, 134190, Pitch_bend_c, 7, 7960
1, 134205, Pitch_bend_c, 0, 4499
1, 134205, Pitch_bend_c, 1, 4499
1, 134205, Pitch_bend_c, 2, 4499
1, 134205, Pitch_bend_c, 3, 4499
1, 134220, Pitch_bend_c, 0, 4083
1, 134220, Pitch_bend_c, 1, 4083
1, 134220, Pitch_bend_c, 2, 4083
1, 134220, Pitch_bend_c, 3, 4083
1, 134240, Pitch_bend_c, 0, 3810
1, 134240, Pitch_bend_c, 1, 3810
1, 134240, Pitch_bend_c, 2, 3810
1, 134240, Pitch_bend_c, 3, 3810
1, 134240, Pitch_bend_c, 7, 7947
1, 134255, Pitch_bend_c, 0, 3359
1, 134255, Pitch_bend_c, 1, 3359
1, 134255, Pitch_bend_c, 2, 3359
1, 134255, Pitch_bend_c, 3, 3359
1, 134270, Pitch_bend_c, 0, 3086
1, 134270, Pitch_bend_c, 1, 3086
1, 134270, Pitch_bend_c, 2, 3086
1, 134270, Pitch_bend_c, 3, 3086
1, 134280, Note_on_c, 9, 42, 0
1, 134285, Pitch_bend_c, 0, 2820
1, 134285, Pitch_bend_c, 1, 2820
1, 134285, Pitch_bend_c, 2, 2820
1, 134285, Pitch_bend_c, 3, 2820
1, 134300, Pitch_bend_c, 0, 2683
1, 134300, Pitch_bend_c, 1, 2683
1, 134300, Pitch_bend_c, 2, 2683
1, 134300, Pitch_bend_c, 3, 2683
1, 134320, Pitch_bend_c, 0, 2369
1, 134320, Pitch_bend_c, 1, 2369
1, 134320, Pitch_bend_c, 2, 2369
1, 134320, Pitch_bend_c, 3, 2369
1, 134320, Pitch_bend_c, 7, 7933
1, 134335, Pitch_bend_c, 0, 2240
1, 134335, Pitch_bend_c, 1, 2240
1, 134335, Pitch_bend_c, 2, 2240
1, 134335, Pitch_bend_c, 3, 2240
1, 134365, Pitch_bend_c, 0, 2103
1, 134365, Pitch_bend_c, 1, 2103
1, 134365, Pitch_bend_c, 2, 2103
1, 134365, Pitch_bend_c, 3, 2103
1, 134400, Note_on_c, 1, 35, 0
1, 134400, Note_on_c, 7, 83, 0
1, 134400, Note_on_c, 2, 83, 0
1, 134400, Note_on_c, 7, 71, 0
1, 134400, Note_on_c, 0, 47, 0
1, 134400, Note_on_c, 2, 59, 0
1, 134400, Note_on_c, 2, 71, 0
1, 134400, Note_on_c, 3, 47, 0
1, 134400, Pitch_bend_c, 0, 8192
1, 134400, Note_on_c, 0, 35, 95
1, 134400, Pitch_bend_c, 1, 8192
1, 134400, Note_on_c, 1, 23, 95
1, 134400, Pitch_bend_c, 2, 8192
1, 134400, Note_on_c, 2, 71, 64
1, 134400, Note_on_c, 2, 59, 127
1, 134400, Note_on_c, 2, 47, 95
1, 134400, Pitch_bend_c, 3, 8192
1, 134400, Note_on_c, 3, 35, 64
1, 134400, Pitch_bend_c, 7, 8192
1, 134400, Note_on_c, 7, 83, 100
1, 134400, Note_on_c, 7, 71, 100
1, 134400, Note_on_c, 9, 42, 103
1, 134400, Note_on_c, 9, 35, 103
1, 134415, Pitch_bend_c, 7, 7960
1, 134430, Pitch_bend_c, 7, 7646
1, 134445, Pitch_bend_c, 7, 7469
1, 134460, Pitch_bend_c, 7, 7394
1, 134520, Note_on_c, 9, 35, 0
1, 134520, Note_on_c, 9, 42, 0
1, 134640, Note_on_c, 9, 42, 73
1, 134760, Note_on_c, 9, 42, 0
1, 134760, Note_on_c, 2, 59, 0
1, 134760, Note_on_c, 0, 35, 0
1, 134760, Note_on_c, 2, 71, 0
1, 134760, Note_on_c, 1, 23, 0
1, 134760, Note_on_c, 3, 35, 0
1, 134760, Note_on_c, 2, 47, 0
1, 134760, Pitch_bend_c, 0, 0
1, 134760, Note_on_c, 0, 47, 95
1, 134760, Pitch_bend_c, 1, 0
1, 134760, Note_on_c, 1, 35, 95
1, 134760, Pitch_bend_c, 2, 0
1, 134760, Note_on_c, 2, 83, 64
1, 134760, Note_on_c, 2, 71, 127
1, 134760, Note_on_c, 2, 59, 95
1, 134760, Pitch_bend_c, 3, 0
1, 134760, Note_on_c, 3, 47, 64
1, 134775, Pitch_bend_c, 0, 8192
1, 134775, Pitch_bend_c, 1, 8192
1, 134775, Pitch_bend_c, 2, 8192
1, 134775, Pitch_bend_c, 3, 8192
1, 134800, Pitch_bend_c, 7, 7435
1, 134815, Pitch_bend_c, 7, 7510
1, 134830, Pitch_bend_c, 7, 7646
1, 134845, Pitch_bend_c, 7, 7858
1, 134860, Pitch_bend_c, 7, 8083
1, 134880, Note_on_c, 3, 47, 0
1, 134880, Note_on_c, 2, 59, 0
1, 134880, Note_on_c, 2, 83, 0
1, 134880, Note_on_c, 1, 35, 0
1, 134880, Note_on_c, 0, 47, 0
1, 134880, Note_on_c, 2, 71, 0
1, 134880, Pitch_bend_c, 7, 8192
1, 134880, Note_on_c, 9, 42, 73
1, 134880, Note_on_c, 9, 35, 102
1, 134880, Note_on_c, 9, 40, 89
1, 134880, Note_on_c, 9, 28, 103
1, 135000, Note_on_c, 9, 28, 0
1, 135000, Note_on_c, 9, 35, 0
1, 135000, Note_on_c, 9, 42, 0
1, 135000, Note_on_c, 9, 40, 0
1, 135120, Note_on_c, 0, 47, 95
1, 135120, Note_on_c, 1, 35, 95
1, 135120, Note_on_c, 2, 83, 64
1, 135120, Note_on_c, 2, 71, 127
1, 135120, Note_on_c, 2, 59, 95
1, 135120, Note_on_c, 3, 47, 64
1, 135120, Note_on_c, 9, 42, 73
1, 135240, Note_on_c, 9, 42, 0
1, 135360, Note_on_c, 1, 35, 0
1, 135360, Note_on_c, 3, 47, 0
1, 135360, Note_on_c, 2, 83, 0
1, 135360, Note_on_c, 2, 59, 0
1, 135360, Note_on_c, 0, 47, 0
1, 135360, Note_on_c, 2, 71, 0
1, 135360, Note_on_c, 9, 42, 88
1, 135360, Note_on_c, 9, 35, 102
1, 135480, Note_on_c, 9, 35, 0
1, 135480, Note_on_c, 9, 42, 0
1, 135480, Note_on_c, 0, 43, 95
1, 135480, Note_on_c, 1, 31, 95
1, 135480, Note_on_c, 2, 79, 64
1, 135480, Note_on_c, 2, 67, 127
1, 135480, Note_on_c, 2, 55, 95
1, 135480, Note_on_c, 3, 43, 64
1, 135600, Note_on_c, 3, 43, 0
1, 135600, Note_on_c, 2, 55, 0
1, 135600, Note_on_c, 2, 79, 0
1, 135600, Note_on_c, 1, 31, 0
1, 135600, Note_on_c, 0, 43, 0
1, 135600, Note_on_c, 2, 67, 0
1, 135600, Pitch_bend_c, 0, 5100
1, 135600, Note_on_c, 0, 47, 95
1, 135600, Pitch_bend_c, 1, 5100
1, 135600, Note_on_c, 1, 35, 95
1, 135600, Pitch_bend_c, 2, 5100
1, 135600, Note_on_c, 2, 83, 64
1, 135600, Note_on_c, 2, 71, 127
1, 135600, Note_on_c, 2, 59, 95
1, 135600, Pitch_bend_c, 3, 5100
1, 135600, Note_on_c, 3, 47, 64
1, 135600, Note_on_c, 9, 42, 73
1, 135615, Pitch_bend_c, 0, 6697
1, 135615, Pitch_bend_c, 1, 6697
1, 135615, Pitch_bend_c, 2, 6697
1, 135615, Pitch_bend_c, 3, 6697
1, 135660, Pitch_bend_c, 7, 8179
1, 135680, Pitch_bend_c, 0, 6841
1, 135680, Pitch_bend_c, 1, 6841
1, 135680, Pitch_bend_c, 2, 6841
1, 135680, Pitch_bend_c, 3, 6841
1, 135710, Pitch_bend_c, 0, 6984
1, 135710, Pitch_bend_c, 1, 6984
1, 135710, Pitch_bend_c, 2, 6984
1, 135710, Pitch_bend_c, 3, 6984
1, 135710, Pitch_bend_c, 7, 8172
1, 135720, Note_on_c, 9, 42, 0
1, 135725, Pitch_bend_c, 0, 7175
1, 135725, Pitch_bend_c, 1, 7175
1, 135725, Pitch_bend_c, 2, 7175
1, 135725, Pitch_bend_c, 3, 7175
1, 135725, Pitch_bend_c, 7, 8158
1, 135740, Pitch_bend_c, 0, 7319
1, 135740, Pitch_bend_c, 1, 7319
1, 135740, Pitch_bend_c, 2, 7319
1, 135740, Pitch_bend_c, 3, 7319
1, 135760, Pitch_bend_c, 0, 7612
1, 135760, Pitch_bend_c, 1, 7612
1, 135760, Pitch_bend_c, 2, 7612
1, 135760, Pitch_bend_c, 3, 7612
1, 135760, Pitch_bend_c, 7, 8145
1, 135775, Pitch_bend_c, 0, 7756
1, 135775, Pitch_bend_c, 1, 7756
1, 135775, Pitch_bend_c, 2, 7756
1, 135775, Pitch_bend_c, 3, 7756
1, 135775, Pitch_bend_c, 7, 8131
1, 135790, Pitch_bend_c, 0, 7899
1, 135790, Pitch_bend_c, 1, 7899
1, 135790, Pitch_bend_c, 2, 7899
1, 135790, Pitch_bend_c, 3, 7899
1, 135790, Pitch_bend_c, 7, 8124
1, 135805, Pitch_bend_c, 0, 8049
1, 135805, Pitch_bend_c, 1, 8049
1, 135805, Pitch_bend_c, 2, 8049
1, 135805, Pitch_bend_c, 3, 8049
1, 135820, Pitch_bend_c, 0, 8192
1, 135820, Pitch_bend_c, 1, 8192
1, 135820, Pitch_bend_c, 2, 8192
1, 135820, Pitch_bend_c, 3, 8192
1, 135820, Pitch_bend_c, 7, 8097
1, 135840, Note_on_c, 1, 35, 0
1, 135840, Note_on_c, 3, 47, 0
1, 135840, Note_on_c, 2, 83, 0
1, 135840, Note_on_c, 2, 59, 0
1, 135840, Note_on_c, 0, 47, 0
1, 135840, Note_on_c, 2, 71, 0
1, 135840, Note_on_c, 0, 47, 95
1, 135840, Note_on_c, 1, 35, 95
1, 135840, Note_on_c, 2, 83, 64
1, 135840, Note_on_c, 2, 71, 127
1, 135840, Note_on_c, 2, 59, 95
1, 135840, Note_on_c, 3, 47, 64
1, 135840, Pitch_bend_c, 7, 8083
1, 135840, Note_on_c, 9, 42, 73
1, 135840, Note_on_c, 9, 28, 103
1, 135840, Note_on_c, 9, 35, 103
1, 135840, Note_on_c, 9, 40, 90
1, 135870, Pitch_bend_c, 7, 8070
1, 135885, Pitch_bend_c, 7, 8056
1, 135920, Pitch_bend_c, 7, 8049
1, 135935, Pitch_bend_c, 7, 8035
1, 135960, Note_on_c, 9, 40, 0
1, 135960, Note_on_c, 9, 28, 0
1, 135960, Note_on_c, 9, 42, 0
1, 135960, Note_on_c, 9, 35, 0
1, 135965, Pitch_bend_c, 7, 8008
1, 136015, Pitch_bend_c, 7, 7995
1, 136030, Pitch_bend_c, 7, 7981
1, 136060, Pitch_bend_c, 7, 7974
1, 136080, Note_on_c, 1, 35, 0
1, 136080, Note_on_c, 3, 47, 0
1, 136080, Note_on_c, 2, 83, 0
1, 136080, Note_on_c, 2, 59, 0
1, 136080, Note_on_c, 0, 47, 0
1, 136080, Note_on_c, 2, 71, 0
1, 136080, Note_on_c, 0, 47, 95
1, 136080, Note_on_c, 1, 35, 95
1, 136080, Note_on_c, 2, 83, 64
1, 136080, Note_on_c, 2, 71, 127
1, 136080, Note_on_c, 2, 59, 95
1, 136080, Note_on_c, 3, 47, 64
1, 136080, Note_on_c, 9, 42, 73
1, 136110, Pitch_bend_c, 0, 8335
1, 136110, Pitch_bend_c, 1, 8335
1, 136110, Pitch_bend_c, 2, 8335
1, 136110, Pitch_bend_c, 3, 8335
1, 136110, Pitch_bend_c, 7, 7960
1, 136160, Pitch_bend_c, 0, 8485
1, 136160, Pitch_bend_c, 1, 8485
1, 136160, Pitch_bend_c, 2, 8485
1, 136160, Pitch_bend_c, 3, 8485
1, 136160, Pitch_bend_c, 7, 7947
1, 136175, Pitch_bend_c, 0, 8628
1, 136175, Pitch_bend_c, 1, 8628
1, 136175, Pitch_bend_c, 2, 8628
1, 136175, Pitch_bend_c, 3, 8628
1, 136190, Pitch_bend_c, 0, 8772
1, 136190, Pitch_bend_c, 1, 8772
1, 136190, Pitch_bend_c, 2, 8772
1, 136190, Pitch_bend_c, 3, 8772
1, 136200, Note_on_c, 9, 42, 0
1, 136205, Pitch_bend_c, 0, 9065
1, 136205, Pitch_bend_c, 1, 9065
1, 136205, Pitch_bend_c, 2, 9065
1, 136205, Pitch_bend_c, 3, 9065
1, 136220, Pitch_bend_c, 0, 9400
1, 136220, Pitch_bend_c, 1, 9400
1, 136220, Pitch_bend_c, 2, 9400
1, 136220, Pitch_bend_c, 3, 9400
1, 136240, Pitch_bend_c, 0, 9543
1, 136240, Pitch_bend_c, 1, 9543
1, 136240, Pitch_bend_c, 2, 9543
1, 136240, Pitch_bend_c, 3, 9543
1, 136240, Pitch_bend_c, 7, 7933
1, 136255, Pitch_bend_c, 0, 9830
1, 136255, Pitch_bend_c, 1, 9830
1, 136255, Pitch_bend_c, 2, 9830
1, 136255, Pitch_bend_c, 3, 9830
1, 136270, Pitch_bend_c, 0, 10110
1, 136270, Pitch_bend_c, 1, 10110
1, 136270, Pitch_bend_c, 2, 10110
1, 136270, Pitch_bend_c, 3, 10110
1, 136285, Pitch_bend_c, 0, 10253
1, 136285, Pitch_bend_c, 1, 10253
1, 136285, Pitch_bend_c, 2, 10253
1, 136285, Pitch_bend_c, 3, 10253
1, 136300, Pitch_bend_c, 0, 10397
1, 136300, Pitch_bend_c, 1, 10397
1, 136300, Pitch_bend_c, 2, 10397
1, 136300, Pitch_bend_c, 3, 10397
1, 136320, Note_on_c, 1, 35, 0
1, 136320, Note_on_c, 7, 83, 0
1, 136320, Note_on_c, 2, 83, 0
1, 136320, Note_on_c, 7, 71, 0
1, 136320, Note_on_c, 0, 47, 0
1, 136320, Note_on_c, 2, 59, 0
1, 136320, Note_on_c, 2, 71, 0
1, 136320, Note_on_c, 3, 47, 0
1, 136320, Pitch_bend_c, 0, 12165
1, 136320, Note_on_c, 0, 35, 95
1, 136320, Pitch_bend_c, 1, 12165
1, 136320, Note_on_c, 1, 23, 95
1, 136320, Pitch_bend_c, 2, 12165
1, 136320, Note_on_c, 2, 71, 64
1, 136320, Note_on_c, 2, 59, 127
1, 136320, Note_on_c, 2, 47, 95
1, 136320, Pitch_bend_c, 3, 12165
1, 136320, Note_on_c, 3, 35, 64
1, 136320, Pitch_bend_c, 7, 8192
1, 136320, Note_on_c, 7, 83, 100
1, 136320, Note_on_c, 7, 71, 100
1, 136320, Note_on_c, 9, 42, 103
1, 136320, Note_on_c, 9, 35, 103
1, 136335, Pitch_bend_c, 0, 8192
1, 136335, Pitch_bend_c, 1, 8192
1, 136335, Pitch_bend_c, 2, 8192
1, 136335, Pitch_bend_c, 3, 8192
1, 136335, Pitch_bend_c, 7, 8260
1, 136350, Pitch_bend_c, 7, 8437
1, 136365, Pitch_bend_c, 7, 8744
1, 136380, Pitch_bend_c, 7, 8977
1, 136440, Note_on_c, 9, 35, 0
1, 136440, Note_on_c, 9, 42, 0
1, 136560, Note_on_c, 9, 42, 73
1, 136680, Note_on_c, 9, 42, 0
1, 136680, Note_on_c, 2, 59, 0
1, 136680, Note_on_c, 0, 35, 0
1, 136680, Note_on_c, 2, 71, 0
1, 136680, Note_on_c, 1, 23, 0
1, 136680, Note_on_c, 3, 35, 0
1, 136680, Note_on_c, 2, 47, 0
1, 136680, Pitch_bend_c, 0, 0
1, 136680, Note_on_c, 0, 47, 95
1, 136680, Pitch_bend_c, 1, 0
1, 136680, Note_on_c, 1, 35, 95
1, 136680, Pitch_bend_c, 2, 0
1, 136680, Note_on_c, 2, 83, 64
1, 136680, Note_on_c, 2, 71, 127
1, 136680, Note_on_c, 2, 59, 95
1, 136680, Pitch_bend_c, 3, 0
1, 136680, Note_on_c, 3, 47, 64
1, 136695, Pitch_bend_c, 0, 8192
1, 136695, Pitch_bend_c, 1, 8192
1, 136695, Pitch_bend_c, 2, 8192
1, 136695, Pitch_bend_c, 3, 8192
1, 136720, Pitch_bend_c, 7, 8874
1, 136735, Pitch_bend_c, 7, 8649
1, 136750, Pitch_bend_c, 7, 8437
1, 136765, Pitch_bend_c, 7, 8301
1, 136780, Pitch_bend_c, 7, 8226
1, 136800, Note_on_c, 3, 47, 0
1, 136800, Note_on_c, 2, 59, 0
1, 136800, Note_on_c, 2, 83, 0
1, 136800, Note_on_c, 1, 35, 0
1, 136800, Note_on_c, 0, 47, 0
1, 136800, Note_on_c, 2, 71, 0
1, 136800, Pitch_bend_c, 7, 8192
1, 136800, Note_on_c, 9, 42, 73
1, 136800, Note_on_c, 9, 28, 102
1, 136800, Note_on_c, 9, 35, 103
1, 136800, Note_on_c, 9, 40, 91
1, 136920, Note_on_c, 9, 40, 0
1, 136920, Note_on_c, 9, 28, 0
1, 136920, Note_on_c, 9, 42, 0
1, 136920, Note_on_c, 9, 35, 0
1, 137040, Note_on_c, 0, 47, 95
1, 137040, Note_on_c, 1, 35, 95
1, 137040, Note_on_c, 2, 83, 64
1, 137040, Note_on_c, 2, 71, 127
1, 137040, Note_on_c, 2, 59, 95
1, 137040, Note_on_c, 3, 47, 64
1, 137040, Note_on_c, 9, 42, 73
1, 137160, Note_on_c, 9, 42, 0
1, 137280, Note_on_c, 1, 35, 0
1, 137280, Note_on_c, 3, 47, 0
1, 137280, Note_on_c, 2, 83, 0
1, 137280, Note_on_c, 2, 59, 0
1, 137280, Note_on_c, 0, 47, 0
1, 137280, Note_on_c, 2, 71, 0
1, 137280, Note_on_c, 0, 47, 95
1, 137280, Note_on_c, 1, 35, 95
1, 137280, Note_on_c, 2, 83, 64
1, 137280, Note_on_c, 2, 71, 127
1, 137280, Note_on_c, 2, 59, 95
1, 137280, Note_on_c, 3, 47, 64
1, 137280, Note_on_c, 9, 42, 88
1, 137280, Note_on_c, 9, 35, 104
1, 137310, Pitch_bend_c, 0, 8049
1, 137310, Pitch_bend_c, 1, 8049
1, 137310, Pitch_bend_c, 2, 8049
1, 137310, Pitch_bend_c, 3, 8049
1, 137340, Pitch_bend_c, 0, 7899
1, 137340, Pitch_bend_c, 1, 7899
1, 137340, Pitch_bend_c, 2, 7899
1, 137340, Pitch_bend_c, 3, 7899
1, 137375, Pitch_bend_c, 0, 7756
1, 137375, Pitch_bend_c, 1, 7756
1, 137375, Pitch_bend_c, 2, 7756
1, 137375, Pitch_bend_c, 3, 7756
1, 137400, Note_on_c, 9, 35, 0
1, 137400, Note_on_c, 9, 42, 0
1, 137405, Pitch_bend_c, 0, 7612
1, 137405, Pitch_bend_c, 1, 7612
1, 137405, Pitch_bend_c, 2, 7612
1, 137405, Pitch_bend_c, 3, 7612
1, 137440, Pitch_bend_c, 0, 7469
1, 137440, Pitch_bend_c, 1, 7469
1, 137440, Pitch_bend_c, 2, 7469
1, 137440, Pitch_bend_c, 3, 7469
1, 137460, Note_on_c, 1, 35, 0
1, 137460, Note_on_c, 0, 47, 0
1, 137460, Note_on_c, 2, 83, 0
1, 137460, Note_on_c, 2, 59, 0
1, 137460, Note_on_c, 3, 47, 0
1, 137460, Note_on_c, 2, 71, 0
1, 137520, Note_on_c, 0, 47, 95
1, 137520, Note_on_c, 1, 35, 95
1, 137520, Note_on_c, 2, 83, 64
1, 137520, Note_on_c, 2, 71, 127
1, 137520, Note_on_c, 2, 59, 95
1, 137520, Note_on_c, 3, 47, 64
1, 137520, Note_on_c, 9, 42, 73
1, 137535, Pitch_bend_c, 0, 7319
1, 137535, Pitch_bend_c, 1, 7319
1, 137535, Pitch_bend_c, 2, 7319
1, 137535, Pitch_bend_c, 3, 7319
1, 137580, Pitch_bend_c, 0, 7175
1, 137580, Pitch_bend_c, 1, 7175
1, 137580, Pitch_bend_c, 2, 7175
1, 137580, Pitch_bend_c, 3, 7175
1, 137580, Pitch_bend_c, 7, 8179
1, 137600, Pitch_bend_c, 0, 6984
1, 137600, Pitch_bend_c, 1, 6984
1, 137600, Pitch_bend_c, 2, 6984
1, 137600, Pitch_bend_c, 3, 6984
1, 137630, Pitch_bend_c, 0, 6841
1, 137630, Pitch_bend_c, 1, 6841
1, 137630, Pitch_bend_c, 2, 6841
1, 137630, Pitch_bend_c, 3, 6841
1, 137630, Pitch_bend_c, 7, 8172
1, 137640, Note_on_c, 9, 42, 0
1, 137645, Pitch_bend_c, 7, 8158
1, 137660, Pitch_bend_c, 0, 6697
1, 137660, Pitch_bend_c, 1, 6697
1, 137660, Pitch_bend_c, 2, 6697
1, 137660, Pitch_bend_c, 3, 6697
1, 137680, Pitch_bend_c, 7, 8145
1, 137695, Pitch_bend_c, 7, 8131
1, 137710, Pitch_bend_c, 7, 8124
1, 137740, Pitch_bend_c, 0, 6554
1, 137740, Pitch_bend_c, 1, 6554
1, 137740, Pitch_bend_c, 2, 6554
1, 137740, Pitch_bend_c, 3, 6554
1, 137740, Pitch_bend_c, 7, 8097
1, 137760, Note_on_c, 1, 35, 0
1, 137760, Note_on_c, 3, 47, 0
1, 137760, Note_on_c, 2, 83, 0
1, 137760, Note_on_c, 2, 59, 0
1, 137760, Note_on_c, 0, 47, 0
1, 137760, Note_on_c, 2, 71, 0
1, 137760, Note_on_c, 0, 47, 95
1, 137760, Note_on_c, 1, 35, 95
1, 137760, Note_on_c, 2, 83, 64
1, 137760, Note_on_c, 2, 71, 127
1, 137760, Note_on_c, 2, 59, 95
1, 137760, Note_on_c, 3, 47, 64
1, 137760, Pitch_bend_c, 7, 8083
1, 137760, Note_on_c, 9, 42, 73
1, 137760, Note_on_c, 9, 28, 102
1, 137760, Note_on_c, 9, 35, 104
1, 137760, Note_on_c, 9, 40, 92
1, 137790, Pitch_bend_c, 0, 6418
1, 137790, Pitch_bend_c, 1, 6418
1, 137790, Pitch_bend_c, 2, 6418
1, 137790, Pitch_bend_c, 3, 6418
1, 137790, Pitch_bend_c, 7, 8070
1, 137805, Pitch_bend_c, 0, 6274
1, 137805, Pitch_bend_c, 1, 6274
1, 137805, Pitch_bend_c, 2, 6274
1, 137805, Pitch_bend_c, 3, 6274
1, 137805, Pitch_bend_c, 7, 8056
1, 137820, Pitch_bend_c, 0, 6131
1, 137820, Pitch_bend_c, 1, 6131
1, 137820, Pitch_bend_c, 2, 6131
1, 137820, Pitch_bend_c, 3, 6131
1, 137840, Pitch_bend_c, 0, 5987
1, 137840, Pitch_bend_c, 1, 5987
1, 137840, Pitch_bend_c, 2, 5987
1, 137840, Pitch_bend_c, 3, 5987
1, 137840, Pitch_bend_c, 7, 8049
1, 137855, Pitch_bend_c, 0, 5803
1, 137855, Pitch_bend_c, 1, 5803
1, 137855, Pitch_bend_c, 2, 5803
1, 137855, Pitch_bend_c, 3, 5803
1, 137855, Pitch_bend_c, 7, 8035
1, 137870, Pitch_bend_c, 0, 5660
1, 137870, Pitch_bend_c, 1, 5660
1, 137870, Pitch_bend_c, 2, 5660
1, 137870, Pitch_bend_c, 3, 5660
1, 137880, Note_on_c, 9, 40, 0
1, 137880, Note_on_c, 9, 28, 0
1, 137880, Note_on_c, 9, 42, 0
1, 137880, Note_on_c, 9, 35, 0
1, 137885, Pitch_bend_c, 0, 5516
1, 137885, Pitch_bend_c, 1, 5516
1, 137885, Pitch_bend_c, 2, 5516
1, 137885, Pitch_bend_c, 3, 5516
1, 137885, Pitch_bend_c, 7, 8008
1, 137900, Pitch_bend_c, 0, 5380
1, 137900, Pitch_bend_c, 1, 5380
1, 137900, Pitch_bend_c, 2, 5380
1, 137900, Pitch_bend_c, 3, 5380
1, 137920, Pitch_bend_c, 0, 5237
1, 137920, Pitch_bend_c, 1, 5237
1, 137920, Pitch_bend_c, 2, 5237
1, 137920, Pitch_bend_c, 3, 5237
1, 137935, Pitch_bend_c, 7, 7995
1, 137950, Pitch_bend_c, 0, 5100
1, 137950, Pitch_bend_c, 1, 5100
1, 137950, Pitch_bend_c, 2, 5100
1, 137950, Pitch_bend_c, 3, 5100
1, 137950, Pitch_bend_c, 7, 7981
1, 137980, Pitch_bend_c, 7, 7974
1, 138000, Note_on_c, 1, 35, 0
1, 138000, Note_on_c, 3, 47, 0
1, 138000, Note_on_c, 2, 83, 0
1, 138000, Note_on_c, 2, 59, 0
1, 138000, Note_on_c, 0, 47, 0
1, 138000, Note_on_c, 2, 71, 0
1, 138000, Note_on_c, 0, 47, 95
1, 138000, Note_on_c, 1, 35, 95
1, 138000, Note_on_c, 2, 83, 64
1, 138000, Note_on_c, 2, 71, 127
1, 138000, Note_on_c, 2, 59, 95
1, 138000, Note_on_c, 3, 47, 64
1, 138000, Note_on_c, 9, 42, 73
1, 138015, Pitch_bend_c, 0, 4963
1, 138015, Pitch_bend_c, 1, 4963
1, 138015, Pitch_bend_c, 2, 4963
1, 138015, Pitch_bend_c, 3, 4963
1, 138030, Pitch_bend_c, 0, 4636
1, 138030, Pitch_bend_c, 1, 4636
1, 138030, Pitch_bend_c, 2, 4636
1, 138030, Pitch_bend_c, 3, 4636
1, 138030, Pitch_bend_c, 7, 7960
1, 138045, Pitch_bend_c, 0, 4499
1, 138045, Pitch_bend_c, 1, 4499
1, 138045, Pitch_bend_c, 2, 4499
1, 138045, Pitch_bend_c, 3, 4499
1, 138060, Pitch_bend_c, 0, 4083
1, 138060, Pitch_bend_c, 1, 4083
1, 138060, Pitch_bend_c, 2, 4083
1, 138060, Pitch_bend_c, 3, 4083
1, 138080, Pitch_bend_c, 0, 3810
1, 138080, Pitch_bend_c, 1, 3810
1, 138080, Pitch_bend_c, 2, 3810
1, 138080, Pitch_bend_c, 3, 3810
1, 138080, Pitch_bend_c, 7, 7947
1, 138095, Pitch_bend_c, 0, 3359
1, 138095, Pitch_bend_c, 1, 3359
1, 138095, Pitch_bend_c, 2, 3359
1, 138095, Pitch_bend_c, 3, 3359
1, 138110, Pitch_bend_c, 0, 3086
1, 138110, Pitch_bend_c, 1, 3086
1, 138110, Pitch_bend_c, 2, 3086
1, 138110, Pitch_bend_c, 3, 3086
1, 138120, Note_on_c, 9, 42, 0
1, 138125, Pitch_bend_c, 0, 2820
1, 138125, Pitch_bend_c, 1, 2820
1, 138125, Pitch_bend_c, 2, 2820
1, 138125, Pitch_bend_c, 3, 2820
1, 138140, Pitch_bend_c, 0, 2683
1, 138140, Pitch_bend_c, 1, 2683
1, 138140, Pitch_bend_c, 2, 2683
1, 138140, Pitch_bend_c, 3, 2683
1, 138160, Pitch_bend_c, 0, 2369
1, 138160, Pitch_bend_c, 1, 2369
1, 138160, Pitch_bend_c, 2, 2369
1, 138160, Pitch_bend_c, 3, 2369
1, 138160, Pitch_bend_c, 7, 7933
1, 138175, Pitch_bend_c, 0, 2240
1, 138175, Pitch_bend_c, 1, 2240
1, 138175, Pitch_bend_c, 2, 2240
1, 138175, Pitch_bend_c, 3, 2240
1, 138205, Pitch_bend_c, 0, 2103
1, 138205, Pitch_bend_c, 1, 2103
1, 138205, Pitch_bend_c, 2, 2103
1, 138205, Pitch_bend_c, 3, 2103
1, 138240, Note_on_c, 1, 35, 0
1, 138240, Note_on_c, 7, 83, 0
1, 138240, Note_on_c, 2, 83, 0
1, 138240, Note_on_c, 7, 71, 0
1, 138240, Note_on_c, 0, 47, 0
1, 138240, Note_on_c, 2, 59, 0
1, 138240, Note_on_c, 2, 71, 0
1, 138240, Note_on_c, 3, 47, 0
1, 138240, Pitch_bend_c, 0, 8192
1, 138240, Note_on_c, 0, 35, 95
1, 138240, Pitch_bend_c, 1, 8192
1, 138240, Note_on_c, 1, 23, 95
1, 138240, Pitch_bend_c, 2, 8192
1, 138240, Note_on_c, 2, 71, 64
1, 138240, Note_on_c, 2, 59, 127
1, 138240, Note_on_c, 2, 47, 95
1, 138240, Pitch_bend_c, 3, 8192
1, 138240, Note_on_c, 3, 35, 64
1, 138240, Pitch_bend_c, 7, 8192
1, 138240, Note_on_c, 7, 83, 100
1, 138240, Note_on_c, 7, 71, 100
1, 138240, Note_on_c, 9, 42, 103
1, 138240, Note_on_c, 9, 35, 103
1, 138250, Pitch_bend_c, 4, 8192
1, 138250, Pitch_bend_c, 6, 8192
1, 138255, Pitch_bend_c, 7, 7960
1, 138270, Pitch_bend_c, 7, 7646
1, 138285, Pitch_bend_c, 7, 7469
1, 138300, Pitch_bend_c, 7, 7394
1, 138360, Note_on_c, 9, 35, 0
1, 138360, Note_on_c, 9, 42, 0
1, 138480, Note_on_c, 9, 42, 73
1, 138600, Note_on_c, 9, 42, 0
1, 138600, Note_on_c, 2, 59, 0
1, 138600, Note_on_c, 0, 35, 0
1, 138600, Note_on_c, 2, 71, 0
1, 138600, Note_on_c, 1, 23, 0
1, 138600, Note_on_c, 3, 35, 0
1, 138600, Note_on_c, 2, 47, 0
1, 138600, Pitch_bend_c, 0, 0
1, 138600, Note_on_c, 0, 47, 95
1, 138600, Pitch_bend_c, 1, 0
1, 138600, Note_on_c, 1, 35, 95
1, 138600, Pitch_bend_c, 2, 0
1, 138600, Note_on_c, 2, 83, 64
1, 138600, Note_on_c, 2, 71, 127
1, 138600, Note_on_c, 2, 59, 95
1, 138600, Pitch_bend_c, 3, 0
1, 138600, Note_on_c, 3, 47, 64
1, 138615, Pitch_bend_c, 0, 8192
1, 138615, Pitch_bend_c, 1, 8192
1, 138615, Pitch_bend_c, 2, 8192
1, 138615, Pitch_bend_c, 3, 8192
1, 138640, Pitch_bend_c, 7, 7435
1, 138655, Pitch_bend_c, 7, 7510
1, 138670, Pitch_bend_c, 7, 7646
1, 138685, Pitch_bend_c, 7, 7858
1, 138700, Pitch_bend_c, 7, 8083
1, 138720, Note_on_c, 3, 47, 0
1, 138720, Note_on_c, 2, 59, 0
1, 138720, Note_on_c, 2, 83, 0
1, 138720, Note_on_c, 1, 35, 0
1, 138720, Note_on_c, 0, 47, 0
1, 138720, Note_on_c, 2, 71, 0
1, 138720, Pitch_bend_c, 7, 8192
1, 138720, Note_on_c, 9, 42, 73
1, 138720, Note_on_c, 9, 35, 102
1, 138720, Note_on_c, 9, 40, 89
1, 138720, Note_on_c, 9, 28, 103
1, 138840, Note_on_c, 9, 28, 0
1, 138840, Note_on_c, 9, 35, 0
1, 138840, Note_on_c, 9, 42, 0
1, 138840, Note_on_c, 9, 40, 0
1, 138960, Note_on_c, 0, 47, 95
1, 138960, Note_on_c, 1, 35, 95
1, 138960, Note_on_c, 2, 83, 64
1, 138960, Note_on_c, 2, 71, 127
1, 138960, Note_on_c, 2, 59, 95
1, 138960, Note_on_c, 3, 47, 64
1, 138960, Note_on_c, 9, 42, 73
1, 139080, Note_on_c, 9, 42, 0
1, 139200, Note_on_c, 1, 35, 0
1, 139200, Note_on_c, 3, 47, 0
1, 139200, Note_on_c, 2, 83, 0
1, 139200, Note_on_c, 2, 59, 0
1, 139200, Note_on_c, 0, 47, 0
1, 139200, Note_on_c, 2, 71, 0
1, 139200, Note_on_c, 9, 42, 88
1, 139200, Note_on_c, 9, 35, 102
1, 139320, Note_on_c, 9, 35, 0
1, 139320, Note_on_c, 9, 42, 0
1, 139320, Note_on_c, 0, 43, 95
1, 139320, Note_on_c, 1, 31, 95
1, 139320, Note_on_c, 2, 79, 64
1, 139320, Note_on_c, 2, 67, 127
1, 139320, Note_on_c, 2, 55, 95
1, 139320, Note_on_c, 3, 43, 64
1, 139440, Note_on_c, 3, 43, 0
1, 139440, Note_on_c, 2, 55, 0
1, 139440, Note_on_c, 2, 79, 0
1, 139440, Note_on_c, 1, 31, 0
1, 139440, Note_on_c, 0, 43, 0
1, 139440, Note_on_c, 2, 67, 0
1, 139440, Pitch_bend_c, 0, 5100
1, 139440, Note_on_c, 0, 47, 95
1, 139440, Pitch_bend_c, 1, 5100
1, 139440, Note_on_c, 1, 35, 95
1, 139440, Pitch_bend_c, 2, 5100
1, 139440, Note_on_c, 2, 83, 64
1, 139440, Note_on_c, 2, 71, 127
1, 139440, Note_on_c, 2, 59, 95
1, 139440, Pitch_bend_c, 3, 5100
1, 139440, Note_on_c, 3, 47, 64
1, 139440, Note_on_c, 9, 42, 73
1, 139455, Pitch_bend_c, 0, 6697
1, 139455, Pitch_bend_c, 1, 6697
1, 139455, Pitch_bend_c, 2, 6697
1, 139455, Pitch_bend_c, 3, 6697
1, 139500, Pitch_bend_c, 7, 8179
1, 139520, Pitch_bend_c, 0, 6841
1, 139520, Pitch_bend_c, 1, 6841
1, 139520, Pitch_bend_c, 2, 6841
1, 139520, Pitch_bend_c, 3, 6841
1, 139550, Pitch_bend_c, 0, 6984
1, 139550, Pitch_bend_c, 1, 6984
1, 139550, Pitch_bend_c, 2, 6984
1, 139550, Pitch_bend_c, 3, 6984
1, 139550, Pitch_bend_c, 7, 8172
1, 139560, Note_on_c, 9, 42, 0
1, 139565, Pitch_bend_c, 0, 7175
1, 139565, Pitch_bend_c, 1, 7175
1, 139565, Pitch_bend_c, 2, 7175
1, 139565, Pitch_bend_c, 3, 7175
1, 139565, Pitch_bend_c, 7, 8158
1, 139580, Pitch_bend_c, 0, 7319
1, 139580, Pitch_bend_c, 1, 7319
1, 139580, Pitch_bend_c, 2, 7319
1, 139580, Pitch_bend_c, 3, 7319
1, 139600, Pitch_bend_c, 0, 7612
1, 139600, Pitch_bend_c, 1, 7612
1, 139600, Pitch_bend_c, 2, 7612
1, 139600, Pitch_bend_c, 3, 7612
1, 139600, Pitch_bend_c, 7, 8145
1, 139615, Pitch_bend_c, 0, 7756
1, 139615, Pitch_bend_c, 1, 7756
1, 139615, Pitch_bend_c, 2, 7756
1, 139615, Pitch_bend_c, 3, 7756
1, 139615, Pitch_bend_c, 7, 8131
1, 139630, Pitch_bend_c, 0, 7899
1, 139630, Pitch_bend_c, 1, 7899
1, 139630, Pitch_bend_c, 2, 7899
1, 139630, Pitch_bend_c, 3, 7899
1, 139630, Pitch_bend_c, 7, 8124
1, 139645, Pitch_bend_c, 0, 8049
1, 139645, Pitch_bend_c, 1, 8049
1, 139645, Pitch_bend_c, 2, 8049
1, 139645, Pitch_bend_c, 3, 8049
1, 139660, Pitch_bend_c, 0, 8192
1, 139660, Pitch_bend_c, 1, 8192
1, 139660, Pitch_bend_c, 2, 8192
1, 139660, Pitch_bend_c, 3, 8192
1, 139660, Pitch_bend_c, 7, 8097
1, 139680, Note_on_c, 1, 35, 0
1, 139680, Note_on_c, 3, 47, 0
1, 139680, Note_on_c, 2, 83, 0
1, 139680, Note_on_c, 2, 59, 0
1, 139680, Note_on_c, 0, 47, 0
1, 139680, Note_on_c, 2, 71, 0
1, 139680, Note_on_c, 0, 47, 95
1, 139680, Note_on_c, 1, 35, 95
1, 139680, Note_on_c, 2, 83, 64
1, 139680, Note_on_c, 2, 71, 127
1, 139680, Note_on_c, 2, 59, 95
1, 139680, Note_on_c, 3, 47, 64
1, 139680, Pitch_bend_c, 7, 8083
1, 139680, Note_on_c, 9, 42, 73
1, 139680, Note_on_c, 9, 28, 103
1, 139680, Note_on_c, 9, 35, 103
1, 139680, Note_on_c, 9, 40, 90
1, 139710, Pitch_bend_c, 7, 8070
1, 139725, Pitch_bend_c, 7, 8056
1, 139760, Pitch_bend_c, 7, 8049
1, 139775, Pitch_bend_c, 7, 8035
1, 139800, Note_on_c, 9, 40, 0
1, 139800, Note_on_c, 9, 28, 0
1, 139800, Note_on_c, 9, 42, 0
1, 139800, Note_on_c, 9, 35, 0
1, 139805, Pitch_bend_c, 7, 8008
1, 139855, Pitch_bend_c, 7, 7995
1, 139870, Pitch_bend_c, 7, 7981
1, 139900, Pitch_bend_c, 7, 7974
1, 139920, Note_on_c, 1, 35, 0
1, 139920, Note_on_c, 3, 47, 0
1, 139920, Note_on_c, 2, 83, 0
1, 139920, Note_on_c, 2, 59, 0
1, 139920, Note_on_c, 0, 47, 0
1, 139920, Note_on_c, 2, 71, 0
1, 139920, Note_on_c, 0, 47, 95
1, 139920, Note_on_c, 1, 35, 95
1, 139920, Note_on_c, 2, 83, 64
1, 139920, Note_on_c, 2, 71, 127
1, 139920, Note_on_c, 2, 59, 95
1, 139920, Note_on_c, 3, 47, 64
1, 139920, Note_on_c, 9, 42, 73
1, 139950, Pitch_bend_c, 0, 8335
1, 139950, Pitch_bend_c, 1, 8335
1, 139950, Pitch_bend_c, 2, 8335
1, 139950, Pitch_bend_c, 3, 8335
1, 139950, Pitch_bend_c, 7, 7960
1, 140000, Pitch_bend_c, 0, 8485
1, 140000, Pitch_bend_c, 1, 8485
1, 140000, Pitch_bend_c, 2, 8485
1, 140000, Pitch_bend_c, 3, 8485
1, 140000, Pitch_bend_c, 7, 7947
1, 140015, Pitch_bend_c, 0, 8628
1, 140015, Pitch_bend_c, 1, 8628
1, 140015, Pitch_bend_c, 2, 8628
1, 140015, Pitch_bend_c, 3, 8628
1, 140030, Pitch_bend_c, 0, 8772
1, 140030, Pitch_bend_c, 1, 8772
1, 140030, Pitch_bend_c, 2, 8772
1, 140030, Pitch_bend_c, 3, 8772
1, 140040, Note_on_c, 9, 42, 0
1, 140045, Pitch_bend_c, 0, 9065
1, 140045, Pitch_bend_c, 1, 9065
1, 140045, Pitch_bend_c, 2, 9065
1, 140045, Pitch_bend_c, 3, 9065
1, 140060, Pitch_bend_c, 0, 9400
1, 140060, Pitch_bend_c, 1, 9400
1, 140060, Pitch_bend_c, 2, 9400
1, 140060, Pitch_bend_c, 3, 9400
1, 140080, Pitch_bend_c, 0, 9543
1, 140080, Pitch_bend_c, 1, 9543
1, 140080, Pitch_bend_c, 2, 9543
1, 140080, Pitch_bend_c, 3, 9543
1, 140080, Pitch_bend_c, 7, 7933
1, 140095, Pitch_bend_c, 0, 9830
1, 140095, Pitch_bend_c, 1, 9830
1, 140095, Pitch_bend_c, 2, 9830
1, 140095, Pitch_bend_c, 3, 9830
1, 140110, Pitch_bend_c, 0, 10110
1, 140110, Pitch_bend_c, 1, 10110
1, 140110, Pitch_bend_c, 2, 10110
1, 140110, Pitch_bend_c, 3, 10110
1, 140125, Pitch_bend_c, 0, 10253
1, 140125, Pitch_bend_c, 1, 10253
1, 140125, Pitch_bend_c, 2, 10253
1, 140125, Pitch_bend_c, 3, 10253
1, 140140, Pitch_bend_c, 0, 10397
1, 140140, Pitch_bend_c, 1, 10397
1, 140140, Pitch_bend_c, 2, 10397
1, 140140, Pitch_bend_c, 3, 10397
1, 140160, Note_on_c, 1, 35, 0
1, 140160, Note_on_c, 7, 83, 0
1, 140160, Note_on_c, 2, 83, 0
1, 140160, Note_on_c, 7, 71, 0
1, 140160, Note_on_c, 0, 47, 0
1, 140160, Note_on_c, 2, 59, 0
1, 140160, Note_on_c, 2, 71, 0
1, 140160, Note_on_c, 3, 47, 0
1, 140160, Note_on_c, 4, 67, 101
1, 140160, Note_on_c, 4, 79, 101
1, 140160, Note_on_c, 4, 71, 101
1, 140160, Note_on_c, 4, 83, 101
1, 140160, Note_on_c, 6, 71, 101
1, 140160, Note_on_c, 6, 55, 101
1, 140160, Note_on_c, 6, 67, 101
1, 140160, Note_on_c, 6, 59, 101
1, 140160, Note_on_c, 9, 42, 103
1, 140160, Note_on_c, 9, 35, 103
1, 140160, Control_c, 13, 7, 0
1, 140160, Pitch_bend_c, 13, 8192
1, 140160, Note_on_c, 13, 75, 63
1, 140160, Note_on_c, 13, 74, 63
1, 140160, Note_on_c, 13, 73, 63
1, 140160, Note_on_c, 13, 72, 63
1, 140160, Note_on_c, 13, 60, 63
1, 140160, Note_on_c, 13, 71, 63
1, 140160, Note_on_c, 13, 70, 63
1, 140160, Note_on_c, 13, 69, 63
1, 140160, Note_on_c, 13, 68, 63
1, 140160, Note_on_c, 13, 67, 63
1, 140160, Note_on_c, 13, 66, 63
1, 140160, Note_on_c, 13, 65, 63
1, 140160, Note_on_c, 13, 64, 63
1, 140160, Note_on_c, 13, 62, 63
1, 140160, Note_on_c, 13, 63, 63
1, 140160, Note_on_c, 13, 61, 63
1, 140280, Note_on_c, 9, 35, 0
1, 140280, Note_on_c, 9, 42, 0
1, 140400, Note_on_c, 6, 67, 0
1, 140400, Note_on_c, 4, 67, 0
1, 140400, Note_on_c, 4, 83, 0
1, 140400, Note_on_c, 6, 59, 0
1, 140400, Note_on_c, 4, 71, 0
1, 140400, Note_on_c, 6, 55, 0
1, 140400, Note_on_c, 4, 79, 0
1, 140400, Note_on_c, 6, 71, 0
1, 140400, Note_on_c, 9, 42, 73
1, 140520, Note_on_c, 9, 42, 0
1, 140520, Note_on_c, 4, 67, 101
1, 140520, Note_on_c, 4, 79, 101
1, 140520, Note_on_c, 4, 71, 101
1, 140520, Note_on_c, 4, 83, 101
1, 140520, Note_on_c, 6, 71, 101
1, 140520, Note_on_c, 6, 59, 101
1, 140520, Note_on_c, 6, 67, 101
1, 140520, Note_on_c, 6, 55, 101
1, 140640, Note_on_c, 9, 42, 73
1, 140640, Note_on_c, 9, 28, 102
1, 140640, Note_on_c, 9, 35, 103
1, 140640, Note_on_c, 9, 40, 91
1, 140760, Note_on_c, 9, 40, 0
1, 140760, Note_on_c, 6, 59, 0
1, 140760, Note_on_c, 6, 67, 0
1, 140760, Note_on_c, 4, 67, 0
1, 140760, Note_on_c, 6, 71, 0
1, 140760, Note_on_c, 4, 79, 0
1, 140760, Note_on_c, 4, 83, 0
1, 140760, Note_on_c, 4, 71, 0
1, 140760, Note_on_c, 9, 35, 0
1, 140760, Note_on_c, 9, 42, 0
1, 140760, Note_on_c, 6, 55, 0
1, 140760, Note_on_c, 9, 28, 0
1, 140880, Note_on_c, 4, 83, 101
1, 140880, Note_on_c, 4, 71, 101
1, 140880, Note_on_c, 4, 79, 101
1, 140880, Note_on_c, 4, 67, 101
1, 140880, Note_on_c, 6, 71, 101
1, 140880, Note_on_c, 6, 59, 101
1, 140880, Note_on_c, 6, 67, 101
1, 140880, Note_on_c, 6, 55, 101
1, 141120, Note_on_c, 6, 55, 0
1, 141120, Note_on_c, 6, 59, 0
1, 141120, Note_on_c, 4, 79, 0
1, 141120, Note_on_c, 4, 83, 0
1, 141120, Note_on_c, 6, 71, 0
1, 141120, Note_on_c, 4, 71, 0
1, 141120, Note_on_c, 4, 67, 0
1, 141120, Note_on_c, 6, 67, 0
1, 141120, Note_on_c, 4, 69, 101
1, 141120, Note_on_c, 4, 81, 101
1, 141120, Note_on_c, 4, 73, 101
1, 141120, Note_on_c, 4, 85, 101
1, 141120, Note_on_c, 6, 73, 101
1, 141120, Note_on_c, 6, 61, 101
1, 141120, Note_on_c, 6, 69, 101
1, 141120, Note_on_c, 6, 57, 101
1, 141120, Note_on_c, 8, 52, 127
1, 141120, Note_on_c, 9, 41, 127
1, 141120, Note_on_c, 12, 60, 103
1, 141240, Note_on_c, 9, 41, 0
1, 141360, Note_on_c, 6, 61, 0
1, 141360, Note_on_c, 4, 69, 0
1, 141360, Note_on_c, 6, 73, 0
1, 141360, Note_on_c, 4, 81, 0
1, 141360, Note_on_c, 4, 85, 0
1, 141360, Note_on_c, 4, 73, 0
1, 141360, Note_on_c, 6, 57, 0
1, 141360, Note_on_c, 6, 69, 0
1, 141480, Note_on_c, 4, 85, 101
1, 141480, Note_on_c, 4, 73, 101
1, 141480, Note_on_c, 4, 81, 101
1, 141480, Note_on_c, 4, 69, 101
1, 141480, Note_on_c, 6, 73, 101
1, 141480, Note_on_c, 6, 61, 101
1, 141480, Note_on_c, 6, 69, 101
1, 141480, Note_on_c, 6, 57, 101
1, 141480, Note_on_c, 9, 44, 80
1, 141480, Note_on_c, 9, 38, 80
1, 141600, Note_on_c, 9, 38, 0
1, 141600, Note_on_c, 9, 44, 0
1, 141600, Note_on_c, 9, 38, 80
1, 141720, Note_on_c, 9, 38, 0
1, 141720, Note_on_c, 6, 73, 0
1, 141720, Note_on_c, 4, 81, 0
1, 141720, Note_on_c, 4, 73, 0
1, 141720, Note_on_c, 4, 85, 0
1, 141720, Note_on_c, 4, 69, 0
1, 141720, Note_on_c, 6, 69, 0
1, 141720, Note_on_c, 6, 61, 0
1, 141720, Note_on_c, 6, 57, 0
1, 141840, Note_on_c, 8, 52, 0
1, 141840, Note_on_c, 4, 69, 101
1, 141840, Note_on_c, 4, 81, 101
1, 141840, Note_on_c, 4, 73, 101
1, 141840, Note_on_c, 4, 85, 101
1, 141840, Note_on_c, 6, 73, 101
1, 141840, Note_on_c, 6, 61, 101
1, 141840, Note_on_c, 6, 69, 101
1, 141840, Note_on_c, 6, 57, 101
1, 141840, Note_on_c, 8, 56, 127
1, 141840, Note_on_c, 9, 43, 127
1, 141960, Note_on_c, 9, 43, 0
1, 142080, Note_on_c, 6, 61, 0
1, 142080, Note_on_c, 6, 73, 0
1, 142080, Note_on_c, 4, 85, 0
1, 142080, Note_on_c, 4, 69, 0
1, 142080, Note_on_c, 4, 73, 0
1, 142080, Note_on_c, 4, 81, 0
1, 142080, Note_on_c, 8, 56, 0
1, 142080, Note_on_c, 6, 57, 0
1, 142080, Note_on_c, 6, 69, 0
1, 142080, Pitch_bend_c, 4, 8192
1, 142080, Note_on_c, 4, 83, 101
1, 142080, Note_on_c, 4, 79, 101
1, 142080, Note_on_c, 4, 67, 101
1, 142080, Note_on_c, 4, 71, 101
1, 142080, Pitch_bend_c, 6, 8192
1, 142080, Note_on_c, 6, 71, 101
1, 142080, Note_on_c, 6, 59, 101
1, 142080, Note_on_c, 6, 55, 101
1, 142080, Note_on_c, 6, 67, 101
1, 142080, Note_on_c, 9, 57, 103
1, 142080, Note_on_c, 9, 52, 127
1, 142080, Note_on_c, 9, 49, 103
1, 142080, Note_on_c, 9, 35, 103
1, 142080, Note_on_c, 9, 39, 127
1, 142080, Control_c, 13, 7, 127
1, 142140, Control_c, 13, 7, 127
1, 142200, Note_on_c, 9, 39, 0
1, 142200, Note_on_c, 9, 35, 0
1, 142200, Note_on_c, 12, 60, 0
1, 142200, Control_c, 13, 7, 125
1, 142260, Control_c, 13, 7, 124
1, 142320, Note_on_c, 6, 59, 0
1, 142320, Note_on_c, 4, 83, 0
1, 142320, Note_on_c, 6, 71, 0
1, 142320, Note_on_c, 4, 79, 0
1, 142320, Note_on_c, 4, 71, 0
1, 142320, Note_on_c, 4, 67, 0
1, 142320, Note_on_c, 6, 55, 0
1, 142320, Note_on_c, 6, 67, 0
1, 142320, Control_c, 13, 7, 121
1, 142380, Control_c, 13, 7, 119
1, 142440, Note_on_c, 4, 83, 101
1, 142440, Note_on_c, 4, 79, 101
1, 142440, Note_on_c, 4, 71, 101
1, 142440, Note_on_c, 4, 67, 101
1, 142440, Note_on_c, 6, 71, 101
1, 142440, Note_on_c, 6, 55, 101
1, 142440, Note_on_c, 6, 59, 101
1, 142440, Note_on_c, 6, 67, 101
1, 142440, Control_c, 13, 7, 117
1, 142500, Control_c, 13, 7, 114
1, 142560, Note_on_c, 9, 35, 103
1, 142560, Note_on_c, 9, 39, 127
1, 142560, Control_c, 13, 7, 112
1, 142620, Control_c, 13, 7, 110
1, 142680, Note_on_c, 9, 39, 0
1, 142680, Note_on_c, 4, 71, 0
1, 142680, Note_on_c, 4, 79, 0
1, 142680, Note_on_c, 4, 67, 0
1, 142680, Note_on_c, 4, 83, 0
1, 142680, Note_on_c, 9, 35, 0
1, 142680, Note_on_c, 6, 55, 0
1, 142680, Note_on_c, 6, 71, 0
1, 142680, Note_on_c, 6, 67, 0
1, 142680, Note_on_c, 6, 59, 0
1, 142680, Control_c, 13, 7, 108
1, 142740, Control_c, 13, 7, 106
1, 142800, Note_on_c, 4, 83, 101
1, 142800, Note_on_c, 4, 79, 101
1, 142800, Note_on_c, 4, 67, 101
1, 142800, Note_on_c, 4, 71, 101
1, 142800, Note_on_c, 6, 71, 101
1, 142800, Note_on_c, 6, 59, 101
1, 142800, Note_on_c, 6, 55, 101
1, 142800, Note_on_c, 6, 67, 101
1, 142800, Control_c, 13, 7, 105
1, 142860, Control_c, 13, 7, 103
1, 142920, Control_c, 13, 7, 101
1, 142980, Control_c, 13, 7, 99
1, 143040, Note_on_c, 6, 67, 0
1, 143040, Note_on_c, 4, 71, 0
1, 143040, Note_on_c, 4, 67, 0
1, 143040, Note_on_c, 4, 79, 0
1, 143040, Note_on_c, 4, 83, 0
1, 143040, Note_on_c, 6, 55, 0
1, 143040, Note_on_c, 6, 59, 0
1, 143040, Note_on_c, 6, 71, 0
1, 143040, Note_on_c, 9, 35, 103
1, 143040, Note_on_c, 9, 39, 127
1, 143040, Control_c, 13, 7, 96
1, 143100, Control_c, 13, 7, 95
1, 143160, Note_on_c, 9, 39, 0
1, 143160, Note_on_c, 9, 35, 0
1, 143160, Note_on_c, 4, 83, 101
1, 143160, Note_on_c, 4, 79, 101
1, 143160, Note_on_c, 4, 67, 101
1, 143160, Note_on_c, 4, 71, 101
1, 143160, Note_on_c, 6, 71, 101
1, 143160, Note_on_c, 6, 59, 101
1, 143160, Note_on_c, 6, 55, 101
1, 143160, Note_on_c, 6, 67, 101
1, 143160, Control_c, 13, 7, 92
1, 143220, Control_c, 13, 7, 91
1, 143280, Control_c, 13, 7, 90
1, 143340, Control_c, 13, 7, 88
1, 143400, Note_on_c, 6, 67, 0
1, 143400, Note_on_c, 4, 71, 0
1, 143400, Note_on_c, 4, 67, 0
1, 143400, Note_on_c, 4, 79, 0
1, 143400, Note_on_c, 4, 83, 0
1, 143400, Note_on_c, 6, 55, 0
1, 143400, Note_on_c, 6, 59, 0
1, 143400, Note_on_c, 6, 71, 0
1, 143400, Control_c, 13, 7, 86
1, 143460, Control_c, 13, 7, 83
1, 143520, Note_on_c, 4, 83, 101
1, 143520, Note_on_c, 4, 79, 101
1, 143520, Note_on_c, 4, 71, 101
1, 143520, Note_on_c, 4, 67, 101
1, 143520, Note_on_c, 6, 71, 101
1, 143520, Note_on_c, 6, 55, 101
1, 143520, Note_on_c, 6, 59, 101
1, 143520, Note_on_c, 6, 67, 101
1, 143520, Note_on_c, 9, 35, 103
1, 143520, Note_on_c, 9, 39, 127
1, 143520, Control_c, 13, 7, 82
1, 143535, Pitch_bend_c, 4, 8049
1, 143535, Pitch_bend_c, 6, 8049
1, 143550, Pitch_bend_c, 4, 7756
1, 143550, Pitch_bend_c, 6, 7756
1, 143565, Pitch_bend_c, 4, 7612
1, 143565, Pitch_bend_c, 6, 7612
1, 143580, Pitch_bend_c, 4, 7175
1, 143580, Pitch_bend_c, 6, 7175
1, 143580, Control_c, 13, 7, 80
1, 143600, Pitch_bend_c, 4, 6841
1, 143600, Pitch_bend_c, 6, 6841
1, 143615, Pitch_bend_c, 4, 6418
1, 143615, Pitch_bend_c, 6, 6418
1, 143630, Pitch_bend_c, 4, 5803
1, 143630, Pitch_bend_c, 6, 5803
1, 143640, Note_on_c, 9, 39, 0
1, 143640, Note_on_c, 9, 35, 0
1, 143640, Control_c, 13, 7, 77
1, 143645, Pitch_bend_c, 4, 5380
1, 143645, Pitch_bend_c, 6, 5380
1, 143660, Pitch_bend_c, 4, 4820
1, 143660, Pitch_bend_c, 6, 4820
1, 143680, Pitch_bend_c, 4, 4219
1, 143680, Pitch_bend_c, 6, 4219
1, 143695, Pitch_bend_c, 4, 3810
1, 143695, Pitch_bend_c, 6, 3810
1, 143700, Control_c, 13, 7, 76
1, 143710, Pitch_bend_c, 4, 3223
1, 143710, Pitch_bend_c, 6, 3223
1, 143725, Pitch_bend_c, 4, 2820
1, 143725, Pitch_bend_c, 6, 2820
1, 143740, Pitch_bend_c, 4, 2369
1, 143740, Pitch_bend_c, 6, 2369
1, 143760, Pitch_bend_c, 4, 1837
1, 143760, Pitch_bend_c, 6, 1837
1, 143760, Control_c, 13, 7, 74
1, 143775, Pitch_bend_c, 4, 1577
1, 143775, Pitch_bend_c, 6, 1577
1, 143790, Pitch_bend_c, 4, 1134
1, 143790, Pitch_bend_c, 6, 1134
1, 143805, Pitch_bend_c, 4, 874
1, 143805, Pitch_bend_c, 6, 874
1, 143820, Pitch_bend_c, 4, 615
1, 143820, Pitch_bend_c, 6, 615
1, 143820, Control_c, 13, 7, 71
1, 143840, Pitch_bend_c, 4, 355
1, 143840, Pitch_bend_c, 6, 355
1, 143855, Pitch_bend_c, 4, 55
1, 143855, Pitch_bend_c, 6, 55
1, 143870, Pitch_bend_c, 4, 0
1, 143870, Pitch_bend_c, 6, 0
1, 143880, Control_c, 13, 7, 69
1, 143885, Pitch_bend_c, 4, 0
1, 143885, Pitch_bend_c, 6, 0
1, 143900, Pitch_bend_c, 4, 0
1, 143900, Pitch_bend_c, 6, 0
1, 143920, Pitch_bend_c, 4, 0
1, 143920, Pitch_bend_c, 6, 0
1, 143935, Pitch_bend_c, 4, 0
1, 143935, Pitch_bend_c, 6, 0
1, 143940, Control_c, 13, 7, 68
1, 143965, Pitch_bend_c, 4, 0
1, 143965, Pitch_bend_c, 6, 0
1, 144000, Note_on_c, 4, 71, 0
1, 144000, Note_on_c, 4, 79, 0
1, 144000, Note_on_c, 4, 83, 0
1, 144000, Note_on_c, 6, 55, 0
1, 144000, Note_on_c, 6, 71, 0
1, 144000, Note_on_c, 4, 67, 0
1, 144000, Note_on_c, 6, 67, 0
1, 144000, Note_on_c, 6, 59, 0
1, 144000, Pitch_bend_c, 4, 8192
1, 144000, Note_on_c, 4, 85, 101
1, 144000, Note_on_c, 4, 81, 101
1, 144000, Note_on_c, 4, 73, 101
1, 144000, Note_on_c, 4, 69, 101
1, 144000, Pitch_bend_c, 6, 8192
1, 144000, Note_on_c, 6, 73, 101
1, 144000, Note_on_c, 6, 57, 101
1, 144000, Note_on_c, 6, 61, 101
1, 144000, Note_on_c, 6, 69, 101
1, 144000, Note_on_c, 9, 35, 103
1, 144000, Note_on_c, 9, 39, 127
1, 144000, Control_c, 13, 7, 66
1, 144060, Control_c, 13, 7, 63
1, 144120, Note_on_c, 9, 39, 0
1, 144120, Note_on_c, 9, 35, 0
1, 144120, Control_c, 13, 7, 60
1, 144180, Control_c, 13, 7, 59
1, 144240, Note_on_c, 4, 73, 0
1, 144240, Note_on_c, 4, 81, 0
1, 144240, Note_on_c, 4, 85, 0
1, 144240, Note_on_c, 6, 57, 0
1, 144240, Note_on_c, 6, 73, 0
1, 144240, Note_on_c, 4, 69, 0
1, 144240, Note_on_c, 6, 69, 0
1, 144240, Note_on_c, 6, 61, 0
1, 144240, Control_c, 13, 7, 57
1, 144300, Control_c, 13, 7, 55
1, 144360, Note_on_c, 4, 85, 101
1, 144360, Note_on_c, 4, 81, 101
1, 144360, Note_on_c, 4, 73, 101
1, 144360, Note_on_c, 4, 69, 101
1, 144360, Note_on_c, 6, 73, 101
1, 144360, Note_on_c, 6, 57, 101
1, 144360, Note_on_c, 6, 61, 101
1, 144360, Note_on_c, 6, 69, 101
1, 144360, Control_c, 13, 7, 52
1, 144420, Control_c, 13, 7, 50
1, 144480, Note_on_c, 9, 35, 103
1, 144480, Note_on_c, 9, 39, 127
1, 144480, Control_c, 13, 7, 48
1, 144540, Control_c, 13, 7, 47
1, 144600, Note_on_c, 9, 39, 0
1, 144600, Note_on_c, 4, 73, 0
1, 144600, Note_on_c, 4, 81, 0
1, 144600, Note_on_c, 4, 69, 0
1, 144600, Note_on_c, 4, 85, 0
1, 144600, Note_on_c, 9, 35, 0
1, 144600, Note_on_c, 6, 57, 0
1, 144600, Note_on_c, 6, 73, 0
1, 144600, Note_on_c, 6, 69, 0
1, 144600, Note_on_c, 6, 61, 0
1, 144600, Control_c, 13, 7, 45
1, 144660, Control_c, 13, 7, 44
1, 144720, Note_on_c, 4, 85, 101
1, 144720, Note_on_c, 4, 81, 101
1, 144720, Note_on_c, 4, 69, 101
1, 144720, Note_on_c, 4, 73, 101
1, 144720, Note_on_c, 6, 73, 101
1, 144720, Note_on_c, 6, 61, 101
1, 144720, Note_on_c, 6, 57, 101
1, 144720, Note_on_c, 6, 69, 101
1, 144720, Control_c, 13, 7, 42
1, 144780, Control_c, 13, 7, 41
1, 144840, Control_c, 13, 7, 38
1, 144900, Control_c, 13, 7, 36
1, 144960, Note_on_c, 6, 69, 0
1, 144960, Note_on_c, 4, 73, 0
1, 144960, Note_on_c, 4, 69, 0
1, 144960, Note_on_c, 4, 81, 0
1, 144960, Note_on_c, 4, 85, 0
1, 144960, Note_on_c, 6, 57, 0
1, 144960, Note_on_c, 6, 61, 0
1, 144960, Note_on_c, 6, 73, 0
1, 144960, Note_on_c, 9, 35, 103
1, 144960, Note_on_c, 9, 39, 127
1, 144960, Control_c, 13, 7, 34
1, 145020, Control_c, 13, 7, 33
1, 145080, Note_on_c, 9, 39, 0
1, 145080, Note_on_c, 9, 35, 0
1, 145080, Note_on_c, 4, 85, 101
1, 145080, Note_on_c, 4, 81, 101
1, 145080, Note_on_c, 4, 69, 101
1, 145080, Note_on_c, 4, 73, 101
1, 145080, Note_on_c, 6, 73, 101
1, 145080, Note_on_c, 6, 61, 101
1, 145080, Note_on_c, 6, 57, 101
1, 145080, Note_on_c, 6, 69, 101
1, 145080, Control_c, 13, 7, 31
1, 145140, Control_c, 13, 7, 29
1, 145200, Control_c, 13, 7, 29
1, 145260, Control_c, 13, 7, 26
1, 145320, Note_on_c, 6, 69, 0
1, 145320, Note_on_c, 4, 73, 0
1, 145320, Note_on_c, 4, 69, 0
1, 145320, Note_on_c, 4, 81, 0
1, 145320, Note_on_c, 4, 85, 0
1, 145320, Note_on_c, 6, 57, 0
1, 145320, Note_on_c, 6, 61, 0
1, 145320, Note_on_c, 6, 73, 0
1, 145320, Control_c, 13, 7, 24
1, 145380, Control_c, 13, 7, 21
1, 145440, Note_on_c, 4, 85, 101
1, 145440, Note_on_c, 4, 81, 101
1, 145440, Note_on_c, 4, 69, 101
1, 145440, Note_on_c, 4, 73, 101
1, 145440, Note_on_c, 6, 73, 101
1, 145440, Note_on_c, 6, 61, 101
1, 145440, Note_on_c, 6, 57, 101
1, 145440, Note_on_c, 6, 69, 101
1, 145440, Note_on_c, 9, 35, 103
1, 145440, Note_on_c, 9, 39, 127
1, 145440, Control_c, 13, 7, 19
1, 145500, Control_c, 13, 7, 17
1, 145560, Note_on_c, 9, 39, 0
1, 145560, Note_on_c, 9, 35, 0
1, 145560, Control_c, 13, 7, 15
1, 145620, Note_on_c, 4, 69, 0
1, 145620, Note_on_c, 4, 81, 0
1, 145620, Note_on_c, 4, 85, 0
1, 145620, Note_on_c, 6, 61, 0
1, 145620, Note_on_c, 6, 73, 0
1, 145620, Note_on_c, 4, 73, 0
1, 145620, Note_on_c, 6, 69, 0
1, 145620, Note_on_c, 6, 57, 0
1, 145620, Control_c, 13, 7, 13
1, 145680, Note_on_c, 4, 85, 101
1, 145680, Note_on_c, 4, 69, 101
1, 145680, Note_on_c, 4, 73, 101
1, 145680, Note_on_c, 4, 81, 101
1, 145680, Note_on_c, 6, 73, 101
1, 145680, Note_on_c, 6, 69, 101
1, 145680, Note_on_c, 6, 61, 101
1, 145680, Note_on_c, 6, 57, 101
1, 145680, Control_c, 13, 7, 11
1, 145740, Control_c, 13, 7, 9
1, 145800, Control_c, 13, 7, 8
1, 145860, Note_on_c, 6, 57, 0
1, 145860, Note_on_c, 4, 81, 0
1, 145860, Note_on_c, 4, 73, 0
1, 145860, Note_on_c, 4, 69, 0
1, 145860, Note_on_c, 4, 85, 0
1, 145860, Note_on_c, 6, 61, 0
1, 145860, Note_on_c, 6, 69, 0
1, 145860, Note_on_c, 6, 73, 0
1, 145860, Control_c, 13, 7, 6
1, 145920, Note_on_c, 9, 57, 0
1, 145920, Note_on_c, 13, 61, 0
1, 145920, Note_on_c, 13, 74, 0
1, 145920, Note_on_c, 13, 72, 0
1, 145920, Note_on_c, 13, 71, 0
1, 145920, Note_on_c, 13, 60, 0
1, 145920, Note_on_c, 13, 63, 0
1, 145920, Note_on_c, 13, 64, 0
1, 145920, Note_on_c, 13, 68, 0
1, 145920, Note_on_c, 13, 73, 0
1, 145920, Note_on_c, 9, 49, 0
1, 145920, Note_on_c, 13, 67, 0
1, 145920, Note_on_c, 13, 69, 0
1, 145920, Note_on_c, 9, 52, 0
1, 145920, Note_on_c, 13, 75, 0
1, 145920, Note_on_c, 13, 66, 0
1, 145920, Note_on_c, 13, 70, 0
1, 145920, Note_on_c, 13, 65, 0
1, 145920, Note_on_c, 13, 62, 0
1, 145920, Note_on_c, 4, 87, 101
1, 145920, Note_on_c, 4, 75, 101
1, 145920, Note_on_c, 4, 71, 101
1, 145920, Note_on_c, 4, 83, 101
1, 145920, Note_on_c, 6, 75, 101
1, 145920, Note_on_c, 6, 71, 101
1, 145920, Note_on_c, 6, 59, 101
1, 145920, Note_on_c, 6, 63, 101
1, 145920, Note_on_c, 9, 35, 103
1, 145920, Note_on_c, 9, 39, 127
1, 145920, Control_c, 13, 7, 0
1, 146040, Note_on_c, 9, 39, 0
1, 146040, Note_on_c, 9, 35, 0
1, 146160, Note_on_c, 4, 83, 0
1, 146160, Note_on_c, 4, 87, 0
1, 146160, Note_on_c, 6, 75, 0
1, 146160, Note_on_c, 4, 75, 0
1, 146160, Note_on_c, 6, 63, 0
1, 146160, Note_on_c, 6, 59, 0
1, 146160, Note_on_c, 6, 71, 0
1, 146160, Note_on_c, 4, 71, 0
1, 146280, Note_on_c, 4, 87, 101
1, 146280, Note_on_c, 4, 83, 101
1, 146280, Note_on_c, 4, 71, 101
1, 146280, Note_on_c, 4, 75, 101
1, 146280, Note_on_c, 6, 75, 101
1, 146280, Note_on_c, 6, 63, 101
1, 146280, Note_on_c, 6, 59, 101
1, 146280, Note_on_c, 6, 71, 101
1, 146400, Note_on_c, 9, 35, 103
1, 146400, Note_on_c, 9, 39, 127
1, 146520, Note_on_c, 9, 39, 0
1, 146520, Note_on_c, 4, 71, 0
1, 146520, Note_on_c, 4, 75, 0
1, 146520, Note_on_c, 4, 87, 0
1, 146520, Note_on_c, 6, 75, 0
1, 146520, Note_on_c, 4, 83, 0
1, 146520, Note_on_c, 6, 71, 0
1, 146520, Note_on_c, 6, 59, 0
1, 146520, Note_on_c, 6, 63, 0
1, 146520, Note_on_c, 9, 35, 0
1, 146640, Note_on_c, 4, 87, 101
1, 146640, Note_on_c, 4, 83, 101
1, 146640, Note_on_c, 4, 71, 101
1, 146640, Note_on_c, 4, 75, 101
1, 146640, Note_on_c, 6, 75, 101
1, 146640, Note_on_c, 6, 63, 101
1, 146640, Note_on_c, 6, 59, 101
1, 146640, Note_on_c, 6, 71, 101
1, 146880, Note_on_c, 6, 71, 0
1, 146880, Note_on_c, 4, 87, 0
1, 146880, Note_on_c, 6, 75, 0
1, 146880, Note_on_c, 4, 83, 0
1, 146880, Note_on_c, 4, 71, 0
1, 146880, Note_on_c, 4, 75, 0
1, 146880, Note_on_c, 6, 63, 0
1, 146880, Note_on_c, 6, 59, 0
1, 146880, Note_on_c, 9, 35, 103
1, 146880, Note_on_c, 9, 39, 127
1, 147000, Note_on_c, 9, 39, 0
1, 147000, Note_on_c, 9, 35, 0
1, 147000, Note_on_c, 4, 87, 101
1, 147000, Note_on_c, 4, 83, 101
1, 147000, Note_on_c, 4, 71, 101
1, 147000, Note_on_c, 4, 75, 101
1, 147000, Note_on_c, 6, 75, 101
1, 147000, Note_on_c, 6, 63, 101
1, 147000, Note_on_c, 6, 59, 101
1, 147000, Note_on_c, 6, 71, 101
1, 147240, Note_on_c, 6, 71, 0
1, 147240, Note_on_c, 4, 87, 0
1, 147240, Note_on_c, 6, 75, 0
1, 147240, Note_on_c, 4, 83, 0
1, 147240, Note_on_c, 4, 71, 0
1, 147240, Note_on_c, 4, 75, 0
1, 147240, Note_on_c, 6, 63, 0
1, 147240, Note_on_c, 6, 59, 0
1, 147360, Note_on_c, 4, 87, 101
1, 147360, Note_on_c, 4, 83, 101
1, 147360, Note_on_c, 4, 71, 101
1, 147360, Note_on_c, 4, 75, 101
1, 147360, Note_on_c, 6, 75, 101
1, 147360, Note_on_c, 6, 63, 101
1, 147360, Note_on_c, 6, 59, 101
1, 147360, Note_on_c, 6, 71, 101
1, 147360, Note_on_c, 9, 35, 103
1, 147360, Note_on_c, 9, 39, 127
1, 147385, Pitch_bend_c, 4, 8049
1, 147385, Pitch_bend_c, 6, 8049
1, 147400, Pitch_bend_c, 4, 7756
1, 147400, Pitch_bend_c, 6, 7756
1, 147415, Pitch_bend_c, 4, 7612
1, 147415, Pitch_bend_c, 6, 7612
1, 147430, Pitch_bend_c, 4, 7175
1, 147430, Pitch_bend_c, 6, 7175
1, 147450, Pitch_bend_c, 4, 6841
1, 147450, Pitch_bend_c, 6, 6841
1, 147465, Pitch_bend_c, 4, 6418
1, 147465, Pitch_bend_c, 6, 6418
1, 147480, Note_on_c, 9, 39, 0
1, 147480, Note_on_c, 9, 35, 0
1, 147480, Pitch_bend_c, 4, 5803
1, 147480, Pitch_bend_c, 6, 5803
1, 147495, Pitch_bend_c, 4, 5380
1, 147495, Pitch_bend_c, 6, 5380
1, 147510, Pitch_bend_c, 4, 4820
1, 147510, Pitch_bend_c, 6, 4820
1, 147530, Pitch_bend_c, 4, 4219
1, 147530, Pitch_bend_c, 6, 4219
1, 147545, Pitch_bend_c, 4, 3810
1, 147545, Pitch_bend_c, 6, 3810
1, 147560, Pitch_bend_c, 4, 3223
1, 147560, Pitch_bend_c, 6, 3223
1, 147575, Pitch_bend_c, 4, 2820
1, 147575, Pitch_bend_c, 6, 2820
1, 147590, Pitch_bend_c, 4, 2369
1, 147590, Pitch_bend_c, 6, 2369
1, 147610, Pitch_bend_c, 4, 1837
1, 147610, Pitch_bend_c, 6, 1837
1, 147625, Pitch_bend_c, 4, 1577
1, 147625, Pitch_bend_c, 6, 1577
1, 147640, Pitch_bend_c, 4, 1134
1, 147640, Pitch_bend_c, 6, 1134
1, 147655, Pitch_bend_c, 4, 874
1, 147655, Pitch_bend_c, 6, 874
1, 147670, Pitch_bend_c, 4, 615
1, 147670, Pitch_bend_c, 6, 615
1, 147690, Pitch_bend_c, 4, 355
1, 147690, Pitch_bend_c, 6, 355
1, 147705, Pitch_bend_c, 4, 55
1, 147705, Pitch_bend_c, 6, 55
1, 147720, Pitch_bend_c, 4, 0
1, 147720, Pitch_bend_c, 6, 0
1, 147735, Pitch_bend_c, 4, 0
1, 147735, Pitch_bend_c, 6, 0
1, 147750, Pitch_bend_c, 4, 0
1, 147750, Pitch_bend_c, 6, 0
1, 147770, Pitch_bend_c, 4, 0
1, 147770, Pitch_bend_c, 6, 0
1, 147785, Pitch_bend_c, 4, 0
1, 147785, Pitch_bend_c, 6, 0
1, 147815, Pitch_bend_c, 4, 0
1, 147815, Pitch_bend_c, 6, 0
1, 147840, Note_on_c, 4, 75, 0
1, 147840, Note_on_c, 4, 87, 0
1, 147840, Note_on_c, 6, 75, 0
1, 147840, Note_on_c, 4, 83, 0
1, 147840, Note_on_c, 6, 71, 0
1, 147840, Note_on_c, 6, 59, 0
1, 147840, Note_on_c, 6, 63, 0
1, 147840, Note_on_c, 4, 71, 0
1, 147840, Note_on_c, 4, 87, 101
1, 147840, Note_on_c, 4, 83, 101
1, 147840, Note_on_c, 4, 75, 101
1, 147840, Note_on_c, 4, 71, 101
1, 147840, Note_on_c, 6, 75, 101
1, 147840, Note_on_c, 6, 59, 101
1, 147840, Note_on_c, 6, 63, 101
1, 147840, Note_on_c, 6, 71, 101
1, 147840, Note_on_c, 9, 35, 103
1, 147840, Note_on_c, 9, 39, 127
1, 147840, Control_c, 13, 7, 0
1, 147840, Pitch_bend_c, 13, 8192
1, 147840, Note_on_c, 13, 75, 63
1, 147840, Note_on_c, 13, 74, 63
1, 147840, Note_on_c, 13, 73, 63
1, 147840, Note_on_c, 13, 72, 63
1, 147840, Note_on_c, 13, 60, 63
1, 147840, Note_on_c, 13, 71, 63
1, 147840, Note_on_c, 13, 70, 63
1, 147840, Note_on_c, 13, 69, 63
1, 147840, Note_on_c, 13, 68, 63
1, 147840, Note_on_c, 13, 67, 63
1, 147840, Note_on_c, 13, 66, 63
1, 147840, Note_on_c, 13, 65, 63
1, 147840, Note_on_c, 13, 64, 63
1, 147840, Note_on_c, 13, 62, 63
1, 147840, Note_on_c, 13, 63, 63
1, 147840, Note_on_c, 13, 61, 63
1, 147850, Pitch_bend_c, 4, 8192
1, 147850, Pitch_bend_c, 6, 8192
1, 147960, Note_on_c, 9, 39, 0
1, 147960, Note_on_c, 9, 35, 0
1, 148080, Note_on_c, 6, 63, 0
1, 148080, Note_on_c, 4, 87, 0
1, 148080, Note_on_c, 4, 71, 0
1, 148080, Note_on_c, 6, 71, 0
1, 148080, Note_on_c, 4, 75, 0
1, 148080, Note_on_c, 6, 59, 0
1, 148080, Note_on_c, 4, 83, 0
1, 148080, Note_on_c, 6, 75, 0
1, 148200, Note_on_c, 4, 87, 101
1, 148200, Note_on_c, 4, 83, 101
1, 148200, Note_on_c, 4, 71, 101
1, 148200, Note_on_c, 4, 75, 101
1, 148200, Note_on_c, 6, 75, 101
1, 148200, Note_on_c, 6, 63, 101
1, 148200, Note_on_c, 6, 59, 101
1, 148200, Note_on_c, 6, 71, 101
1, 148320, Note_on_c, 9, 35, 103
1, 148320, Note_on_c, 9, 39, 127
1, 148440, Note_on_c, 9, 39, 0
1, 148440, Note_on_c, 6, 63, 0
1, 148440, Note_on_c, 4, 87, 0
1, 148440, Note_on_c, 6, 75, 0
1, 148440, Note_on_c, 4, 83, 0
1, 148440, Note_on_c, 4, 75, 0
1, 148440, Note_on_c, 4, 71, 0
1, 148440, Note_on_c, 9, 35, 0
1, 148440, Note_on_c, 6, 71, 0
1, 148440, Note_on_c, 6, 59, 0
1, 148560, Note_on_c, 4, 87, 101
1, 148560, Note_on_c, 4, 83, 101
1, 148560, Note_on_c, 4, 75, 101
1, 148560, Note_on_c, 4, 71, 101
1, 148560, Note_on_c, 6, 75, 101
1, 148560, Note_on_c, 6, 59, 101
1, 148560, Note_on_c, 6, 63, 101
1, 148560, Note_on_c, 6, 71, 101
1, 148800, Note_on_c, 6, 71, 0
1, 148800, Note_on_c, 6, 59, 0
1, 148800, Note_on_c, 4, 75, 0
1, 148800, Note_on_c, 4, 87, 0
1, 148800, Note_on_c, 6, 75, 0
1, 148800, Note_on_c, 4, 83, 0
1, 148800, Note_on_c, 4, 71, 0
1, 148800, Note_on_c, 6, 63, 0
1, 148800, Note_on_c, 4, 85, 101
1, 148800, Note_on_c, 4, 73, 101
1, 148800, Note_on_c, 4, 69, 101
1, 148800, Note_on_c, 4, 81, 101
1, 148800, Note_on_c, 6, 73, 101
1, 148800, Note_on_c, 6, 69, 101
1, 148800, Note_on_c, 6, 57, 101
1, 148800, Note_on_c, 6, 61, 101
1, 148800, Note_on_c, 9, 35, 103
1, 148800, Note_on_c, 9, 39, 127
1, 148920, Note_on_c, 9, 39, 0
1, 148920, Note_on_c, 9, 35, 0
1, 148980, Note_on_c, 6, 69, 0
1, 148980, Note_on_c, 4, 85, 0
1, 148980, Note_on_c, 4, 69, 0
1, 148980, Note_on_c, 6, 73, 0
1, 148980, Note_on_c, 4, 73, 0
1, 148980, Note_on_c, 4, 81, 0
1, 148980, Note_on_c, 6, 61, 0
1, 148980, Note_on_c, 6, 57, 0
1, 149040, Note_on_c, 4, 85, 101
1, 149040, Note_on_c, 4, 69, 101
1, 149040, Note_on_c, 4, 73, 101
1, 149040, Note_on_c, 4, 81, 101
1, 149040, Note_on_c, 6, 73, 101
1, 149040, Note_on_c, 6, 69, 101
1, 149040, Note_on_c, 6, 61, 101
1, 149040, Note_on_c, 6, 57, 101
1, 149220, Note_on_c, 6, 57, 0
1, 149220, Note_on_c, 6, 69, 0
1, 149220, Note_on_c, 4, 73, 0
1, 149220, Note_on_c, 4, 85, 0
1, 149220, Note_on_c, 6, 73, 0
1, 149220, Note_on_c, 4, 69, 0
1, 149220, Note_on_c, 4, 81, 0
1, 149220, Note_on_c, 6, 61, 0
1, 149280, Note_on_c, 4, 87, 101
1, 149280, Note_on_c, 4, 71, 101
1, 149280, Note_on_c, 4, 75, 101
1, 149280, Note_on_c, 4, 83, 101
1, 149280, Note_on_c, 6, 75, 101
1, 149280, Note_on_c, 6, 71, 101
1, 149280, Note_on_c, 6, 63, 101
1, 149280, Note_on_c, 6, 59, 101
1, 149280, Note_on_c, 9, 35, 103
1, 149280, Note_on_c, 9, 39, 127
1, 149400, Note_on_c, 9, 39, 0
1, 149400, Note_on_c, 9, 35, 0
1, 149460, Note_on_c, 6, 71, 0
1, 149460, Note_on_c, 4, 87, 0
1, 149460, Note_on_c, 4, 75, 0
1, 149460, Note_on_c, 6, 75, 0
1, 149460, Note_on_c, 4, 71, 0
1, 149460, Note_on_c, 4, 83, 0
1, 149460, Note_on_c, 6, 59, 0
1, 149460, Note_on_c, 6, 63, 0
1, 149520, Note_on_c, 4, 87, 101
1, 149520, Note_on_c, 4, 71, 101
1, 149520, Note_on_c, 4, 75, 101
1, 149520, Note_on_c, 4, 83, 101
1, 149520, Note_on_c, 6, 75, 101
1, 149520, Note_on_c, 6, 71, 101
1, 149520, Note_on_c, 6, 63, 101
1, 149520, Note_on_c, 6, 59, 101
1, 149700, Note_on_c, 6, 59, 0
1, 149700, Note_on_c, 6, 71, 0
1, 149700, Note_on_c, 4, 75, 0
1, 149700, Note_on_c, 4, 87, 0
1, 149700, Note_on_c, 6, 75, 0
1, 149700, Note_on_c, 4, 71, 0
1, 149700, Note_on_c, 4, 83, 0
1, 149700, Note_on_c, 6, 63, 0
1, 149760, Pitch_bend_c, 4, 8192
1, 149760, Note_on_c, 4, 83, 101
1, 149760, Note_on_c, 4, 79, 101
1, 149760, Note_on_c, 4, 67, 101
1, 149760, Note_on_c, 4, 71, 101
1, 149760, Pitch_bend_c, 6, 8192
1, 149760, Note_on_c, 6, 71, 101
1, 149760, Note_on_c, 6, 59, 101
1, 149760, Note_on_c, 6, 55, 101
1, 149760, Note_on_c, 6, 67, 101
1, 149760, Note_on_c, 9, 57, 103
1, 149760, Note_on_c, 9, 52, 127
1, 149760, Note_on_c, 9, 49, 103
1, 149760, Note_on_c, 9, 40, 103
1, 149760, Note_on_c, 9, 35, 103
1, 149760, Note_on_c, 9, 39, 127
1, 149760, Control_c, 13, 7, 127
1, 149820, Control_c, 13, 7, 127
1, 149880, Note_on_c, 9, 39, 0
1, 149880, Note_on_c, 9, 35, 0
1, 149880, Note_on_c, 9, 40, 0
1, 149880, Control_c, 13, 7, 125
1, 149940, Control_c, 13, 7, 124
1, 150000, Note_on_c, 6, 59, 0
1, 150000, Note_on_c, 4, 83, 0
1, 150000, Note_on_c, 6, 71, 0
1, 150000, Note_on_c, 4, 79, 0
1, 150000, Note_on_c, 4, 71, 0
1, 150000, Note_on_c, 4, 67, 0
1, 150000, Note_on_c, 6, 55, 0
1, 150000, Note_on_c, 6, 67, 0
1, 150000, Control_c, 13, 7, 121
1, 150060, Control_c, 13, 7, 119
1, 150120, Note_on_c, 4, 83, 101
1, 150120, Note_on_c, 4, 79, 101
1, 150120, Note_on_c, 4, 71, 101
1, 150120, Note_on_c, 4, 67, 101
1, 150120, Note_on_c, 6, 71, 101
1, 150120, Note_on_c, 6, 55, 101
1, 150120, Note_on_c, 6, 59, 101
1, 150120, Note_on_c, 6, 67, 101
1, 150120, Note_on_c, 9, 40, 103
1, 150120, Control_c, 13, 7, 117
1, 150180, Control_c, 13, 7, 114
1, 150240, Note_on_c, 9, 40, 0
1, 150240, Note_on_c, 9, 35, 103
1, 150240, Note_on_c, 9, 39, 127
1, 150240, Control_c, 13, 7, 112
1, 150300, Control_c, 13, 7, 110
1, 150360, Note_on_c, 9, 39, 0
1, 150360, Note_on_c, 6, 59, 0
1, 150360, Note_on_c, 4, 79, 0
1, 150360, Note_on_c, 4, 67, 0
1, 150360, Note_on_c, 4, 83, 0
1, 150360, Note_on_c, 9, 35, 0
1, 150360, Note_on_c, 6, 55, 0
1, 150360, Note_on_c, 6, 71, 0
1, 150360, Note_on_c, 4, 71, 0
1, 150360, Note_on_c, 6, 67, 0
1, 150360, Control_c, 13, 7, 108
1, 150420, Control_c, 13, 7, 106
1, 150480, Note_on_c, 4, 83, 101
1, 150480, Note_on_c, 4, 79, 101
1, 150480, Note_on_c, 4, 67, 101
1, 150480, Note_on_c, 4, 71, 101
1, 150480, Note_on_c, 6, 71, 101
1, 150480, Note_on_c, 6, 59, 101
1, 150480, Note_on_c, 6, 55, 101
1, 150480, Note_on_c, 6, 67, 101
1, 150480, Note_on_c, 9, 40, 103
1, 150480, Control_c, 13, 7, 105
1, 150540, Control_c, 13, 7, 103
1, 150600, Note_on_c, 9, 40, 0
1, 150600, Control_c, 13, 7, 101
1, 150660, Control_c, 13, 7, 99
1, 150720, Note_on_c, 4, 67, 0
1, 150720, Note_on_c, 4, 71, 0
1, 150720, Note_on_c, 4, 79, 0
1, 150720, Note_on_c, 4, 83, 0
1, 150720, Note_on_c, 6, 67, 0
1, 150720, Note_on_c, 6, 59, 0
1, 150720, Note_on_c, 6, 71, 0
1, 150720, Note_on_c, 6, 55, 0
1, 150720, Note_on_c, 9, 35, 103
1, 150720, Note_on_c, 9, 39, 127
1, 150720, Control_c, 13, 7, 96
1, 150780, Control_c, 13, 7, 95
1, 150840, Note_on_c, 9, 39, 0
1, 150840, Note_on_c, 9, 35, 0
1, 150840, Note_on_c, 4, 83, 101
1, 150840, Note_on_c, 4, 79, 101
1, 150840, Note_on_c, 4, 67, 101
1, 150840, Note_on_c, 4, 71, 101
1, 150840, Note_on_c, 6, 71, 101
1, 150840, Note_on_c, 6, 59, 101
1, 150840, Note_on_c, 6, 55, 101
1, 150840, Note_on_c, 6, 67, 101
1, 150840, Note_on_c, 9, 40, 103
1, 150840, Control_c, 13, 7, 92
1, 150900, Control_c, 13, 7, 91
1, 150960, Note_on_c, 9, 40, 0
1, 150960, Control_c, 13, 7, 90
1, 151020, Control_c, 13, 7, 88
1, 151080, Note_on_c, 4, 67, 0
1, 151080, Note_on_c, 4, 71, 0
1, 151080, Note_on_c, 4, 79, 0
1, 151080, Note_on_c, 4, 83, 0
1, 151080, Note_on_c, 6, 67, 0
1, 151080, Note_on_c, 6, 59, 0
1, 151080, Note_on_c, 6, 71, 0
1, 151080, Note_on_c, 6, 55, 0
1, 151080, Control_c, 13, 7, 86
1, 151140, Control_c, 13, 7, 83
1, 151200, Note_on_c, 4, 83, 101
1, 151200, Note_on_c, 4, 79, 101
1, 151200, Note_on_c, 4, 71, 101
1, 151200, Note_on_c, 4, 67, 101
1, 151200, Note_on_c, 6, 71, 101
1, 151200, Note_on_c, 6, 55, 101
1, 151200, Note_on_c, 6, 59, 101
1, 151200, Note_on_c, 6, 67, 101
1, 151200, Note_on_c, 9, 40, 103
1, 151200, Note_on_c, 9, 35, 103
1, 151200, Note_on_c, 9, 39, 127
1, 151200, Control_c, 13, 7, 82
1, 151215, Pitch_bend_c, 4, 8049
1, 151215, Pitch_bend_c, 6, 8049
1, 151230, Pitch_bend_c, 4, 7756
1, 151230, Pitch_bend_c, 6, 7756
1, 151245, Pitch_bend_c, 4, 7612
1, 151245, Pitch_bend_c, 6, 7612
1, 151260, Pitch_bend_c, 4, 7175
1, 151260, Pitch_bend_c, 6, 7175
1, 151260, Control_c, 13, 7, 80
1, 151280, Pitch_bend_c, 4, 6841
1, 151280, Pitch_bend_c, 6, 6841
1, 151295, Pitch_bend_c, 4, 6418
1, 151295, Pitch_bend_c, 6, 6418
1, 151310, Pitch_bend_c, 4, 5803
1, 151310, Pitch_bend_c, 6, 5803
1, 151320, Note_on_c, 9, 39, 0
1, 151320, Note_on_c, 9, 35, 0
1, 151320, Note_on_c, 9, 40, 0
1, 151320, Control_c, 13, 7, 77
1, 151325, Pitch_bend_c, 4, 5380
1, 151325, Pitch_bend_c, 6, 5380
1, 151340, Pitch_bend_c, 4, 4820
1, 151340, Pitch_bend_c, 6, 4820
1, 151360, Pitch_bend_c, 4, 4219
1, 151360, Pitch_bend_c, 6, 4219
1, 151375, Pitch_bend_c, 4, 3810
1, 151375, Pitch_bend_c, 6, 3810
1, 151380, Control_c, 13, 7, 76
1, 151390, Pitch_bend_c, 4, 3223
1, 151390, Pitch_bend_c, 6, 3223
1, 151405, Pitch_bend_c, 4, 2820
1, 151405, Pitch_bend_c, 6, 2820
1, 151420, Pitch_bend_c, 4, 2369
1, 151420, Pitch_bend_c, 6, 2369
1, 151440, Pitch_bend_c, 4, 1837
1, 151440, Pitch_bend_c, 6, 1837
1, 151440, Control_c, 13, 7, 74
1, 151455, Pitch_bend_c, 4, 1577
1, 151455, Pitch_bend_c, 6, 1577
1, 151470, Pitch_bend_c, 4, 1134
1, 151470, Pitch_bend_c, 6, 1134
1, 151485, Pitch_bend_c, 4, 874
1, 151485, Pitch_bend_c, 6, 874
1, 151500, Pitch_bend_c, 4, 615
1, 151500, Pitch_bend_c, 6, 615
1, 151500, Control_c, 13, 7, 71
1, 151520, Pitch_bend_c, 4, 355
1, 151520, Pitch_bend_c, 6, 355
1, 151535, Pitch_bend_c, 4, 55
1, 151535, Pitch_bend_c, 6, 55
1, 151550, Pitch_bend_c, 4, 0
1, 151550, Pitch_bend_c, 6, 0
1, 151560, Control_c, 13, 7, 69
1, 151565, Pitch_bend_c, 4, 0
1, 151565, Pitch_bend_c, 6, 0
1, 151580, Pitch_bend_c, 4, 0
1, 151580, Pitch_bend_c, 6, 0
1, 151600, Pitch_bend_c, 4, 0
1, 151600, Pitch_bend_c, 6, 0
1, 151615, Pitch_bend_c, 4, 0
1, 151615, Pitch_bend_c, 6, 0
1, 151620, Control_c, 13, 7, 68
1, 151645, Pitch_bend_c, 4, 0
1, 151645, Pitch_bend_c, 6, 0
1, 151680, Note_on_c, 4, 71, 0
1, 151680, Note_on_c, 4, 79, 0
1, 151680, Note_on_c, 4, 83, 0
1, 151680, Note_on_c, 6, 55, 0
1, 151680, Note_on_c, 6, 71, 0
1, 151680, Note_on_c, 4, 67, 0
1, 151680, Note_on_c, 6, 59, 0
1, 151680, Note_on_c, 6, 67, 0
1, 151680, Pitch_bend_c, 4, 8192
1, 151680, Note_on_c, 4, 85, 101
1, 151680, Note_on_c, 4, 81, 101
1, 151680, Note_on_c, 4, 73, 101
1, 151680, Note_on_c, 4, 69, 101
1, 151680, Pitch_bend_c, 6, 8192
1, 151680, Note_on_c, 6, 73, 101
1, 151680, Note_on_c, 6, 57, 101
1, 151680, Note_on_c, 6, 61, 101
1, 151680, Note_on_c, 6, 69, 101
1, 151680, Pitch_bend_c, 7, 8192
1, 151680, Control_c, 7, 7, 108
1, 151680, Note_on_c, 7, 35, 127
1, 151680, Note_on_c, 9, 40, 103
1, 151680, Note_on_c, 9, 35, 103
1, 151680, Note_on_c, 9, 39, 127
1, 151680, Control_c, 13, 7, 66
1, 151740, Control_c, 13, 7, 63
1, 151800, Note_on_c, 9, 39, 0
1, 151800, Note_on_c, 9, 35, 0
1, 151800, Note_on_c, 9, 40, 0
1, 151800, Control_c, 13, 7, 60
1, 151840, Pitch_bend_c, 7, 8198
1, 151860, Control_c, 13, 7, 59
1, 151865, Pitch_bend_c, 7, 8205
1, 151890, Pitch_bend_c, 7, 8212
1, 151915, Pitch_bend_c, 7, 8219
1, 151920, Note_on_c, 4, 73, 0
1, 151920, Note_on_c, 4, 81, 0
1, 151920, Note_on_c, 4, 85, 0
1, 151920, Note_on_c, 6, 57, 0
1, 151920, Note_on_c, 6, 73, 0
1, 151920, Note_on_c, 4, 69, 0
1, 151920, Note_on_c, 6, 61, 0
1, 151920, Note_on_c, 6, 69, 0
1, 151920, Control_c, 13, 7, 57
1, 151935, Pitch_bend_c, 7, 8226
1, 151960, Pitch_bend_c, 7, 8232
1, 151980, Control_c, 13, 7, 55
1, 151985, Pitch_bend_c, 7, 8239
1, 152010, Pitch_bend_c, 7, 8246
1, 152030, Pitch_bend_c, 7, 8253
1, 152040, Note_on_c, 4, 85, 101
1, 152040, Note_on_c, 4, 81, 101
1, 152040, Note_on_c, 4, 73, 101
1, 152040, Note_on_c, 4, 69, 101
1, 152040, Note_on_c, 6, 73, 101
1, 152040, Note_on_c, 6, 57, 101
1, 152040, Note_on_c, 6, 61, 101
1, 152040, Note_on_c, 6, 69, 101
1, 152040, Note_on_c, 9, 40, 103
1, 152040, Control_c, 13, 7, 52
1, 152055, Pitch_bend_c, 7, 8260
1, 152080, Pitch_bend_c, 7, 8267
1, 152100, Control_c, 13, 7, 50
1, 152105, Pitch_bend_c, 7, 8273
1, 152130, Pitch_bend_c, 7, 8280
1, 152150, Pitch_bend_c, 7, 8287
1, 152160, Note_on_c, 9, 40, 0
1, 152160, Note_on_c, 9, 35, 103
1, 152160, Note_on_c, 9, 39, 127
1, 152160, Control_c, 13, 7, 48
1, 152175, Pitch_bend_c, 7, 8294
1, 152200, Pitch_bend_c, 7, 8301
1, 152220, Control_c, 13, 7, 47
1, 152225, Pitch_bend_c, 7, 8308
1, 152245, Pitch_bend_c, 7, 8314
1, 152270, Pitch_bend_c, 7, 8321
1, 152280, Note_on_c, 9, 39, 0
1, 152280, Note_on_c, 4, 85, 0
1, 152280, Note_on_c, 6, 57, 0
1, 152280, Note_on_c, 9, 35, 0
1, 152280, Note_on_c, 6, 73, 0
1, 152280, Note_on_c, 4, 69, 0
1, 152280, Note_on_c, 4, 73, 0
1, 152280, Note_on_c, 4, 81, 0
1, 152280, Note_on_c, 6, 61, 0
1, 152280, Note_on_c, 6, 69, 0
1, 152280, Control_c, 13, 7, 45
1, 152295, Pitch_bend_c, 7, 8328
1, 152320, Pitch_bend_c, 7, 8335
1, 152340, Control_c, 13, 7, 44
1, 152345, Pitch_bend_c, 7, 8342
1, 152365, Pitch_bend_c, 7, 8349
1, 152390, Pitch_bend_c, 7, 8355
1, 152400, Note_on_c, 4, 85, 101
1, 152400, Note_on_c, 4, 81, 101
1, 152400, Note_on_c, 4, 69, 101
1, 152400, Note_on_c, 4, 73, 101
1, 152400, Note_on_c, 6, 73, 101
1, 152400, Note_on_c, 6, 61, 101
1, 152400, Note_on_c, 6, 57, 101
1, 152400, Note_on_c, 6, 69, 101
1, 152400, Note_on_c, 9, 40, 103
1, 152400, Control_c, 13, 7, 42
1, 152415, Pitch_bend_c, 7, 8362
1, 152440, Pitch_bend_c, 7, 8369
1, 152460, Pitch_bend_c, 7, 8376
1, 152460, Control_c, 13, 7, 41
1, 152485, Pitch_bend_c, 7, 8383
1, 152510, Pitch_bend_c, 7, 8389
1, 152520, Note_on_c, 9, 40, 0
1, 152520, Control_c, 13, 7, 38
1, 152535, Pitch_bend_c, 7, 8396
1, 152560, Pitch_bend_c, 7, 8403
1, 152580, Pitch_bend_c, 7, 8410
1, 152580, Control_c, 13, 7, 36
1, 152605, Pitch_bend_c, 7, 8417
1, 152630, Pitch_bend_c, 7, 8424
1, 152640, Note_on_c, 4, 81, 0
1, 152640, Note_on_c, 4, 85, 0
1, 152640, Note_on_c, 4, 69, 0
1, 152640, Note_on_c, 6, 69, 0
1, 152640, Note_on_c, 6, 73, 0
1, 152640, Note_on_c, 4, 73, 0
1, 152640, Note_on_c, 6, 57, 0
1, 152640, Note_on_c, 6, 61, 0
1, 152640, Note_on_c, 9, 35, 103
1, 152640, Note_on_c, 9, 39, 127
1, 152640, Control_c, 13, 7, 34
1, 152655, Pitch_bend_c, 7, 8430
1, 152675, Pitch_bend_c, 7, 8437
1, 152700, Pitch_bend_c, 7, 8444
1, 152700, Control_c, 13, 7, 33
1, 152725, Pitch_bend_c, 7, 8451
1, 152750, Pitch_bend_c, 7, 8458
1, 152760, Note_on_c, 9, 39, 0
1, 152760, Note_on_c, 9, 35, 0
1, 152760, Note_on_c, 4, 85, 101
1, 152760, Note_on_c, 4, 81, 101
1, 152760, Note_on_c, 4, 69, 101
1, 152760, Note_on_c, 4, 73, 101
1, 152760, Note_on_c, 6, 73, 101
1, 152760, Note_on_c, 6, 61, 101
1, 152760, Note_on_c, 6, 57, 101
1, 152760, Note_on_c, 6, 69, 101
1, 152760, Note_on_c, 9, 40, 103
1, 152760, Control_c, 13, 7, 31
1, 152775, Pitch_bend_c, 7, 8465
1, 152795, Pitch_bend_c, 7, 8471
1, 152820, Pitch_bend_c, 7, 8478
1, 152820, Control_c, 13, 7, 29
1, 152845, Pitch_bend_c, 7, 8485
1, 152870, Pitch_bend_c, 7, 8492
1, 152880, Note_on_c, 9, 40, 0
1, 152880, Control_c, 13, 7, 29
1, 152890, Pitch_bend_c, 7, 8499
1, 152915, Pitch_bend_c, 7, 8506
1, 152940, Pitch_bend_c, 7, 8512
1, 152940, Control_c, 13, 7, 26
1, 152965, Pitch_bend_c, 7, 8519
1, 152990, Pitch_bend_c, 7, 8526
1, 153000, Note_on_c, 4, 81, 0
1, 153000, Note_on_c, 4, 85, 0
1, 153000, Note_on_c, 4, 69, 0
1, 153000, Note_on_c, 6, 69, 0
1, 153000, Note_on_c, 6, 73, 0
1, 153000, Note_on_c, 4, 73, 0
1, 153000, Note_on_c, 6, 57, 0
1, 153000, Note_on_c, 6, 61, 0
1, 153000, Control_c, 13, 7, 24
1, 153010, Pitch_bend_c, 7, 8533
1, 153035, Pitch_bend_c, 7, 8540
1, 153060, Pitch_bend_c, 7, 8546
1, 153060, Control_c, 13, 7, 21
1, 153085, Pitch_bend_c, 7, 8553
1, 153105, Pitch_bend_c, 7, 8560
1, 153120, Note_on_c, 4, 85, 101
1, 153120, Note_on_c, 4, 81, 101
1, 153120, Note_on_c, 4, 69, 101
1, 153120, Note_on_c, 4, 73, 101
1, 153120, Note_on_c, 6, 73, 101
1, 153120, Note_on_c, 6, 61, 101
1, 153120, Note_on_c, 6, 57, 101
1, 153120, Note_on_c, 6, 69, 101
1, 153120, Note_on_c, 9, 40, 103
1, 153120, Note_on_c, 9, 35, 103
1, 153120, Note_on_c, 9, 39, 127
1, 153120, Control_c, 13, 7, 19
1, 153130, Pitch_bend_c, 7, 8567
1, 153155, Pitch_bend_c, 7, 8574
1, 153180, Pitch_bend_c, 7, 8581
1, 153180, Control_c, 13, 7, 17
1, 153205, Pitch_bend_c, 7, 8587
1, 153225, Pitch_bend_c, 7, 8594
1, 153240, Note_on_c, 9, 39, 0
1, 153240, Note_on_c, 9, 35, 0
1, 153240, Note_on_c, 9, 40, 0
1, 153240, Control_c, 13, 7, 15
1, 153250, Pitch_bend_c, 7, 8601
1, 153275, Pitch_bend_c, 7, 8608
1, 153300, Note_on_c, 4, 81, 0
1, 153300, Note_on_c, 4, 85, 0
1, 153300, Note_on_c, 6, 73, 0
1, 153300, Note_on_c, 4, 73, 0
1, 153300, Note_on_c, 4, 69, 0
1, 153300, Note_on_c, 6, 57, 0
1, 153300, Note_on_c, 6, 61, 0
1, 153300, Note_on_c, 6, 69, 0
1, 153300, Pitch_bend_c, 7, 8615
1, 153300, Control_c, 13, 7, 13
1, 153320, Pitch_bend_c, 7, 8622
1, 153345, Pitch_bend_c, 7, 8628
1, 153360, Note_on_c, 4, 85, 101
1, 153360, Note_on_c, 4, 69, 101
1, 153360, Note_on_c, 4, 73, 101
1, 153360, Note_on_c, 4, 81, 101
1, 153360, Note_on_c, 6, 73, 101
1, 153360, Note_on_c, 6, 69, 101
1, 153360, Note_on_c, 6, 61, 101
1, 153360, Note_on_c, 6, 57, 101
1, 153360, Note_on_c, 9, 40, 103
1, 153360, Control_c, 13, 7, 11
1, 153370, Pitch_bend_c, 7, 8635
1, 153395, Pitch_bend_c, 7, 8642
1, 153420, Pitch_bend_c, 7, 8649
1, 153420, Control_c, 13, 7, 9
1, 153440, Pitch_bend_c, 7, 8656
1, 153465, Pitch_bend_c, 7, 8663
1, 153480, Note_on_c, 9, 40, 0
1, 153480, Control_c, 13, 7, 8
1, 153490, Pitch_bend_c, 7, 8669
1, 153515, Pitch_bend_c, 7, 8676
1, 153535, Pitch_bend_c, 7, 8683
1, 153540, Note_on_c, 4, 69, 0
1, 153540, Note_on_c, 4, 85, 0
1, 153540, Note_on_c, 4, 73, 0
1, 153540, Note_on_c, 6, 57, 0
1, 153540, Note_on_c, 6, 73, 0
1, 153540, Note_on_c, 4, 81, 0
1, 153540, Note_on_c, 6, 61, 0
1, 153540, Note_on_c, 6, 69, 0
1, 153540, Control_c, 13, 7, 6
1, 153560, Pitch_bend_c, 7, 8690
1, 153585, Pitch_bend_c, 7, 8697
1, 153600, Note_on_c, 13, 65, 0
1, 153600, Note_on_c, 9, 52, 0
1, 153600, Note_on_c, 13, 64, 0
1, 153600, Note_on_c, 13, 62, 0
1, 153600, Note_on_c, 13, 73, 0
1, 153600, Note_on_c, 13, 72, 0
1, 153600, Note_on_c, 13, 67, 0
1, 153600, Note_on_c, 13, 66, 0
1, 153600, Note_on_c, 13, 75, 0
1, 153600, Note_on_c, 9, 49, 0
1, 153600, Note_on_c, 13, 63, 0
1, 153600, Note_on_c, 9, 57, 0
1, 153600, Note_on_c, 13, 70, 0
1, 153600, Note_on_c, 13, 74, 0
1, 153600, Note_on_c, 13, 68, 0
1, 153600, Note_on_c, 13, 61, 0
1, 153600, Note_on_c, 13, 60, 0
1, 153600, Note_on_c, 13, 71, 0
1, 153600, Note_on_c, 13, 69, 0
1, 153600, Pitch_bend_c, 4, 8192
1, 153600, Note_on_c, 4, 85, 101
1, 153600, Note_on_c, 4, 73, 101
1, 153600, Note_on_c, 4, 66, 101
1, 153600, Note_on_c, 4, 78, 101
1, 153600, Control_c, 6, 7, 127
1, 153600, Pitch_bend_c, 6, 8192
1, 153600, Note_on_c, 6, 73, 101
1, 153600, Note_on_c, 6, 66, 101
1, 153600, Note_on_c, 6, 54, 101
1, 153600, Note_on_c, 6, 61, 101
1, 153600, Note_on_c, 7, 47, 65
1, 153600, Note_on_c, 9, 40, 103
1, 153600, Note_on_c, 9, 35, 103
1, 153600, Note_on_c, 9, 39, 127
1, 153600, Control_c, 13, 7, 0
1, 153610, Pitch_bend_c, 7, 8704
1, 153635, Pitch_bend_c, 7, 8710
1, 153655, Pitch_bend_c, 7, 8717
1, 153660, Pitch_bend_c, 13, 8192
1, 153660, Control_c, 13, 7, 109
1, 153660, Note_on_c, 13, 49, 63
1, 153660, Note_on_c, 13, 51, 63
1, 153660, Note_on_c, 13, 50, 63
1, 153660, Note_on_c, 13, 52, 63
1, 153660, Note_on_c, 13, 53, 63
1, 153660, Note_on_c, 13, 54, 63
1, 153660, Note_on_c, 13, 55, 63
1, 153660, Note_on_c, 13, 56, 63
1, 153660, Note_on_c, 13, 57, 63
1, 153660, Note_on_c, 13, 58, 63
1, 153660, Note_on_c, 13, 59, 63
1, 153660, Note_on_c, 13, 48, 63
1, 153660, Note_on_c, 13, 60, 63
1, 153660, Note_on_c, 13, 61, 63
1, 153660, Note_on_c, 13, 62, 63
1, 153660, Note_on_c, 13, 63, 63
1, 153680, Pitch_bend_c, 7, 8724
1, 153705, Pitch_bend_c, 7, 8731
1, 153720, Note_on_c, 9, 39, 0
1, 153720, Note_on_c, 9, 35, 0
1, 153720, Note_on_c, 9, 40, 0
1, 153730, Pitch_bend_c, 7, 8738
1, 153750, Pitch_bend_c, 7, 8744
1, 153775, Pitch_bend_c, 7, 8751
1, 153800, Pitch_bend_c, 7, 8758
1, 153820, Pitch_bend_c, 13, 8198
1, 153825, Pitch_bend_c, 7, 8765
1, 153840, Note_on_c, 6, 61, 0
1, 153840, Note_on_c, 6, 66, 0
1, 153840, Note_on_c, 4, 66, 0
1, 153840, Note_on_c, 6, 54, 0
1, 153840, Note_on_c, 4, 73, 0
1, 153840, Note_on_c, 4, 85, 0
1, 153840, Note_on_c, 6, 73, 0
1, 153840, Note_on_c, 4, 78, 0
1, 153845, Pitch_bend_c, 13, 8205
1, 153850, Pitch_bend_c, 7, 8772
1, 153870, Pitch_bend_c, 7, 8779
1, 153870, Pitch_bend_c, 13, 8212
1, 153895, Pitch_bend_c, 7, 8785
1, 153895, Pitch_bend_c, 13, 8219
1, 153915, Pitch_bend_c, 13, 8226
1, 153920, Pitch_bend_c, 7, 8792
1, 153940, Pitch_bend_c, 13, 8232
1, 153945, Pitch_bend_c, 7, 8799
1, 153960, Note_on_c, 4, 85, 101
1, 153960, Note_on_c, 4, 66, 101
1, 153960, Note_on_c, 4, 73, 101
1, 153960, Note_on_c, 4, 78, 101
1, 153960, Note_on_c, 6, 73, 101
1, 153960, Note_on_c, 6, 66, 101
1, 153960, Note_on_c, 6, 61, 101
1, 153960, Note_on_c, 6, 54, 101
1, 153960, Note_on_c, 9, 40, 103
1, 153965, Pitch_bend_c, 7, 8806
1, 153965, Pitch_bend_c, 13, 8239
1, 153990, Pitch_bend_c, 7, 8813
1, 153990, Pitch_bend_c, 13, 8246
1, 154010, Pitch_bend_c, 13, 8253
1, 154015, Pitch_bend_c, 7, 8820
1, 154035, Pitch_bend_c, 13, 8260
1, 154040, Pitch_bend_c, 7, 8826
1, 154060, Pitch_bend_c, 13, 8267
1, 154065, Pitch_bend_c, 7, 8833
1, 154080, Note_on_c, 9, 40, 0
1, 154080, Note_on_c, 9, 35, 103
1, 154080, Note_on_c, 9, 39, 127
1, 154085, Pitch_bend_c, 7, 8840
1, 154085, Pitch_bend_c, 13, 8273
1, 154110, Pitch_bend_c, 7, 8847
1, 154110, Pitch_bend_c, 13, 8280
1, 154130, Pitch_bend_c, 13, 8287
1, 154135, Pitch_bend_c, 7, 8854
1, 154155, Pitch_bend_c, 13, 8294
1, 154160, Pitch_bend_c, 7, 8861
1, 154180, Pitch_bend_c, 7, 8867
1, 154180, Pitch_bend_c, 13, 8301
1, 154200, Note_on_c, 9, 39, 0
1, 154200, Note_on_c, 4, 78, 0
1, 154200, Note_on_c, 6, 66, 0
1, 154200, Note_on_c, 4, 73, 0
1, 154200, Note_on_c, 4, 66, 0
1, 154200, Note_on_c, 4, 85, 0
1, 154200, Note_on_c, 9, 35, 0
1, 154200, Note_on_c, 6, 54, 0
1, 154200, Note_on_c, 6, 61, 0
1, 154200, Note_on_c, 6, 73, 0
1, 154205, Pitch_bend_c, 7, 8874
1, 154205, Pitch_bend_c, 13, 8308
1, 154225, Pitch_bend_c, 13, 8314
1, 154230, Pitch_bend_c, 7, 8881
1, 154250, Pitch_bend_c, 13, 8321
1, 154255, Pitch_bend_c, 7, 8888
1, 154275, Pitch_bend_c, 13, 8328
1, 154280, Pitch_bend_c, 7, 8895
1, 154300, Pitch_bend_c, 7, 8901
1, 154300, Pitch_bend_c, 13, 8335
1, 154320, Note_on_c, 4, 85, 101
1, 154320, Note_on_c, 4, 66, 101
1, 154320, Note_on_c, 4, 73, 101
1, 154320, Note_on_c, 4, 78, 101
1, 154320, Note_on_c, 6, 73, 101
1, 154320, Note_on_c, 6, 66, 101
1, 154320, Note_on_c, 6, 61, 101
1, 154320, Note_on_c, 6, 54, 101
1, 154320, Note_on_c, 9, 40, 103
1, 154325, Pitch_bend_c, 7, 8908
1, 154325, Pitch_bend_c, 13, 8342
1, 154345, Pitch_bend_c, 13, 8349
1, 154350, Pitch_bend_c, 7, 8915
1, 154370, Pitch_bend_c, 13, 8355
1, 154375, Pitch_bend_c, 7, 8922
1, 154395, Pitch_bend_c, 7, 8929
1, 154395, Pitch_bend_c, 13, 8362
1, 154420, Pitch_bend_c, 7, 8936
1, 154420, Pitch_bend_c, 13, 8369
1, 154440, Note_on_c, 9, 40, 0
1, 154440, Pitch_bend_c, 13, 8376
1, 154445, Pitch_bend_c, 7, 8942
1, 154465, Pitch_bend_c, 13, 8383
1, 154470, Pitch_bend_c, 7, 8949
1, 154490, Pitch_bend_c, 13, 8389
1, 154495, Pitch_bend_c, 7, 8956
1, 154515, Pitch_bend_c, 7, 8963
1, 154515, Pitch_bend_c, 13, 8396
1, 154540, Pitch_bend_c, 7, 8970
1, 154540, Pitch_bend_c, 13, 8403
1, 154560, Note_on_c, 6, 73, 0
1, 154560, Note_on_c, 4, 78, 0
1, 154560, Note_on_c, 4, 73, 0
1, 154560, Note_on_c, 4, 66, 0
1, 154560, Note_on_c, 4, 85, 0
1, 154560, Note_on_c, 6, 54, 0
1, 154560, Note_on_c, 6, 61, 0
1, 154560, Note_on_c, 6, 66, 0
1, 154560, Note_on_c, 9, 35, 103
1, 154560, Note_on_c, 9, 39, 127
1, 154560, Pitch_bend_c, 13, 8410
1, 154565, Pitch_bend_c, 7, 8977
1, 154585, Pitch_bend_c, 13, 8417
1, 154590, Pitch_bend_c, 7, 8983
1, 154610, Pitch_bend_c, 7, 8990
1, 154610, Pitch_bend_c, 13, 8424
1, 154635, Pitch_bend_c, 7, 8997
1, 154635, Pitch_bend_c, 13, 8430
1, 154655, Pitch_bend_c, 13, 8437
1, 154660, Pitch_bend_c, 7, 9004
1, 154680, Note_on_c, 9, 39, 0
1, 154680, Note_on_c, 9, 35, 0
1, 154680, Note_on_c, 4, 85, 101
1, 154680, Note_on_c, 4, 73, 101
1, 154680, Note_on_c, 4, 66, 101
1, 154680, Note_on_c, 4, 78, 101
1, 154680, Note_on_c, 6, 73, 101
1, 154680, Note_on_c, 6, 66, 101
1, 154680, Note_on_c, 6, 54, 101
1, 154680, Note_on_c, 6, 61, 101
1, 154680, Note_on_c, 9, 40, 103
1, 154680, Pitch_bend_c, 13, 8444
1, 154685, Pitch_bend_c, 7, 9011
1, 154705, Pitch_bend_c, 13, 8451
1, 154710, Pitch_bend_c, 7, 9018
1, 154730, Pitch_bend_c, 7, 9024
1, 154730, Pitch_bend_c, 13, 8458
1, 154755, Pitch_bend_c, 7, 9031
1, 154755, Pitch_bend_c, 13, 8465
1, 154775, Pitch_bend_c, 13, 8471
1, 154780, Pitch_bend_c, 7, 9038
1, 154800, Note_on_c, 9, 40, 0
1, 154800, Pitch_bend_c, 13, 8478
1, 154805, Pitch_bend_c, 7, 9045
1, 154825, Pitch_bend_c, 7, 9052
1, 154825, Pitch_bend_c, 13, 8485
1, 154850, Pitch_bend_c, 7, 9058
1, 154850, Pitch_bend_c, 13, 8492
1, 154870, Pitch_bend_c, 13, 8499
1, 154875, Pitch_bend_c, 7, 9065
1, 154895, Pitch_bend_c, 13, 8506
1, 154900, Pitch_bend_c, 7, 9072
1, 154920, Note_on_c, 6, 73, 0
1, 154920, Note_on_c, 4, 78, 0
1, 154920, Note_on_c, 4, 66, 0
1, 154920, Note_on_c, 4, 73, 0
1, 154920, Note_on_c, 4, 85, 0
1, 154920, Note_on_c, 6, 61, 0
1, 154920, Note_on_c, 6, 54, 0
1, 154920, Note_on_c, 6, 66, 0
1, 154920, Pitch_bend_c, 13, 8512
1, 154925, Pitch_bend_c, 7, 9079
1, 154945, Pitch_bend_c, 7, 9086
1, 154945, Pitch_bend_c, 13, 8519
1, 154970, Pitch_bend_c, 7, 9093
1, 154970, Pitch_bend_c, 13, 8526
1, 154990, Pitch_bend_c, 13, 8533
1, 154995, Pitch_bend_c, 7, 9099
1, 155015, Pitch_bend_c, 13, 8540
1, 155020, Pitch_bend_c, 7, 9106
1, 155040, Note_on_c, 4, 85, 101
1, 155040, Note_on_c, 4, 73, 101
1, 155040, Note_on_c, 4, 66, 101
1, 155040, Note_on_c, 4, 78, 101
1, 155040, Note_on_c, 6, 73, 101
1, 155040, Note_on_c, 6, 66, 101
1, 155040, Note_on_c, 6, 54, 101
1, 155040, Note_on_c, 6, 61, 101
1, 155040, Pitch_bend_c, 7, 9113
1, 155040, Note_on_c, 9, 40, 103
1, 155040, Note_on_c, 9, 35, 103
1, 155040, Note_on_c, 9, 39, 127
1, 155040, Pitch_bend_c, 13, 8546
1, 155065, Pitch_bend_c, 7, 9120
1, 155065, Pitch_bend_c, 13, 8553
1, 155085, Pitch_bend_c, 13, 8560
1, 155090, Pitch_bend_c, 7, 9127
1, 155110, Pitch_bend_c, 13, 8567
1, 155115, Pitch_bend_c, 7, 9134
1, 155135, Pitch_bend_c, 13, 8574
1, 155140, Pitch_bend_c, 7, 9140
1, 155160, Note_on_c, 9, 39, 0
1, 155160, Note_on_c, 9, 35, 0
1, 155160, Note_on_c, 9, 40, 0
1, 155160, Pitch_bend_c, 7, 9147
1, 155160, Pitch_bend_c, 13, 8581
1, 155185, Pitch_bend_c, 7, 9154
1, 155185, Pitch_bend_c, 13, 8587
1, 155205, Pitch_bend_c, 13, 8594
1, 155210, Pitch_bend_c, 7, 9161
1, 155230, Pitch_bend_c, 13, 8601
1, 155235, Pitch_bend_c, 7, 9168
1, 155255, Pitch_bend_c, 7, 9175
1, 155255, Pitch_bend_c, 13, 8608
1, 155280, Pitch_bend_c, 7, 9181
1, 155280, Note_on_c, 9, 40, 103
1, 155280, Pitch_bend_c, 13, 8615
1, 155300, Pitch_bend_c, 13, 8622
1, 155305, Pitch_bend_c, 7, 9188
1, 155325, Pitch_bend_c, 13, 8628
1, 155330, Pitch_bend_c, 7, 9195
1, 155350, Pitch_bend_c, 13, 8635
1, 155355, Pitch_bend_c, 7, 9202
1, 155375, Pitch_bend_c, 7, 9209
1, 155375, Pitch_bend_c, 13, 8642
1, 155400, Note_on_c, 9, 40, 0
1, 155400, Pitch_bend_c, 7, 9216
1, 155400, Pitch_bend_c, 13, 8649
1, 155420, Pitch_bend_c, 13, 8656
1, 155425, Pitch_bend_c, 7, 9222
1, 155445, Pitch_bend_c, 13, 8663
1, 155450, Pitch_bend_c, 7, 9229
1, 155460, Note_on_c, 6, 73, 0
1, 155460, Note_on_c, 4, 66, 0
1, 155460, Note_on_c, 4, 73, 0
1, 155460, Note_on_c, 4, 85, 0
1, 155460, Note_on_c, 4, 78, 0
1, 155460, Note_on_c, 6, 54, 0
1, 155460, Note_on_c, 6, 66, 0
1, 155460, Note_on_c, 6, 61, 0
1, 155470, Pitch_bend_c, 7, 9236
1, 155470, Pitch_bend_c, 13, 8669
1, 155495, Pitch_bend_c, 7, 9243
1, 155495, Pitch_bend_c, 13, 8676
1, 155515, Pitch_bend_c, 13, 8683
1, 155520, Note_on_c, 4, 85, 101
1, 155520, Note_on_c, 4, 73, 101
1, 155520, Note_on_c, 4, 66, 101
1, 155520, Note_on_c, 4, 78, 101
1, 155520, Note_on_c, 6, 73, 101
1, 155520, Note_on_c, 6, 66, 101
1, 155520, Note_on_c, 6, 54, 101
1, 155520, Note_on_c, 6, 61, 101
1, 155520, Pitch_bend_c, 7, 9250
1, 155520, Note_on_c, 9, 40, 103
1, 155520, Note_on_c, 9, 35, 103
1, 155520, Note_on_c, 9, 39, 127
1, 155540, Pitch_bend_c, 13, 8690
1, 155545, Pitch_bend_c, 7, 9256
1, 155565, Pitch_bend_c, 13, 8697
1, 155570, Pitch_bend_c, 7, 9263
1, 155590, Pitch_bend_c, 7, 9270
1, 155590, Pitch_bend_c, 13, 8704
1, 155615, Pitch_bend_c, 7, 9277
1, 155615, Pitch_bend_c, 13, 8710
1, 155635, Pitch_bend_c, 13, 8717
1, 155640, Note_on_c, 9, 39, 0
1, 155640, Note_on_c, 9, 35, 0
1, 155640, Note_on_c, 9, 40, 0
1, 155640, Pitch_bend_c, 7, 9284
1, 155660, Pitch_bend_c, 13, 8724
1, 155665, Pitch_bend_c, 7, 9291
1, 155685, Pitch_bend_c, 7, 9297
1, 155685, Pitch_bend_c, 13, 8731
1, 155710, Pitch_bend_c, 7, 9304
1, 155710, Pitch_bend_c, 13, 8738
1, 155730, Pitch_bend_c, 13, 8744
1, 155735, Pitch_bend_c, 7, 9311
1, 155755, Pitch_bend_c, 13, 8751
1, 155760, Note_on_c, 4, 78, 0
1, 155760, Note_on_c, 4, 66, 0
1, 155760, Note_on_c, 4, 73, 0
1, 155760, Note_on_c, 4, 85, 0
1, 155760, Note_on_c, 6, 54, 0
1, 155760, Note_on_c, 6, 66, 0
1, 155760, Note_on_c, 6, 73, 0
1, 155760, Note_on_c, 6, 61, 0
1, 155760, Pitch_bend_c, 7, 9318
1, 155780, Pitch_bend_c, 13, 8758
1, 155785, Pitch_bend_c, 7, 9325
1, 155805, Pitch_bend_c, 7, 9332
1, 155805, Pitch_bend_c, 13, 8765
1, 155830, Pitch_bend_c, 7, 9338
1, 155830, Pitch_bend_c, 13, 8772
1, 155850, Pitch_bend_c, 13, 8779
1, 155855, Pitch_bend_c, 7, 9345
1, 155875, Pitch_bend_c, 13, 8785
1, 155880, Note_on_c, 4, 85, 101
1, 155880, Note_on_c, 4, 66, 101
1, 155880, Note_on_c, 4, 73, 101
1, 155880, Note_on_c, 4, 78, 101
1, 155880, Note_on_c, 6, 73, 101
1, 155880, Note_on_c, 6, 66, 101
1, 155880, Note_on_c, 6, 61, 101
1, 155880, Note_on_c, 6, 54, 101
1, 155880, Pitch_bend_c, 7, 9352
1, 155880, Note_on_c, 9, 40, 103
1, 155900, Pitch_bend_c, 7, 9359
1, 155900, Pitch_bend_c, 13, 8792
1, 155925, Pitch_bend_c, 7, 9366
1, 155925, Pitch_bend_c, 13, 8799
1, 155945, Pitch_bend_c, 13, 8806
1, 155950, Pitch_bend_c, 7, 9373
1, 155970, Pitch_bend_c, 13, 8813
1, 155975, Pitch_bend_c, 7, 9379
1, 155995, Pitch_bend_c, 13, 8820
1, 156000, Note_on_c, 9, 40, 0
1, 156000, Pitch_bend_c, 7, 9386
1, 156000, Note_on_c, 9, 35, 103
1, 156000, Note_on_c, 9, 39, 127
1, 156020, Pitch_bend_c, 7, 9393
1, 156020, Pitch_bend_c, 13, 8826
1, 156045, Pitch_bend_c, 7, 9400
1, 156045, Pitch_bend_c, 13, 8833
1, 156065, Pitch_bend_c, 13, 8840
1, 156070, Pitch_bend_c, 7, 9407
1, 156090, Pitch_bend_c, 13, 8847
1, 156095, Pitch_bend_c, 7, 9413
1, 156115, Pitch_bend_c, 7, 9420
1, 156115, Pitch_bend_c, 13, 8854
1, 156120, Note_on_c, 9, 39, 0
1, 156120, Note_on_c, 4, 78, 0
1, 156120, Note_on_c, 6, 66, 0
1, 156120, Note_on_c, 4, 73, 0
1, 156120, Note_on_c, 4, 66, 0
1, 156120, Note_on_c, 4, 85, 0
1, 156120, Note_on_c, 9, 35, 0
1, 156120, Note_on_c, 6, 54, 0
1, 156120, Note_on_c, 6, 61, 0
1, 156120, Note_on_c, 6, 73, 0
1, 156140, Pitch_bend_c, 7, 9427
1, 156140, Pitch_bend_c, 13, 8861
1, 156160, Pitch_bend_c, 13, 8867
1, 156165, Pitch_bend_c, 7, 9434
1, 156185, Pitch_bend_c, 13, 8874
1, 156190, Pitch_bend_c, 7, 9441
1, 156210, Pitch_bend_c, 13, 8881
1, 156215, Pitch_bend_c, 7, 9448
1, 156235, Pitch_bend_c, 7, 9454
1, 156235, Pitch_bend_c, 13, 8888
1, 156240, Note_on_c, 4, 85, 101
1, 156240, Note_on_c, 4, 66, 101
1, 156240, Note_on_c, 4, 73, 101
1, 156240, Note_on_c, 4, 78, 101
1, 156240, Note_on_c, 6, 73, 101
1, 156240, Note_on_c, 6, 66, 101
1, 156240, Note_on_c, 6, 61, 101
1, 156240, Note_on_c, 6, 54, 101
1, 156240, Note_on_c, 9, 40, 103
1, 156260, Pitch_bend_c, 7, 9461
1, 156260, Pitch_bend_c, 13, 8895
1, 156280, Pitch_bend_c, 13, 8901
1, 156285, Pitch_bend_c, 7, 9468
1, 156305, Pitch_bend_c, 13, 8908
1, 156310, Pitch_bend_c, 7, 9475
1, 156330, Pitch_bend_c, 7, 9482
1, 156330, Pitch_bend_c, 13, 8915
1, 156355, Pitch_bend_c, 7, 9489
1, 156355, Pitch_bend_c, 13, 8922
1, 156360, Note_on_c, 9, 40, 0
1, 156375, Pitch_bend_c, 13, 8929
1, 156380, Pitch_bend_c, 7, 9495
1, 156400, Pitch_bend_c, 13, 8936
1, 156405, Pitch_bend_c, 7, 9502
1, 156425, Pitch_bend_c, 13, 8942
1, 156430, Pitch_bend_c, 7, 9509
1, 156450, Pitch_bend_c, 7, 9516
1, 156450, Pitch_bend_c, 13, 8949
1, 156475, Pitch_bend_c, 7, 9523
1, 156475, Pitch_bend_c, 13, 8956
1, 156480, Note_on_c, 6, 73, 0
1, 156480, Note_on_c, 4, 78, 0
1, 156480, Note_on_c, 4, 73, 0
1, 156480, Note_on_c, 4, 66, 0
1, 156480, Note_on_c, 4, 85, 0
1, 156480, Note_on_c, 6, 54, 0
1, 156480, Note_on_c, 6, 61, 0
1, 156480, Note_on_c, 6, 66, 0
1, 156480, Note_on_c, 9, 35, 103
1, 156480, Note_on_c, 9, 39, 127
1, 156495, Pitch_bend_c, 13, 8963
1, 156500, Pitch_bend_c, 7, 9530
1, 156520, Pitch_bend_c, 13, 8970
1, 156525, Pitch_bend_c, 7, 9536
1, 156545, Pitch_bend_c, 7, 9543
1, 156545, Pitch_bend_c, 13, 8977
1, 156570, Pitch_bend_c, 7, 9550
1, 156570, Pitch_bend_c, 13, 8983
1, 156590, Pitch_bend_c, 13, 8990
1, 156595, Pitch_bend_c, 7, 9557
1, 156600, Note_on_c, 9, 39, 0
1, 156600, Note_on_c, 9, 35, 0
1, 156600, Note_on_c, 4, 85, 101
1, 156600, Note_on_c, 4, 73, 101
1, 156600, Note_on_c, 4, 66, 101
1, 156600, Note_on_c, 4, 78, 101
1, 156600, Note_on_c, 6, 73, 101
1, 156600, Note_on_c, 6, 66, 101
1, 156600, Note_on_c, 6, 54, 101
1, 156600, Note_on_c, 6, 61, 101
1, 156600, Note_on_c, 9, 40, 103
1, 156615, Pitch_bend_c, 13, 8997
1, 156620, Pitch_bend_c, 7, 9564
1, 156640, Pitch_bend_c, 7, 9570
1, 156640, Pitch_bend_c, 13, 9004
1, 156665, Pitch_bend_c, 7, 9577
1, 156665, Pitch_bend_c, 13, 9011
1, 156690, Pitch_bend_c, 7, 9584
1, 156690, Pitch_bend_c, 13, 9018
1, 156710, Pitch_bend_c, 13, 9024
1, 156715, Pitch_bend_c, 7, 9591
1, 156720, Note_on_c, 9, 40, 0
1, 156735, Pitch_bend_c, 13, 9031
1, 156740, Pitch_bend_c, 7, 9598
1, 156760, Pitch_bend_c, 7, 9605
1, 156760, Pitch_bend_c, 13, 9038
1, 156785, Pitch_bend_c, 7, 9611
1, 156785, Pitch_bend_c, 13, 9045
1, 156805, Pitch_bend_c, 13, 9052
1, 156810, Pitch_bend_c, 7, 9618
1, 156830, Pitch_bend_c, 13, 9058
1, 156835, Pitch_bend_c, 7, 9625
1, 156840, Note_on_c, 6, 73, 0
1, 156840, Note_on_c, 4, 78, 0
1, 156840, Note_on_c, 4, 66, 0
1, 156840, Note_on_c, 4, 73, 0
1, 156840, Note_on_c, 4, 85, 0
1, 156840, Note_on_c, 6, 61, 0
1, 156840, Note_on_c, 6, 54, 0
1, 156840, Note_on_c, 6, 66, 0
1, 156855, Pitch_bend_c, 7, 9632
1, 156855, Pitch_bend_c, 13, 9065
1, 156880, Pitch_bend_c, 7, 9639
1, 156880, Pitch_bend_c, 13, 9072
1, 156905, Pitch_bend_c, 7, 9646
1, 156905, Pitch_bend_c, 13, 9079
1, 156925, Pitch_bend_c, 13, 9086
1, 156930, Pitch_bend_c, 7, 9652
1, 156950, Pitch_bend_c, 13, 9093
1, 156955, Pitch_bend_c, 7, 9659
1, 156960, Note_on_c, 4, 85, 101
1, 156960, Note_on_c, 4, 73, 101
1, 156960, Note_on_c, 4, 66, 101
1, 156960, Note_on_c, 4, 78, 101
1, 156960, Note_on_c, 6, 73, 101
1, 156960, Note_on_c, 6, 66, 101
1, 156960, Note_on_c, 6, 54, 101
1, 156960, Note_on_c, 6, 61, 101
1, 156960, Note_on_c, 9, 40, 103
1, 156960, Note_on_c, 9, 35, 103
1, 156960, Note_on_c, 9, 39, 127
1, 156975, Pitch_bend_c, 7, 9666
1, 156975, Pitch_bend_c, 13, 9099
1, 157000, Pitch_bend_c, 7, 9673
1, 157000, Pitch_bend_c, 13, 9106
1, 157020, Pitch_bend_c, 13, 9113
1, 157025, Pitch_bend_c, 7, 9680
1, 157045, Pitch_bend_c, 13, 9120
1, 157050, Pitch_bend_c, 7, 9687
1, 157070, Pitch_bend_c, 7, 9693
1, 157070, Pitch_bend_c, 13, 9127
1, 157080, Note_on_c, 9, 39, 0
1, 157080, Note_on_c, 9, 35, 0
1, 157080, Note_on_c, 9, 40, 0
1, 157095, Pitch_bend_c, 7, 9700
1, 157095, Pitch_bend_c, 13, 9134
1, 157120, Pitch_bend_c, 7, 9707
1, 157120, Pitch_bend_c, 13, 9140
1, 157140, Note_on_c, 4, 78, 0
1, 157140, Note_on_c, 4, 66, 0
1, 157140, Note_on_c, 4, 73, 0
1, 157140, Note_on_c, 4, 85, 0
1, 157140, Note_on_c, 6, 54, 0
1, 157140, Note_on_c, 6, 66, 0
1, 157140, Note_on_c, 6, 73, 0
1, 157140, Note_on_c, 6, 61, 0
1, 157140, Pitch_bend_c, 13, 9147
1, 157145, Pitch_bend_c, 7, 9714
1, 157165, Pitch_bend_c, 13, 9154
1, 157170, Pitch_bend_c, 7, 9721
1, 157190, Pitch_bend_c, 7, 9728
1, 157190, Pitch_bend_c, 13, 9161
1, 157200, Note_on_c, 4, 85, 101
1, 157200, Note_on_c, 4, 66, 101
1, 157200, Note_on_c, 4, 73, 101
1, 157200, Note_on_c, 4, 78, 101
1, 157200, Note_on_c, 6, 73, 101
1, 157200, Note_on_c, 6, 66, 101
1, 157200, Note_on_c, 6, 61, 101
1, 157200, Note_on_c, 6, 54, 101
1, 157200, Note_on_c, 9, 40, 103
1, 157215, Pitch_bend_c, 7, 9734
1, 157215, Pitch_bend_c, 13, 9168
1, 157235, Pitch_bend_c, 13, 9175
1, 157240, Pitch_bend_c, 7, 9741
1, 157260, Pitch_bend_c, 13, 9181
1, 157265, Pitch_bend_c, 7, 9748
1, 157285, Pitch_bend_c, 7, 9755
1, 157285, Pitch_bend_c, 13, 9188
1, 157310, Pitch_bend_c, 7, 9762
1, 157310, Pitch_bend_c, 13, 9195
1, 157320, Note_on_c, 9, 40, 0
1, 157335, Pitch_bend_c, 7, 9768
1, 157335, Pitch_bend_c, 13, 9202
1, 157355, Pitch_bend_c, 13, 9209
1, 157360, Pitch_bend_c, 7, 9775
1, 157380, Note_on_c, 6, 73, 0
1, 157380, Note_on_c, 4, 78, 0
1, 157380, Note_on_c, 4, 73, 0
1, 157380, Note_on_c, 4, 66, 0
1, 157380, Note_on_c, 4, 85, 0
1, 157380, Note_on_c, 6, 54, 0
1, 157380, Note_on_c, 6, 61, 0
1, 157380, Note_on_c, 6, 66, 0
1, 157380, Pitch_bend_c, 13, 9216
1, 157385, Pitch_bend_c, 7, 9782
1, 157405, Pitch_bend_c, 7, 9789
1, 157405, Pitch_bend_c, 13, 9222
1, 157430, Pitch_bend_c, 7, 9796
1, 157430, Pitch_bend_c, 13, 9229
1, 157440, Note_on_c, 4, 85, 101
1, 157440, Note_on_c, 4, 66, 101
1, 157440, Note_on_c, 4, 73, 101
1, 157440, Note_on_c, 4, 78, 101
1, 157440, Note_on_c, 6, 73, 101
1, 157440, Note_on_c, 6, 66, 101
1, 157440, Note_on_c, 6, 61, 101
1, 157440, Note_on_c, 6, 54, 101
1, 157440, Note_on_c, 9, 35, 103
1, 157440, Note_on_c, 9, 40, 103
1, 157440, Note_on_c, 9, 39, 127
1, 157450, Pitch_bend_c, 13, 9236
1, 157455, Pitch_bend_c, 7, 9803
1, 157475, Pitch_bend_c, 13, 9243
1, 157480, Pitch_bend_c, 7, 9809
1, 157500, Pitch_bend_c, 7, 9816
1, 157500, Pitch_bend_c, 13, 9250
1, 157525, Pitch_bend_c, 7, 9823
1, 157525, Pitch_bend_c, 13, 9256
1, 157550, Pitch_bend_c, 7, 9830
1, 157550, Pitch_bend_c, 13, 9263
1, 157560, Note_on_c, 9, 39, 0
1, 157560, Note_on_c, 9, 40, 0
1, 157560, Note_on_c, 9, 35, 0
1, 157570, Pitch_bend_c, 13, 9270
1, 157575, Pitch_bend_c, 7, 9837
1, 157595, Pitch_bend_c, 13, 9277
1, 157600, Pitch_bend_c, 7, 9844
1, 157620, Note_on_c, 4, 78, 0
1, 157620, Note_on_c, 4, 73, 0
1, 157620, Note_on_c, 4, 66, 0
1, 157620, Note_on_c, 4, 85, 0
1, 157620, Note_on_c, 6, 61, 0
1, 157620, Note_on_c, 6, 66, 0
1, 157620, Note_on_c, 6, 73, 0
1, 157620, Note_on_c, 6, 54, 0
1, 157620, Pitch_bend_c, 7, 9850
1, 157620, Pitch_bend_c, 13, 9284
1, 157645, Pitch_bend_c, 7, 9857
1, 157645, Pitch_bend_c, 13, 9291
1, 157665, Pitch_bend_c, 13, 9297
1, 157670, Pitch_bend_c, 7, 9864
1, 157680, Note_on_c, 4, 85, 101
1, 157680, Note_on_c, 4, 73, 101
1, 157680, Note_on_c, 4, 66, 101
1, 157680, Note_on_c, 4, 78, 101
1, 157680, Note_on_c, 6, 73, 101
1, 157680, Note_on_c, 6, 66, 101
1, 157680, Note_on_c, 6, 54, 101
1, 157680, Note_on_c, 6, 61, 101
1, 157680, Note_on_c, 9, 35, 103
1, 157680, Note_on_c, 9, 40, 103
1, 157690, Pitch_bend_c, 13, 9304
1, 157695, Pitch_bend_c, 7, 9871
1, 157715, Pitch_bend_c, 7, 9878
1, 157715, Pitch_bend_c, 13, 9311
1, 157740, Pitch_bend_c, 7, 9885
1, 157740, Pitch_bend_c, 13, 9318
1, 157765, Pitch_bend_c, 7, 9891
1, 157765, Pitch_bend_c, 13, 9325
1, 157785, Pitch_bend_c, 13, 9332
1, 157790, Pitch_bend_c, 7, 9898
1, 157800, Note_on_c, 9, 40, 0
1, 157800, Note_on_c, 9, 35, 0
1, 157810, Pitch_bend_c, 13, 9338
1, 157815, Pitch_bend_c, 7, 9905
1, 157835, Pitch_bend_c, 7, 9912
1, 157835, Pitch_bend_c, 13, 9345
1, 157860, Note_on_c, 4, 78, 0
1, 157860, Note_on_c, 4, 66, 0
1, 157860, Note_on_c, 4, 73, 0
1, 157860, Note_on_c, 4, 85, 0
1, 157860, Note_on_c, 6, 54, 0
1, 157860, Note_on_c, 6, 66, 0
1, 157860, Note_on_c, 6, 73, 0
1, 157860, Note_on_c, 6, 61, 0
1, 157860, Pitch_bend_c, 7, 9919
1, 157860, Pitch_bend_c, 13, 9352
1, 157880, Pitch_bend_c, 13, 9359
1, 157885, Pitch_bend_c, 7, 9925
1, 157905, Pitch_bend_c, 13, 9366
1, 157910, Pitch_bend_c, 7, 9932
1, 157920, Note_on_c, 4, 85, 101
1, 157920, Note_on_c, 4, 66, 101
1, 157920, Note_on_c, 4, 73, 101
1, 157920, Note_on_c, 4, 78, 101
1, 157920, Note_on_c, 6, 73, 101
1, 157920, Note_on_c, 6, 66, 101
1, 157920, Note_on_c, 6, 61, 101
1, 157920, Note_on_c, 6, 54, 101
1, 157920, Note_on_c, 9, 40, 103
1, 157920, Note_on_c, 9, 35, 103
1, 157920, Note_on_c, 9, 39, 127
1, 157930, Pitch_bend_c, 7, 9939
1, 157930, Pitch_bend_c, 13, 9373
1, 157955, Pitch_bend_c, 7, 9946
1, 157955, Pitch_bend_c, 13, 9379
1, 157980, Pitch_bend_c, 7, 9953
1, 157980, Pitch_bend_c, 13, 9386
1, 158000, Pitch_bend_c, 13, 9393
1, 158005, Pitch_bend_c, 7, 9960
1, 158025, Pitch_bend_c, 13, 9400
1, 158030, Pitch_bend_c, 7, 9966
1, 158040, Note_on_c, 9, 39, 0
1, 158040, Note_on_c, 9, 35, 0
1, 158040, Note_on_c, 9, 40, 0
1, 158050, Pitch_bend_c, 7, 9973
1, 158050, Pitch_bend_c, 13, 9407
1, 158075, Pitch_bend_c, 7, 9980
1, 158075, Pitch_bend_c, 13, 9413
1, 158095, Pitch_bend_c, 13, 9420
1, 158100, Note_on_c, 4, 78, 0
1, 158100, Note_on_c, 4, 73, 0
1, 158100, Note_on_c, 4, 66, 0
1, 158100, Note_on_c, 4, 85, 0
1, 158100, Note_on_c, 6, 61, 0
1, 158100, Note_on_c, 6, 66, 0
1, 158100, Note_on_c, 6, 73, 0
1, 158100, Note_on_c, 6, 54, 0
1, 158100, Pitch_bend_c, 7, 9987
1, 158120, Pitch_bend_c, 13, 9427
1, 158125, Pitch_bend_c, 7, 9994
1, 158145, Pitch_bend_c, 7, 10001
1, 158145, Pitch_bend_c, 13, 9434
1, 158160, Note_on_c, 4, 85, 101
1, 158160, Note_on_c, 4, 66, 101
1, 158160, Note_on_c, 4, 73, 101
1, 158160, Note_on_c, 4, 78, 101
1, 158160, Note_on_c, 6, 73, 101
1, 158160, Note_on_c, 6, 66, 101
1, 158160, Note_on_c, 6, 61, 101
1, 158160, Note_on_c, 6, 54, 101
1, 158160, Note_on_c, 9, 35, 103
1, 158160, Note_on_c, 9, 40, 103
1, 158170, Pitch_bend_c, 7, 10007
1, 158170, Pitch_bend_c, 13, 9441
1, 158195, Pitch_bend_c, 7, 10014
1, 158195, Pitch_bend_c, 13, 9448
1, 158215, Pitch_bend_c, 13, 9454
1, 158220, Pitch_bend_c, 7, 10021
1, 158240, Pitch_bend_c, 13, 9461
1, 158245, Pitch_bend_c, 7, 10028
1, 158265, Pitch_bend_c, 7, 10035
1, 158265, Pitch_bend_c, 13, 9468
1, 158280, Note_on_c, 9, 40, 0
1, 158280, Note_on_c, 9, 35, 0
1, 158290, Pitch_bend_c, 7, 10042
1, 158290, Pitch_bend_c, 13, 9475
1, 158310, Pitch_bend_c, 13, 9482
1, 158315, Pitch_bend_c, 7, 10048
1, 158335, Pitch_bend_c, 13, 9489
1, 158340, Note_on_c, 4, 78, 0
1, 158340, Note_on_c, 4, 73, 0
1, 158340, Note_on_c, 4, 66, 0
1, 158340, Note_on_c, 4, 85, 0
1, 158340, Note_on_c, 6, 61, 0
1, 158340, Note_on_c, 6, 66, 0
1, 158340, Note_on_c, 6, 73, 0
1, 158340, Note_on_c, 6, 54, 0
1, 158340, Pitch_bend_c, 7, 10055
1, 158360, Pitch_bend_c, 7, 10062
1, 158360, Pitch_bend_c, 13, 9495
1, 158385, Pitch_bend_c, 7, 10069
1, 158385, Pitch_bend_c, 13, 9502
1, 158400, Note_on_c, 4, 85, 101
1, 158400, Note_on_c, 4, 73, 101
1, 158400, Note_on_c, 4, 66, 101
1, 158400, Note_on_c, 4, 78, 101
1, 158400, Note_on_c, 6, 73, 101
1, 158400, Note_on_c, 6, 66, 101
1, 158400, Note_on_c, 6, 54, 101
1, 158400, Note_on_c, 6, 61, 101
1, 158400, Note_on_c, 9, 40, 103
1, 158400, Note_on_c, 9, 35, 103
1, 158400, Note_on_c, 9, 39, 127
1, 158410, Pitch_bend_c, 7, 10076
1, 158410, Pitch_bend_c, 13, 9509
1, 158430, Pitch_bend_c, 13, 9516
1, 158435, Pitch_bend_c, 7, 10082
1, 158455, Pitch_bend_c, 13, 9523
1, 158460, Pitch_bend_c, 7, 10089
1, 158480, Pitch_bend_c, 7, 10096
1, 158480, Pitch_bend_c, 13, 9530
1, 158505, Pitch_bend_c, 7, 10103
1, 158505, Pitch_bend_c, 13, 9536
1, 158520, Note_on_c, 9, 39, 0
1, 158520, Note_on_c, 9, 35, 0
1, 158520, Note_on_c, 9, 40, 0
1, 158525, Pitch_bend_c, 13, 9543
1, 158530, Pitch_bend_c, 7, 10110
1, 158550, Pitch_bend_c, 13, 9550
1, 158555, Pitch_bend_c, 7, 10117
1, 158575, Pitch_bend_c, 7, 10123
1, 158575, Pitch_bend_c, 13, 9557
1, 158580, Note_on_c, 4, 78, 0
1, 158580, Note_on_c, 4, 66, 0
1, 158580, Note_on_c, 4, 73, 0
1, 158580, Note_on_c, 4, 85, 0
1, 158580, Note_on_c, 6, 54, 0
1, 158580, Note_on_c, 6, 66, 0
1, 158580, Note_on_c, 6, 73, 0
1, 158580, Note_on_c, 6, 61, 0
1, 158600, Pitch_bend_c, 7, 10130
1, 158600, Pitch_bend_c, 13, 9564
1, 158620, Pitch_bend_c, 13, 9570
1, 158625, Pitch_bend_c, 7, 10137
1, 158640, Note_on_c, 4, 85, 101
1, 158640, Note_on_c, 4, 73, 101
1, 158640, Note_on_c, 4, 66, 101
1, 158640, Note_on_c, 4, 78, 101
1, 158640, Note_on_c, 6, 73, 101
1, 158640, Note_on_c, 6, 66, 101
1, 158640, Note_on_c, 6, 54, 101
1, 158640, Note_on_c, 6, 61, 101
1, 158640, Note_on_c, 9, 35, 103
1, 158640, Note_on_c, 9, 40, 103
1, 158645, Pitch_bend_c, 13, 9577
1, 158650, Pitch_bend_c, 7, 10144
1, 158670, Pitch_bend_c, 13, 9584
1, 158675, Pitch_bend_c, 7, 10151
1, 158695, Pitch_bend_c, 7, 10158
1, 158695, Pitch_bend_c, 13, 9591
1, 158720, Pitch_bend_c, 7, 10164
1, 158720, Pitch_bend_c, 13, 9598
1, 158740, Pitch_bend_c, 13, 9605
1, 158745, Pitch_bend_c, 7, 10171
1, 158760, Note_on_c, 9, 40, 0
1, 158760, Note_on_c, 9, 35, 0
1, 158765, Pitch_bend_c, 13, 9611
1, 158770, Pitch_bend_c, 7, 10178
1, 158790, Pitch_bend_c, 7, 10185
1, 158790, Pitch_bend_c, 13, 9618
1, 158815, Pitch_bend_c, 7, 10192
1, 158815, Pitch_bend_c, 13, 9625
1, 158820, Note_on_c, 4, 78, 0
1, 158820, Note_on_c, 4, 66, 0
1, 158820, Note_on_c, 4, 73, 0
1, 158820, Note_on_c, 4, 85, 0
1, 158820, Note_on_c, 6, 54, 0
1, 158820, Note_on_c, 6, 66, 0
1, 158820, Note_on_c, 6, 73, 0
1, 158820, Note_on_c, 6, 61, 0
1, 158835, Pitch_bend_c, 13, 9632
1, 158840, Pitch_bend_c, 7, 10199
1, 158860, Pitch_bend_c, 13, 9639
1, 158865, Pitch_bend_c, 7, 10205
1, 158880, Note_on_c, 4, 85, 101
1, 158880, Note_on_c, 4, 73, 101
1, 158880, Note_on_c, 4, 66, 101
1, 158880, Note_on_c, 4, 78, 101
1, 158880, Note_on_c, 6, 73, 101
1, 158880, Note_on_c, 6, 66, 101
1, 158880, Note_on_c, 6, 54, 101
1, 158880, Note_on_c, 6, 61, 101
1, 158880, Note_on_c, 9, 40, 103
1, 158880, Note_on_c, 9, 35, 103
1, 158880, Note_on_c, 9, 39, 127
1, 158885, Pitch_bend_c, 13, 9646
1, 158890, Pitch_bend_c, 7, 10212
1, 158910, Pitch_bend_c, 7, 10219
1, 158910, Pitch_bend_c, 13, 9652
1, 158935, Pitch_bend_c, 7, 10226
1, 158935, Pitch_bend_c, 13, 9659
1, 158955, Pitch_bend_c, 13, 9666
1, 158960, Pitch_bend_c, 7, 10233
1, 158980, Pitch_bend_c, 13, 9673
1, 158985, Pitch_bend_c, 7, 10240
1, 159000, Note_on_c, 9, 39, 0
1, 159000, Note_on_c, 9, 35, 0
1, 159000, Note_on_c, 9, 40, 0
1, 159005, Pitch_bend_c, 7, 10246
1, 159005, Pitch_bend_c, 13, 9680
1, 159030, Pitch_bend_c, 7, 10253
1, 159030, Pitch_bend_c, 13, 9687
1, 159050, Pitch_bend_c, 13, 9693
1, 159055, Pitch_bend_c, 7, 10260
1, 159060, Note_on_c, 4, 78, 0
1, 159060, Note_on_c, 4, 66, 0
1, 159060, Note_on_c, 4, 73, 0
1, 159060, Note_on_c, 4, 85, 0
1, 159060, Note_on_c, 6, 54, 0
1, 159060, Note_on_c, 6, 66, 0
1, 159060, Note_on_c, 6, 73, 0
1, 159060, Note_on_c, 6, 61, 0
1, 159075, Pitch_bend_c, 13, 9700
1, 159080, Pitch_bend_c, 7, 10267
1, 159100, Pitch_bend_c, 13, 9707
1, 159105, Pitch_bend_c, 7, 10274
1, 159120, Note_on_c, 4, 85, 101
1, 159120, Note_on_c, 4, 66, 101
1, 159120, Note_on_c, 4, 73, 101
1, 159120, Note_on_c, 4, 78, 101
1, 159120, Note_on_c, 6, 73, 101
1, 159120, Note_on_c, 6, 66, 101
1, 159120, Note_on_c, 6, 61, 101
1, 159120, Note_on_c, 6, 54, 101
1, 159120, Note_on_c, 9, 35, 103
1, 159120, Note_on_c, 9, 40, 104
1, 159125, Pitch_bend_c, 7, 10280
1, 159125, Pitch_bend_c, 13, 9714
1, 159150, Pitch_bend_c, 7, 10287
1, 159150, Pitch_bend_c, 13, 9721
1, 159170, Pitch_bend_c, 13, 9728
1, 159175, Pitch_bend_c, 7, 10294
1, 159195, Pitch_bend_c, 13, 9734
1, 159200, Pitch_bend_c, 7, 10301
1, 159220, Pitch_bend_c, 7, 10308
1, 159220, Pitch_bend_c, 13, 9741
1, 159240, Note_on_c, 9, 40, 0
1, 159240, Note_on_c, 9, 35, 0
1, 159245, Pitch_bend_c, 7, 10315
1, 159245, Pitch_bend_c, 13, 9748
1, 159265, Pitch_bend_c, 13, 9755
1, 159270, Pitch_bend_c, 7, 10321
1, 159290, Pitch_bend_c, 13, 9762
1, 159295, Pitch_bend_c, 7, 10328
1, 159300, Note_on_c, 4, 78, 0
1, 159300, Note_on_c, 4, 73, 0
1, 159300, Note_on_c, 4, 66, 0
1, 159300, Note_on_c, 4, 85, 0
1, 159300, Note_on_c, 6, 61, 0
1, 159300, Note_on_c, 6, 66, 0
1, 159300, Note_on_c, 6, 73, 0
1, 159300, Note_on_c, 6, 54, 0
1, 159315, Pitch_bend_c, 13, 9768
1, 159320, Pitch_bend_c, 7, 10335
1, 159340, Pitch_bend_c, 7, 10342
1, 159340, Pitch_bend_c, 13, 9775
1, 159360, Note_on_c, 4, 85, 101
1, 159360, Note_on_c, 4, 73, 101
1, 159360, Note_on_c, 4, 66, 101
1, 159360, Note_on_c, 4, 78, 101
1, 159360, Note_on_c, 6, 73, 101
1, 159360, Note_on_c, 6, 66, 101
1, 159360, Note_on_c, 6, 54, 101
1, 159360, Note_on_c, 6, 61, 101
1, 159360, Note_on_c, 9, 40, 104
1, 159360, Note_on_c, 9, 35, 103
1, 159360, Note_on_c, 9, 39, 127
1, 159365, Pitch_bend_c, 7, 10349
1, 159365, Pitch_bend_c, 13, 9782
1, 159385, Pitch_bend_c, 13, 9789
1, 159390, Pitch_bend_c, 7, 10356
1, 159410, Pitch_bend_c, 13, 9796
1, 159415, Pitch_bend_c, 7, 10362
1, 159435, Pitch_bend_c, 7, 10369
1, 159435, Pitch_bend_c, 13, 9803
1, 159460, Pitch_bend_c, 7, 10376
1, 159460, Pitch_bend_c, 13, 9809
1, 159480, Note_on_c, 9, 39, 0
1, 159480, Note_on_c, 9, 35, 0
1, 159480, Note_on_c, 9, 40, 0
1, 159480, Pitch_bend_c, 13, 9816
1, 159485, Pitch_bend_c, 7, 10383
1, 159505, Pitch_bend_c, 13, 9823
1, 159510, Pitch_bend_c, 7, 10390
1, 159530, Pitch_bend_c, 13, 9830
1, 159535, Pitch_bend_c, 7, 10397
1, 159540, Note_on_c, 4, 78, 0
1, 159540, Note_on_c, 4, 66, 0
1, 159540, Note_on_c, 4, 73, 0
1, 159540, Note_on_c, 4, 85, 0
1, 159540, Note_on_c, 6, 54, 0
1, 159540, Note_on_c, 6, 66, 0
1, 159540, Note_on_c, 6, 73, 0
1, 159540, Note_on_c, 6, 61, 0
1, 159555, Pitch_bend_c, 7, 10403
1, 159555, Pitch_bend_c, 13, 9837
1, 159580, Pitch_bend_c, 7, 10410
1, 159580, Pitch_bend_c, 13, 9844
1, 159600, Note_on_c, 4, 85, 101
1, 159600, Note_on_c, 4, 73, 101
1, 159600, Note_on_c, 4, 66, 101
1, 159600, Note_on_c, 4, 78, 101
1, 159600, Note_on_c, 6, 73, 101
1, 159600, Note_on_c, 6, 66, 101
1, 159600, Note_on_c, 6, 54, 101
1, 159600, Note_on_c, 6, 61, 101
1, 159600, Note_on_c, 9, 35, 103
1, 159600, Note_on_c, 9, 40, 104
1, 159600, Pitch_bend_c, 13, 9850
1, 159605, Pitch_bend_c, 7, 10417
1, 159625, Pitch_bend_c, 13, 9857
1, 159630, Pitch_bend_c, 7, 10424
1, 159650, Pitch_bend_c, 7, 10431
1, 159650, Pitch_bend_c, 13, 9864
1, 159675, Pitch_bend_c, 7, 10437
1, 159675, Pitch_bend_c, 13, 9871
1, 159695, Pitch_bend_c, 13, 9878
1, 159700, Pitch_bend_c, 7, 10444
1, 159720, Note_on_c, 9, 40, 0
1, 159720, Note_on_c, 9, 35, 0
1, 159720, Pitch_bend_c, 13, 9885
1, 159725, Pitch_bend_c, 7, 10451
1, 159745, Pitch_bend_c, 13, 9891
1, 159750, Pitch_bend_c, 7, 10458
1, 159770, Pitch_bend_c, 7, 10465
1, 159770, Pitch_bend_c, 13, 9898
1, 159780, Note_on_c, 4, 78, 0
1, 159780, Note_on_c, 4, 66, 0
1, 159780, Note_on_c, 4, 73, 0
1, 159780, Note_on_c, 4, 85, 0
1, 159780, Note_on_c, 6, 54, 0
1, 159780, Note_on_c, 6, 66, 0
1, 159780, Note_on_c, 6, 73, 0
1, 159780, Note_on_c, 6, 61, 0
1, 159795, Pitch_bend_c, 7, 10472
1, 159795, Pitch_bend_c, 13, 9905
1, 159815, Pitch_bend_c, 13, 9912
1, 159820, Pitch_bend_c, 7, 10478
1, 159840, Note_on_c, 4, 85, 101
1, 159840, Note_on_c, 4, 73, 101
1, 159840, Note_on_c, 4, 66, 101
1, 159840, Note_on_c, 4, 78, 101
1, 159840, Note_on_c, 6, 73, 101
1, 159840, Note_on_c, 6, 66, 101
1, 159840, Note_on_c, 6, 54, 101
1, 159840, Note_on_c, 6, 61, 101
1, 159840, Note_on_c, 9, 40, 104
1, 159840, Note_on_c, 9, 35, 103
1, 159840, Note_on_c, 9, 39, 127
1, 159840, Pitch_bend_c, 13, 9919
1, 159845, Pitch_bend_c, 7, 10485
1, 159865, Pitch_bend_c, 7, 10492
1, 159865, Pitch_bend_c, 13, 9925
1, 159890, Pitch_bend_c, 7, 10499
1, 159890, Pitch_bend_c, 13, 9932
1, 159910, Pitch_bend_c, 13, 9939
1, 159915, Pitch_bend_c, 7, 10506
1, 159935, Pitch_bend_c, 13, 9946
1, 159940, Pitch_bend_c, 7, 10513
1, 159960, Note_on_c, 9, 39, 0
1, 159960, Note_on_c, 9, 35, 0
1, 159960, Note_on_c, 9, 40, 0
1, 159960, Pitch_bend_c, 13, 9953
1, 159965, Pitch_bend_c, 7, 10519
1, 159985, Pitch_bend_c, 7, 10526
1, 159985, Pitch_bend_c, 13, 9960
1, 160010, Pitch_bend_c, 7, 10533
1, 160010, Pitch_bend_c, 13, 9966
1, 160020, Note_on_c, 4, 78, 0
1, 160020, Note_on_c, 4, 66, 0
1, 160020, Note_on_c, 4, 73, 0
1, 160020, Note_on_c, 4, 85, 0
1, 160020, Note_on_c, 6, 54, 0
1, 160020, Note_on_c, 6, 66, 0
1, 160020, Note_on_c, 6, 73, 0
1, 160020, Note_on_c, 6, 61, 0
1, 160030, Pitch_bend_c, 13, 9973
1, 160035, Pitch_bend_c, 7, 10540
1, 160055, Pitch_bend_c, 13, 9980
1, 160060, Pitch_bend_c, 7, 10547
1, 160080, Note_on_c, 4, 85, 101
1, 160080, Note_on_c, 4, 66, 101
1, 160080, Note_on_c, 4, 73, 101
1, 160080, Note_on_c, 4, 78, 101
1, 160080, Note_on_c, 6, 73, 101
1, 160080, Note_on_c, 6, 66, 101
1, 160080, Note_on_c, 6, 61, 101
1, 160080, Note_on_c, 6, 54, 101
1, 160080, Pitch_bend_c, 7, 10554
1, 160080, Note_on_c, 9, 35, 103
1, 160080, Note_on_c, 9, 40, 104
1, 160080, Pitch_bend_c, 13, 9987
1, 160105, Pitch_bend_c, 7, 10560
1, 160105, Pitch_bend_c, 13, 9994
1, 160125, Pitch_bend_c, 13, 10001
1, 160130, Pitch_bend_c, 7, 10567
1, 160150, Pitch_bend_c, 13, 10007
1, 160155, Pitch_bend_c, 7, 10574
1, 160175, Pitch_bend_c, 13, 10014
1, 160180, Pitch_bend_c, 7, 10581
1, 160200, Note_on_c, 9, 40, 0
1, 160200, Note_on_c, 9, 35, 0
1, 160200, Pitch_bend_c, 7, 10588
1, 160200, Pitch_bend_c, 13, 10021
1, 160225, Pitch_bend_c, 7, 10594
1, 160225, Pitch_bend_c, 13, 10028
1, 160245, Pitch_bend_c, 13, 10035
1, 160250, Pitch_bend_c, 7, 10601
1, 160260, Note_on_c, 4, 78, 0
1, 160260, Note_on_c, 4, 73, 0
1, 160260, Note_on_c, 4, 66, 0
1, 160260, Note_on_c, 4, 85, 0
1, 160260, Note_on_c, 6, 61, 0
1, 160260, Note_on_c, 6, 66, 0
1, 160260, Note_on_c, 6, 73, 0
1, 160260, Note_on_c, 6, 54, 0
1, 160270, Pitch_bend_c, 13, 10042
1, 160275, Pitch_bend_c, 7, 10608
1, 160295, Pitch_bend_c, 7, 10615
1, 160295, Pitch_bend_c, 13, 10048
1, 160320, Note_on_c, 4, 85, 101
1, 160320, Note_on_c, 4, 73, 101
1, 160320, Note_on_c, 4, 66, 101
1, 160320, Note_on_c, 4, 78, 101
1, 160320, Note_on_c, 6, 73, 101
1, 160320, Note_on_c, 6, 66, 101
1, 160320, Note_on_c, 6, 54, 101
1, 160320, Note_on_c, 6, 61, 101
1, 160320, Pitch_bend_c, 7, 10622
1, 160320, Note_on_c, 9, 40, 104
1, 160320, Note_on_c, 9, 35, 103
1, 160320, Note_on_c, 9, 39, 127
1, 160320, Pitch_bend_c, 13, 10055
1, 160340, Pitch_bend_c, 13, 10062
1, 160345, Pitch_bend_c, 7, 10629
1, 160365, Pitch_bend_c, 13, 10069
1, 160370, Pitch_bend_c, 7, 10635
1, 160390, Pitch_bend_c, 13, 10076
1, 160395, Pitch_bend_c, 7, 10642
1, 160415, Pitch_bend_c, 7, 10649
1, 160415, Pitch_bend_c, 13, 10082
1, 160440, Note_on_c, 9, 39, 0
1, 160440, Note_on_c, 9, 35, 0
1, 160440, Note_on_c, 9, 40, 0
1, 160440, Pitch_bend_c, 7, 10656
1, 160440, Pitch_bend_c, 13, 10089
1, 160460, Pitch_bend_c, 13, 10096
1, 160465, Pitch_bend_c, 7, 10663
1, 160485, Pitch_bend_c, 13, 10103
1, 160490, Pitch_bend_c, 7, 10670
1, 160500, Note_on_c, 4, 78, 0
1, 160500, Note_on_c, 4, 66, 0
1, 160500, Note_on_c, 4, 73, 0
1, 160500, Note_on_c, 4, 85, 0
1, 160500, Note_on_c, 6, 54, 0
1, 160500, Note_on_c, 6, 66, 0
1, 160500, Note_on_c, 6, 73, 0
1, 160500, Note_on_c, 6, 61, 0
1, 160510, Pitch_bend_c, 7, 10676
1, 160510, Pitch_bend_c, 13, 10110
1, 160535, Pitch_bend_c, 7, 10683
1, 160535, Pitch_bend_c, 13, 10117
1, 160555, Pitch_bend_c, 13, 10123
1, 160560, Note_on_c, 4, 85, 101
1, 160560, Note_on_c, 4, 73, 101
1, 160560, Note_on_c, 4, 66, 101
1, 160560, Note_on_c, 4, 78, 101
1, 160560, Note_on_c, 6, 73, 101
1, 160560, Note_on_c, 6, 66, 101
1, 160560, Note_on_c, 6, 54, 101
1, 160560, Note_on_c, 6, 61, 101
1, 160560, Pitch_bend_c, 7, 10690
1, 160560, Note_on_c, 9, 35, 103
1, 160560, Note_on_c, 9, 40, 104
1, 160580, Pitch_bend_c, 13, 10130
1, 160585, Pitch_bend_c, 7, 10697
1, 160605, Pitch_bend_c, 13, 10137
1, 160610, Pitch_bend_c, 7, 10704
1, 160630, Pitch_bend_c, 7, 10711
1, 160630, Pitch_bend_c, 13, 10144
1, 160655, Pitch_bend_c, 7, 10717
1, 160655, Pitch_bend_c, 13, 10151
1, 160675, Pitch_bend_c, 13, 10158
1, 160680, Note_on_c, 9, 40, 0
1, 160680, Note_on_c, 9, 35, 0
1, 160680, Pitch_bend_c, 7, 10724
1, 160700, Pitch_bend_c, 13, 10164
1, 160705, Pitch_bend_c, 7, 10731
1, 160725, Pitch_bend_c, 7, 10738
1, 160725, Pitch_bend_c, 13, 10171
1, 160740, Note_on_c, 4, 78, 0
1, 160740, Note_on_c, 4, 66, 0
1, 160740, Note_on_c, 4, 73, 0
1, 160740, Note_on_c, 4, 85, 0
1, 160740, Note_on_c, 6, 54, 0
1, 160740, Note_on_c, 6, 66, 0
1, 160740, Note_on_c, 6, 73, 0
1, 160740, Note_on_c, 6, 61, 0
1, 160750, Pitch_bend_c, 7, 10745
1, 160750, Pitch_bend_c, 13, 10178
1, 160770, Pitch_bend_c, 13, 10185
1, 160775, Pitch_bend_c, 7, 10752
1, 160795, Pitch_bend_c, 13, 10192
1, 160800, Note_on_c, 4, 85, 101
1, 160800, Note_on_c, 4, 73, 101
1, 160800, Note_on_c, 4, 66, 101
1, 160800, Note_on_c, 4, 78, 101
1, 160800, Note_on_c, 6, 73, 101
1, 160800, Note_on_c, 6, 66, 101
1, 160800, Note_on_c, 6, 54, 101
1, 160800, Note_on_c, 6, 61, 101
1, 160800, Pitch_bend_c, 7, 10758
1, 160800, Note_on_c, 9, 40, 104
1, 160800, Note_on_c, 9, 35, 103
1, 160800, Note_on_c, 9, 39, 127
1, 160820, Pitch_bend_c, 13, 10199
1, 160825, Pitch_bend_c, 7, 10765
1, 160845, Pitch_bend_c, 7, 10772
1, 160845, Pitch_bend_c, 13, 10205
1, 160870, Pitch_bend_c, 7, 10779
1, 160870, Pitch_bend_c, 13, 10212
1, 160890, Pitch_bend_c, 13, 10219
1, 160895, Pitch_bend_c, 7, 10786
1, 160915, Pitch_bend_c, 13, 10226
1, 160920, Note_on_c, 9, 39, 0
1, 160920, Note_on_c, 9, 35, 0
1, 160920, Note_on_c, 9, 40, 0
1, 160920, Pitch_bend_c, 7, 10792
1, 160940, Pitch_bend_c, 7, 10799
1, 160940, Pitch_bend_c, 13, 10233
1, 160965, Pitch_bend_c, 7, 10806
1, 160965, Pitch_bend_c, 13, 10240
1, 160980, Note_on_c, 4, 78, 0
1, 160980, Note_on_c, 4, 66, 0
1, 160980, Note_on_c, 4, 73, 0
1, 160980, Note_on_c, 4, 85, 0
1, 160980, Note_on_c, 6, 54, 0
1, 160980, Note_on_c, 6, 66, 0
1, 160980, Note_on_c, 6, 73, 0
1, 160980, Note_on_c, 6, 61, 0
1, 160985, Pitch_bend_c, 13, 10246
1, 160990, Pitch_bend_c, 7, 10813
1, 161010, Pitch_bend_c, 13, 10253
1, 161015, Pitch_bend_c, 7, 10820
1, 161035, Pitch_bend_c, 13, 10260
1, 161040, Note_on_c, 4, 85, 101
1, 161040, Note_on_c, 4, 66, 101
1, 161040, Note_on_c, 4, 73, 101
1, 161040, Note_on_c, 4, 78, 101
1, 161040, Note_on_c, 6, 73, 101
1, 161040, Note_on_c, 6, 66, 101
1, 161040, Note_on_c, 6, 61, 101
1, 161040, Note_on_c, 6, 54, 101
1, 161040, Pitch_bend_c, 7, 10827
1, 161040, Note_on_c, 9, 35, 103
1, 161040, Note_on_c, 9, 40, 104
1, 161060, Pitch_bend_c, 7, 10833
1, 161060, Pitch_bend_c, 13, 10267
1, 161085, Pitch_bend_c, 7, 10840
1, 161085, Pitch_bend_c, 13, 10274
1, 161105, Pitch_bend_c, 13, 10280
1, 161110, Pitch_bend_c, 7, 10847
1, 161130, Pitch_bend_c, 13, 10287
1, 161135, Pitch_bend_c, 7, 10854
1, 161155, Pitch_bend_c, 7, 10861
1, 161155, Pitch_bend_c, 13, 10294
1, 161160, Note_on_c, 9, 40, 0
1, 161160, Note_on_c, 9, 35, 0
1, 161180, Pitch_bend_c, 7, 10868
1, 161180, Pitch_bend_c, 13, 10301
1, 161200, Pitch_bend_c, 13, 10308
1, 161205, Pitch_bend_c, 7, 10874
1, 161220, Note_on_c, 4, 78, 0
1, 161220, Note_on_c, 4, 73, 0
1, 161220, Note_on_c, 4, 66, 0
1, 161220, Note_on_c, 4, 85, 0
1, 161220, Note_on_c, 6, 61, 0
1, 161220, Note_on_c, 6, 66, 0
1, 161220, Note_on_c, 6, 73, 0
1, 161220, Note_on_c, 6, 54, 0
1, 161225, Pitch_bend_c, 13, 10315
1, 161230, Pitch_bend_c, 7, 10881
1, 161250, Pitch_bend_c, 7, 10888
1, 161250, Pitch_bend_c, 13, 10321
1, 161275, Pitch_bend_c, 13, 10328
1, 161280, Note_on_c, 4, 85, 101
1, 161280, Note_on_c, 4, 78, 101
1, 161280, Note_on_c, 4, 73, 101
1, 161280, Note_on_c, 4, 66, 101
1, 161280, Note_on_c, 6, 73, 101
1, 161280, Note_on_c, 6, 54, 101
1, 161280, Note_on_c, 6, 61, 101
1, 161280, Note_on_c, 6, 66, 101
1, 161280, Pitch_bend_c, 7, 10922
1, 161280, Note_on_c, 9, 40, 127
1, 161280, Note_on_c, 9, 35, 103
1, 161280, Note_on_c, 9, 39, 127
1, 161300, Pitch_bend_c, 13, 10335
1, 161320, Pitch_bend_c, 13, 10342
1, 161340, Note_on_c, 6, 66, 0
1, 161340, Note_on_c, 4, 66, 0
1, 161340, Note_on_c, 4, 73, 0
1, 161340, Note_on_c, 4, 78, 0
1, 161340, Note_on_c, 4, 85, 0
1, 161340, Note_on_c, 6, 61, 0
1, 161340, Note_on_c, 6, 54, 0
1, 161340, Note_on_c, 6, 73, 0
1, 161340, Control_c, 7, 7, 0
1, 161345, Pitch_bend_c, 13, 10349
1, 161370, Pitch_bend_c, 13, 10356
1, 161395, Pitch_bend_c, 13, 10362
1, 161400, Note_on_c, 9, 40, 0
1, 161400, Note_on_c, 9, 39, 0
1, 161400, Note_on_c, 9, 35, 0
1, 161400, Note_on_c, 4, 85, 101
1, 161400, Note_on_c, 4, 78, 101
1, 161400, Note_on_c, 4, 66, 101
1, 161400, Note_on_c, 4, 73, 101
1, 161400, Note_on_c, 6, 73, 101
1, 161400, Note_on_c, 6, 61, 101
1, 161400, Note_on_c, 6, 54, 101
1, 161400, Note_on_c, 6, 66, 101
1, 161400, Control_c, 7, 7, 108
1, 161400, Note_on_c, 9, 35, 103
1, 161400, Note_on_c, 9, 40, 104
1, 161415, Pitch_bend_c, 13, 10369
1, 161440, Pitch_bend_c, 13, 10376
1, 161460, Note_on_c, 6, 66, 0
1, 161460, Note_on_c, 4, 73, 0
1, 161460, Note_on_c, 4, 66, 0
1, 161460, Note_on_c, 4, 78, 0
1, 161460, Note_on_c, 4, 85, 0
1, 161460, Note_on_c, 6, 54, 0
1, 161460, Note_on_c, 6, 61, 0
1, 161460, Note_on_c, 6, 73, 0
1, 161460, Control_c, 7, 7, 0
1, 161465, Pitch_bend_c, 13, 10383
1, 161490, Pitch_bend_c, 13, 10390
1, 161515, Pitch_bend_c, 13, 10397
1, 161520, Note_on_c, 9, 35, 0
1, 161520, Note_on_c, 9, 40, 0
1, 161520, Note_on_c, 4, 85, 101
1, 161520, Note_on_c, 4, 78, 101
1, 161520, Note_on_c, 4, 66, 101
1, 161520, Note_on_c, 4, 73, 101
1, 161520, Note_on_c, 6, 73, 101
1, 161520, Note_on_c, 6, 61, 101
1, 161520, Note_on_c, 6, 54, 101
1, 161520, Note_on_c, 6, 66, 101
1, 161520, Control_c, 7, 7, 108
1, 161520, Note_on_c, 9, 35, 103
1, 161520, Note_on_c, 9, 40, 104
1, 161535, Pitch_bend_c, 13, 10403
1, 161560, Pitch_bend_c, 13, 10410
1, 161580, Note_on_c, 6, 66, 0
1, 161580, Note_on_c, 4, 73, 0
1, 161580, Note_on_c, 4, 66, 0
1, 161580, Note_on_c, 4, 78, 0
1, 161580, Note_on_c, 4, 85, 0
1, 161580, Note_on_c, 6, 54, 0
1, 161580, Note_on_c, 6, 61, 0
1, 161580, Note_on_c, 6, 73, 0
1, 161580, Control_c, 7, 7, 0
1, 161585, Pitch_bend_c, 13, 10417
1, 161610, Pitch_bend_c, 13, 10424
1, 161630, Pitch_bend_c, 13, 10431
1, 161640, Note_on_c, 9, 35, 0
1, 161640, Note_on_c, 9, 40, 0
1, 161640, Note_on_c, 4, 85, 101
1, 161640, Note_on_c, 4, 78, 101
1, 161640, Note_on_c, 4, 66, 101
1, 161640, Note_on_c, 4, 73, 101
1, 161640, Note_on_c, 6, 73, 101
1, 161640, Note_on_c, 6, 61, 101
1, 161640, Note_on_c, 6, 54, 101
1, 161640, Note_on_c, 6, 66, 101
1, 161640, Control_c, 7, 7, 108
1, 161640, Note_on_c, 9, 35, 103
1, 161640, Note_on_c, 9, 40, 104
1, 161655, Pitch_bend_c, 13, 10437
1, 161680, Pitch_bend_c, 13, 10444
1, 161700, Note_on_c, 6, 66, 0
1, 161700, Note_on_c, 4, 73, 0
1, 161700, Note_on_c, 4, 66, 0
1, 161700, Note_on_c, 4, 78, 0
1, 161700, Note_on_c, 4, 85, 0
1, 161700, Note_on_c, 6, 54, 0
1, 161700, Note_on_c, 6, 61, 0
1, 161700, Note_on_c, 6, 73, 0
1, 161700, Control_c, 7, 7, 0
1, 161705, Pitch_bend_c, 13, 10451
1, 161730, Pitch_bend_c, 13, 10458
1, 161750, Pitch_bend_c, 13, 10465
1, 161760, Note_on_c, 9, 35, 0
1, 161760, Note_on_c, 9, 40, 0
1, 161760, Note_on_c, 4, 85, 101
1, 161760, Note_on_c, 4, 78, 101
1, 161760, Note_on_c, 4, 66, 101
1, 161760, Note_on_c, 4, 73, 101
1, 161760, Note_on_c, 6, 73, 101
1, 161760, Note_on_c, 6, 61, 101
1, 161760, Note_on_c, 6, 54, 101
1, 161760, Note_on_c, 6, 66, 101
1, 161760, Control_c, 7, 7, 108
1, 161760, Note_on_c, 9, 40, 127
1, 161760, Note_on_c, 9, 35, 103
1, 161760, Note_on_c, 9, 39, 127
1, 161775, Pitch_bend_c, 13, 10472
1, 161800, Pitch_bend_c, 13, 10478
1, 161820, Note_on_c, 6, 66, 0
1, 161820, Note_on_c, 4, 73, 0
1, 161820, Note_on_c, 4, 66, 0
1, 161820, Note_on_c, 4, 78, 0
1, 161820, Note_on_c, 4, 85, 0
1, 161820, Note_on_c, 6, 54, 0
1, 161820, Note_on_c, 6, 61, 0
1, 161820, Note_on_c, 6, 73, 0
1, 161820, Control_c, 7, 7, 0
1, 161825, Pitch_bend_c, 13, 10485
1, 161845, Pitch_bend_c, 13, 10492
1, 161870, Pitch_bend_c, 13, 10499
1, 161880, Note_on_c, 9, 40, 0
1, 161880, Note_on_c, 9, 39, 0
1, 161880, Note_on_c, 9, 35, 0
1, 161880, Note_on_c, 4, 85, 101
1, 161880, Note_on_c, 4, 78, 101
1, 161880, Note_on_c, 4, 73, 101
1, 161880, Note_on_c, 4, 66, 101
1, 161880, Note_on_c, 6, 73, 101
1, 161880, Note_on_c, 6, 54, 101
1, 161880, Note_on_c, 6, 61, 101
1, 161880, Note_on_c, 6, 66, 101
1, 161880, Control_c, 7, 7, 108
1, 161880, Note_on_c, 9, 35, 103
1, 161880, Note_on_c, 9, 40, 104
1, 161895, Pitch_bend_c, 13, 10506
1, 161920, Pitch_bend_c, 13, 10513
1, 161940, Note_on_c, 6, 66, 0
1, 161940, Note_on_c, 4, 66, 0
1, 161940, Note_on_c, 4, 73, 0
1, 161940, Note_on_c, 4, 78, 0
1, 161940, Note_on_c, 4, 85, 0
1, 161940, Note_on_c, 6, 61, 0
1, 161940, Note_on_c, 6, 54, 0
1, 161940, Note_on_c, 6, 73, 0
1, 161940, Control_c, 7, 7, 0
1, 161945, Pitch_bend_c, 13, 10519
1, 161965, Pitch_bend_c, 13, 10526
1, 161990, Pitch_bend_c, 13, 10533
1, 162000, Note_on_c, 9, 35, 0
1, 162000, Note_on_c, 9, 40, 0
1, 162000, Note_on_c, 4, 85, 101
1, 162000, Note_on_c, 4, 78, 101
1, 162000, Note_on_c, 4, 73, 101
1, 162000, Note_on_c, 4, 66, 101
1, 162000, Note_on_c, 6, 73, 101
1, 162000, Note_on_c, 6, 54, 101
1, 162000, Note_on_c, 6, 61, 101
1, 162000, Note_on_c, 6, 66, 101
1, 162000, Control_c, 7, 7, 108
1, 162000, Note_on_c, 9, 35, 103
1, 162000, Note_on_c, 9, 40, 104
1, 162015, Pitch_bend_c, 13, 10540
1, 162040, Pitch_bend_c, 13, 10547
1, 162060, Note_on_c, 6, 66, 0
1, 162060, Note_on_c, 4, 66, 0
1, 162060, Note_on_c, 4, 73, 0
1, 162060, Note_on_c, 4, 78, 0
1, 162060, Note_on_c, 4, 85, 0
1, 162060, Note_on_c, 6, 61, 0
1, 162060, Note_on_c, 6, 54, 0
1, 162060, Note_on_c, 6, 73, 0
1, 162060, Control_c, 7, 7, 0
1, 162060, Pitch_bend_c, 13, 10554
1, 162085, Pitch_bend_c, 13, 10560
1, 162110, Pitch_bend_c, 13, 10567
1, 162120, Note_on_c, 9, 35, 0
1, 162120, Note_on_c, 9, 40, 0
1, 162120, Note_on_c, 4, 85, 101
1, 162120, Note_on_c, 4, 78, 101
1, 162120, Note_on_c, 4, 66, 101
1, 162120, Note_on_c, 4, 73, 101
1, 162120, Note_on_c, 6, 73, 101
1, 162120, Note_on_c, 6, 61, 101
1, 162120, Note_on_c, 6, 54, 101
1, 162120, Note_on_c, 6, 66, 101
1, 162120, Control_c, 7, 7, 108
1, 162120, Note_on_c, 9, 35, 103
1, 162120, Note_on_c, 9, 40, 104
1, 162135, Pitch_bend_c, 13, 10574
1, 162160, Pitch_bend_c, 13, 10581
1, 162180, Note_on_c, 6, 66, 0
1, 162180, Note_on_c, 4, 73, 0
1, 162180, Note_on_c, 4, 66, 0
1, 162180, Note_on_c, 4, 78, 0
1, 162180, Note_on_c, 4, 85, 0
1, 162180, Note_on_c, 6, 54, 0
1, 162180, Note_on_c, 6, 61, 0
1, 162180, Note_on_c, 6, 73, 0
1, 162180, Control_c, 7, 7, 0
1, 162180, Pitch_bend_c, 13, 10588
1, 162205, Pitch_bend_c, 13, 10594
1, 162230, Pitch_bend_c, 13, 10601
1, 162240, Note_on_c, 9, 35, 0
1, 162240, Note_on_c, 9, 40, 0
1, 162240, Note_on_c, 4, 85, 101
1, 162240, Note_on_c, 4, 78, 101
1, 162240, Note_on_c, 4, 66, 101
1, 162240, Note_on_c, 4, 73, 101
1, 162240, Note_on_c, 6, 73, 101
1, 162240, Note_on_c, 6, 61, 101
1, 162240, Note_on_c, 6, 54, 101
1, 162240, Note_on_c, 6, 66, 101
1, 162240, Control_c, 7, 7, 108
1, 162240, Note_on_c, 9, 40, 127
1, 162240, Note_on_c, 9, 35, 103
1, 162240, Note_on_c, 9, 39, 127
1, 162255, Pitch_bend_c, 13, 10608
1, 162275, Pitch_bend_c, 13, 10615
1, 162300, Note_on_c, 6, 66, 0
1, 162300, Note_on_c, 4, 73, 0
1, 162300, Note_on_c, 4, 66, 0
1, 162300, Note_on_c, 4, 78, 0
1, 162300, Note_on_c, 4, 85, 0
1, 162300, Note_on_c, 6, 54, 0
1, 162300, Note_on_c, 6, 61, 0
1, 162300, Note_on_c, 6, 73, 0
1, 162300, Control_c, 7, 7, 0
1, 162300, Pitch_bend_c, 13, 10622
1, 162325, Pitch_bend_c, 13, 10629
1, 162350, Pitch_bend_c, 13, 10635
1, 162360, Note_on_c, 9, 40, 0
1, 162360, Note_on_c, 9, 39, 0
1, 162360, Note_on_c, 9, 35, 0
1, 162360, Note_on_c, 4, 85, 101
1, 162360, Note_on_c, 4, 78, 101
1, 162360, Note_on_c, 4, 66, 101
1, 162360, Note_on_c, 4, 73, 101
1, 162360, Note_on_c, 6, 73, 101
1, 162360, Note_on_c, 6, 61, 101
1, 162360, Note_on_c, 6, 54, 101
1, 162360, Note_on_c, 6, 66, 101
1, 162360, Control_c, 7, 7, 108
1, 162360, Note_on_c, 9, 35, 103
1, 162360, Note_on_c, 9, 40, 104
1, 162375, Pitch_bend_c, 13, 10642
1, 162395, Pitch_bend_c, 13, 10649
1, 162420, Note_on_c, 6, 66, 0
1, 162420, Note_on_c, 4, 73, 0
1, 162420, Note_on_c, 4, 66, 0
1, 162420, Note_on_c, 4, 78, 0
1, 162420, Note_on_c, 4, 85, 0
1, 162420, Note_on_c, 6, 54, 0
1, 162420, Note_on_c, 6, 61, 0
1, 162420, Note_on_c, 6, 73, 0
1, 162420, Control_c, 7, 7, 0
1, 162420, Pitch_bend_c, 13, 10656
1, 162445, Pitch_bend_c, 13, 10663
1, 162470, Pitch_bend_c, 13, 10670
1, 162480, Note_on_c, 9, 35, 0
1, 162480, Note_on_c, 9, 40, 0
1, 162480, Note_on_c, 4, 85, 101
1, 162480, Note_on_c, 4, 78, 101
1, 162480, Note_on_c, 4, 66, 101
1, 162480, Note_on_c, 4, 73, 101
1, 162480, Note_on_c, 6, 73, 101
1, 162480, Note_on_c, 6, 61, 101
1, 162480, Note_on_c, 6, 54, 101
1, 162480, Note_on_c, 6, 66, 101
1, 162480, Control_c, 7, 7, 108
1, 162480, Note_on_c, 9, 35, 103
1, 162480, Note_on_c, 9, 40, 104
1, 162490, Pitch_bend_c, 13, 10676
1, 162515, Pitch_bend_c, 13, 10683
1, 162540, Note_on_c, 6, 66, 0
1, 162540, Note_on_c, 4, 73, 0
1, 162540, Note_on_c, 4, 66, 0
1, 162540, Note_on_c, 4, 78, 0
1, 162540, Note_on_c, 4, 85, 0
1, 162540, Note_on_c, 6, 54, 0
1, 162540, Note_on_c, 6, 61, 0
1, 162540, Note_on_c, 6, 73, 0
1, 162540, Control_c, 7, 7, 0
1, 162540, Pitch_bend_c, 13, 10690
1, 162565, Pitch_bend_c, 13, 10697
1, 162590, Pitch_bend_c, 13, 10704
1, 162600, Note_on_c, 9, 35, 0
1, 162600, Note_on_c, 9, 40, 0
1, 162600, Note_on_c, 4, 85, 101
1, 162600, Note_on_c, 4, 78, 101
1, 162600, Note_on_c, 4, 73, 101
1, 162600, Note_on_c, 4, 66, 101
1, 162600, Note_on_c, 6, 73, 101
1, 162600, Note_on_c, 6, 54, 101
1, 162600, Note_on_c, 6, 61, 101
1, 162600, Note_on_c, 6, 66, 101
1, 162600, Control_c, 7, 7, 108
1, 162600, Note_on_c, 9, 35, 103
1, 162600, Note_on_c, 9, 40, 104
1, 162610, Pitch_bend_c, 13, 10711
1, 162635, Pitch_bend_c, 13, 10717
1, 162660, Note_on_c, 6, 66, 0
1, 162660, Note_on_c, 4, 66, 0
1, 162660, Note_on_c, 4, 73, 0
1, 162660, Note_on_c, 4, 78, 0
1, 162660, Note_on_c, 4, 85, 0
1, 162660, Note_on_c, 6, 61, 0
1, 162660, Note_on_c, 6, 54, 0
1, 162660, Note_on_c, 6, 73, 0
1, 162660, Control_c, 7, 7, 0
1, 162660, Pitch_bend_c, 13, 10724
1, 162685, Pitch_bend_c, 13, 10731
1, 162705, Pitch_bend_c, 13, 10738
1, 162720, Note_on_c, 9, 35, 0
1, 162720, Note_on_c, 9, 40, 0
1, 162720, Note_on_c, 4, 85, 101
1, 162720, Note_on_c, 4, 78, 101
1, 162720, Note_on_c, 4, 66, 101
1, 162720, Note_on_c, 4, 73, 101
1, 162720, Note_on_c, 6, 73, 101
1, 162720, Note_on_c, 6, 61, 101
1, 162720, Note_on_c, 6, 54, 101
1, 162720, Note_on_c, 6, 66, 101
1, 162720, Control_c, 7, 7, 108
1, 162720, Note_on_c, 9, 40, 127
1, 162720, Note_on_c, 9, 35, 103
1, 162720, Note_on_c, 9, 39, 127
1, 162730, Pitch_bend_c, 13, 10745
1, 162755, Pitch_bend_c, 13, 10752
1, 162780, Note_on_c, 6, 66, 0
1, 162780, Note_on_c, 4, 73, 0
1, 162780, Note_on_c, 4, 66, 0
1, 162780, Note_on_c, 4, 78, 0
1, 162780, Note_on_c, 4, 85, 0
1, 162780, Note_on_c, 6, 54, 0
1, 162780, Note_on_c, 6, 61, 0
1, 162780, Note_on_c, 6, 73, 0
1, 162780, Control_c, 7, 7, 0
1, 162780, Pitch_bend_c, 13, 10758
1, 162805, Pitch_bend_c, 13, 10765
1, 162825, Pitch_bend_c, 13, 10772
1, 162840, Note_on_c, 9, 40, 0
1, 162840, Note_on_c, 9, 39, 0
1, 162840, Note_on_c, 9, 35, 0
1, 162840, Note_on_c, 4, 85, 101
1, 162840, Note_on_c, 4, 78, 101
1, 162840, Note_on_c, 4, 66, 101
1, 162840, Note_on_c, 4, 73, 101
1, 162840, Note_on_c, 6, 73, 101
1, 162840, Note_on_c, 6, 61, 101
1, 162840, Note_on_c, 6, 54, 101
1, 162840, Note_on_c, 6, 66, 101
1, 162840, Control_c, 7, 7, 109
1, 162840, Note_on_c, 9, 35, 103
1, 162840, Note_on_c, 9, 40, 104
1, 162850, Pitch_bend_c, 13, 10779
1, 162875, Pitch_bend_c, 13, 10786
1, 162900, Note_on_c, 6, 66, 0
1, 162900, Note_on_c, 4, 73, 0
1, 162900, Note_on_c, 4, 66, 0
1, 162900, Note_on_c, 4, 78, 0
1, 162900, Note_on_c, 4, 85, 0
1, 162900, Note_on_c, 6, 54, 0
1, 162900, Note_on_c, 6, 61, 0
1, 162900, Note_on_c, 6, 73, 0
1, 162900, Control_c, 7, 7, 0
1, 162900, Pitch_bend_c, 13, 10792
1, 162920, Pitch_bend_c, 13, 10799
1, 162945, Pitch_bend_c, 13, 10806
1, 162960, Note_on_c, 9, 35, 0
1, 162960, Note_on_c, 9, 40, 0
1, 162960, Note_on_c, 4, 85, 101
1, 162960, Note_on_c, 4, 78, 101
1, 162960, Note_on_c, 4, 73, 101
1, 162960, Note_on_c, 4, 66, 101
1, 162960, Note_on_c, 6, 73, 101
1, 162960, Note_on_c, 6, 54, 101
1, 162960, Note_on_c, 6, 61, 101
1, 162960, Note_on_c, 6, 66, 101
1, 162960, Control_c, 7, 7, 108
1, 162960, Note_on_c, 9, 35, 103
1, 162960, Note_on_c, 9, 40, 104
1, 162970, Pitch_bend_c, 13, 10813
1, 162995, Pitch_bend_c, 13, 10820
1, 163020, Note_on_c, 6, 66, 0
1, 163020, Note_on_c, 4, 66, 0
1, 163020, Note_on_c, 4, 73, 0
1, 163020, Note_on_c, 4, 78, 0
1, 163020, Note_on_c, 4, 85, 0
1, 163020, Note_on_c, 6, 61, 0
1, 163020, Note_on_c, 6, 54, 0
1, 163020, Note_on_c, 6, 73, 0
1, 163020, Control_c, 7, 7, 0
1, 163020, Pitch_bend_c, 13, 10827
1, 163040, Pitch_bend_c, 13, 10833
1, 163065, Pitch_bend_c, 13, 10840
1, 163080, Note_on_c, 9, 35, 0
1, 163080, Note_on_c, 9, 40, 0
1, 163080, Note_on_c, 4, 85, 101
1, 163080, Note_on_c, 4, 78, 101
1, 163080, Note_on_c, 4, 73, 101
1, 163080, Note_on_c, 4, 66, 101
1, 163080, Note_on_c, 6, 73, 101
1, 163080, Note_on_c, 6, 54, 101
1, 163080, Note_on_c, 6, 61, 101
1, 163080, Note_on_c, 6, 66, 101
1, 163080, Control_c, 7, 7, 108
1, 163080, Note_on_c, 9, 35, 103
1, 163080, Note_on_c, 9, 40, 104
1, 163090, Pitch_bend_c, 13, 10847
1, 163115, Pitch_bend_c, 13, 10854
1, 163135, Pitch_bend_c, 13, 10861
1, 163140, Note_on_c, 6, 66, 0
1, 163140, Note_on_c, 4, 66, 0
1, 163140, Note_on_c, 4, 73, 0
1, 163140, Note_on_c, 4, 78, 0
1, 163140, Note_on_c, 4, 85, 0
1, 163140, Note_on_c, 6, 61, 0
1, 163140, Note_on_c, 6, 54, 0
1, 163140, Note_on_c, 6, 73, 0
1, 163140, Control_c, 7, 7, 0
1, 163160, Pitch_bend_c, 13, 10868
1, 163185, Pitch_bend_c, 13, 10874
1, 163200, Note_on_c, 9, 35, 0
1, 163200, Note_on_c, 9, 40, 0
1, 163200, Note_on_c, 4, 85, 101
1, 163200, Note_on_c, 4, 66, 101
1, 163200, Note_on_c, 4, 73, 101
1, 163200, Note_on_c, 4, 78, 101
1, 163200, Note_on_c, 6, 73, 101
1, 163200, Note_on_c, 6, 66, 101
1, 163200, Note_on_c, 6, 61, 101
1, 163200, Note_on_c, 6, 54, 101
1, 163200, Control_c, 7, 7, 108
1, 163200, Pitch_bend_c, 7, 10902
1, 163210, Pitch_bend_c, 7, 10888
1, 163215, Pitch_bend_c, 7, 10874
1, 163220, Pitch_bend_c, 7, 10861
1, 163225, Pitch_bend_c, 7, 10847
1, 163230, Pitch_bend_c, 7, 10833
1, 163235, Pitch_bend_c, 7, 10820
1, 163240, Pitch_bend_c, 7, 10806
1, 163245, Pitch_bend_c, 7, 10792
1, 163250, Pitch_bend_c, 7, 10779
1, 163255, Pitch_bend_c, 7, 10758
1, 163260, Note_on_c, 13, 55, 0
1, 163260, Note_on_c, 13, 56, 0
1, 163260, Note_on_c, 13, 61, 0
1, 163260, Note_on_c, 13, 50, 0
1, 163260, Note_on_c, 13, 59, 0
1, 163260, Note_on_c, 13, 53, 0
1, 163260, Note_on_c, 13, 62, 0
1, 163260, Note_on_c, 13, 57, 0
1, 163260, Note_on_c, 13, 49, 0
1, 163260, Note_on_c, 13, 54, 0
1, 163260, Note_on_c, 13, 63, 0
1, 163260, Note_on_c, 13, 58, 0
1, 163260, Note_on_c, 13, 51, 0
1, 163260, Note_on_c, 13, 48, 0
1, 163260, Note_on_c, 13, 52, 0
1, 163260, Note_on_c, 13, 60, 0
1, 163260, Pitch_bend_c, 7, 10745
1, 163260, Pitch_bend_c, 13, 8192
1, 163265, Pitch_bend_c, 7, 10731
1, 163270, Pitch_bend_c, 7, 10717
1, 163275, Pitch_bend_c, 7, 10704
1, 163280, Pitch_bend_c, 4, 8104
1, 163280, Pitch_bend_c, 6, 8104
1, 163280, Pitch_bend_c, 7, 10690
1, 163285, Pitch_bend_c, 7, 10676
1, 163290, Pitch_bend_c, 7, 10663
1, 163295, Pitch_bend_c, 7, 10649
1, 163300, Pitch_bend_c, 4, 7967
1, 163300, Pitch_bend_c, 6, 7967
1, 163300, Pitch_bend_c, 7, 10635
1, 163305, Pitch_bend_c, 7, 10615
1, 163310, Pitch_bend_c, 7, 10601
1, 163315, Pitch_bend_c, 7, 10588
1, 163320, Pitch_bend_c, 4, 7646
1, 163320, Pitch_bend_c, 6, 7646
1, 163320, Pitch_bend_c, 7, 10574
1, 163325, Pitch_bend_c, 7, 10560
1, 163330, Pitch_bend_c, 7, 10547
1, 163335, Pitch_bend_c, 7, 10533
1, 163340, Pitch_bend_c, 4, 7510
1, 163340, Pitch_bend_c, 6, 7510
1, 163340, Pitch_bend_c, 7, 10519
1, 163345, Pitch_bend_c, 7, 10506
1, 163350, Pitch_bend_c, 7, 10492
1, 163355, Pitch_bend_c, 7, 10472
1, 163360, Pitch_bend_c, 4, 7093
1, 163360, Pitch_bend_c, 6, 7093
1, 163360, Pitch_bend_c, 7, 10458
1, 163365, Pitch_bend_c, 7, 10444
1, 163370, Pitch_bend_c, 7, 10431
1, 163375, Pitch_bend_c, 7, 10417
1, 163380, Pitch_bend_c, 4, 7005
1, 163380, Pitch_bend_c, 6, 7005
1, 163380, Pitch_bend_c, 7, 10403
1, 163385, Pitch_bend_c, 7, 10390
1, 163390, Pitch_bend_c, 7, 10376
1, 163395, Pitch_bend_c, 7, 10362
1, 163400, Pitch_bend_c, 4, 6636
1, 163400, Pitch_bend_c, 6, 6636
1, 163400, Pitch_bend_c, 7, 10349
1, 163405, Pitch_bend_c, 7, 10328
1, 163410, Pitch_bend_c, 7, 10315
1, 163415, Pitch_bend_c, 7, 10301
1, 163420, Pitch_bend_c, 4, 6459
1, 163420, Pitch_bend_c, 6, 6459
1, 163420, Pitch_bend_c, 7, 10287
1, 163425, Pitch_bend_c, 7, 10274
1, 163430, Pitch_bend_c, 7, 10260
1, 163435, Pitch_bend_c, 7, 10246
1, 163440, Pitch_bend_c, 4, 6090
1, 163440, Pitch_bend_c, 6, 6090
1, 163440, Pitch_bend_c, 7, 10233
1, 163445, Pitch_bend_c, 7, 10219
1, 163450, Pitch_bend_c, 7, 10205
1, 163455, Pitch_bend_c, 7, 10185
1, 163460, Pitch_bend_c, 4, 5817
1, 163460, Pitch_bend_c, 6, 5817
1, 163460, Pitch_bend_c, 7, 10171
1, 163465, Pitch_bend_c, 7, 10158
1, 163470, Pitch_bend_c, 7, 10144
1, 163475, Pitch_bend_c, 7, 10130
1, 163480, Pitch_bend_c, 4, 5407
1, 163480, Pitch_bend_c, 6, 5407
1, 163480, Pitch_bend_c, 7, 10117
1, 163485, Pitch_bend_c, 7, 10103
1, 163490, Pitch_bend_c, 7, 10089
1, 163495, Pitch_bend_c, 7, 10076
1, 163500, Pitch_bend_c, 4, 5223
1, 163500, Pitch_bend_c, 6, 5223
1, 163500, Pitch_bend_c, 7, 10062
1, 163505, Pitch_bend_c, 7, 10042
1, 163510, Pitch_bend_c, 7, 10028
1, 163515, Pitch_bend_c, 7, 10014
1, 163520, Pitch_bend_c, 4, 4718
1, 163520, Pitch_bend_c, 6, 4718
1, 163520, Pitch_bend_c, 7, 10001
1, 163525, Pitch_bend_c, 7, 9987
1, 163530, Pitch_bend_c, 7, 9973
1, 163535, Pitch_bend_c, 7, 9960
1, 163540, Pitch_bend_c, 4, 4356
1, 163540, Pitch_bend_c, 6, 4356
1, 163540, Pitch_bend_c, 7, 9946
1, 163545, Pitch_bend_c, 7, 9932
1, 163550, Pitch_bend_c, 7, 9919
1, 163555, Pitch_bend_c, 7, 9898
1, 163560, Pitch_bend_c, 4, 4035
1, 163560, Pitch_bend_c, 6, 4035
1, 163560, Pitch_bend_c, 7, 9885
1, 163565, Pitch_bend_c, 7, 9871
1, 163570, Pitch_bend_c, 7, 9857
1, 163575, Pitch_bend_c, 7, 9844
1, 163580, Pitch_bend_c, 4, 3939
1, 163580, Pitch_bend_c, 6, 3939
1, 163580, Pitch_bend_c, 7, 9830
1, 163585, Pitch_bend_c, 7, 9816
1, 163590, Pitch_bend_c, 7, 9803
1, 163595, Pitch_bend_c, 7, 9789
1, 163600, Pitch_bend_c, 4, 3482
1, 163600, Pitch_bend_c, 6, 3482
1, 163600, Pitch_bend_c, 7, 9775
1, 163605, Pitch_bend_c, 7, 9755
1, 163610, Pitch_bend_c, 7, 9741
1, 163615, Pitch_bend_c, 7, 9728
1, 163620, Pitch_bend_c, 4, 3209
1, 163620, Pitch_bend_c, 6, 3209
1, 163620, Pitch_bend_c, 7, 9714
1, 163625, Pitch_bend_c, 7, 9700
1, 163630, Pitch_bend_c, 7, 9687
1, 163635, Pitch_bend_c, 7, 9673
1, 163640, Pitch_bend_c, 4, 2799
1, 163640, Pitch_bend_c, 6, 2799
1, 163640, Pitch_bend_c, 7, 9659
1, 163645, Pitch_bend_c, 7, 9646
1, 163650, Pitch_bend_c, 7, 9632
1, 163655, Pitch_bend_c, 7, 9611
1, 163660, Pitch_bend_c, 4, 2574
1, 163660, Pitch_bend_c, 6, 2574
1, 163660, Pitch_bend_c, 7, 9598
1, 163665, Pitch_bend_c, 7, 9584
1, 163670, Pitch_bend_c, 7, 9570
1, 163675, Pitch_bend_c, 7, 9557
1, 163680, Pitch_bend_c, 4, 2342
1, 163680, Pitch_bend_c, 6, 2342
1, 163680, Pitch_bend_c, 7, 9543
1, 163685, Pitch_bend_c, 7, 9530
1, 163690, Pitch_bend_c, 7, 9516
1, 163695, Pitch_bend_c, 7, 9502
1, 163700, Pitch_bend_c, 4, 2206
1, 163700, Pitch_bend_c, 6, 2206
1, 163700, Pitch_bend_c, 7, 9489
1, 163705, Pitch_bend_c, 7, 9468
1, 163710, Pitch_bend_c, 7, 9454
1, 163715, Pitch_bend_c, 7, 9441
1, 163720, Pitch_bend_c, 4, 1932
1, 163720, Pitch_bend_c, 6, 1932
1, 163720, Pitch_bend_c, 7, 9427
1, 163725, Pitch_bend_c, 7, 9413
1, 163730, Pitch_bend_c, 7, 9400
1, 163735, Pitch_bend_c, 7, 9386
1, 163740, Pitch_bend_c, 4, 1700
1, 163740, Pitch_bend_c, 6, 1700
1, 163740, Pitch_bend_c, 7, 9373
1, 163745, Pitch_bend_c, 7, 9359
1, 163750, Pitch_bend_c, 7, 9345
1, 163755, Pitch_bend_c, 7, 9325
1, 163760, Pitch_bend_c, 4, 1427
1, 163760, Pitch_bend_c, 6, 1427
1, 163760, Pitch_bend_c, 7, 9311
1, 163765, Pitch_bend_c, 7, 9297
1, 163770, Pitch_bend_c, 7, 9284
1, 163775, Pitch_bend_c, 7, 9270
1, 163780, Pitch_bend_c, 4, 1243
1, 163780, Pitch_bend_c, 6, 1243
1, 163780, Pitch_bend_c, 7, 9256
1, 163785, Pitch_bend_c, 7, 9243
1, 163790, Pitch_bend_c, 7, 9229
1, 163795, Pitch_bend_c, 7, 9216
1, 163800, Pitch_bend_c, 4, 929
1, 163800, Pitch_bend_c, 6, 929
1, 163800, Pitch_bend_c, 7, 9202
1, 163805, Pitch_bend_c, 7, 9181
1, 163810, Pitch_bend_c, 7, 9168
1, 163815, Pitch_bend_c, 7, 9154
1, 163820, Pitch_bend_c, 4, 697
1, 163820, Pitch_bend_c, 6, 697
1, 163820, Pitch_bend_c, 7, 9140
1, 163825, Pitch_bend_c, 7, 9127
1, 163830, Pitch_bend_c, 7, 9113
1, 163835, Pitch_bend_c, 7, 9099
1, 163840, Pitch_bend_c, 4, 376
1, 163840, Pitch_bend_c, 6, 376
1, 163840, Pitch_bend_c, 7, 9086
1, 163845, Pitch_bend_c, 7, 9072
1, 163850, Pitch_bend_c, 7, 9058
1, 163855, Pitch_bend_c, 7, 9038
1, 163860, Pitch_bend_c, 4, 192
1, 163860, Pitch_bend_c, 6, 192
1, 163860, Pitch_bend_c, 7, 9024
1, 163865, Pitch_bend_c, 7, 9011
1, 163870, Pitch_bend_c, 7, 8997
1, 163875, Pitch_bend_c, 7, 8983
1, 163880, Pitch_bend_c, 4, 14
1, 163880, Pitch_bend_c, 6, 14
1, 163880, Pitch_bend_c, 7, 8970
1, 163885, Pitch_bend_c, 7, 8956
1, 163890, Pitch_bend_c, 7, 8942
1, 163895, Pitch_bend_c, 7, 8929
1, 163900, Pitch_bend_c, 4, 0
1, 163900, Pitch_bend_c, 6, 0
1, 163900, Pitch_bend_c, 7, 8915
1, 163905, Pitch_bend_c, 7, 8895
1, 163910, Pitch_bend_c, 7, 8881
1, 163915, Pitch_bend_c, 7, 8867
1, 163920, Pitch_bend_c, 4, 0
1, 163920, Pitch_bend_c, 6, 0
1, 163920, Pitch_bend_c, 7, 8854
1, 163925, Pitch_bend_c, 7, 8840
1, 163930, Pitch_bend_c, 7, 8826
1, 163935, Pitch_bend_c, 7, 8813
1, 163940, Pitch_bend_c, 4, 0
1, 163940, Pitch_bend_c, 6, 0
1, 163940, Pitch_bend_c, 7, 8799
1, 163945, Pitch_bend_c, 7, 8785
1, 163950, Pitch_bend_c, 7, 8772
1, 163955, Pitch_bend_c, 7, 8751
1, 163960, Pitch_bend_c, 4, 0
1, 163960, Pitch_bend_c, 6, 0
1, 163960, Pitch_bend_c, 7, 8738
1, 163965, Pitch_bend_c, 7, 8724
1, 163970, Pitch_bend_c, 7, 8710
1, 163975, Pitch_bend_c, 7, 8697
1, 163980, Pitch_bend_c, 4, 0
1, 163980, Pitch_bend_c, 6, 0
1, 163980, Pitch_bend_c, 7, 8683
1, 163985, Pitch_bend_c, 7, 8669
1, 163990, Pitch_bend_c, 7, 8656
1, 163995, Pitch_bend_c, 7, 8642
1, 164000, Pitch_bend_c, 7, 8628
1, 164005, Pitch_bend_c, 4, 0
1, 164005, Pitch_bend_c, 6, 0
1, 164005, Pitch_bend_c, 7, 8608
1, 164010, Pitch_bend_c, 7, 8594
1, 164015, Pitch_bend_c, 7, 8581
1, 164020, Pitch_bend_c, 7, 8567
1, 164025, Pitch_bend_c, 7, 8553
1, 164030, Pitch_bend_c, 7, 8540
1, 164035, Pitch_bend_c, 7, 8526
1, 164040, Note_on_c, 4, 73, 0
1, 164040, Note_on_c, 4, 78, 0
1, 164040, Note_on_c, 6, 66, 0
1, 164040, Note_on_c, 6, 54, 0
1, 164040, Note_on_c, 4, 85, 0
1, 164040, Note_on_c, 6, 73, 0
1, 164040, Note_on_c, 4, 66, 0
1, 164040, Note_on_c, 6, 61, 0
1, 164040, Pitch_bend_c, 4, 8192
1, 164040, Control_c, 6, 7, 0
1, 164040, Pitch_bend_c, 6, 8192
1, 164040, Pitch_bend_c, 7, 8512
1, 164045, Pitch_bend_c, 7, 8499
1, 164050, Pitch_bend_c, 7, 8485
1, 164055, Pitch_bend_c, 7, 8465
1, 164060, Pitch_bend_c, 7, 8451
1, 164065, Pitch_bend_c, 7, 8437
1, 164070, Pitch_bend_c, 7, 8424
1, 164075, Pitch_bend_c, 7, 8410
1, 164080, Pitch_bend_c, 7, 8396
1, 164085, Pitch_bend_c, 7, 8383
1, 164090, Pitch_bend_c, 7, 8369
1, 164095, Pitch_bend_c, 7, 8355
1, 164100, Pitch_bend_c, 7, 8342
1, 164105, Pitch_bend_c, 7, 8321
1, 164110, Pitch_bend_c, 7, 8308
1, 164115, Pitch_bend_c, 7, 8294
1, 164120, Pitch_bend_c, 7, 8280
1, 164125, Pitch_bend_c, 7, 8267
1, 164130, Pitch_bend_c, 7, 8253
1, 164135, Pitch_bend_c, 7, 8239
1, 164140, Pitch_bend_c, 7, 8226
1, 164145, Pitch_bend_c, 7, 8212
1, 164150, Pitch_bend_c, 7, 8192
1, 164160, Note_on_c, 7, 47, 0
1, 164160, Note_on_c, 7, 35, 0
1, 164640, Control_c, 6, 7, 127
1, 165120, Control_c, 13, 7, 0
1, 165120, Pitch_bend_c, 13, 8192
1, 165120, Note_on_c, 13, 75, 63
1, 165120, Note_on_c, 13, 74, 63
1, 165120, Note_on_c, 13, 73, 63
1, 165120, Note_on_c, 13, 72, 63
1, 165120, Note_on_c, 13, 60, 63
1, 165120, Note_on_c, 13, 71, 63
1, 165120, Note_on_c, 13, 70, 63
1, 165120, Note_on_c, 13, 69, 63
1, 165120, Note_on_c, 13, 68, 63
1, 165120, Note_on_c, 13, 67, 63
1, 165120, Note_on_c, 13, 66, 63
1, 165120, Note_on_c, 13, 65, 63
1, 165120, Note_on_c, 13, 64, 63
1, 165120, Note_on_c, 13, 62, 63
1, 165120, Note_on_c, 13, 63, 63
1, 165120, Note_on_c, 13, 61, 63
1, 167040, Pitch_bend_c, 0, 8192
1, 167040, Note_on_c, 0, 35, 95
1, 167040, Pitch_bend_c, 1, 8192
1, 167040, Note_on_c, 1, 59, 95
1, 167040, Note_on_c, 1, 71, 64
1, 167040, Note_on_c, 1, 23, 95
1, 167040, Pitch_bend_c, 2, 8192
1, 167040, Note_on_c, 2, 83, 94
1, 167040, Note_on_c, 2, 71, 64
1, 167040, Note_on_c, 2, 59, 127
1, 167040, Note_on_c, 2, 47, 95
1, 167040, Pitch_bend_c, 3, 8192
1, 167040, Note_on_c, 3, 71, 64
1, 167040, Note_on_c, 3, 35, 64
1, 167040, Note_on_c, 9, 57, 103
1, 167040, Note_on_c, 9, 52, 127
1, 167040, Note_on_c, 9, 49, 103
1, 167040, Note_on_c, 9, 42, 103
1, 167040, Note_on_c, 9, 35, 103
1, 167040, Note_on_c, 9, 82, 18
1, 167040, Note_on_c, 10, 23, 127
1, 167040, Control_c, 13, 7, 127
1, 167100, Control_c, 13, 7, 127
1, 167160, Note_on_c, 9, 82, 0
1, 167160, Note_on_c, 9, 35, 0
1, 167160, Note_on_c, 9, 42, 0
1, 167160, Note_on_c, 9, 82, 18
1, 167160, Control_c, 13, 7, 125
1, 167220, Note_on_c, 10, 23, 0
1, 167220, Control_c, 13, 7, 124
1, 167280, Note_on_c, 9, 82, 0
1, 167280, Note_on_c, 9, 42, 73
1, 167280, Note_on_c, 9, 82, 31
1, 167280, Note_on_c, 10, 23, 93
1, 167280, Control_c, 13, 7, 121
1, 167340, Note_on_c, 10, 23, 0
1, 167340, Control_c, 13, 7, 119
1, 167400, Note_on_c, 9, 82, 0
1, 167400, Note_on_c, 2, 47, 0
1, 167400, Note_on_c, 3, 35, 0
1, 167400, Note_on_c, 0, 35, 0
1, 167400, Note_on_c, 2, 83, 0
1, 167400, Note_on_c, 1, 59, 0
1, 167400, Note_on_c, 1, 23, 0
1, 167400, Note_on_c, 1, 71, 0
1, 167400, Note_on_c, 9, 42, 0
1, 167400, Note_on_c, 2, 59, 0
1, 167400, Note_on_c, 2, 71, 0
1, 167400, Note_on_c, 3, 71, 0
1, 167400, Pitch_bend_c, 0, 0
1, 167400, Note_on_c, 0, 47, 95
1, 167400, Pitch_bend_c, 1, 0
1, 167400, Note_on_c, 1, 71, 95
1, 167400, Note_on_c, 1, 83, 64
1, 167400, Note_on_c, 1, 35, 95
1, 167400, Pitch_bend_c, 2, 0
1, 167400, Note_on_c, 2, 95, 64
1, 167400, Note_on_c, 2, 83, 64
1, 167400, Note_on_c, 2, 71, 127
1, 167400, Note_on_c, 2, 59, 95
1, 167400, Pitch_bend_c, 3, 0
1, 167400, Note_on_c, 3, 83, 64
1, 167400, Note_on_c, 3, 47, 64
1, 167400, Note_on_c, 9, 82, 39
1, 167400, Note_on_c, 10, 23, 75
1, 167400, Control_c, 13, 7, 117
1, 167415, Pitch_bend_c, 0, 8192
1, 167415, Pitch_bend_c, 1, 8192
1, 167415, Pitch_bend_c, 2, 8192
1, 167415, Pitch_bend_c, 3, 8192
1, 167460, Note_on_c, 10, 23, 0
1, 167460, Control_c, 13, 7, 114
1, 167520, Note_on_c, 2, 59, 0
1, 167520, Note_on_c, 1, 83, 0
1, 167520, Note_on_c, 1, 71, 0
1, 167520, Note_on_c, 0, 47, 0
1, 167520, Note_on_c, 1, 35, 0
1, 167520, Note_on_c, 9, 82, 0
1, 167520, Note_on_c, 2, 83, 0
1, 167520, Note_on_c, 2, 95, 0
1, 167520, Note_on_c, 3, 47, 0
1, 167520, Note_on_c, 2, 71, 0
1, 167520, Note_on_c, 3, 83, 0
1, 167520, Note_on_c, 9, 42, 73
1, 167520, Note_on_c, 9, 35, 102
1, 167520, Note_on_c, 9, 40, 89
1, 167520, Note_on_c, 9, 28, 103
1, 167520, Note_on_c, 9, 82, 40
1, 167520, Note_on_c, 10, 23, 68
1, 167520, Control_c, 13, 7, 112
1, 167580, Note_on_c, 10, 23, 0
1, 167580, Control_c, 13, 7, 110
1, 167640, Note_on_c, 9, 40, 0
1, 167640, Note_on_c, 9, 35, 0
1, 167640, Note_on_c, 9, 42, 0
1, 167640, Note_on_c, 9, 82, 0
1, 167640, Note_on_c, 9, 28, 0
1, 167640, Note_on_c, 9, 82, 25
1, 167640, Note_on_c, 10, 23, 75
1, 167640, Control_c, 13, 7, 108
1, 167700, Note_on_c, 10, 23, 0
1, 167700, Control_c, 13, 7, 106
1, 167760, Note_on_c, 9, 82, 0
1, 167760, Note_on_c, 0, 47, 95
1, 167760, Note_on_c, 1, 71, 95
1, 167760, Note_on_c, 1, 83, 64
1, 167760, Note_on_c, 1, 35, 95
1, 167760, Note_on_c, 2, 95, 64
1, 167760, Note_on_c, 2, 83, 64
1, 167760, Note_on_c, 2, 71, 127
1, 167760, Note_on_c, 2, 59, 95
1, 167760, Note_on_c, 3, 83, 64
1, 167760, Note_on_c, 3, 47, 64
1, 167760, Note_on_c, 9, 42, 73
1, 167760, Note_on_c, 9, 82, 11
1, 167760, Note_on_c, 10, 23, 99
1, 167760, Control_c, 13, 7, 105
1, 167820, Note_on_c, 10, 23, 0
1, 167820, Control_c, 13, 7, 103
1, 167880, Note_on_c, 9, 82, 0
1, 167880, Note_on_c, 9, 42, 0
1, 167880, Note_on_c, 9, 82, 11
1, 167880, Note_on_c, 10, 23, 127
1, 167880, Control_c, 13, 7, 101
1, 167940, Control_c, 13, 7, 99
1, 168000, Note_on_c, 9, 82, 0
1, 168000, Note_on_c, 1, 71, 0
1, 168000, Note_on_c, 3, 83, 0
1, 168000, Note_on_c, 0, 47, 0
1, 168000, Note_on_c, 1, 83, 0
1, 168000, Note_on_c, 2, 83, 0
1, 168000, Note_on_c, 2, 95, 0
1, 168000, Note_on_c, 1, 35, 0
1, 168000, Note_on_c, 2, 59, 0
1, 168000, Note_on_c, 2, 71, 0
1, 168000, Note_on_c, 3, 47, 0
1, 168000, Note_on_c, 9, 42, 88
1, 168000, Note_on_c, 9, 35, 102
1, 168000, Note_on_c, 9, 82, 18
1, 168000, Control_c, 13, 7, 96
1, 168060, Note_on_c, 10, 23, 0
1, 168060, Control_c, 13, 7, 95
1, 168120, Note_on_c, 9, 82, 0
1, 168120, Note_on_c, 9, 35, 0
1, 168120, Note_on_c, 9, 42, 0
1, 168120, Note_on_c, 0, 43, 95
1, 168120, Note_on_c, 1, 67, 95
1, 168120, Note_on_c, 1, 79, 64
1, 168120, Note_on_c, 1, 31, 95
1, 168120, Note_on_c, 2, 91, 64
1, 168120, Note_on_c, 2, 79, 64
1, 168120, Note_on_c, 2, 67, 127
1, 168120, Note_on_c, 2, 55, 95
1, 168120, Note_on_c, 3, 79, 64
1, 168120, Note_on_c, 3, 43, 64
1, 168120, Note_on_c, 9, 82, 18
1, 168120, Note_on_c, 10, 23, 93
1, 168120, Control_c, 13, 7, 92
1, 168180, Note_on_c, 10, 23, 0
1, 168180, Control_c, 13, 7, 91
1, 168240, Note_on_c, 2, 55, 0
1, 168240, Note_on_c, 1, 79, 0
1, 168240, Note_on_c, 1, 67, 0
1, 168240, Note_on_c, 0, 43, 0
1, 168240, Note_on_c, 1, 31, 0
1, 168240, Note_on_c, 9, 82, 0
1, 168240, Note_on_c, 2, 79, 0
1, 168240, Note_on_c, 2, 91, 0
1, 168240, Note_on_c, 3, 43, 0
1, 168240, Note_on_c, 2, 67, 0
1, 168240, Note_on_c, 3, 79, 0
1, 168240, Pitch_bend_c, 0, 5100
1, 168240, Note_on_c, 0, 47, 95
1, 168240, Pitch_bend_c, 1, 5100
1, 168240, Note_on_c, 1, 71, 95
1, 168240, Note_on_c, 1, 83, 64
1, 168240, Note_on_c, 1, 35, 95
1, 168240, Pitch_bend_c, 2, 5100
1, 168240, Note_on_c, 2, 95, 64
1, 168240, Note_on_c, 2, 83, 64
1, 168240, Note_on_c, 2, 71, 127
1, 168240, Note_on_c, 2, 59, 95
1, 168240, Pitch_bend_c, 3, 5100
1, 168240, Note_on_c, 3, 83, 64
1, 168240, Note_on_c, 3, 47, 64
1, 168240, Note_on_c, 9, 42, 73
1, 168240, Note_on_c, 9, 82, 31
1, 168240, Note_on_c, 10, 23, 75
1, 168240, Control_c, 13, 7, 90
1, 168255, Pitch_bend_c, 0, 6697
1, 168255, Pitch_bend_c, 1, 6697
1, 168255, Pitch_bend_c, 2, 6697
1, 168255, Pitch_bend_c, 3, 6697
1, 168300, Note_on_c, 10, 23, 0
1, 168300, Control_c, 13, 7, 88
1, 168320, Pitch_bend_c, 0, 6841
1, 168320, Pitch_bend_c, 1, 6841
1, 168320, Pitch_bend_c, 2, 6841
1, 168320, Pitch_bend_c, 3, 6841
1, 168350, Pitch_bend_c, 0, 6984
1, 168350, Pitch_bend_c, 1, 6984
1, 168350, Pitch_bend_c, 2, 6984
1, 168350, Pitch_bend_c, 3, 6984
1, 168360, Note_on_c, 9, 82, 0
1, 168360, Note_on_c, 9, 42, 0
1, 168360, Note_on_c, 9, 82, 39
1, 168360, Note_on_c, 10, 23, 59
1, 168360, Control_c, 13, 7, 86
1, 168365, Pitch_bend_c, 0, 7175
1, 168365, Pitch_bend_c, 1, 7175
1, 168365, Pitch_bend_c, 2, 7175
1, 168365, Pitch_bend_c, 3, 7175
1, 168380, Pitch_bend_c, 0, 7319
1, 168380, Pitch_bend_c, 1, 7319
1, 168380, Pitch_bend_c, 2, 7319
1, 168380, Pitch_bend_c, 3, 7319
1, 168400, Pitch_bend_c, 0, 7612
1, 168400, Pitch_bend_c, 1, 7612
1, 168400, Pitch_bend_c, 2, 7612
1, 168400, Pitch_bend_c, 3, 7612
1, 168415, Pitch_bend_c, 0, 7756
1, 168415, Pitch_bend_c, 1, 7756
1, 168415, Pitch_bend_c, 2, 7756
1, 168415, Pitch_bend_c, 3, 7756
1, 168420, Note_on_c, 10, 23, 0
1, 168420, Control_c, 13, 7, 83
1, 168430, Pitch_bend_c, 0, 7899
1, 168430, Pitch_bend_c, 1, 7899
1, 168430, Pitch_bend_c, 2, 7899
1, 168430, Pitch_bend_c, 3, 7899
1, 168445, Pitch_bend_c, 0, 8049
1, 168445, Pitch_bend_c, 1, 8049
1, 168445, Pitch_bend_c, 2, 8049
1, 168445, Pitch_bend_c, 3, 8049
1, 168460, Pitch_bend_c, 0, 8192
1, 168460, Pitch_bend_c, 1, 8192
1, 168460, Pitch_bend_c, 2, 8192
1, 168460, Pitch_bend_c, 3, 8192
1, 168480, Note_on_c, 3, 47, 0
1, 168480, Note_on_c, 3, 83, 0
1, 168480, Note_on_c, 1, 71, 0
1, 168480, Note_on_c, 0, 47, 0
1, 168480, Note_on_c, 1, 35, 0
1, 168480, Note_on_c, 9, 82, 0
1, 168480, Note_on_c, 2, 83, 0
1, 168480, Note_on_c, 2, 95, 0
1, 168480, Note_on_c, 1, 83, 0
1, 168480, Note_on_c, 2, 71, 0
1, 168480, Note_on_c, 2, 59, 0
1, 168480, Note_on_c, 0, 47, 95
1, 168480, Note_on_c, 1, 71, 95
1, 168480, Note_on_c, 1, 83, 64
1, 168480, Note_on_c, 1, 35, 95
1, 168480, Note_on_c, 2, 95, 64
1, 168480, Note_on_c, 2, 83, 64
1, 168480, Note_on_c, 2, 71, 127
1, 168480, Note_on_c, 2, 59, 95
1, 168480, Note_on_c, 3, 83, 64
1, 168480, Note_on_c, 3, 47, 64
1, 168480, Note_on_c, 9, 42, 73
1, 168480, Note_on_c, 9, 40, 90
1, 168480, Note_on_c, 9, 35, 103
1, 168480, Note_on_c, 9, 28, 103
1, 168480, Note_on_c, 9, 82, 40
1, 168480, Note_on_c, 10, 23, 58
1, 168480, Control_c, 13, 7, 82
1, 168540, Note_on_c, 10, 23, 0
1, 168540, Control_c, 13, 7, 80
1, 168600, Note_on_c, 9, 82, 0
1, 168600, Note_on_c, 9, 28, 0
1, 168600, Note_on_c, 9, 35, 0
1, 168600, Note_on_c, 9, 40, 0
1, 168600, Note_on_c, 9, 42, 0
1, 168600, Note_on_c, 9, 82, 25
1, 168600, Note_on_c, 10, 23, 72
1, 168600, Control_c, 13, 7, 77
1, 168660, Note_on_c, 10, 23, 0
1, 168660, Control_c, 13, 7, 76
1, 168720, Note_on_c, 3, 47, 0
1, 168720, Note_on_c, 3, 83, 0
1, 168720, Note_on_c, 1, 71, 0
1, 168720, Note_on_c, 0, 47, 0
1, 168720, Note_on_c, 1, 35, 0
1, 168720, Note_on_c, 9, 82, 0
1, 168720, Note_on_c, 2, 83, 0
1, 168720, Note_on_c, 2, 95, 0
1, 168720, Note_on_c, 1, 83, 0
1, 168720, Note_on_c, 2, 71, 0
1, 168720, Note_on_c, 2, 59, 0
1, 168720, Note_on_c, 0, 47, 95
1, 168720, Note_on_c, 1, 71, 95
1, 168720, Note_on_c, 1, 83, 64
1, 168720, Note_on_c, 1, 35, 95
1, 168720, Note_on_c, 2, 95, 64
1, 168720, Note_on_c, 2, 83, 64
1, 168720, Note_on_c, 2, 71, 127
1, 168720, Note_on_c, 2, 59, 95
1, 168720, Note_on_c, 3, 83, 64
1, 168720, Note_on_c, 3, 47, 64
1, 168720, Note_on_c, 9, 42, 73
1, 168720, Note_on_c, 9, 82, 11
1, 168720, Note_on_c, 10, 23, 91
1, 168720, Control_c, 13, 7, 74
1, 168750, Pitch_bend_c, 0, 8335
1, 168750, Pitch_bend_c, 1, 8335
1, 168750, Pitch_bend_c, 2, 8335
1, 168750, Pitch_bend_c, 3, 8335
1, 168780, Note_on_c, 10, 23, 0
1, 168780, Control_c, 13, 7, 71
1, 168800, Pitch_bend_c, 0, 8485
1, 168800, Pitch_bend_c, 1, 8485
1, 168800, Pitch_bend_c, 2, 8485
1, 168800, Pitch_bend_c, 3, 8485
1, 168815, Pitch_bend_c, 0, 8628
1, 168815, Pitch_bend_c, 1, 8628
1, 168815, Pitch_bend_c, 2, 8628
1, 168815, Pitch_bend_c, 3, 8628
1, 168830, Pitch_bend_c, 0, 8772
1, 168830, Pitch_bend_c, 1, 8772
1, 168830, Pitch_bend_c, 2, 8772
1, 168830, Pitch_bend_c, 3, 8772
1, 168840, Note_on_c, 9, 82, 0
1, 168840, Note_on_c, 9, 42, 0
1, 168840, Note_on_c, 9, 82, 11
1, 168840, Note_on_c, 10, 23, 127
1, 168840, Control_c, 13, 7, 69
1, 168845, Pitch_bend_c, 0, 9065
1, 168845, Pitch_bend_c, 1, 9065
1, 168845, Pitch_bend_c, 2, 9065
1, 168845, Pitch_bend_c, 3, 9065
1, 168860, Pitch_bend_c, 0, 9400
1, 168860, Pitch_bend_c, 1, 9400
1, 168860, Pitch_bend_c, 2, 9400
1, 168860, Pitch_bend_c, 3, 9400
1, 168880, Pitch_bend_c, 0, 9543
1, 168880, Pitch_bend_c, 1, 9543
1, 168880, Pitch_bend_c, 2, 9543
1, 168880, Pitch_bend_c, 3, 9543
1, 168895, Pitch_bend_c, 0, 9830
1, 168895, Pitch_bend_c, 1, 9830
1, 168895, Pitch_bend_c, 2, 9830
1, 168895, Pitch_bend_c, 3, 9830
1, 168900, Control_c, 13, 7, 68
1, 168910, Pitch_bend_c, 0, 10110
1, 168910, Pitch_bend_c, 1, 10110
1, 168910, Pitch_bend_c, 2, 10110
1, 168910, Pitch_bend_c, 3, 10110
1, 168925, Pitch_bend_c, 0, 10253
1, 168925, Pitch_bend_c, 1, 10253
1, 168925, Pitch_bend_c, 2, 10253
1, 168925, Pitch_bend_c, 3, 10253
1, 168940, Pitch_bend_c, 0, 10397
1, 168940, Pitch_bend_c, 1, 10397
1, 168940, Pitch_bend_c, 2, 10397
1, 168940, Pitch_bend_c, 3, 10397
1, 168960, Note_on_c, 9, 82, 0
1, 168960, Note_on_c, 1, 71, 0
1, 168960, Note_on_c, 3, 83, 0
1, 168960, Note_on_c, 0, 47, 0
1, 168960, Note_on_c, 1, 83, 0
1, 168960, Note_on_c, 2, 83, 0
1, 168960, Note_on_c, 2, 95, 0
1, 168960, Note_on_c, 1, 35, 0
1, 168960, Note_on_c, 2, 59, 0
1, 168960, Note_on_c, 2, 71, 0
1, 168960, Note_on_c, 3, 47, 0
1, 168960, Pitch_bend_c, 0, 12165
1, 168960, Note_on_c, 0, 35, 95
1, 168960, Pitch_bend_c, 1, 12165
1, 168960, Note_on_c, 1, 59, 95
1, 168960, Note_on_c, 1, 71, 64
1, 168960, Note_on_c, 1, 23, 95
1, 168960, Pitch_bend_c, 2, 12165
1, 168960, Note_on_c, 2, 83, 64
1, 168960, Note_on_c, 2, 71, 64
1, 168960, Note_on_c, 2, 59, 127
1, 168960, Note_on_c, 2, 47, 95
1, 168960, Pitch_bend_c, 3, 12165
1, 168960, Note_on_c, 3, 71, 64
1, 168960, Note_on_c, 3, 35, 64
1, 168960, Note_on_c, 9, 82, 18
1, 168960, Note_on_c, 9, 42, 103
1, 168960, Note_on_c, 9, 35, 103
1, 168960, Control_c, 13, 7, 66
1, 168975, Pitch_bend_c, 0, 8192
1, 168975, Pitch_bend_c, 1, 8192
1, 168975, Pitch_bend_c, 2, 8192
1, 168975, Pitch_bend_c, 3, 8192
1, 169020, Control_c, 13, 7, 63
1, 169080, Note_on_c, 9, 35, 0
1, 169080, Note_on_c, 9, 42, 0
1, 169080, Note_on_c, 9, 82, 0
1, 169080, Note_on_c, 10, 23, 0
1, 169080, Note_on_c, 9, 82, 18
1, 169080, Note_on_c, 10, 23, 79
1, 169080, Control_c, 13, 7, 60
1, 169140, Note_on_c, 10, 23, 0
1, 169140, Control_c, 13, 7, 59
1, 169200, Note_on_c, 9, 82, 0
1, 169200, Note_on_c, 9, 82, 31
1, 169200, Note_on_c, 9, 42, 73
1, 169200, Note_on_c, 10, 23, 64
1, 169200, Control_c, 13, 7, 57
1, 169260, Note_on_c, 10, 23, 0
1, 169260, Control_c, 13, 7, 55
1, 169320, Note_on_c, 9, 42, 0
1, 169320, Note_on_c, 1, 71, 0
1, 169320, Note_on_c, 2, 47, 0
1, 169320, Note_on_c, 1, 59, 0
1, 169320, Note_on_c, 0, 35, 0
1, 169320, Note_on_c, 1, 23, 0
1, 169320, Note_on_c, 9, 82, 0
1, 169320, Note_on_c, 2, 71, 0
1, 169320, Note_on_c, 2, 83, 0
1, 169320, Note_on_c, 3, 71, 0
1, 169320, Note_on_c, 2, 59, 0
1, 169320, Note_on_c, 3, 35, 0
1, 169320, Pitch_bend_c, 0, 0
1, 169320, Note_on_c, 0, 47, 95
1, 169320, Pitch_bend_c, 1, 0
1, 169320, Note_on_c, 1, 71, 95
1, 169320, Note_on_c, 1, 83, 64
1, 169320, Note_on_c, 1, 35, 95
1, 169320, Pitch_bend_c, 2, 0
1, 169320, Note_on_c, 2, 95, 64
1, 169320, Note_on_c, 2, 83, 64
1, 169320, Note_on_c, 2, 71, 127
1, 169320, Note_on_c, 2, 59, 95
1, 169320, Pitch_bend_c, 3, 0
1, 169320, Note_on_c, 3, 83, 64
1, 169320, Note_on_c, 3, 47, 64
1, 169320, Note_on_c, 9, 82, 39
1, 169320, Note_on_c, 10, 23, 62
1, 169320, Control_c, 13, 7, 52
1, 169335, Pitch_bend_c, 0, 8192
1, 169335, Pitch_bend_c, 1, 8192
1, 169335, Pitch_bend_c, 2, 8192
1, 169335, Pitch_bend_c, 3, 8192
1, 169380, Note_on_c, 10, 23, 0
1, 169380, Control_c, 13, 7, 50
1, 169440, Note_on_c, 2, 59, 0
1, 169440, Note_on_c, 1, 83, 0
1, 169440, Note_on_c, 1, 71, 0
1, 169440, Note_on_c, 0, 47, 0
1, 169440, Note_on_c, 1, 35, 0
1, 169440, Note_on_c, 9, 82, 0
1, 169440, Note_on_c, 2, 83, 0
1, 169440, Note_on_c, 2, 95, 0
1, 169440, Note_on_c, 3, 47, 0
1, 169440, Note_on_c, 2, 71, 0
1, 169440, Note_on_c, 3, 83, 0
1, 169440, Note_on_c, 9, 82, 40
1, 169440, Note_on_c, 9, 42, 73
1, 169440, Note_on_c, 9, 40, 91
1, 169440, Note_on_c, 9, 35, 103
1, 169440, Note_on_c, 9, 28, 102
1, 169440, Note_on_c, 10, 23, 66
1, 169440, Control_c, 13, 7, 48
1, 169500, Note_on_c, 10, 23, 0
1, 169500, Control_c, 13, 7, 47
1, 169560, Note_on_c, 9, 40, 0
1, 169560, Note_on_c, 9, 42, 0
1, 169560, Note_on_c, 9, 82, 0
1, 169560, Note_on_c, 9, 28, 0
1, 169560, Note_on_c, 9, 35, 0
1, 169560, Note_on_c, 9, 82, 25
1, 169560, Note_on_c, 10, 23, 91
1, 169560, Control_c, 13, 7, 45
1, 169620, Note_on_c, 10, 23, 0
1, 169620, Control_c, 13, 7, 44
1, 169680, Note_on_c, 9, 82, 0
1, 169680, Note_on_c, 0, 47, 95
1, 169680, Note_on_c, 1, 71, 95
1, 169680, Note_on_c, 1, 83, 64
1, 169680, Note_on_c, 1, 35, 95
1, 169680, Note_on_c, 2, 95, 64
1, 169680, Note_on_c, 2, 83, 64
1, 169680, Note_on_c, 2, 71, 127
1, 169680, Note_on_c, 2, 59, 95
1, 169680, Note_on_c, 3, 83, 64
1, 169680, Note_on_c, 3, 47, 64
1, 169680, Note_on_c, 9, 82, 11
1, 169680, Note_on_c, 9, 42, 73
1, 169680, Note_on_c, 10, 23, 98
1, 169680, Control_c, 13, 7, 42
1, 169740, Note_on_c, 10, 23, 0
1, 169740, Control_c, 13, 7, 41
1, 169800, Note_on_c, 9, 42, 0
1, 169800, Note_on_c, 9, 82, 0
1, 169800, Note_on_c, 9, 82, 11
1, 169800, Note_on_c, 10, 23, 127
1, 169800, Control_c, 13, 7, 38
1, 169860, Control_c, 13, 7, 36
1, 169920, Note_on_c, 9, 82, 0
1, 169920, Note_on_c, 1, 71, 0
1, 169920, Note_on_c, 3, 83, 0
1, 169920, Note_on_c, 0, 47, 0
1, 169920, Note_on_c, 1, 83, 0
1, 169920, Note_on_c, 2, 83, 0
1, 169920, Note_on_c, 2, 95, 0
1, 169920, Note_on_c, 1, 35, 0
1, 169920, Note_on_c, 2, 59, 0
1, 169920, Note_on_c, 2, 71, 0
1, 169920, Note_on_c, 3, 47, 0
1, 169920, Note_on_c, 0, 47, 95
1, 169920, Note_on_c, 1, 71, 95
1, 169920, Note_on_c, 1, 83, 64
1, 169920, Note_on_c, 1, 35, 95
1, 169920, Note_on_c, 2, 95, 64
1, 169920, Note_on_c, 2, 83, 64
1, 169920, Note_on_c, 2, 71, 127
1, 169920, Note_on_c, 2, 59, 95
1, 169920, Note_on_c, 3, 83, 64
1, 169920, Note_on_c, 3, 47, 64
1, 169920, Note_on_c, 9, 82, 18
1, 169920, Note_on_c, 9, 42, 88
1, 169920, Note_on_c, 9, 35, 104
1, 169920, Control_c, 13, 7, 34
1, 169950, Pitch_bend_c, 0, 8049
1, 169950, Pitch_bend_c, 1, 8049
1, 169950, Pitch_bend_c, 2, 8049
1, 169950, Pitch_bend_c, 3, 8049
1, 169980, Note_on_c, 10, 23, 0
1, 169980, Pitch_bend_c, 0, 7899
1, 169980, Pitch_bend_c, 1, 7899
1, 169980, Pitch_bend_c, 2, 7899
1, 169980, Pitch_bend_c, 3, 7899
1, 169980, Control_c, 13, 7, 33
1, 170015, Pitch_bend_c, 0, 7756
1, 170015, Pitch_bend_c, 1, 7756
1, 170015, Pitch_bend_c, 2, 7756
1, 170015, Pitch_bend_c, 3, 7756
1, 170040, Note_on_c, 9, 35, 0
1, 170040, Note_on_c, 9, 42, 0
1, 170040, Note_on_c, 9, 82, 0
1, 170040, Note_on_c, 9, 82, 18
1, 170040, Note_on_c, 10, 23, 66
1, 170040, Control_c, 13, 7, 31
1, 170045, Pitch_bend_c, 0, 7612
1, 170045, Pitch_bend_c, 1, 7612
1, 170045, Pitch_bend_c, 2, 7612
1, 170045, Pitch_bend_c, 3, 7612
1, 170080, Pitch_bend_c, 0, 7469
1, 170080, Pitch_bend_c, 1, 7469
1, 170080, Pitch_bend_c, 2, 7469
1, 170080, Pitch_bend_c, 3, 7469
1, 170100, Note_on_c, 10, 23, 0
1, 170100, Note_on_c, 3, 83, 0
1, 170100, Note_on_c, 1, 71, 0
1, 170100, Note_on_c, 0, 47, 0
1, 170100, Note_on_c, 1, 83, 0
1, 170100, Note_on_c, 2, 83, 0
1, 170100, Note_on_c, 2, 95, 0
1, 170100, Note_on_c, 1, 35, 0
1, 170100, Note_on_c, 2, 59, 0
1, 170100, Note_on_c, 2, 71, 0
1, 170100, Note_on_c, 3, 47, 0
1, 170100, Control_c, 13, 7, 29
1, 170160, Note_on_c, 9, 82, 0
1, 170160, Note_on_c, 0, 47, 95
1, 170160, Note_on_c, 1, 71, 95
1, 170160, Note_on_c, 1, 83, 64
1, 170160, Note_on_c, 1, 35, 95
1, 170160, Note_on_c, 2, 95, 64
1, 170160, Note_on_c, 2, 83, 64
1, 170160, Note_on_c, 2, 71, 127
1, 170160, Note_on_c, 2, 59, 95
1, 170160, Note_on_c, 3, 83, 64
1, 170160, Note_on_c, 3, 47, 64
1, 170160, Note_on_c, 9, 82, 31
1, 170160, Note_on_c, 9, 42, 73
1, 170160, Note_on_c, 10, 23, 74
1, 170160, Control_c, 13, 7, 29
1, 170175, Pitch_bend_c, 0, 7319
1, 170175, Pitch_bend_c, 1, 7319
1, 170175, Pitch_bend_c, 2, 7319
1, 170175, Pitch_bend_c, 3, 7319
1, 170220, Note_on_c, 10, 23, 0
1, 170220, Pitch_bend_c, 0, 7175
1, 170220, Pitch_bend_c, 1, 7175
1, 170220, Pitch_bend_c, 2, 7175
1, 170220, Pitch_bend_c, 3, 7175
1, 170220, Control_c, 13, 7, 26
1, 170240, Pitch_bend_c, 0, 6984
1, 170240, Pitch_bend_c, 1, 6984
1, 170240, Pitch_bend_c, 2, 6984
1, 170240, Pitch_bend_c, 3, 6984
1, 170270, Pitch_bend_c, 0, 6841
1, 170270, Pitch_bend_c, 1, 6841
1, 170270, Pitch_bend_c, 2, 6841
1, 170270, Pitch_bend_c, 3, 6841
1, 170280, Note_on_c, 9, 42, 0
1, 170280, Note_on_c, 9, 82, 0
1, 170280, Note_on_c, 9, 82, 39
1, 170280, Note_on_c, 10, 23, 84
1, 170280, Control_c, 13, 7, 24
1, 170300, Pitch_bend_c, 0, 6697
1, 170300, Pitch_bend_c, 1, 6697
1, 170300, Pitch_bend_c, 2, 6697
1, 170300, Pitch_bend_c, 3, 6697
1, 170340, Note_on_c, 10, 23, 0
1, 170340, Control_c, 13, 7, 21
1, 170380, Pitch_bend_c, 0, 6554
1, 170380, Pitch_bend_c, 1, 6554
1, 170380, Pitch_bend_c, 2, 6554
1, 170380, Pitch_bend_c, 3, 6554
1, 170400, Note_on_c, 3, 47, 0
1, 170400, Note_on_c, 3, 83, 0
1, 170400, Note_on_c, 1, 71, 0
1, 170400, Note_on_c, 0, 47, 0
1, 170400, Note_on_c, 1, 35, 0
1, 170400, Note_on_c, 9, 82, 0
1, 170400, Note_on_c, 2, 83, 0
1, 170400, Note_on_c, 2, 95, 0
1, 170400, Note_on_c, 1, 83, 0
1, 170400, Note_on_c, 2, 71, 0
1, 170400, Note_on_c, 2, 59, 0
1, 170400, Note_on_c, 0, 47, 95
1, 170400, Note_on_c, 1, 71, 95
1, 170400, Note_on_c, 1, 83, 64
1, 170400, Note_on_c, 1, 35, 95
1, 170400, Note_on_c, 2, 95, 64
1, 170400, Note_on_c, 2, 83, 64
1, 170400, Note_on_c, 2, 71, 127
1, 170400, Note_on_c, 2, 59, 95
1, 170400, Note_on_c, 3, 83, 64
1, 170400, Note_on_c, 3, 47, 64
1, 170400, Note_on_c, 9, 82, 40
1, 170400, Note_on_c, 9, 42, 73
1, 170400, Note_on_c, 9, 40, 92
1, 170400, Note_on_c, 9, 35, 104
1, 170400, Note_on_c, 9, 28, 102
1, 170400, Note_on_c, 10, 35, 127
1, 170400, Control_c, 13, 7, 19
1, 170430, Pitch_bend_c, 0, 6418
1, 170430, Pitch_bend_c, 1, 6418
1, 170430, Pitch_bend_c, 2, 6418
1, 170430, Pitch_bend_c, 3, 6418
1, 170445, Pitch_bend_c, 0, 6274
1, 170445, Pitch_bend_c, 1, 6274
1, 170445, Pitch_bend_c, 2, 6274
1, 170445, Pitch_bend_c, 3, 6274
1, 170460, Pitch_bend_c, 0, 6131
1, 170460, Pitch_bend_c, 1, 6131
1, 170460, Pitch_bend_c, 2, 6131
1, 170460, Pitch_bend_c, 3, 6131
1, 170460, Control_c, 13, 7, 17
1, 170480, Pitch_bend_c, 0, 5987
1, 170480, Pitch_bend_c, 1, 5987
1, 170480, Pitch_bend_c, 2, 5987
1, 170480, Pitch_bend_c, 3, 5987
1, 170495, Pitch_bend_c, 0, 5803
1, 170495, Pitch_bend_c, 1, 5803
1, 170495, Pitch_bend_c, 2, 5803
1, 170495, Pitch_bend_c, 3, 5803
1, 170510, Pitch_bend_c, 0, 5660
1, 170510, Pitch_bend_c, 1, 5660
1, 170510, Pitch_bend_c, 2, 5660
1, 170510, Pitch_bend_c, 3, 5660
1, 170520, Note_on_c, 9, 28, 0
1, 170520, Note_on_c, 9, 35, 0
1, 170520, Note_on_c, 9, 40, 0
1, 170520, Note_on_c, 9, 42, 0
1, 170520, Note_on_c, 9, 82, 0
1, 170520, Note_on_c, 9, 82, 25
1, 170520, Control_c, 13, 7, 15
1, 170525, Pitch_bend_c, 0, 5516
1, 170525, Pitch_bend_c, 1, 5516
1, 170525, Pitch_bend_c, 2, 5516
1, 170525, Pitch_bend_c, 3, 5516
1, 170540, Pitch_bend_c, 0, 5380
1, 170540, Pitch_bend_c, 1, 5380
1, 170540, Pitch_bend_c, 2, 5380
1, 170540, Pitch_bend_c, 3, 5380
1, 170560, Pitch_bend_c, 0, 5237
1, 170560, Pitch_bend_c, 1, 5237
1, 170560, Pitch_bend_c, 2, 5237
1, 170560, Pitch_bend_c, 3, 5237
1, 170580, Note_on_c, 10, 35, 0
1, 170580, Control_c, 13, 7, 13
1, 170590, Pitch_bend_c, 0, 5100
1, 170590, Pitch_bend_c, 1, 5100
1, 170590, Pitch_bend_c, 2, 5100
1, 170590, Pitch_bend_c, 3, 5100
1, 170640, Note_on_c, 3, 83, 0
1, 170640, Note_on_c, 2, 59, 0
1, 170640, Note_on_c, 1, 83, 0
1, 170640, Note_on_c, 1, 71, 0
1, 170640, Note_on_c, 0, 47, 0
1, 170640, Note_on_c, 9, 82, 0
1, 170640, Note_on_c, 2, 95, 0
1, 170640, Note_on_c, 1, 35, 0
1, 170640, Note_on_c, 2, 83, 0
1, 170640, Note_on_c, 2, 71, 0
1, 170640, Note_on_c, 3, 47, 0
1, 170640, Note_on_c, 0, 47, 95
1, 170640, Note_on_c, 1, 71, 95
1, 170640, Note_on_c, 1, 83, 64
1, 170640, Note_on_c, 1, 35, 95
1, 170640, Note_on_c, 2, 95, 64
1, 170640, Note_on_c, 2, 83, 64
1, 170640, Note_on_c, 2, 71, 127
1, 170640, Note_on_c, 2, 59, 95
1, 170640, Note_on_c, 3, 83, 64
1, 170640, Note_on_c, 3, 47, 64
1, 170640, Note_on_c, 9, 82, 11
1, 170640, Note_on_c, 9, 42, 73
1, 170640, Note_on_c, 10, 23, 103
1, 170640, Control_c, 13, 7, 11
1, 170655, Pitch_bend_c, 0, 4963
1, 170655, Pitch_bend_c, 1, 4963
1, 170655, Pitch_bend_c, 2, 4963
1, 170655, Pitch_bend_c, 3, 4963
1, 170670, Pitch_bend_c, 0, 4636
1, 170670, Pitch_bend_c, 1, 4636
1, 170670, Pitch_bend_c, 2, 4636
1, 170670, Pitch_bend_c, 3, 4636
1, 170685, Pitch_bend_c, 0, 4499
1, 170685, Pitch_bend_c, 1, 4499
1, 170685, Pitch_bend_c, 2, 4499
1, 170685, Pitch_bend_c, 3, 4499
1, 170700, Note_on_c, 10, 23, 0
1, 170700, Pitch_bend_c, 0, 4083
1, 170700, Pitch_bend_c, 1, 4083
1, 170700, Pitch_bend_c, 2, 4083
1, 170700, Pitch_bend_c, 3, 4083
1, 170700, Control_c, 13, 7, 9
1, 170720, Pitch_bend_c, 0, 3810
1, 170720, Pitch_bend_c, 1, 3810
1, 170720, Pitch_bend_c, 2, 3810
1, 170720, Pitch_bend_c, 3, 3810
1, 170735, Pitch_bend_c, 0, 3359
1, 170735, Pitch_bend_c, 1, 3359
1, 170735, Pitch_bend_c, 2, 3359
1, 170735, Pitch_bend_c, 3, 3359
1, 170750, Pitch_bend_c, 0, 3086
1, 170750, Pitch_bend_c, 1, 3086
1, 170750, Pitch_bend_c, 2, 3086
1, 170750, Pitch_bend_c, 3, 3086
1, 170760, Note_on_c, 9, 42, 0
1, 170760, Note_on_c, 9, 82, 0
1, 170760, Note_on_c, 9, 82, 11
1, 170760, Note_on_c, 10, 35, 127
1, 170760, Control_c, 13, 7, 8
1, 170765, Pitch_bend_c, 0, 2820
1, 170765, Pitch_bend_c, 1, 2820
1, 170765, Pitch_bend_c, 2, 2820
1, 170765, Pitch_bend_c, 3, 2820
1, 170780, Pitch_bend_c, 0, 2683
1, 170780, Pitch_bend_c, 1, 2683
1, 170780, Pitch_bend_c, 2, 2683
1, 170780, Pitch_bend_c, 3, 2683
1, 170800, Pitch_bend_c, 0, 2369
1, 170800, Pitch_bend_c, 1, 2369
1, 170800, Pitch_bend_c, 2, 2369
1, 170800, Pitch_bend_c, 3, 2369
1, 170815, Pitch_bend_c, 0, 2240
1, 170815, Pitch_bend_c, 1, 2240
1, 170815, Pitch_bend_c, 2, 2240
1, 170815, Pitch_bend_c, 3, 2240
1, 170820, Control_c, 13, 7, 6
1, 170845, Pitch_bend_c, 0, 2103
1, 170845, Pitch_bend_c, 1, 2103
1, 170845, Pitch_bend_c, 2, 2103
1, 170845, Pitch_bend_c, 3, 2103
1, 170880, Note_on_c, 10, 35, 0
1, 170880, Note_on_c, 3, 47, 0
1, 170880, Note_on_c, 3, 83, 0
1, 170880, Note_on_c, 13, 68, 0
1, 170880, Note_on_c, 13, 69, 0
1, 170880, Note_on_c, 1, 35, 0
1, 170880, Note_on_c, 13, 71, 0
1, 170880, Note_on_c, 9, 57, 0
1, 170880, Note_on_c, 13, 66, 0
1, 170880, Note_on_c, 13, 74, 0
1, 170880, Note_on_c, 13, 60, 0
1, 170880, Note_on_c, 13, 62, 0
1, 170880, Note_on_c, 13, 73, 0
1, 170880, Note_on_c, 13, 63, 0
1, 170880, Note_on_c, 13, 72, 0
1, 170880, Note_on_c, 13, 70, 0
1, 170880, Note_on_c, 9, 49, 0
1, 170880, Note_on_c, 2, 59, 0
1, 170880, Note_on_c, 2, 71, 0
1, 170880, Note_on_c, 2, 95, 0
1, 170880, Note_on_c, 13, 75, 0
1, 170880, Note_on_c, 0, 47, 0
1, 170880, Note_on_c, 13, 65, 0
1, 170880, Note_on_c, 13, 61, 0
1, 170880, Note_on_c, 13, 64, 0
1, 170880, Note_on_c, 9, 52, 0
1, 170880, Note_on_c, 2, 83, 0
1, 170880, Note_on_c, 1, 71, 0
1, 170880, Note_on_c, 1, 83, 0
1, 170880, Note_on_c, 9, 82, 0
1, 170880, Note_on_c, 13, 67, 0
1, 170880, Pitch_bend_c, 0, 8192
1, 170880, Note_on_c, 0, 35, 95
1, 170880, Pitch_bend_c, 1, 8192
1, 170880, Note_on_c, 1, 59, 95
1, 170880, Note_on_c, 1, 71, 64
1, 170880, Note_on_c, 1, 23, 95
1, 170880, Pitch_bend_c, 2, 8192
1, 170880, Note_on_c, 2, 83, 94
1, 170880, Note_on_c, 2, 71, 64
1, 170880, Note_on_c, 2, 59, 127
1, 170880, Note_on_c, 2, 47, 95
1, 170880, Pitch_bend_c, 3, 8192
1, 170880, Note_on_c, 3, 71, 64
1, 170880, Note_on_c, 3, 35, 64
1, 170880, Note_on_c, 9, 42, 103
1, 170880, Note_on_c, 9, 35, 103
1, 170880, Note_on_c, 9, 82, 18
1, 170880, Note_on_c, 10, 23, 127
1, 170880, Control_c, 13, 7, 0
1, 171000, Note_on_c, 9, 82, 0
1, 171000, Note_on_c, 9, 35, 0
1, 171000, Note_on_c, 9, 42, 0
1, 171000, Note_on_c, 9, 82, 18
1, 171060, Note_on_c, 10, 23, 0
1, 171120, Note_on_c, 9, 82, 0
1, 171120, Note_on_c, 9, 42, 73
1, 171120, Note_on_c, 9, 82, 31
1, 171120, Note_on_c, 10, 23, 93
1, 171180, Note_on_c, 10, 23, 0
1, 171240, Note_on_c, 2, 83, 0
1, 171240, Note_on_c, 1, 59, 0
1, 171240, Note_on_c, 3, 71, 0
1, 171240, Note_on_c, 1, 71, 0
1, 171240, Note_on_c, 1, 23, 0
1, 171240, Note_on_c, 0, 35, 0
1, 171240, Note_on_c, 2, 71, 0
1, 171240, Note_on_c, 9, 42, 0
1, 171240, Note_on_c, 3, 35, 0
1, 171240, Note_on_c, 2, 59, 0
1, 171240, Note_on_c, 9, 82, 0
1, 171240, Note_on_c, 2, 47, 0
1, 171240, Pitch_bend_c, 0, 0
1, 171240, Note_on_c, 0, 47, 95
1, 171240, Pitch_bend_c, 1, 0
1, 171240, Note_on_c, 1, 71, 95
1, 171240, Note_on_c, 1, 83, 64
1, 171240, Note_on_c, 1, 35, 95
1, 171240, Pitch_bend_c, 2, 0
1, 171240, Note_on_c, 2, 95, 64
1, 171240, Note_on_c, 2, 83, 64
1, 171240, Note_on_c, 2, 71, 127
1, 171240, Note_on_c, 2, 59, 95
1, 171240, Pitch_bend_c, 3, 0
1, 171240, Note_on_c, 3, 83, 64
1, 171240, Note_on_c, 3, 47, 64
1, 171240, Note_on_c, 9, 82, 39
1, 171240, Note_on_c, 10, 23, 75
1, 171255, Pitch_bend_c, 0, 8192
1, 171255, Pitch_bend_c, 1, 8192
1, 171255, Pitch_bend_c, 2, 8192
1, 171255, Pitch_bend_c, 3, 8192
1, 171300, Note_on_c, 10, 23, 0
1, 171360, Note_on_c, 1, 71, 0
1, 171360, Note_on_c, 2, 59, 0
1, 171360, Note_on_c, 1, 83, 0
1, 171360, Note_on_c, 1, 35, 0
1, 171360, Note_on_c, 0, 47, 0
1, 171360, Note_on_c, 2, 95, 0
1, 171360, Note_on_c, 2, 83, 0
1, 171360, Note_on_c, 3, 83, 0
1, 171360, Note_on_c, 2, 71, 0
1, 171360, Note_on_c, 9, 82, 0
1, 171360, Note_on_c, 3, 47, 0
1, 171360, Note_on_c, 9, 42, 73
1, 171360, Note_on_c, 9, 35, 102
1, 171360, Note_on_c, 9, 40, 89
1, 171360, Note_on_c, 9, 28, 103
1, 171360, Note_on_c, 9, 82, 40
1, 171360, Note_on_c, 10, 23, 68
1, 171420, Note_on_c, 10, 23, 0
1, 171480, Note_on_c, 9, 35, 0
1, 171480, Note_on_c, 9, 40, 0
1, 171480, Note_on_c, 9, 42, 0
1, 171480, Note_on_c, 9, 82, 0
1, 171480, Note_on_c, 9, 28, 0
1, 171480, Note_on_c, 9, 82, 25
1, 171480, Note_on_c, 10, 23, 75
1, 171540, Note_on_c, 10, 23, 0
1, 171600, Note_on_c, 9, 82, 0
1, 171600, Note_on_c, 0, 47, 95
1, 171600, Note_on_c, 1, 71, 95
1, 171600, Note_on_c, 1, 83, 64
1, 171600, Note_on_c, 1, 35, 95
1, 171600, Note_on_c, 2, 95, 64
1, 171600, Note_on_c, 2, 83, 64
1, 171600, Note_on_c, 2, 71, 127
1, 171600, Note_on_c, 2, 59, 95
1, 171600, Note_on_c, 3, 83, 64
1, 171600, Note_on_c, 3, 47, 64
1, 171600, Note_on_c, 9, 42, 73
1, 171600, Note_on_c, 9, 82, 11
1, 171600, Note_on_c, 10, 23, 99
1, 171660, Note_on_c, 10, 23, 0
1, 171720, Note_on_c, 9, 82, 0
1, 171720, Note_on_c, 9, 42, 0
1, 171720, Note_on_c, 9, 82, 11
1, 171720, Note_on_c, 10, 23, 127
1, 171840, Note_on_c, 9, 82, 0
1, 171840, Note_on_c, 2, 59, 0
1, 171840, Note_on_c, 3, 83, 0
1, 171840, Note_on_c, 1, 83, 0
1, 171840, Note_on_c, 1, 35, 0
1, 171840, Note_on_c, 2, 71, 0
1, 171840, Note_on_c, 2, 95, 0
1, 171840, Note_on_c, 2, 83, 0
1, 171840, Note_on_c, 3, 47, 0
1, 171840, Note_on_c, 0, 47, 0
1, 171840, Note_on_c, 1, 71, 0
1, 171840, Note_on_c, 9, 42, 88
1, 171840, Note_on_c, 9, 35, 102
1, 171840, Note_on_c, 9, 82, 18
1, 171900, Note_on_c, 10, 23, 0
1, 171960, Note_on_c, 9, 42, 0
1, 171960, Note_on_c, 9, 35, 0
1, 171960, Note_on_c, 9, 82, 0
1, 171960, Note_on_c, 0, 43, 95
1, 171960, Note_on_c, 1, 67, 95
1, 171960, Note_on_c, 1, 79, 64
1, 171960, Note_on_c, 1, 31, 95
1, 171960, Note_on_c, 2, 91, 64
1, 171960, Note_on_c, 2, 79, 64
1, 171960, Note_on_c, 2, 67, 127
1, 171960, Note_on_c, 2, 55, 95
1, 171960, Note_on_c, 3, 79, 64
1, 171960, Note_on_c, 3, 43, 64
1, 171960, Note_on_c, 9, 82, 18
1, 171960, Note_on_c, 10, 23, 93
1, 172020, Note_on_c, 10, 23, 0
1, 172080, Note_on_c, 1, 67, 0
1, 172080, Note_on_c, 2, 55, 0
1, 172080, Note_on_c, 1, 79, 0
1, 172080, Note_on_c, 1, 31, 0
1, 172080, Note_on_c, 0, 43, 0
1, 172080, Note_on_c, 2, 91, 0
1, 172080, Note_on_c, 2, 79, 0
1, 172080, Note_on_c, 3, 79, 0
1, 172080, Note_on_c, 2, 67, 0
1, 172080, Note_on_c, 9, 82, 0
1, 172080, Note_on_c, 3, 43, 0
1, 172080, Pitch_bend_c, 0, 5100
1, 172080, Note_on_c, 0, 47, 95
1, 172080, Pitch_bend_c, 1, 5100
1, 172080, Note_on_c, 1, 71, 95
1, 172080, Note_on_c, 1, 83, 64
1, 172080, Note_on_c, 1, 35, 95
1, 172080, Pitch_bend_c, 2, 5100
1, 172080, Note_on_c, 2, 95, 64
1, 172080, Note_on_c, 2, 83, 64
1, 172080, Note_on_c, 2, 71, 127
1, 172080, Note_on_c, 2, 59, 95
1, 172080, Pitch_bend_c, 3, 5100
1, 172080, Note_on_c, 3, 83, 64
1, 172080, Note_on_c, 3, 47, 64
1, 172080, Note_on_c, 9, 42, 73
1, 172080, Note_on_c, 9, 82, 31
1, 172080, Note_on_c, 10, 23, 75
1, 172095, Pitch_bend_c, 0, 6697
1, 172095, Pitch_bend_c, 1, 6697
1, 172095, Pitch_bend_c, 2, 6697
1, 172095, Pitch_bend_c, 3, 6697
1, 172140, Note_on_c, 10, 23, 0
1, 172160, Pitch_bend_c, 0, 6841
1, 172160, Pitch_bend_c, 1, 6841
1, 172160, Pitch_bend_c, 2, 6841
1, 172160, Pitch_bend_c, 3, 6841
1, 172190, Pitch_bend_c, 0, 6984
1, 172190, Pitch_bend_c, 1, 6984
1, 172190, Pitch_bend_c, 2, 6984
1, 172190, Pitch_bend_c, 3, 6984
1, 172200, Note_on_c, 9, 82, 0
1, 172200, Note_on_c, 9, 42, 0
1, 172200, Note_on_c, 9, 82, 39
1, 172200, Note_on_c, 10, 23, 59
1, 172205, Pitch_bend_c, 0, 7175
1, 172205, Pitch_bend_c, 1, 7175
1, 172205, Pitch_bend_c, 2, 7175
1, 172205, Pitch_bend_c, 3, 7175
1, 172220, Pitch_bend_c, 0, 7319
1, 172220, Pitch_bend_c, 1, 7319
1, 172220, Pitch_bend_c, 2, 7319
1, 172220, Pitch_bend_c, 3, 7319
1, 172240, Pitch_bend_c, 0, 7612
1, 172240, Pitch_bend_c, 1, 7612
1, 172240, Pitch_bend_c, 2, 7612
1, 172240, Pitch_bend_c, 3, 7612
1, 172255, Pitch_bend_c, 0, 7756
1, 172255, Pitch_bend_c, 1, 7756
1, 172255, Pitch_bend_c, 2, 7756
1, 172255, Pitch_bend_c, 3, 7756
1, 172260, Note_on_c, 10, 23, 0
1, 172270, Pitch_bend_c, 0, 7899
1, 172270, Pitch_bend_c, 1, 7899
1, 172270, Pitch_bend_c, 2, 7899
1, 172270, Pitch_bend_c, 3, 7899
1, 172285, Pitch_bend_c, 0, 8049
1, 172285, Pitch_bend_c, 1, 8049
1, 172285, Pitch_bend_c, 2, 8049
1, 172285, Pitch_bend_c, 3, 8049
1, 172300, Pitch_bend_c, 0, 8192
1, 172300, Pitch_bend_c, 1, 8192
1, 172300, Pitch_bend_c, 2, 8192
1, 172300, Pitch_bend_c, 3, 8192
1, 172320, Note_on_c, 2, 83, 0
1, 172320, Note_on_c, 3, 83, 0
1, 172320, Note_on_c, 1, 83, 0
1, 172320, Note_on_c, 1, 35, 0
1, 172320, Note_on_c, 0, 47, 0
1, 172320, Note_on_c, 2, 95, 0
1, 172320, Note_on_c, 1, 71, 0
1, 172320, Note_on_c, 3, 47, 0
1, 172320, Note_on_c, 2, 71, 0
1, 172320, Note_on_c, 9, 82, 0
1, 172320, Note_on_c, 2, 59, 0
1, 172320, Note_on_c, 0, 47, 95
1, 172320, Note_on_c, 1, 71, 95
1, 172320, Note_on_c, 1, 83, 64
1, 172320, Note_on_c, 1, 35, 95
1, 172320, Note_on_c, 2, 95, 64
1, 172320, Note_on_c, 2, 83, 64
1, 172320, Note_on_c, 2, 71, 127
1, 172320, Note_on_c, 2, 59, 95
1, 172320, Note_on_c, 3, 83, 64
1, 172320, Note_on_c, 3, 47, 64
1, 172320, Note_on_c, 9, 42, 73
1, 172320, Note_on_c, 9, 40, 90
1, 172320, Note_on_c, 9, 35, 103
1, 172320, Note_on_c, 9, 28, 103
1, 172320, Note_on_c, 9, 82, 40
1, 172320, Note_on_c, 10, 23, 58
1, 172380, Note_on_c, 10, 23, 0
1, 172440, Note_on_c, 9, 82, 0
1, 172440, Note_on_c, 9, 40, 0
1, 172440, Note_on_c, 9, 28, 0
1, 172440, Note_on_c, 9, 42, 0
1, 172440, Note_on_c, 9, 35, 0
1, 172440, Note_on_c, 9, 82, 25
1, 172440, Note_on_c, 10, 23, 72
1, 172500, Note_on_c, 10, 23, 0
1, 172560, Note_on_c, 2, 95, 0
1, 172560, Note_on_c, 3, 83, 0
1, 172560, Note_on_c, 1, 83, 0
1, 172560, Note_on_c, 1, 35, 0
1, 172560, Note_on_c, 2, 71, 0
1, 172560, Note_on_c, 2, 83, 0
1, 172560, Note_on_c, 1, 71, 0
1, 172560, Note_on_c, 0, 47, 0
1, 172560, Note_on_c, 3, 47, 0
1, 172560, Note_on_c, 9, 82, 0
1, 172560, Note_on_c, 2, 59, 0
1, 172560, Note_on_c, 0, 47, 95
1, 172560, Note_on_c, 1, 71, 95
1, 172560, Note_on_c, 1, 83, 64
1, 172560, Note_on_c, 1, 35, 95
1, 172560, Note_on_c, 2, 95, 64
1, 172560, Note_on_c, 2, 83, 64
1, 172560, Note_on_c, 2, 71, 127
1, 172560, Note_on_c, 2, 59, 95
1, 172560, Note_on_c, 3, 83, 64
1, 172560, Note_on_c, 3, 47, 64
1, 172560, Note_on_c, 9, 42, 73
1, 172560, Note_on_c, 9, 82, 11
1, 172560, Note_on_c, 10, 23, 91
1, 172590, Pitch_bend_c, 0, 8335
1, 172590, Pitch_bend_c, 1, 8335
1, 172590, Pitch_bend_c, 2, 8335
1, 172590, Pitch_bend_c, 3, 8335
1, 172620, Note_on_c, 10, 23, 0
1, 172640, Pitch_bend_c, 0, 8485
1, 172640, Pitch_bend_c, 1, 8485
1, 172640, Pitch_bend_c, 2, 8485
1, 172640, Pitch_bend_c, 3, 8485
1, 172655, Pitch_bend_c, 0, 8628
1, 172655, Pitch_bend_c, 1, 8628
1, 172655, Pitch_bend_c, 2, 8628
1, 172655, Pitch_bend_c, 3, 8628
1, 172670, Pitch_bend_c, 0, 8772
1, 172670, Pitch_bend_c, 1, 8772
1, 172670, Pitch_bend_c, 2, 8772
1, 172670, Pitch_bend_c, 3, 8772
1, 172680, Note_on_c, 9, 82, 0
1, 172680, Note_on_c, 9, 42, 0
1, 172680, Note_on_c, 9, 82, 11
1, 172680, Note_on_c, 10, 23, 127
1, 172685, Pitch_bend_c, 0, 9065
1, 172685, Pitch_bend_c, 1, 9065
1, 172685, Pitch_bend_c, 2, 9065
1, 172685, Pitch_bend_c, 3, 9065
1, 172700, Pitch_bend_c, 0, 9400
1, 172700, Pitch_bend_c, 1, 9400
1, 172700, Pitch_bend_c, 2, 9400
1, 172700, Pitch_bend_c, 3, 9400
1, 172720, Pitch_bend_c, 0, 9543
1, 172720, Pitch_bend_c, 1, 9543
1, 172720, Pitch_bend_c, 2, 9543
1, 172720, Pitch_bend_c, 3, 9543
1, 172735, Pitch_bend_c, 0, 9830
1, 172735, Pitch_bend_c, 1, 9830
1, 172735, Pitch_bend_c, 2, 9830
1, 172735, Pitch_bend_c, 3, 9830
1, 172750, Pitch_bend_c, 0, 10110
1, 172750, Pitch_bend_c, 1, 10110
1, 172750, Pitch_bend_c, 2, 10110
1, 172750, Pitch_bend_c, 3, 10110
1, 172765, Pitch_bend_c, 0, 10253
1, 172765, Pitch_bend_c, 1, 10253
1, 172765, Pitch_bend_c, 2, 10253
1, 172765, Pitch_bend_c, 3, 10253
1, 172780, Pitch_bend_c, 0, 10397
1, 172780, Pitch_bend_c, 1, 10397
1, 172780, Pitch_bend_c, 2, 10397
1, 172780, Pitch_bend_c, 3, 10397
1, 172800, Note_on_c, 9, 82, 0
1, 172800, Note_on_c, 2, 59, 0
1, 172800, Note_on_c, 3, 83, 0
1, 172800, Note_on_c, 1, 83, 0
1, 172800, Note_on_c, 1, 35, 0
1, 172800, Note_on_c, 2, 71, 0
1, 172800, Note_on_c, 2, 95, 0
1, 172800, Note_on_c, 2, 83, 0
1, 172800, Note_on_c, 3, 47, 0
1, 172800, Note_on_c, 0, 47, 0
1, 172800, Note_on_c, 1, 71, 0
1, 172800, Pitch_bend_c, 0, 12165
1, 172800, Note_on_c, 0, 35, 95
1, 172800, Pitch_bend_c, 1, 12165
1, 172800, Note_on_c, 1, 59, 95
1, 172800, Note_on_c, 1, 71, 64
1, 172800, Note_on_c, 1, 23, 95
1, 172800, Pitch_bend_c, 2, 12165
1, 172800, Note_on_c, 2, 83, 64
1, 172800, Note_on_c, 2, 71, 64
1, 172800, Note_on_c, 2, 59, 127
1, 172800, Note_on_c, 2, 47, 95
1, 172800, Pitch_bend_c, 3, 12165
1, 172800, Note_on_c, 3, 71, 64
1, 172800, Note_on_c, 3, 35, 64
1, 172800, Note_on_c, 9, 82, 18
1, 172800, Note_on_c, 9, 42, 103
1, 172800, Note_on_c, 9, 35, 103
1, 172800, Control_c, 13, 7, 0
1, 172800, Pitch_bend_c, 13, 8192
1, 172800, Note_on_c, 13, 75, 63
1, 172800, Note_on_c, 13, 74, 63
1, 172800, Note_on_c, 13, 73, 63
1, 172800, Note_on_c, 13, 72, 63
1, 172800, Note_on_c, 13, 60, 63
1, 172800, Note_on_c, 13, 71, 63
1, 172800, Note_on_c, 13, 70, 63
1, 172800, Note_on_c, 13, 69, 63
1, 172800, Note_on_c, 13, 68, 63
1, 172800, Note_on_c, 13, 67, 63
1, 172800, Note_on_c, 13, 66, 63
1, 172800, Note_on_c, 13, 65, 63
1, 172800, Note_on_c, 13, 64, 63
1, 172800, Note_on_c, 13, 62, 63
1, 172800, Note_on_c, 13, 63, 63
1, 172800, Note_on_c, 13, 61, 63
1, 172815, Pitch_bend_c, 0, 8192
1, 172815, Pitch_bend_c, 1, 8192
1, 172815, Pitch_bend_c, 2, 8192
1, 172815, Pitch_bend_c, 3, 8192
1, 172920, Note_on_c, 9, 35, 0
1, 172920, Note_on_c, 9, 42, 0
1, 172920, Note_on_c, 10, 23, 0
1, 172920, Note_on_c, 9, 82, 0
1, 172920, Note_on_c, 9, 82, 18
1, 172920, Note_on_c, 10, 23, 79
1, 172980, Note_on_c, 10, 23, 0
1, 173040, Note_on_c, 9, 82, 0
1, 173040, Note_on_c, 9, 82, 31
1, 173040, Note_on_c, 9, 42, 73
1, 173040, Note_on_c, 10, 23, 64
1, 173100, Note_on_c, 10, 23, 0
1, 173160, Note_on_c, 3, 35, 0
1, 173160, Note_on_c, 2, 83, 0
1, 173160, Note_on_c, 0, 35, 0
1, 173160, Note_on_c, 1, 23, 0
1, 173160, Note_on_c, 3, 71, 0
1, 173160, Note_on_c, 1, 71, 0
1, 173160, Note_on_c, 2, 47, 0
1, 173160, Note_on_c, 9, 42, 0
1, 173160, Note_on_c, 1, 59, 0
1, 173160, Note_on_c, 2, 71, 0
1, 173160, Note_on_c, 9, 82, 0
1, 173160, Note_on_c, 2, 59, 0
1, 173160, Pitch_bend_c, 0, 0
1, 173160, Note_on_c, 0, 47, 95
1, 173160, Pitch_bend_c, 1, 0
1, 173160, Note_on_c, 1, 71, 95
1, 173160, Note_on_c, 1, 83, 64
1, 173160, Note_on_c, 1, 35, 95
1, 173160, Pitch_bend_c, 2, 0
1, 173160, Note_on_c, 2, 95, 64
1, 173160, Note_on_c, 2, 83, 64
1, 173160, Note_on_c, 2, 71, 127
1, 173160, Note_on_c, 2, 59, 95
1, 173160, Pitch_bend_c, 3, 0
1, 173160, Note_on_c, 3, 83, 64
1, 173160, Note_on_c, 3, 47, 64
1, 173160, Note_on_c, 9, 82, 39
1, 173160, Note_on_c, 10, 23, 62
1, 173175, Pitch_bend_c, 0, 8192
1, 173175, Pitch_bend_c, 1, 8192
1, 173175, Pitch_bend_c, 2, 8192
1, 173175, Pitch_bend_c, 3, 8192
1, 173220, Note_on_c, 10, 23, 0
1, 173280, Note_on_c, 2, 83, 0
1, 173280, Note_on_c, 2, 71, 0
1, 173280, Note_on_c, 0, 47, 0
1, 173280, Note_on_c, 2, 95, 0
1, 173280, Note_on_c, 1, 71, 0
1, 173280, Note_on_c, 1, 35, 0
1, 173280, Note_on_c, 1, 83, 0
1, 173280, Note_on_c, 9, 82, 0
1, 173280, Note_on_c, 3, 83, 0
1, 173280, Note_on_c, 2, 59, 0
1, 173280, Note_on_c, 3, 47, 0
1, 173280, Note_on_c, 9, 82, 40
1, 173280, Note_on_c, 9, 42, 73
1, 173280, Note_on_c, 9, 40, 91
1, 173280, Note_on_c, 9, 35, 103
1, 173280, Note_on_c, 9, 28, 102
1, 173280, Note_on_c, 10, 23, 66
1, 173340, Note_on_c, 10, 23, 0
1, 173400, Note_on_c, 9, 28, 0
1, 173400, Note_on_c, 9, 82, 0
1, 173400, Note_on_c, 9, 35, 0
1, 173400, Note_on_c, 9, 42, 0
1, 173400, Note_on_c, 9, 40, 0
1, 173400, Note_on_c, 9, 82, 25
1, 173400, Note_on_c, 10, 23, 91
1, 173460, Note_on_c, 10, 23, 0
1, 173520, Note_on_c, 9, 82, 0
1, 173520, Note_on_c, 0, 47, 95
1, 173520, Note_on_c, 1, 71, 95
1, 173520, Note_on_c, 1, 83, 64
1, 173520, Note_on_c, 1, 35, 95
1, 173520, Note_on_c, 2, 95, 64
1, 173520, Note_on_c, 2, 83, 64
1, 173520, Note_on_c, 2, 71, 127
1, 173520, Note_on_c, 2, 59, 95
1, 173520, Note_on_c, 3, 83, 64
1, 173520, Note_on_c, 3, 47, 64
1, 173520, Note_on_c, 9, 82, 11
1, 173520, Note_on_c, 9, 42, 73
1, 173520, Note_on_c, 10, 23, 98
1, 173580, Note_on_c, 10, 23, 0
1, 173640, Note_on_c, 9, 42, 0
1, 173640, Note_on_c, 9, 82, 0
1, 173640, Note_on_c, 9, 82, 11
1, 173640, Note_on_c, 10, 23, 127
1, 173760, Note_on_c, 9, 82, 0
1, 173760, Note_on_c, 0, 47, 0
1, 173760, Note_on_c, 2, 71, 0
1, 173760, Note_on_c, 2, 95, 0
1, 173760, Note_on_c, 1, 71, 0
1, 173760, Note_on_c, 1, 35, 0
1, 173760, Note_on_c, 1, 83, 0
1, 173760, Note_on_c, 2, 83, 0
1, 173760, Note_on_c, 3, 83, 0
1, 173760, Note_on_c, 2, 59, 0
1, 173760, Note_on_c, 3, 47, 0
1, 173760, Note_on_c, 0, 47, 95
1, 173760, Note_on_c, 1, 71, 95
1, 173760, Note_on_c, 1, 83, 64
1, 173760, Note_on_c, 1, 35, 95
1, 173760, Note_on_c, 2, 95, 64
1, 173760, Note_on_c, 2, 83, 64
1, 173760, Note_on_c, 2, 71, 127
1, 173760, Note_on_c, 2, 59, 95
1, 173760, Note_on_c, 3, 83, 64
1, 173760, Note_on_c, 3, 47, 64
1, 173760, Note_on_c, 9, 82, 18
1, 173760, Note_on_c, 9, 42, 88
1, 173760, Note_on_c, 9, 35, 104
1, 173790, Pitch_bend_c, 0, 8049
1, 173790, Pitch_bend_c, 1, 8049
1, 173790, Pitch_bend_c, 2, 8049
1, 173790, Pitch_bend_c, 3, 8049
1, 173820, Note_on_c, 10, 23, 0
1, 173820, Pitch_bend_c, 0, 7899
1, 173820, Pitch_bend_c, 1, 7899
1, 173820, Pitch_bend_c, 2, 7899
1, 173820, Pitch_bend_c, 3, 7899
1, 173855, Pitch_bend_c, 0, 7756
1, 173855, Pitch_bend_c, 1, 7756
1, 173855, Pitch_bend_c, 2, 7756
1, 173855, Pitch_bend_c, 3, 7756
1, 173880, Note_on_c, 9, 35, 0
1, 173880, Note_on_c, 9, 42, 0
1, 173880, Note_on_c, 9, 82, 0
1, 173880, Note_on_c, 9, 82, 18
1, 173880, Note_on_c, 10, 23, 66
1, 173885, Pitch_bend_c, 0, 7612
1, 173885, Pitch_bend_c, 1, 7612
1, 173885, Pitch_bend_c, 2, 7612
1, 173885, Pitch_bend_c, 3, 7612
1, 173920, Pitch_bend_c, 0, 7469
1, 173920, Pitch_bend_c, 1, 7469
1, 173920, Pitch_bend_c, 2, 7469
1, 173920, Pitch_bend_c, 3, 7469
1, 173940, Note_on_c, 10, 23, 0
1, 173940, Note_on_c, 0, 47, 0
1, 173940, Note_on_c, 2, 95, 0
1, 173940, Note_on_c, 1, 71, 0
1, 173940, Note_on_c, 1, 35, 0
1, 173940, Note_on_c, 1, 83, 0
1, 173940, Note_on_c, 2, 83, 0
1, 173940, Note_on_c, 2, 59, 0
1, 173940, Note_on_c, 2, 71, 0
1, 173940, Note_on_c, 3, 83, 0
1, 173940, Note_on_c, 3, 47, 0
1, 174000, Note_on_c, 9, 82, 0
1, 174000, Note_on_c, 0, 47, 95
1, 174000, Note_on_c, 1, 71, 95
1, 174000, Note_on_c, 1, 83, 64
1, 174000, Note_on_c, 1, 35, 95
1, 174000, Note_on_c, 2, 95, 64
1, 174000, Note_on_c, 2, 83, 64
1, 174000, Note_on_c, 2, 71, 127
1, 174000, Note_on_c, 2, 59, 95
1, 174000, Note_on_c, 3, 83, 64
1, 174000, Note_on_c, 3, 47, 64
1, 174000, Note_on_c, 9, 82, 31
1, 174000, Note_on_c, 9, 42, 73
1, 174000, Note_on_c, 10, 23, 74
1, 174015, Pitch_bend_c, 0, 7319
1, 174015, Pitch_bend_c, 1, 7319
1, 174015, Pitch_bend_c, 2, 7319
1, 174015, Pitch_bend_c, 3, 7319
1, 174060, Note_on_c, 10, 23, 0
1, 174060, Pitch_bend_c, 0, 7175
1, 174060, Pitch_bend_c, 1, 7175
1, 174060, Pitch_bend_c, 2, 7175
1, 174060, Pitch_bend_c, 3, 7175
1, 174080, Pitch_bend_c, 0, 6984
1, 174080, Pitch_bend_c, 1, 6984
1, 174080, Pitch_bend_c, 2, 6984
1, 174080, Pitch_bend_c, 3, 6984
1, 174110, Pitch_bend_c, 0, 6841
1, 174110, Pitch_bend_c, 1, 6841
1, 174110, Pitch_bend_c, 2, 6841
1, 174110, Pitch_bend_c, 3, 6841
1, 174120, Note_on_c, 9, 42, 0
1, 174120, Note_on_c, 9, 82, 0
1, 174120, Note_on_c, 9, 82, 39
1, 174120, Note_on_c, 10, 23, 84
1, 174140, Pitch_bend_c, 0, 6697
1, 174140, Pitch_bend_c, 1, 6697
1, 174140, Pitch_bend_c, 2, 6697
1, 174140, Pitch_bend_c, 3, 6697
1, 174180, Note_on_c, 10, 23, 0
1, 174220, Pitch_bend_c, 0, 6554
1, 174220, Pitch_bend_c, 1, 6554
1, 174220, Pitch_bend_c, 2, 6554
1, 174220, Pitch_bend_c, 3, 6554
1, 174240, Note_on_c, 0, 47, 0
1, 174240, Note_on_c, 2, 71, 0
1, 174240, Note_on_c, 2, 95, 0
1, 174240, Note_on_c, 1, 71, 0
1, 174240, Note_on_c, 1, 35, 0
1, 174240, Note_on_c, 1, 83, 0
1, 174240, Note_on_c, 9, 82, 0
1, 174240, Note_on_c, 3, 83, 0
1, 174240, Note_on_c, 2, 59, 0
1, 174240, Note_on_c, 2, 83, 0
1, 174240, Note_on_c, 3, 47, 0
1, 174240, Note_on_c, 0, 47, 95
1, 174240, Note_on_c, 1, 71, 95
1, 174240, Note_on_c, 1, 83, 64
1, 174240, Note_on_c, 1, 35, 95
1, 174240, Note_on_c, 2, 95, 64
1, 174240, Note_on_c, 2, 83, 64
1, 174240, Note_on_c, 2, 71, 127
1, 174240, Note_on_c, 2, 59, 95
1, 174240, Note_on_c, 3, 83, 64
1, 174240, Note_on_c, 3, 47, 64
1, 174240, Note_on_c, 9, 82, 40
1, 174240, Note_on_c, 9, 42, 73
1, 174240, Note_on_c, 9, 40, 92
1, 174240, Note_on_c, 9, 35, 104
1, 174240, Note_on_c, 9, 28, 102
1, 174240, Note_on_c, 10, 35, 127
1, 174270, Pitch_bend_c, 0, 6418
1, 174270, Pitch_bend_c, 1, 6418
1, 174270, Pitch_bend_c, 2, 6418
1, 174270, Pitch_bend_c, 3, 6418
1, 174285, Pitch_bend_c, 0, 6274
1, 174285, Pitch_bend_c, 1, 6274
1, 174285, Pitch_bend_c, 2, 6274
1, 174285, Pitch_bend_c, 3, 6274
1, 174300, Pitch_bend_c, 0, 6131
1, 174300, Pitch_bend_c, 1, 6131
1, 174300, Pitch_bend_c, 2, 6131
1, 174300, Pitch_bend_c, 3, 6131
1, 174320, Pitch_bend_c, 0, 5987
1, 174320, Pitch_bend_c, 1, 5987
1, 174320, Pitch_bend_c, 2, 5987
1, 174320, Pitch_bend_c, 3, 5987
1, 174335, Pitch_bend_c, 0, 5803
1, 174335, Pitch_bend_c, 1, 5803
1, 174335, Pitch_bend_c, 2, 5803
1, 174335, Pitch_bend_c, 3, 5803
1, 174350, Pitch_bend_c, 0, 5660
1, 174350, Pitch_bend_c, 1, 5660
1, 174350, Pitch_bend_c, 2, 5660
1, 174350, Pitch_bend_c, 3, 5660
1, 174360, Note_on_c, 9, 28, 0
1, 174360, Note_on_c, 9, 35, 0
1, 174360, Note_on_c, 9, 40, 0
1, 174360, Note_on_c, 9, 42, 0
1, 174360, Note_on_c, 9, 82, 0
1, 174360, Note_on_c, 9, 82, 25
1, 174365, Pitch_bend_c, 0, 5516
1, 174365, Pitch_bend_c, 1, 5516
1, 174365, Pitch_bend_c, 2, 5516
1, 174365, Pitch_bend_c, 3, 5516
1, 174380, Pitch_bend_c, 0, 5380
1, 174380, Pitch_bend_c, 1, 5380
1, 174380, Pitch_bend_c, 2, 5380
1, 174380, Pitch_bend_c, 3, 5380
1, 174400, Pitch_bend_c, 0, 5237
1, 174400, Pitch_bend_c, 1, 5237
1, 174400, Pitch_bend_c, 2, 5237
1, 174400, Pitch_bend_c, 3, 5237
1, 174420, Note_on_c, 10, 35, 0
1, 174430, Pitch_bend_c, 0, 5100
1, 174430, Pitch_bend_c, 1, 5100
1, 174430, Pitch_bend_c, 2, 5100
1, 174430, Pitch_bend_c, 3, 5100
1, 174480, Note_on_c, 2, 83, 0
1, 174480, Note_on_c, 0, 47, 0
1, 174480, Note_on_c, 2, 95, 0
1, 174480, Note_on_c, 1, 71, 0
1, 174480, Note_on_c, 1, 35, 0
1, 174480, Note_on_c, 1, 83, 0
1, 174480, Note_on_c, 9, 82, 0
1, 174480, Note_on_c, 2, 59, 0
1, 174480, Note_on_c, 2, 71, 0
1, 174480, Note_on_c, 3, 83, 0
1, 174480, Note_on_c, 3, 47, 0
1, 174480, Note_on_c, 0, 47, 95
1, 174480, Note_on_c, 1, 71, 95
1, 174480, Note_on_c, 1, 83, 64
1, 174480, Note_on_c, 1, 35, 95
1, 174480, Note_on_c, 2, 95, 64
1, 174480, Note_on_c, 2, 83, 64
1, 174480, Note_on_c, 2, 71, 127
1, 174480, Note_on_c, 2, 59, 95
1, 174480, Note_on_c, 3, 83, 64
1, 174480, Note_on_c, 3, 47, 64
1, 174480, Note_on_c, 9, 82, 11
1, 174480, Note_on_c, 9, 42, 73
1, 174480, Note_on_c, 10, 23, 103
1, 174495, Pitch_bend_c, 0, 4963
1, 174495, Pitch_bend_c, 1, 4963
1, 174495, Pitch_bend_c, 2, 4963
1, 174495, Pitch_bend_c, 3, 4963
1, 174510, Pitch_bend_c, 0, 4636
1, 174510, Pitch_bend_c, 1, 4636
1, 174510, Pitch_bend_c, 2, 4636
1, 174510, Pitch_bend_c, 3, 4636
1, 174525, Pitch_bend_c, 0, 4499
1, 174525, Pitch_bend_c, 1, 4499
1, 174525, Pitch_bend_c, 2, 4499
1, 174525, Pitch_bend_c, 3, 4499
1, 174540, Note_on_c, 10, 23, 0
1, 174540, Pitch_bend_c, 0, 4083
1, 174540, Pitch_bend_c, 1, 4083
1, 174540, Pitch_bend_c, 2, 4083
1, 174540, Pitch_bend_c, 3, 4083
1, 174560, Pitch_bend_c, 0, 3810
1, 174560, Pitch_bend_c, 1, 3810
1, 174560, Pitch_bend_c, 2, 3810
1, 174560, Pitch_bend_c, 3, 3810
1, 174575, Pitch_bend_c, 0, 3359
1, 174575, Pitch_bend_c, 1, 3359
1, 174575, Pitch_bend_c, 2, 3359
1, 174575, Pitch_bend_c, 3, 3359
1, 174590, Pitch_bend_c, 0, 3086
1, 174590, Pitch_bend_c, 1, 3086
1, 174590, Pitch_bend_c, 2, 3086
1, 174590, Pitch_bend_c, 3, 3086
1, 174600, Note_on_c, 9, 42, 0
1, 174600, Note_on_c, 9, 82, 0
1, 174600, Note_on_c, 9, 82, 11
1, 174600, Note_on_c, 10, 35, 127
1, 174605, Pitch_bend_c, 0, 2820
1, 174605, Pitch_bend_c, 1, 2820
1, 174605, Pitch_bend_c, 2, 2820
1, 174605, Pitch_bend_c, 3, 2820
1, 174620, Pitch_bend_c, 0, 2683
1, 174620, Pitch_bend_c, 1, 2683
1, 174620, Pitch_bend_c, 2, 2683
1, 174620, Pitch_bend_c, 3, 2683
1, 174640, Pitch_bend_c, 0, 2369
1, 174640, Pitch_bend_c, 1, 2369
1, 174640, Pitch_bend_c, 2, 2369
1, 174640, Pitch_bend_c, 3, 2369
1, 174655, Pitch_bend_c, 0, 2240
1, 174655, Pitch_bend_c, 1, 2240
1, 174655, Pitch_bend_c, 2, 2240
1, 174655, Pitch_bend_c, 3, 2240
1, 174685, Pitch_bend_c, 0, 2103
1, 174685, Pitch_bend_c, 1, 2103
1, 174685, Pitch_bend_c, 2, 2103
1, 174685, Pitch_bend_c, 3, 2103
1, 174720, Note_on_c, 10, 35, 0
1, 174720, Note_on_c, 0, 47, 0
1, 174720, Note_on_c, 2, 71, 0
1, 174720, Note_on_c, 2, 95, 0
1, 174720, Note_on_c, 1, 71, 0
1, 174720, Note_on_c, 1, 35, 0
1, 174720, Note_on_c, 1, 83, 0
1, 174720, Note_on_c, 9, 82, 0
1, 174720, Note_on_c, 3, 83, 0
1, 174720, Note_on_c, 2, 59, 0
1, 174720, Note_on_c, 2, 83, 0
1, 174720, Note_on_c, 3, 47, 0
1, 174720, Pitch_bend_c, 0, 8192
1, 174720, Note_on_c, 0, 35, 95
1, 174720, Pitch_bend_c, 1, 8192
1, 174720, Note_on_c, 1, 59, 95
1, 174720, Note_on_c, 1, 71, 64
1, 174720, Note_on_c, 1, 23, 95
1, 174720, Pitch_bend_c, 2, 8192
1, 174720, Note_on_c, 2, 83, 94
1, 174720, Note_on_c, 2, 71, 64
1, 174720, Note_on_c, 2, 59, 127
1, 174720, Note_on_c, 2, 47, 95
1, 174720, Pitch_bend_c, 3, 8192
1, 174720, Note_on_c, 3, 71, 64
1, 174720, Note_on_c, 3, 35, 64
1, 174720, Note_on_c, 9, 57, 103
1, 174720, Note_on_c, 9, 52, 127
1, 174720, Note_on_c, 9, 49, 103
1, 174720, Note_on_c, 9, 42, 103
1, 174720, Note_on_c, 9, 35, 103
1, 174720, Note_on_c, 9, 82, 18
1, 174720, Note_on_c, 10, 23, 127
1, 174720, Control_c, 13, 7, 127
1, 174780, Control_c, 13, 7, 127
1, 174840, Note_on_c, 9, 82, 0
1, 174840, Note_on_c, 9, 35, 0
1, 174840, Note_on_c, 9, 42, 0
1, 174840, Note_on_c, 9, 82, 18
1, 174840, Control_c, 13, 7, 125
1, 174900, Note_on_c, 10, 23, 0
1, 174900, Control_c, 13, 7, 124
1, 174960, Note_on_c, 9, 82, 0
1, 174960, Note_on_c, 9, 42, 73
1, 174960, Note_on_c, 9, 82, 31
1, 174960, Note_on_c, 10, 23, 93
1, 174960, Control_c, 13, 7, 121
1, 175020, Note_on_c, 10, 23, 0
1, 175020, Control_c, 13, 7, 119
1, 175080, Note_on_c, 9, 82, 0
1, 175080, Note_on_c, 2, 47, 0
1, 175080, Note_on_c, 3, 35, 0
1, 175080, Note_on_c, 0, 35, 0
1, 175080, Note_on_c, 2, 83, 0
1, 175080, Note_on_c, 1, 59, 0
1, 175080, Note_on_c, 1, 23, 0
1, 175080, Note_on_c, 1, 71, 0
1, 175080, Note_on_c, 9, 42, 0
1, 175080, Note_on_c, 2, 59, 0
1, 175080, Note_on_c, 2, 71, 0
1, 175080, Note_on_c, 3, 71, 0
1, 175080, Pitch_bend_c, 0, 0
1, 175080, Note_on_c, 0, 47, 95
1, 175080, Pitch_bend_c, 1, 0
1, 175080, Note_on_c, 1, 71, 95
1, 175080, Note_on_c, 1, 83, 64
1, 175080, Note_on_c, 1, 35, 95
1, 175080, Pitch_bend_c, 2, 0
1, 175080, Note_on_c, 2, 95, 64
1, 175080, Note_on_c, 2, 83, 64
1, 175080, Note_on_c, 2, 71, 127
1, 175080, Note_on_c, 2, 59, 95
1, 175080, Pitch_bend_c, 3, 0
1, 175080, Note_on_c, 3, 83, 64
1, 175080, Note_on_c, 3, 47, 64
1, 175080, Note_on_c, 9, 82, 39
1, 175080, Note_on_c, 10, 23, 75
1, 175080, Control_c, 13, 7, 117
1, 175095, Pitch_bend_c, 0, 8192
1, 175095, Pitch_bend_c, 1, 8192
1, 175095, Pitch_bend_c, 2, 8192
1, 175095, Pitch_bend_c, 3, 8192
1, 175140, Note_on_c, 10, 23, 0
1, 175140, Control_c, 13, 7, 114
1, 175200, Note_on_c, 2, 59, 0
1, 175200, Note_on_c, 1, 83, 0
1, 175200, Note_on_c, 1, 71, 0
1, 175200, Note_on_c, 0, 47, 0
1, 175200, Note_on_c, 1, 35, 0
1, 175200, Note_on_c, 9, 82, 0
1, 175200, Note_on_c, 2, 83, 0
1, 175200, Note_on_c, 2, 95, 0
1, 175200, Note_on_c, 3, 47, 0
1, 175200, Note_on_c, 2, 71, 0
1, 175200, Note_on_c, 3, 83, 0
1, 175200, Note_on_c, 9, 42, 73
1, 175200, Note_on_c, 9, 35, 102
1, 175200, Note_on_c, 9, 40, 89
1, 175200, Note_on_c, 9, 28, 103
1, 175200, Note_on_c, 9, 82, 40
1, 175200, Note_on_c, 10, 23, 68
1, 175200, Control_c, 13, 7, 112
1, 175260, Note_on_c, 10, 23, 0
1, 175260, Control_c, 13, 7, 110
1, 175320, Note_on_c, 9, 40, 0
1, 175320, Note_on_c, 9, 35, 0
1, 175320, Note_on_c, 9, 42, 0
1, 175320, Note_on_c, 9, 82, 0
1, 175320, Note_on_c, 9, 28, 0
1, 175320, Note_on_c, 9, 82, 25
1, 175320, Note_on_c, 10, 23, 75
1, 175320, Control_c, 13, 7, 108
1, 175380, Note_on_c, 10, 23, 0
1, 175380, Control_c, 13, 7, 106
1, 175440, Note_on_c, 9, 82, 0
1, 175440, Note_on_c, 0, 47, 95
1, 175440, Note_on_c, 1, 71, 95
1, 175440, Note_on_c, 1, 83, 64
1, 175440, Note_on_c, 1, 35, 95
1, 175440, Note_on_c, 2, 95, 64
1, 175440, Note_on_c, 2, 83, 64
1, 175440, Note_on_c, 2, 71, 127
1, 175440, Note_on_c, 2, 59, 95
1, 175440, Note_on_c, 3, 83, 64
1, 175440, Note_on_c, 3, 47, 64
1, 175440, Note_on_c, 9, 42, 73
1, 175440, Note_on_c, 9, 82, 11
1, 175440, Note_on_c, 10, 23, 99
1, 175440, Control_c, 13, 7, 105
1, 175500, Note_on_c, 10, 23, 0
1, 175500, Control_c, 13, 7, 103
1, 175560, Note_on_c, 9, 82, 0
1, 175560, Note_on_c, 9, 42, 0
1, 175560, Note_on_c, 9, 82, 11
1, 175560, Note_on_c, 10, 23, 127
1, 175560, Control_c, 13, 7, 101
1, 175620, Control_c, 13, 7, 99
1, 175680, Note_on_c, 9, 82, 0
1, 175680, Note_on_c, 1, 71, 0
1, 175680, Note_on_c, 3, 83, 0
1, 175680, Note_on_c, 0, 47, 0
1, 175680, Note_on_c, 1, 83, 0
1, 175680, Note_on_c, 2, 83, 0
1, 175680, Note_on_c, 2, 95, 0
1, 175680, Note_on_c, 1, 35, 0
1, 175680, Note_on_c, 2, 59, 0
1, 175680, Note_on_c, 2, 71, 0
1, 175680, Note_on_c, 3, 47, 0
1, 175680, Note_on_c, 9, 42, 88
1, 175680, Note_on_c, 9, 35, 102
1, 175680, Note_on_c, 9, 82, 18
1, 175680, Control_c, 13, 7, 96
1, 175740, Note_on_c, 10, 23, 0
1, 175740, Control_c, 13, 7, 95
1, 175800, Note_on_c, 9, 82, 0
1, 175800, Note_on_c, 9, 35, 0
1, 175800, Note_on_c, 9, 42, 0
1, 175800, Note_on_c, 0, 43, 95
1, 175800, Note_on_c, 1, 67, 95
1, 175800, Note_on_c, 1, 79, 64
1, 175800, Note_on_c, 1, 31, 95
1, 175800, Note_on_c, 2, 91, 64
1, 175800, Note_on_c, 2, 79, 64
1, 175800, Note_on_c, 2, 67, 127
1, 175800, Note_on_c, 2, 55, 95
1, 175800, Note_on_c, 3, 79, 64
1, 175800, Note_on_c, 3, 43, 64
1, 175800, Note_on_c, 9, 82, 18
1, 175800, Note_on_c, 10, 23, 93
1, 175800, Control_c, 13, 7, 92
1, 175860, Note_on_c, 10, 23, 0
1, 175860, Control_c, 13, 7, 91
1, 175920, Note_on_c, 2, 55, 0
1, 175920, Note_on_c, 1, 79, 0
1, 175920, Note_on_c, 1, 67, 0
1, 175920, Note_on_c, 0, 43, 0
1, 175920, Note_on_c, 1, 31, 0
1, 175920, Note_on_c, 9, 82, 0
1, 175920, Note_on_c, 2, 79, 0
1, 175920, Note_on_c, 2, 91, 0
1, 175920, Note_on_c, 3, 43, 0
1, 175920, Note_on_c, 2, 67, 0
1, 175920, Note_on_c, 3, 79, 0
1, 175920, Pitch_bend_c, 0, 5100
1, 175920, Note_on_c, 0, 47, 95
1, 175920, Pitch_bend_c, 1, 5100
1, 175920, Note_on_c, 1, 71, 95
1, 175920, Note_on_c, 1, 83, 64
1, 175920, Note_on_c, 1, 35, 95
1, 175920, Pitch_bend_c, 2, 5100
1, 175920, Note_on_c, 2, 95, 64
1, 175920, Note_on_c, 2, 83, 64
1, 175920, Note_on_c, 2, 71, 127
1, 175920, Note_on_c, 2, 59, 95
1, 175920, Pitch_bend_c, 3, 5100
1, 175920, Note_on_c, 3, 83, 64
1, 175920, Note_on_c, 3, 47, 64
1, 175920, Note_on_c, 9, 42, 73
1, 175920, Note_on_c, 9, 82, 31
1, 175920, Note_on_c, 10, 23, 75
1, 175920, Control_c, 13, 7, 90
1, 175935, Pitch_bend_c, 0, 6697
1, 175935, Pitch_bend_c, 1, 6697
1, 175935, Pitch_bend_c, 2, 6697
1, 175935, Pitch_bend_c, 3, 6697
1, 175980, Note_on_c, 10, 23, 0
1, 175980, Control_c, 13, 7, 88
1, 176000, Pitch_bend_c, 0, 6841
1, 176000, Pitch_bend_c, 1, 6841
1, 176000, Pitch_bend_c, 2, 6841
1, 176000, Pitch_bend_c, 3, 6841
1, 176030, Pitch_bend_c, 0, 6984
1, 176030, Pitch_bend_c, 1, 6984
1, 176030, Pitch_bend_c, 2, 6984
1, 176030, Pitch_bend_c, 3, 6984
1, 176040, Note_on_c, 9, 82, 0
1, 176040, Note_on_c, 9, 42, 0
1, 176040, Note_on_c, 9, 82, 39
1, 176040, Note_on_c, 10, 23, 59
1, 176040, Control_c, 13, 7, 86
1, 176045, Pitch_bend_c, 0, 7175
1, 176045, Pitch_bend_c, 1, 7175
1, 176045, Pitch_bend_c, 2, 7175
1, 176045, Pitch_bend_c, 3, 7175
1, 176060, Pitch_bend_c, 0, 7319
1, 176060, Pitch_bend_c, 1, 7319
1, 176060, Pitch_bend_c, 2, 7319
1, 176060, Pitch_bend_c, 3, 7319
1, 176080, Pitch_bend_c, 0, 7612
1, 176080, Pitch_bend_c, 1, 7612
1, 176080, Pitch_bend_c, 2, 7612
1, 176080, Pitch_bend_c, 3, 7612
1, 176095, Pitch_bend_c, 0, 7756
1, 176095, Pitch_bend_c, 1, 7756
1, 176095, Pitch_bend_c, 2, 7756
1, 176095, Pitch_bend_c, 3, 7756
1, 176100, Note_on_c, 10, 23, 0
1, 176100, Control_c, 13, 7, 83
1, 176110, Pitch_bend_c, 0, 7899
1, 176110, Pitch_bend_c, 1, 7899
1, 176110, Pitch_bend_c, 2, 7899
1, 176110, Pitch_bend_c, 3, 7899
1, 176125, Pitch_bend_c, 0, 8049
1, 176125, Pitch_bend_c, 1, 8049
1, 176125, Pitch_bend_c, 2, 8049
1, 176125, Pitch_bend_c, 3, 8049
1, 176140, Pitch_bend_c, 0, 8192
1, 176140, Pitch_bend_c, 1, 8192
1, 176140, Pitch_bend_c, 2, 8192
1, 176140, Pitch_bend_c, 3, 8192
1, 176160, Note_on_c, 3, 47, 0
1, 176160, Note_on_c, 3, 83, 0
1, 176160, Note_on_c, 1, 71, 0
1, 176160, Note_on_c, 0, 47, 0
1, 176160, Note_on_c, 1, 35, 0
1, 176160, Note_on_c, 9, 82, 0
1, 176160, Note_on_c, 2, 83, 0
1, 176160, Note_on_c, 2, 95, 0
1, 176160, Note_on_c, 1, 83, 0
1, 176160, Note_on_c, 2, 71, 0
1, 176160, Note_on_c, 2, 59, 0
1, 176160, Note_on_c, 0, 47, 95
1, 176160, Note_on_c, 1, 71, 95
1, 176160, Note_on_c, 1, 83, 64
1, 176160, Note_on_c, 1, 35, 95
1, 176160, Note_on_c, 2, 95, 64
1, 176160, Note_on_c, 2, 83, 64
1, 176160, Note_on_c, 2, 71, 127
1, 176160, Note_on_c, 2, 59, 95
1, 176160, Note_on_c, 3, 83, 64
1, 176160, Note_on_c, 3, 47, 64
1, 176160, Note_on_c, 9, 42, 73
1, 176160, Note_on_c, 9, 40, 90
1, 176160, Note_on_c, 9, 35, 103
1, 176160, Note_on_c, 9, 28, 103
1, 176160, Note_on_c, 9, 82, 40
1, 176160, Note_on_c, 10, 23, 58
1, 176160, Control_c, 13, 7, 82
1, 176220, Note_on_c, 10, 23, 0
1, 176220, Control_c, 13, 7, 80
1, 176280, Note_on_c, 9, 82, 0
1, 176280, Note_on_c, 9, 28, 0
1, 176280, Note_on_c, 9, 35, 0
1, 176280, Note_on_c, 9, 40, 0
1, 176280, Note_on_c, 9, 42, 0
1, 176280, Note_on_c, 9, 82, 25
1, 176280, Note_on_c, 10, 23, 72
1, 176280, Control_c, 13, 7, 77
1, 176340, Note_on_c, 10, 23, 0
1, 176340, Control_c, 13, 7, 76
1, 176400, Note_on_c, 3, 47, 0
1, 176400, Note_on_c, 3, 83, 0
1, 176400, Note_on_c, 1, 71, 0
1, 176400, Note_on_c, 0, 47, 0
1, 176400, Note_on_c, 1, 35, 0
1, 176400, Note_on_c, 9, 82, 0
1, 176400, Note_on_c, 2, 83, 0
1, 176400, Note_on_c, 2, 95, 0
1, 176400, Note_on_c, 1, 83, 0
1, 176400, Note_on_c, 2, 71, 0
1, 176400, Note_on_c, 2, 59, 0
1, 176400, Note_on_c, 0, 47, 95
1, 176400, Note_on_c, 1, 71, 95
1, 176400, Note_on_c, 1, 83, 64
1, 176400, Note_on_c, 1, 35, 95
1, 176400, Note_on_c, 2, 95, 64
1, 176400, Note_on_c, 2, 83, 64
1, 176400, Note_on_c, 2, 71, 127
1, 176400, Note_on_c, 2, 59, 95
1, 176400, Note_on_c, 3, 83, 64
1, 176400, Note_on_c, 3, 47, 64
1, 176400, Note_on_c, 9, 42, 73
1, 176400, Note_on_c, 9, 82, 11
1, 176400, Note_on_c, 10, 23, 91
1, 176400, Control_c, 13, 7, 74
1, 176430, Pitch_bend_c, 0, 8335
1, 176430, Pitch_bend_c, 1, 8335
1, 176430, Pitch_bend_c, 2, 8335
1, 176430, Pitch_bend_c, 3, 8335
1, 176460, Note_on_c, 10, 23, 0
1, 176460, Control_c, 13, 7, 71
1, 176480, Pitch_bend_c, 0, 8485
1, 176480, Pitch_bend_c, 1, 8485
1, 176480, Pitch_bend_c, 2, 8485
1, 176480, Pitch_bend_c, 3, 8485
1, 176495, Pitch_bend_c, 0, 8628
1, 176495, Pitch_bend_c, 1, 8628
1, 176495, Pitch_bend_c, 2, 8628
1, 176495, Pitch_bend_c, 3, 8628
1, 176510, Pitch_bend_c, 0, 8772
1, 176510, Pitch_bend_c, 1, 8772
1, 176510, Pitch_bend_c, 2, 8772
1, 176510, Pitch_bend_c, 3, 8772
1, 176520, Note_on_c, 9, 82, 0
1, 176520, Note_on_c, 9, 42, 0
1, 176520, Note_on_c, 9, 82, 11
1, 176520, Note_on_c, 10, 23, 127
1, 176520, Control_c, 13, 7, 69
1, 176525, Pitch_bend_c, 0, 9065
1, 176525, Pitch_bend_c, 1, 9065
1, 176525, Pitch_bend_c, 2, 9065
1, 176525, Pitch_bend_c, 3, 9065
1, 176540, Pitch_bend_c, 0, 9400
1, 176540, Pitch_bend_c, 1, 9400
1, 176540, Pitch_bend_c, 2, 9400
1, 176540, Pitch_bend_c, 3, 9400
1, 176560, Pitch_bend_c, 0, 9543
1, 176560, Pitch_bend_c, 1, 9543
1, 176560, Pitch_bend_c, 2, 9543
1, 176560, Pitch_bend_c, 3, 9543
1, 176575, Pitch_bend_c, 0, 9830
1, 176575, Pitch_bend_c, 1, 9830
1, 176575, Pitch_bend_c, 2, 9830
1, 176575, Pitch_bend_c, 3, 9830
1, 176580, Control_c, 13, 7, 68
1, 176590, Pitch_bend_c, 0, 10110
1, 176590, Pitch_bend_c, 1, 10110
1, 176590, Pitch_bend_c, 2, 10110
1, 176590, Pitch_bend_c, 3, 10110
1, 176605, Pitch_bend_c, 0, 10253
1, 176605, Pitch_bend_c, 1, 10253
1, 176605, Pitch_bend_c, 2, 10253
1, 176605, Pitch_bend_c, 3, 10253
1, 176620, Pitch_bend_c, 0, 10397
1, 176620, Pitch_bend_c, 1, 10397
1, 176620, Pitch_bend_c, 2, 10397
1, 176620, Pitch_bend_c, 3, 10397
1, 176640, Note_on_c, 9, 82, 0
1, 176640, Note_on_c, 1, 71, 0
1, 176640, Note_on_c, 3, 83, 0
1, 176640, Note_on_c, 0, 47, 0
1, 176640, Note_on_c, 1, 83, 0
1, 176640, Note_on_c, 2, 83, 0
1, 176640, Note_on_c, 2, 95, 0
1, 176640, Note_on_c, 1, 35, 0
1, 176640, Note_on_c, 2, 59, 0
1, 176640, Note_on_c, 2, 71, 0
1, 176640, Note_on_c, 3, 47, 0
1, 176640, Pitch_bend_c, 0, 12165
1, 176640, Note_on_c, 0, 35, 95
1, 176640, Pitch_bend_c, 1, 12165
1, 176640, Note_on_c, 1, 59, 95
1, 176640, Note_on_c, 1, 71, 64
1, 176640, Note_on_c, 1, 23, 95
1, 176640, Pitch_bend_c, 2, 12165
1, 176640, Note_on_c, 2, 83, 64
1, 176640, Note_on_c, 2, 71, 64
1, 176640, Note_on_c, 2, 59, 127
1, 176640, Note_on_c, 2, 47, 95
1, 176640, Pitch_bend_c, 3, 12165
1, 176640, Note_on_c, 3, 71, 64
1, 176640, Note_on_c, 3, 35, 64
1, 176640, Note_on_c, 9, 82, 18
1, 176640, Note_on_c, 9, 42, 103
1, 176640, Note_on_c, 9, 35, 103
1, 176640, Control_c, 13, 7, 66
1, 176655, Pitch_bend_c, 0, 8192
1, 176655, Pitch_bend_c, 1, 8192
1, 176655, Pitch_bend_c, 2, 8192
1, 176655, Pitch_bend_c, 3, 8192
1, 176700, Control_c, 13, 7, 63
1, 176760, Note_on_c, 9, 35, 0
1, 176760, Note_on_c, 9, 42, 0
1, 176760, Note_on_c, 9, 82, 0
1, 176760, Note_on_c, 10, 23, 0
1, 176760, Note_on_c, 9, 82, 18
1, 176760, Note_on_c, 10, 23, 79
1, 176760, Control_c, 13, 7, 60
1, 176820, Note_on_c, 10, 23, 0
1, 176820, Control_c, 13, 7, 59
1, 176880, Note_on_c, 9, 82, 0
1, 176880, Note_on_c, 9, 82, 31
1, 176880, Note_on_c, 9, 42, 73
1, 176880, Note_on_c, 10, 23, 64
1, 176880, Control_c, 13, 7, 57
1, 176940, Note_on_c, 10, 23, 0
1, 176940, Control_c, 13, 7, 55
1, 177000, Note_on_c, 9, 42, 0
1, 177000, Note_on_c, 1, 71, 0
1, 177000, Note_on_c, 2, 47, 0
1, 177000, Note_on_c, 1, 59, 0
1, 177000, Note_on_c, 0, 35, 0
1, 177000, Note_on_c, 1, 23, 0
1, 177000, Note_on_c, 9, 82, 0
1, 177000, Note_on_c, 2, 71, 0
1, 177000, Note_on_c, 2, 83, 0
1, 177000, Note_on_c, 3, 71, 0
1, 177000, Note_on_c, 2, 59, 0
1, 177000, Note_on_c, 3, 35, 0
1, 177000, Pitch_bend_c, 0, 0
1, 177000, Note_on_c, 0, 47, 95
1, 177000, Pitch_bend_c, 1, 0
1, 177000, Note_on_c, 1, 71, 95
1, 177000, Note_on_c, 1, 83, 64
1, 177000, Note_on_c, 1, 35, 95
1, 177000, Pitch_bend_c, 2, 0
1, 177000, Note_on_c, 2, 95, 64
1, 177000, Note_on_c, 2, 83, 64
1, 177000, Note_on_c, 2, 71, 127
1, 177000, Note_on_c, 2, 59, 95
1, 177000, Pitch_bend_c, 3, 0
1, 177000, Note_on_c, 3, 83, 64
1, 177000, Note_on_c, 3, 47, 64
1, 177000, Note_on_c, 9, 82, 39
1, 177000, Note_on_c, 10, 23, 62
1, 177000, Control_c, 13, 7, 52
1, 177015, Pitch_bend_c, 0, 8192
1, 177015, Pitch_bend_c, 1, 8192
1, 177015, Pitch_bend_c, 2, 8192
1, 177015, Pitch_bend_c, 3, 8192
1, 177060, Note_on_c, 10, 23, 0
1, 177060, Control_c, 13, 7, 50
1, 177120, Note_on_c, 2, 59, 0
1, 177120, Note_on_c, 1, 83, 0
1, 177120, Note_on_c, 1, 71, 0
1, 177120, Note_on_c, 0, 47, 0
1, 177120, Note_on_c, 1, 35, 0
1, 177120, Note_on_c, 9, 82, 0
1, 177120, Note_on_c, 2, 83, 0
1, 177120, Note_on_c, 2, 95, 0
1, 177120, Note_on_c, 3, 47, 0
1, 177120, Note_on_c, 2, 71, 0
1, 177120, Note_on_c, 3, 83, 0
1, 177120, Note_on_c, 9, 82, 40
1, 177120, Note_on_c, 9, 42, 73
1, 177120, Note_on_c, 9, 40, 91
1, 177120, Note_on_c, 9, 35, 103
1, 177120, Note_on_c, 9, 28, 102
1, 177120, Note_on_c, 10, 23, 66
1, 177120, Control_c, 13, 7, 48
1, 177180, Note_on_c, 10, 23, 0
1, 177180, Control_c, 13, 7, 47
1, 177240, Note_on_c, 9, 40, 0
1, 177240, Note_on_c, 9, 42, 0
1, 177240, Note_on_c, 9, 82, 0
1, 177240, Note_on_c, 9, 28, 0
1, 177240, Note_on_c, 9, 35, 0
1, 177240, Note_on_c, 9, 82, 25
1, 177240, Note_on_c, 10, 23, 91
1, 177240, Control_c, 13, 7, 45
1, 177300, Note_on_c, 10, 23, 0
1, 177300, Control_c, 13, 7, 44
1, 177360, Note_on_c, 9, 82, 0
1, 177360, Note_on_c, 0, 47, 95
1, 177360, Note_on_c, 1, 71, 95
1, 177360, Note_on_c, 1, 83, 64
1, 177360, Note_on_c, 1, 35, 95
1, 177360, Note_on_c, 2, 95, 64
1, 177360, Note_on_c, 2, 83, 64
1, 177360, Note_on_c, 2, 71, 127
1, 177360, Note_on_c, 2, 59, 95
1, 177360, Note_on_c, 3, 83, 64
1, 177360, Note_on_c, 3, 47, 64
1, 177360, Note_on_c, 9, 82, 11
1, 177360, Note_on_c, 9, 42, 73
1, 177360, Note_on_c, 10, 23, 98
1, 177360, Control_c, 13, 7, 42
1, 177420, Note_on_c, 10, 23, 0
1, 177420, Control_c, 13, 7, 41
1, 177480, Note_on_c, 9, 42, 0
1, 177480, Note_on_c, 9, 82, 0
1, 177480, Note_on_c, 9, 82, 11
1, 177480, Note_on_c, 10, 23, 127
1, 177480, Control_c, 13, 7, 38
1, 177540, Control_c, 13, 7, 36
1, 177600, Note_on_c, 9, 82, 0
1, 177600, Note_on_c, 1, 71, 0
1, 177600, Note_on_c, 3, 83, 0
1, 177600, Note_on_c, 0, 47, 0
1, 177600, Note_on_c, 1, 83, 0
1, 177600, Note_on_c, 2, 83, 0
1, 177600, Note_on_c, 2, 95, 0
1, 177600, Note_on_c, 1, 35, 0
1, 177600, Note_on_c, 2, 59, 0
1, 177600, Note_on_c, 2, 71, 0
1, 177600, Note_on_c, 3, 47, 0
1, 177600, Note_on_c, 0, 47, 95
1, 177600, Note_on_c, 1, 71, 95
1, 177600, Note_on_c, 1, 83, 64
1, 177600, Note_on_c, 1, 35, 95
1, 177600, Note_on_c, 2, 95, 64
1, 177600, Note_on_c, 2, 83, 64
1, 177600, Note_on_c, 2, 71, 127
1, 177600, Note_on_c, 2, 59, 95
1, 177600, Note_on_c, 3, 83, 64
1, 177600, Note_on_c, 3, 47, 64
1, 177600, Note_on_c, 9, 82, 18
1, 177600, Note_on_c, 9, 42, 88
1, 177600, Note_on_c, 9, 35, 104
1, 177600, Control_c, 13, 7, 34
1, 177630, Pitch_bend_c, 0, 8049
1, 177630, Pitch_bend_c, 1, 8049
1, 177630, Pitch_bend_c, 2, 8049
1, 177630, Pitch_bend_c, 3, 8049
1, 177660, Note_on_c, 10, 23, 0
1, 177660, Pitch_bend_c, 0, 7899
1, 177660, Pitch_bend_c, 1, 7899
1, 177660, Pitch_bend_c, 2, 7899
1, 177660, Pitch_bend_c, 3, 7899
1, 177660, Control_c, 13, 7, 33
1, 177695, Pitch_bend_c, 0, 7756
1, 177695, Pitch_bend_c, 1, 7756
1, 177695, Pitch_bend_c, 2, 7756
1, 177695, Pitch_bend_c, 3, 7756
1, 177720, Note_on_c, 9, 35, 0
1, 177720, Note_on_c, 9, 42, 0
1, 177720, Note_on_c, 9, 82, 0
1, 177720, Note_on_c, 9, 82, 18
1, 177720, Note_on_c, 10, 23, 66
1, 177720, Control_c, 13, 7, 31
1, 177725, Pitch_bend_c, 0, 7612
1, 177725, Pitch_bend_c, 1, 7612
1, 177725, Pitch_bend_c, 2, 7612
1, 177725, Pitch_bend_c, 3, 7612
1, 177760, Pitch_bend_c, 0, 7469
1, 177760, Pitch_bend_c, 1, 7469
1, 177760, Pitch_bend_c, 2, 7469
1, 177760, Pitch_bend_c, 3, 7469
1, 177780, Note_on_c, 10, 23, 0
1, 177780, Note_on_c, 3, 83, 0
1, 177780, Note_on_c, 1, 71, 0
1, 177780, Note_on_c, 0, 47, 0
1, 177780, Note_on_c, 1, 83, 0
1, 177780, Note_on_c, 2, 83, 0
1, 177780, Note_on_c, 2, 95, 0
1, 177780, Note_on_c, 1, 35, 0
1, 177780, Note_on_c, 2, 59, 0
1, 177780, Note_on_c, 2, 71, 0
1, 177780, Note_on_c, 3, 47, 0
1, 177780, Control_c, 13, 7, 29
1, 177840, Note_on_c, 9, 82, 0
1, 177840, Note_on_c, 0, 47, 95
1, 177840, Note_on_c, 1, 71, 95
1, 177840, Note_on_c, 1, 83, 64
1, 177840, Note_on_c, 1, 35, 95
1, 177840, Note_on_c, 2, 95, 64
1, 177840, Note_on_c, 2, 83, 64
1, 177840, Note_on_c, 2, 71, 127
1, 177840, Note_on_c, 2, 59, 95
1, 177840, Note_on_c, 3, 83, 64
1, 177840, Note_on_c, 3, 47, 64
1, 177840, Note_on_c, 9, 82, 31
1, 177840, Note_on_c, 9, 42, 73
1, 177840, Note_on_c, 10, 23, 74
1, 177840, Control_c, 13, 7, 29
1, 177855, Pitch_bend_c, 0, 7319
1, 177855, Pitch_bend_c, 1, 7319
1, 177855, Pitch_bend_c, 2, 7319
1, 177855, Pitch_bend_c, 3, 7319
1, 177900, Note_on_c, 10, 23, 0
1, 177900, Pitch_bend_c, 0, 7175
1, 177900, Pitch_bend_c, 1, 7175
1, 177900, Pitch_bend_c, 2, 7175
1, 177900, Pitch_bend_c, 3, 7175
1, 177900, Control_c, 13, 7, 26
1, 177920, Pitch_bend_c, 0, 6984
1, 177920, Pitch_bend_c, 1, 6984
1, 177920, Pitch_bend_c, 2, 6984
1, 177920, Pitch_bend_c, 3, 6984
1, 177950, Pitch_bend_c, 0, 6841
1, 177950, Pitch_bend_c, 1, 6841
1, 177950, Pitch_bend_c, 2, 6841
1, 177950, Pitch_bend_c, 3, 6841
1, 177960, Note_on_c, 9, 42, 0
1, 177960, Note_on_c, 9, 82, 0
1, 177960, Note_on_c, 9, 82, 39
1, 177960, Note_on_c, 10, 23, 84
1, 177960, Control_c, 13, 7, 24
1, 177980, Pitch_bend_c, 0, 6697
1, 177980, Pitch_bend_c, 1, 6697
1, 177980, Pitch_bend_c, 2, 6697
1, 177980, Pitch_bend_c, 3, 6697
1, 178020, Note_on_c, 10, 23, 0
1, 178020, Control_c, 13, 7, 21
1, 178060, Pitch_bend_c, 0, 6554
1, 178060, Pitch_bend_c, 1, 6554
1, 178060, Pitch_bend_c, 2, 6554
1, 178060, Pitch_bend_c, 3, 6554
1, 178080, Note_on_c, 3, 47, 0
1, 178080, Note_on_c, 3, 83, 0
1, 178080, Note_on_c, 1, 71, 0
1, 178080, Note_on_c, 0, 47, 0
1, 178080, Note_on_c, 1, 35, 0
1, 178080, Note_on_c, 9, 82, 0
1, 178080, Note_on_c, 2, 83, 0
1, 178080, Note_on_c, 2, 95, 0
1, 178080, Note_on_c, 1, 83, 0
1, 178080, Note_on_c, 2, 71, 0
1, 178080, Note_on_c, 2, 59, 0
1, 178080, Note_on_c, 0, 47, 95
1, 178080, Note_on_c, 1, 71, 95
1, 178080, Note_on_c, 1, 83, 64
1, 178080, Note_on_c, 1, 35, 95
1, 178080, Note_on_c, 2, 95, 64
1, 178080, Note_on_c, 2, 83, 64
1, 178080, Note_on_c, 2, 71, 127
1, 178080, Note_on_c, 2, 59, 95
1, 178080, Note_on_c, 3, 83, 64
1, 178080, Note_on_c, 3, 47, 64
1, 178080, Note_on_c, 9, 82, 40
1, 178080, Note_on_c, 9, 42, 73
1, 178080, Note_on_c, 9, 40, 92
1, 178080, Note_on_c, 9, 35, 104
1, 178080, Note_on_c, 9, 28, 102
1, 178080, Note_on_c, 10, 35, 127
1, 178080, Control_c, 13, 7, 19
1, 178110, Pitch_bend_c, 0, 6418
1, 178110, Pitch_bend_c, 1, 6418
1, 178110, Pitch_bend_c, 2, 6418
1, 178110, Pitch_bend_c, 3, 6418
1, 178125, Pitch_bend_c, 0, 6274
1, 178125, Pitch_bend_c, 1, 6274
1, 178125, Pitch_bend_c, 2, 6274
1, 178125, Pitch_bend_c, 3, 6274
1, 178140, Pitch_bend_c, 0, 6131
1, 178140, Pitch_bend_c, 1, 6131
1, 178140, Pitch_bend_c, 2, 6131
1, 178140, Pitch_bend_c, 3, 6131
1, 178140, Control_c, 13, 7, 17
1, 178160, Pitch_bend_c, 0, 5987
1, 178160, Pitch_bend_c, 1, 5987
1, 178160, Pitch_bend_c, 2, 5987
1, 178160, Pitch_bend_c, 3, 5987
1, 178175, Pitch_bend_c, 0, 5803
1, 178175, Pitch_bend_c, 1, 5803
1, 178175, Pitch_bend_c, 2, 5803
1, 178175, Pitch_bend_c, 3, 5803
1, 178190, Pitch_bend_c, 0, 5660
1, 178190, Pitch_bend_c, 1, 5660
1, 178190, Pitch_bend_c, 2, 5660
1, 178190, Pitch_bend_c, 3, 5660
1, 178200, Note_on_c, 9, 28, 0
1, 178200, Note_on_c, 9, 35, 0
1, 178200, Note_on_c, 9, 40, 0
1, 178200, Note_on_c, 9, 42, 0
1, 178200, Note_on_c, 9, 82, 0
1, 178200, Note_on_c, 9, 82, 25
1, 178200, Control_c, 13, 7, 15
1, 178205, Pitch_bend_c, 0, 5516
1, 178205, Pitch_bend_c, 1, 5516
1, 178205, Pitch_bend_c, 2, 5516
1, 178205, Pitch_bend_c, 3, 5516
1, 178220, Pitch_bend_c, 0, 5380
1, 178220, Pitch_bend_c, 1, 5380
1, 178220, Pitch_bend_c, 2, 5380
1, 178220, Pitch_bend_c, 3, 5380
1, 178240, Pitch_bend_c, 0, 5237
1, 178240, Pitch_bend_c, 1, 5237
1, 178240, Pitch_bend_c, 2, 5237
1, 178240, Pitch_bend_c, 3, 5237
1, 178260, Note_on_c, 10, 35, 0
1, 178260, Control_c, 13, 7, 13
1, 178270, Pitch_bend_c, 0, 5100
1, 178270, Pitch_bend_c, 1, 5100
1, 178270, Pitch_bend_c, 2, 5100
1, 178270, Pitch_bend_c, 3, 5100
1, 178320, Note_on_c, 3, 83, 0
1, 178320, Note_on_c, 2, 59, 0
1, 178320, Note_on_c, 1, 83, 0
1, 178320, Note_on_c, 1, 71, 0
1, 178320, Note_on_c, 0, 47, 0
1, 178320, Note_on_c, 9, 82, 0
1, 178320, Note_on_c, 2, 95, 0
1, 178320, Note_on_c, 1, 35, 0
1, 178320, Note_on_c, 2, 83, 0
1, 178320, Note_on_c, 2, 71, 0
1, 178320, Note_on_c, 3, 47, 0
1, 178320, Note_on_c, 0, 47, 95
1, 178320, Note_on_c, 1, 71, 95
1, 178320, Note_on_c, 1, 83, 64
1, 178320, Note_on_c, 1, 35, 95
1, 178320, Note_on_c, 2, 95, 64
1, 178320, Note_on_c, 2, 83, 64
1, 178320, Note_on_c, 2, 71, 127
1, 178320, Note_on_c, 2, 59, 95
1, 178320, Note_on_c, 3, 83, 64
1, 178320, Note_on_c, 3, 47, 64
1, 178320, Note_on_c, 9, 82, 11
1, 178320, Note_on_c, 9, 42, 73
1, 178320, Note_on_c, 10, 23, 103
1, 178320, Control_c, 13, 7, 11
1, 178335, Pitch_bend_c, 0, 4963
1, 178335, Pitch_bend_c, 1, 4963
1, 178335, Pitch_bend_c, 2, 4963
1, 178335, Pitch_bend_c, 3, 4963
1, 178350, Pitch_bend_c, 0, 4636
1, 178350, Pitch_bend_c, 1, 4636
1, 178350, Pitch_bend_c, 2, 4636
1, 178350, Pitch_bend_c, 3, 4636
1, 178365, Pitch_bend_c, 0, 4499
1, 178365, Pitch_bend_c, 1, 4499
1, 178365, Pitch_bend_c, 2, 4499
1, 178365, Pitch_bend_c, 3, 4499
1, 178380, Note_on_c, 10, 23, 0
1, 178380, Pitch_bend_c, 0, 4083
1, 178380, Pitch_bend_c, 1, 4083
1, 178380, Pitch_bend_c, 2, 4083
1, 178380, Pitch_bend_c, 3, 4083
1, 178380, Control_c, 13, 7, 9
1, 178400, Pitch_bend_c, 0, 3810
1, 178400, Pitch_bend_c, 1, 3810
1, 178400, Pitch_bend_c, 2, 3810
1, 178400, Pitch_bend_c, 3, 3810
1, 178415, Pitch_bend_c, 0, 3359
1, 178415, Pitch_bend_c, 1, 3359
1, 178415, Pitch_bend_c, 2, 3359
1, 178415, Pitch_bend_c, 3, 3359
1, 178430, Pitch_bend_c, 0, 3086
1, 178430, Pitch_bend_c, 1, 3086
1, 178430, Pitch_bend_c, 2, 3086
1, 178430, Pitch_bend_c, 3, 3086
1, 178440, Note_on_c, 9, 42, 0
1, 178440, Note_on_c, 9, 82, 0
1, 178440, Note_on_c, 9, 82, 11
1, 178440, Note_on_c, 10, 35, 127
1, 178440, Control_c, 13, 7, 8
1, 178445, Pitch_bend_c, 0, 2820
1, 178445, Pitch_bend_c, 1, 2820
1, 178445, Pitch_bend_c, 2, 2820
1, 178445, Pitch_bend_c, 3, 2820
1, 178460, Pitch_bend_c, 0, 2683
1, 178460, Pitch_bend_c, 1, 2683
1, 178460, Pitch_bend_c, 2, 2683
1, 178460, Pitch_bend_c, 3, 2683
1, 178480, Pitch_bend_c, 0, 2369
1, 178480, Pitch_bend_c, 1, 2369
1, 178480, Pitch_bend_c, 2, 2369
1, 178480, Pitch_bend_c, 3, 2369
1, 178495, Pitch_bend_c, 0, 2240
1, 178495, Pitch_bend_c, 1, 2240
1, 178495, Pitch_bend_c, 2, 2240
1, 178495, Pitch_bend_c, 3, 2240
1, 178500, Control_c, 13, 7, 6
1, 178525, Pitch_bend_c, 0, 2103
1, 178525, Pitch_bend_c, 1, 2103
1, 178525, Pitch_bend_c, 2, 2103
1, 178525, Pitch_bend_c, 3, 2103
1, 178560, Note_on_c, 10, 35, 0
1, 178560, Note_on_c, 3, 47, 0
1, 178560, Note_on_c, 3, 83, 0
1, 178560, Note_on_c, 13, 67, 0
1, 178560, Note_on_c, 13, 73, 0
1, 178560, Note_on_c, 1, 35, 0
1, 178560, Note_on_c, 13, 62, 0
1, 178560, Note_on_c, 9, 57, 0
1, 178560, Note_on_c, 13, 60, 0
1, 178560, Note_on_c, 13, 75, 0
1, 178560, Note_on_c, 13, 71, 0
1, 178560, Note_on_c, 13, 63, 0
1, 178560, Note_on_c, 13, 69, 0
1, 178560, Note_on_c, 13, 65, 0
1, 178560, Note_on_c, 13, 70, 0
1, 178560, Note_on_c, 13, 61, 0
1, 178560, Note_on_c, 9, 49, 0
1, 178560, Note_on_c, 2, 59, 0
1, 178560, Note_on_c, 2, 71, 0
1, 178560, Note_on_c, 2, 95, 0
1, 178560, Note_on_c, 13, 72, 0
1, 178560, Note_on_c, 0, 47, 0
1, 178560, Note_on_c, 13, 74, 0
1, 178560, Note_on_c, 13, 64, 0
1, 178560, Note_on_c, 13, 66, 0
1, 178560, Note_on_c, 9, 52, 0
1, 178560, Note_on_c, 2, 83, 0
1, 178560, Note_on_c, 1, 71, 0
1, 178560, Note_on_c, 1, 83, 0
1, 178560, Note_on_c, 9, 82, 0
1, 178560, Note_on_c, 13, 68, 0
1, 178560, Pitch_bend_c, 0, 8192
1, 178560, Note_on_c, 0, 35, 95
1, 178560, Pitch_bend_c, 1, 8192
1, 178560, Note_on_c, 1, 59, 95
1, 178560, Note_on_c, 1, 71, 64
1, 178560, Note_on_c, 1, 23, 95
1, 178560, Pitch_bend_c, 2, 8192
1, 178560, Note_on_c, 2, 83, 94
1, 178560, Note_on_c, 2, 71, 64
1, 178560, Note_on_c, 2, 59, 127
1, 178560, Note_on_c, 2, 47, 95
1, 178560, Pitch_bend_c, 3, 8192
1, 178560, Note_on_c, 3, 71, 64
1, 178560, Note_on_c, 3, 35, 64
1, 178560, Note_on_c, 9, 42, 103
1, 178560, Note_on_c, 9, 35, 103
1, 178560, Note_on_c, 9, 82, 18
1, 178560, Note_on_c, 10, 23, 127
1, 178560, Control_c, 13, 7, 0
1, 178570, Pitch_bend_c, 4, 8192
1, 178570, Pitch_bend_c, 6, 8192
1, 178680, Note_on_c, 9, 82, 0
1, 178680, Note_on_c, 9, 35, 0
1, 178680, Note_on_c, 9, 42, 0
1, 178680, Note_on_c, 9, 82, 18
1, 178740, Note_on_c, 10, 23, 0
1, 178800, Note_on_c, 9, 82, 0
1, 178800, Note_on_c, 9, 42, 73
1, 178800, Note_on_c, 9, 82, 31
1, 178800, Note_on_c, 10, 23, 93
1, 178860, Note_on_c, 10, 23, 0
1, 178920, Note_on_c, 2, 83, 0
1, 178920, Note_on_c, 1, 59, 0
1, 178920, Note_on_c, 3, 71, 0
1, 178920, Note_on_c, 1, 71, 0
1, 178920, Note_on_c, 1, 23, 0
1, 178920, Note_on_c, 0, 35, 0
1, 178920, Note_on_c, 2, 71, 0
1, 178920, Note_on_c, 9, 42, 0
1, 178920, Note_on_c, 3, 35, 0
1, 178920, Note_on_c, 2, 59, 0
1, 178920, Note_on_c, 9, 82, 0
1, 178920, Note_on_c, 2, 47, 0
1, 178920, Pitch_bend_c, 0, 0
1, 178920, Note_on_c, 0, 47, 95
1, 178920, Pitch_bend_c, 1, 0
1, 178920, Note_on_c, 1, 71, 95
1, 178920, Note_on_c, 1, 83, 64
1, 178920, Note_on_c, 1, 35, 95
1, 178920, Pitch_bend_c, 2, 0
1, 178920, Note_on_c, 2, 95, 64
1, 178920, Note_on_c, 2, 83, 64
1, 178920, Note_on_c, 2, 71, 127
1, 178920, Note_on_c, 2, 59, 95
1, 178920, Pitch_bend_c, 3, 0
1, 178920, Note_on_c, 3, 83, 64
1, 178920, Note_on_c, 3, 47, 64
1, 178920, Note_on_c, 9, 82, 39
1, 178920, Note_on_c, 10, 23, 75
1, 178935, Pitch_bend_c, 0, 8192
1, 178935, Pitch_bend_c, 1, 8192
1, 178935, Pitch_bend_c, 2, 8192
1, 178935, Pitch_bend_c, 3, 8192
1, 178980, Note_on_c, 10, 23, 0
1, 179040, Note_on_c, 1, 71, 0
1, 179040, Note_on_c, 2, 59, 0
1, 179040, Note_on_c, 1, 83, 0
1, 179040, Note_on_c, 1, 35, 0
1, 179040, Note_on_c, 0, 47, 0
1, 179040, Note_on_c, 2, 95, 0
1, 179040, Note_on_c, 2, 83, 0
1, 179040, Note_on_c, 3, 83, 0
1, 179040, Note_on_c, 2, 71, 0
1, 179040, Note_on_c, 9, 82, 0
1, 179040, Note_on_c, 3, 47, 0
1, 179040, Note_on_c, 9, 42, 73
1, 179040, Note_on_c, 9, 35, 102
1, 179040, Note_on_c, 9, 40, 89
1, 179040, Note_on_c, 9, 28, 103
1, 179040, Note_on_c, 9, 82, 40
1, 179040, Note_on_c, 10, 23, 68
1, 179100, Note_on_c, 10, 23, 0
1, 179160, Note_on_c, 9, 35, 0
1, 179160, Note_on_c, 9, 40, 0
1, 179160, Note_on_c, 9, 42, 0
1, 179160, Note_on_c, 9, 82, 0
1, 179160, Note_on_c, 9, 28, 0
1, 179160, Note_on_c, 9, 82, 25
1, 179160, Note_on_c, 10, 23, 75
1, 179220, Note_on_c, 10, 23, 0
1, 179280, Note_on_c, 9, 82, 0
1, 179280, Note_on_c, 0, 47, 95
1, 179280, Note_on_c, 1, 71, 95
1, 179280, Note_on_c, 1, 83, 64
1, 179280, Note_on_c, 1, 35, 95
1, 179280, Note_on_c, 2, 95, 64
1, 179280, Note_on_c, 2, 83, 64
1, 179280, Note_on_c, 2, 71, 127
1, 179280, Note_on_c, 2, 59, 95
1, 179280, Note_on_c, 3, 83, 64
1, 179280, Note_on_c, 3, 47, 64
1, 179280, Note_on_c, 9, 42, 73
1, 179280, Note_on_c, 9, 82, 11
1, 179280, Note_on_c, 10, 23, 99
1, 179340, Note_on_c, 10, 23, 0
1, 179400, Note_on_c, 9, 82, 0
1, 179400, Note_on_c, 9, 42, 0
1, 179400, Note_on_c, 9, 82, 11
1, 179400, Note_on_c, 10, 23, 127
1, 179520, Note_on_c, 9, 82, 0
1, 179520, Note_on_c, 2, 59, 0
1, 179520, Note_on_c, 3, 83, 0
1, 179520, Note_on_c, 1, 83, 0
1, 179520, Note_on_c, 1, 35, 0
1, 179520, Note_on_c, 2, 71, 0
1, 179520, Note_on_c, 2, 95, 0
1, 179520, Note_on_c, 2, 83, 0
1, 179520, Note_on_c, 3, 47, 0
1, 179520, Note_on_c, 0, 47, 0
1, 179520, Note_on_c, 1, 71, 0
1, 179520, Note_on_c, 9, 42, 88
1, 179520, Note_on_c, 9, 35, 102
1, 179520, Note_on_c, 9, 82, 18
1, 179580, Note_on_c, 10, 23, 0
1, 179640, Note_on_c, 9, 42, 0
1, 179640, Note_on_c, 9, 35, 0
1, 179640, Note_on_c, 9, 82, 0
1, 179640, Note_on_c, 0, 43, 95
1, 179640, Note_on_c, 1, 67, 95
1, 179640, Note_on_c, 1, 79, 64
1, 179640, Note_on_c, 1, 31, 95
1, 179640, Note_on_c, 2, 91, 64
1, 179640, Note_on_c, 2, 79, 64
1, 179640, Note_on_c, 2, 67, 127
1, 179640, Note_on_c, 2, 55, 95
1, 179640, Note_on_c, 3, 79, 64
1, 179640, Note_on_c, 3, 43, 64
1, 179640, Note_on_c, 9, 82, 18
1, 179640, Note_on_c, 10, 23, 93
1, 179700, Note_on_c, 10, 23, 0
1, 179760, Note_on_c, 1, 67, 0
1, 179760, Note_on_c, 2, 55, 0
1, 179760, Note_on_c, 1, 79, 0
1, 179760, Note_on_c, 1, 31, 0
1, 179760, Note_on_c, 0, 43, 0
1, 179760, Note_on_c, 2, 91, 0
1, 179760, Note_on_c, 2, 79, 0
1, 179760, Note_on_c, 3, 79, 0
1, 179760, Note_on_c, 2, 67, 0
1, 179760, Note_on_c, 9, 82, 0
1, 179760, Note_on_c, 3, 43, 0
1, 179760, Pitch_bend_c, 0, 5100
1, 179760, Note_on_c, 0, 47, 95
1, 179760, Pitch_bend_c, 1, 5100
1, 179760, Note_on_c, 1, 71, 95
1, 179760, Note_on_c, 1, 83, 64
1, 179760, Note_on_c, 1, 35, 95
1, 179760, Pitch_bend_c, 2, 5100
1, 179760, Note_on_c, 2, 95, 64
1, 179760, Note_on_c, 2, 83, 64
1, 179760, Note_on_c, 2, 71, 127
1, 179760, Note_on_c, 2, 59, 95
1, 179760, Pitch_bend_c, 3, 5100
1, 179760, Note_on_c, 3, 83, 64
1, 179760, Note_on_c, 3, 47, 64
1, 179760, Note_on_c, 9, 42, 73
1, 179760, Note_on_c, 9, 82, 31
1, 179760, Note_on_c, 10, 23, 75
1, 179775, Pitch_bend_c, 0, 6697
1, 179775, Pitch_bend_c, 1, 6697
1, 179775, Pitch_bend_c, 2, 6697
1, 179775, Pitch_bend_c, 3, 6697
1, 179820, Note_on_c, 10, 23, 0
1, 179840, Pitch_bend_c, 0, 6841
1, 179840, Pitch_bend_c, 1, 6841
1, 179840, Pitch_bend_c, 2, 6841
1, 179840, Pitch_bend_c, 3, 6841
1, 179870, Pitch_bend_c, 0, 6984
1, 179870, Pitch_bend_c, 1, 6984
1, 179870, Pitch_bend_c, 2, 6984
1, 179870, Pitch_bend_c, 3, 6984
1, 179880, Note_on_c, 9, 82, 0
1, 179880, Note_on_c, 9, 42, 0
1, 179880, Note_on_c, 9, 82, 39
1, 179880, Note_on_c, 10, 23, 59
1, 179885, Pitch_bend_c, 0, 7175
1, 179885, Pitch_bend_c, 1, 7175
1, 179885, Pitch_bend_c, 2, 7175
1, 179885, Pitch_bend_c, 3, 7175
1, 179900, Pitch_bend_c, 0, 7319
1, 179900, Pitch_bend_c, 1, 7319
1, 179900, Pitch_bend_c, 2, 7319
1, 179900, Pitch_bend_c, 3, 7319
1, 179920, Pitch_bend_c, 0, 7612
1, 179920, Pitch_bend_c, 1, 7612
1, 179920, Pitch_bend_c, 2, 7612
1, 179920, Pitch_bend_c, 3, 7612
1, 179935, Pitch_bend_c, 0, 7756
1, 179935, Pitch_bend_c, 1, 7756
1, 179935, Pitch_bend_c, 2, 7756
1, 179935, Pitch_bend_c, 3, 7756
1, 179940, Note_on_c, 10, 23, 0
1, 179950, Pitch_bend_c, 0, 7899
1, 179950, Pitch_bend_c, 1, 7899
1, 179950, Pitch_bend_c, 2, 7899
1, 179950, Pitch_bend_c, 3, 7899
1, 179965, Pitch_bend_c, 0, 8049
1, 179965, Pitch_bend_c, 1, 8049
1, 179965, Pitch_bend_c, 2, 8049
1, 179965, Pitch_bend_c, 3, 8049
1, 179980, Pitch_bend_c, 0, 8192
1, 179980, Pitch_bend_c, 1, 8192
1, 179980, Pitch_bend_c, 2, 8192
1, 179980, Pitch_bend_c, 3, 8192
1, 180000, Note_on_c, 2, 83, 0
1, 180000, Note_on_c, 3, 83, 0
1, 180000, Note_on_c, 1, 83, 0
1, 180000, Note_on_c, 1, 35, 0
1, 180000, Note_on_c, 0, 47, 0
1, 180000, Note_on_c, 2, 95, 0
1, 180000, Note_on_c, 1, 71, 0
1, 180000, Note_on_c, 3, 47, 0
1, 180000, Note_on_c, 2, 71, 0
1, 180000, Note_on_c, 9, 82, 0
1, 180000, Note_on_c, 2, 59, 0
1, 180000, Note_on_c, 0, 47, 95
1, 180000, Note_on_c, 1, 71, 95
1, 180000, Note_on_c, 1, 83, 64
1, 180000, Note_on_c, 1, 35, 95
1, 180000, Note_on_c, 2, 95, 64
1, 180000, Note_on_c, 2, 83, 64
1, 180000, Note_on_c, 2, 71, 127
1, 180000, Note_on_c, 2, 59, 95
1, 180000, Note_on_c, 3, 83, 64
1, 180000, Note_on_c, 3, 47, 64
1, 180000, Note_on_c, 9, 42, 73
1, 180000, Note_on_c, 9, 40, 90
1, 180000, Note_on_c, 9, 35, 103
1, 180000, Note_on_c, 9, 28, 103
1, 180000, Note_on_c, 9, 82, 40
1, 180000, Note_on_c, 10, 23, 58
1, 180060, Note_on_c, 10, 23, 0
1, 180120, Note_on_c, 9, 82, 0
1, 180120, Note_on_c, 9, 40, 0
1, 180120, Note_on_c, 9, 28, 0
1, 180120, Note_on_c, 9, 42, 0
1, 180120, Note_on_c, 9, 35, 0
1, 180120, Note_on_c, 9, 82, 25
1, 180120, Note_on_c, 10, 23, 72
1, 180180, Note_on_c, 10, 23, 0
1, 180240, Note_on_c, 2, 95, 0
1, 180240, Note_on_c, 3, 83, 0
1, 180240, Note_on_c, 1, 83, 0
1, 180240, Note_on_c, 1, 35, 0
1, 180240, Note_on_c, 2, 71, 0
1, 180240, Note_on_c, 2, 83, 0
1, 180240, Note_on_c, 1, 71, 0
1, 180240, Note_on_c, 0, 47, 0
1, 180240, Note_on_c, 3, 47, 0
1, 180240, Note_on_c, 9, 82, 0
1, 180240, Note_on_c, 2, 59, 0
1, 180240, Note_on_c, 0, 47, 95
1, 180240, Note_on_c, 1, 71, 95
1, 180240, Note_on_c, 1, 83, 64
1, 180240, Note_on_c, 1, 35, 95
1, 180240, Note_on_c, 2, 95, 64
1, 180240, Note_on_c, 2, 83, 64
1, 180240, Note_on_c, 2, 71, 127
1, 180240, Note_on_c, 2, 59, 95
1, 180240, Note_on_c, 3, 83, 64
1, 180240, Note_on_c, 3, 47, 64
1, 180240, Note_on_c, 9, 42, 73
1, 180240, Note_on_c, 9, 82, 11
1, 180240, Note_on_c, 10, 23, 91
1, 180270, Pitch_bend_c, 0, 8335
1, 180270, Pitch_bend_c, 1, 8335
1, 180270, Pitch_bend_c, 2, 8335
1, 180270, Pitch_bend_c, 3, 8335
1, 180300, Note_on_c, 10, 23, 0
1, 180320, Pitch_bend_c, 0, 8485
1, 180320, Pitch_bend_c, 1, 8485
1, 180320, Pitch_bend_c, 2, 8485
1, 180320, Pitch_bend_c, 3, 8485
1, 180335, Pitch_bend_c, 0, 8628
1, 180335, Pitch_bend_c, 1, 8628
1, 180335, Pitch_bend_c, 2, 8628
1, 180335, Pitch_bend_c, 3, 8628
1, 180350, Pitch_bend_c, 0, 8772
1, 180350, Pitch_bend_c, 1, 8772
1, 180350, Pitch_bend_c, 2, 8772
1, 180350, Pitch_bend_c, 3, 8772
1, 180360, Note_on_c, 9, 82, 0
1, 180360, Note_on_c, 9, 42, 0
1, 180360, Note_on_c, 9, 82, 11
1, 180360, Note_on_c, 10, 23, 127
1, 180365, Pitch_bend_c, 0, 9065
1, 180365, Pitch_bend_c, 1, 9065
1, 180365, Pitch_bend_c, 2, 9065
1, 180365, Pitch_bend_c, 3, 9065
1, 180380, Pitch_bend_c, 0, 9400
1, 180380, Pitch_bend_c, 1, 9400
1, 180380, Pitch_bend_c, 2, 9400
1, 180380, Pitch_bend_c, 3, 9400
1, 180400, Pitch_bend_c, 0, 9543
1, 180400, Pitch_bend_c, 1, 9543
1, 180400, Pitch_bend_c, 2, 9543
1, 180400, Pitch_bend_c, 3, 9543
1, 180415, Pitch_bend_c, 0, 9830
1, 180415, Pitch_bend_c, 1, 9830
1, 180415, Pitch_bend_c, 2, 9830
1, 180415, Pitch_bend_c, 3, 9830
1, 180430, Pitch_bend_c, 0, 10110
1, 180430, Pitch_bend_c, 1, 10110
1, 180430, Pitch_bend_c, 2, 10110
1, 180430, Pitch_bend_c, 3, 10110
1, 180445, Pitch_bend_c, 0, 10253
1, 180445, Pitch_bend_c, 1, 10253
1, 180445, Pitch_bend_c, 2, 10253
1, 180445, Pitch_bend_c, 3, 10253
1, 180460, Pitch_bend_c, 0, 10397
1, 180460, Pitch_bend_c, 1, 10397
1, 180460, Pitch_bend_c, 2, 10397
1, 180460, Pitch_bend_c, 3, 10397
1, 180480, Note_on_c, 9, 82, 0
1, 180480, Note_on_c, 2, 59, 0
1, 180480, Note_on_c, 3, 83, 0
1, 180480, Note_on_c, 1, 83, 0
1, 180480, Note_on_c, 1, 35, 0
1, 180480, Note_on_c, 2, 71, 0
1, 180480, Note_on_c, 2, 95, 0
1, 180480, Note_on_c, 2, 83, 0
1, 180480, Note_on_c, 3, 47, 0
1, 180480, Note_on_c, 0, 47, 0
1, 180480, Note_on_c, 1, 71, 0
1, 180480, Note_on_c, 4, 67, 101
1, 180480, Note_on_c, 4, 79, 101
1, 180480, Note_on_c, 4, 71, 101
1, 180480, Note_on_c, 4, 83, 101
1, 180480, Note_on_c, 6, 71, 101
1, 180480, Note_on_c, 6, 55, 101
1, 180480, Note_on_c, 6, 67, 101
1, 180480, Note_on_c, 6, 59, 101
1, 180480, Note_on_c, 9, 42, 103
1, 180480, Note_on_c, 9, 35, 103
1, 180480, Control_c, 13, 7, 0
1, 180480, Pitch_bend_c, 13, 8192
1, 180480, Note_on_c, 13, 75, 63
1, 180480, Note_on_c, 13, 74, 63
1, 180480, Note_on_c, 13, 73, 63
1, 180480, Note_on_c, 13, 72, 63
1, 180480, Note_on_c, 13, 60, 63
1, 180480, Note_on_c, 13, 71, 63
1, 180480, Note_on_c, 13, 70, 63
1, 180480, Note_on_c, 13, 69, 63
1, 180480, Note_on_c, 13, 68, 63
1, 180480, Note_on_c, 13, 67, 63
1, 180480, Note_on_c, 13, 66, 63
1, 180480, Note_on_c, 13, 65, 63
1, 180480, Note_on_c, 13, 64, 63
1, 180480, Note_on_c, 13, 62, 63
1, 180480, Note_on_c, 13, 63, 63
1, 180480, Note_on_c, 13, 61, 63
1, 180600, Note_on_c, 9, 35, 0
1, 180600, Note_on_c, 9, 42, 0
1, 180600, Note_on_c, 10, 23, 0
1, 180720, Note_on_c, 6, 67, 0
1, 180720, Note_on_c, 4, 67, 0
1, 180720, Note_on_c, 4, 83, 0
1, 180720, Note_on_c, 4, 71, 0
1, 180720, Note_on_c, 6, 59, 0
1, 180720, Note_on_c, 6, 55, 0
1, 180720, Note_on_c, 4, 79, 0
1, 180720, Note_on_c, 6, 71, 0
1, 180720, Note_on_c, 9, 42, 73
1, 180840, Note_on_c, 9, 42, 0
1, 180840, Note_on_c, 4, 67, 101
1, 180840, Note_on_c, 4, 79, 101
1, 180840, Note_on_c, 4, 71, 101
1, 180840, Note_on_c, 4, 83, 101
1, 180840, Note_on_c, 6, 71, 101
1, 180840, Note_on_c, 6, 59, 101
1, 180840, Note_on_c, 6, 67, 101
1, 180840, Note_on_c, 6, 55, 101
1, 180960, Note_on_c, 9, 42, 73
1, 180960, Note_on_c, 9, 35, 102
1, 180960, Note_on_c, 9, 40, 89
1, 180960, Note_on_c, 9, 28, 103
1, 181080, Note_on_c, 9, 28, 0
1, 181080, Note_on_c, 6, 59, 0
1, 181080, Note_on_c, 6, 67, 0
1, 181080, Note_on_c, 4, 67, 0
1, 181080, Note_on_c, 6, 71, 0
1, 181080, Note_on_c, 4, 79, 0
1, 181080, Note_on_c, 4, 83, 0
1, 181080, Note_on_c, 4, 71, 0
1, 181080, Note_on_c, 9, 40, 0
1, 181080, Note_on_c, 9, 42, 0
1, 181080, Note_on_c, 6, 55, 0
1, 181080, Note_on_c, 9, 35, 0
1, 181200, Note_on_c, 4, 83, 101
1, 181200, Note_on_c, 4, 71, 101
1, 181200, Note_on_c, 4, 79, 101
1, 181200, Note_on_c, 4, 67, 101
1, 181200, Note_on_c, 6, 71, 101
1, 181200, Note_on_c, 6, 59, 101
1, 181200, Note_on_c, 6, 67, 101
1, 181200, Note_on_c, 6, 55, 101
1, 181440, Note_on_c, 6, 55, 0
1, 181440, Note_on_c, 6, 59, 0
1, 181440, Note_on_c, 4, 79, 0
1, 181440, Note_on_c, 4, 83, 0
1, 181440, Note_on_c, 6, 71, 0
1, 181440, Note_on_c, 4, 71, 0
1, 181440, Note_on_c, 4, 67, 0
1, 181440, Note_on_c, 6, 67, 0
1, 181440, Note_on_c, 4, 69, 101
1, 181440, Note_on_c, 4, 81, 101
1, 181440, Note_on_c, 4, 73, 101
1, 181440, Note_on_c, 4, 85, 101
1, 181440, Note_on_c, 6, 73, 101
1, 181440, Note_on_c, 6, 61, 101
1, 181440, Note_on_c, 6, 69, 101
1, 181440, Note_on_c, 6, 57, 101
1, 181440, Note_on_c, 8, 52, 127
1, 181440, Note_on_c, 9, 41, 127
1, 181440, Note_on_c, 12, 60, 103
1, 181560, Note_on_c, 9, 41, 0
1, 181680, Note_on_c, 6, 61, 0
1, 181680, Note_on_c, 4, 69, 0
1, 181680, Note_on_c, 6, 73, 0
1, 181680, Note_on_c, 4, 81, 0
1, 181680, Note_on_c, 4, 85, 0
1, 181680, Note_on_c, 4, 73, 0
1, 181680, Note_on_c, 6, 57, 0
1, 181680, Note_on_c, 6, 69, 0
1, 181800, Note_on_c, 4, 85, 101
1, 181800, Note_on_c, 4, 73, 101
1, 181800, Note_on_c, 4, 81, 101
1, 181800, Note_on_c, 4, 69, 101
1, 181800, Note_on_c, 6, 73, 101
1, 181800, Note_on_c, 6, 61, 101
1, 181800, Note_on_c, 6, 69, 101
1, 181800, Note_on_c, 6, 57, 101
1, 181800, Note_on_c, 9, 44, 80
1, 181800, Note_on_c, 9, 38, 80
1, 181920, Note_on_c, 9, 38, 0
1, 181920, Note_on_c, 9, 44, 0
1, 181920, Note_on_c, 9, 38, 80
1, 182040, Note_on_c, 9, 38, 0
1, 182040, Note_on_c, 6, 73, 0
1, 182040, Note_on_c, 4, 81, 0
1, 182040, Note_on_c, 4, 73, 0
1, 182040, Note_on_c, 4, 85, 0
1, 182040, Note_on_c, 4, 69, 0
1, 182040, Note_on_c, 6, 69, 0
1, 182040, Note_on_c, 6, 61, 0
1, 182040, Note_on_c, 6, 57, 0
1, 182160, Note_on_c, 8, 52, 0
1, 182160, Note_on_c, 4, 69, 101
1, 182160, Note_on_c, 4, 81, 101
1, 182160, Note_on_c, 4, 73, 101
1, 182160, Note_on_c, 4, 85, 101
1, 182160, Note_on_c, 6, 73, 101
1, 182160, Note_on_c, 6, 61, 101
1, 182160, Note_on_c, 6, 69, 101
1, 182160, Note_on_c, 6, 57, 101
1, 182160, Note_on_c, 8, 56, 127
1, 182160, Note_on_c, 9, 43, 127
1, 182280, Note_on_c, 9, 43, 0
1, 182400, Note_on_c, 6, 61, 0
1, 182400, Note_on_c, 6, 73, 0
1, 182400, Note_on_c, 4, 85, 0
1, 182400, Note_on_c, 4, 69, 0
1, 182400, Note_on_c, 4, 73, 0
1, 182400, Note_on_c, 4, 81, 0
1, 182400, Note_on_c, 8, 56, 0
1, 182400, Note_on_c, 6, 57, 0
1, 182400, Note_on_c, 6, 69, 0
1, 182400, Pitch_bend_c, 0, 8192
1, 182400, Note_on_c, 0, 35, 95
1, 182400, Pitch_bend_c, 1, 8192
1, 182400, Note_on_c, 1, 59, 95
1, 182400, Note_on_c, 1, 71, 64
1, 182400, Note_on_c, 1, 23, 95
1, 182400, Pitch_bend_c, 2, 8192
1, 182400, Note_on_c, 2, 83, 94
1, 182400, Note_on_c, 2, 71, 64
1, 182400, Note_on_c, 2, 59, 127
1, 182400, Note_on_c, 2, 47, 95
1, 182400, Pitch_bend_c, 3, 8192
1, 182400, Note_on_c, 3, 71, 64
1, 182400, Note_on_c, 3, 35, 64
1, 182400, Note_on_c, 9, 57, 103
1, 182400, Note_on_c, 9, 52, 127
1, 182400, Note_on_c, 9, 49, 103
1, 182400, Note_on_c, 9, 42, 103
1, 182400, Note_on_c, 9, 35, 103
1, 182400, Note_on_c, 9, 82, 18
1, 182400, Note_on_c, 10, 23, 127
1, 182400, Control_c, 13, 7, 127
1, 182460, Control_c, 13, 7, 127
1, 182520, Note_on_c, 9, 82, 0
1, 182520, Note_on_c, 9, 35, 0
1, 182520, Note_on_c, 9, 42, 0
1, 182520, Note_on_c, 12, 60, 0
1, 182520, Note_on_c, 9, 82, 18
1, 182520, Control_c, 13, 7, 125
1, 182580, Note_on_c, 10, 23, 0
1, 182580, Control_c, 13, 7, 124
1, 182640, Note_on_c, 9, 82, 0
1, 182640, Note_on_c, 9, 42, 73
1, 182640, Note_on_c, 9, 82, 31
1, 182640, Note_on_c, 10, 23, 93
1, 182640, Control_c, 13, 7, 121
1, 182700, Note_on_c, 10, 23, 0
1, 182700, Control_c, 13, 7, 119
1, 182760, Note_on_c, 9, 82, 0
1, 182760, Note_on_c, 3, 71, 0
1, 182760, Note_on_c, 3, 35, 0
1, 182760, Note_on_c, 2, 71, 0
1, 182760, Note_on_c, 2, 83, 0
1, 182760, Note_on_c, 1, 59, 0
1, 182760, Note_on_c, 1, 23, 0
1, 182760, Note_on_c, 1, 71, 0
1, 182760, Note_on_c, 9, 42, 0
1, 182760, Note_on_c, 2, 59, 0
1, 182760, Note_on_c, 0, 35, 0
1, 182760, Note_on_c, 2, 47, 0
1, 182760, Pitch_bend_c, 0, 0
1, 182760, Note_on_c, 0, 47, 95
1, 182760, Pitch_bend_c, 1, 0
1, 182760, Note_on_c, 1, 71, 95
1, 182760, Note_on_c, 1, 83, 64
1, 182760, Note_on_c, 1, 35, 95
1, 182760, Pitch_bend_c, 2, 0
1, 182760, Note_on_c, 2, 95, 64
1, 182760, Note_on_c, 2, 83, 64
1, 182760, Note_on_c, 2, 71, 127
1, 182760, Note_on_c, 2, 59, 95
1, 182760, Pitch_bend_c, 3, 0
1, 182760, Note_on_c, 3, 83, 64
1, 182760, Note_on_c, 3, 47, 64
1, 182760, Note_on_c, 9, 82, 39
1, 182760, Note_on_c, 10, 23, 75
1, 182760, Control_c, 13, 7, 117
1, 182775, Pitch_bend_c, 0, 8192
1, 182775, Pitch_bend_c, 1, 8192
1, 182775, Pitch_bend_c, 2, 8192
1, 182775, Pitch_bend_c, 3, 8192
1, 182820, Note_on_c, 10, 23, 0
1, 182820, Control_c, 13, 7, 114
1, 182880, Note_on_c, 2, 59, 0
1, 182880, Note_on_c, 1, 83, 0
1, 182880, Note_on_c, 1, 71, 0
1, 182880, Note_on_c, 0, 47, 0
1, 182880, Note_on_c, 1, 35, 0
1, 182880, Note_on_c, 9, 82, 0
1, 182880, Note_on_c, 2, 83, 0
1, 182880, Note_on_c, 2, 95, 0
1, 182880, Note_on_c, 3, 47, 0
1, 182880, Note_on_c, 2, 71, 0
1, 182880, Note_on_c, 3, 83, 0
1, 182880, Note_on_c, 9, 42, 73
1, 182880, Note_on_c, 9, 35, 102
1, 182880, Note_on_c, 9, 40, 89
1, 182880, Note_on_c, 9, 28, 103
1, 182880, Note_on_c, 9, 82, 40
1, 182880, Note_on_c, 10, 23, 68
1, 182880, Control_c, 13, 7, 112
1, 182940, Note_on_c, 10, 23, 0
1, 182940, Control_c, 13, 7, 110
1, 183000, Note_on_c, 9, 40, 0
1, 183000, Note_on_c, 9, 35, 0
1, 183000, Note_on_c, 9, 42, 0
1, 183000, Note_on_c, 9, 82, 0
1, 183000, Note_on_c, 9, 28, 0
1, 183000, Note_on_c, 9, 82, 25
1, 183000, Note_on_c, 10, 23, 75
1, 183000, Control_c, 13, 7, 108
1, 183060, Note_on_c, 10, 23, 0
1, 183060, Control_c, 13, 7, 106
1, 183120, Note_on_c, 9, 82, 0
1, 183120, Note_on_c, 0, 47, 95
1, 183120, Note_on_c, 1, 71, 95
1, 183120, Note_on_c, 1, 83, 64
1, 183120, Note_on_c, 1, 35, 95
1, 183120, Note_on_c, 2, 95, 64
1, 183120, Note_on_c, 2, 83, 64
1, 183120, Note_on_c, 2, 71, 127
1, 183120, Note_on_c, 2, 59, 95
1, 183120, Note_on_c, 3, 83, 64
1, 183120, Note_on_c, 3, 47, 64
1, 183120, Note_on_c, 9, 42, 73
1, 183120, Note_on_c, 9, 82, 11
1, 183120, Note_on_c, 10, 23, 99
1, 183120, Control_c, 13, 7, 105
1, 183180, Note_on_c, 10, 23, 0
1, 183180, Control_c, 13, 7, 103
1, 183240, Note_on_c, 9, 82, 0
1, 183240, Note_on_c, 9, 42, 0
1, 183240, Note_on_c, 9, 82, 11
1, 183240, Note_on_c, 10, 23, 127
1, 183240, Control_c, 13, 7, 101
1, 183300, Control_c, 13, 7, 99
1, 183360, Note_on_c, 9, 82, 0
1, 183360, Note_on_c, 1, 71, 0
1, 183360, Note_on_c, 3, 83, 0
1, 183360, Note_on_c, 0, 47, 0
1, 183360, Note_on_c, 1, 83, 0
1, 183360, Note_on_c, 2, 83, 0
1, 183360, Note_on_c, 2, 95, 0
1, 183360, Note_on_c, 1, 35, 0
1, 183360, Note_on_c, 2, 59, 0
1, 183360, Note_on_c, 2, 71, 0
1, 183360, Note_on_c, 3, 47, 0
1, 183360, Note_on_c, 9, 42, 88
1, 183360, Note_on_c, 9, 35, 102
1, 183360, Note_on_c, 9, 82, 18
1, 183360, Control_c, 13, 7, 96
1, 183420, Note_on_c, 10, 23, 0
1, 183420, Control_c, 13, 7, 95
1, 183480, Note_on_c, 9, 82, 0
1, 183480, Note_on_c, 9, 35, 0
1, 183480, Note_on_c, 9, 42, 0
1, 183480, Note_on_c, 0, 43, 95
1, 183480, Note_on_c, 1, 67, 95
1, 183480, Note_on_c, 1, 79, 64
1, 183480, Note_on_c, 1, 31, 95
1, 183480, Note_on_c, 2, 91, 64
1, 183480, Note_on_c, 2, 79, 64
1, 183480, Note_on_c, 2, 67, 127
1, 183480, Note_on_c, 2, 55, 95
1, 183480, Note_on_c, 3, 79, 64
1, 183480, Note_on_c, 3, 43, 64
1, 183480, Note_on_c, 9, 82, 18
1, 183480, Note_on_c, 10, 23, 93
1, 183480, Control_c, 13, 7, 92
1, 183540, Note_on_c, 10, 23, 0
1, 183540, Control_c, 13, 7, 91
1, 183600, Note_on_c, 2, 55, 0
1, 183600, Note_on_c, 1, 79, 0
1, 183600, Note_on_c, 1, 67, 0
1, 183600, Note_on_c, 0, 43, 0
1, 183600, Note_on_c, 1, 31, 0
1, 183600, Note_on_c, 9, 82, 0
1, 183600, Note_on_c, 2, 79, 0
1, 183600, Note_on_c, 2, 91, 0
1, 183600, Note_on_c, 3, 43, 0
1, 183600, Note_on_c, 2, 67, 0
1, 183600, Note_on_c, 3, 79, 0
1, 183600, Pitch_bend_c, 0, 5100
1, 183600, Note_on_c, 0, 47, 95
1, 183600, Pitch_bend_c, 1, 5100
1, 183600, Note_on_c, 1, 71, 95
1, 183600, Note_on_c, 1, 83, 64
1, 183600, Note_on_c, 1, 35, 95
1, 183600, Pitch_bend_c, 2, 5100
1, 183600, Note_on_c, 2, 95, 64
1, 183600, Note_on_c, 2, 83, 64
1, 183600, Note_on_c, 2, 71, 127
1, 183600, Note_on_c, 2, 59, 95
1, 183600, Pitch_bend_c, 3, 5100
1, 183600, Note_on_c, 3, 83, 64
1, 183600, Note_on_c, 3, 47, 64
1, 183600, Note_on_c, 9, 42, 73
1, 183600, Note_on_c, 9, 82, 31
1, 183600, Note_on_c, 10, 23, 75
1, 183600, Control_c, 13, 7, 90
1, 183615, Pitch_bend_c, 0, 6697
1, 183615, Pitch_bend_c, 1, 6697
1, 183615, Pitch_bend_c, 2, 6697
1, 183615, Pitch_bend_c, 3, 6697
1, 183660, Note_on_c, 10, 23, 0
1, 183660, Control_c, 13, 7, 88
1, 183680, Pitch_bend_c, 0, 6841
1, 183680, Pitch_bend_c, 1, 6841
1, 183680, Pitch_bend_c, 2, 6841
1, 183680, Pitch_bend_c, 3, 6841
1, 183710, Pitch_bend_c, 0, 6984
1, 183710, Pitch_bend_c, 1, 6984
1, 183710, Pitch_bend_c, 2, 6984
1, 183710, Pitch_bend_c, 3, 6984
1, 183720, Note_on_c, 9, 82, 0
1, 183720, Note_on_c, 9, 42, 0
1, 183720, Note_on_c, 9, 82, 39
1, 183720, Note_on_c, 10, 23, 59
1, 183720, Control_c, 13, 7, 86
1, 183725, Pitch_bend_c, 0, 7175
1, 183725, Pitch_bend_c, 1, 7175
1, 183725, Pitch_bend_c, 2, 7175
1, 183725, Pitch_bend_c, 3, 7175
1, 183740, Pitch_bend_c, 0, 7319
1, 183740, Pitch_bend_c, 1, 7319
1, 183740, Pitch_bend_c, 2, 7319
1, 183740, Pitch_bend_c, 3, 7319
1, 183760, Pitch_bend_c, 0, 7612
1, 183760, Pitch_bend_c, 1, 7612
1, 183760, Pitch_bend_c, 2, 7612
1, 183760, Pitch_bend_c, 3, 7612
1, 183775, Pitch_bend_c, 0, 7756
1, 183775, Pitch_bend_c, 1, 7756
1, 183775, Pitch_bend_c, 2, 7756
1, 183775, Pitch_bend_c, 3, 7756
1, 183780, Note_on_c, 10, 23, 0
1, 183780, Control_c, 13, 7, 83
1, 183790, Pitch_bend_c, 0, 7899
1, 183790, Pitch_bend_c, 1, 7899
1, 183790, Pitch_bend_c, 2, 7899
1, 183790, Pitch_bend_c, 3, 7899
1, 183805, Pitch_bend_c, 0, 8049
1, 183805, Pitch_bend_c, 1, 8049
1, 183805, Pitch_bend_c, 2, 8049
1, 183805, Pitch_bend_c, 3, 8049
1, 183820, Pitch_bend_c, 0, 8192
1, 183820, Pitch_bend_c, 1, 8192
1, 183820, Pitch_bend_c, 2, 8192
1, 183820, Pitch_bend_c, 3, 8192
1, 183840, Note_on_c, 3, 47, 0
1, 183840, Note_on_c, 3, 83, 0
1, 183840, Note_on_c, 1, 71, 0
1, 183840, Note_on_c, 0, 47, 0
1, 183840, Note_on_c, 1, 35, 0
1, 183840, Note_on_c, 9, 82, 0
1, 183840, Note_on_c, 2, 83, 0
1, 183840, Note_on_c, 2, 95, 0
1, 183840, Note_on_c, 1, 83, 0
1, 183840, Note_on_c, 2, 71, 0
1, 183840, Note_on_c, 2, 59, 0
1, 183840, Note_on_c, 0, 47, 95
1, 183840, Note_on_c, 1, 71, 95
1, 183840, Note_on_c, 1, 83, 64
1, 183840, Note_on_c, 1, 35, 95
1, 183840, Note_on_c, 2, 95, 64
1, 183840, Note_on_c, 2, 83, 64
1, 183840, Note_on_c, 2, 71, 127
1, 183840, Note_on_c, 2, 59, 95
1, 183840, Note_on_c, 3, 83, 64
1, 183840, Note_on_c, 3, 47, 64
1, 183840, Note_on_c, 9, 42, 73
1, 183840, Note_on_c, 9, 40, 90
1, 183840, Note_on_c, 9, 35, 103
1, 183840, Note_on_c, 9, 28, 103
1, 183840, Note_on_c, 9, 82, 40
1, 183840, Note_on_c, 10, 23, 58
1, 183840, Control_c, 13, 7, 82
1, 183900, Note_on_c, 10, 23, 0
1, 183900, Control_c, 13, 7, 80
1, 183960, Note_on_c, 9, 82, 0
1, 183960, Note_on_c, 9, 28, 0
1, 183960, Note_on_c, 9, 35, 0
1, 183960, Note_on_c, 9, 40, 0
1, 183960, Note_on_c, 9, 42, 0
1, 183960, Note_on_c, 9, 82, 25
1, 183960, Note_on_c, 10, 23, 72
1, 183960, Control_c, 13, 7, 77
1, 184020, Note_on_c, 10, 23, 0
1, 184020, Control_c, 13, 7, 76
1, 184080, Note_on_c, 3, 47, 0
1, 184080, Note_on_c, 3, 83, 0
1, 184080, Note_on_c, 1, 71, 0
1, 184080, Note_on_c, 0, 47, 0
1, 184080, Note_on_c, 1, 35, 0
1, 184080, Note_on_c, 9, 82, 0
1, 184080, Note_on_c, 2, 83, 0
1, 184080, Note_on_c, 2, 95, 0
1, 184080, Note_on_c, 1, 83, 0
1, 184080, Note_on_c, 2, 71, 0
1, 184080, Note_on_c, 2, 59, 0
1, 184080, Note_on_c, 0, 47, 95
1, 184080, Note_on_c, 1, 71, 95
1, 184080, Note_on_c, 1, 83, 64
1, 184080, Note_on_c, 1, 35, 95
1, 184080, Note_on_c, 2, 95, 64
1, 184080, Note_on_c, 2, 83, 64
1, 184080, Note_on_c, 2, 71, 127
1, 184080, Note_on_c, 2, 59, 95
1, 184080, Note_on_c, 3, 83, 64
1, 184080, Note_on_c, 3, 47, 64
1, 184080, Note_on_c, 9, 42, 73
1, 184080, Note_on_c, 9, 82, 11
1, 184080, Note_on_c, 10, 23, 91
1, 184080, Control_c, 13, 7, 74
1, 184110, Pitch_bend_c, 0, 8335
1, 184110, Pitch_bend_c, 1, 8335
1, 184110, Pitch_bend_c, 2, 8335
1, 184110, Pitch_bend_c, 3, 8335
1, 184140, Note_on_c, 10, 23, 0
1, 184140, Control_c, 13, 7, 71
1, 184160, Pitch_bend_c, 0, 8485
1, 184160, Pitch_bend_c, 1, 8485
1, 184160, Pitch_bend_c, 2, 8485
1, 184160, Pitch_bend_c, 3, 8485
1, 184175, Pitch_bend_c, 0, 8628
1, 184175, Pitch_bend_c, 1, 8628
1, 184175, Pitch_bend_c, 2, 8628
1, 184175, Pitch_bend_c, 3, 8628
1, 184190, Pitch_bend_c, 0, 8772
1, 184190, Pitch_bend_c, 1, 8772
1, 184190, Pitch_bend_c, 2, 8772
1, 184190, Pitch_bend_c, 3, 8772
1, 184200, Note_on_c, 9, 82, 0
1, 184200, Note_on_c, 9, 42, 0
1, 184200, Note_on_c, 9, 82, 11
1, 184200, Note_on_c, 10, 23, 127
1, 184200, Control_c, 13, 7, 69
1, 184205, Pitch_bend_c, 0, 9065
1, 184205, Pitch_bend_c, 1, 9065
1, 184205, Pitch_bend_c, 2, 9065
1, 184205, Pitch_bend_c, 3, 9065
1, 184220, Pitch_bend_c, 0, 9400
1, 184220, Pitch_bend_c, 1, 9400
1, 184220, Pitch_bend_c, 2, 9400
1, 184220, Pitch_bend_c, 3, 9400
1, 184240, Pitch_bend_c, 0, 9543
1, 184240, Pitch_bend_c, 1, 9543
1, 184240, Pitch_bend_c, 2, 9543
1, 184240, Pitch_bend_c, 3, 9543
1, 184255, Pitch_bend_c, 0, 9830
1, 184255, Pitch_bend_c, 1, 9830
1, 184255, Pitch_bend_c, 2, 9830
1, 184255, Pitch_bend_c, 3, 9830
1, 184260, Control_c, 13, 7, 68
1, 184270, Pitch_bend_c, 0, 10110
1, 184270, Pitch_bend_c, 1, 10110
1, 184270, Pitch_bend_c, 2, 10110
1, 184270, Pitch_bend_c, 3, 10110
1, 184285, Pitch_bend_c, 0, 10253
1, 184285, Pitch_bend_c, 1, 10253
1, 184285, Pitch_bend_c, 2, 10253
1, 184285, Pitch_bend_c, 3, 10253
1, 184300, Pitch_bend_c, 0, 10397
1, 184300, Pitch_bend_c, 1, 10397
1, 184300, Pitch_bend_c, 2, 10397
1, 184300, Pitch_bend_c, 3, 10397
1, 184320, Note_on_c, 9, 82, 0
1, 184320, Note_on_c, 1, 71, 0
1, 184320, Note_on_c, 3, 83, 0
1, 184320, Note_on_c, 0, 47, 0
1, 184320, Note_on_c, 1, 83, 0
1, 184320, Note_on_c, 2, 83, 0
1, 184320, Note_on_c, 2, 95, 0
1, 184320, Note_on_c, 1, 35, 0
1, 184320, Note_on_c, 2, 59, 0
1, 184320, Note_on_c, 2, 71, 0
1, 184320, Note_on_c, 3, 47, 0
1, 184320, Pitch_bend_c, 0, 12165
1, 184320, Note_on_c, 0, 35, 95
1, 184320, Pitch_bend_c, 1, 12165
1, 184320, Note_on_c, 1, 59, 95
1, 184320, Note_on_c, 1, 71, 64
1, 184320, Note_on_c, 1, 23, 95
1, 184320, Pitch_bend_c, 2, 12165
1, 184320, Note_on_c, 2, 83, 64
1, 184320, Note_on_c, 2, 71, 64
1, 184320, Note_on_c, 2, 59, 127
1, 184320, Note_on_c, 2, 47, 95
1, 184320, Pitch_bend_c, 3, 12165
1, 184320, Note_on_c, 3, 71, 64
1, 184320, Note_on_c, 3, 35, 64
1, 184320, Note_on_c, 9, 82, 18
1, 184320, Note_on_c, 9, 42, 103
1, 184320, Note_on_c, 9, 35, 103
1, 184320, Control_c, 13, 7, 66
1, 184335, Pitch_bend_c, 0, 8192
1, 184335, Pitch_bend_c, 1, 8192
1, 184335, Pitch_bend_c, 2, 8192
1, 184335, Pitch_bend_c, 3, 8192
1, 184380, Control_c, 13, 7, 63
1, 184440, Note_on_c, 9, 35, 0
1, 184440, Note_on_c, 9, 42, 0
1, 184440, Note_on_c, 9, 82, 0
1, 184440, Note_on_c, 10, 23, 0
1, 184440, Note_on_c, 9, 82, 18
1, 184440, Note_on_c, 10, 23, 79
1, 184440, Control_c, 13, 7, 60
1, 184500, Note_on_c, 10, 23, 0
1, 184500, Control_c, 13, 7, 59
1, 184560, Note_on_c, 9, 82, 0
1, 184560, Note_on_c, 9, 82, 31
1, 184560, Note_on_c, 9, 42, 73
1, 184560, Note_on_c, 10, 23, 64
1, 184560, Control_c, 13, 7, 57
1, 184620, Note_on_c, 10, 23, 0
1, 184620, Control_c, 13, 7, 55
1, 184680, Note_on_c, 9, 42, 0
1, 184680, Note_on_c, 1, 71, 0
1, 184680, Note_on_c, 2, 47, 0
1, 184680, Note_on_c, 1, 59, 0
1, 184680, Note_on_c, 0, 35, 0
1, 184680, Note_on_c, 1, 23, 0
1, 184680, Note_on_c, 9, 82, 0
1, 184680, Note_on_c, 2, 71, 0
1, 184680, Note_on_c, 2, 83, 0
1, 184680, Note_on_c, 3, 71, 0
1, 184680, Note_on_c, 2, 59, 0
1, 184680, Note_on_c, 3, 35, 0
1, 184680, Pitch_bend_c, 0, 0
1, 184680, Note_on_c, 0, 47, 95
1, 184680, Pitch_bend_c, 1, 0
1, 184680, Note_on_c, 1, 71, 95
1, 184680, Note_on_c, 1, 83, 64
1, 184680, Note_on_c, 1, 35, 95
1, 184680, Pitch_bend_c, 2, 0
1, 184680, Note_on_c, 2, 95, 64
1, 184680, Note_on_c, 2, 83, 64
1, 184680, Note_on_c, 2, 71, 127
1, 184680, Note_on_c, 2, 59, 95
1, 184680, Pitch_bend_c, 3, 0
1, 184680, Note_on_c, 3, 83, 64
1, 184680, Note_on_c, 3, 47, 64
1, 184680, Note_on_c, 9, 82, 39
1, 184680, Note_on_c, 10, 23, 62
1, 184680, Control_c, 13, 7, 52
1, 184695, Pitch_bend_c, 0, 8192
1, 184695, Pitch_bend_c, 1, 8192
1, 184695, Pitch_bend_c, 2, 8192
1, 184695, Pitch_bend_c, 3, 8192
1, 184740, Note_on_c, 10, 23, 0
1, 184740, Control_c, 13, 7, 50
1, 184800, Note_on_c, 2, 59, 0
1, 184800, Note_on_c, 1, 83, 0
1, 184800, Note_on_c, 1, 71, 0
1, 184800, Note_on_c, 0, 47, 0
1, 184800, Note_on_c, 1, 35, 0
1, 184800, Note_on_c, 9, 82, 0
1, 184800, Note_on_c, 2, 83, 0
1, 184800, Note_on_c, 2, 95, 0
1, 184800, Note_on_c, 3, 47, 0
1, 184800, Note_on_c, 2, 71, 0
1, 184800, Note_on_c, 3, 83, 0
1, 184800, Note_on_c, 9, 82, 40
1, 184800, Note_on_c, 9, 42, 73
1, 184800, Note_on_c, 9, 40, 91
1, 184800, Note_on_c, 9, 35, 103
1, 184800, Note_on_c, 9, 28, 102
1, 184800, Note_on_c, 10, 23, 66
1, 184800, Control_c, 13, 7, 48
1, 184860, Note_on_c, 10, 23, 0
1, 184860, Control_c, 13, 7, 47
1, 184920, Note_on_c, 9, 40, 0
1, 184920, Note_on_c, 9, 42, 0
1, 184920, Note_on_c, 9, 82, 0
1, 184920, Note_on_c, 9, 28, 0
1, 184920, Note_on_c, 9, 35, 0
1, 184920, Note_on_c, 9, 82, 25
1, 184920, Note_on_c, 10, 23, 91
1, 184920, Control_c, 13, 7, 45
1, 184980, Note_on_c, 10, 23, 0
1, 184980, Control_c, 13, 7, 44
1, 185040, Note_on_c, 9, 82, 0
1, 185040, Note_on_c, 0, 47, 95
1, 185040, Note_on_c, 1, 71, 95
1, 185040, Note_on_c, 1, 83, 64
1, 185040, Note_on_c, 1, 35, 95
1, 185040, Note_on_c, 2, 95, 64
1, 185040, Note_on_c, 2, 83, 64
1, 185040, Note_on_c, 2, 71, 127
1, 185040, Note_on_c, 2, 59, 95
1, 185040, Note_on_c, 3, 83, 64
1, 185040, Note_on_c, 3, 47, 64
1, 185040, Note_on_c, 9, 82, 11
1, 185040, Note_on_c, 9, 42, 73
1, 185040, Note_on_c, 10, 23, 98
1, 185040, Control_c, 13, 7, 42
1, 185100, Note_on_c, 10, 23, 0
1, 185100, Control_c, 13, 7, 41
1, 185160, Note_on_c, 9, 42, 0
1, 185160, Note_on_c, 9, 82, 0
1, 185160, Note_on_c, 9, 82, 11
1, 185160, Note_on_c, 10, 23, 127
1, 185160, Control_c, 13, 7, 38
1, 185220, Control_c, 13, 7, 36
1, 185280, Note_on_c, 9, 82, 0
1, 185280, Note_on_c, 1, 71, 0
1, 185280, Note_on_c, 3, 83, 0
1, 185280, Note_on_c, 0, 47, 0
1, 185280, Note_on_c, 1, 83, 0
1, 185280, Note_on_c, 2, 83, 0
1, 185280, Note_on_c, 2, 95, 0
1, 185280, Note_on_c, 1, 35, 0
1, 185280, Note_on_c, 2, 59, 0
1, 185280, Note_on_c, 2, 71, 0
1, 185280, Note_on_c, 3, 47, 0
1, 185280, Note_on_c, 0, 47, 95
1, 185280, Note_on_c, 1, 71, 95
1, 185280, Note_on_c, 1, 83, 64
1, 185280, Note_on_c, 1, 35, 95
1, 185280, Note_on_c, 2, 95, 64
1, 185280, Note_on_c, 2, 83, 64
1, 185280, Note_on_c, 2, 71, 127
1, 185280, Note_on_c, 2, 59, 95
1, 185280, Note_on_c, 3, 83, 64
1, 185280, Note_on_c, 3, 47, 64
1, 185280, Note_on_c, 9, 82, 18
1, 185280, Note_on_c, 9, 42, 88
1, 185280, Note_on_c, 9, 35, 104
1, 185280, Control_c, 13, 7, 34
1, 185310, Pitch_bend_c, 0, 8049
1, 185310, Pitch_bend_c, 1, 8049
1, 185310, Pitch_bend_c, 2, 8049
1, 185310, Pitch_bend_c, 3, 8049
1, 185340, Note_on_c, 10, 23, 0
1, 185340, Pitch_bend_c, 0, 7899
1, 185340, Pitch_bend_c, 1, 7899
1, 185340, Pitch_bend_c, 2, 7899
1, 185340, Pitch_bend_c, 3, 7899
1, 185340, Control_c, 13, 7, 33
1, 185375, Pitch_bend_c, 0, 7756
1, 185375, Pitch_bend_c, 1, 7756
1, 185375, Pitch_bend_c, 2, 7756
1, 185375, Pitch_bend_c, 3, 7756
1, 185400, Note_on_c, 9, 35, 0
1, 185400, Note_on_c, 9, 42, 0
1, 185400, Note_on_c, 9, 82, 0
1, 185400, Note_on_c, 9, 82, 18
1, 185400, Note_on_c, 10, 23, 66
1, 185400, Control_c, 13, 7, 31
1, 185405, Pitch_bend_c, 0, 7612
1, 185405, Pitch_bend_c, 1, 7612
1, 185405, Pitch_bend_c, 2, 7612
1, 185405, Pitch_bend_c, 3, 7612
1, 185440, Pitch_bend_c, 0, 7469
1, 185440, Pitch_bend_c, 1, 7469
1, 185440, Pitch_bend_c, 2, 7469
1, 185440, Pitch_bend_c, 3, 7469
1, 185460, Note_on_c, 10, 23, 0
1, 185460, Note_on_c, 3, 83, 0
1, 185460, Note_on_c, 1, 71, 0
1, 185460, Note_on_c, 0, 47, 0
1, 185460, Note_on_c, 1, 83, 0
1, 185460, Note_on_c, 2, 83, 0
1, 185460, Note_on_c, 2, 95, 0
1, 185460, Note_on_c, 1, 35, 0
1, 185460, Note_on_c, 2, 59, 0
1, 185460, Note_on_c, 2, 71, 0
1, 185460, Note_on_c, 3, 47, 0
1, 185460, Control_c, 13, 7, 29
1, 185520, Note_on_c, 9, 82, 0
1, 185520, Note_on_c, 0, 47, 95
1, 185520, Note_on_c, 1, 71, 95
1, 185520, Note_on_c, 1, 83, 64
1, 185520, Note_on_c, 1, 35, 95
1, 185520, Note_on_c, 2, 95, 64
1, 185520, Note_on_c, 2, 83, 64
1, 185520, Note_on_c, 2, 71, 127
1, 185520, Note_on_c, 2, 59, 95
1, 185520, Note_on_c, 3, 83, 64
1, 185520, Note_on_c, 3, 47, 64
1, 185520, Note_on_c, 9, 82, 31
1, 185520, Note_on_c, 9, 42, 73
1, 185520, Note_on_c, 10, 23, 74
1, 185520, Control_c, 13, 7, 29
1, 185535, Pitch_bend_c, 0, 7319
1, 185535, Pitch_bend_c, 1, 7319
1, 185535, Pitch_bend_c, 2, 7319
1, 185535, Pitch_bend_c, 3, 7319
1, 185580, Note_on_c, 10, 23, 0
1, 185580, Pitch_bend_c, 0, 7175
1, 185580, Pitch_bend_c, 1, 7175
1, 185580, Pitch_bend_c, 2, 7175
1, 185580, Pitch_bend_c, 3, 7175
1, 185580, Control_c, 13, 7, 26
1, 185600, Pitch_bend_c, 0, 6984
1, 185600, Pitch_bend_c, 1, 6984
1, 185600, Pitch_bend_c, 2, 6984
1, 185600, Pitch_bend_c, 3, 6984
1, 185630, Pitch_bend_c, 0, 6841
1, 185630, Pitch_bend_c, 1, 6841
1, 185630, Pitch_bend_c, 2, 6841
1, 185630, Pitch_bend_c, 3, 6841
1, 185640, Note_on_c, 9, 42, 0
1, 185640, Note_on_c, 9, 82, 0
1, 185640, Note_on_c, 9, 82, 39
1, 185640, Note_on_c, 10, 23, 84
1, 185640, Control_c, 13, 7, 24
1, 185660, Pitch_bend_c, 0, 6697
1, 185660, Pitch_bend_c, 1, 6697
1, 185660, Pitch_bend_c, 2, 6697
1, 185660, Pitch_bend_c, 3, 6697
1, 185700, Note_on_c, 10, 23, 0
1, 185700, Control_c, 13, 7, 21
1, 185740, Pitch_bend_c, 0, 6554
1, 185740, Pitch_bend_c, 1, 6554
1, 185740, Pitch_bend_c, 2, 6554
1, 185740, Pitch_bend_c, 3, 6554
1, 185760, Note_on_c, 3, 47, 0
1, 185760, Note_on_c, 3, 83, 0
1, 185760, Note_on_c, 1, 71, 0
1, 185760, Note_on_c, 0, 47, 0
1, 185760, Note_on_c, 1, 35, 0
1, 185760, Note_on_c, 9, 82, 0
1, 185760, Note_on_c, 2, 83, 0
1, 185760, Note_on_c, 2, 95, 0
1, 185760, Note_on_c, 1, 83, 0
1, 185760, Note_on_c, 2, 71, 0
1, 185760, Note_on_c, 2, 59, 0
1, 185760, Note_on_c, 0, 47, 95
1, 185760, Note_on_c, 1, 71, 95
1, 185760, Note_on_c, 1, 83, 64
1, 185760, Note_on_c, 1, 35, 95
1, 185760, Note_on_c, 2, 95, 64
1, 185760, Note_on_c, 2, 83, 64
1, 185760, Note_on_c, 2, 71, 127
1, 185760, Note_on_c, 2, 59, 95
1, 185760, Note_on_c, 3, 83, 64
1, 185760, Note_on_c, 3, 47, 64
1, 185760, Note_on_c, 9, 82, 40
1, 185760, Note_on_c, 9, 42, 73
1, 185760, Note_on_c, 9, 40, 92
1, 185760, Note_on_c, 9, 35, 104
1, 185760, Note_on_c, 9, 28, 102
1, 185760, Note_on_c, 10, 35, 127
1, 185760, Control_c, 13, 7, 19
1, 185790, Pitch_bend_c, 0, 6418
1, 185790, Pitch_bend_c, 1, 6418
1, 185790, Pitch_bend_c, 2, 6418
1, 185790, Pitch_bend_c, 3, 6418
1, 185805, Pitch_bend_c, 0, 6274
1, 185805, Pitch_bend_c, 1, 6274
1, 185805, Pitch_bend_c, 2, 6274
1, 185805, Pitch_bend_c, 3, 6274
1, 185820, Pitch_bend_c, 0, 6131
1, 185820, Pitch_bend_c, 1, 6131
1, 185820, Pitch_bend_c, 2, 6131
1, 185820, Pitch_bend_c, 3, 6131
1, 185820, Control_c, 13, 7, 17
1, 185840, Pitch_bend_c, 0, 5987
1, 185840, Pitch_bend_c, 1, 5987
1, 185840, Pitch_bend_c, 2, 5987
1, 185840, Pitch_bend_c, 3, 5987
1, 185855, Pitch_bend_c, 0, 5803
1, 185855, Pitch_bend_c, 1, 5803
1, 185855, Pitch_bend_c, 2, 5803
1, 185855, Pitch_bend_c, 3, 5803
1, 185870, Pitch_bend_c, 0, 5660
1, 185870, Pitch_bend_c, 1, 5660
1, 185870, Pitch_bend_c, 2, 5660
1, 185870, Pitch_bend_c, 3, 5660
1, 185880, Note_on_c, 9, 28, 0
1, 185880, Note_on_c, 9, 35, 0
1, 185880, Note_on_c, 9, 40, 0
1, 185880, Note_on_c, 9, 42, 0
1, 185880, Note_on_c, 9, 82, 0
1, 185880, Note_on_c, 9, 82, 25
1, 185880, Control_c, 13, 7, 15
1, 185885, Pitch_bend_c, 0, 5516
1, 185885, Pitch_bend_c, 1, 5516
1, 185885, Pitch_bend_c, 2, 5516
1, 185885, Pitch_bend_c, 3, 5516
1, 185900, Pitch_bend_c, 0, 5380
1, 185900, Pitch_bend_c, 1, 5380
1, 185900, Pitch_bend_c, 2, 5380
1, 185900, Pitch_bend_c, 3, 5380
1, 185920, Pitch_bend_c, 0, 5237
1, 185920, Pitch_bend_c, 1, 5237
1, 185920, Pitch_bend_c, 2, 5237
1, 185920, Pitch_bend_c, 3, 5237
1, 185940, Note_on_c, 10, 35, 0
1, 185940, Control_c, 13, 7, 13
1, 185950, Pitch_bend_c, 0, 5100
1, 185950, Pitch_bend_c, 1, 5100
1, 185950, Pitch_bend_c, 2, 5100
1, 185950, Pitch_bend_c, 3, 5100
1, 186000, Note_on_c, 3, 83, 0
1, 186000, Note_on_c, 2, 59, 0
1, 186000, Note_on_c, 1, 83, 0
1, 186000, Note_on_c, 1, 71, 0
1, 186000, Note_on_c, 0, 47, 0
1, 186000, Note_on_c, 9, 82, 0
1, 186000, Note_on_c, 2, 95, 0
1, 186000, Note_on_c, 1, 35, 0
1, 186000, Note_on_c, 2, 83, 0
1, 186000, Note_on_c, 2, 71, 0
1, 186000, Note_on_c, 3, 47, 0
1, 186000, Note_on_c, 0, 47, 95
1, 186000, Note_on_c, 1, 71, 95
1, 186000, Note_on_c, 1, 83, 64
1, 186000, Note_on_c, 1, 35, 95
1, 186000, Note_on_c, 2, 95, 64
1, 186000, Note_on_c, 2, 83, 64
1, 186000, Note_on_c, 2, 71, 127
1, 186000, Note_on_c, 2, 59, 95
1, 186000, Note_on_c, 3, 83, 64
1, 186000, Note_on_c, 3, 47, 64
1, 186000, Note_on_c, 9, 82, 11
1, 186000, Note_on_c, 9, 42, 73
1, 186000, Note_on_c, 10, 23, 103
1, 186000, Control_c, 13, 7, 11
1, 186015, Pitch_bend_c, 0, 4963
1, 186015, Pitch_bend_c, 1, 4963
1, 186015, Pitch_bend_c, 2, 4963
1, 186015, Pitch_bend_c, 3, 4963
1, 186030, Pitch_bend_c, 0, 4636
1, 186030, Pitch_bend_c, 1, 4636
1, 186030, Pitch_bend_c, 2, 4636
1, 186030, Pitch_bend_c, 3, 4636
1, 186045, Pitch_bend_c, 0, 4499
1, 186045, Pitch_bend_c, 1, 4499
1, 186045, Pitch_bend_c, 2, 4499
1, 186045, Pitch_bend_c, 3, 4499
1, 186060, Note_on_c, 10, 23, 0
1, 186060, Pitch_bend_c, 0, 4083
1, 186060, Pitch_bend_c, 1, 4083
1, 186060, Pitch_bend_c, 2, 4083
1, 186060, Pitch_bend_c, 3, 4083
1, 186060, Control_c, 13, 7, 9
1, 186080, Pitch_bend_c, 0, 3810
1, 186080, Pitch_bend_c, 1, 3810
1, 186080, Pitch_bend_c, 2, 3810
1, 186080, Pitch_bend_c, 3, 3810
1, 186095, Pitch_bend_c, 0, 3359
1, 186095, Pitch_bend_c, 1, 3359
1, 186095, Pitch_bend_c, 2, 3359
1, 186095, Pitch_bend_c, 3, 3359
1, 186110, Pitch_bend_c, 0, 3086
1, 186110, Pitch_bend_c, 1, 3086
1, 186110, Pitch_bend_c, 2, 3086
1, 186110, Pitch_bend_c, 3, 3086
1, 186120, Note_on_c, 9, 42, 0
1, 186120, Note_on_c, 9, 82, 0
1, 186120, Note_on_c, 9, 82, 11
1, 186120, Note_on_c, 10, 35, 127
1, 186120, Control_c, 13, 7, 8
1, 186125, Pitch_bend_c, 0, 2820
1, 186125, Pitch_bend_c, 1, 2820
1, 186125, Pitch_bend_c, 2, 2820
1, 186125, Pitch_bend_c, 3, 2820
1, 186140, Pitch_bend_c, 0, 2683
1, 186140, Pitch_bend_c, 1, 2683
1, 186140, Pitch_bend_c, 2, 2683
1, 186140, Pitch_bend_c, 3, 2683
1, 186160, Pitch_bend_c, 0, 2369
1, 186160, Pitch_bend_c, 1, 2369
1, 186160, Pitch_bend_c, 2, 2369
1, 186160, Pitch_bend_c, 3, 2369
1, 186175, Pitch_bend_c, 0, 2240
1, 186175, Pitch_bend_c, 1, 2240
1, 186175, Pitch_bend_c, 2, 2240
1, 186175, Pitch_bend_c, 3, 2240
1, 186180, Control_c, 13, 7, 6
1, 186205, Pitch_bend_c, 0, 2103
1, 186205, Pitch_bend_c, 1, 2103
1, 186205, Pitch_bend_c, 2, 2103
1, 186205, Pitch_bend_c, 3, 2103
1, 186240, Note_on_c, 10, 35, 0
1, 186240, Note_on_c, 3, 47, 0
1, 186240, Note_on_c, 3, 83, 0
1, 186240, Note_on_c, 13, 63, 0
1, 186240, Note_on_c, 13, 65, 0
1, 186240, Note_on_c, 1, 35, 0
1, 186240, Note_on_c, 13, 74, 0
1, 186240, Note_on_c, 13, 60, 0
1, 186240, Note_on_c, 13, 62, 0
1, 186240, Note_on_c, 13, 66, 0
1, 186240, Note_on_c, 13, 71, 0
1, 186240, Note_on_c, 13, 67, 0
1, 186240, Note_on_c, 13, 69, 0
1, 186240, Note_on_c, 13, 61, 0
1, 186240, Note_on_c, 13, 75, 0
1, 186240, Note_on_c, 13, 70, 0
1, 186240, Note_on_c, 9, 52, 0
1, 186240, Note_on_c, 2, 59, 0
1, 186240, Note_on_c, 2, 71, 0
1, 186240, Note_on_c, 2, 95, 0
1, 186240, Note_on_c, 9, 49, 0
1, 186240, Note_on_c, 0, 47, 0
1, 186240, Note_on_c, 13, 72, 0
1, 186240, Note_on_c, 13, 68, 0
1, 186240, Note_on_c, 13, 64, 0
1, 186240, Note_on_c, 9, 57, 0
1, 186240, Note_on_c, 2, 83, 0
1, 186240, Note_on_c, 1, 71, 0
1, 186240, Note_on_c, 1, 83, 0
1, 186240, Note_on_c, 9, 82, 0
1, 186240, Note_on_c, 13, 73, 0
1, 186240, Pitch_bend_c, 0, 8192
1, 186240, Note_on_c, 0, 35, 95
1, 186240, Pitch_bend_c, 1, 8192
1, 186240, Note_on_c, 1, 59, 95
1, 186240, Note_on_c, 1, 71, 64
1, 186240, Note_on_c, 1, 23, 95
1, 186240, Pitch_bend_c, 2, 8192
1, 186240, Note_on_c, 2, 83, 94
1, 186240, Note_on_c, 2, 71, 64
1, 186240, Note_on_c, 2, 59, 127
1, 186240, Note_on_c, 2, 47, 95
1, 186240, Pitch_bend_c, 3, 8192
1, 186240, Note_on_c, 3, 71, 64
1, 186240, Note_on_c, 3, 35, 64
1, 186240, Note_on_c, 9, 42, 103
1, 186240, Note_on_c, 9, 35, 103
1, 186240, Note_on_c, 9, 82, 18
1, 186240, Note_on_c, 10, 23, 127
1, 186240, Control_c, 13, 7, 0
1, 186360, Note_on_c, 9, 82, 0
1, 186360, Note_on_c, 9, 35, 0
1, 186360, Note_on_c, 9, 42, 0
1, 186360, Note_on_c, 9, 82, 18
1, 186420, Note_on_c, 10, 23, 0
1, 186480, Note_on_c, 9, 82, 0
1, 186480, Note_on_c, 9, 42, 73
1, 186480, Note_on_c, 9, 82, 31
1, 186480, Note_on_c, 10, 23, 93
1, 186540, Note_on_c, 10, 23, 0
1, 186600, Note_on_c, 2, 83, 0
1, 186600, Note_on_c, 1, 59, 0
1, 186600, Note_on_c, 3, 71, 0
1, 186600, Note_on_c, 1, 71, 0
1, 186600, Note_on_c, 1, 23, 0
1, 186600, Note_on_c, 0, 35, 0
1, 186600, Note_on_c, 2, 71, 0
1, 186600, Note_on_c, 9, 42, 0
1, 186600, Note_on_c, 3, 35, 0
1, 186600, Note_on_c, 2, 59, 0
1, 186600, Note_on_c, 9, 82, 0
1, 186600, Note_on_c, 2, 47, 0
1, 186600, Pitch_bend_c, 0, 0
1, 186600, Note_on_c, 0, 47, 95
1, 186600, Pitch_bend_c, 1, 0
1, 186600, Note_on_c, 1, 71, 95
1, 186600, Note_on_c, 1, 83, 64
1, 186600, Note_on_c, 1, 35, 95
1, 186600, Pitch_bend_c, 2, 0
1, 186600, Note_on_c, 2, 95, 64
1, 186600, Note_on_c, 2, 83, 64
1, 186600, Note_on_c, 2, 71, 127
1, 186600, Note_on_c, 2, 59, 95
1, 186600, Pitch_bend_c, 3, 0
1, 186600, Note_on_c, 3, 83, 64
1, 186600, Note_on_c, 3, 47, 64
1, 186600, Note_on_c, 9, 82, 39
1, 186600, Note_on_c, 10, 23, 75
1, 186615, Pitch_bend_c, 0, 8192
1, 186615, Pitch_bend_c, 1, 8192
1, 186615, Pitch_bend_c, 2, 8192
1, 186615, Pitch_bend_c, 3, 8192
1, 186660, Note_on_c, 10, 23, 0
1, 186720, Note_on_c, 1, 71, 0
1, 186720, Note_on_c, 2, 59, 0
1, 186720, Note_on_c, 1, 83, 0
1, 186720, Note_on_c, 1, 35, 0
1, 186720, Note_on_c, 0, 47, 0
1, 186720, Note_on_c, 2, 95, 0
1, 186720, Note_on_c, 2, 83, 0
1, 186720, Note_on_c, 3, 83, 0
1, 186720, Note_on_c, 2, 71, 0
1, 186720, Note_on_c, 9, 82, 0
1, 186720, Note_on_c, 3, 47, 0
1, 186720, Note_on_c, 9, 42, 73
1, 186720, Note_on_c, 9, 35, 102
1, 186720, Note_on_c, 9, 40, 89
1, 186720, Note_on_c, 9, 28, 103
1, 186720, Note_on_c, 9, 82, 40
1, 186720, Note_on_c, 10, 23, 68
1, 186780, Note_on_c, 10, 23, 0
1, 186840, Note_on_c, 9, 35, 0
1, 186840, Note_on_c, 9, 40, 0
1, 186840, Note_on_c, 9, 42, 0
1, 186840, Note_on_c, 9, 82, 0
1, 186840, Note_on_c, 9, 28, 0
1, 186840, Note_on_c, 9, 82, 25
1, 186840, Note_on_c, 10, 23, 75
1, 186900, Note_on_c, 10, 23, 0
1, 186960, Note_on_c, 9, 82, 0
1, 186960, Note_on_c, 0, 47, 95
1, 186960, Note_on_c, 1, 71, 95
1, 186960, Note_on_c, 1, 83, 64
1, 186960, Note_on_c, 1, 35, 95
1, 186960, Note_on_c, 2, 95, 64
1, 186960, Note_on_c, 2, 83, 64
1, 186960, Note_on_c, 2, 71, 127
1, 186960, Note_on_c, 2, 59, 95
1, 186960, Note_on_c, 3, 83, 64
1, 186960, Note_on_c, 3, 47, 64
1, 186960, Note_on_c, 9, 42, 73
1, 186960, Note_on_c, 9, 82, 11
1, 186960, Note_on_c, 10, 23, 99
1, 187020, Note_on_c, 10, 23, 0
1, 187080, Note_on_c, 9, 82, 0
1, 187080, Note_on_c, 9, 42, 0
1, 187080, Note_on_c, 9, 82, 11
1, 187080, Note_on_c, 10, 23, 127
1, 187200, Note_on_c, 9, 82, 0
1, 187200, Note_on_c, 2, 59, 0
1, 187200, Note_on_c, 3, 83, 0
1, 187200, Note_on_c, 1, 83, 0
1, 187200, Note_on_c, 1, 35, 0
1, 187200, Note_on_c, 2, 71, 0
1, 187200, Note_on_c, 2, 95, 0
1, 187200, Note_on_c, 2, 83, 0
1, 187200, Note_on_c, 3, 47, 0
1, 187200, Note_on_c, 0, 47, 0
1, 187200, Note_on_c, 1, 71, 0
1, 187200, Note_on_c, 9, 42, 88
1, 187200, Note_on_c, 9, 35, 102
1, 187200, Note_on_c, 9, 82, 18
1, 187260, Note_on_c, 10, 23, 0
1, 187320, Note_on_c, 9, 42, 0
1, 187320, Note_on_c, 9, 35, 0
1, 187320, Note_on_c, 9, 82, 0
1, 187320, Note_on_c, 0, 43, 95
1, 187320, Note_on_c, 1, 67, 95
1, 187320, Note_on_c, 1, 79, 64
1, 187320, Note_on_c, 1, 31, 95
1, 187320, Note_on_c, 2, 91, 64
1, 187320, Note_on_c, 2, 79, 64
1, 187320, Note_on_c, 2, 67, 127
1, 187320, Note_on_c, 2, 55, 95
1, 187320, Note_on_c, 3, 79, 64
1, 187320, Note_on_c, 3, 43, 64
1, 187320, Note_on_c, 9, 82, 18
1, 187320, Note_on_c, 10, 23, 93
1, 187380, Note_on_c, 10, 23, 0
1, 187440, Note_on_c, 1, 67, 0
1, 187440, Note_on_c, 2, 55, 0
1, 187440, Note_on_c, 1, 79, 0
1, 187440, Note_on_c, 1, 31, 0
1, 187440, Note_on_c, 0, 43, 0
1, 187440, Note_on_c, 2, 91, 0
1, 187440, Note_on_c, 2, 79, 0
1, 187440, Note_on_c, 3, 79, 0
1, 187440, Note_on_c, 2, 67, 0
1, 187440, Note_on_c, 9, 82, 0
1, 187440, Note_on_c, 3, 43, 0
1, 187440, Pitch_bend_c, 0, 5100
1, 187440, Note_on_c, 0, 47, 95
1, 187440, Pitch_bend_c, 1, 5100
1, 187440, Note_on_c, 1, 71, 95
1, 187440, Note_on_c, 1, 83, 64
1, 187440, Note_on_c, 1, 35, 95
1, 187440, Pitch_bend_c, 2, 5100
1, 187440, Note_on_c, 2, 95, 64
1, 187440, Note_on_c, 2, 83, 64
1, 187440, Note_on_c, 2, 71, 127
1, 187440, Note_on_c, 2, 59, 95
1, 187440, Pitch_bend_c, 3, 5100
1, 187440, Note_on_c, 3, 83, 64
1, 187440, Note_on_c, 3, 47, 64
1, 187440, Note_on_c, 9, 42, 73
1, 187440, Note_on_c, 9, 82, 31
1, 187440, Note_on_c, 10, 23, 75
1, 187455, Pitch_bend_c, 0, 6697
1, 187455, Pitch_bend_c, 1, 6697
1, 187455, Pitch_bend_c, 2, 6697
1, 187455, Pitch_bend_c, 3, 6697
1, 187500, Note_on_c, 10, 23, 0
1, 187520, Pitch_bend_c, 0, 6841
1, 187520, Pitch_bend_c, 1, 6841
1, 187520, Pitch_bend_c, 2, 6841
1, 187520, Pitch_bend_c, 3, 6841
1, 187550, Pitch_bend_c, 0, 6984
1, 187550, Pitch_bend_c, 1, 6984
1, 187550, Pitch_bend_c, 2, 6984
1, 187550, Pitch_bend_c, 3, 6984
1, 187560, Note_on_c, 9, 82, 0
1, 187560, Note_on_c, 9, 42, 0
1, 187560, Note_on_c, 9, 82, 39
1, 187560, Note_on_c, 10, 23, 59
1, 187565, Pitch_bend_c, 0, 7175
1, 187565, Pitch_bend_c, 1, 7175
1, 187565, Pitch_bend_c, 2, 7175
1, 187565, Pitch_bend_c, 3, 7175
1, 187580, Pitch_bend_c, 0, 7319
1, 187580, Pitch_bend_c, 1, 7319
1, 187580, Pitch_bend_c, 2, 7319
1, 187580, Pitch_bend_c, 3, 7319
1, 187600, Pitch_bend_c, 0, 7612
1, 187600, Pitch_bend_c, 1, 7612
1, 187600, Pitch_bend_c, 2, 7612
1, 187600, Pitch_bend_c, 3, 7612
1, 187615, Pitch_bend_c, 0, 7756
1, 187615, Pitch_bend_c, 1, 7756
1, 187615, Pitch_bend_c, 2, 7756
1, 187615, Pitch_bend_c, 3, 7756
1, 187620, Note_on_c, 10, 23, 0
1, 187630, Pitch_bend_c, 0, 7899
1, 187630, Pitch_bend_c, 1, 7899
1, 187630, Pitch_bend_c, 2, 7899
1, 187630, Pitch_bend_c, 3, 7899
1, 187645, Pitch_bend_c, 0, 8049
1, 187645, Pitch_bend_c, 1, 8049
1, 187645, Pitch_bend_c, 2, 8049
1, 187645, Pitch_bend_c, 3, 8049
1, 187660, Pitch_bend_c, 0, 8192
1, 187660, Pitch_bend_c, 1, 8192
1, 187660, Pitch_bend_c, 2, 8192
1, 187660, Pitch_bend_c, 3, 8192
1, 187680, Note_on_c, 2, 83, 0
1, 187680, Note_on_c, 3, 83, 0
1, 187680, Note_on_c, 1, 83, 0
1, 187680, Note_on_c, 1, 35, 0
1, 187680, Note_on_c, 0, 47, 0
1, 187680, Note_on_c, 2, 95, 0
1, 187680, Note_on_c, 1, 71, 0
1, 187680, Note_on_c, 3, 47, 0
1, 187680, Note_on_c, 2, 71, 0
1, 187680, Note_on_c, 9, 82, 0
1, 187680, Note_on_c, 2, 59, 0
1, 187680, Note_on_c, 0, 47, 95
1, 187680, Note_on_c, 1, 71, 95
1, 187680, Note_on_c, 1, 83, 64
1, 187680, Note_on_c, 1, 35, 95
1, 187680, Note_on_c, 2, 95, 64
1, 187680, Note_on_c, 2, 83, 64
1, 187680, Note_on_c, 2, 71, 127
1, 187680, Note_on_c, 2, 59, 95
1, 187680, Note_on_c, 3, 83, 64
1, 187680, Note_on_c, 3, 47, 64
1, 187680, Note_on_c, 9, 42, 73
1, 187680, Note_on_c, 9, 40, 90
1, 187680, Note_on_c, 9, 35, 103
1, 187680, Note_on_c, 9, 28, 103
1, 187680, Note_on_c, 9, 82, 40
1, 187680, Note_on_c, 10, 23, 58
1, 187740, Note_on_c, 10, 23, 0
1, 187800, Note_on_c, 9, 82, 0
1, 187800, Note_on_c, 9, 40, 0
1, 187800, Note_on_c, 9, 28, 0
1, 187800, Note_on_c, 9, 42, 0
1, 187800, Note_on_c, 9, 35, 0
1, 187800, Note_on_c, 9, 82, 25
1, 187800, Note_on_c, 10, 23, 72
1, 187860, Note_on_c, 10, 23, 0
1, 187920, Note_on_c, 2, 95, 0
1, 187920, Note_on_c, 3, 83, 0
1, 187920, Note_on_c, 1, 83, 0
1, 187920, Note_on_c, 1, 35, 0
1, 187920, Note_on_c, 2, 71, 0
1, 187920, Note_on_c, 2, 83, 0
1, 187920, Note_on_c, 1, 71, 0
1, 187920, Note_on_c, 0, 47, 0
1, 187920, Note_on_c, 3, 47, 0
1, 187920, Note_on_c, 9, 82, 0
1, 187920, Note_on_c, 2, 59, 0
1, 187920, Note_on_c, 0, 47, 95
1, 187920, Note_on_c, 1, 71, 95
1, 187920, Note_on_c, 1, 83, 64
1, 187920, Note_on_c, 1, 35, 95
1, 187920, Note_on_c, 2, 95, 64
1, 187920, Note_on_c, 2, 83, 64
1, 187920, Note_on_c, 2, 71, 127
1, 187920, Note_on_c, 2, 59, 95
1, 187920, Note_on_c, 3, 83, 64
1, 187920, Note_on_c, 3, 47, 64
1, 187920, Note_on_c, 9, 42, 73
1, 187920, Note_on_c, 9, 82, 11
1, 187920, Note_on_c, 10, 23, 91
1, 187950, Pitch_bend_c, 0, 8335
1, 187950, Pitch_bend_c, 1, 8335
1, 187950, Pitch_bend_c, 2, 8335
1, 187950, Pitch_bend_c, 3, 8335
1, 187980, Note_on_c, 10, 23, 0
1, 188000, Pitch_bend_c, 0, 8485
1, 188000, Pitch_bend_c, 1, 8485
1, 188000, Pitch_bend_c, 2, 8485
1, 188000, Pitch_bend_c, 3, 8485
1, 188015, Pitch_bend_c, 0, 8628
1, 188015, Pitch_bend_c, 1, 8628
1, 188015, Pitch_bend_c, 2, 8628
1, 188015, Pitch_bend_c, 3, 8628
1, 188030, Pitch_bend_c, 0, 8772
1, 188030, Pitch_bend_c, 1, 8772
1, 188030, Pitch_bend_c, 2, 8772
1, 188030, Pitch_bend_c, 3, 8772
1, 188040, Note_on_c, 9, 82, 0
1, 188040, Note_on_c, 9, 42, 0
1, 188040, Note_on_c, 9, 82, 11
1, 188040, Note_on_c, 10, 23, 127
1, 188045, Pitch_bend_c, 0, 9065
1, 188045, Pitch_bend_c, 1, 9065
1, 188045, Pitch_bend_c, 2, 9065
1, 188045, Pitch_bend_c, 3, 9065
1, 188060, Pitch_bend_c, 0, 9400
1, 188060, Pitch_bend_c, 1, 9400
1, 188060, Pitch_bend_c, 2, 9400
1, 188060, Pitch_bend_c, 3, 9400
1, 188080, Pitch_bend_c, 0, 9543
1, 188080, Pitch_bend_c, 1, 9543
1, 188080, Pitch_bend_c, 2, 9543
1, 188080, Pitch_bend_c, 3, 9543
1, 188095, Pitch_bend_c, 0, 9830
1, 188095, Pitch_bend_c, 1, 9830
1, 188095, Pitch_bend_c, 2, 9830
1, 188095, Pitch_bend_c, 3, 9830
1, 188110, Pitch_bend_c, 0, 10110
1, 188110, Pitch_bend_c, 1, 10110
1, 188110, Pitch_bend_c, 2, 10110
1, 188110, Pitch_bend_c, 3, 10110
1, 188125, Pitch_bend_c, 0, 10253
1, 188125, Pitch_bend_c, 1, 10253
1, 188125, Pitch_bend_c, 2, 10253
1, 188125, Pitch_bend_c, 3, 10253
1, 188140, Pitch_bend_c, 0, 10397
1, 188140, Pitch_bend_c, 1, 10397
1, 188140, Pitch_bend_c, 2, 10397
1, 188140, Pitch_bend_c, 3, 10397
1, 188160, Note_on_c, 9, 82, 0
1, 188160, Note_on_c, 2, 59, 0
1, 188160, Note_on_c, 3, 83, 0
1, 188160, Note_on_c, 1, 83, 0
1, 188160, Note_on_c, 1, 35, 0
1, 188160, Note_on_c, 2, 71, 0
1, 188160, Note_on_c, 2, 95, 0
1, 188160, Note_on_c, 2, 83, 0
1, 188160, Note_on_c, 3, 47, 0
1, 188160, Note_on_c, 0, 47, 0
1, 188160, Note_on_c, 1, 71, 0
1, 188160, Pitch_bend_c, 0, 12165
1, 188160, Note_on_c, 0, 35, 95
1, 188160, Pitch_bend_c, 1, 12165
1, 188160, Note_on_c, 1, 59, 95
1, 188160, Note_on_c, 1, 71, 64
1, 188160, Note_on_c, 1, 23, 95
1, 188160, Pitch_bend_c, 2, 12165
1, 188160, Note_on_c, 2, 83, 64
1, 188160, Note_on_c, 2, 71, 64
1, 188160, Note_on_c, 2, 59, 127
1, 188160, Note_on_c, 2, 47, 95
1, 188160, Pitch_bend_c, 3, 12165
1, 188160, Note_on_c, 3, 71, 64
1, 188160, Note_on_c, 3, 35, 64
1, 188160, Note_on_c, 9, 82, 18
1, 188160, Note_on_c, 9, 42, 103
1, 188160, Note_on_c, 9, 35, 103
1, 188160, Control_c, 13, 7, 0
1, 188160, Pitch_bend_c, 13, 8192
1, 188160, Note_on_c, 13, 75, 63
1, 188160, Note_on_c, 13, 74, 63
1, 188160, Note_on_c, 13, 73, 63
1, 188160, Note_on_c, 13, 72, 63
1, 188160, Note_on_c, 13, 60, 63
1, 188160, Note_on_c, 13, 71, 63
1, 188160, Note_on_c, 13, 70, 63
1, 188160, Note_on_c, 13, 69, 63
1, 188160, Note_on_c, 13, 68, 63
1, 188160, Note_on_c, 13, 67, 63
1, 188160, Note_on_c, 13, 66, 63
1, 188160, Note_on_c, 13, 65, 63
1, 188160, Note_on_c, 13, 64, 63
1, 188160, Note_on_c, 13, 62, 63
1, 188160, Note_on_c, 13, 63, 63
1, 188160, Note_on_c, 13, 61, 63
1, 188175, Pitch_bend_c, 0, 8192
1, 188175, Pitch_bend_c, 1, 8192
1, 188175, Pitch_bend_c, 2, 8192
1, 188175, Pitch_bend_c, 3, 8192
1, 188280, Note_on_c, 9, 35, 0
1, 188280, Note_on_c, 9, 42, 0
1, 188280, Note_on_c, 10, 23, 0
1, 188280, Note_on_c, 9, 82, 0
1, 188280, Note_on_c, 9, 82, 18
1, 188280, Note_on_c, 10, 23, 79
1, 188340, Note_on_c, 10, 23, 0
1, 188400, Note_on_c, 9, 82, 0
1, 188400, Note_on_c, 9, 82, 31
1, 188400, Note_on_c, 9, 42, 73
1, 188400, Note_on_c, 10, 23, 64
1, 188460, Note_on_c, 10, 23, 0
1, 188520, Note_on_c, 3, 35, 0
1, 188520, Note_on_c, 2, 83, 0
1, 188520, Note_on_c, 0, 35, 0
1, 188520, Note_on_c, 1, 23, 0
1, 188520, Note_on_c, 3, 71, 0
1, 188520, Note_on_c, 1, 71, 0
1, 188520, Note_on_c, 2, 47, 0
1, 188520, Note_on_c, 9, 42, 0
1, 188520, Note_on_c, 1, 59, 0
1, 188520, Note_on_c, 2, 71, 0
1, 188520, Note_on_c, 9, 82, 0
1, 188520, Note_on_c, 2, 59, 0
1, 188520, Pitch_bend_c, 0, 0
1, 188520, Note_on_c, 0, 47, 95
1, 188520, Pitch_bend_c, 1, 0
1, 188520, Note_on_c, 1, 71, 95
1, 188520, Note_on_c, 1, 83, 64
1, 188520, Note_on_c, 1, 35, 95
1, 188520, Pitch_bend_c, 2, 0
1, 188520, Note_on_c, 2, 95, 64
1, 188520, Note_on_c, 2, 83, 64
1, 188520, Note_on_c, 2, 71, 127
1, 188520, Note_on_c, 2, 59, 95
1, 188520, Pitch_bend_c, 3, 0
1, 188520, Note_on_c, 3, 83, 64
1, 188520, Note_on_c, 3, 47, 64
1, 188520, Note_on_c, 9, 82, 39
1, 188520, Note_on_c, 10, 23, 62
1, 188535, Pitch_bend_c, 0, 8192
1, 188535, Pitch_bend_c, 1, 8192
1, 188535, Pitch_bend_c, 2, 8192
1, 188535, Pitch_bend_c, 3, 8192
1, 188580, Note_on_c, 10, 23, 0
1, 188640, Note_on_c, 2, 83, 0
1, 188640, Note_on_c, 2, 71, 0
1, 188640, Note_on_c, 0, 47, 0
1, 188640, Note_on_c, 2, 95, 0
1, 188640, Note_on_c, 1, 71, 0
1, 188640, Note_on_c, 1, 35, 0
1, 188640, Note_on_c, 1, 83, 0
1, 188640, Note_on_c, 9, 82, 0
1, 188640, Note_on_c, 3, 83, 0
1, 188640, Note_on_c, 2, 59, 0
1, 188640, Note_on_c, 3, 47, 0
1, 188640, Note_on_c, 9, 82, 40
1, 188640, Note_on_c, 9, 42, 73
1, 188640, Note_on_c, 9, 40, 91
1, 188640, Note_on_c, 9, 35, 103
1, 188640, Note_on_c, 9, 28, 102
1, 188640, Note_on_c, 10, 23, 66
1, 188700, Note_on_c, 10, 23, 0
1, 188760, Note_on_c, 9, 28, 0
1, 188760, Note_on_c, 9, 82, 0
1, 188760, Note_on_c, 9, 35, 0
1, 188760, Note_on_c, 9, 42, 0
1, 188760, Note_on_c, 9, 40, 0
1, 188760, Note_on_c, 9, 82, 25
1, 188760, Note_on_c, 10, 23, 91
1, 188820, Note_on_c, 10, 23, 0
1, 188880, Note_on_c, 9, 82, 0
1, 188880, Note_on_c, 0, 47, 95
1, 188880, Note_on_c, 1, 71, 95
1, 188880, Note_on_c, 1, 83, 64
1, 188880, Note_on_c, 1, 35, 95
1, 188880, Note_on_c, 2, 95, 64
1, 188880, Note_on_c, 2, 83, 64
1, 188880, Note_on_c, 2, 71, 127
1, 188880, Note_on_c, 2, 59, 95
1, 188880, Note_on_c, 3, 83, 64
1, 188880, Note_on_c, 3, 47, 64
1, 188880, Note_on_c, 9, 82, 11
1, 188880, Note_on_c, 9, 42, 73
1, 188880, Note_on_c, 10, 23, 98
1, 188940, Note_on_c, 10, 23, 0
1, 189000, Note_on_c, 9, 42, 0
1, 189000, Note_on_c, 9, 82, 0
1, 189000, Note_on_c, 9, 82, 11
1, 189000, Note_on_c, 10, 23, 127
1, 189120, Note_on_c, 9, 82, 0
1, 189120, Note_on_c, 0, 47, 0
1, 189120, Note_on_c, 2, 71, 0
1, 189120, Note_on_c, 2, 95, 0
1, 189120, Note_on_c, 1, 71, 0
1, 189120, Note_on_c, 1, 35, 0
1, 189120, Note_on_c, 1, 83, 0
1, 189120, Note_on_c, 2, 83, 0
1, 189120, Note_on_c, 3, 83, 0
1, 189120, Note_on_c, 2, 59, 0
1, 189120, Note_on_c, 3, 47, 0
1, 189120, Note_on_c, 0, 47, 95
1, 189120, Note_on_c, 1, 71, 95
1, 189120, Note_on_c, 1, 83, 64
1, 189120, Note_on_c, 1, 35, 95
1, 189120, Note_on_c, 2, 95, 64
1, 189120, Note_on_c, 2, 83, 64
1, 189120, Note_on_c, 2, 71, 127
1, 189120, Note_on_c, 2, 59, 95
1, 189120, Note_on_c, 3, 83, 64
1, 189120, Note_on_c, 3, 47, 64
1, 189120, Note_on_c, 9, 82, 18
1, 189120, Note_on_c, 9, 42, 88
1, 189120, Note_on_c, 9, 35, 104
1, 189150, Pitch_bend_c, 0, 8049
1, 189150, Pitch_bend_c, 1, 8049
1, 189150, Pitch_bend_c, 2, 8049
1, 189150, Pitch_bend_c, 3, 8049
1, 189180, Note_on_c, 10, 23, 0
1, 189180, Pitch_bend_c, 0, 7899
1, 189180, Pitch_bend_c, 1, 7899
1, 189180, Pitch_bend_c, 2, 7899
1, 189180, Pitch_bend_c, 3, 7899
1, 189215, Pitch_bend_c, 0, 7756
1, 189215, Pitch_bend_c, 1, 7756
1, 189215, Pitch_bend_c, 2, 7756
1, 189215, Pitch_bend_c, 3, 7756
1, 189240, Note_on_c, 9, 35, 0
1, 189240, Note_on_c, 9, 42, 0
1, 189240, Note_on_c, 9, 82, 0
1, 189240, Note_on_c, 9, 82, 18
1, 189240, Note_on_c, 10, 23, 66
1, 189245, Pitch_bend_c, 0, 7612
1, 189245, Pitch_bend_c, 1, 7612
1, 189245, Pitch_bend_c, 2, 7612
1, 189245, Pitch_bend_c, 3, 7612
1, 189280, Pitch_bend_c, 0, 7469
1, 189280, Pitch_bend_c, 1, 7469
1, 189280, Pitch_bend_c, 2, 7469
1, 189280, Pitch_bend_c, 3, 7469
1, 189300, Note_on_c, 10, 23, 0
1, 189300, Note_on_c, 0, 47, 0
1, 189300, Note_on_c, 2, 95, 0
1, 189300, Note_on_c, 1, 71, 0
1, 189300, Note_on_c, 1, 35, 0
1, 189300, Note_on_c, 1, 83, 0
1, 189300, Note_on_c, 2, 83, 0
1, 189300, Note_on_c, 2, 59, 0
1, 189300, Note_on_c, 2, 71, 0
1, 189300, Note_on_c, 3, 83, 0
1, 189300, Note_on_c, 3, 47, 0
1, 189360, Note_on_c, 9, 82, 0
1, 189360, Note_on_c, 0, 47, 95
1, 189360, Note_on_c, 1, 71, 95
1, 189360, Note_on_c, 1, 83, 64
1, 189360, Note_on_c, 1, 35, 95
1, 189360, Note_on_c, 2, 95, 64
1, 189360, Note_on_c, 2, 83, 64
1, 189360, Note_on_c, 2, 71, 127
1, 189360, Note_on_c, 2, 59, 95
1, 189360, Note_on_c, 3, 83, 64
1, 189360, Note_on_c, 3, 47, 64
1, 189360, Note_on_c, 9, 82, 31
1, 189360, Note_on_c, 9, 42, 73
1, 189360, Note_on_c, 10, 23, 74
1, 189375, Pitch_bend_c, 0, 7319
1, 189375, Pitch_bend_c, 1, 7319
1, 189375, Pitch_bend_c, 2, 7319
1, 189375, Pitch_bend_c, 3, 7319
1, 189420, Note_on_c, 10, 23, 0
1, 189420, Pitch_bend_c, 0, 7175
1, 189420, Pitch_bend_c, 1, 7175
1, 189420, Pitch_bend_c, 2, 7175
1, 189420, Pitch_bend_c, 3, 7175
1, 189440, Pitch_bend_c, 0, 6984
1, 189440, Pitch_bend_c, 1, 6984
1, 189440, Pitch_bend_c, 2, 6984
1, 189440, Pitch_bend_c, 3, 6984
1, 189470, Pitch_bend_c, 0, 6841
1, 189470, Pitch_bend_c, 1, 6841
1, 189470, Pitch_bend_c, 2, 6841
1, 189470, Pitch_bend_c, 3, 6841
1, 189480, Note_on_c, 9, 42, 0
1, 189480, Note_on_c, 9, 82, 0
1, 189480, Note_on_c, 9, 82, 39
1, 189480, Note_on_c, 10, 23, 84
1, 189500, Pitch_bend_c, 0, 6697
1, 189500, Pitch_bend_c, 1, 6697
1, 189500, Pitch_bend_c, 2, 6697
1, 189500, Pitch_bend_c, 3, 6697
1, 189540, Note_on_c, 10, 23, 0
1, 189580, Pitch_bend_c, 0, 6554
1, 189580, Pitch_bend_c, 1, 6554
1, 189580, Pitch_bend_c, 2, 6554
1, 189580, Pitch_bend_c, 3, 6554
1, 189600, Note_on_c, 0, 47, 0
1, 189600, Note_on_c, 2, 71, 0
1, 189600, Note_on_c, 2, 95, 0
1, 189600, Note_on_c, 1, 71, 0
1, 189600, Note_on_c, 1, 35, 0
1, 189600, Note_on_c, 1, 83, 0
1, 189600, Note_on_c, 9, 82, 0
1, 189600, Note_on_c, 3, 83, 0
1, 189600, Note_on_c, 2, 59, 0
1, 189600, Note_on_c, 2, 83, 0
1, 189600, Note_on_c, 3, 47, 0
1, 189600, Note_on_c, 0, 47, 95
1, 189600, Note_on_c, 1, 71, 95
1, 189600, Note_on_c, 1, 83, 64
1, 189600, Note_on_c, 1, 35, 95
1, 189600, Note_on_c, 2, 95, 64
1, 189600, Note_on_c, 2, 83, 64
1, 189600, Note_on_c, 2, 71, 127
1, 189600, Note_on_c, 2, 59, 95
1, 189600, Note_on_c, 3, 83, 64
1, 189600, Note_on_c, 3, 47, 64
1, 189600, Note_on_c, 9, 82, 40
1, 189600, Note_on_c, 9, 42, 73
1, 189600, Note_on_c, 9, 40, 92
1, 189600, Note_on_c, 9, 35, 104
1, 189600, Note_on_c, 9, 28, 102
1, 189600, Note_on_c, 10, 35, 127
1, 189630, Pitch_bend_c, 0, 6418
1, 189630, Pitch_bend_c, 1, 6418
1, 189630, Pitch_bend_c, 2, 6418
1, 189630, Pitch_bend_c, 3, 6418
1, 189645, Pitch_bend_c, 0, 6274
1, 189645, Pitch_bend_c, 1, 6274
1, 189645, Pitch_bend_c, 2, 6274
1, 189645, Pitch_bend_c, 3, 6274
1, 189660, Pitch_bend_c, 0, 6131
1, 189660, Pitch_bend_c, 1, 6131
1, 189660, Pitch_bend_c, 2, 6131
1, 189660, Pitch_bend_c, 3, 6131
1, 189680, Pitch_bend_c, 0, 5987
1, 189680, Pitch_bend_c, 1, 5987
1, 189680, Pitch_bend_c, 2, 5987
1, 189680, Pitch_bend_c, 3, 5987
1, 189695, Pitch_bend_c, 0, 5803
1, 189695, Pitch_bend_c, 1, 5803
1, 189695, Pitch_bend_c, 2, 5803
1, 189695, Pitch_bend_c, 3, 5803
1, 189710, Pitch_bend_c, 0, 5660
1, 189710, Pitch_bend_c, 1, 5660
1, 189710, Pitch_bend_c, 2, 5660
1, 189710, Pitch_bend_c, 3, 5660
1, 189720, Note_on_c, 9, 28, 0
1, 189720, Note_on_c, 9, 35, 0
1, 189720, Note_on_c, 9, 40, 0
1, 189720, Note_on_c, 9, 42, 0
1, 189720, Note_on_c, 9, 82, 0
1, 189720, Note_on_c, 9, 82, 25
1, 189725, Pitch_bend_c, 0, 5516
1, 189725, Pitch_bend_c, 1, 5516
1, 189725, Pitch_bend_c, 2, 5516
1, 189725, Pitch_bend_c, 3, 5516
1, 189740, Pitch_bend_c, 0, 5380
1, 189740, Pitch_bend_c, 1, 5380
1, 189740, Pitch_bend_c, 2, 5380
1, 189740, Pitch_bend_c, 3, 5380
1, 189760, Pitch_bend_c, 0, 5237
1, 189760, Pitch_bend_c, 1, 5237
1, 189760, Pitch_bend_c, 2, 5237
1, 189760, Pitch_bend_c, 3, 5237
1, 189780, Note_on_c, 10, 35, 0
1, 189790, Pitch_bend_c, 0, 5100
1, 189790, Pitch_bend_c, 1, 5100
1, 189790, Pitch_bend_c, 2, 5100
1, 189790, Pitch_bend_c, 3, 5100
1, 189840, Note_on_c, 2, 83, 0
1, 189840, Note_on_c, 0, 47, 0
1, 189840, Note_on_c, 2, 95, 0
1, 189840, Note_on_c, 1, 71, 0
1, 189840, Note_on_c, 1, 35, 0
1, 189840, Note_on_c, 1, 83, 0
1, 189840, Note_on_c, 9, 82, 0
1, 189840, Note_on_c, 2, 59, 0
1, 189840, Note_on_c, 2, 71, 0
1, 189840, Note_on_c, 3, 83, 0
1, 189840, Note_on_c, 3, 47, 0
1, 189840, Note_on_c, 0, 47, 95
1, 189840, Note_on_c, 1, 71, 95
1, 189840, Note_on_c, 1, 83, 64
1, 189840, Note_on_c, 1, 35, 95
1, 189840, Note_on_c, 2, 95, 64
1, 189840, Note_on_c, 2, 83, 64
1, 189840, Note_on_c, 2, 71, 127
1, 189840, Note_on_c, 2, 59, 95
1, 189840, Note_on_c, 3, 83, 64
1, 189840, Note_on_c, 3, 47, 64
1, 189840, Note_on_c, 9, 82, 11
1, 189840, Note_on_c, 9, 42, 73
1, 189840, Note_on_c, 10, 23, 103
1, 189855, Pitch_bend_c, 0, 4963
1, 189855, Pitch_bend_c, 1, 4963
1, 189855, Pitch_bend_c, 2, 4963
1, 189855, Pitch_bend_c, 3, 4963
1, 189870, Pitch_bend_c, 0, 4636
1, 189870, Pitch_bend_c, 1, 4636
1, 189870, Pitch_bend_c, 2, 4636
1, 189870, Pitch_bend_c, 3, 4636
1, 189885, Pitch_bend_c, 0, 4499
1, 189885, Pitch_bend_c, 1, 4499
1, 189885, Pitch_bend_c, 2, 4499
1, 189885, Pitch_bend_c, 3, 4499
1, 189900, Note_on_c, 10, 23, 0
1, 189900, Pitch_bend_c, 0, 4083
1, 189900, Pitch_bend_c, 1, 4083
1, 189900, Pitch_bend_c, 2, 4083
1, 189900, Pitch_bend_c, 3, 4083
1, 189920, Pitch_bend_c, 0, 3810
1, 189920, Pitch_bend_c, 1, 3810
1, 189920, Pitch_bend_c, 2, 3810
1, 189920, Pitch_bend_c, 3, 3810
1, 189935, Pitch_bend_c, 0, 3359
1, 189935, Pitch_bend_c, 1, 3359
1, 189935, Pitch_bend_c, 2, 3359
1, 189935, Pitch_bend_c, 3, 3359
1, 189950, Pitch_bend_c, 0, 3086
1, 189950, Pitch_bend_c, 1, 3086
1, 189950, Pitch_bend_c, 2, 3086
1, 189950, Pitch_bend_c, 3, 3086
1, 189960, Note_on_c, 9, 42, 0
1, 189960, Note_on_c, 9, 82, 0
1, 189960, Note_on_c, 9, 82, 11
1, 189960, Note_on_c, 10, 35, 127
1, 189965, Pitch_bend_c, 0, 2820
1, 189965, Pitch_bend_c, 1, 2820
1, 189965, Pitch_bend_c, 2, 2820
1, 189965, Pitch_bend_c, 3, 2820
1, 189980, Pitch_bend_c, 0, 2683
1, 189980, Pitch_bend_c, 1, 2683
1, 189980, Pitch_bend_c, 2, 2683
1, 189980, Pitch_bend_c, 3, 2683
1, 190000, Pitch_bend_c, 0, 2369
1, 190000, Pitch_bend_c, 1, 2369
1, 190000, Pitch_bend_c, 2, 2369
1, 190000, Pitch_bend_c, 3, 2369
1, 190015, Pitch_bend_c, 0, 2240
1, 190015, Pitch_bend_c, 1, 2240
1, 190015, Pitch_bend_c, 2, 2240
1, 190015, Pitch_bend_c, 3, 2240
1, 190045, Pitch_bend_c, 0, 2103
1, 190045, Pitch_bend_c, 1, 2103
1, 190045, Pitch_bend_c, 2, 2103
1, 190045, Pitch_bend_c, 3, 2103
1, 190080, Note_on_c, 10, 35, 0
1, 190080, Note_on_c, 0, 47, 0
1, 190080, Note_on_c, 2, 71, 0
1, 190080, Note_on_c, 2, 95, 0
1, 190080, Note_on_c, 1, 71, 0
1, 190080, Note_on_c, 1, 35, 0
1, 190080, Note_on_c, 1, 83, 0
1, 190080, Note_on_c, 9, 82, 0
1, 190080, Note_on_c, 3, 83, 0
1, 190080, Note_on_c, 2, 59, 0
1, 190080, Note_on_c, 2, 83, 0
1, 190080, Note_on_c, 3, 47, 0
1, 190080, Pitch_bend_c, 0, 8192
1, 190080, Note_on_c, 0, 35, 95
1, 190080, Pitch_bend_c, 1, 8192
1, 190080, Note_on_c, 1, 59, 95
1, 190080, Note_on_c, 1, 71, 64
1, 190080, Note_on_c, 1, 23, 95
1, 190080, Pitch_bend_c, 2, 8192
1, 190080, Note_on_c, 2, 83, 94
1, 190080, Note_on_c, 2, 71, 64
1, 190080, Note_on_c, 2, 59, 127
1, 190080, Note_on_c, 2, 47, 95
1, 190080, Pitch_bend_c, 3, 8192
1, 190080, Note_on_c, 3, 71, 64
1, 190080, Note_on_c, 3, 35, 64
1, 190080, Note_on_c, 9, 57, 103
1, 190080, Note_on_c, 9, 52, 127
1, 190080, Note_on_c, 9, 49, 103
1, 190080, Note_on_c, 9, 42, 103
1, 190080, Note_on_c, 9, 35, 103
1, 190080, Note_on_c, 9, 82, 18
1, 190080, Note_on_c, 10, 23, 127
1, 190080, Control_c, 13, 7, 127
1, 190140, Control_c, 13, 7, 127
1, 190200, Note_on_c, 9, 82, 0
1, 190200, Note_on_c, 9, 35, 0
1, 190200, Note_on_c, 9, 42, 0
1, 190200, Note_on_c, 9, 82, 18
1, 190200, Control_c, 13, 7, 125
1, 190260, Note_on_c, 10, 23, 0
1, 190260, Control_c, 13, 7, 124
1, 190320, Note_on_c, 9, 82, 0
1, 190320, Note_on_c, 9, 42, 73
1, 190320, Note_on_c, 9, 82, 31
1, 190320, Note_on_c, 10, 23, 93
1, 190320, Control_c, 13, 7, 121
1, 190380, Note_on_c, 10, 23, 0
1, 190380, Control_c, 13, 7, 119
1, 190440, Note_on_c, 9, 82, 0
1, 190440, Note_on_c, 2, 47, 0
1, 190440, Note_on_c, 3, 35, 0
1, 190440, Note_on_c, 0, 35, 0
1, 190440, Note_on_c, 2, 83, 0
1, 190440, Note_on_c, 1, 59, 0
1, 190440, Note_on_c, 1, 23, 0
1, 190440, Note_on_c, 1, 71, 0
1, 190440, Note_on_c, 9, 42, 0
1, 190440, Note_on_c, 2, 59, 0
1, 190440, Note_on_c, 2, 71, 0
1, 190440, Note_on_c, 3, 71, 0
1, 190440, Pitch_bend_c, 0, 0
1, 190440, Note_on_c, 0, 47, 95
1, 190440, Pitch_bend_c, 1, 0
1, 190440, Note_on_c, 1, 71, 95
1, 190440, Note_on_c, 1, 83, 64
1, 190440, Note_on_c, 1, 35, 95
1, 190440, Pitch_bend_c, 2, 0
1, 190440, Note_on_c, 2, 95, 64
1, 190440, Note_on_c, 2, 83, 64
1, 190440, Note_on_c, 2, 71, 127
1, 190440, Note_on_c, 2, 59, 95
1, 190440, Pitch_bend_c, 3, 0
1, 190440, Note_on_c, 3, 83, 64
1, 190440, Note_on_c, 3, 47, 64
1, 190440, Note_on_c, 9, 82, 39
1, 190440, Note_on_c, 10, 23, 75
1, 190440, Control_c, 13, 7, 117
1, 190455, Pitch_bend_c, 0, 8192
1, 190455, Pitch_bend_c, 1, 8192
1, 190455, Pitch_bend_c, 2, 8192
1, 190455, Pitch_bend_c, 3, 8192
1, 190500, Note_on_c, 10, 23, 0
1, 190500, Control_c, 13, 7, 114
1, 190560, Note_on_c, 2, 59, 0
1, 190560, Note_on_c, 1, 83, 0
1, 190560, Note_on_c, 1, 71, 0
1, 190560, Note_on_c, 0, 47, 0
1, 190560, Note_on_c, 1, 35, 0
1, 190560, Note_on_c, 9, 82, 0
1, 190560, Note_on_c, 2, 83, 0
1, 190560, Note_on_c, 2, 95, 0
1, 190560, Note_on_c, 3, 47, 0
1, 190560, Note_on_c, 2, 71, 0
1, 190560, Note_on_c, 3, 83, 0
1, 190560, Note_on_c, 9, 42, 73
1, 190560, Note_on_c, 9, 35, 102
1, 190560, Note_on_c, 9, 40, 89
1, 190560, Note_on_c, 9, 28, 103
1, 190560, Note_on_c, 9, 82, 40
1, 190560, Note_on_c, 10, 23, 68
1, 190560, Control_c, 13, 7, 112
1, 190620, Note_on_c, 10, 23, 0
1, 190620, Control_c, 13, 7, 110
1, 190680, Note_on_c, 9, 40, 0
1, 190680, Note_on_c, 9, 35, 0
1, 190680, Note_on_c, 9, 42, 0
1, 190680, Note_on_c, 9, 82, 0
1, 190680, Note_on_c, 9, 28, 0
1, 190680, Note_on_c, 9, 82, 25
1, 190680, Note_on_c, 10, 23, 75
1, 190680, Control_c, 13, 7, 108
1, 190740, Note_on_c, 10, 23, 0
1, 190740, Control_c, 13, 7, 106
1, 190800, Note_on_c, 9, 82, 0
1, 190800, Note_on_c, 0, 47, 95
1, 190800, Note_on_c, 1, 71, 95
1, 190800, Note_on_c, 1, 83, 64
1, 190800, Note_on_c, 1, 35, 95
1, 190800, Note_on_c, 2, 95, 64
1, 190800, Note_on_c, 2, 83, 64
1, 190800, Note_on_c, 2, 71, 127
1, 190800, Note_on_c, 2, 59, 95
1, 190800, Note_on_c, 3, 83, 64
1, 190800, Note_on_c, 3, 47, 64
1, 190800, Note_on_c, 9, 42, 73
1, 190800, Note_on_c, 9, 82, 11
1, 190800, Note_on_c, 10, 23, 99
1, 190800, Control_c, 13, 7, 105
1, 190860, Note_on_c, 10, 23, 0
1, 190860, Control_c, 13, 7, 103
1, 190920, Note_on_c, 9, 82, 0
1, 190920, Note_on_c, 9, 42, 0
1, 190920, Note_on_c, 9, 82, 11
1, 190920, Note_on_c, 10, 23, 127
1, 190920, Control_c, 13, 7, 101
1, 190980, Control_c, 13, 7, 99
1, 191040, Note_on_c, 9, 82, 0
1, 191040, Note_on_c, 1, 71, 0
1, 191040, Note_on_c, 3, 83, 0
1, 191040, Note_on_c, 0, 47, 0
1, 191040, Note_on_c, 1, 83, 0
1, 191040, Note_on_c, 2, 83, 0
1, 191040, Note_on_c, 2, 95, 0
1, 191040, Note_on_c, 1, 35, 0
1, 191040, Note_on_c, 2, 59, 0
1, 191040, Note_on_c, 2, 71, 0
1, 191040, Note_on_c, 3, 47, 0
1, 191040, Note_on_c, 9, 42, 88
1, 191040, Note_on_c, 9, 35, 102
1, 191040, Note_on_c, 9, 82, 18
1, 191040, Control_c, 13, 7, 96
1, 191100, Note_on_c, 10, 23, 0
1, 191100, Control_c, 13, 7, 95
1, 191160, Note_on_c, 9, 82, 0
1, 191160, Note_on_c, 9, 35, 0
1, 191160, Note_on_c, 9, 42, 0
1, 191160, Note_on_c, 0, 43, 95
1, 191160, Note_on_c, 1, 67, 95
1, 191160, Note_on_c, 1, 79, 64
1, 191160, Note_on_c, 1, 31, 95
1, 191160, Note_on_c, 2, 91, 64
1, 191160, Note_on_c, 2, 79, 64
1, 191160, Note_on_c, 2, 67, 127
1, 191160, Note_on_c, 2, 55, 95
1, 191160, Note_on_c, 3, 79, 64
1, 191160, Note_on_c, 3, 43, 64
1, 191160, Note_on_c, 9, 82, 18
1, 191160, Note_on_c, 10, 23, 93
1, 191160, Control_c, 13, 7, 92
1, 191220, Note_on_c, 10, 23, 0
1, 191220, Control_c, 13, 7, 91
1, 191280, Note_on_c, 2, 55, 0
1, 191280, Note_on_c, 1, 79, 0
1, 191280, Note_on_c, 1, 67, 0
1, 191280, Note_on_c, 0, 43, 0
1, 191280, Note_on_c, 1, 31, 0
1, 191280, Note_on_c, 9, 82, 0
1, 191280, Note_on_c, 2, 79, 0
1, 191280, Note_on_c, 2, 91, 0
1, 191280, Note_on_c, 3, 43, 0
1, 191280, Note_on_c, 2, 67, 0
1, 191280, Note_on_c, 3, 79, 0
1, 191280, Pitch_bend_c, 0, 5100
1, 191280, Note_on_c, 0, 47, 95
1, 191280, Pitch_bend_c, 1, 5100
1, 191280, Note_on_c, 1, 71, 95
1, 191280, Note_on_c, 1, 83, 64
1, 191280, Note_on_c, 1, 35, 95
1, 191280, Pitch_bend_c, 2, 5100
1, 191280, Note_on_c, 2, 95, 64
1, 191280, Note_on_c, 2, 83, 64
1, 191280, Note_on_c, 2, 71, 127
1, 191280, Note_on_c, 2, 59, 95
1, 191280, Pitch_bend_c, 3, 5100
1, 191280, Note_on_c, 3, 83, 64
1, 191280, Note_on_c, 3, 47, 64
1, 191280, Note_on_c, 9, 42, 73
1, 191280, Note_on_c, 9, 82, 31
1, 191280, Note_on_c, 10, 23, 75
1, 191280, Control_c, 13, 7, 90
1, 191295, Pitch_bend_c, 0, 6697
1, 191295, Pitch_bend_c, 1, 6697
1, 191295, Pitch_bend_c, 2, 6697
1, 191295, Pitch_bend_c, 3, 6697
1, 191340, Note_on_c, 10, 23, 0
1, 191340, Control_c, 13, 7, 88
1, 191360, Pitch_bend_c, 0, 6841
1, 191360, Pitch_bend_c, 1, 6841
1, 191360, Pitch_bend_c, 2, 6841
1, 191360, Pitch_bend_c, 3, 6841
1, 191390, Pitch_bend_c, 0, 6984
1, 191390, Pitch_bend_c, 1, 6984
1, 191390, Pitch_bend_c, 2, 6984
1, 191390, Pitch_bend_c, 3, 6984
1, 191400, Note_on_c, 9, 82, 0
1, 191400, Note_on_c, 9, 42, 0
1, 191400, Note_on_c, 9, 82, 39
1, 191400, Note_on_c, 10, 23, 59
1, 191400, Control_c, 13, 7, 86
1, 191405, Pitch_bend_c, 0, 7175
1, 191405, Pitch_bend_c, 1, 7175
1, 191405, Pitch_bend_c, 2, 7175
1, 191405, Pitch_bend_c, 3, 7175
1, 191420, Pitch_bend_c, 0, 7319
1, 191420, Pitch_bend_c, 1, 7319
1, 191420, Pitch_bend_c, 2, 7319
1, 191420, Pitch_bend_c, 3, 7319
1, 191440, Pitch_bend_c, 0, 7612
1, 191440, Pitch_bend_c, 1, 7612
1, 191440, Pitch_bend_c, 2, 7612
1, 191440, Pitch_bend_c, 3, 7612
1, 191455, Pitch_bend_c, 0, 7756
1, 191455, Pitch_bend_c, 1, 7756
1, 191455, Pitch_bend_c, 2, 7756
1, 191455, Pitch_bend_c, 3, 7756
1, 191460, Note_on_c, 10, 23, 0
1, 191460, Control_c, 13, 7, 83
1, 191470, Pitch_bend_c, 0, 7899
1, 191470, Pitch_bend_c, 1, 7899
1, 191470, Pitch_bend_c, 2, 7899
1, 191470, Pitch_bend_c, 3, 7899
1, 191485, Pitch_bend_c, 0, 8049
1, 191485, Pitch_bend_c, 1, 8049
1, 191485, Pitch_bend_c, 2, 8049
1, 191485, Pitch_bend_c, 3, 8049
1, 191500, Pitch_bend_c, 0, 8192
1, 191500, Pitch_bend_c, 1, 8192
1, 191500, Pitch_bend_c, 2, 8192
1, 191500, Pitch_bend_c, 3, 8192
1, 191520, Note_on_c, 3, 47, 0
1, 191520, Note_on_c, 3, 83, 0
1, 191520, Note_on_c, 1, 71, 0
1, 191520, Note_on_c, 0, 47, 0
1, 191520, Note_on_c, 1, 35, 0
1, 191520, Note_on_c, 9, 82, 0
1, 191520, Note_on_c, 2, 83, 0
1, 191520, Note_on_c, 2, 95, 0
1, 191520, Note_on_c, 1, 83, 0
1, 191520, Note_on_c, 2, 71, 0
1, 191520, Note_on_c, 2, 59, 0
1, 191520, Note_on_c, 0, 47, 95
1, 191520, Note_on_c, 1, 71, 95
1, 191520, Note_on_c, 1, 83, 64
1, 191520, Note_on_c, 1, 35, 95
1, 191520, Note_on_c, 2, 95, 64
1, 191520, Note_on_c, 2, 83, 64
1, 191520, Note_on_c, 2, 71, 127
1, 191520, Note_on_c, 2, 59, 95
1, 191520, Note_on_c, 3, 83, 64
1, 191520, Note_on_c, 3, 47, 64
1, 191520, Note_on_c, 9, 42, 73
1, 191520, Note_on_c, 9, 40, 90
1, 191520, Note_on_c, 9, 35, 103
1, 191520, Note_on_c, 9, 28, 103
1, 191520, Note_on_c, 9, 82, 40
1, 191520, Note_on_c, 10, 23, 58
1, 191520, Control_c, 13, 7, 82
1, 191580, Note_on_c, 10, 23, 0
1, 191580, Control_c, 13, 7, 80
1, 191640, Note_on_c, 9, 82, 0
1, 191640, Note_on_c, 9, 28, 0
1, 191640, Note_on_c, 9, 35, 0
1, 191640, Note_on_c, 9, 40, 0
1, 191640, Note_on_c, 9, 42, 0
1, 191640, Note_on_c, 9, 82, 25
1, 191640, Note_on_c, 10, 23, 72
1, 191640, Control_c, 13, 7, 77
1, 191700, Note_on_c, 10, 23, 0
1, 191700, Control_c, 13, 7, 76
1, 191760, Note_on_c, 3, 47, 0
1, 191760, Note_on_c, 3, 83, 0
1, 191760, Note_on_c, 1, 71, 0
1, 191760, Note_on_c, 0, 47, 0
1, 191760, Note_on_c, 1, 35, 0
1, 191760, Note_on_c, 9, 82, 0
1, 191760, Note_on_c, 2, 83, 0
1, 191760, Note_on_c, 2, 95, 0
1, 191760, Note_on_c, 1, 83, 0
1, 191760, Note_on_c, 2, 71, 0
1, 191760, Note_on_c, 2, 59, 0
1, 191760, Note_on_c, 0, 47, 95
1, 191760, Note_on_c, 1, 71, 95
1, 191760, Note_on_c, 1, 83, 64
1, 191760, Note_on_c, 1, 35, 95
1, 191760, Note_on_c, 2, 95, 64
1, 191760, Note_on_c, 2, 83, 64
1, 191760, Note_on_c, 2, 71, 127
1, 191760, Note_on_c, 2, 59, 95
1, 191760, Note_on_c, 3, 83, 64
1, 191760, Note_on_c, 3, 47, 64
1, 191760, Note_on_c, 9, 42, 73
1, 191760, Note_on_c, 9, 82, 11
1, 191760, Note_on_c, 10, 23, 91
1, 191760, Control_c, 13, 7, 74
1, 191790, Pitch_bend_c, 0, 8335
1, 191790, Pitch_bend_c, 1, 8335
1, 191790, Pitch_bend_c, 2, 8335
1, 191790, Pitch_bend_c, 3, 8335
1, 191820, Note_on_c, 10, 23, 0
1, 191820, Control_c, 13, 7, 71
1, 191840, Pitch_bend_c, 0, 8485
1, 191840, Pitch_bend_c, 1, 8485
1, 191840, Pitch_bend_c, 2, 8485
1, 191840, Pitch_bend_c, 3, 8485
1, 191855, Pitch_bend_c, 0, 8628
1, 191855, Pitch_bend_c, 1, 8628
1, 191855, Pitch_bend_c, 2, 8628
1, 191855, Pitch_bend_c, 3, 8628
1, 191870, Pitch_bend_c, 0, 8772
1, 191870, Pitch_bend_c, 1, 8772
1, 191870, Pitch_bend_c, 2, 8772
1, 191870, Pitch_bend_c, 3, 8772
1, 191880, Note_on_c, 9, 82, 0
1, 191880, Note_on_c, 9, 42, 0
1, 191880, Note_on_c, 9, 82, 11
1, 191880, Note_on_c, 10, 23, 127
1, 191880, Control_c, 13, 7, 69
1, 191885, Pitch_bend_c, 0, 9065
1, 191885, Pitch_bend_c, 1, 9065
1, 191885, Pitch_bend_c, 2, 9065
1, 191885, Pitch_bend_c, 3, 9065
1, 191900, Pitch_bend_c, 0, 9400
1, 191900, Pitch_bend_c, 1, 9400
1, 191900, Pitch_bend_c, 2, 9400
1, 191900, Pitch_bend_c, 3, 9400
1, 191920, Pitch_bend_c, 0, 9543
1, 191920, Pitch_bend_c, 1, 9543
1, 191920, Pitch_bend_c, 2, 9543
1, 191920, Pitch_bend_c, 3, 9543
1, 191935, Pitch_bend_c, 0, 9830
1, 191935, Pitch_bend_c, 1, 9830
1, 191935, Pitch_bend_c, 2, 9830
1, 191935, Pitch_bend_c, 3, 9830
1, 191940, Control_c, 13, 7, 68
1, 191950, Pitch_bend_c, 0, 10110
1, 191950, Pitch_bend_c, 1, 10110
1, 191950, Pitch_bend_c, 2, 10110
1, 191950, Pitch_bend_c, 3, 10110
1, 191965, Pitch_bend_c, 0, 10253
1, 191965, Pitch_bend_c, 1, 10253
1, 191965, Pitch_bend_c, 2, 10253
1, 191965, Pitch_bend_c, 3, 10253
1, 191980, Pitch_bend_c, 0, 10397
1, 191980, Pitch_bend_c, 1, 10397
1, 191980, Pitch_bend_c, 2, 10397
1, 191980, Pitch_bend_c, 3, 10397
1, 192000, Note_on_c, 9, 82, 0
1, 192000, Note_on_c, 1, 71, 0
1, 192000, Note_on_c, 3, 83, 0
1, 192000, Note_on_c, 0, 47, 0
1, 192000, Note_on_c, 1, 83, 0
1, 192000, Note_on_c, 2, 83, 0
1, 192000, Note_on_c, 2, 95, 0
1, 192000, Note_on_c, 1, 35, 0
1, 192000, Note_on_c, 2, 59, 0
1, 192000, Note_on_c, 2, 71, 0
1, 192000, Note_on_c, 3, 47, 0
1, 192000, Pitch_bend_c, 0, 12165
1, 192000, Note_on_c, 0, 35, 95
1, 192000, Pitch_bend_c, 1, 12165
1, 192000, Note_on_c, 1, 59, 95
1, 192000, Note_on_c, 1, 71, 64
1, 192000, Note_on_c, 1, 23, 95
1, 192000, Pitch_bend_c, 2, 12165
1, 192000, Note_on_c, 2, 83, 64
1, 192000, Note_on_c, 2, 71, 64
1, 192000, Note_on_c, 2, 59, 127
1, 192000, Note_on_c, 2, 47, 95
1, 192000, Pitch_bend_c, 3, 12165
1, 192000, Note_on_c, 3, 71, 64
1, 192000, Note_on_c, 3, 35, 64
1, 192000, Note_on_c, 9, 82, 18
1, 192000, Note_on_c, 9, 42, 103
1, 192000, Note_on_c, 9, 35, 103
1, 192000, Control_c, 13, 7, 66
1, 192015, Pitch_bend_c, 0, 8192
1, 192015, Pitch_bend_c, 1, 8192
1, 192015, Pitch_bend_c, 2, 8192
1, 192015, Pitch_bend_c, 3, 8192
1, 192060, Control_c, 13, 7, 63
1, 192120, Note_on_c, 9, 35, 0
1, 192120, Note_on_c, 9, 42, 0
1, 192120, Note_on_c, 9, 82, 0
1, 192120, Note_on_c, 10, 23, 0
1, 192120, Note_on_c, 9, 82, 18
1, 192120, Note_on_c, 10, 23, 79
1, 192120, Control_c, 13, 7, 60
1, 192180, Note_on_c, 10, 23, 0
1, 192180, Control_c, 13, 7, 59
1, 192240, Note_on_c, 9, 82, 0
1, 192240, Note_on_c, 9, 82, 31
1, 192240, Note_on_c, 9, 42, 73
1, 192240, Note_on_c, 10, 23, 64
1, 192240, Control_c, 13, 7, 57
1, 192300, Note_on_c, 10, 23, 0
1, 192300, Control_c, 13, 7, 55
1, 192360, Note_on_c, 9, 42, 0
1, 192360, Note_on_c, 1, 71, 0
1, 192360, Note_on_c, 2, 47, 0
1, 192360, Note_on_c, 1, 59, 0
1, 192360, Note_on_c, 0, 35, 0
1, 192360, Note_on_c, 1, 23, 0
1, 192360, Note_on_c, 9, 82, 0
1, 192360, Note_on_c, 2, 71, 0
1, 192360, Note_on_c, 2, 83, 0
1, 192360, Note_on_c, 3, 71, 0
1, 192360, Note_on_c, 2, 59, 0
1, 192360, Note_on_c, 3, 35, 0
1, 192360, Pitch_bend_c, 0, 0
1, 192360, Note_on_c, 0, 47, 95
1, 192360, Pitch_bend_c, 1, 0
1, 192360, Note_on_c, 1, 71, 95
1, 192360, Note_on_c, 1, 83, 64
1, 192360, Note_on_c, 1, 35, 95
1, 192360, Pitch_bend_c, 2, 0
1, 192360, Note_on_c, 2, 95, 64
1, 192360, Note_on_c, 2, 83, 64
1, 192360, Note_on_c, 2, 71, 127
1, 192360, Note_on_c, 2, 59, 95
1, 192360, Pitch_bend_c, 3, 0
1, 192360, Note_on_c, 3, 83, 64
1, 192360, Note_on_c, 3, 47, 64
1, 192360, Note_on_c, 9, 82, 39
1, 192360, Note_on_c, 10, 23, 62
1, 192360, Control_c, 13, 7, 52
1, 192375, Pitch_bend_c, 0, 8192
1, 192375, Pitch_bend_c, 1, 8192
1, 192375, Pitch_bend_c, 2, 8192
1, 192375, Pitch_bend_c, 3, 8192
1, 192420, Note_on_c, 10, 23, 0
1, 192420, Control_c, 13, 7, 50
1, 192480, Note_on_c, 2, 59, 0
1, 192480, Note_on_c, 1, 83, 0
1, 192480, Note_on_c, 1, 71, 0
1, 192480, Note_on_c, 0, 47, 0
1, 192480, Note_on_c, 1, 35, 0
1, 192480, Note_on_c, 9, 82, 0
1, 192480, Note_on_c, 2, 83, 0
1, 192480, Note_on_c, 2, 95, 0
1, 192480, Note_on_c, 3, 47, 0
1, 192480, Note_on_c, 2, 71, 0
1, 192480, Note_on_c, 3, 83, 0
1, 192480, Note_on_c, 9, 82, 40
1, 192480, Note_on_c, 9, 42, 73
1, 192480, Note_on_c, 9, 40, 91
1, 192480, Note_on_c, 9, 35, 103
1, 192480, Note_on_c, 9, 28, 102
1, 192480, Note_on_c, 10, 23, 66
1, 192480, Control_c, 13, 7, 48
1, 192540, Note_on_c, 10, 23, 0
1, 192540, Control_c, 13, 7, 47
1, 192600, Note_on_c, 9, 40, 0
1, 192600, Note_on_c, 9, 42, 0
1, 192600, Note_on_c, 9, 82, 0
1, 192600, Note_on_c, 9, 28, 0
1, 192600, Note_on_c, 9, 35, 0
1, 192600, Note_on_c, 9, 82, 25
1, 192600, Note_on_c, 10, 23, 91
1, 192600, Control_c, 13, 7, 45
1, 192660, Note_on_c, 10, 23, 0
1, 192660, Control_c, 13, 7, 44
1, 192720, Note_on_c, 9, 82, 0
1, 192720, Note_on_c, 0, 47, 95
1, 192720, Note_on_c, 1, 71, 95
1, 192720, Note_on_c, 1, 83, 64
1, 192720, Note_on_c, 1, 35, 95
1, 192720, Note_on_c, 2, 95, 64
1, 192720, Note_on_c, 2, 83, 64
1, 192720, Note_on_c, 2, 71, 127
1, 192720, Note_on_c, 2, 59, 95
1, 192720, Note_on_c, 3, 83, 64
1, 192720, Note_on_c, 3, 47, 64
1, 192720, Note_on_c, 9, 82, 11
1, 192720, Note_on_c, 9, 42, 73
1, 192720, Note_on_c, 10, 23, 98
1, 192720, Control_c, 13, 7, 42
1, 192780, Note_on_c, 10, 23, 0
1, 192780, Control_c, 13, 7, 41
1, 192840, Note_on_c, 9, 42, 0
1, 192840, Note_on_c, 9, 82, 0
1, 192840, Note_on_c, 9, 82, 11
1, 192840, Note_on_c, 10, 23, 127
1, 192840, Control_c, 13, 7, 38
1, 192900, Control_c, 13, 7, 36
1, 192960, Note_on_c, 9, 82, 0
1, 192960, Note_on_c, 1, 71, 0
1, 192960, Note_on_c, 3, 83, 0
1, 192960, Note_on_c, 0, 47, 0
1, 192960, Note_on_c, 1, 83, 0
1, 192960, Note_on_c, 2, 83, 0
1, 192960, Note_on_c, 2, 95, 0
1, 192960, Note_on_c, 1, 35, 0
1, 192960, Note_on_c, 2, 59, 0
1, 192960, Note_on_c, 2, 71, 0
1, 192960, Note_on_c, 3, 47, 0
1, 192960, Note_on_c, 0, 47, 95
1, 192960, Note_on_c, 1, 71, 95
1, 192960, Note_on_c, 1, 83, 64
1, 192960, Note_on_c, 1, 35, 95
1, 192960, Note_on_c, 2, 95, 64
1, 192960, Note_on_c, 2, 83, 64
1, 192960, Note_on_c, 2, 71, 127
1, 192960, Note_on_c, 2, 59, 95
1, 192960, Note_on_c, 3, 83, 64
1, 192960, Note_on_c, 3, 47, 64
1, 192960, Note_on_c, 9, 82, 18
1, 192960, Note_on_c, 9, 42, 88
1, 192960, Note_on_c, 9, 35, 104
1, 192960, Control_c, 13, 7, 34
1, 192990, Pitch_bend_c, 0, 8049
1, 192990, Pitch_bend_c, 1, 8049
1, 192990, Pitch_bend_c, 2, 8049
1, 192990, Pitch_bend_c, 3, 8049
1, 193020, Note_on_c, 10, 23, 0
1, 193020, Pitch_bend_c, 0, 7899
1, 193020, Pitch_bend_c, 1, 7899
1, 193020, Pitch_bend_c, 2, 7899
1, 193020, Pitch_bend_c, 3, 7899
1, 193020, Control_c, 13, 7, 33
1, 193055, Pitch_bend_c, 0, 7756
1, 193055, Pitch_bend_c, 1, 7756
1, 193055, Pitch_bend_c, 2, 7756
1, 193055, Pitch_bend_c, 3, 7756
1, 193080, Note_on_c, 9, 35, 0
1, 193080, Note_on_c, 9, 42, 0
1, 193080, Note_on_c, 9, 82, 0
1, 193080, Note_on_c, 9, 82, 18
1, 193080, Note_on_c, 10, 23, 66
1, 193080, Control_c, 13, 7, 31
1, 193085, Pitch_bend_c, 0, 7612
1, 193085, Pitch_bend_c, 1, 7612
1, 193085, Pitch_bend_c, 2, 7612
1, 193085, Pitch_bend_c, 3, 7612
1, 193120, Pitch_bend_c, 0, 7469
1, 193120, Pitch_bend_c, 1, 7469
1, 193120, Pitch_bend_c, 2, 7469
1, 193120, Pitch_bend_c, 3, 7469
1, 193140, Note_on_c, 10, 23, 0
1, 193140, Note_on_c, 3, 83, 0
1, 193140, Note_on_c, 1, 71, 0
1, 193140, Note_on_c, 0, 47, 0
1, 193140, Note_on_c, 1, 83, 0
1, 193140, Note_on_c, 2, 83, 0
1, 193140, Note_on_c, 2, 95, 0
1, 193140, Note_on_c, 1, 35, 0
1, 193140, Note_on_c, 2, 59, 0
1, 193140, Note_on_c, 2, 71, 0
1, 193140, Note_on_c, 3, 47, 0
1, 193140, Control_c, 13, 7, 29
1, 193200, Note_on_c, 9, 82, 0
1, 193200, Note_on_c, 0, 47, 95
1, 193200, Note_on_c, 1, 71, 95
1, 193200, Note_on_c, 1, 83, 64
1, 193200, Note_on_c, 1, 35, 95
1, 193200, Note_on_c, 2, 95, 64
1, 193200, Note_on_c, 2, 83, 64
1, 193200, Note_on_c, 2, 71, 127
1, 193200, Note_on_c, 2, 59, 95
1, 193200, Note_on_c, 3, 83, 64
1, 193200, Note_on_c, 3, 47, 64
1, 193200, Note_on_c, 9, 82, 31
1, 193200, Note_on_c, 9, 42, 73
1, 193200, Note_on_c, 10, 23, 74
1, 193200, Control_c, 13, 7, 29
1, 193215, Pitch_bend_c, 0, 7319
1, 193215, Pitch_bend_c, 1, 7319
1, 193215, Pitch_bend_c, 2, 7319
1, 193215, Pitch_bend_c, 3, 7319
1, 193260, Note_on_c, 10, 23, 0
1, 193260, Pitch_bend_c, 0, 7175
1, 193260, Pitch_bend_c, 1, 7175
1, 193260, Pitch_bend_c, 2, 7175
1, 193260, Pitch_bend_c, 3, 7175
1, 193260, Control_c, 13, 7, 26
1, 193280, Pitch_bend_c, 0, 6984
1, 193280, Pitch_bend_c, 1, 6984
1, 193280, Pitch_bend_c, 2, 6984
1, 193280, Pitch_bend_c, 3, 6984
1, 193310, Pitch_bend_c, 0, 6841
1, 193310, Pitch_bend_c, 1, 6841
1, 193310, Pitch_bend_c, 2, 6841
1, 193310, Pitch_bend_c, 3, 6841
1, 193320, Note_on_c, 9, 42, 0
1, 193320, Note_on_c, 9, 82, 0
1, 193320, Note_on_c, 9, 82, 39
1, 193320, Note_on_c, 10, 23, 84
1, 193320, Control_c, 13, 7, 24
1, 193340, Pitch_bend_c, 0, 6697
1, 193340, Pitch_bend_c, 1, 6697
1, 193340, Pitch_bend_c, 2, 6697
1, 193340, Pitch_bend_c, 3, 6697
1, 193380, Note_on_c, 10, 23, 0
1, 193380, Control_c, 13, 7, 21
1, 193420, Pitch_bend_c, 0, 6554
1, 193420, Pitch_bend_c, 1, 6554
1, 193420, Pitch_bend_c, 2, 6554
1, 193420, Pitch_bend_c, 3, 6554
1, 193440, Note_on_c, 3, 47, 0
1, 193440, Note_on_c, 3, 83, 0
1, 193440, Note_on_c, 1, 71, 0
1, 193440, Note_on_c, 0, 47, 0
1, 193440, Note_on_c, 1, 35, 0
1, 193440, Note_on_c, 9, 82, 0
1, 193440, Note_on_c, 2, 83, 0
1, 193440, Note_on_c, 2, 95, 0
1, 193440, Note_on_c, 1, 83, 0
1, 193440, Note_on_c, 2, 71, 0
1, 193440, Note_on_c, 2, 59, 0
1, 193440, Note_on_c, 0, 47, 95
1, 193440, Note_on_c, 1, 71, 95
1, 193440, Note_on_c, 1, 83, 64
1, 193440, Note_on_c, 1, 35, 95
1, 193440, Note_on_c, 2, 95, 64
1, 193440, Note_on_c, 2, 83, 64
1, 193440, Note_on_c, 2, 71, 127
1, 193440, Note_on_c, 2, 59, 95
1, 193440, Note_on_c, 3, 83, 64
1, 193440, Note_on_c, 3, 47, 64
1, 193440, Note_on_c, 9, 82, 40
1, 193440, Note_on_c, 9, 42, 73
1, 193440, Note_on_c, 9, 40, 92
1, 193440, Note_on_c, 9, 35, 104
1, 193440, Note_on_c, 9, 28, 102
1, 193440, Note_on_c, 10, 35, 127
1, 193440, Control_c, 13, 7, 19
1, 193470, Pitch_bend_c, 0, 6418
1, 193470, Pitch_bend_c, 1, 6418
1, 193470, Pitch_bend_c, 2, 6418
1, 193470, Pitch_bend_c, 3, 6418
1, 193485, Pitch_bend_c, 0, 6274
1, 193485, Pitch_bend_c, 1, 6274
1, 193485, Pitch_bend_c, 2, 6274
1, 193485, Pitch_bend_c, 3, 6274
1, 193500, Pitch_bend_c, 0, 6131
1, 193500, Pitch_bend_c, 1, 6131
1, 193500, Pitch_bend_c, 2, 6131
1, 193500, Pitch_bend_c, 3, 6131
1, 193500, Control_c, 13, 7, 17
1, 193520, Pitch_bend_c, 0, 5987
1, 193520, Pitch_bend_c, 1, 5987
1, 193520, Pitch_bend_c, 2, 5987
1, 193520, Pitch_bend_c, 3, 5987
1, 193535, Pitch_bend_c, 0, 5803
1, 193535, Pitch_bend_c, 1, 5803
1, 193535, Pitch_bend_c, 2, 5803
1, 193535, Pitch_bend_c, 3, 5803
1, 193550, Pitch_bend_c, 0, 5660
1, 193550, Pitch_bend_c, 1, 5660
1, 193550, Pitch_bend_c, 2, 5660
1, 193550, Pitch_bend_c, 3, 5660
1, 193560, Note_on_c, 9, 28, 0
1, 193560, Note_on_c, 9, 35, 0
1, 193560, Note_on_c, 9, 40, 0
1, 193560, Note_on_c, 9, 42, 0
1, 193560, Note_on_c, 9, 82, 0
1, 193560, Note_on_c, 9, 82, 25
1, 193560, Control_c, 13, 7, 15
1, 193565, Pitch_bend_c, 0, 5516
1, 193565, Pitch_bend_c, 1, 5516
1, 193565, Pitch_bend_c, 2, 5516
1, 193565, Pitch_bend_c, 3, 5516
1, 193580, Pitch_bend_c, 0, 5380
1, 193580, Pitch_bend_c, 1, 5380
1, 193580, Pitch_bend_c, 2, 5380
1, 193580, Pitch_bend_c, 3, 5380
1, 193600, Pitch_bend_c, 0, 5237
1, 193600, Pitch_bend_c, 1, 5237
1, 193600, Pitch_bend_c, 2, 5237
1, 193600, Pitch_bend_c, 3, 5237
1, 193620, Note_on_c, 10, 35, 0
1, 193620, Control_c, 13, 7, 13
1, 193630, Pitch_bend_c, 0, 5100
1, 193630, Pitch_bend_c, 1, 5100
1, 193630, Pitch_bend_c, 2, 5100
1, 193630, Pitch_bend_c, 3, 5100
1, 193680, Note_on_c, 3, 83, 0
1, 193680, Note_on_c, 2, 59, 0
1, 193680, Note_on_c, 1, 83, 0
1, 193680, Note_on_c, 1, 71, 0
1, 193680, Note_on_c, 0, 47, 0
1, 193680, Note_on_c, 9, 82, 0
1, 193680, Note_on_c, 2, 95, 0
1, 193680, Note_on_c, 1, 35, 0
1, 193680, Note_on_c, 2, 83, 0
1, 193680, Note_on_c, 2, 71, 0
1, 193680, Note_on_c, 3, 47, 0
1, 193680, Note_on_c, 0, 47, 95
1, 193680, Note_on_c, 1, 71, 95
1, 193680, Note_on_c, 1, 83, 64
1, 193680, Note_on_c, 1, 35, 95
1, 193680, Note_on_c, 2, 95, 64
1, 193680, Note_on_c, 2, 83, 64
1, 193680, Note_on_c, 2, 71, 127
1, 193680, Note_on_c, 2, 59, 95
1, 193680, Note_on_c, 3, 83, 64
1, 193680, Note_on_c, 3, 47, 64
1, 193680, Note_on_c, 9, 82, 11
1, 193680, Note_on_c, 9, 42, 73
1, 193680, Note_on_c, 10, 23, 103
1, 193680, Control_c, 13, 7, 11
1, 193695, Pitch_bend_c, 0, 4963
1, 193695, Pitch_bend_c, 1, 4963
1, 193695, Pitch_bend_c, 2, 4963
1, 193695, Pitch_bend_c, 3, 4963
1, 193710, Pitch_bend_c, 0, 4636
1, 193710, Pitch_bend_c, 1, 4636
1, 193710, Pitch_bend_c, 2, 4636
1, 193710, Pitch_bend_c, 3, 4636
1, 193725, Pitch_bend_c, 0, 4499
1, 193725, Pitch_bend_c, 1, 4499
1, 193725, Pitch_bend_c, 2, 4499
1, 193725, Pitch_bend_c, 3, 4499
1, 193740, Note_on_c, 10, 23, 0
1, 193740, Pitch_bend_c, 0, 4083
1, 193740, Pitch_bend_c, 1, 4083
1, 193740, Pitch_bend_c, 2, 4083
1, 193740, Pitch_bend_c, 3, 4083
1, 193740, Control_c, 13, 7, 9
1, 193760, Pitch_bend_c, 0, 3810
1, 193760, Pitch_bend_c, 1, 3810
1, 193760, Pitch_bend_c, 2, 3810
1, 193760, Pitch_bend_c, 3, 3810
1, 193775, Pitch_bend_c, 0, 3359
1, 193775, Pitch_bend_c, 1, 3359
1, 193775, Pitch_bend_c, 2, 3359
1, 193775, Pitch_bend_c, 3, 3359
1, 193790, Pitch_bend_c, 0, 3086
1, 193790, Pitch_bend_c, 1, 3086
1, 193790, Pitch_bend_c, 2, 3086
1, 193790, Pitch_bend_c, 3, 3086
1, 193800, Note_on_c, 9, 42, 0
1, 193800, Note_on_c, 9, 82, 0
1, 193800, Note_on_c, 9, 82, 11
1, 193800, Note_on_c, 10, 35, 127
1, 193800, Control_c, 13, 7, 8
1, 193805, Pitch_bend_c, 0, 2820
1, 193805, Pitch_bend_c, 1, 2820
1, 193805, Pitch_bend_c, 2, 2820
1, 193805, Pitch_bend_c, 3, 2820
1, 193820, Pitch_bend_c, 0, 2683
1, 193820, Pitch_bend_c, 1, 2683
1, 193820, Pitch_bend_c, 2, 2683
1, 193820, Pitch_bend_c, 3, 2683
1, 193840, Pitch_bend_c, 0, 2369
1, 193840, Pitch_bend_c, 1, 2369
1, 193840, Pitch_bend_c, 2, 2369
1, 193840, Pitch_bend_c, 3, 2369
1, 193855, Pitch_bend_c, 0, 2240
1, 193855, Pitch_bend_c, 1, 2240
1, 193855, Pitch_bend_c, 2, 2240
1, 193855, Pitch_bend_c, 3, 2240
1, 193860, Control_c, 13, 7, 6
1, 193885, Pitch_bend_c, 0, 2103
1, 193885, Pitch_bend_c, 1, 2103
1, 193885, Pitch_bend_c, 2, 2103
1, 193885, Pitch_bend_c, 3, 2103
1, 193920, Note_on_c, 10, 35, 0
1, 193920, Note_on_c, 3, 47, 0
1, 193920, Note_on_c, 3, 83, 0
1, 193920, Note_on_c, 13, 67, 0
1, 193920, Note_on_c, 13, 73, 0
1, 193920, Note_on_c, 1, 35, 0
1, 193920, Note_on_c, 13, 62, 0
1, 193920, Note_on_c, 9, 57, 0
1, 193920, Note_on_c, 13, 60, 0
1, 193920, Note_on_c, 13, 75, 0
1, 193920, Note_on_c, 13, 71, 0
1, 193920, Note_on_c, 13, 63, 0
1, 193920, Note_on_c, 13, 69, 0
1, 193920, Note_on_c, 13, 65, 0
1, 193920, Note_on_c, 13, 70, 0
1, 193920, Note_on_c, 13, 61, 0
1, 193920, Note_on_c, 9, 49, 0
1, 193920, Note_on_c, 2, 59, 0
1, 193920, Note_on_c, 2, 71, 0
1, 193920, Note_on_c, 2, 95, 0
1, 193920, Note_on_c, 13, 72, 0
1, 193920, Note_on_c, 0, 47, 0
1, 193920, Note_on_c, 13, 74, 0
1, 193920, Note_on_c, 13, 64, 0
1, 193920, Note_on_c, 13, 66, 0
1, 193920, Note_on_c, 9, 52, 0
1, 193920, Note_on_c, 2, 83, 0
1, 193920, Note_on_c, 1, 71, 0
1, 193920, Note_on_c, 1, 83, 0
1, 193920, Note_on_c, 9, 82, 0
1, 193920, Note_on_c, 13, 68, 0
1, 193920, Pitch_bend_c, 0, 8192
1, 193920, Note_on_c, 0, 35, 95
1, 193920, Pitch_bend_c, 1, 8192
1, 193920, Note_on_c, 1, 59, 95
1, 193920, Note_on_c, 1, 71, 64
1, 193920, Note_on_c, 1, 23, 95
1, 193920, Pitch_bend_c, 2, 8192
1, 193920, Note_on_c, 2, 83, 94
1, 193920, Note_on_c, 2, 71, 64
1, 193920, Note_on_c, 2, 59, 127
1, 193920, Note_on_c, 2, 47, 95
1, 193920, Pitch_bend_c, 3, 8192
1, 193920, Note_on_c, 3, 71, 64
1, 193920, Note_on_c, 3, 35, 64
1, 193920, Note_on_c, 9, 42, 103
1, 193920, Note_on_c, 9, 35, 103
1, 193920, Note_on_c, 9, 82, 18
1, 193920, Note_on_c, 10, 23, 127
1, 193920, Control_c, 13, 7, 0
1, 193930, Pitch_bend_c, 4, 8192
1, 193930, Pitch_bend_c, 6, 8192
1, 194040, Note_on_c, 9, 82, 0
1, 194040, Note_on_c, 9, 35, 0
1, 194040, Note_on_c, 9, 42, 0
1, 194040, Note_on_c, 9, 82, 18
1, 194100, Note_on_c, 10, 23, 0
1, 194160, Note_on_c, 9, 82, 0
1, 194160, Note_on_c, 9, 42, 73
1, 194160, Note_on_c, 9, 82, 31
1, 194160, Note_on_c, 10, 23, 93
1, 194220, Note_on_c, 10, 23, 0
1, 194280, Note_on_c, 2, 83, 0
1, 194280, Note_on_c, 1, 59, 0
1, 194280, Note_on_c, 3, 71, 0
1, 194280, Note_on_c, 1, 71, 0
1, 194280, Note_on_c, 1, 23, 0
1, 194280, Note_on_c, 0, 35, 0
1, 194280, Note_on_c, 2, 71, 0
1, 194280, Note_on_c, 9, 42, 0
1, 194280, Note_on_c, 3, 35, 0
1, 194280, Note_on_c, 2, 59, 0
1, 194280, Note_on_c, 9, 82, 0
1, 194280, Note_on_c, 2, 47, 0
1, 194280, Pitch_bend_c, 0, 0
1, 194280, Note_on_c, 0, 47, 95
1, 194280, Pitch_bend_c, 1, 0
1, 194280, Note_on_c, 1, 71, 95
1, 194280, Note_on_c, 1, 83, 64
1, 194280, Note_on_c, 1, 35, 95
1, 194280, Pitch_bend_c, 2, 0
1, 194280, Note_on_c, 2, 95, 64
1, 194280, Note_on_c, 2, 83, 64
1, 194280, Note_on_c, 2, 71, 127
1, 194280, Note_on_c, 2, 59, 95
1, 194280, Pitch_bend_c, 3, 0
1, 194280, Note_on_c, 3, 83, 64
1, 194280, Note_on_c, 3, 47, 64
1, 194280, Note_on_c, 9, 82, 39
1, 194280, Note_on_c, 10, 23, 75
1, 194295, Pitch_bend_c, 0, 8192
1, 194295, Pitch_bend_c, 1, 8192
1, 194295, Pitch_bend_c, 2, 8192
1, 194295, Pitch_bend_c, 3, 8192
1, 194340, Note_on_c, 10, 23, 0
1, 194400, Note_on_c, 1, 71, 0
1, 194400, Note_on_c, 2, 59, 0
1, 194400, Note_on_c, 1, 83, 0
1, 194400, Note_on_c, 1, 35, 0
1, 194400, Note_on_c, 0, 47, 0
1, 194400, Note_on_c, 2, 95, 0
1, 194400, Note_on_c, 2, 83, 0
1, 194400, Note_on_c, 3, 83, 0
1, 194400, Note_on_c, 2, 71, 0
1, 194400, Note_on_c, 9, 82, 0
1, 194400, Note_on_c, 3, 47, 0
1, 194400, Note_on_c, 9, 42, 73
1, 194400, Note_on_c, 9, 35, 102
1, 194400, Note_on_c, 9, 40, 89
1, 194400, Note_on_c, 9, 28, 103
1, 194400, Note_on_c, 9, 82, 40
1, 194400, Note_on_c, 10, 23, 68
1, 194460, Note_on_c, 10, 23, 0
1, 194520, Note_on_c, 9, 35, 0
1, 194520, Note_on_c, 9, 40, 0
1, 194520, Note_on_c, 9, 42, 0
1, 194520, Note_on_c, 9, 82, 0
1, 194520, Note_on_c, 9, 28, 0
1, 194520, Note_on_c, 9, 82, 25
1, 194520, Note_on_c, 10, 23, 75
1, 194580, Note_on_c, 10, 23, 0
1, 194640, Note_on_c, 9, 82, 0
1, 194640, Note_on_c, 0, 47, 95
1, 194640, Note_on_c, 1, 71, 95
1, 194640, Note_on_c, 1, 83, 64
1, 194640, Note_on_c, 1, 35, 95
1, 194640, Note_on_c, 2, 95, 64
1, 194640, Note_on_c, 2, 83, 64
1, 194640, Note_on_c, 2, 71, 127
1, 194640, Note_on_c, 2, 59, 95
1, 194640, Note_on_c, 3, 83, 64
1, 194640, Note_on_c, 3, 47, 64
1, 194640, Note_on_c, 9, 42, 73
1, 194640, Note_on_c, 9, 82, 11
1, 194640, Note_on_c, 10, 23, 99
1, 194700, Note_on_c, 10, 23, 0
1, 194760, Note_on_c, 9, 82, 0
1, 194760, Note_on_c, 9, 42, 0
1, 194760, Note_on_c, 9, 82, 11
1, 194760, Note_on_c, 10, 23, 127
1, 194880, Note_on_c, 9, 82, 0
1, 194880, Note_on_c, 2, 59, 0
1, 194880, Note_on_c, 3, 83, 0
1, 194880, Note_on_c, 1, 83, 0
1, 194880, Note_on_c, 1, 35, 0
1, 194880, Note_on_c, 2, 71, 0
1, 194880, Note_on_c, 2, 95, 0
1, 194880, Note_on_c, 2, 83, 0
1, 194880, Note_on_c, 3, 47, 0
1, 194880, Note_on_c, 0, 47, 0
1, 194880, Note_on_c, 1, 71, 0
1, 194880, Note_on_c, 9, 42, 88
1, 194880, Note_on_c, 9, 35, 102
1, 194880, Note_on_c, 9, 82, 18
1, 194940, Note_on_c, 10, 23, 0
1, 195000, Note_on_c, 9, 42, 0
1, 195000, Note_on_c, 9, 35, 0
1, 195000, Note_on_c, 9, 82, 0
1, 195000, Note_on_c, 0, 43, 95
1, 195000, Note_on_c, 1, 67, 95
1, 195000, Note_on_c, 1, 79, 64
1, 195000, Note_on_c, 1, 31, 95
1, 195000, Note_on_c, 2, 91, 64
1, 195000, Note_on_c, 2, 79, 64
1, 195000, Note_on_c, 2, 67, 127
1, 195000, Note_on_c, 2, 55, 95
1, 195000, Note_on_c, 3, 79, 64
1, 195000, Note_on_c, 3, 43, 64
1, 195000, Note_on_c, 9, 82, 18
1, 195000, Note_on_c, 10, 23, 93
1, 195060, Note_on_c, 10, 23, 0
1, 195120, Note_on_c, 1, 67, 0
1, 195120, Note_on_c, 2, 55, 0
1, 195120, Note_on_c, 1, 79, 0
1, 195120, Note_on_c, 1, 31, 0
1, 195120, Note_on_c, 0, 43, 0
1, 195120, Note_on_c, 2, 91, 0
1, 195120, Note_on_c, 2, 79, 0
1, 195120, Note_on_c, 3, 79, 0
1, 195120, Note_on_c, 2, 67, 0
1, 195120, Note_on_c, 9, 82, 0
1, 195120, Note_on_c, 3, 43, 0
1, 195120, Pitch_bend_c, 0, 5100
1, 195120, Note_on_c, 0, 47, 95
1, 195120, Pitch_bend_c, 1, 5100
1, 195120, Note_on_c, 1, 71, 95
1, 195120, Note_on_c, 1, 83, 64
1, 195120, Note_on_c, 1, 35, 95
1, 195120, Pitch_bend_c, 2, 5100
1, 195120, Note_on_c, 2, 95, 64
1, 195120, Note_on_c, 2, 83, 64
1, 195120, Note_on_c, 2, 71, 127
1, 195120, Note_on_c, 2, 59, 95
1, 195120, Pitch_bend_c, 3, 5100
1, 195120, Note_on_c, 3, 83, 64
1, 195120, Note_on_c, 3, 47, 64
1, 195120, Note_on_c, 9, 42, 73
1, 195120, Note_on_c, 9, 82, 31
1, 195120, Note_on_c, 10, 23, 75
1, 195135, Pitch_bend_c, 0, 6697
1, 195135, Pitch_bend_c, 1, 6697
1, 195135, Pitch_bend_c, 2, 6697
1, 195135, Pitch_bend_c, 3, 6697
1, 195180, Note_on_c, 10, 23, 0
1, 195200, Pitch_bend_c, 0, 6841
1, 195200, Pitch_bend_c, 1, 6841
1, 195200, Pitch_bend_c, 2, 6841
1, 195200, Pitch_bend_c, 3, 6841
1, 195230, Pitch_bend_c, 0, 6984
1, 195230, Pitch_bend_c, 1, 6984
1, 195230, Pitch_bend_c, 2, 6984
1, 195230, Pitch_bend_c, 3, 6984
1, 195240, Note_on_c, 9, 82, 0
1, 195240, Note_on_c, 9, 42, 0
1, 195240, Note_on_c, 9, 82, 39
1, 195240, Note_on_c, 10, 23, 59
1, 195245, Pitch_bend_c, 0, 7175
1, 195245, Pitch_bend_c, 1, 7175
1, 195245, Pitch_bend_c, 2, 7175
1, 195245, Pitch_bend_c, 3, 7175
1, 195260, Pitch_bend_c, 0, 7319
1, 195260, Pitch_bend_c, 1, 7319
1, 195260, Pitch_bend_c, 2, 7319
1, 195260, Pitch_bend_c, 3, 7319
1, 195280, Pitch_bend_c, 0, 7612
1, 195280, Pitch_bend_c, 1, 7612
1, 195280, Pitch_bend_c, 2, 7612
1, 195280, Pitch_bend_c, 3, 7612
1, 195295, Pitch_bend_c, 0, 7756
1, 195295, Pitch_bend_c, 1, 7756
1, 195295, Pitch_bend_c, 2, 7756
1, 195295, Pitch_bend_c, 3, 7756
1, 195300, Note_on_c, 10, 23, 0
1, 195310, Pitch_bend_c, 0, 7899
1, 195310, Pitch_bend_c, 1, 7899
1, 195310, Pitch_bend_c, 2, 7899
1, 195310, Pitch_bend_c, 3, 7899
1, 195325, Pitch_bend_c, 0, 8049
1, 195325, Pitch_bend_c, 1, 8049
1, 195325, Pitch_bend_c, 2, 8049
1, 195325, Pitch_bend_c, 3, 8049
1, 195340, Pitch_bend_c, 0, 8192
1, 195340, Pitch_bend_c, 1, 8192
1, 195340, Pitch_bend_c, 2, 8192
1, 195340, Pitch_bend_c, 3, 8192
1, 195360, Note_on_c, 2, 83, 0
1, 195360, Note_on_c, 3, 83, 0
1, 195360, Note_on_c, 1, 83, 0
1, 195360, Note_on_c, 1, 35, 0
1, 195360, Note_on_c, 0, 47, 0
1, 195360, Note_on_c, 2, 95, 0
1, 195360, Note_on_c, 1, 71, 0
1, 195360, Note_on_c, 3, 47, 0
1, 195360, Note_on_c, 2, 71, 0
1, 195360, Note_on_c, 9, 82, 0
1, 195360, Note_on_c, 2, 59, 0
1, 195360, Note_on_c, 0, 47, 95
1, 195360, Note_on_c, 1, 71, 95
1, 195360, Note_on_c, 1, 83, 64
1, 195360, Note_on_c, 1, 35, 95
1, 195360, Note_on_c, 2, 95, 64
1, 195360, Note_on_c, 2, 83, 64
1, 195360, Note_on_c, 2, 71, 127
1, 195360, Note_on_c, 2, 59, 95
1, 195360, Note_on_c, 3, 83, 64
1, 195360, Note_on_c, 3, 47, 64
1, 195360, Note_on_c, 9, 42, 73
1, 195360, Note_on_c, 9, 40, 90
1, 195360, Note_on_c, 9, 35, 103
1, 195360, Note_on_c, 9, 28, 103
1, 195360, Note_on_c, 9, 82, 40
1, 195360, Note_on_c, 10, 23, 58
1, 195420, Note_on_c, 10, 23, 0
1, 195480, Note_on_c, 9, 82, 0
1, 195480, Note_on_c, 9, 40, 0
1, 195480, Note_on_c, 9, 28, 0
1, 195480, Note_on_c, 9, 42, 0
1, 195480, Note_on_c, 9, 35, 0
1, 195480, Note_on_c, 9, 82, 25
1, 195480, Note_on_c, 10, 23, 72
1, 195540, Note_on_c, 10, 23, 0
1, 195600, Note_on_c, 2, 95, 0
1, 195600, Note_on_c, 3, 83, 0
1, 195600, Note_on_c, 1, 83, 0
1, 195600, Note_on_c, 1, 35, 0
1, 195600, Note_on_c, 2, 71, 0
1, 195600, Note_on_c, 2, 83, 0
1, 195600, Note_on_c, 1, 71, 0
1, 195600, Note_on_c, 0, 47, 0
1, 195600, Note_on_c, 3, 47, 0
1, 195600, Note_on_c, 9, 82, 0
1, 195600, Note_on_c, 2, 59, 0
1, 195600, Note_on_c, 0, 47, 95
1, 195600, Note_on_c, 1, 71, 95
1, 195600, Note_on_c, 1, 83, 64
1, 195600, Note_on_c, 1, 35, 95
1, 195600, Note_on_c, 2, 95, 64
1, 195600, Note_on_c, 2, 83, 64
1, 195600, Note_on_c, 2, 71, 127
1, 195600, Note_on_c, 2, 59, 95
1, 195600, Note_on_c, 3, 83, 64
1, 195600, Note_on_c, 3, 47, 64
1, 195600, Note_on_c, 9, 42, 73
1, 195600, Note_on_c, 9, 82, 11
1, 195600, Note_on_c, 10, 23, 91
1, 195630, Pitch_bend_c, 0, 8335
1, 195630, Pitch_bend_c, 1, 8335
1, 195630, Pitch_bend_c, 2, 8335
1, 195630, Pitch_bend_c, 3, 8335
1, 195660, Note_on_c, 10, 23, 0
1, 195680, Pitch_bend_c, 0, 8485
1, 195680, Pitch_bend_c, 1, 8485
1, 195680, Pitch_bend_c, 2, 8485
1, 195680, Pitch_bend_c, 3, 8485
1, 195695, Pitch_bend_c, 0, 8628
1, 195695, Pitch_bend_c, 1, 8628
1, 195695, Pitch_bend_c, 2, 8628
1, 195695, Pitch_bend_c, 3, 8628
1, 195710, Pitch_bend_c, 0, 8772
1, 195710, Pitch_bend_c, 1, 8772
1, 195710, Pitch_bend_c, 2, 8772
1, 195710, Pitch_bend_c, 3, 8772
1, 195720, Note_on_c, 9, 82, 0
1, 195720, Note_on_c, 9, 42, 0
1, 195720, Note_on_c, 9, 82, 11
1, 195720, Note_on_c, 10, 23, 127
1, 195725, Pitch_bend_c, 0, 9065
1, 195725, Pitch_bend_c, 1, 9065
1, 195725, Pitch_bend_c, 2, 9065
1, 195725, Pitch_bend_c, 3, 9065
1, 195740, Pitch_bend_c, 0, 9400
1, 195740, Pitch_bend_c, 1, 9400
1, 195740, Pitch_bend_c, 2, 9400
1, 195740, Pitch_bend_c, 3, 9400
1, 195760, Pitch_bend_c, 0, 9543
1, 195760, Pitch_bend_c, 1, 9543
1, 195760, Pitch_bend_c, 2, 9543
1, 195760, Pitch_bend_c, 3, 9543
1, 195775, Pitch_bend_c, 0, 9830
1, 195775, Pitch_bend_c, 1, 9830
1, 195775, Pitch_bend_c, 2, 9830
1, 195775, Pitch_bend_c, 3, 9830
1, 195790, Pitch_bend_c, 0, 10110
1, 195790, Pitch_bend_c, 1, 10110
1, 195790, Pitch_bend_c, 2, 10110
1, 195790, Pitch_bend_c, 3, 10110
1, 195805, Pitch_bend_c, 0, 10253
1, 195805, Pitch_bend_c, 1, 10253
1, 195805, Pitch_bend_c, 2, 10253
1, 195805, Pitch_bend_c, 3, 10253
1, 195820, Pitch_bend_c, 0, 10397
1, 195820, Pitch_bend_c, 1, 10397
1, 195820, Pitch_bend_c, 2, 10397
1, 195820, Pitch_bend_c, 3, 10397
1, 195840, Note_on_c, 9, 82, 0
1, 195840, Note_on_c, 2, 59, 0
1, 195840, Note_on_c, 3, 83, 0
1, 195840, Note_on_c, 1, 83, 0
1, 195840, Note_on_c, 1, 35, 0
1, 195840, Note_on_c, 2, 71, 0
1, 195840, Note_on_c, 2, 95, 0
1, 195840, Note_on_c, 2, 83, 0
1, 195840, Note_on_c, 3, 47, 0
1, 195840, Note_on_c, 0, 47, 0
1, 195840, Note_on_c, 1, 71, 0
1, 195840, Note_on_c, 4, 67, 101
1, 195840, Note_on_c, 4, 79, 101
1, 195840, Note_on_c, 4, 71, 101
1, 195840, Note_on_c, 4, 83, 101
1, 195840, Note_on_c, 6, 71, 101
1, 195840, Note_on_c, 6, 55, 101
1, 195840, Note_on_c, 6, 67, 101
1, 195840, Note_on_c, 6, 59, 101
1, 195840, Note_on_c, 9, 42, 103
1, 195840, Note_on_c, 9, 35, 103
1, 195960, Note_on_c, 9, 35, 0
1, 195960, Note_on_c, 9, 42, 0
1, 195960, Note_on_c, 10, 23, 0
1, 196080, Note_on_c, 4, 83, 0
1, 196080, Note_on_c, 4, 67, 0
1, 196080, Note_on_c, 6, 71, 0
1, 196080, Note_on_c, 4, 79, 0
1, 196080, Note_on_c, 6, 59, 0
1, 196080, Note_on_c, 6, 67, 0
1, 196080, Note_on_c, 6, 55, 0
1, 196080, Note_on_c, 4, 71, 0
1, 196080, Note_on_c, 9, 42, 73
1, 196200, Note_on_c, 9, 42, 0
1, 196200, Note_on_c, 4, 67, 101
1, 196200, Note_on_c, 4, 79, 101
1, 196200, Note_on_c, 4, 71, 101
1, 196200, Note_on_c, 4, 83, 101
1, 196200, Note_on_c, 6, 71, 101
1, 196200, Note_on_c, 6, 59, 101
1, 196200, Note_on_c, 6, 67, 101
1, 196200, Note_on_c, 6, 55, 101
1, 196320, Note_on_c, 9, 42, 73
1, 196320, Note_on_c, 9, 35, 102
1, 196320, Note_on_c, 9, 40, 89
1, 196320, Note_on_c, 9, 28, 103
1, 196440, Note_on_c, 9, 28, 0
1, 196440, Note_on_c, 4, 79, 0
1, 196440, Note_on_c, 6, 55, 0
1, 196440, Note_on_c, 4, 71, 0
1, 196440, Note_on_c, 4, 83, 0
1, 196440, Note_on_c, 4, 67, 0
1, 196440, Note_on_c, 6, 71, 0
1, 196440, Note_on_c, 6, 59, 0
1, 196440, Note_on_c, 9, 42, 0
1, 196440, Note_on_c, 6, 67, 0
1, 196440, Note_on_c, 9, 40, 0
1, 196440, Note_on_c, 9, 35, 0
1, 196560, Note_on_c, 4, 83, 101
1, 196560, Note_on_c, 4, 71, 101
1, 196560, Note_on_c, 4, 79, 101
1, 196560, Note_on_c, 4, 67, 101
1, 196560, Note_on_c, 6, 71, 101
1, 196560, Note_on_c, 6, 59, 101
1, 196560, Note_on_c, 6, 67, 101
1, 196560, Note_on_c, 6, 55, 101
1, 196800, Note_on_c, 6, 55, 0
1, 196800, Note_on_c, 4, 83, 0
1, 196800, Note_on_c, 6, 71, 0
1, 196800, Note_on_c, 4, 71, 0
1, 196800, Note_on_c, 4, 79, 0
1, 196800, Note_on_c, 4, 67, 0
1, 196800, Note_on_c, 6, 59, 0
1, 196800, Note_on_c, 6, 67, 0
1, 196800, Note_on_c, 4, 69, 101
1, 196800, Note_on_c, 4, 81, 101
1, 196800, Note_on_c, 4, 73, 101
1, 196800, Note_on_c, 4, 85, 101
1, 196800, Note_on_c, 6, 73, 101
1, 196800, Note_on_c, 6, 61, 101
1, 196800, Note_on_c, 6, 69, 101
1, 196800, Note_on_c, 6, 57, 101
1, 196800, Note_on_c, 8, 52, 127
1, 196800, Note_on_c, 9, 41, 127
1, 196800, Note_on_c, 12, 60, 103
1, 196920, Note_on_c, 9, 41, 0
1, 197040, Note_on_c, 6, 57, 0
1, 197040, Note_on_c, 4, 73, 0
1, 197040, Note_on_c, 4, 85, 0
1, 197040, Note_on_c, 4, 69, 0
1, 197040, Note_on_c, 6, 73, 0
1, 197040, Note_on_c, 4, 81, 0
1, 197040, Note_on_c, 6, 69, 0
1, 197040, Note_on_c, 6, 61, 0
1, 197160, Note_on_c, 4, 85, 101
1, 197160, Note_on_c, 4, 73, 101
1, 197160, Note_on_c, 4, 81, 101
1, 197160, Note_on_c, 4, 69, 101
1, 197160, Note_on_c, 6, 73, 101
1, 197160, Note_on_c, 6, 61, 101
1, 197160, Note_on_c, 6, 69, 101
1, 197160, Note_on_c, 6, 57, 101
1, 197160, Note_on_c, 9, 44, 80
1, 197160, Note_on_c, 9, 38, 80
1, 197280, Note_on_c, 9, 38, 0
1, 197280, Note_on_c, 9, 44, 0
1, 197280, Note_on_c, 9, 38, 80
1, 197400, Note_on_c, 9, 38, 0
1, 197400, Note_on_c, 6, 69, 0
1, 197400, Note_on_c, 4, 85, 0
1, 197400, Note_on_c, 4, 73, 0
1, 197400, Note_on_c, 6, 61, 0
1, 197400, Note_on_c, 4, 81, 0
1, 197400, Note_on_c, 6, 73, 0
1, 197400, Note_on_c, 6, 57, 0
1, 197400, Note_on_c, 4, 69, 0
1, 197520, Note_on_c, 8, 52, 0
1, 197520, Note_on_c, 4, 69, 101
1, 197520, Note_on_c, 4, 81, 101
1, 197520, Note_on_c, 4, 73, 101
1, 197520, Note_on_c, 4, 85, 101
1, 197520, Note_on_c, 6, 73, 101
1, 197520, Note_on_c, 6, 61, 101
1, 197520, Note_on_c, 6, 69, 101
1, 197520, Note_on_c, 6, 57, 101
1, 197520, Note_on_c, 8, 56, 127
1, 197520, Note_on_c, 9, 43, 127
1, 197640, Note_on_c, 9, 43, 0
1, 197760, Note_on_c, 6, 69, 0
1, 197760, Note_on_c, 4, 81, 0
1, 197760, Note_on_c, 4, 73, 0
1, 197760, Note_on_c, 8, 56, 0
1, 197760, Note_on_c, 4, 85, 0
1, 197760, Note_on_c, 4, 69, 0
1, 197760, Note_on_c, 6, 57, 0
1, 197760, Note_on_c, 6, 61, 0
1, 197760, Note_on_c, 6, 73, 0
1, 197760, Pitch_bend_c, 0, 8192
1, 197760, Note_on_c, 0, 35, 95
1, 197760, Control_c, 0, 7, 127
1, 197760, Pitch_bend_c, 1, 8192
1, 197760, Note_on_c, 1, 59, 95
1, 197760, Note_on_c, 1, 71, 64
1, 197760, Note_on_c, 1, 23, 95
1, 197760, Control_c, 1, 7, 54
1, 197760, Pitch_bend_c, 2, 8192
1, 197760, Note_on_c, 2, 83, 94
1, 197760, Note_on_c, 2, 71, 64
1, 197760, Note_on_c, 2, 59, 127
1, 197760, Note_on_c, 2, 47, 95
1, 197760, Control_c, 2, 7, 5
1, 197760, Pitch_bend_c, 3, 8192
1, 197760, Note_on_c, 3, 71, 64
1, 197760, Note_on_c, 3, 35, 64
1, 197760, Control_c, 3, 7, 6
1, 197760, Note_on_c, 9, 35, 103
1, 197880, Note_on_c, 9, 35, 0
1, 197880, Note_on_c, 12, 60, 0
1, 198120, Note_on_c, 2, 47, 0
1, 198120, Note_on_c, 1, 71, 0
1, 198120, Note_on_c, 1, 23, 0
1, 198120, Note_on_c, 0, 35, 0
1, 198120, Note_on_c, 2, 83, 0
1, 198120, Note_on_c, 2, 71, 0
1, 198120, Note_on_c, 3, 71, 0
1, 198120, Note_on_c, 2, 59, 0
1, 198120, Note_on_c, 1, 59, 0
1, 198120, Note_on_c, 3, 35, 0
1, 198120, Pitch_bend_c, 0, 0
1, 198120, Note_on_c, 0, 47, 95
1, 198120, Pitch_bend_c, 1, 0
1, 198120, Note_on_c, 1, 71, 95
1, 198120, Note_on_c, 1, 83, 64
1, 198120, Note_on_c, 1, 35, 95
1, 198120, Pitch_bend_c, 2, 0
1, 198120, Note_on_c, 2, 95, 64
1, 198120, Note_on_c, 2, 83, 64
1, 198120, Note_on_c, 2, 71, 127
1, 198120, Note_on_c, 2, 59, 95
1, 198120, Pitch_bend_c, 3, 0
1, 198120, Note_on_c, 3, 83, 64
1, 198120, Note_on_c, 3, 47, 64
1, 198135, Pitch_bend_c, 0, 8192
1, 198135, Pitch_bend_c, 1, 8192
1, 198135, Pitch_bend_c, 2, 8192
1, 198135, Pitch_bend_c, 3, 8192
1, 198240, Note_on_c, 3, 47, 0
1, 198240, Note_on_c, 1, 83, 0
1, 198240, Note_on_c, 1, 35, 0
1, 198240, Note_on_c, 0, 47, 0
1, 198240, Note_on_c, 2, 95, 0
1, 198240, Note_on_c, 1, 71, 0
1, 198240, Note_on_c, 2, 59, 0
1, 198240, Note_on_c, 2, 71, 0
1, 198240, Note_on_c, 2, 83, 0
1, 198240, Note_on_c, 3, 83, 0
1, 198240, Note_on_c, 9, 35, 102
1, 198270, Control_c, 1, 7, 59
1, 198360, Note_on_c, 9, 35, 0
1, 198395, Control_c, 2, 7, 11
1, 198430, Control_c, 3, 7, 12
1, 198480, Note_on_c, 0, 47, 95
1, 198480, Note_on_c, 1, 71, 95
1, 198480, Note_on_c, 1, 83, 64
1, 198480, Note_on_c, 1, 35, 95
1, 198480, Note_on_c, 2, 95, 64
1, 198480, Note_on_c, 2, 83, 64
1, 198480, Note_on_c, 2, 71, 127
1, 198480, Note_on_c, 2, 59, 95
1, 198480, Note_on_c, 3, 83, 64
1, 198480, Note_on_c, 3, 47, 64
1, 198720, Note_on_c, 3, 47, 0
1, 198720, Note_on_c, 1, 83, 0
1, 198720, Note_on_c, 1, 35, 0
1, 198720, Note_on_c, 0, 47, 0
1, 198720, Note_on_c, 2, 95, 0
1, 198720, Note_on_c, 1, 71, 0
1, 198720, Note_on_c, 2, 59, 0
1, 198720, Note_on_c, 2, 71, 0
1, 198720, Note_on_c, 2, 83, 0
1, 198720, Note_on_c, 3, 83, 0
1, 198720, Note_on_c, 9, 35, 102
1, 198780, Control_c, 1, 7, 64
1, 198840, Note_on_c, 9, 35, 0
1, 198840, Note_on_c, 0, 43, 95
1, 198840, Note_on_c, 1, 67, 95
1, 198840, Note_on_c, 1, 79, 64
1, 198840, Note_on_c, 1, 31, 95
1, 198840, Note_on_c, 2, 91, 64
1, 198840, Note_on_c, 2, 79, 64
1, 198840, Note_on_c, 2, 67, 127
1, 198840, Note_on_c, 2, 55, 95
1, 198840, Note_on_c, 3, 79, 64
1, 198840, Note_on_c, 3, 43, 64
1, 198960, Note_on_c, 3, 43, 0
1, 198960, Note_on_c, 1, 79, 0
1, 198960, Note_on_c, 1, 31, 0
1, 198960, Note_on_c, 0, 43, 0
1, 198960, Note_on_c, 2, 91, 0
1, 198960, Note_on_c, 1, 67, 0
1, 198960, Note_on_c, 2, 55, 0
1, 198960, Note_on_c, 2, 67, 0
1, 198960, Note_on_c, 2, 79, 0
1, 198960, Note_on_c, 3, 79, 0
1, 198960, Pitch_bend_c, 0, 5100
1, 198960, Note_on_c, 0, 47, 95
1, 198960, Pitch_bend_c, 1, 5100
1, 198960, Note_on_c, 1, 71, 95
1, 198960, Note_on_c, 1, 83, 64
1, 198960, Note_on_c, 1, 35, 95
1, 198960, Pitch_bend_c, 2, 5100
1, 198960, Note_on_c, 2, 95, 64
1, 198960, Note_on_c, 2, 83, 64
1, 198960, Note_on_c, 2, 71, 127
1, 198960, Note_on_c, 2, 59, 95
1, 198960, Pitch_bend_c, 3, 5100
1, 198960, Note_on_c, 3, 83, 64
1, 198960, Note_on_c, 3, 47, 64
1, 198975, Pitch_bend_c, 0, 6697
1, 198975, Pitch_bend_c, 1, 6697
1, 198975, Pitch_bend_c, 2, 6697
1, 198975, Pitch_bend_c, 3, 6697
1, 199035, Control_c, 2, 7, 17
1, 199040, Pitch_bend_c, 0, 6841
1, 199040, Pitch_bend_c, 1, 6841
1, 199040, Pitch_bend_c, 2, 6841
1, 199040, Pitch_bend_c, 3, 6841
1, 199070, Pitch_bend_c, 0, 6984
1, 199070, Pitch_bend_c, 1, 6984
1, 199070, Pitch_bend_c, 2, 6984
1, 199070, Pitch_bend_c, 3, 6984
1, 199085, Pitch_bend_c, 0, 7175
1, 199085, Pitch_bend_c, 1, 7175
1, 199085, Pitch_bend_c, 2, 7175
1, 199085, Pitch_bend_c, 3, 7175
1, 199100, Pitch_bend_c, 0, 7319
1, 199100, Pitch_bend_c, 1, 7319
1, 199100, Pitch_bend_c, 2, 7319
1, 199100, Pitch_bend_c, 3, 7319
1, 199100, Control_c, 3, 7, 18
1, 199120, Pitch_bend_c, 0, 7612
1, 199120, Pitch_bend_c, 1, 7612
1, 199120, Pitch_bend_c, 2, 7612
1, 199120, Pitch_bend_c, 3, 7612
1, 199135, Pitch_bend_c, 0, 7756
1, 199135, Pitch_bend_c, 1, 7756
1, 199135, Pitch_bend_c, 2, 7756
1, 199135, Pitch_bend_c, 3, 7756
1, 199150, Pitch_bend_c, 0, 7899
1, 199150, Pitch_bend_c, 1, 7899
1, 199150, Pitch_bend_c, 2, 7899
1, 199150, Pitch_bend_c, 3, 7899
1, 199165, Pitch_bend_c, 0, 8049
1, 199165, Pitch_bend_c, 1, 8049
1, 199165, Pitch_bend_c, 2, 8049
1, 199165, Pitch_bend_c, 3, 8049
1, 199180, Pitch_bend_c, 0, 8192
1, 199180, Pitch_bend_c, 1, 8192
1, 199180, Pitch_bend_c, 2, 8192
1, 199180, Pitch_bend_c, 3, 8192
1, 199200, Note_on_c, 3, 47, 0
1, 199200, Note_on_c, 1, 83, 0
1, 199200, Note_on_c, 1, 35, 0
1, 199200, Note_on_c, 0, 47, 0
1, 199200, Note_on_c, 2, 95, 0
1, 199200, Note_on_c, 1, 71, 0
1, 199200, Note_on_c, 2, 59, 0
1, 199200, Note_on_c, 2, 71, 0
1, 199200, Note_on_c, 2, 83, 0
1, 199200, Note_on_c, 3, 83, 0
1, 199200, Note_on_c, 0, 47, 95
1, 199200, Note_on_c, 1, 71, 95
1, 199200, Note_on_c, 1, 83, 64
1, 199200, Note_on_c, 1, 35, 95
1, 199200, Note_on_c, 2, 95, 64
1, 199200, Note_on_c, 2, 83, 64
1, 199200, Note_on_c, 2, 71, 127
1, 199200, Note_on_c, 2, 59, 95
1, 199200, Note_on_c, 3, 83, 64
1, 199200, Note_on_c, 3, 47, 64
1, 199200, Note_on_c, 9, 35, 103
1, 199295, Control_c, 1, 7, 70
1, 199320, Note_on_c, 9, 35, 0
1, 199440, Note_on_c, 2, 59, 0
1, 199440, Note_on_c, 1, 83, 0
1, 199440, Note_on_c, 1, 35, 0
1, 199440, Note_on_c, 0, 47, 0
1, 199440, Note_on_c, 2, 95, 0
1, 199440, Note_on_c, 1, 71, 0
1, 199440, Note_on_c, 3, 83, 0
1, 199440, Note_on_c, 2, 71, 0
1, 199440, Note_on_c, 2, 83, 0
1, 199440, Note_on_c, 3, 47, 0
1, 199440, Note_on_c, 0, 47, 95
1, 199440, Note_on_c, 1, 71, 95
1, 199440, Note_on_c, 1, 83, 64
1, 199440, Note_on_c, 1, 35, 95
1, 199440, Note_on_c, 2, 95, 64
1, 199440, Note_on_c, 2, 83, 64
1, 199440, Note_on_c, 2, 71, 127
1, 199440, Note_on_c, 2, 59, 95
1, 199440, Note_on_c, 3, 83, 64
1, 199440, Note_on_c, 3, 47, 64
1, 199470, Pitch_bend_c, 0, 8335
1, 199470, Pitch_bend_c, 1, 8335
1, 199470, Pitch_bend_c, 2, 8335
1, 199470, Pitch_bend_c, 3, 8335
1, 199520, Pitch_bend_c, 0, 8485
1, 199520, Pitch_bend_c, 1, 8485
1, 199520, Pitch_bend_c, 2, 8485
1, 199520, Pitch_bend_c, 3, 8485
1, 199535, Pitch_bend_c, 0, 8628
1, 199535, Pitch_bend_c, 1, 8628
1, 199535, Pitch_bend_c, 2, 8628
1, 199535, Pitch_bend_c, 3, 8628
1, 199550, Pitch_bend_c, 0, 8772
1, 199550, Pitch_bend_c, 1, 8772
1, 199550, Pitch_bend_c, 2, 8772
1, 199550, Pitch_bend_c, 3, 8772
1, 199565, Pitch_bend_c, 0, 9065
1, 199565, Pitch_bend_c, 1, 9065
1, 199565, Pitch_bend_c, 2, 9065
1, 199565, Pitch_bend_c, 3, 9065
1, 199580, Pitch_bend_c, 0, 9400
1, 199580, Pitch_bend_c, 1, 9400
1, 199580, Pitch_bend_c, 2, 9400
1, 199580, Pitch_bend_c, 3, 9400
1, 199600, Pitch_bend_c, 0, 9543
1, 199600, Pitch_bend_c, 1, 9543
1, 199600, Pitch_bend_c, 2, 9543
1, 199600, Pitch_bend_c, 3, 9543
1, 199615, Pitch_bend_c, 0, 9830
1, 199615, Pitch_bend_c, 1, 9830
1, 199615, Pitch_bend_c, 2, 9830
1, 199615, Pitch_bend_c, 3, 9830
1, 199630, Pitch_bend_c, 0, 10110
1, 199630, Pitch_bend_c, 1, 10110
1, 199630, Pitch_bend_c, 2, 10110
1, 199630, Pitch_bend_c, 3, 10110
1, 199645, Pitch_bend_c, 0, 10253
1, 199645, Pitch_bend_c, 1, 10253
1, 199645, Pitch_bend_c, 2, 10253
1, 199645, Pitch_bend_c, 3, 10253
1, 199660, Pitch_bend_c, 0, 10397
1, 199660, Pitch_bend_c, 1, 10397
1, 199660, Pitch_bend_c, 2, 10397
1, 199660, Pitch_bend_c, 3, 10397
1, 199675, Control_c, 2, 7, 23
1, 199680, Note_on_c, 3, 47, 0
1, 199680, Note_on_c, 1, 83, 0
1, 199680, Note_on_c, 1, 35, 0
1, 199680, Note_on_c, 0, 47, 0
1, 199680, Note_on_c, 2, 95, 0
1, 199680, Note_on_c, 1, 71, 0
1, 199680, Note_on_c, 2, 59, 0
1, 199680, Note_on_c, 2, 71, 0
1, 199680, Note_on_c, 2, 83, 0
1, 199680, Note_on_c, 3, 83, 0
1, 199680, Pitch_bend_c, 0, 12165
1, 199680, Note_on_c, 0, 35, 95
1, 199680, Pitch_bend_c, 1, 12165
1, 199680, Note_on_c, 1, 59, 95
1, 199680, Note_on_c, 1, 71, 64
1, 199680, Note_on_c, 1, 23, 95
1, 199680, Pitch_bend_c, 2, 12165
1, 199680, Note_on_c, 2, 83, 64
1, 199680, Note_on_c, 2, 71, 64
1, 199680, Note_on_c, 2, 59, 127
1, 199680, Note_on_c, 2, 47, 95
1, 199680, Pitch_bend_c, 3, 12165
1, 199680, Note_on_c, 3, 71, 64
1, 199680, Note_on_c, 3, 35, 64
1, 199680, Note_on_c, 9, 35, 103
1, 199695, Pitch_bend_c, 0, 8192
1, 199695, Pitch_bend_c, 1, 8192
1, 199695, Pitch_bend_c, 2, 8192
1, 199695, Pitch_bend_c, 3, 8192
1, 199775, Control_c, 3, 7, 24
1, 199800, Note_on_c, 9, 35, 0
1, 199805, Control_c, 1, 7, 75
1, 200040, Note_on_c, 2, 47, 0
1, 200040, Note_on_c, 1, 71, 0
1, 200040, Note_on_c, 1, 23, 0
1, 200040, Note_on_c, 0, 35, 0
1, 200040, Note_on_c, 2, 83, 0
1, 200040, Note_on_c, 1, 59, 0
1, 200040, Note_on_c, 3, 71, 0
1, 200040, Note_on_c, 2, 59, 0
1, 200040, Note_on_c, 2, 71, 0
1, 200040, Note_on_c, 3, 35, 0
1, 200040, Pitch_bend_c, 0, 0
1, 200040, Note_on_c, 0, 47, 95
1, 200040, Pitch_bend_c, 1, 0
1, 200040, Note_on_c, 1, 71, 95
1, 200040, Note_on_c, 1, 83, 64
1, 200040, Note_on_c, 1, 35, 95
1, 200040, Pitch_bend_c, 2, 0
1, 200040, Note_on_c, 2, 95, 64
1, 200040, Note_on_c, 2, 83, 64
1, 200040, Note_on_c, 2, 71, 127
1, 200040, Note_on_c, 2, 59, 95
1, 200040, Pitch_bend_c, 3, 0
1, 200040, Note_on_c, 3, 83, 64
1, 200040, Note_on_c, 3, 47, 64
1, 200055, Pitch_bend_c, 0, 8192
1, 200055, Pitch_bend_c, 1, 8192
1, 200055, Pitch_bend_c, 2, 8192
1, 200055, Pitch_bend_c, 3, 8192
1, 200160, Note_on_c, 3, 47, 0
1, 200160, Note_on_c, 1, 83, 0
1, 200160, Note_on_c, 1, 35, 0
1, 200160, Note_on_c, 0, 47, 0
1, 200160, Note_on_c, 2, 95, 0
1, 200160, Note_on_c, 1, 71, 0
1, 200160, Note_on_c, 2, 59, 0
1, 200160, Note_on_c, 2, 71, 0
1, 200160, Note_on_c, 2, 83, 0
1, 200160, Note_on_c, 3, 83, 0
1, 200160, Note_on_c, 9, 35, 103
1, 200280, Note_on_c, 9, 35, 0
1, 200315, Control_c, 1, 7, 80
1, 200315, Control_c, 2, 7, 29
1, 200400, Note_on_c, 0, 47, 95
1, 200400, Note_on_c, 1, 71, 95
1, 200400, Note_on_c, 1, 83, 64
1, 200400, Note_on_c, 1, 35, 95
1, 200400, Note_on_c, 2, 95, 64
1, 200400, Note_on_c, 2, 83, 64
1, 200400, Note_on_c, 2, 71, 127
1, 200400, Note_on_c, 2, 59, 95
1, 200400, Note_on_c, 3, 83, 64
1, 200400, Note_on_c, 3, 47, 64
1, 200445, Control_c, 3, 7, 30
1, 200640, Note_on_c, 3, 47, 0
1, 200640, Note_on_c, 1, 83, 0
1, 200640, Note_on_c, 1, 35, 0
1, 200640, Note_on_c, 0, 47, 0
1, 200640, Note_on_c, 2, 95, 0
1, 200640, Note_on_c, 1, 71, 0
1, 200640, Note_on_c, 2, 59, 0
1, 200640, Note_on_c, 2, 71, 0
1, 200640, Note_on_c, 2, 83, 0
1, 200640, Note_on_c, 3, 83, 0
1, 200640, Note_on_c, 0, 47, 95
1, 200640, Note_on_c, 1, 71, 95
1, 200640, Note_on_c, 1, 83, 64
1, 200640, Note_on_c, 1, 35, 95
1, 200640, Note_on_c, 2, 95, 64
1, 200640, Note_on_c, 2, 83, 64
1, 200640, Note_on_c, 2, 71, 127
1, 200640, Note_on_c, 2, 59, 95
1, 200640, Note_on_c, 3, 83, 64
1, 200640, Note_on_c, 3, 47, 64
1, 200640, Note_on_c, 9, 35, 104
1, 200670, Pitch_bend_c, 0, 8049
1, 200670, Pitch_bend_c, 1, 8049
1, 200670, Pitch_bend_c, 2, 8049
1, 200670, Pitch_bend_c, 3, 8049
1, 200700, Pitch_bend_c, 0, 7899
1, 200700, Pitch_bend_c, 1, 7899
1, 200700, Pitch_bend_c, 2, 7899
1, 200700, Pitch_bend_c, 3, 7899
1, 200735, Pitch_bend_c, 0, 7756
1, 200735, Pitch_bend_c, 1, 7756
1, 200735, Pitch_bend_c, 2, 7756
1, 200735, Pitch_bend_c, 3, 7756
1, 200760, Note_on_c, 9, 35, 0
1, 200765, Pitch_bend_c, 0, 7612
1, 200765, Pitch_bend_c, 1, 7612
1, 200765, Pitch_bend_c, 2, 7612
1, 200765, Pitch_bend_c, 3, 7612
1, 200800, Pitch_bend_c, 0, 7469
1, 200800, Pitch_bend_c, 1, 7469
1, 200800, Pitch_bend_c, 2, 7469
1, 200800, Pitch_bend_c, 3, 7469
1, 200820, Note_on_c, 2, 59, 0
1, 200820, Note_on_c, 1, 83, 0
1, 200820, Note_on_c, 1, 35, 0
1, 200820, Note_on_c, 0, 47, 0
1, 200820, Note_on_c, 2, 95, 0
1, 200820, Note_on_c, 1, 71, 0
1, 200820, Note_on_c, 3, 83, 0
1, 200820, Note_on_c, 2, 71, 0
1, 200820, Note_on_c, 2, 83, 0
1, 200820, Note_on_c, 3, 47, 0
1, 200830, Control_c, 1, 7, 85
1, 200880, Note_on_c, 0, 47, 95
1, 200880, Note_on_c, 1, 71, 95
1, 200880, Note_on_c, 1, 83, 64
1, 200880, Note_on_c, 1, 35, 95
1, 200880, Note_on_c, 2, 95, 64
1, 200880, Note_on_c, 2, 83, 64
1, 200880, Note_on_c, 2, 71, 127
1, 200880, Note_on_c, 2, 59, 95
1, 200880, Note_on_c, 3, 83, 64
1, 200880, Note_on_c, 3, 47, 64
1, 200895, Pitch_bend_c, 0, 7319
1, 200895, Pitch_bend_c, 1, 7319
1, 200895, Pitch_bend_c, 2, 7319
1, 200895, Pitch_bend_c, 3, 7319
1, 200940, Pitch_bend_c, 0, 7175
1, 200940, Pitch_bend_c, 1, 7175
1, 200940, Pitch_bend_c, 2, 7175
1, 200940, Pitch_bend_c, 3, 7175
1, 200955, Control_c, 2, 7, 34
1, 200960, Pitch_bend_c, 0, 6984
1, 200960, Pitch_bend_c, 1, 6984
1, 200960, Pitch_bend_c, 2, 6984
1, 200960, Pitch_bend_c, 3, 6984
1, 200990, Pitch_bend_c, 0, 6841
1, 200990, Pitch_bend_c, 1, 6841
1, 200990, Pitch_bend_c, 2, 6841
1, 200990, Pitch_bend_c, 3, 6841
1, 201020, Pitch_bend_c, 0, 6697
1, 201020, Pitch_bend_c, 1, 6697
1, 201020, Pitch_bend_c, 2, 6697
1, 201020, Pitch_bend_c, 3, 6697
1, 201100, Pitch_bend_c, 0, 6554
1, 201100, Pitch_bend_c, 1, 6554
1, 201100, Pitch_bend_c, 2, 6554
1, 201100, Pitch_bend_c, 3, 6554
1, 201115, Control_c, 3, 7, 36
1, 201120, Note_on_c, 3, 47, 0
1, 201120, Note_on_c, 1, 83, 0
1, 201120, Note_on_c, 1, 35, 0
1, 201120, Note_on_c, 0, 47, 0
1, 201120, Note_on_c, 2, 95, 0
1, 201120, Note_on_c, 1, 71, 0
1, 201120, Note_on_c, 2, 59, 0
1, 201120, Note_on_c, 2, 71, 0
1, 201120, Note_on_c, 2, 83, 0
1, 201120, Note_on_c, 3, 83, 0
1, 201120, Note_on_c, 0, 47, 95
1, 201120, Note_on_c, 1, 71, 95
1, 201120, Note_on_c, 1, 83, 64
1, 201120, Note_on_c, 1, 35, 95
1, 201120, Note_on_c, 2, 95, 64
1, 201120, Note_on_c, 2, 83, 64
1, 201120, Note_on_c, 2, 71, 127
1, 201120, Note_on_c, 2, 59, 95
1, 201120, Note_on_c, 3, 83, 64
1, 201120, Note_on_c, 3, 47, 64
1, 201120, Note_on_c, 9, 35, 104
1, 201150, Pitch_bend_c, 0, 6418
1, 201150, Pitch_bend_c, 1, 6418
1, 201150, Pitch_bend_c, 2, 6418
1, 201150, Pitch_bend_c, 3, 6418
1, 201165, Pitch_bend_c, 0, 6274
1, 201165, Pitch_bend_c, 1, 6274
1, 201165, Pitch_bend_c, 2, 6274
1, 201165, Pitch_bend_c, 3, 6274
1, 201180, Pitch_bend_c, 0, 6131
1, 201180, Pitch_bend_c, 1, 6131
1, 201180, Pitch_bend_c, 2, 6131
1, 201180, Pitch_bend_c, 3, 6131
1, 201200, Pitch_bend_c, 0, 5987
1, 201200, Pitch_bend_c, 1, 5987
1, 201200, Pitch_bend_c, 2, 5987
1, 201200, Pitch_bend_c, 3, 5987
1, 201215, Pitch_bend_c, 0, 5803
1, 201215, Pitch_bend_c, 1, 5803
1, 201215, Pitch_bend_c, 2, 5803
1, 201215, Pitch_bend_c, 3, 5803
1, 201230, Pitch_bend_c, 0, 5660
1, 201230, Pitch_bend_c, 1, 5660
1, 201230, Pitch_bend_c, 2, 5660
1, 201230, Pitch_bend_c, 3, 5660
1, 201240, Note_on_c, 9, 35, 0
1, 201245, Pitch_bend_c, 0, 5516
1, 201245, Pitch_bend_c, 1, 5516
1, 201245, Pitch_bend_c, 2, 5516
1, 201245, Pitch_bend_c, 3, 5516
1, 201260, Pitch_bend_c, 0, 5380
1, 201260, Pitch_bend_c, 1, 5380
1, 201260, Pitch_bend_c, 2, 5380
1, 201260, Pitch_bend_c, 3, 5380
1, 201280, Pitch_bend_c, 0, 5237
1, 201280, Pitch_bend_c, 1, 5237
1, 201280, Pitch_bend_c, 2, 5237
1, 201280, Pitch_bend_c, 3, 5237
1, 201310, Pitch_bend_c, 0, 5100
1, 201310, Pitch_bend_c, 1, 5100
1, 201310, Pitch_bend_c, 2, 5100
1, 201310, Pitch_bend_c, 3, 5100
1, 201340, Control_c, 1, 7, 91
1, 201360, Note_on_c, 2, 59, 0
1, 201360, Note_on_c, 1, 83, 0
1, 201360, Note_on_c, 1, 35, 0
1, 201360, Note_on_c, 0, 47, 0
1, 201360, Note_on_c, 2, 95, 0
1, 201360, Note_on_c, 1, 71, 0
1, 201360, Note_on_c, 3, 83, 0
1, 201360, Note_on_c, 2, 71, 0
1, 201360, Note_on_c, 2, 83, 0
1, 201360, Note_on_c, 3, 47, 0
1, 201360, Note_on_c, 0, 47, 95
1, 201360, Note_on_c, 1, 71, 95
1, 201360, Note_on_c, 1, 83, 64
1, 201360, Note_on_c, 1, 35, 95
1, 201360, Note_on_c, 2, 95, 64
1, 201360, Note_on_c, 2, 83, 64
1, 201360, Note_on_c, 2, 71, 127
1, 201360, Note_on_c, 2, 59, 95
1, 201360, Note_on_c, 3, 83, 64
1, 201360, Note_on_c, 3, 47, 64
1, 201375, Pitch_bend_c, 0, 4963
1, 201375, Pitch_bend_c, 1, 4963
1, 201375, Pitch_bend_c, 2, 4963
1, 201375, Pitch_bend_c, 3, 4963
1, 201390, Pitch_bend_c, 0, 4636
1, 201390, Pitch_bend_c, 1, 4636
1, 201390, Pitch_bend_c, 2, 4636
1, 201390, Pitch_bend_c, 3, 4636
1, 201405, Pitch_bend_c, 0, 4499
1, 201405, Pitch_bend_c, 1, 4499
1, 201405, Pitch_bend_c, 2, 4499
1, 201405, Pitch_bend_c, 3, 4499
1, 201420, Pitch_bend_c, 0, 4083
1, 201420, Pitch_bend_c, 1, 4083
1, 201420, Pitch_bend_c, 2, 4083
1, 201420, Pitch_bend_c, 3, 4083
1, 201440, Pitch_bend_c, 0, 3810
1, 201440, Pitch_bend_c, 1, 3810
1, 201440, Pitch_bend_c, 2, 3810
1, 201440, Pitch_bend_c, 3, 3810
1, 201455, Pitch_bend_c, 0, 3359
1, 201455, Pitch_bend_c, 1, 3359
1, 201455, Pitch_bend_c, 2, 3359
1, 201455, Pitch_bend_c, 3, 3359
1, 201470, Pitch_bend_c, 0, 3086
1, 201470, Pitch_bend_c, 1, 3086
1, 201470, Pitch_bend_c, 2, 3086
1, 201470, Pitch_bend_c, 3, 3086
1, 201485, Pitch_bend_c, 0, 2820
1, 201485, Pitch_bend_c, 1, 2820
1, 201485, Pitch_bend_c, 2, 2820
1, 201485, Pitch_bend_c, 3, 2820
1, 201500, Pitch_bend_c, 0, 2683
1, 201500, Pitch_bend_c, 1, 2683
1, 201500, Pitch_bend_c, 2, 2683
1, 201500, Pitch_bend_c, 3, 2683
1, 201520, Pitch_bend_c, 0, 2369
1, 201520, Pitch_bend_c, 1, 2369
1, 201520, Pitch_bend_c, 2, 2369
1, 201520, Pitch_bend_c, 3, 2369
1, 201535, Pitch_bend_c, 0, 2240
1, 201535, Pitch_bend_c, 1, 2240
1, 201535, Pitch_bend_c, 2, 2240
1, 201535, Pitch_bend_c, 3, 2240
1, 201565, Pitch_bend_c, 0, 2103
1, 201565, Pitch_bend_c, 1, 2103
1, 201565, Pitch_bend_c, 2, 2103
1, 201565, Pitch_bend_c, 3, 2103
1, 201595, Control_c, 2, 7, 40
1, 201600, Note_on_c, 3, 47, 0
1, 201600, Note_on_c, 1, 83, 0
1, 201600, Note_on_c, 1, 35, 0
1, 201600, Note_on_c, 0, 47, 0
1, 201600, Note_on_c, 2, 95, 0
1, 201600, Note_on_c, 1, 71, 0
1, 201600, Note_on_c, 2, 59, 0
1, 201600, Note_on_c, 2, 71, 0
1, 201600, Note_on_c, 2, 83, 0
1, 201600, Note_on_c, 3, 83, 0
1, 201600, Pitch_bend_c, 0, 8192
1, 201600, Note_on_c, 0, 35, 95
1, 201600, Pitch_bend_c, 1, 8192
1, 201600, Note_on_c, 1, 59, 95
1, 201600, Note_on_c, 1, 71, 64
1, 201600, Note_on_c, 1, 23, 95
1, 201600, Pitch_bend_c, 2, 8192
1, 201600, Note_on_c, 2, 83, 94
1, 201600, Note_on_c, 2, 71, 64
1, 201600, Note_on_c, 2, 59, 127
1, 201600, Note_on_c, 2, 47, 95
1, 201600, Pitch_bend_c, 3, 8192
1, 201600, Note_on_c, 3, 71, 64
1, 201600, Note_on_c, 3, 35, 64
1, 201600, Note_on_c, 9, 35, 103
1, 201720, Note_on_c, 9, 35, 0
1, 201790, Control_c, 3, 7, 42
1, 201855, Control_c, 1, 7, 96
1, 201960, Note_on_c, 2, 47, 0
1, 201960, Note_on_c, 1, 71, 0
1, 201960, Note_on_c, 1, 23, 0
1, 201960, Note_on_c, 0, 35, 0
1, 201960, Note_on_c, 2, 83, 0
1, 201960, Note_on_c, 1, 59, 0
1, 201960, Note_on_c, 3, 71, 0
1, 201960, Note_on_c, 2, 59, 0
1, 201960, Note_on_c, 2, 71, 0
1, 201960, Note_on_c, 3, 35, 0
1, 201960, Pitch_bend_c, 0, 0
1, 201960, Note_on_c, 0, 47, 95
1, 201960, Pitch_bend_c, 1, 0
1, 201960, Note_on_c, 1, 71, 95
1, 201960, Note_on_c, 1, 83, 64
1, 201960, Note_on_c, 1, 35, 95
1, 201960, Pitch_bend_c, 2, 0
1, 201960, Note_on_c, 2, 95, 64
1, 201960, Note_on_c, 2, 83, 64
1, 201960, Note_on_c, 2, 71, 127
1, 201960, Note_on_c, 2, 59, 95
1, 201960, Pitch_bend_c, 3, 0
1, 201960, Note_on_c, 3, 83, 64
1, 201960, Note_on_c, 3, 47, 64
1, 201975, Pitch_bend_c, 0, 8192
1, 201975, Pitch_bend_c, 1, 8192
1, 201975, Pitch_bend_c, 2, 8192
1, 201975, Pitch_bend_c, 3, 8192
1, 202080, Note_on_c, 3, 47, 0
1, 202080, Note_on_c, 1, 83, 0
1, 202080, Note_on_c, 1, 35, 0
1, 202080, Note_on_c, 0, 47, 0
1, 202080, Note_on_c, 2, 95, 0
1, 202080, Note_on_c, 1, 71, 0
1, 202080, Note_on_c, 2, 59, 0
1, 202080, Note_on_c, 2, 71, 0
1, 202080, Note_on_c, 2, 83, 0
1, 202080, Note_on_c, 3, 83, 0
1, 202080, Note_on_c, 9, 35, 102
1, 202200, Note_on_c, 9, 35, 0
1, 202235, Control_c, 2, 7, 46
1, 202320, Note_on_c, 0, 47, 95
1, 202320, Note_on_c, 1, 71, 95
1, 202320, Note_on_c, 1, 83, 64
1, 202320, Note_on_c, 1, 35, 95
1, 202320, Note_on_c, 2, 95, 64
1, 202320, Note_on_c, 2, 83, 64
1, 202320, Note_on_c, 2, 71, 127
1, 202320, Note_on_c, 2, 59, 95
1, 202320, Note_on_c, 3, 83, 64
1, 202320, Note_on_c, 3, 47, 64
1, 202365, Control_c, 1, 7, 101
1, 202460, Control_c, 3, 7, 48
1, 202560, Note_on_c, 3, 47, 0
1, 202560, Note_on_c, 1, 83, 0
1, 202560, Note_on_c, 1, 35, 0
1, 202560, Note_on_c, 0, 47, 0
1, 202560, Note_on_c, 2, 95, 0
1, 202560, Note_on_c, 1, 71, 0
1, 202560, Note_on_c, 2, 59, 0
1, 202560, Note_on_c, 2, 71, 0
1, 202560, Note_on_c, 2, 83, 0
1, 202560, Note_on_c, 3, 83, 0
1, 202560, Note_on_c, 9, 35, 102
1, 202680, Note_on_c, 9, 35, 0
1, 202680, Note_on_c, 0, 43, 95
1, 202680, Note_on_c, 1, 67, 95
1, 202680, Note_on_c, 1, 79, 64
1, 202680, Note_on_c, 1, 31, 95
1, 202680, Note_on_c, 2, 91, 64
1, 202680, Note_on_c, 2, 79, 64
1, 202680, Note_on_c, 2, 67, 127
1, 202680, Note_on_c, 2, 55, 95
1, 202680, Note_on_c, 3, 79, 64
1, 202680, Note_on_c, 3, 43, 64
1, 202800, Note_on_c, 3, 43, 0
1, 202800, Note_on_c, 1, 79, 0
1, 202800, Note_on_c, 1, 31, 0
1, 202800, Note_on_c, 0, 43, 0
1, 202800, Note_on_c, 2, 91, 0
1, 202800, Note_on_c, 1, 67, 0
1, 202800, Note_on_c, 2, 55, 0
1, 202800, Note_on_c, 2, 67, 0
1, 202800, Note_on_c, 2, 79, 0
1, 202800, Note_on_c, 3, 79, 0
1, 202800, Pitch_bend_c, 0, 5100
1, 202800, Note_on_c, 0, 47, 95
1, 202800, Pitch_bend_c, 1, 5100
1, 202800, Note_on_c, 1, 71, 95
1, 202800, Note_on_c, 1, 83, 64
1, 202800, Note_on_c, 1, 35, 95
1, 202800, Pitch_bend_c, 2, 5100
1, 202800, Note_on_c, 2, 95, 64
1, 202800, Note_on_c, 2, 83, 64
1, 202800, Note_on_c, 2, 71, 127
1, 202800, Note_on_c, 2, 59, 95
1, 202800, Pitch_bend_c, 3, 5100
1, 202800, Note_on_c, 3, 83, 64
1, 202800, Note_on_c, 3, 47, 64
1, 202815, Pitch_bend_c, 0, 6697
1, 202815, Pitch_bend_c, 1, 6697
1, 202815, Pitch_bend_c, 2, 6697
1, 202815, Pitch_bend_c, 3, 6697
1, 202875, Control_c, 1, 7, 106
1, 202875, Control_c, 2, 7, 52
1, 202880, Pitch_bend_c, 0, 6841
1, 202880, Pitch_bend_c, 1, 6841
1, 202880, Pitch_bend_c, 2, 6841
1, 202880, Pitch_bend_c, 3, 6841
1, 202910, Pitch_bend_c, 0, 6984
1, 202910, Pitch_bend_c, 1, 6984
1, 202910, Pitch_bend_c, 2, 6984
1, 202910, Pitch_bend_c, 3, 6984
1, 202925, Pitch_bend_c, 0, 7175
1, 202925, Pitch_bend_c, 1, 7175
1, 202925, Pitch_bend_c, 2, 7175
1, 202925, Pitch_bend_c, 3, 7175
1, 202940, Pitch_bend_c, 0, 7319
1, 202940, Pitch_bend_c, 1, 7319
1, 202940, Pitch_bend_c, 2, 7319
1, 202940, Pitch_bend_c, 3, 7319
1, 202960, Pitch_bend_c, 0, 7612
1, 202960, Pitch_bend_c, 1, 7612
1, 202960, Pitch_bend_c, 2, 7612
1, 202960, Pitch_bend_c, 3, 7612
1, 202975, Pitch_bend_c, 0, 7756
1, 202975, Pitch_bend_c, 1, 7756
1, 202975, Pitch_bend_c, 2, 7756
1, 202975, Pitch_bend_c, 3, 7756
1, 202990, Pitch_bend_c, 0, 7899
1, 202990, Pitch_bend_c, 1, 7899
1, 202990, Pitch_bend_c, 2, 7899
1, 202990, Pitch_bend_c, 3, 7899
1, 203005, Pitch_bend_c, 0, 8049
1, 203005, Pitch_bend_c, 1, 8049
1, 203005, Pitch_bend_c, 2, 8049
1, 203005, Pitch_bend_c, 3, 8049
1, 203020, Pitch_bend_c, 0, 8192
1, 203020, Pitch_bend_c, 1, 8192
1, 203020, Pitch_bend_c, 2, 8192
1, 203020, Pitch_bend_c, 3, 8192
1, 203040, Note_on_c, 3, 47, 0
1, 203040, Note_on_c, 1, 83, 0
1, 203040, Note_on_c, 1, 35, 0
1, 203040, Note_on_c, 0, 47, 0
1, 203040, Note_on_c, 2, 95, 0
1, 203040, Note_on_c, 1, 71, 0
1, 203040, Note_on_c, 2, 59, 0
1, 203040, Note_on_c, 2, 71, 0
1, 203040, Note_on_c, 2, 83, 0
1, 203040, Note_on_c, 3, 83, 0
1, 203040, Note_on_c, 0, 47, 95
1, 203040, Note_on_c, 1, 71, 95
1, 203040, Note_on_c, 1, 83, 64
1, 203040, Note_on_c, 1, 35, 95
1, 203040, Note_on_c, 2, 95, 64
1, 203040, Note_on_c, 2, 83, 64
1, 203040, Note_on_c, 2, 71, 127
1, 203040, Note_on_c, 2, 59, 95
1, 203040, Note_on_c, 3, 83, 64
1, 203040, Note_on_c, 3, 47, 64
1, 203040, Note_on_c, 9, 35, 103
1, 203135, Control_c, 3, 7, 54
1, 203160, Note_on_c, 9, 35, 0
1, 203280, Note_on_c, 2, 59, 0
1, 203280, Note_on_c, 1, 83, 0
1, 203280, Note_on_c, 1, 35, 0
1, 203280, Note_on_c, 0, 47, 0
1, 203280, Note_on_c, 2, 95, 0
1, 203280, Note_on_c, 1, 71, 0
1, 203280, Note_on_c, 3, 83, 0
1, 203280, Note_on_c, 2, 71, 0
1, 203280, Note_on_c, 2, 83, 0
1, 203280, Note_on_c, 3, 47, 0
1, 203280, Note_on_c, 0, 47, 95
1, 203280, Note_on_c, 1, 71, 95
1, 203280, Note_on_c, 1, 83, 64
1, 203280, Note_on_c, 1, 35, 95
1, 203280, Note_on_c, 2, 95, 64
1, 203280, Note_on_c, 2, 83, 64
1, 203280, Note_on_c, 2, 71, 127
1, 203280, Note_on_c, 2, 59, 95
1, 203280, Note_on_c, 3, 83, 64
1, 203280, Note_on_c, 3, 47, 64
1, 203310, Pitch_bend_c, 0, 8335
1, 203310, Pitch_bend_c, 1, 8335
1, 203310, Pitch_bend_c, 2, 8335
1, 203310, Pitch_bend_c, 3, 8335
1, 203360, Pitch_bend_c, 0, 8485
1, 203360, Pitch_bend_c, 1, 8485
1, 203360, Pitch_bend_c, 2, 8485
1, 203360, Pitch_bend_c, 3, 8485
1, 203375, Pitch_bend_c, 0, 8628
1, 203375, Pitch_bend_c, 1, 8628
1, 203375, Pitch_bend_c, 2, 8628
1, 203375, Pitch_bend_c, 3, 8628
1, 203390, Pitch_bend_c, 0, 8772
1, 203390, Pitch_bend_c, 1, 8772
1, 203390, Control_c, 1, 7, 112
1, 203390, Pitch_bend_c, 2, 8772
1, 203390, Pitch_bend_c, 3, 8772
1, 203405, Pitch_bend_c, 0, 9065
1, 203405, Pitch_bend_c, 1, 9065
1, 203405, Pitch_bend_c, 2, 9065
1, 203405, Pitch_bend_c, 3, 9065
1, 203420, Pitch_bend_c, 0, 9400
1, 203420, Pitch_bend_c, 1, 9400
1, 203420, Pitch_bend_c, 2, 9400
1, 203420, Pitch_bend_c, 3, 9400
1, 203440, Pitch_bend_c, 0, 9543
1, 203440, Pitch_bend_c, 1, 9543
1, 203440, Pitch_bend_c, 2, 9543
1, 203440, Pitch_bend_c, 3, 9543
1, 203455, Pitch_bend_c, 0, 9830
1, 203455, Pitch_bend_c, 1, 9830
1, 203455, Pitch_bend_c, 2, 9830
1, 203455, Pitch_bend_c, 3, 9830
1, 203470, Pitch_bend_c, 0, 10110
1, 203470, Pitch_bend_c, 1, 10110
1, 203470, Pitch_bend_c, 2, 10110
1, 203470, Pitch_bend_c, 3, 10110
1, 203485, Pitch_bend_c, 0, 10253
1, 203485, Pitch_bend_c, 1, 10253
1, 203485, Pitch_bend_c, 2, 10253
1, 203485, Pitch_bend_c, 3, 10253
1, 203500, Pitch_bend_c, 0, 10397
1, 203500, Pitch_bend_c, 1, 10397
1, 203500, Pitch_bend_c, 2, 10397
1, 203500, Pitch_bend_c, 3, 10397
1, 203515, Control_c, 2, 7, 58
1, 203520, Note_on_c, 3, 47, 0
1, 203520, Note_on_c, 1, 83, 0
1, 203520, Note_on_c, 1, 35, 0
1, 203520, Note_on_c, 0, 47, 0
1, 203520, Note_on_c, 2, 95, 0
1, 203520, Note_on_c, 1, 71, 0
1, 203520, Note_on_c, 2, 59, 0
1, 203520, Note_on_c, 2, 71, 0
1, 203520, Note_on_c, 2, 83, 0
1, 203520, Note_on_c, 3, 83, 0
1, 203520, Pitch_bend_c, 0, 12165
1, 203520, Note_on_c, 0, 35, 95
1, 203520, Pitch_bend_c, 1, 12165
1, 203520, Note_on_c, 1, 59, 95
1, 203520, Note_on_c, 1, 71, 64
1, 203520, Note_on_c, 1, 23, 95
1, 203520, Pitch_bend_c, 2, 12165
1, 203520, Note_on_c, 2, 83, 64
1, 203520, Note_on_c, 2, 71, 64
1, 203520, Note_on_c, 2, 59, 127
1, 203520, Note_on_c, 2, 47, 95
1, 203520, Pitch_bend_c, 3, 12165
1, 203520, Note_on_c, 3, 71, 64
1, 203520, Note_on_c, 3, 35, 64
1, 203520, Note_on_c, 9, 35, 103
1, 203535, Pitch_bend_c, 0, 8192
1, 203535, Pitch_bend_c, 1, 8192
1, 203535, Pitch_bend_c, 2, 8192
1, 203535, Pitch_bend_c, 3, 8192
1, 203640, Note_on_c, 9, 35, 0
1, 203805, Control_c, 3, 7, 60
1, 203880, Note_on_c, 2, 47, 0
1, 203880, Note_on_c, 1, 71, 0
1, 203880, Note_on_c, 1, 23, 0
1, 203880, Note_on_c, 0, 35, 0
1, 203880, Note_on_c, 2, 83, 0
1, 203880, Note_on_c, 1, 59, 0
1, 203880, Note_on_c, 3, 71, 0
1, 203880, Note_on_c, 2, 59, 0
1, 203880, Note_on_c, 2, 71, 0
1, 203880, Note_on_c, 3, 35, 0
1, 203880, Pitch_bend_c, 0, 0
1, 203880, Note_on_c, 0, 47, 95
1, 203880, Pitch_bend_c, 1, 0
1, 203880, Note_on_c, 1, 71, 95
1, 203880, Note_on_c, 1, 83, 64
1, 203880, Note_on_c, 1, 35, 95
1, 203880, Pitch_bend_c, 2, 0
1, 203880, Note_on_c, 2, 95, 64
1, 203880, Note_on_c, 2, 83, 64
1, 203880, Note_on_c, 2, 71, 127
1, 203880, Note_on_c, 2, 59, 95
1, 203880, Pitch_bend_c, 3, 0
1, 203880, Note_on_c, 3, 83, 64
1, 203880, Note_on_c, 3, 47, 64
1, 203895, Pitch_bend_c, 0, 8192
1, 203895, Pitch_bend_c, 1, 8192
1, 203895, Pitch_bend_c, 2, 8192
1, 203895, Pitch_bend_c, 3, 8192
1, 203900, Control_c, 1, 7, 117
1, 204000, Note_on_c, 3, 47, 0
1, 204000, Note_on_c, 1, 83, 0
1, 204000, Note_on_c, 1, 35, 0
1, 204000, Note_on_c, 0, 47, 0
1, 204000, Note_on_c, 2, 95, 0
1, 204000, Note_on_c, 1, 71, 0
1, 204000, Note_on_c, 2, 59, 0
1, 204000, Note_on_c, 2, 71, 0
1, 204000, Note_on_c, 2, 83, 0
1, 204000, Note_on_c, 3, 83, 0
1, 204000, Note_on_c, 9, 35, 103
1, 204120, Note_on_c, 9, 35, 0
1, 204155, Control_c, 2, 7, 64
1, 204240, Note_on_c, 0, 47, 95
1, 204240, Note_on_c, 1, 71, 95
1, 204240, Note_on_c, 1, 83, 64
1, 204240, Note_on_c, 1, 35, 95
1, 204240, Note_on_c, 2, 95, 64
1, 204240, Note_on_c, 2, 83, 64
1, 204240, Note_on_c, 2, 71, 127
1, 204240, Note_on_c, 2, 59, 95
1, 204240, Note_on_c, 3, 83, 64
1, 204240, Note_on_c, 3, 47, 64
1, 204415, Control_c, 1, 7, 122
1, 204475, Control_c, 3, 7, 67
1, 204480, Note_on_c, 3, 47, 0
1, 204480, Note_on_c, 1, 83, 0
1, 204480, Note_on_c, 1, 35, 0
1, 204480, Note_on_c, 0, 47, 0
1, 204480, Note_on_c, 2, 95, 0
1, 204480, Note_on_c, 1, 71, 0
1, 204480, Note_on_c, 2, 59, 0
1, 204480, Note_on_c, 2, 71, 0
1, 204480, Note_on_c, 2, 83, 0
1, 204480, Note_on_c, 3, 83, 0
1, 204480, Note_on_c, 0, 47, 95
1, 204480, Note_on_c, 1, 71, 95
1, 204480, Note_on_c, 1, 83, 64
1, 204480, Note_on_c, 1, 35, 95
1, 204480, Note_on_c, 2, 95, 64
1, 204480, Note_on_c, 2, 83, 64
1, 204480, Note_on_c, 2, 71, 127
1, 204480, Note_on_c, 2, 59, 95
1, 204480, Note_on_c, 3, 83, 64
1, 204480, Note_on_c, 3, 47, 64
1, 204480, Note_on_c, 9, 35, 104
1, 204510, Pitch_bend_c, 0, 8049
1, 204510, Pitch_bend_c, 1, 8049
1, 204510, Pitch_bend_c, 2, 8049
1, 204510, Pitch_bend_c, 3, 8049
1, 204540, Pitch_bend_c, 0, 7899
1, 204540, Pitch_bend_c, 1, 7899
1, 204540, Pitch_bend_c, 2, 7899
1, 204540, Pitch_bend_c, 3, 7899
1, 204575, Pitch_bend_c, 0, 7756
1, 204575, Pitch_bend_c, 1, 7756
1, 204575, Pitch_bend_c, 2, 7756
1, 204575, Pitch_bend_c, 3, 7756
1, 204600, Note_on_c, 9, 35, 0
1, 204605, Pitch_bend_c, 0, 7612
1, 204605, Pitch_bend_c, 1, 7612
1, 204605, Pitch_bend_c, 2, 7612
1, 204605, Pitch_bend_c, 3, 7612
1, 204640, Pitch_bend_c, 0, 7469
1, 204640, Pitch_bend_c, 1, 7469
1, 204640, Pitch_bend_c, 2, 7469
1, 204640, Pitch_bend_c, 3, 7469
1, 204660, Note_on_c, 2, 59, 0
1, 204660, Note_on_c, 1, 83, 0
1, 204660, Note_on_c, 1, 35, 0
1, 204660, Note_on_c, 0, 47, 0
1, 204660, Note_on_c, 2, 95, 0
1, 204660, Note_on_c, 1, 71, 0
1, 204660, Note_on_c, 3, 83, 0
1, 204660, Note_on_c, 2, 71, 0
1, 204660, Note_on_c, 2, 83, 0
1, 204660, Note_on_c, 3, 47, 0
1, 204720, Note_on_c, 0, 47, 95
1, 204720, Note_on_c, 1, 71, 95
1, 204720, Note_on_c, 1, 83, 64
1, 204720, Note_on_c, 1, 35, 95
1, 204720, Note_on_c, 2, 95, 64
1, 204720, Note_on_c, 2, 83, 64
1, 204720, Note_on_c, 2, 71, 127
1, 204720, Note_on_c, 2, 59, 95
1, 204720, Note_on_c, 3, 83, 64
1, 204720, Note_on_c, 3, 47, 64
1, 204735, Pitch_bend_c, 0, 7319
1, 204735, Pitch_bend_c, 1, 7319
1, 204735, Pitch_bend_c, 2, 7319
1, 204735, Pitch_bend_c, 3, 7319
1, 204780, Pitch_bend_c, 0, 7175
1, 204780, Pitch_bend_c, 1, 7175
1, 204780, Pitch_bend_c, 2, 7175
1, 204780, Pitch_bend_c, 3, 7175
1, 204795, Control_c, 2, 7, 69
1, 204800, Pitch_bend_c, 0, 6984
1, 204800, Pitch_bend_c, 1, 6984
1, 204800, Pitch_bend_c, 2, 6984
1, 204800, Pitch_bend_c, 3, 6984
1, 204830, Pitch_bend_c, 0, 6841
1, 204830, Pitch_bend_c, 1, 6841
1, 204830, Pitch_bend_c, 2, 6841
1, 204830, Pitch_bend_c, 3, 6841
1, 204860, Pitch_bend_c, 0, 6697
1, 204860, Pitch_bend_c, 1, 6697
1, 204860, Pitch_bend_c, 2, 6697
1, 204860, Pitch_bend_c, 3, 6697
1, 204925, Control_c, 1, 7, 127
1, 204940, Pitch_bend_c, 0, 6554
1, 204940, Pitch_bend_c, 1, 6554
1, 204940, Pitch_bend_c, 2, 6554
1, 204940, Pitch_bend_c, 3, 6554
1, 204960, Note_on_c, 3, 47, 0
1, 204960, Note_on_c, 1, 83, 0
1, 204960, Note_on_c, 1, 35, 0
1, 204960, Note_on_c, 0, 47, 0
1, 204960, Note_on_c, 2, 95, 0
1, 204960, Note_on_c, 1, 71, 0
1, 204960, Note_on_c, 2, 59, 0
1, 204960, Note_on_c, 2, 71, 0
1, 204960, Note_on_c, 2, 83, 0
1, 204960, Note_on_c, 3, 83, 0
1, 204960, Note_on_c, 0, 47, 95
1, 204960, Note_on_c, 1, 71, 95
1, 204960, Note_on_c, 1, 83, 64
1, 204960, Note_on_c, 1, 35, 95
1, 204960, Note_on_c, 2, 95, 64
1, 204960, Note_on_c, 2, 83, 64
1, 204960, Note_on_c, 2, 71, 127
1, 204960, Note_on_c, 2, 59, 95
1, 204960, Note_on_c, 3, 83, 64
1, 204960, Note_on_c, 3, 47, 64
1, 204960, Note_on_c, 9, 35, 104
1, 204990, Pitch_bend_c, 0, 6418
1, 204990, Pitch_bend_c, 1, 6418
1, 204990, Pitch_bend_c, 2, 6418
1, 204990, Pitch_bend_c, 3, 6418
1, 205005, Pitch_bend_c, 0, 6274
1, 205005, Pitch_bend_c, 1, 6274
1, 205005, Pitch_bend_c, 2, 6274
1, 205005, Pitch_bend_c, 3, 6274
1, 205020, Pitch_bend_c, 0, 6131
1, 205020, Pitch_bend_c, 1, 6131
1, 205020, Pitch_bend_c, 2, 6131
1, 205020, Pitch_bend_c, 3, 6131
1, 205040, Pitch_bend_c, 0, 5987
1, 205040, Pitch_bend_c, 1, 5987
1, 205040, Pitch_bend_c, 2, 5987
1, 205040, Pitch_bend_c, 3, 5987
1, 205055, Pitch_bend_c, 0, 5803
1, 205055, Pitch_bend_c, 1, 5803
1, 205055, Pitch_bend_c, 2, 5803
1, 205055, Pitch_bend_c, 3, 5803
1, 205070, Pitch_bend_c, 0, 5660
1, 205070, Pitch_bend_c, 1, 5660
1, 205070, Pitch_bend_c, 2, 5660
1, 205070, Pitch_bend_c, 3, 5660
1, 205080, Note_on_c, 9, 35, 0
1, 205085, Pitch_bend_c, 0, 5516
1, 205085, Pitch_bend_c, 1, 5516
1, 205085, Pitch_bend_c, 2, 5516
1, 205085, Pitch_bend_c, 3, 5516
1, 205100, Pitch_bend_c, 0, 5380
1, 205100, Pitch_bend_c, 1, 5380
1, 205100, Pitch_bend_c, 2, 5380
1, 205100, Pitch_bend_c, 3, 5380
1, 205120, Pitch_bend_c, 0, 5237
1, 205120, Pitch_bend_c, 1, 5237
1, 205120, Pitch_bend_c, 2, 5237
1, 205120, Pitch_bend_c, 3, 5237
1, 205150, Pitch_bend_c, 0, 5100
1, 205150, Pitch_bend_c, 1, 5100
1, 205150, Pitch_bend_c, 2, 5100
1, 205150, Pitch_bend_c, 3, 5100
1, 205150, Control_c, 3, 7, 73
1, 205200, Note_on_c, 2, 59, 0
1, 205200, Note_on_c, 1, 83, 0
1, 205200, Note_on_c, 1, 35, 0
1, 205200, Note_on_c, 0, 47, 0
1, 205200, Note_on_c, 2, 95, 0
1, 205200, Note_on_c, 1, 71, 0
1, 205200, Note_on_c, 3, 83, 0
1, 205200, Note_on_c, 2, 71, 0
1, 205200, Note_on_c, 2, 83, 0
1, 205200, Note_on_c, 3, 47, 0
1, 205200, Note_on_c, 0, 47, 95
1, 205200, Note_on_c, 1, 71, 95
1, 205200, Note_on_c, 1, 83, 64
1, 205200, Note_on_c, 1, 35, 95
1, 205200, Note_on_c, 2, 95, 64
1, 205200, Note_on_c, 2, 83, 64
1, 205200, Note_on_c, 2, 71, 127
1, 205200, Note_on_c, 2, 59, 95
1, 205200, Note_on_c, 3, 83, 64
1, 205200, Note_on_c, 3, 47, 64
1, 205215, Pitch_bend_c, 0, 4963
1, 205215, Pitch_bend_c, 1, 4963
1, 205215, Pitch_bend_c, 2, 4963
1, 205215, Pitch_bend_c, 3, 4963
1, 205230, Pitch_bend_c, 0, 4636
1, 205230, Pitch_bend_c, 1, 4636
1, 205230, Pitch_bend_c, 2, 4636
1, 205230, Pitch_bend_c, 3, 4636
1, 205245, Pitch_bend_c, 0, 4499
1, 205245, Pitch_bend_c, 1, 4499
1, 205245, Pitch_bend_c, 2, 4499
1, 205245, Pitch_bend_c, 3, 4499
1, 205260, Pitch_bend_c, 0, 4083
1, 205260, Pitch_bend_c, 1, 4083
1, 205260, Pitch_bend_c, 2, 4083
1, 205260, Pitch_bend_c, 3, 4083
1, 205280, Pitch_bend_c, 0, 3810
1, 205280, Pitch_bend_c, 1, 3810
1, 205280, Pitch_bend_c, 2, 3810
1, 205280, Pitch_bend_c, 3, 3810
1, 205295, Pitch_bend_c, 0, 3359
1, 205295, Pitch_bend_c, 1, 3359
1, 205295, Pitch_bend_c, 2, 3359
1, 205295, Pitch_bend_c, 3, 3359
1, 205310, Pitch_bend_c, 0, 3086
1, 205310, Pitch_bend_c, 1, 3086
1, 205310, Pitch_bend_c, 2, 3086
1, 205310, Pitch_bend_c, 3, 3086
1, 205325, Pitch_bend_c, 0, 2820
1, 205325, Pitch_bend_c, 1, 2820
1, 205325, Pitch_bend_c, 2, 2820
1, 205325, Pitch_bend_c, 3, 2820
1, 205340, Pitch_bend_c, 0, 2683
1, 205340, Pitch_bend_c, 1, 2683
1, 205340, Pitch_bend_c, 2, 2683
1, 205340, Pitch_bend_c, 3, 2683
1, 205360, Pitch_bend_c, 0, 2369
1, 205360, Pitch_bend_c, 1, 2369
1, 205360, Pitch_bend_c, 2, 2369
1, 205360, Pitch_bend_c, 3, 2369
1, 205375, Pitch_bend_c, 0, 2240
1, 205375, Pitch_bend_c, 1, 2240
1, 205375, Pitch_bend_c, 2, 2240
1, 205375, Pitch_bend_c, 3, 2240
1, 205405, Pitch_bend_c, 0, 2103
1, 205405, Pitch_bend_c, 1, 2103
1, 205405, Pitch_bend_c, 2, 2103
1, 205405, Pitch_bend_c, 3, 2103
1, 205435, Control_c, 2, 7, 75
1, 205440, Note_on_c, 3, 47, 0
1, 205440, Note_on_c, 1, 83, 0
1, 205440, Note_on_c, 1, 35, 0
1, 205440, Note_on_c, 0, 47, 0
1, 205440, Note_on_c, 2, 95, 0
1, 205440, Note_on_c, 1, 71, 0
1, 205440, Note_on_c, 2, 59, 0
1, 205440, Note_on_c, 2, 71, 0
1, 205440, Note_on_c, 2, 83, 0
1, 205440, Note_on_c, 3, 83, 0
1, 205440, Pitch_bend_c, 0, 8192
1, 205440, Note_on_c, 0, 35, 95
1, 205440, Pitch_bend_c, 1, 8192
1, 205440, Note_on_c, 1, 59, 95
1, 205440, Note_on_c, 1, 71, 64
1, 205440, Note_on_c, 1, 23, 95
1, 205440, Pitch_bend_c, 2, 8192
1, 205440, Note_on_c, 2, 83, 94
1, 205440, Note_on_c, 2, 71, 64
1, 205440, Note_on_c, 2, 59, 127
1, 205440, Note_on_c, 2, 47, 95
1, 205440, Pitch_bend_c, 3, 8192
1, 205440, Note_on_c, 3, 71, 64
1, 205440, Note_on_c, 3, 35, 64
1, 205440, Control_c, 7, 7, 124
1, 205440, Pitch_bend_c, 7, 8192
1, 205440, Note_on_c, 7, 47, 127
1, 205440, Note_on_c, 7, 59, 127
1, 205440, Note_on_c, 9, 35, 103
1, 205445, Control_c, 7, 7, 124
1, 205450, Control_c, 7, 7, 124
1, 205455, Control_c, 7, 7, 123
1, 205460, Control_c, 7, 7, 122
1, 205465, Control_c, 7, 7, 122
1, 205470, Control_c, 7, 7, 120
1, 205475, Control_c, 7, 7, 119
1, 205480, Control_c, 7, 7, 118
1, 205485, Control_c, 7, 7, 116
1, 205490, Control_c, 7, 7, 115
1, 205495, Control_c, 7, 7, 113
1, 205500, Control_c, 7, 7, 111
1, 205505, Control_c, 7, 7, 109
1, 205510, Control_c, 7, 7, 106
1, 205515, Control_c, 7, 7, 104
1, 205520, Control_c, 7, 7, 102
1, 205525, Control_c, 7, 7, 99
1, 205530, Control_c, 7, 7, 96
1, 205535, Control_c, 7, 7, 94
1, 205540, Control_c, 7, 7, 91
1, 205545, Control_c, 7, 7, 88
1, 205550, Control_c, 7, 7, 85
1, 205555, Control_c, 7, 7, 83
1, 205560, Note_on_c, 9, 35, 0
1, 205560, Control_c, 7, 7, 80
1, 205565, Control_c, 7, 7, 77
1, 205570, Control_c, 7, 7, 74
1, 205575, Control_c, 7, 7, 71
1, 205580, Control_c, 7, 7, 68
1, 205585, Control_c, 7, 7, 66
1, 205590, Control_c, 7, 7, 63
1, 205595, Control_c, 7, 7, 60
1, 205600, Control_c, 7, 7, 58
1, 205605, Control_c, 7, 7, 55
1, 205610, Control_c, 7, 7, 53
1, 205615, Control_c, 7, 7, 51
1, 205620, Control_c, 7, 7, 48
1, 205625, Control_c, 7, 7, 46
1, 205630, Control_c, 7, 7, 44
1, 205635, Control_c, 7, 7, 43
1, 205640, Control_c, 7, 7, 41
1, 205645, Control_c, 7, 7, 40
1, 205650, Control_c, 7, 7, 38
1, 205655, Control_c, 7, 7, 37
1, 205660, Control_c, 7, 7, 36
1, 205665, Control_c, 7, 7, 36
1, 205670, Control_c, 7, 7, 35
1, 205675, Control_c, 7, 7, 35
1, 205680, Control_c, 7, 7, 35
1, 205685, Control_c, 7, 7, 35
1, 205690, Control_c, 7, 7, 35
1, 205695, Control_c, 7, 7, 35
1, 205700, Control_c, 7, 7, 36
1, 205705, Control_c, 7, 7, 36
1, 205710, Control_c, 7, 7, 37
1, 205715, Control_c, 7, 7, 39
1, 205720, Control_c, 7, 7, 40
1, 205725, Control_c, 7, 7, 41
1, 205730, Control_c, 7, 7, 43
1, 205735, Control_c, 7, 7, 45
1, 205740, Control_c, 7, 7, 47
1, 205745, Control_c, 7, 7, 49
1, 205750, Control_c, 7, 7, 51
1, 205755, Control_c, 7, 7, 53
1, 205760, Control_c, 7, 7, 56
1, 205765, Control_c, 7, 7, 58
1, 205770, Control_c, 7, 7, 61
1, 205775, Control_c, 7, 7, 64
1, 205780, Control_c, 7, 7, 66
1, 205785, Control_c, 7, 7, 69
1, 205790, Control_c, 7, 7, 72
1, 205795, Control_c, 7, 7, 75
1, 205800, Note_on_c, 1, 59, 0
1, 205800, Note_on_c, 3, 71, 0
1, 205800, Note_on_c, 2, 59, 0
1, 205800, Note_on_c, 1, 71, 0
1, 205800, Note_on_c, 0, 35, 0
1, 205800, Note_on_c, 1, 23, 0
1, 205800, Note_on_c, 2, 83, 0
1, 205800, Note_on_c, 2, 71, 0
1, 205800, Note_on_c, 2, 47, 0
1, 205800, Note_on_c, 3, 35, 0
1, 205800, Pitch_bend_c, 0, 0
1, 205800, Note_on_c, 0, 47, 95
1, 205800, Pitch_bend_c, 1, 0
1, 205800, Note_on_c, 1, 71, 95
1, 205800, Note_on_c, 1, 83, 64
1, 205800, Note_on_c, 1, 35, 95
1, 205800, Pitch_bend_c, 2, 0
1, 205800, Note_on_c, 2, 95, 64
1, 205800, Note_on_c, 2, 83, 64
1, 205800, Note_on_c, 2, 71, 127
1, 205800, Note_on_c, 2, 59, 95
1, 205800, Pitch_bend_c, 3, 0
1, 205800, Note_on_c, 3, 83, 64
1, 205800, Note_on_c, 3, 47, 64
1, 205800, Control_c, 7, 7, 78
1, 205805, Control_c, 7, 7, 81
1, 205810, Control_c, 7, 7, 84
1, 205815, Pitch_bend_c, 0, 8192
1, 205815, Pitch_bend_c, 1, 8192
1, 205815, Pitch_bend_c, 2, 8192
1, 205815, Pitch_bend_c, 3, 8192
1, 205815, Control_c, 7, 7, 87
1, 205820, Control_c, 3, 7, 79
1, 205820, Control_c, 7, 7, 90
1, 205825, Control_c, 7, 7, 93
1, 205830, Control_c, 7, 7, 95
1, 205835, Control_c, 7, 7, 98
1, 205840, Control_c, 7, 7, 101
1, 205845, Control_c, 7, 7, 103
1, 205850, Control_c, 7, 7, 106
1, 205855, Control_c, 7, 7, 108
1, 205860, Control_c, 7, 7, 110
1, 205865, Control_c, 7, 7, 113
1, 205870, Control_c, 7, 7, 114
1, 205875, Control_c, 7, 7, 116
1, 205880, Control_c, 7, 7, 118
1, 205885, Control_c, 7, 7, 119
1, 205890, Control_c, 7, 7, 121
1, 205895, Control_c, 7, 7, 122
1, 205900, Control_c, 7, 7, 123
1, 205905, Control_c, 7, 7, 123
1, 205910, Control_c, 7, 7, 124
1, 205915, Control_c, 7, 7, 124
1, 205920, Note_on_c, 3, 47, 0
1, 205920, Note_on_c, 2, 59, 0
1, 205920, Note_on_c, 2, 83, 0
1, 205920, Note_on_c, 0, 47, 0
1, 205920, Note_on_c, 2, 95, 0
1, 205920, Note_on_c, 1, 71, 0
1, 205920, Note_on_c, 1, 83, 0
1, 205920, Note_on_c, 1, 35, 0
1, 205920, Note_on_c, 2, 71, 0
1, 205920, Note_on_c, 3, 83, 0
1, 205920, Control_c, 7, 7, 124
1, 205920, Note_on_c, 9, 35, 102
1, 205925, Control_c, 7, 7, 124
1, 205930, Control_c, 7, 7, 124
1, 205935, Control_c, 7, 7, 124
1, 205940, Control_c, 7, 7, 123
1, 205945, Control_c, 7, 7, 122
1, 205950, Control_c, 7, 7, 121
1, 205955, Control_c, 7, 7, 120
1, 205960, Control_c, 7, 7, 119
1, 205965, Control_c, 7, 7, 117
1, 205970, Control_c, 7, 7, 115
1, 205975, Control_c, 7, 7, 113
1, 205980, Control_c, 7, 7, 111
1, 205985, Control_c, 7, 7, 109
1, 205990, Control_c, 7, 7, 107
1, 205995, Control_c, 7, 7, 104
1, 206000, Control_c, 7, 7, 102
1, 206005, Control_c, 7, 7, 99
1, 206010, Control_c, 7, 7, 96
1, 206015, Control_c, 7, 7, 93
1, 206020, Control_c, 7, 7, 90
1, 206025, Control_c, 7, 7, 87
1, 206030, Control_c, 7, 7, 84
1, 206035, Control_c, 7, 7, 81
1, 206040, Note_on_c, 9, 35, 0
1, 206040, Control_c, 7, 7, 78
1, 206045, Control_c, 7, 7, 75
1, 206050, Control_c, 7, 7, 72
1, 206055, Control_c, 7, 7, 69
1, 206060, Control_c, 7, 7, 66
1, 206065, Control_c, 7, 7, 63
1, 206070, Control_c, 7, 7, 61
1, 206075, Control_c, 2, 7, 81
1, 206075, Control_c, 7, 7, 58
1, 206080, Control_c, 7, 7, 55
1, 206085, Control_c, 7, 7, 53
1, 206090, Control_c, 7, 7, 50
1, 206095, Control_c, 7, 7, 48
1, 206100, Control_c, 7, 7, 46
1, 206105, Control_c, 7, 7, 44
1, 206110, Control_c, 7, 7, 42
1, 206115, Control_c, 7, 7, 41
1, 206120, Control_c, 7, 7, 39
1, 206125, Control_c, 7, 7, 38
1, 206130, Control_c, 7, 7, 37
1, 206135, Control_c, 7, 7, 36
1, 206140, Control_c, 7, 7, 35
1, 206145, Control_c, 7, 7, 35
1, 206150, Control_c, 7, 7, 35
1, 206160, Note_on_c, 0, 47, 95
1, 206160, Note_on_c, 1, 71, 95
1, 206160, Note_on_c, 1, 83, 64
1, 206160, Note_on_c, 1, 35, 95
1, 206160, Note_on_c, 2, 95, 64
1, 206160, Note_on_c, 2, 83, 64
1, 206160, Note_on_c, 2, 71, 127
1, 206160, Note_on_c, 2, 59, 95
1, 206160, Note_on_c, 3, 83, 64
1, 206160, Note_on_c, 3, 47, 64
1, 206160, Control_c, 7, 7, 35
1, 206165, Control_c, 7, 7, 35
1, 206170, Control_c, 7, 7, 36
1, 206175, Control_c, 7, 7, 37
1, 206180, Control_c, 7, 7, 38
1, 206185, Control_c, 7, 7, 39
1, 206190, Control_c, 7, 7, 41
1, 206195, Control_c, 7, 7, 42
1, 206200, Control_c, 7, 7, 44
1, 206205, Control_c, 7, 7, 46
1, 206210, Control_c, 7, 7, 48
1, 206215, Control_c, 7, 7, 50
1, 206220, Control_c, 7, 7, 53
1, 206225, Control_c, 7, 7, 55
1, 206230, Control_c, 7, 7, 58
1, 206235, Control_c, 7, 7, 61
1, 206240, Control_c, 7, 7, 64
1, 206245, Control_c, 7, 7, 67
1, 206250, Control_c, 7, 7, 70
1, 206255, Control_c, 7, 7, 73
1, 206260, Control_c, 7, 7, 76
1, 206265, Control_c, 7, 7, 79
1, 206270, Control_c, 7, 7, 82
1, 206275, Control_c, 7, 7, 86
1, 206280, Control_c, 7, 7, 89
1, 206285, Control_c, 7, 7, 92
1, 206290, Control_c, 7, 7, 95
1, 206295, Control_c, 7, 7, 98
1, 206300, Control_c, 7, 7, 100
1, 206305, Control_c, 7, 7, 103
1, 206310, Control_c, 7, 7, 106
1, 206315, Control_c, 7, 7, 108
1, 206320, Control_c, 7, 7, 111
1, 206325, Control_c, 7, 7, 113
1, 206330, Control_c, 7, 7, 115
1, 206335, Control_c, 7, 7, 117
1, 206340, Control_c, 7, 7, 119
1, 206345, Control_c, 7, 7, 120
1, 206350, Control_c, 7, 7, 121
1, 206355, Control_c, 7, 7, 122
1, 206360, Control_c, 7, 7, 123
1, 206365, Control_c, 7, 7, 124
1, 206370, Control_c, 7, 7, 124
1, 206375, Control_c, 7, 7, 124
1, 206380, Control_c, 7, 7, 124
1, 206385, Control_c, 7, 7, 124
1, 206390, Control_c, 7, 7, 124
1, 206395, Control_c, 7, 7, 123
1, 206400, Note_on_c, 3, 47, 0
1, 206400, Note_on_c, 2, 59, 0
1, 206400, Note_on_c, 2, 83, 0
1, 206400, Note_on_c, 0, 47, 0
1, 206400, Note_on_c, 2, 95, 0
1, 206400, Note_on_c, 1, 71, 0
1, 206400, Note_on_c, 1, 83, 0
1, 206400, Note_on_c, 1, 35, 0
1, 206400, Note_on_c, 2, 71, 0
1, 206400, Note_on_c, 3, 83, 0
1, 206400, Control_c, 7, 7, 122
1, 206400, Note_on_c, 9, 35, 102
1, 206405, Control_c, 7, 7, 121
1, 206410, Control_c, 7, 7, 120
1, 206415, Control_c, 7, 7, 118
1, 206420, Control_c, 7, 7, 116
1, 206425, Control_c, 7, 7, 114
1, 206430, Control_c, 7, 7, 112
1, 206435, Control_c, 7, 7, 110
1, 206440, Control_c, 7, 7, 107
1, 206445, Control_c, 7, 7, 105
1, 206450, Control_c, 7, 7, 102
1, 206455, Control_c, 7, 7, 99
1, 206460, Control_c, 7, 7, 96
1, 206465, Control_c, 7, 7, 93
1, 206470, Control_c, 7, 7, 90
1, 206475, Control_c, 7, 7, 87
1, 206480, Control_c, 7, 7, 84
1, 206485, Control_c, 7, 7, 81
1, 206490, Control_c, 7, 7, 77
1, 206495, Control_c, 3, 7, 85
1, 206495, Control_c, 7, 7, 74
1, 206500, Control_c, 7, 7, 71
1, 206505, Control_c, 7, 7, 68
1, 206510, Control_c, 7, 7, 65
1, 206515, Control_c, 7, 7, 62
1, 206520, Note_on_c, 9, 35, 0
1, 206520, Note_on_c, 0, 43, 95
1, 206520, Note_on_c, 1, 67, 95
1, 206520, Note_on_c, 1, 79, 64
1, 206520, Note_on_c, 1, 31, 95
1, 206520, Note_on_c, 2, 91, 64
1, 206520, Note_on_c, 2, 79, 64
1, 206520, Note_on_c, 2, 67, 127
1, 206520, Note_on_c, 2, 55, 95
1, 206520, Note_on_c, 3, 79, 64
1, 206520, Note_on_c, 3, 43, 64
1, 206520, Control_c, 7, 7, 59
1, 206525, Control_c, 7, 7, 56
1, 206530, Control_c, 7, 7, 53
1, 206535, Control_c, 7, 7, 51
1, 206540, Control_c, 7, 7, 48
1, 206545, Control_c, 7, 7, 46
1, 206550, Control_c, 7, 7, 44
1, 206555, Control_c, 7, 7, 42
1, 206560, Control_c, 7, 7, 40
1, 206565, Control_c, 7, 7, 39
1, 206570, Control_c, 7, 7, 38
1, 206575, Control_c, 7, 7, 37
1, 206580, Control_c, 7, 7, 36
1, 206585, Control_c, 7, 7, 35
1, 206590, Control_c, 7, 7, 35
1, 206595, Control_c, 7, 7, 35
1, 206600, Control_c, 7, 7, 35
1, 206605, Control_c, 7, 7, 35
1, 206610, Control_c, 7, 7, 36
1, 206615, Control_c, 7, 7, 37
1, 206620, Control_c, 7, 7, 38
1, 206625, Control_c, 7, 7, 39
1, 206630, Control_c, 7, 7, 41
1, 206635, Control_c, 7, 7, 43
1, 206640, Note_on_c, 3, 43, 0
1, 206640, Note_on_c, 2, 55, 0
1, 206640, Note_on_c, 2, 79, 0
1, 206640, Note_on_c, 0, 43, 0
1, 206640, Note_on_c, 2, 91, 0
1, 206640, Note_on_c, 1, 67, 0
1, 206640, Note_on_c, 1, 79, 0
1, 206640, Note_on_c, 1, 31, 0
1, 206640, Note_on_c, 2, 67, 0
1, 206640, Note_on_c, 3, 79, 0
1, 206640, Pitch_bend_c, 0, 5100
1, 206640, Note_on_c, 0, 47, 95
1, 206640, Pitch_bend_c, 1, 5100
1, 206640, Note_on_c, 1, 71, 95
1, 206640, Note_on_c, 1, 83, 64
1, 206640, Note_on_c, 1, 35, 95
1, 206640, Pitch_bend_c, 2, 5100
1, 206640, Note_on_c, 2, 95, 64
1, 206640, Note_on_c, 2, 83, 64
1, 206640, Note_on_c, 2, 71, 127
1, 206640, Note_on_c, 2, 59, 95
1, 206640, Pitch_bend_c, 3, 5100
1, 206640, Note_on_c, 3, 83, 64
1, 206640, Note_on_c, 3, 47, 64
1, 206640, Control_c, 7, 7, 45
1, 206645, Control_c, 7, 7, 47
1, 206650, Control_c, 7, 7, 49
1, 206655, Pitch_bend_c, 0, 6697
1, 206655, Pitch_bend_c, 1, 6697
1, 206655, Pitch_bend_c, 2, 6697
1, 206655, Pitch_bend_c, 3, 6697
1, 206655, Control_c, 7, 7, 52
1, 206660, Control_c, 7, 7, 54
1, 206665, Control_c, 7, 7, 57
1, 206670, Control_c, 7, 7, 60
1, 206675, Control_c, 7, 7, 63
1, 206680, Control_c, 7, 7, 66
1, 206685, Control_c, 7, 7, 69
1, 206690, Control_c, 7, 7, 73
1, 206695, Control_c, 7, 7, 76
1, 206700, Control_c, 7, 7, 79
1, 206705, Control_c, 7, 7, 83
1, 206710, Control_c, 7, 7, 86
1, 206715, Control_c, 2, 7, 87
1, 206715, Control_c, 7, 7, 89
1, 206720, Pitch_bend_c, 0, 6841
1, 206720, Pitch_bend_c, 1, 6841
1, 206720, Pitch_bend_c, 2, 6841
1, 206720, Pitch_bend_c, 3, 6841
1, 206720, Control_c, 7, 7, 93
1, 206725, Control_c, 7, 7, 96
1, 206730, Control_c, 7, 7, 99
1, 206735, Control_c, 7, 7, 102
1, 206740, Control_c, 7, 7, 105
1, 206745, Control_c, 7, 7, 107
1, 206750, Pitch_bend_c, 0, 6984
1, 206750, Pitch_bend_c, 1, 6984
1, 206750, Pitch_bend_c, 2, 6984
1, 206750, Pitch_bend_c, 3, 6984
1, 206750, Control_c, 7, 7, 110
1, 206755, Control_c, 7, 7, 112
1, 206760, Control_c, 7, 7, 115
1, 206765, Pitch_bend_c, 0, 7175
1, 206765, Pitch_bend_c, 1, 7175
1, 206765, Pitch_bend_c, 2, 7175
1, 206765, Pitch_bend_c, 3, 7175
1, 206765, Control_c, 7, 7, 117
1, 206770, Control_c, 7, 7, 118
1, 206775, Control_c, 7, 7, 120
1, 206780, Pitch_bend_c, 0, 7319
1, 206780, Pitch_bend_c, 1, 7319
1, 206780, Pitch_bend_c, 2, 7319
1, 206780, Pitch_bend_c, 3, 7319
1, 206780, Control_c, 7, 7, 121
1, 206785, Control_c, 7, 7, 122
1, 206790, Control_c, 7, 7, 123
1, 206795, Control_c, 7, 7, 124
1, 206800, Pitch_bend_c, 0, 7612
1, 206800, Pitch_bend_c, 1, 7612
1, 206800, Pitch_bend_c, 2, 7612
1, 206800, Pitch_bend_c, 3, 7612
1, 206800, Control_c, 7, 7, 124
1, 206805, Control_c, 7, 7, 125
1, 206810, Control_c, 7, 7, 124
1, 206815, Pitch_bend_c, 0, 7756
1, 206815, Pitch_bend_c, 1, 7756
1, 206815, Pitch_bend_c, 2, 7756
1, 206815, Pitch_bend_c, 3, 7756
1, 206815, Control_c, 7, 7, 124
1, 206820, Control_c, 7, 7, 123
1, 206825, Control_c, 7, 7, 122
1, 206830, Pitch_bend_c, 0, 7899
1, 206830, Pitch_bend_c, 1, 7899
1, 206830, Pitch_bend_c, 2, 7899
1, 206830, Pitch_bend_c, 3, 7899
1, 206830, Control_c, 7, 7, 121
1, 206835, Control_c, 7, 7, 120
1, 206840, Control_c, 7, 7, 118
1, 206845, Pitch_bend_c, 0, 8049
1, 206845, Pitch_bend_c, 1, 8049
1, 206845, Pitch_bend_c, 2, 8049
1, 206845, Pitch_bend_c, 3, 8049
1, 206845, Control_c, 7, 7, 116
1, 206850, Control_c, 7, 7, 114
1, 206855, Control_c, 7, 7, 112
1, 206860, Pitch_bend_c, 0, 8192
1, 206860, Pitch_bend_c, 1, 8192
1, 206860, Pitch_bend_c, 2, 8192
1, 206860, Pitch_bend_c, 3, 8192
1, 206860, Control_c, 7, 7, 110
1, 206865, Control_c, 7, 7, 107
1, 206870, Control_c, 7, 7, 104
1, 206875, Control_c, 7, 7, 101
1, 206880, Note_on_c, 3, 47, 0
1, 206880, Note_on_c, 2, 59, 0
1, 206880, Note_on_c, 2, 83, 0
1, 206880, Note_on_c, 0, 47, 0
1, 206880, Note_on_c, 2, 95, 0
1, 206880, Note_on_c, 1, 71, 0
1, 206880, Note_on_c, 1, 83, 0
1, 206880, Note_on_c, 1, 35, 0
1, 206880, Note_on_c, 2, 71, 0
1, 206880, Note_on_c, 3, 83, 0
1, 206880, Note_on_c, 0, 47, 95
1, 206880, Note_on_c, 1, 71, 95
1, 206880, Note_on_c, 1, 83, 64
1, 206880, Note_on_c, 1, 35, 95
1, 206880, Note_on_c, 2, 95, 64
1, 206880, Note_on_c, 2, 83, 64
1, 206880, Note_on_c, 2, 71, 127
1, 206880, Note_on_c, 2, 59, 95
1, 206880, Note_on_c, 3, 83, 64
1, 206880, Note_on_c, 3, 47, 64
1, 206880, Control_c, 7, 7, 98
1, 206880, Note_on_c, 9, 35, 103
1, 206885, Control_c, 7, 7, 95
1, 206890, Control_c, 7, 7, 92
1, 206895, Control_c, 7, 7, 88
1, 206900, Control_c, 7, 7, 85
1, 206905, Control_c, 7, 7, 82
1, 206910, Control_c, 7, 7, 78
1, 206915, Control_c, 7, 7, 75
1, 206920, Control_c, 7, 7, 71
1, 206925, Control_c, 7, 7, 68
1, 206930, Control_c, 7, 7, 65
1, 206935, Control_c, 7, 7, 61
1, 206940, Control_c, 7, 7, 58
1, 206945, Control_c, 7, 7, 55
1, 206950, Control_c, 7, 7, 53
1, 206955, Control_c, 7, 7, 50
1, 206960, Control_c, 7, 7, 47
1, 206965, Control_c, 7, 7, 45
1, 206970, Control_c, 7, 7, 43
1, 206975, Control_c, 7, 7, 41
1, 206980, Control_c, 7, 7, 39
1, 206985, Control_c, 7, 7, 38
1, 206990, Control_c, 7, 7, 37
1, 206995, Control_c, 7, 7, 36
1, 207000, Note_on_c, 9, 35, 0
1, 207000, Control_c, 7, 7, 35
1, 207005, Control_c, 7, 7, 35
1, 207010, Control_c, 7, 7, 35
1, 207015, Control_c, 7, 7, 35
1, 207020, Control_c, 7, 7, 36
1, 207025, Control_c, 7, 7, 36
1, 207030, Control_c, 7, 7, 37
1, 207035, Control_c, 7, 7, 39
1, 207040, Control_c, 7, 7, 40
1, 207045, Control_c, 7, 7, 42
1, 207050, Control_c, 7, 7, 44
1, 207055, Control_c, 7, 7, 46
1, 207060, Control_c, 7, 7, 48
1, 207065, Control_c, 7, 7, 51
1, 207070, Control_c, 7, 7, 54
1, 207075, Control_c, 7, 7, 57
1, 207080, Control_c, 7, 7, 60
1, 207085, Control_c, 7, 7, 63
1, 207090, Control_c, 7, 7, 66
1, 207095, Control_c, 7, 7, 70
1, 207100, Control_c, 7, 7, 73
1, 207105, Control_c, 7, 7, 77
1, 207110, Control_c, 7, 7, 80
1, 207115, Control_c, 7, 7, 84
1, 207120, Note_on_c, 1, 35, 0
1, 207120, Note_on_c, 2, 59, 0
1, 207120, Note_on_c, 2, 83, 0
1, 207120, Note_on_c, 0, 47, 0
1, 207120, Note_on_c, 2, 95, 0
1, 207120, Note_on_c, 1, 71, 0
1, 207120, Note_on_c, 1, 83, 0
1, 207120, Note_on_c, 3, 83, 0
1, 207120, Note_on_c, 2, 71, 0
1, 207120, Note_on_c, 3, 47, 0
1, 207120, Note_on_c, 0, 47, 95
1, 207120, Note_on_c, 1, 71, 95
1, 207120, Note_on_c, 1, 83, 64
1, 207120, Note_on_c, 1, 35, 95
1, 207120, Note_on_c, 2, 95, 64
1, 207120, Note_on_c, 2, 83, 64
1, 207120, Note_on_c, 2, 71, 127
1, 207120, Note_on_c, 2, 59, 95
1, 207120, Note_on_c, 3, 83, 64
1, 207120, Note_on_c, 3, 47, 64
1, 207120, Control_c, 7, 7, 88
1, 207125, Control_c, 7, 7, 91
1, 207130, Control_c, 7, 7, 94
1, 207135, Control_c, 7, 7, 98
1, 207140, Control_c, 7, 7, 101
1, 207145, Control_c, 7, 7, 104
1, 207150, Pitch_bend_c, 0, 8335
1, 207150, Pitch_bend_c, 1, 8335
1, 207150, Pitch_bend_c, 2, 8335
1, 207150, Pitch_bend_c, 3, 8335
1, 207150, Control_c, 7, 7, 107
1, 207155, Control_c, 7, 7, 110
1, 207160, Control_c, 7, 7, 112
1, 207165, Control_c, 3, 7, 91
1, 207165, Control_c, 7, 7, 115
1, 207170, Control_c, 7, 7, 117
1, 207175, Control_c, 7, 7, 119
1, 207180, Control_c, 7, 7, 120
1, 207185, Control_c, 7, 7, 122
1, 207190, Control_c, 7, 7, 123
1, 207195, Control_c, 7, 7, 124
1, 207200, Pitch_bend_c, 0, 8485
1, 207200, Pitch_bend_c, 1, 8485
1, 207200, Pitch_bend_c, 2, 8485
1, 207200, Pitch_bend_c, 3, 8485
1, 207200, Control_c, 7, 7, 124
1, 207205, Control_c, 7, 7, 124
1, 207210, Control_c, 7, 7, 124
1, 207215, Pitch_bend_c, 0, 8628
1, 207215, Pitch_bend_c, 1, 8628
1, 207215, Pitch_bend_c, 2, 8628
1, 207215, Pitch_bend_c, 3, 8628
1, 207215, Control_c, 7, 7, 124
1, 207220, Control_c, 7, 7, 124
1, 207225, Control_c, 7, 7, 123
1, 207230, Pitch_bend_c, 0, 8772
1, 207230, Pitch_bend_c, 1, 8772
1, 207230, Pitch_bend_c, 2, 8772
1, 207230, Pitch_bend_c, 3, 8772
1, 207230, Control_c, 7, 7, 121
1, 207235, Control_c, 7, 7, 120
1, 207240, Control_c, 7, 7, 118
1, 207245, Pitch_bend_c, 0, 9065
1, 207245, Pitch_bend_c, 1, 9065
1, 207245, Pitch_bend_c, 2, 9065
1, 207245, Pitch_bend_c, 3, 9065
1, 207245, Control_c, 7, 7, 116
1, 207250, Control_c, 7, 7, 114
1, 207255, Control_c, 7, 7, 112
1, 207260, Pitch_bend_c, 0, 9400
1, 207260, Pitch_bend_c, 1, 9400
1, 207260, Pitch_bend_c, 2, 9400
1, 207260, Pitch_bend_c, 3, 9400
1, 207260, Control_c, 7, 7, 109
1, 207265, Control_c, 7, 7, 106
1, 207270, Control_c, 7, 7, 103
1, 207275, Control_c, 7, 7, 100
1, 207280, Pitch_bend_c, 0, 9543
1, 207280, Pitch_bend_c, 1, 9543
1, 207280, Pitch_bend_c, 2, 9543
1, 207280, Pitch_bend_c, 3, 9543
1, 207280, Control_c, 7, 7, 97
1, 207285, Control_c, 7, 7, 93
1, 207290, Control_c, 7, 7, 90
1, 207295, Pitch_bend_c, 0, 9830
1, 207295, Pitch_bend_c, 1, 9830
1, 207295, Pitch_bend_c, 2, 9830
1, 207295, Pitch_bend_c, 3, 9830
1, 207295, Control_c, 7, 7, 86
1, 207300, Control_c, 7, 7, 83
1, 207305, Control_c, 7, 7, 79
1, 207310, Pitch_bend_c, 0, 10110
1, 207310, Pitch_bend_c, 1, 10110
1, 207310, Pitch_bend_c, 2, 10110
1, 207310, Pitch_bend_c, 3, 10110
1, 207310, Control_c, 7, 7, 75
1, 207315, Control_c, 7, 7, 72
1, 207320, Control_c, 7, 7, 68
1, 207325, Pitch_bend_c, 0, 10253
1, 207325, Pitch_bend_c, 1, 10253
1, 207325, Pitch_bend_c, 2, 10253
1, 207325, Pitch_bend_c, 3, 10253
1, 207325, Control_c, 7, 7, 64
1, 207330, Control_c, 7, 7, 61
1, 207335, Control_c, 7, 7, 58
1, 207340, Pitch_bend_c, 0, 10397
1, 207340, Pitch_bend_c, 1, 10397
1, 207340, Pitch_bend_c, 2, 10397
1, 207340, Pitch_bend_c, 3, 10397
1, 207340, Control_c, 7, 7, 55
1, 207345, Control_c, 7, 7, 52
1, 207350, Control_c, 7, 7, 49
1, 207355, Control_c, 2, 7, 93
1, 207355, Control_c, 7, 7, 46
1, 207360, Note_on_c, 3, 47, 0
1, 207360, Note_on_c, 2, 59, 0
1, 207360, Note_on_c, 2, 83, 0
1, 207360, Note_on_c, 0, 47, 0
1, 207360, Note_on_c, 2, 95, 0
1, 207360, Note_on_c, 1, 71, 0
1, 207360, Note_on_c, 1, 83, 0
1, 207360, Note_on_c, 1, 35, 0
1, 207360, Note_on_c, 2, 71, 0
1, 207360, Note_on_c, 3, 83, 0
1, 207360, Pitch_bend_c, 0, 12165
1, 207360, Note_on_c, 0, 35, 95
1, 207360, Pitch_bend_c, 1, 12165
1, 207360, Note_on_c, 1, 59, 95
1, 207360, Note_on_c, 1, 71, 64
1, 207360, Note_on_c, 1, 23, 95
1, 207360, Pitch_bend_c, 2, 12165
1, 207360, Note_on_c, 2, 83, 64
1, 207360, Note_on_c, 2, 71, 64
1, 207360, Note_on_c, 2, 59, 127
1, 207360, Note_on_c, 2, 47, 95
1, 207360, Pitch_bend_c, 3, 12165
1, 207360, Note_on_c, 3, 71, 64
1, 207360, Note_on_c, 3, 35, 64
1, 207360, Control_c, 7, 7, 44
1, 207360, Note_on_c, 9, 35, 103
1, 207365, Control_c, 7, 7, 42
1, 207370, Control_c, 7, 7, 40
1, 207375, Pitch_bend_c, 0, 8192
1, 207375, Pitch_bend_c, 1, 8192
1, 207375, Pitch_bend_c, 2, 8192
1, 207375, Pitch_bend_c, 3, 8192
1, 207375, Control_c, 7, 7, 38
1, 207380, Control_c, 7, 7, 37
1, 207385, Control_c, 7, 7, 36
1, 207390, Control_c, 7, 7, 36
1, 207395, Control_c, 7, 7, 35
1, 207400, Control_c, 7, 7, 35
1, 207405, Control_c, 7, 7, 35
1, 207410, Control_c, 7, 7, 36
1, 207415, Control_c, 7, 7, 37
1, 207420, Control_c, 7, 7, 38
1, 207425, Control_c, 7, 7, 39
1, 207430, Control_c, 7, 7, 41
1, 207435, Control_c, 7, 7, 43
1, 207440, Control_c, 7, 7, 45
1, 207445, Control_c, 7, 7, 48
1, 207450, Control_c, 7, 7, 50
1, 207455, Control_c, 7, 7, 53
1, 207460, Control_c, 7, 7, 56
1, 207465, Control_c, 7, 7, 60
1, 207470, Control_c, 7, 7, 63
1, 207475, Control_c, 7, 7, 67
1, 207480, Note_on_c, 9, 35, 0
1, 207480, Control_c, 7, 7, 70
1, 207485, Control_c, 7, 7, 74
1, 207490, Control_c, 7, 7, 78
1, 207495, Control_c, 7, 7, 82
1, 207500, Control_c, 7, 7, 85
1, 207505, Control_c, 7, 7, 89
1, 207510, Control_c, 7, 7, 93
1, 207515, Control_c, 7, 7, 96
1, 207520, Control_c, 7, 7, 100
1, 207525, Control_c, 7, 7, 103
1, 207530, Control_c, 7, 7, 106
1, 207535, Control_c, 7, 7, 109
1, 207540, Control_c, 7, 7, 112
1, 207545, Control_c, 7, 7, 114
1, 207550, Control_c, 7, 7, 117
1, 207555, Control_c, 7, 7, 119
1, 207560, Control_c, 7, 7, 121
1, 207565, Control_c, 7, 7, 122
1, 207570, Control_c, 7, 7, 123
1, 207575, Control_c, 7, 7, 124
1, 207580, Control_c, 7, 7, 124
1, 207585, Control_c, 7, 7, 125
1, 207590, Control_c, 7, 7, 124
1, 207595, Control_c, 7, 7, 124
1, 207600, Control_c, 7, 7, 123
1, 207605, Control_c, 7, 7, 122
1, 207610, Control_c, 7, 7, 120
1, 207615, Control_c, 7, 7, 119
1, 207620, Control_c, 7, 7, 117
1, 207625, Control_c, 7, 7, 114
1, 207630, Control_c, 7, 7, 112
1, 207635, Control_c, 7, 7, 109
1, 207640, Control_c, 7, 7, 106
1, 207645, Control_c, 7, 7, 103
1, 207650, Control_c, 7, 7, 99
1, 207655, Control_c, 7, 7, 96
1, 207660, Control_c, 7, 7, 92
1, 207665, Control_c, 7, 7, 88
1, 207670, Control_c, 7, 7, 84
1, 207675, Control_c, 7, 7, 80
1, 207680, Control_c, 7, 7, 76
1, 207685, Control_c, 7, 7, 73
1, 207690, Control_c, 7, 7, 69
1, 207695, Control_c, 7, 7, 65
1, 207700, Control_c, 7, 7, 61
1, 207705, Control_c, 7, 7, 58
1, 207710, Control_c, 7, 7, 55
1, 207715, Control_c, 7, 7, 51
1, 207720, Note_on_c, 1, 23, 0
1, 207720, Note_on_c, 2, 47, 0
1, 207720, Note_on_c, 2, 71, 0
1, 207720, Note_on_c, 0, 35, 0
1, 207720, Note_on_c, 2, 83, 0
1, 207720, Note_on_c, 1, 59, 0
1, 207720, Note_on_c, 1, 71, 0
1, 207720, Note_on_c, 3, 71, 0
1, 207720, Note_on_c, 2, 59, 0
1, 207720, Note_on_c, 3, 35, 0
1, 207720, Pitch_bend_c, 0, 0
1, 207720, Note_on_c, 0, 47, 95
1, 207720, Pitch_bend_c, 1, 0
1, 207720, Note_on_c, 1, 71, 95
1, 207720, Note_on_c, 1, 83, 64
1, 207720, Note_on_c, 1, 35, 95
1, 207720, Pitch_bend_c, 2, 0
1, 207720, Note_on_c, 2, 95, 64
1, 207720, Note_on_c, 2, 83, 64
1, 207720, Note_on_c, 2, 71, 127
1, 207720, Note_on_c, 2, 59, 95
1, 207720, Pitch_bend_c, 3, 0
1, 207720, Note_on_c, 3, 83, 64
1, 207720, Note_on_c, 3, 47, 64
1, 207720, Control_c, 7, 7, 49
1, 207725, Control_c, 7, 7, 46
1, 207730, Control_c, 7, 7, 43
1, 207735, Pitch_bend_c, 0, 8192
1, 207735, Pitch_bend_c, 1, 8192
1, 207735, Pitch_bend_c, 2, 8192
1, 207735, Pitch_bend_c, 3, 8192
1, 207735, Control_c, 7, 7, 41
1, 207740, Control_c, 7, 7, 39
1, 207745, Control_c, 7, 7, 38
1, 207750, Control_c, 7, 7, 37
1, 207755, Control_c, 7, 7, 36
1, 207760, Control_c, 7, 7, 35
1, 207765, Control_c, 7, 7, 35
1, 207770, Control_c, 7, 7, 35
1, 207775, Control_c, 7, 7, 36
1, 207780, Control_c, 7, 7, 37
1, 207785, Control_c, 7, 7, 38
1, 207790, Control_c, 7, 7, 39
1, 207795, Control_c, 7, 7, 41
1, 207800, Control_c, 7, 7, 43
1, 207805, Control_c, 7, 7, 46
1, 207810, Control_c, 7, 7, 49
1, 207815, Control_c, 7, 7, 52
1, 207820, Control_c, 7, 7, 55
1, 207825, Control_c, 7, 7, 58
1, 207830, Control_c, 7, 7, 62
1, 207835, Control_c, 3, 7, 97
1, 207835, Control_c, 7, 7, 66
1, 207840, Note_on_c, 3, 47, 0
1, 207840, Note_on_c, 2, 59, 0
1, 207840, Note_on_c, 2, 83, 0
1, 207840, Note_on_c, 0, 47, 0
1, 207840, Note_on_c, 2, 95, 0
1, 207840, Note_on_c, 1, 71, 0
1, 207840, Note_on_c, 1, 83, 0
1, 207840, Note_on_c, 1, 35, 0
1, 207840, Note_on_c, 2, 71, 0
1, 207840, Note_on_c, 3, 83, 0
1, 207840, Control_c, 7, 7, 69
1, 207840, Note_on_c, 9, 35, 103
1, 207845, Control_c, 7, 7, 73
1, 207850, Control_c, 7, 7, 77
1, 207855, Control_c, 7, 7, 81
1, 207860, Control_c, 7, 7, 85
1, 207865, Control_c, 7, 7, 89
1, 207870, Control_c, 7, 7, 93
1, 207875, Control_c, 7, 7, 97
1, 207880, Control_c, 7, 7, 101
1, 207885, Control_c, 7, 7, 104
1, 207890, Control_c, 7, 7, 107
1, 207895, Control_c, 7, 7, 110
1, 207900, Control_c, 7, 7, 113
1, 207905, Control_c, 7, 7, 116
1, 207910, Control_c, 7, 7, 118
1, 207915, Control_c, 7, 7, 120
1, 207920, Control_c, 7, 7, 122
1, 207925, Control_c, 7, 7, 123
1, 207930, Control_c, 7, 7, 124
1, 207935, Control_c, 7, 7, 124
1, 207940, Control_c, 7, 7, 125
1, 207945, Control_c, 7, 7, 124
1, 207950, Control_c, 7, 7, 124
1, 207955, Control_c, 7, 7, 123
1, 207960, Note_on_c, 9, 35, 0
1, 207960, Control_c, 7, 7, 121
1, 207965, Control_c, 7, 7, 120
1, 207970, Control_c, 7, 7, 118
1, 207975, Control_c, 7, 7, 116
1, 207980, Control_c, 7, 7, 113
1, 207985, Control_c, 7, 7, 110
1, 207990, Control_c, 7, 7, 107
1, 207995, Control_c, 2, 7, 98
1, 207995, Control_c, 7, 7, 103
1, 208000, Control_c, 7, 7, 100
1, 208005, Control_c, 7, 7, 96
1, 208010, Control_c, 7, 7, 92
1, 208015, Control_c, 7, 7, 88
1, 208020, Control_c, 7, 7, 84
1, 208025, Control_c, 7, 7, 80
1, 208030, Control_c, 7, 7, 76
1, 208035, Control_c, 7, 7, 72
1, 208040, Control_c, 7, 7, 68
1, 208045, Control_c, 7, 7, 64
1, 208050, Control_c, 7, 7, 60
1, 208055, Control_c, 7, 7, 56
1, 208060, Control_c, 7, 7, 53
1, 208065, Control_c, 7, 7, 50
1, 208070, Control_c, 7, 7, 47
1, 208075, Control_c, 7, 7, 44
1, 208080, Note_on_c, 0, 47, 95
1, 208080, Note_on_c, 1, 71, 95
1, 208080, Note_on_c, 1, 83, 64
1, 208080, Note_on_c, 1, 35, 95
1, 208080, Note_on_c, 2, 95, 64
1, 208080, Note_on_c, 2, 83, 64
1, 208080, Note_on_c, 2, 71, 127
1, 208080, Note_on_c, 2, 59, 95
1, 208080, Note_on_c, 3, 83, 64
1, 208080, Note_on_c, 3, 47, 64
1, 208080, Control_c, 7, 7, 42
1, 208085, Control_c, 7, 7, 40
1, 208090, Control_c, 7, 7, 38
1, 208095, Control_c, 7, 7, 37
1, 208100, Control_c, 7, 7, 36
1, 208105, Control_c, 7, 7, 35
1, 208110, Control_c, 7, 7, 35
1, 208115, Control_c, 7, 7, 35
1, 208120, Control_c, 7, 7, 36
1, 208125, Control_c, 7, 7, 37
1, 208130, Control_c, 7, 7, 39
1, 208135, Control_c, 7, 7, 40
1, 208140, Control_c, 7, 7, 43
1, 208145, Control_c, 7, 7, 45
1, 208150, Control_c, 7, 7, 48
1, 208155, Control_c, 7, 7, 51
1, 208160, Control_c, 7, 7, 54
1, 208165, Control_c, 7, 7, 58
1, 208170, Control_c, 7, 7, 62
1, 208175, Control_c, 7, 7, 66
1, 208180, Control_c, 7, 7, 70
1, 208185, Control_c, 7, 7, 74
1, 208190, Control_c, 7, 7, 78
1, 208195, Control_c, 7, 7, 83
1, 208200, Control_c, 7, 7, 87
1, 208205, Control_c, 7, 7, 91
1, 208210, Control_c, 7, 7, 95
1, 208215, Control_c, 7, 7, 99
1, 208220, Control_c, 7, 7, 103
1, 208225, Control_c, 7, 7, 106
1, 208230, Control_c, 7, 7, 110
1, 208235, Control_c, 7, 7, 113
1, 208240, Control_c, 7, 7, 116
1, 208245, Control_c, 7, 7, 118
1, 208250, Control_c, 7, 7, 120
1, 208255, Control_c, 7, 7, 122
1, 208260, Control_c, 7, 7, 123
1, 208265, Control_c, 7, 7, 124
1, 208270, Control_c, 7, 7, 124
1, 208275, Control_c, 7, 7, 124
1, 208280, Control_c, 7, 7, 124
1, 208285, Control_c, 7, 7, 123
1, 208290, Control_c, 7, 7, 122
1, 208295, Control_c, 7, 7, 121
1, 208300, Control_c, 7, 7, 119
1, 208305, Control_c, 7, 7, 116
1, 208310, Control_c, 7, 7, 113
1, 208315, Control_c, 7, 7, 110
1, 208320, Note_on_c, 3, 47, 0
1, 208320, Note_on_c, 2, 59, 0
1, 208320, Note_on_c, 2, 83, 0
1, 208320, Note_on_c, 0, 47, 0
1, 208320, Note_on_c, 2, 95, 0
1, 208320, Note_on_c, 1, 71, 0
1, 208320, Note_on_c, 1, 83, 0
1, 208320, Note_on_c, 1, 35, 0
1, 208320, Note_on_c, 2, 71, 0
1, 208320, Note_on_c, 3, 83, 0
1, 208320, Note_on_c, 0, 47, 95
1, 208320, Note_on_c, 1, 71, 95
1, 208320, Note_on_c, 1, 83, 64
1, 208320, Note_on_c, 1, 35, 95
1, 208320, Note_on_c, 2, 95, 64
1, 208320, Note_on_c, 2, 83, 64
1, 208320, Note_on_c, 2, 71, 127
1, 208320, Note_on_c, 2, 59, 95
1, 208320, Note_on_c, 3, 83, 64
1, 208320, Note_on_c, 3, 47, 64
1, 208320, Control_c, 7, 7, 107
1, 208320, Note_on_c, 9, 35, 104
1, 208325, Control_c, 7, 7, 104
1, 208330, Control_c, 7, 7, 100
1, 208335, Control_c, 7, 7, 96
1, 208340, Control_c, 7, 7, 91
1, 208345, Control_c, 7, 7, 87
1, 208350, Pitch_bend_c, 0, 8049
1, 208350, Pitch_bend_c, 1, 8049
1, 208350, Pitch_bend_c, 2, 8049
1, 208350, Pitch_bend_c, 3, 8049
1, 208350, Control_c, 7, 7, 83
1, 208355, Control_c, 7, 7, 78
1, 208360, Control_c, 7, 7, 74
1, 208365, Control_c, 7, 7, 70
1, 208370, Control_c, 7, 7, 65
1, 208375, Control_c, 7, 7, 61
1, 208380, Pitch_bend_c, 0, 7899
1, 208380, Pitch_bend_c, 1, 7899
1, 208380, Pitch_bend_c, 2, 7899
1, 208380, Pitch_bend_c, 3, 7899
1, 208380, Control_c, 7, 7, 57
1, 208385, Control_c, 7, 7, 54
1, 208390, Control_c, 7, 7, 50
1, 208395, Control_c, 7, 7, 47
1, 208400, Control_c, 7, 7, 44
1, 208405, Control_c, 7, 7, 42
1, 208410, Control_c, 7, 7, 40
1, 208415, Pitch_bend_c, 0, 7756
1, 208415, Pitch_bend_c, 1, 7756
1, 208415, Pitch_bend_c, 2, 7756
1, 208415, Pitch_bend_c, 3, 7756
1, 208415, Control_c, 7, 7, 38
1, 208420, Control_c, 7, 7, 37
1, 208425, Control_c, 7, 7, 36
1, 208430, Control_c, 7, 7, 35
1, 208435, Control_c, 7, 7, 35
1, 208440, Note_on_c, 9, 35, 0
1, 208440, Control_c, 7, 7, 36
1, 208445, Pitch_bend_c, 0, 7612
1, 208445, Pitch_bend_c, 1, 7612
1, 208445, Pitch_bend_c, 2, 7612
1, 208445, Pitch_bend_c, 3, 7612
1, 208445, Control_c, 7, 7, 37
1, 208450, Control_c, 7, 7, 38
1, 208455, Control_c, 7, 7, 40
1, 208460, Control_c, 7, 7, 42
1, 208465, Control_c, 7, 7, 45
1, 208470, Control_c, 7, 7, 48
1, 208475, Control_c, 7, 7, 51
1, 208480, Pitch_bend_c, 0, 7469
1, 208480, Pitch_bend_c, 1, 7469
1, 208480, Pitch_bend_c, 2, 7469
1, 208480, Pitch_bend_c, 3, 7469
1, 208480, Control_c, 7, 7, 54
1, 208485, Control_c, 7, 7, 58
1, 208490, Control_c, 7, 7, 62
1, 208495, Control_c, 7, 7, 67
1, 208500, Note_on_c, 1, 35, 0
1, 208500, Note_on_c, 2, 59, 0
1, 208500, Note_on_c, 2, 83, 0
1, 208500, Note_on_c, 0, 47, 0
1, 208500, Note_on_c, 2, 95, 0
1, 208500, Note_on_c, 1, 71, 0
1, 208500, Note_on_c, 1, 83, 0
1, 208500, Note_on_c, 3, 83, 0
1, 208500, Note_on_c, 2, 71, 0
1, 208500, Note_on_c, 3, 47, 0
1, 208500, Control_c, 7, 7, 71
1, 208505, Control_c, 7, 7, 75
1, 208510, Control_c, 3, 7, 103
1, 208510, Control_c, 7, 7, 80
1, 208515, Control_c, 7, 7, 85
1, 208520, Control_c, 7, 7, 89
1, 208525, Control_c, 7, 7, 93
1, 208530, Control_c, 7, 7, 98
1, 208535, Control_c, 7, 7, 102
1, 208540, Control_c, 7, 7, 106
1, 208545, Control_c, 7, 7, 109
1, 208550, Control_c, 7, 7, 113
1, 208555, Control_c, 7, 7, 115
1, 208560, Note_on_c, 0, 47, 95
1, 208560, Note_on_c, 1, 71, 95
1, 208560, Note_on_c, 1, 83, 64
1, 208560, Note_on_c, 1, 35, 95
1, 208560, Note_on_c, 2, 95, 64
1, 208560, Note_on_c, 2, 83, 64
1, 208560, Note_on_c, 2, 71, 127
1, 208560, Note_on_c, 2, 59, 95
1, 208560, Note_on_c, 3, 83, 64
1, 208560, Note_on_c, 3, 47, 64
1, 208560, Control_c, 7, 7, 118
1, 208565, Control_c, 7, 7, 120
1, 208570, Control_c, 7, 7, 122
1, 208575, Pitch_bend_c, 0, 7319
1, 208575, Pitch_bend_c, 1, 7319
1, 208575, Pitch_bend_c, 2, 7319
1, 208575, Pitch_bend_c, 3, 7319
1, 208575, Control_c, 7, 7, 123
1, 208580, Control_c, 7, 7, 124
1, 208585, Control_c, 7, 7, 124
1, 208590, Control_c, 7, 7, 124
1, 208595, Control_c, 7, 7, 124
1, 208600, Control_c, 7, 7, 123
1, 208605, Control_c, 7, 7, 121
1, 208610, Control_c, 7, 7, 119
1, 208615, Control_c, 7, 7, 117
1, 208620, Pitch_bend_c, 0, 7175
1, 208620, Pitch_bend_c, 1, 7175
1, 208620, Pitch_bend_c, 2, 7175
1, 208620, Pitch_bend_c, 3, 7175
1, 208620, Control_c, 7, 7, 114
1, 208625, Control_c, 7, 7, 111
1, 208630, Control_c, 7, 7, 107
1, 208635, Control_c, 2, 7, 104
1, 208635, Control_c, 7, 7, 104
1, 208640, Pitch_bend_c, 0, 6984
1, 208640, Pitch_bend_c, 1, 6984
1, 208640, Pitch_bend_c, 2, 6984
1, 208640, Pitch_bend_c, 3, 6984
1, 208640, Control_c, 7, 7, 99
1, 208645, Control_c, 7, 7, 95
1, 208650, Control_c, 7, 7, 91
1, 208655, Control_c, 7, 7, 86
1, 208660, Control_c, 7, 7, 81
1, 208665, Control_c, 7, 7, 77
1, 208670, Pitch_bend_c, 0, 6841
1, 208670, Pitch_bend_c, 1, 6841
1, 208670, Pitch_bend_c, 2, 6841
1, 208670, Pitch_bend_c, 3, 6841
1, 208670, Control_c, 7, 7, 72
1, 208675, Control_c, 7, 7, 68
1, 208680, Control_c, 7, 7, 63
1, 208685, Control_c, 7, 7, 59
1, 208690, Control_c, 7, 7, 55
1, 208695, Control_c, 7, 7, 51
1, 208700, Pitch_bend_c, 0, 6697
1, 208700, Pitch_bend_c, 1, 6697
1, 208700, Pitch_bend_c, 2, 6697
1, 208700, Pitch_bend_c, 3, 6697
1, 208700, Control_c, 7, 7, 48
1, 208705, Control_c, 7, 7, 45
1, 208710, Control_c, 7, 7, 42
1, 208715, Control_c, 7, 7, 40
1, 208720, Control_c, 7, 7, 38
1, 208725, Control_c, 7, 7, 37
1, 208730, Control_c, 7, 7, 36
1, 208735, Control_c, 7, 7, 35
1, 208740, Control_c, 7, 7, 36
1, 208745, Control_c, 7, 7, 36
1, 208750, Control_c, 7, 7, 37
1, 208755, Control_c, 7, 7, 39
1, 208760, Control_c, 7, 7, 41
1, 208765, Control_c, 7, 7, 44
1, 208770, Control_c, 7, 7, 47
1, 208775, Control_c, 7, 7, 50
1, 208780, Pitch_bend_c, 0, 6554
1, 208780, Pitch_bend_c, 1, 6554
1, 208780, Pitch_bend_c, 2, 6554
1, 208780, Pitch_bend_c, 3, 6554
1, 208780, Control_c, 7, 7, 54
1, 208785, Control_c, 7, 7, 58
1, 208790, Control_c, 7, 7, 62
1, 208795, Control_c, 7, 7, 67
1, 208800, Note_on_c, 3, 47, 0
1, 208800, Note_on_c, 2, 59, 0
1, 208800, Note_on_c, 2, 83, 0
1, 208800, Note_on_c, 0, 47, 0
1, 208800, Note_on_c, 2, 95, 0
1, 208800, Note_on_c, 1, 71, 0
1, 208800, Note_on_c, 1, 83, 0
1, 208800, Note_on_c, 1, 35, 0
1, 208800, Note_on_c, 2, 71, 0
1, 208800, Note_on_c, 3, 83, 0
1, 208800, Note_on_c, 0, 47, 95
1, 208800, Note_on_c, 1, 71, 95
1, 208800, Note_on_c, 1, 83, 64
1, 208800, Note_on_c, 1, 35, 95
1, 208800, Note_on_c, 2, 95, 64
1, 208800, Note_on_c, 2, 83, 64
1, 208800, Note_on_c, 2, 71, 127
1, 208800, Note_on_c, 2, 59, 95
1, 208800, Note_on_c, 3, 83, 64
1, 208800, Note_on_c, 3, 47, 64
1, 208800, Control_c, 7, 7, 72
1, 208800, Note_on_c, 9, 35, 104
1, 208805, Control_c, 7, 7, 76
1, 208810, Control_c, 7, 7, 81
1, 208815, Control_c, 7, 7, 86
1, 208820, Control_c, 7, 7, 91
1, 208825, Control_c, 7, 7, 95
1, 208830, Pitch_bend_c, 0, 6418
1, 208830, Pitch_bend_c, 1, 6418
1, 208830, Pitch_bend_c, 2, 6418
1, 208830, Pitch_bend_c, 3, 6418
1, 208830, Control_c, 7, 7, 100
1, 208835, Control_c, 7, 7, 104
1, 208840, Control_c, 7, 7, 108
1, 208845, Pitch_bend_c, 0, 6274
1, 208845, Pitch_bend_c, 1, 6274
1, 208845, Pitch_bend_c, 2, 6274
1, 208845, Pitch_bend_c, 3, 6274
1, 208845, Control_c, 7, 7, 112
1, 208850, Control_c, 7, 7, 115
1, 208855, Control_c, 7, 7, 118
1, 208860, Pitch_bend_c, 0, 6131
1, 208860, Pitch_bend_c, 1, 6131
1, 208860, Pitch_bend_c, 2, 6131
1, 208860, Pitch_bend_c, 3, 6131
1, 208860, Control_c, 7, 7, 120
1, 208865, Control_c, 7, 7, 122
1, 208870, Control_c, 7, 7, 123
1, 208875, Control_c, 7, 7, 124
1, 208880, Pitch_bend_c, 0, 5987
1, 208880, Pitch_bend_c, 1, 5987
1, 208880, Pitch_bend_c, 2, 5987
1, 208880, Pitch_bend_c, 3, 5987
1, 208880, Control_c, 7, 7, 125
1, 208885, Control_c, 7, 7, 124
1, 208890, Control_c, 7, 7, 124
1, 208895, Pitch_bend_c, 0, 5803
1, 208895, Pitch_bend_c, 1, 5803
1, 208895, Pitch_bend_c, 2, 5803
1, 208895, Pitch_bend_c, 3, 5803
1, 208895, Control_c, 7, 7, 122
1, 208900, Control_c, 7, 7, 120
1, 208905, Control_c, 7, 7, 118
1, 208910, Pitch_bend_c, 0, 5660
1, 208910, Pitch_bend_c, 1, 5660
1, 208910, Pitch_bend_c, 2, 5660
1, 208910, Pitch_bend_c, 3, 5660
1, 208910, Control_c, 7, 7, 115
1, 208915, Control_c, 7, 7, 112
1, 208920, Note_on_c, 9, 35, 0
1, 208920, Control_c, 7, 7, 109
1, 208925, Pitch_bend_c, 0, 5516
1, 208925, Pitch_bend_c, 1, 5516
1, 208925, Pitch_bend_c, 2, 5516
1, 208925, Pitch_bend_c, 3, 5516
1, 208925, Control_c, 7, 7, 105
1, 208930, Control_c, 7, 7, 100
1, 208935, Control_c, 7, 7, 96
1, 208940, Pitch_bend_c, 0, 5380
1, 208940, Pitch_bend_c, 1, 5380
1, 208940, Pitch_bend_c, 2, 5380
1, 208940, Pitch_bend_c, 3, 5380
1, 208940, Control_c, 7, 7, 91
1, 208945, Control_c, 7, 7, 86
1, 208950, Control_c, 7, 7, 81
1, 208955, Control_c, 7, 7, 76
1, 208960, Pitch_bend_c, 0, 5237
1, 208960, Pitch_bend_c, 1, 5237
1, 208960, Pitch_bend_c, 2, 5237
1, 208960, Pitch_bend_c, 3, 5237
1, 208960, Control_c, 7, 7, 71
1, 208965, Control_c, 7, 7, 67
1, 208970, Control_c, 7, 7, 62
1, 208975, Control_c, 7, 7, 57
1, 208980, Control_c, 7, 7, 53
1, 208985, Control_c, 7, 7, 49
1, 208990, Pitch_bend_c, 0, 5100
1, 208990, Pitch_bend_c, 1, 5100
1, 208990, Pitch_bend_c, 2, 5100
1, 208990, Pitch_bend_c, 3, 5100
1, 208990, Control_c, 7, 7, 46
1, 208995, Control_c, 7, 7, 43
1, 209000, Control_c, 7, 7, 40
1, 209005, Control_c, 7, 7, 38
1, 209010, Control_c, 7, 7, 37
1, 209015, Control_c, 7, 7, 36
1, 209020, Control_c, 7, 7, 35
1, 209025, Control_c, 7, 7, 36
1, 209030, Control_c, 7, 7, 36
1, 209035, Control_c, 7, 7, 38
1, 209040, Note_on_c, 1, 35, 0
1, 209040, Note_on_c, 2, 59, 0
1, 209040, Note_on_c, 2, 83, 0
1, 209040, Note_on_c, 0, 47, 0
1, 209040, Note_on_c, 2, 95, 0
1, 209040, Note_on_c, 1, 71, 0
1, 209040, Note_on_c, 1, 83, 0
1, 209040, Note_on_c, 3, 83, 0
1, 209040, Note_on_c, 2, 71, 0
1, 209040, Note_on_c, 3, 47, 0
1, 209040, Note_on_c, 0, 47, 95
1, 209040, Note_on_c, 1, 71, 95
1, 209040, Note_on_c, 1, 83, 64
1, 209040, Note_on_c, 1, 35, 95
1, 209040, Note_on_c, 2, 95, 64
1, 209040, Note_on_c, 2, 83, 64
1, 209040, Note_on_c, 2, 71, 127
1, 209040, Note_on_c, 2, 59, 95
1, 209040, Note_on_c, 3, 83, 64
1, 209040, Note_on_c, 3, 47, 64
1, 209040, Control_c, 7, 7, 40
1, 209045, Control_c, 7, 7, 42
1, 209050, Control_c, 7, 7, 45
1, 209055, Pitch_bend_c, 0, 4963
1, 209055, Pitch_bend_c, 1, 4963
1, 209055, Pitch_bend_c, 2, 4963
1, 209055, Pitch_bend_c, 3, 4963
1, 209055, Control_c, 7, 7, 48
1, 209060, Control_c, 7, 7, 52
1, 209065, Control_c, 7, 7, 56
1, 209070, Pitch_bend_c, 0, 4636
1, 209070, Pitch_bend_c, 1, 4636
1, 209070, Pitch_bend_c, 2, 4636
1, 209070, Pitch_bend_c, 3, 4636
1, 209070, Control_c, 7, 7, 61
1, 209075, Control_c, 7, 7, 65
1, 209080, Control_c, 7, 7, 70
1, 209085, Pitch_bend_c, 0, 4499
1, 209085, Pitch_bend_c, 1, 4499
1, 209085, Pitch_bend_c, 2, 4499
1, 209085, Pitch_bend_c, 3, 4499
1, 209085, Control_c, 7, 7, 75
1, 209090, Control_c, 7, 7, 81
1, 209095, Control_c, 7, 7, 86
1, 209100, Pitch_bend_c, 0, 4083
1, 209100, Pitch_bend_c, 1, 4083
1, 209100, Pitch_bend_c, 2, 4083
1, 209100, Pitch_bend_c, 3, 4083
1, 209100, Control_c, 7, 7, 91
1, 209105, Control_c, 7, 7, 96
1, 209110, Control_c, 7, 7, 100
1, 209115, Control_c, 7, 7, 105
1, 209120, Pitch_bend_c, 0, 3810
1, 209120, Pitch_bend_c, 1, 3810
1, 209120, Pitch_bend_c, 2, 3810
1, 209120, Pitch_bend_c, 3, 3810
1, 209120, Control_c, 7, 7, 109
1, 209125, Control_c, 7, 7, 113
1, 209130, Control_c, 7, 7, 116
1, 209135, Pitch_bend_c, 0, 3359
1, 209135, Pitch_bend_c, 1, 3359
1, 209135, Pitch_bend_c, 2, 3359
1, 209135, Pitch_bend_c, 3, 3359
1, 209135, Control_c, 7, 7, 119
1, 209140, Control_c, 7, 7, 121
1, 209145, Control_c, 7, 7, 123
1, 209150, Pitch_bend_c, 0, 3086
1, 209150, Pitch_bend_c, 1, 3086
1, 209150, Pitch_bend_c, 2, 3086
1, 209150, Pitch_bend_c, 3, 3086
1, 209150, Control_c, 7, 7, 124
1, 209155, Control_c, 7, 7, 124
1, 209160, Control_c, 7, 7, 124
1, 209165, Pitch_bend_c, 0, 2820
1, 209165, Pitch_bend_c, 1, 2820
1, 209165, Pitch_bend_c, 2, 2820
1, 209165, Pitch_bend_c, 3, 2820
1, 209165, Control_c, 7, 7, 124
1, 209170, Control_c, 7, 7, 122
1, 209175, Control_c, 7, 7, 121
1, 209180, Pitch_bend_c, 0, 2683
1, 209180, Pitch_bend_c, 1, 2683
1, 209180, Pitch_bend_c, 2, 2683
1, 209180, Pitch_bend_c, 3, 2683
1, 209180, Control_c, 3, 7, 109
1, 209180, Control_c, 7, 7, 118
1, 209185, Control_c, 7, 7, 115
1, 209190, Control_c, 7, 7, 112
1, 209195, Control_c, 7, 7, 108
1, 209200, Pitch_bend_c, 0, 2369
1, 209200, Pitch_bend_c, 1, 2369
1, 209200, Pitch_bend_c, 2, 2369
1, 209200, Pitch_bend_c, 3, 2369
1, 209200, Control_c, 7, 7, 104
1, 209205, Control_c, 7, 7, 99
1, 209210, Control_c, 7, 7, 94
1, 209215, Pitch_bend_c, 0, 2240
1, 209215, Pitch_bend_c, 1, 2240
1, 209215, Pitch_bend_c, 2, 2240
1, 209215, Pitch_bend_c, 3, 2240
1, 209215, Control_c, 7, 7, 89
1, 209220, Control_c, 7, 7, 84
1, 209225, Control_c, 7, 7, 78
1, 209230, Control_c, 7, 7, 73
1, 209235, Control_c, 7, 7, 68
1, 209240, Control_c, 7, 7, 63
1, 209245, Pitch_bend_c, 0, 2103
1, 209245, Pitch_bend_c, 1, 2103
1, 209245, Pitch_bend_c, 2, 2103
1, 209245, Pitch_bend_c, 3, 2103
1, 209245, Control_c, 7, 7, 58
1, 209250, Control_c, 7, 7, 54
1, 209255, Control_c, 7, 7, 49
1, 209260, Control_c, 7, 7, 46
1, 209265, Control_c, 7, 7, 43
1, 209270, Control_c, 7, 7, 40
1, 209275, Control_c, 2, 7, 110
1, 209275, Control_c, 7, 7, 38
1, 209280, Note_on_c, 3, 47, 0
1, 209280, Note_on_c, 2, 59, 0
1, 209280, Note_on_c, 2, 83, 0
1, 209280, Note_on_c, 0, 47, 0
1, 209280, Note_on_c, 2, 95, 0
1, 209280, Note_on_c, 1, 71, 0
1, 209280, Note_on_c, 1, 83, 0
1, 209280, Note_on_c, 1, 35, 0
1, 209280, Note_on_c, 2, 71, 0
1, 209280, Note_on_c, 3, 83, 0
1, 209280, Pitch_bend_c, 0, 8192
1, 209280, Note_on_c, 0, 35, 95
1, 209280, Pitch_bend_c, 1, 8192
1, 209280, Note_on_c, 1, 59, 95
1, 209280, Note_on_c, 1, 71, 64
1, 209280, Note_on_c, 1, 23, 95
1, 209280, Pitch_bend_c, 2, 8192
1, 209280, Note_on_c, 2, 83, 94
1, 209280, Note_on_c, 2, 71, 64
1, 209280, Note_on_c, 2, 59, 127
1, 209280, Note_on_c, 2, 47, 95
1, 209280, Pitch_bend_c, 3, 8192
1, 209280, Note_on_c, 3, 71, 64
1, 209280, Note_on_c, 3, 35, 64
1, 209280, Control_c, 7, 7, 37
1, 209280, Note_on_c, 9, 35, 103
1, 209285, Control_c, 7, 7, 36
1, 209290, Control_c, 7, 7, 36
1, 209295, Control_c, 7, 7, 36
1, 209300, Control_c, 7, 7, 37
1, 209305, Control_c, 7, 7, 39
1, 209310, Control_c, 7, 7, 41
1, 209315, Control_c, 7, 7, 44
1, 209320, Control_c, 7, 7, 48
1, 209325, Control_c, 7, 7, 52
1, 209330, Control_c, 7, 7, 56
1, 209335, Control_c, 7, 7, 61
1, 209340, Control_c, 7, 7, 66
1, 209345, Control_c, 7, 7, 71
1, 209350, Control_c, 7, 7, 76
1, 209355, Control_c, 7, 7, 82
1, 209360, Control_c, 7, 7, 87
1, 209365, Control_c, 7, 7, 93
1, 209370, Control_c, 7, 7, 98
1, 209375, Control_c, 7, 7, 103
1, 209380, Control_c, 7, 7, 107
1, 209385, Control_c, 7, 7, 111
1, 209390, Control_c, 7, 7, 115
1, 209395, Control_c, 7, 7, 118
1, 209400, Note_on_c, 9, 35, 0
1, 209400, Control_c, 7, 7, 121
1, 209405, Control_c, 7, 7, 123
1, 209410, Control_c, 7, 7, 124
1, 209415, Control_c, 7, 7, 124
1, 209420, Control_c, 7, 7, 124
1, 209425, Control_c, 7, 7, 124
1, 209430, Control_c, 7, 7, 122
1, 209435, Control_c, 7, 7, 120
1, 209440, Control_c, 7, 7, 117
1, 209445, Control_c, 7, 7, 114
1, 209450, Control_c, 7, 7, 110
1, 209455, Control_c, 7, 7, 105
1, 209460, Control_c, 7, 7, 101
1, 209465, Control_c, 7, 7, 96
1, 209470, Control_c, 7, 7, 90
1, 209475, Control_c, 7, 7, 85
1, 209480, Control_c, 7, 7, 79
1, 209485, Control_c, 7, 7, 73
1, 209490, Control_c, 7, 7, 68
1, 209495, Control_c, 7, 7, 62
1, 209500, Control_c, 7, 7, 57
1, 209505, Control_c, 7, 7, 53
1, 209510, Control_c, 7, 7, 48
1, 209515, Control_c, 7, 7, 45
1, 209520, Control_c, 7, 7, 42
1, 209525, Control_c, 7, 7, 39
1, 209530, Control_c, 7, 7, 37
1, 209535, Control_c, 7, 7, 36
1, 209540, Control_c, 7, 7, 36
1, 209545, Control_c, 7, 7, 36
1, 209550, Control_c, 7, 7, 37
1, 209555, Control_c, 7, 7, 39
1, 209560, Control_c, 7, 7, 41
1, 209565, Control_c, 7, 7, 44
1, 209570, Control_c, 7, 7, 48
1, 209575, Control_c, 7, 7, 52
1, 209580, Control_c, 7, 7, 57
1, 209585, Control_c, 7, 7, 62
1, 209590, Control_c, 7, 7, 67
1, 209595, Control_c, 7, 7, 73
1, 209600, Control_c, 7, 7, 79
1, 209605, Control_c, 7, 7, 85
1, 209610, Control_c, 7, 7, 90
1, 209615, Control_c, 7, 7, 96
1, 209620, Control_c, 7, 7, 101
1, 209625, Control_c, 7, 7, 106
1, 209630, Control_c, 7, 7, 111
1, 209635, Control_c, 7, 7, 115
1, 209640, Note_on_c, 1, 23, 0
1, 209640, Note_on_c, 2, 47, 0
1, 209640, Note_on_c, 2, 71, 0
1, 209640, Note_on_c, 0, 35, 0
1, 209640, Note_on_c, 2, 83, 0
1, 209640, Note_on_c, 1, 59, 0
1, 209640, Note_on_c, 1, 71, 0
1, 209640, Note_on_c, 3, 71, 0
1, 209640, Note_on_c, 2, 59, 0
1, 209640, Note_on_c, 3, 35, 0
1, 209640, Pitch_bend_c, 0, 0
1, 209640, Note_on_c, 0, 47, 95
1, 209640, Pitch_bend_c, 1, 0
1, 209640, Note_on_c, 1, 71, 95
1, 209640, Note_on_c, 1, 83, 64
1, 209640, Note_on_c, 1, 35, 95
1, 209640, Pitch_bend_c, 2, 0
1, 209640, Note_on_c, 2, 95, 64
1, 209640, Note_on_c, 2, 83, 64
1, 209640, Note_on_c, 2, 71, 127
1, 209640, Note_on_c, 2, 59, 95
1, 209640, Pitch_bend_c, 3, 0
1, 209640, Note_on_c, 3, 83, 64
1, 209640, Note_on_c, 3, 47, 64
1, 209640, Control_c, 7, 7, 118
1, 209645, Control_c, 7, 7, 121
1, 209650, Control_c, 7, 7, 123
1, 209655, Pitch_bend_c, 0, 8192
1, 209655, Pitch_bend_c, 1, 8192
1, 209655, Pitch_bend_c, 2, 8192
1, 209655, Pitch_bend_c, 3, 8192
1, 209655, Control_c, 7, 7, 124
1, 209660, Control_c, 7, 7, 125
1, 209665, Control_c, 7, 7, 124
1, 209670, Control_c, 7, 7, 123
1, 209675, Control_c, 7, 7, 121
1, 209680, Control_c, 7, 7, 119
1, 209685, Control_c, 7, 7, 115
1, 209690, Control_c, 7, 7, 111
1, 209695, Control_c, 7, 7, 107
1, 209700, Control_c, 7, 7, 102
1, 209705, Control_c, 7, 7, 97
1, 209710, Control_c, 7, 7, 91
1, 209715, Control_c, 7, 7, 85
1, 209720, Control_c, 7, 7, 79
1, 209725, Control_c, 7, 7, 73
1, 209730, Control_c, 7, 7, 67
1, 209735, Control_c, 7, 7, 62
1, 209740, Control_c, 7, 7, 56
1, 209745, Control_c, 7, 7, 51
1, 209750, Control_c, 7, 7, 47
1, 209755, Control_c, 7, 7, 43
1, 209760, Note_on_c, 3, 47, 0
1, 209760, Note_on_c, 2, 59, 0
1, 209760, Note_on_c, 2, 83, 0
1, 209760, Note_on_c, 0, 47, 0
1, 209760, Note_on_c, 2, 95, 0
1, 209760, Note_on_c, 1, 71, 0
1, 209760, Note_on_c, 1, 83, 0
1, 209760, Note_on_c, 1, 35, 0
1, 209760, Note_on_c, 2, 71, 0
1, 209760, Note_on_c, 3, 83, 0
1, 209760, Control_c, 7, 7, 40
1, 209760, Note_on_c, 9, 35, 102
1, 209765, Control_c, 7, 7, 38
1, 209770, Control_c, 7, 7, 36
1, 209775, Control_c, 7, 7, 36
1, 209780, Control_c, 7, 7, 36
1, 209785, Control_c, 7, 7, 37
1, 209790, Control_c, 7, 7, 38
1, 209795, Control_c, 7, 7, 41
1, 209800, Control_c, 7, 7, 44
1, 209805, Control_c, 7, 7, 48
1, 209810, Control_c, 7, 7, 53
1, 209815, Control_c, 7, 7, 58
1, 209820, Control_c, 7, 7, 64
1, 209825, Control_c, 7, 7, 69
1, 209830, Control_c, 7, 7, 75
1, 209835, Control_c, 7, 7, 82
1, 209840, Control_c, 7, 7, 88
1, 209845, Control_c, 7, 7, 94
1, 209850, Control_c, 7, 7, 100
1, 209855, Control_c, 3, 7, 115
1, 209855, Control_c, 7, 7, 105
1, 209860, Control_c, 7, 7, 110
1, 209865, Control_c, 7, 7, 114
1, 209870, Control_c, 7, 7, 118
1, 209875, Control_c, 7, 7, 121
1, 209880, Note_on_c, 9, 35, 0
1, 209880, Control_c, 7, 7, 123
1, 209885, Control_c, 7, 7, 124
1, 209890, Control_c, 7, 7, 125
1, 209895, Control_c, 7, 7, 124
1, 209900, Control_c, 7, 7, 123
1, 209905, Control_c, 7, 7, 120
1, 209910, Control_c, 7, 7, 117
1, 209915, Control_c, 2, 7, 116
1, 209915, Control_c, 7, 7, 114
1, 209920, Control_c, 7, 7, 109
1, 209925, Control_c, 7, 7, 104
1, 209930, Control_c, 7, 7, 98
1, 209935, Control_c, 7, 7, 92
1, 209940, Control_c, 7, 7, 86
1, 209945, Control_c, 7, 7, 80
1, 209950, Control_c, 7, 7, 73
1, 209955, Control_c, 7, 7, 67
1, 209960, Control_c, 7, 7, 61
1, 209965, Control_c, 7, 7, 56
1, 209970, Control_c, 7, 7, 51
1, 209975, Control_c, 7, 7, 46
1, 209980, Control_c, 7, 7, 42
1, 209985, Control_c, 7, 7, 39
1, 209990, Control_c, 7, 7, 37
1, 209995, Control_c, 7, 7, 36
1, 210000, Note_on_c, 0, 47, 95
1, 210000, Note_on_c, 1, 71, 95
1, 210000, Note_on_c, 1, 83, 64
1, 210000, Note_on_c, 1, 35, 95
1, 210000, Note_on_c, 2, 95, 64
1, 210000, Note_on_c, 2, 83, 64
1, 210000, Note_on_c, 2, 71, 127
1, 210000, Note_on_c, 2, 59, 95
1, 210000, Note_on_c, 3, 83, 64
1, 210000, Note_on_c, 3, 47, 64
1, 210000, Control_c, 7, 7, 36
1, 210005, Control_c, 7, 7, 36
1, 210010, Control_c, 7, 7, 38
1, 210015, Control_c, 7, 7, 40
1, 210020, Control_c, 7, 7, 44
1, 210025, Control_c, 7, 7, 48
1, 210030, Control_c, 7, 7, 53
1, 210035, Control_c, 7, 7, 58
1, 210040, Control_c, 7, 7, 64
1, 210045, Control_c, 7, 7, 70
1, 210050, Control_c, 7, 7, 77
1, 210055, Control_c, 7, 7, 84
1, 210060, Control_c, 7, 7, 90
1, 210065, Control_c, 7, 7, 96
1, 210070, Control_c, 7, 7, 102
1, 210075, Control_c, 7, 7, 108
1, 210080, Control_c, 7, 7, 113
1, 210085, Control_c, 7, 7, 117
1, 210090, Control_c, 7, 7, 120
1, 210095, Control_c, 7, 7, 123
1, 210100, Control_c, 7, 7, 124
1, 210105, Control_c, 7, 7, 125
1, 210110, Control_c, 7, 7, 124
1, 210115, Control_c, 7, 7, 122
1, 210120, Control_c, 7, 7, 120
1, 210125, Control_c, 7, 7, 117
1, 210130, Control_c, 7, 7, 112
1, 210135, Control_c, 7, 7, 107
1, 210140, Control_c, 7, 7, 102
1, 210145, Control_c, 7, 7, 96
1, 210150, Control_c, 7, 7, 89
1, 210155, Control_c, 7, 7, 82
1, 210160, Control_c, 7, 7, 76
1, 210165, Control_c, 7, 7, 69
1, 210170, Control_c, 7, 7, 62
1, 210175, Control_c, 7, 7, 56
1, 210180, Control_c, 7, 7, 51
1, 210185, Control_c, 7, 7, 46
1, 210190, Control_c, 7, 7, 42
1, 210195, Control_c, 7, 7, 39
1, 210200, Control_c, 7, 7, 37
1, 210205, Control_c, 7, 7, 36
1, 210210, Control_c, 7, 7, 36
1, 210215, Control_c, 7, 7, 37
1, 210220, Control_c, 7, 7, 39
1, 210225, Control_c, 7, 7, 42
1, 210230, Control_c, 7, 7, 46
1, 210235, Control_c, 7, 7, 51
1, 210240, Note_on_c, 3, 47, 0
1, 210240, Note_on_c, 2, 59, 0
1, 210240, Note_on_c, 2, 83, 0
1, 210240, Note_on_c, 0, 47, 0
1, 210240, Note_on_c, 2, 95, 0
1, 210240, Note_on_c, 1, 71, 0
1, 210240, Note_on_c, 1, 83, 0
1, 210240, Note_on_c, 1, 35, 0
1, 210240, Note_on_c, 2, 71, 0
1, 210240, Note_on_c, 3, 83, 0
1, 210240, Control_c, 7, 7, 57
1, 210240, Note_on_c, 9, 35, 102
1, 210245, Control_c, 7, 7, 63
1, 210250, Control_c, 7, 7, 69
1, 210255, Control_c, 7, 7, 76
1, 210260, Control_c, 7, 7, 83
1, 210265, Control_c, 7, 7, 90
1, 210270, Control_c, 7, 7, 97
1, 210275, Control_c, 7, 7, 103
1, 210280, Control_c, 7, 7, 109
1, 210285, Control_c, 7, 7, 114
1, 210290, Control_c, 7, 7, 118
1, 210295, Control_c, 7, 7, 121
1, 210300, Control_c, 7, 7, 123
1, 210305, Control_c, 7, 7, 124
1, 210310, Control_c, 7, 7, 124
1, 210315, Control_c, 7, 7, 123
1, 210320, Control_c, 7, 7, 121
1, 210325, Control_c, 7, 7, 117
1, 210330, Control_c, 7, 7, 113
1, 210335, Control_c, 7, 7, 108
1, 210340, Control_c, 7, 7, 102
1, 210345, Control_c, 7, 7, 95
1, 210350, Control_c, 7, 7, 88
1, 210355, Control_c, 7, 7, 81
1, 210360, Note_on_c, 9, 35, 0
1, 210360, Note_on_c, 0, 43, 95
1, 210360, Note_on_c, 1, 67, 95
1, 210360, Note_on_c, 1, 79, 64
1, 210360, Note_on_c, 1, 31, 95
1, 210360, Note_on_c, 2, 91, 64
1, 210360, Note_on_c, 2, 79, 64
1, 210360, Note_on_c, 2, 67, 127
1, 210360, Note_on_c, 2, 55, 95
1, 210360, Note_on_c, 3, 79, 64
1, 210360, Note_on_c, 3, 43, 64
1, 210360, Control_c, 7, 7, 74
1, 210365, Control_c, 7, 7, 67
1, 210370, Control_c, 7, 7, 60
1, 210375, Control_c, 7, 7, 54
1, 210380, Control_c, 7, 7, 49
1, 210385, Control_c, 7, 7, 44
1, 210390, Control_c, 7, 7, 40
1, 210395, Control_c, 7, 7, 38
1, 210400, Control_c, 7, 7, 36
1, 210405, Control_c, 7, 7, 36
1, 210410, Control_c, 7, 7, 37
1, 210415, Control_c, 7, 7, 39
1, 210420, Control_c, 7, 7, 42
1, 210425, Control_c, 7, 7, 47
1, 210430, Control_c, 7, 7, 52
1, 210435, Control_c, 7, 7, 58
1, 210440, Control_c, 7, 7, 65
1, 210445, Control_c, 7, 7, 72
1, 210450, Control_c, 7, 7, 79
1, 210455, Control_c, 7, 7, 87
1, 210460, Control_c, 7, 7, 94
1, 210465, Control_c, 7, 7, 101
1, 210470, Control_c, 7, 7, 107
1, 210475, Control_c, 7, 7, 113
1, 210480, Note_on_c, 3, 43, 0
1, 210480, Note_on_c, 2, 55, 0
1, 210480, Note_on_c, 2, 79, 0
1, 210480, Note_on_c, 0, 43, 0
1, 210480, Note_on_c, 2, 91, 0
1, 210480, Note_on_c, 1, 67, 0
1, 210480, Note_on_c, 1, 79, 0
1, 210480, Note_on_c, 1, 31, 0
1, 210480, Note_on_c, 2, 67, 0
1, 210480, Note_on_c, 3, 79, 0
1, 210480, Pitch_bend_c, 0, 5100
1, 210480, Note_on_c, 0, 47, 95
1, 210480, Pitch_bend_c, 1, 5100
1, 210480, Note_on_c, 1, 71, 95
1, 210480, Note_on_c, 1, 83, 64
1, 210480, Note_on_c, 1, 35, 95
1, 210480, Pitch_bend_c, 2, 5100
1, 210480, Note_on_c, 2, 95, 64
1, 210480, Note_on_c, 2, 83, 64
1, 210480, Note_on_c, 2, 71, 127
1, 210480, Note_on_c, 2, 59, 95
1, 210480, Pitch_bend_c, 3, 5100
1, 210480, Note_on_c, 3, 83, 64
1, 210480, Note_on_c, 3, 47, 64
1, 210480, Control_c, 7, 7, 117
1, 210485, Control_c, 7, 7, 121
1, 210490, Control_c, 7, 7, 123
1, 210495, Pitch_bend_c, 0, 6697
1, 210495, Pitch_bend_c, 1, 6697
1, 210495, Pitch_bend_c, 2, 6697
1, 210495, Pitch_bend_c, 3, 6697
1, 210495, Control_c, 7, 7, 124
1, 210500, Control_c, 7, 7, 124
1, 210505, Control_c, 7, 7, 123
1, 210510, Control_c, 7, 7, 120
1, 210515, Control_c, 7, 7, 116
1, 210520, Control_c, 7, 7, 112
1, 210525, Control_c, 3, 7, 121
1, 210525, Control_c, 7, 7, 106
1, 210530, Control_c, 7, 7, 99
1, 210535, Control_c, 7, 7, 92
1, 210540, Control_c, 7, 7, 84
1, 210545, Control_c, 7, 7, 77
1, 210550, Control_c, 7, 7, 69
1, 210555, Control_c, 2, 7, 122
1, 210555, Control_c, 7, 7, 62
1, 210560, Pitch_bend_c, 0, 6841
1, 210560, Pitch_bend_c, 1, 6841
1, 210560, Pitch_bend_c, 2, 6841
1, 210560, Pitch_bend_c, 3, 6841
1, 210560, Control_c, 7, 7, 55
1, 210565, Control_c, 7, 7, 49
1, 210570, Control_c, 7, 7, 44
1, 210575, Control_c, 7, 7, 40
1, 210580, Control_c, 7, 7, 37
1, 210585, Control_c, 7, 7, 36
1, 210590, Pitch_bend_c, 0, 6984
1, 210590, Pitch_bend_c, 1, 6984
1, 210590, Pitch_bend_c, 2, 6984
1, 210590, Pitch_bend_c, 3, 6984
1, 210590, Control_c, 7, 7, 36
1, 210595, Control_c, 7, 7, 37
1, 210600, Control_c, 7, 7, 40
1, 210605, Pitch_bend_c, 0, 7175
1, 210605, Pitch_bend_c, 1, 7175
1, 210605, Pitch_bend_c, 2, 7175
1, 210605, Pitch_bend_c, 3, 7175
1, 210605, Control_c, 7, 7, 44
1, 210610, Control_c, 7, 7, 49
1, 210615, Control_c, 7, 7, 55
1, 210620, Pitch_bend_c, 0, 7319
1, 210620, Pitch_bend_c, 1, 7319
1, 210620, Pitch_bend_c, 2, 7319
1, 210620, Pitch_bend_c, 3, 7319
1, 210620, Control_c, 7, 7, 62
1, 210625, Control_c, 7, 7, 69
1, 210630, Control_c, 7, 7, 77
1, 210635, Control_c, 7, 7, 85
1, 210640, Pitch_bend_c, 0, 7612
1, 210640, Pitch_bend_c, 1, 7612
1, 210640, Pitch_bend_c, 2, 7612
1, 210640, Pitch_bend_c, 3, 7612
1, 210640, Control_c, 7, 7, 93
1, 210645, Control_c, 7, 7, 100
1, 210650, Control_c, 7, 7, 107
1, 210655, Pitch_bend_c, 0, 7756
1, 210655, Pitch_bend_c, 1, 7756
1, 210655, Pitch_bend_c, 2, 7756
1, 210655, Pitch_bend_c, 3, 7756
1, 210655, Control_c, 7, 7, 113
1, 210660, Control_c, 7, 7, 118
1, 210665, Control_c, 7, 7, 121
1, 210670, Pitch_bend_c, 0, 7899
1, 210670, Pitch_bend_c, 1, 7899
1, 210670, Pitch_bend_c, 2, 7899
1, 210670, Pitch_bend_c, 3, 7899
1, 210670, Control_c, 7, 7, 124
1, 210675, Control_c, 7, 7, 124
1, 210680, Control_c, 7, 7, 124
1, 210685, Pitch_bend_c, 0, 8049
1, 210685, Pitch_bend_c, 1, 8049
1, 210685, Pitch_bend_c, 2, 8049
1, 210685, Pitch_bend_c, 3, 8049
1, 210685, Control_c, 7, 7, 122
1, 210690, Control_c, 7, 7, 119
1, 210695, Control_c, 7, 7, 114
1, 210700, Pitch_bend_c, 0, 8192
1, 210700, Pitch_bend_c, 1, 8192
1, 210700, Pitch_bend_c, 2, 8192
1, 210700, Pitch_bend_c, 3, 8192
1, 210700, Control_c, 7, 7, 108
1, 210705, Control_c, 7, 7, 101
1, 210710, Control_c, 7, 7, 94
1, 210715, Control_c, 7, 7, 86
1, 210720, Note_on_c, 3, 47, 0
1, 210720, Note_on_c, 2, 59, 0
1, 210720, Note_on_c, 2, 83, 0
1, 210720, Note_on_c, 0, 47, 0
1, 210720, Note_on_c, 2, 95, 0
1, 210720, Note_on_c, 1, 71, 0
1, 210720, Note_on_c, 1, 83, 0
1, 210720, Note_on_c, 1, 35, 0
1, 210720, Note_on_c, 2, 71, 0
1, 210720, Note_on_c, 3, 83, 0
1, 210720, Note_on_c, 0, 47, 95
1, 210720, Note_on_c, 1, 71, 95
1, 210720, Note_on_c, 1, 83, 64
1, 210720, Note_on_c, 1, 35, 95
1, 210720, Note_on_c, 2, 95, 64
1, 210720, Note_on_c, 2, 83, 64
1, 210720, Note_on_c, 2, 71, 127
1, 210720, Note_on_c, 2, 59, 95
1, 210720, Note_on_c, 3, 83, 64
1, 210720, Note_on_c, 3, 47, 64
1, 210720, Control_c, 7, 7, 78
1, 210720, Pitch_bend_c, 7, 8198
1, 210720, Note_on_c, 9, 35, 103
1, 210725, Control_c, 7, 7, 70
1, 210730, Control_c, 7, 7, 62
1, 210735, Control_c, 7, 7, 55
1, 210740, Control_c, 7, 7, 48
1, 210745, Control_c, 7, 7, 43
1, 210750, Control_c, 7, 7, 39
1, 210755, Control_c, 7, 7, 37
1, 210760, Control_c, 7, 7, 36
1, 210760, Pitch_bend_c, 7, 8212
1, 210765, Control_c, 7, 7, 36
1, 210770, Control_c, 7, 7, 39
1, 210775, Control_c, 7, 7, 42
1, 210780, Control_c, 7, 7, 47
1, 210785, Control_c, 7, 7, 53
1, 210790, Control_c, 7, 7, 60
1, 210795, Control_c, 7, 7, 68
1, 210800, Control_c, 7, 7, 76
1, 210800, Pitch_bend_c, 7, 8226
1, 210805, Control_c, 7, 7, 85
1, 210810, Control_c, 7, 7, 93
1, 210815, Control_c, 7, 7, 101
1, 210820, Control_c, 7, 7, 108
1, 210825, Control_c, 7, 7, 114
1, 210830, Control_c, 7, 7, 119
1, 210835, Control_c, 7, 7, 122
1, 210840, Note_on_c, 9, 35, 0
1, 210840, Control_c, 7, 7, 124
1, 210840, Pitch_bend_c, 7, 8239
1, 210845, Control_c, 7, 7, 124
1, 210850, Control_c, 7, 7, 123
1, 210855, Control_c, 7, 7, 120
1, 210860, Control_c, 7, 7, 115
1, 210865, Control_c, 7, 7, 110
1, 210870, Control_c, 7, 7, 103
1, 210875, Control_c, 7, 7, 95
1, 210880, Control_c, 7, 7, 86
1, 210880, Pitch_bend_c, 7, 8260
1, 210885, Control_c, 7, 7, 78
1, 210890, Control_c, 7, 7, 69
1, 210895, Control_c, 7, 7, 61
1, 210900, Control_c, 7, 7, 53
1, 210905, Control_c, 7, 7, 47
1, 210910, Control_c, 7, 7, 42
1, 210915, Control_c, 7, 7, 38
1, 210920, Control_c, 7, 7, 36
1, 210920, Pitch_bend_c, 7, 8273
1, 210925, Control_c, 7, 7, 36
1, 210930, Control_c, 7, 7, 38
1, 210935, Control_c, 7, 7, 41
1, 210940, Control_c, 7, 7, 46
1, 210945, Control_c, 7, 7, 52
1, 210950, Control_c, 7, 7, 59
1, 210955, Control_c, 7, 7, 67
1, 210960, Note_on_c, 1, 35, 0
1, 210960, Note_on_c, 2, 59, 0
1, 210960, Note_on_c, 2, 83, 0
1, 210960, Note_on_c, 0, 47, 0
1, 210960, Note_on_c, 2, 95, 0
1, 210960, Note_on_c, 1, 71, 0
1, 210960, Note_on_c, 1, 83, 0
1, 210960, Note_on_c, 3, 83, 0
1, 210960, Note_on_c, 2, 71, 0
1, 210960, Note_on_c, 3, 47, 0
1, 210960, Note_on_c, 0, 47, 95
1, 210960, Note_on_c, 1, 71, 95
1, 210960, Note_on_c, 1, 83, 64
1, 210960, Note_on_c, 1, 35, 95
1, 210960, Note_on_c, 2, 95, 64
1, 210960, Note_on_c, 2, 83, 64
1, 210960, Note_on_c, 2, 71, 127
1, 210960, Note_on_c, 2, 59, 95
1, 210960, Note_on_c, 3, 83, 64
1, 210960, Note_on_c, 3, 47, 64
1, 210960, Control_c, 7, 7, 76
1, 210960, Pitch_bend_c, 7, 8287
1, 210965, Control_c, 7, 7, 85
1, 210970, Control_c, 7, 7, 94
1, 210975, Control_c, 7, 7, 102
1, 210980, Control_c, 7, 7, 110
1, 210985, Control_c, 7, 7, 116
1, 210990, Pitch_bend_c, 0, 8335
1, 210990, Pitch_bend_c, 1, 8335
1, 210990, Pitch_bend_c, 2, 8335
1, 210990, Pitch_bend_c, 3, 8335
1, 210990, Control_c, 7, 7, 120
1, 210995, Control_c, 7, 7, 123
1, 211000, Control_c, 7, 7, 124
1, 211000, Pitch_bend_c, 7, 8294
1, 211005, Control_c, 7, 7, 124
1, 211010, Control_c, 7, 7, 121
1, 211015, Control_c, 7, 7, 117
1, 211020, Control_c, 7, 7, 111
1, 211025, Control_c, 7, 7, 104
1, 211030, Control_c, 7, 7, 96
1, 211035, Control_c, 7, 7, 87
1, 211040, Pitch_bend_c, 0, 8485
1, 211040, Pitch_bend_c, 1, 8485
1, 211040, Pitch_bend_c, 2, 8485
1, 211040, Pitch_bend_c, 3, 8485
1, 211040, Control_c, 7, 7, 78
1, 211040, Pitch_bend_c, 7, 8308
1, 211045, Control_c, 7, 7, 68
1, 211050, Control_c, 7, 7, 60
1, 211055, Pitch_bend_c, 0, 8628
1, 211055, Pitch_bend_c, 1, 8628
1, 211055, Pitch_bend_c, 2, 8628
1, 211055, Pitch_bend_c, 3, 8628
1, 211055, Control_c, 7, 7, 52
1, 211060, Control_c, 7, 7, 46
1, 211065, Control_c, 7, 7, 41
1, 211070, Pitch_bend_c, 0, 8772
1, 211070, Pitch_bend_c, 1, 8772
1, 211070, Pitch_bend_c, 2, 8772
1, 211070, Pitch_bend_c, 3, 8772
1, 211070, Control_c, 7, 7, 37
1, 211075, Control_c, 7, 7, 36
1, 211080, Control_c, 7, 7, 37
1, 211080, Pitch_bend_c, 7, 8321
1, 211085, Pitch_bend_c, 0, 9065
1, 211085, Pitch_bend_c, 1, 9065
1, 211085, Pitch_bend_c, 2, 9065
1, 211085, Pitch_bend_c, 3, 9065
1, 211085, Control_c, 7, 7, 39
1, 211090, Control_c, 7, 7, 44
1, 211095, Control_c, 7, 7, 50
1, 211100, Pitch_bend_c, 0, 9400
1, 211100, Pitch_bend_c, 1, 9400
1, 211100, Pitch_bend_c, 2, 9400
1, 211100, Pitch_bend_c, 3, 9400
1, 211100, Control_c, 7, 7, 58
1, 211105, Control_c, 7, 7, 66
1, 211110, Control_c, 7, 7, 75
1, 211115, Control_c, 7, 7, 85
1, 211120, Pitch_bend_c, 0, 9543
1, 211120, Pitch_bend_c, 1, 9543
1, 211120, Pitch_bend_c, 2, 9543
1, 211120, Pitch_bend_c, 3, 9543
1, 211120, Control_c, 7, 7, 94
1, 211120, Pitch_bend_c, 7, 8335
1, 211125, Control_c, 7, 7, 103
1, 211130, Control_c, 7, 7, 111
1, 211135, Pitch_bend_c, 0, 9830
1, 211135, Pitch_bend_c, 1, 9830
1, 211135, Pitch_bend_c, 2, 9830
1, 211135, Pitch_bend_c, 3, 9830
1, 211135, Control_c, 7, 7, 117
1, 211140, Control_c, 7, 7, 121
1, 211145, Control_c, 7, 7, 124
1, 211150, Pitch_bend_c, 0, 10110
1, 211150, Pitch_bend_c, 1, 10110
1, 211150, Pitch_bend_c, 2, 10110
1, 211150, Pitch_bend_c, 3, 10110
1, 211150, Control_c, 7, 7, 124
1, 211155, Control_c, 7, 7, 123
1, 211160, Control_c, 7, 7, 119
1, 211160, Pitch_bend_c, 7, 8349
1, 211165, Pitch_bend_c, 0, 10253
1, 211165, Pitch_bend_c, 1, 10253
1, 211165, Pitch_bend_c, 2, 10253
1, 211165, Pitch_bend_c, 3, 10253
1, 211165, Control_c, 7, 7, 114
1, 211170, Control_c, 7, 7, 106
1, 211175, Control_c, 7, 7, 98
1, 211180, Pitch_bend_c, 0, 10397
1, 211180, Pitch_bend_c, 1, 10397
1, 211180, Pitch_bend_c, 2, 10397
1, 211180, Pitch_bend_c, 3, 10397
1, 211180, Control_c, 7, 7, 88
1, 211185, Control_c, 7, 7, 79
1, 211190, Control_c, 7, 7, 69
1, 211195, Control_c, 2, 7, 127
1, 211195, Control_c, 3, 7, 127
1, 211195, Control_c, 7, 7, 60
1, 211200, Note_on_c, 3, 47, 0
1, 211200, Note_on_c, 2, 59, 0
1, 211200, Note_on_c, 2, 83, 0
1, 211200, Note_on_c, 0, 47, 0
1, 211200, Note_on_c, 2, 95, 0
1, 211200, Note_on_c, 1, 71, 0
1, 211200, Note_on_c, 1, 83, 0
1, 211200, Note_on_c, 1, 35, 0
1, 211200, Note_on_c, 2, 71, 0
1, 211200, Note_on_c, 3, 83, 0
1, 211200, Pitch_bend_c, 0, 12165
1, 211200, Note_on_c, 0, 35, 95
1, 211200, Pitch_bend_c, 1, 12165
1, 211200, Note_on_c, 1, 59, 95
1, 211200, Note_on_c, 1, 71, 64
1, 211200, Note_on_c, 1, 23, 95
1, 211200, Pitch_bend_c, 2, 12165
1, 211200, Note_on_c, 2, 83, 64
1, 211200, Note_on_c, 2, 71, 64
1, 211200, Note_on_c, 2, 59, 127
1, 211200, Note_on_c, 2, 47, 95
1, 211200, Pitch_bend_c, 3, 12165
1, 211200, Note_on_c, 3, 71, 64
1, 211200, Note_on_c, 3, 35, 64
1, 211200, Control_c, 7, 7, 52
1, 211200, Pitch_bend_c, 7, 8362
1, 211200, Note_on_c, 9, 35, 103
1, 211205, Control_c, 7, 7, 45
1, 211210, Control_c, 7, 7, 40
1, 211215, Pitch_bend_c, 0, 8192
1, 211215, Pitch_bend_c, 1, 8192
1, 211215, Pitch_bend_c, 2, 8192
1, 211215, Pitch_bend_c, 3, 8192
1, 211215, Control_c, 7, 7, 37
1, 211220, Control_c, 7, 7, 36
1, 211225, Control_c, 7, 7, 38
1, 211230, Control_c, 7, 7, 41
1, 211235, Control_c, 7, 7, 47
1, 211240, Control_c, 7, 7, 54
1, 211240, Pitch_bend_c, 7, 8369
1, 211245, Control_c, 7, 7, 63
1, 211250, Control_c, 7, 7, 73
1, 211255, Control_c, 7, 7, 83
1, 211260, Control_c, 7, 7, 93
1, 211265, Control_c, 7, 7, 102
1, 211270, Control_c, 7, 7, 111
1, 211275, Control_c, 7, 7, 117
1, 211280, Control_c, 7, 7, 122
1, 211280, Pitch_bend_c, 7, 8383
1, 211285, Control_c, 7, 7, 124
1, 211290, Control_c, 7, 7, 124
1, 211295, Control_c, 7, 7, 122
1, 211300, Control_c, 7, 7, 117
1, 211305, Control_c, 7, 7, 111
1, 211310, Control_c, 7, 7, 102
1, 211315, Control_c, 7, 7, 93
1, 211320, Note_on_c, 9, 35, 0
1, 211320, Control_c, 7, 7, 82
1, 211320, Pitch_bend_c, 7, 8396
1, 211325, Control_c, 7, 7, 72
1, 211330, Control_c, 7, 7, 62
1, 211335, Control_c, 7, 7, 53
1, 211340, Control_c, 7, 7, 46
1, 211345, Control_c, 7, 7, 40
1, 211350, Control_c, 7, 7, 37
1, 211355, Control_c, 7, 7, 36
1, 211360, Control_c, 7, 7, 38
1, 211360, Pitch_bend_c, 7, 8417
1, 211365, Control_c, 7, 7, 42
1, 211370, Control_c, 7, 7, 49
1, 211375, Control_c, 7, 7, 57
1, 211380, Control_c, 7, 7, 67
1, 211385, Control_c, 7, 7, 78
1, 211390, Control_c, 7, 7, 88
1, 211395, Control_c, 7, 7, 99
1, 211400, Control_c, 7, 7, 108
1, 211400, Pitch_bend_c, 7, 8430
1, 211405, Control_c, 7, 7, 115
1, 211410, Control_c, 7, 7, 121
1, 211415, Control_c, 7, 7, 124
1, 211420, Control_c, 7, 7, 124
1, 211425, Control_c, 7, 7, 122
1, 211430, Control_c, 7, 7, 117
1, 211435, Control_c, 7, 7, 110
1, 211440, Control_c, 7, 7, 101
1, 211440, Pitch_bend_c, 7, 8451
1, 211445, Control_c, 7, 7, 90
1, 211450, Control_c, 7, 7, 79
1, 211455, Control_c, 7, 7, 68
1, 211460, Control_c, 7, 7, 58
1, 211465, Control_c, 7, 7, 49
1, 211470, Control_c, 7, 7, 42
1, 211475, Control_c, 7, 7, 38
1, 211480, Control_c, 7, 7, 36
1, 211480, Pitch_bend_c, 7, 8458
1, 211485, Control_c, 7, 7, 37
1, 211490, Control_c, 7, 7, 41
1, 211495, Control_c, 7, 7, 48
1, 211500, Control_c, 7, 7, 57
1, 211505, Control_c, 7, 7, 67
1, 211510, Control_c, 7, 7, 78
1, 211515, Control_c, 7, 7, 90
1, 211520, Control_c, 7, 7, 101
1, 211520, Pitch_bend_c, 7, 8478
1, 211525, Control_c, 7, 7, 110
1, 211530, Control_c, 7, 7, 118
1, 211535, Control_c, 7, 7, 122
1, 211540, Control_c, 7, 7, 124
1, 211545, Control_c, 7, 7, 123
1, 211550, Control_c, 7, 7, 119
1, 211555, Control_c, 7, 7, 113
1, 211560, Note_on_c, 1, 23, 0
1, 211560, Note_on_c, 2, 47, 0
1, 211560, Note_on_c, 2, 71, 0
1, 211560, Note_on_c, 0, 35, 0
1, 211560, Note_on_c, 2, 83, 0
1, 211560, Note_on_c, 1, 59, 0
1, 211560, Note_on_c, 1, 71, 0
1, 211560, Note_on_c, 3, 71, 0
1, 211560, Note_on_c, 2, 59, 0
1, 211560, Note_on_c, 3, 35, 0
1, 211560, Pitch_bend_c, 0, 0
1, 211560, Note_on_c, 0, 47, 95
1, 211560, Pitch_bend_c, 1, 0
1, 211560, Note_on_c, 1, 71, 95
1, 211560, Note_on_c, 1, 83, 64
1, 211560, Note_on_c, 1, 35, 95
1, 211560, Pitch_bend_c, 2, 0
1, 211560, Note_on_c, 2, 95, 64
1, 211560, Note_on_c, 2, 83, 64
1, 211560, Note_on_c, 2, 71, 127
1, 211560, Note_on_c, 2, 59, 95
1, 211560, Pitch_bend_c, 3, 0
1, 211560, Note_on_c, 3, 83, 64
1, 211560, Note_on_c, 3, 47, 64
1, 211560, Control_c, 7, 7, 103
1, 211560, Pitch_bend_c, 7, 8492
1, 211565, Control_c, 7, 7, 93
1, 211570, Control_c, 7, 7, 81
1, 211575, Pitch_bend_c, 0, 8192
1, 211575, Pitch_bend_c, 1, 8192
1, 211575, Pitch_bend_c, 2, 8192
1, 211575, Pitch_bend_c, 3, 8192
1, 211575, Control_c, 7, 7, 69
1, 211580, Control_c, 7, 7, 58
1, 211585, Control_c, 7, 7, 49
1, 211590, Control_c, 7, 7, 42
1, 211595, Control_c, 7, 7, 37
1, 211600, Control_c, 7, 7, 36
1, 211600, Pitch_bend_c, 7, 8512
1, 211605, Control_c, 7, 7, 38
1, 211610, Control_c, 7, 7, 43
1, 211615, Control_c, 7, 7, 51
1, 211620, Control_c, 7, 7, 62
1, 211625, Control_c, 7, 7, 73
1, 211630, Control_c, 7, 7, 85
1, 211635, Control_c, 7, 7, 97
1, 211640, Control_c, 7, 7, 108
1, 211640, Pitch_bend_c, 7, 8526
1, 211645, Control_c, 7, 7, 116
1, 211650, Control_c, 7, 7, 122
1, 211655, Control_c, 7, 7, 124
1, 211660, Control_c, 7, 7, 123
1, 211665, Control_c, 7, 7, 119
1, 211670, Control_c, 7, 7, 111
1, 211675, Control_c, 7, 7, 101
1, 211680, Note_on_c, 3, 47, 0
1, 211680, Note_on_c, 2, 59, 0
1, 211680, Note_on_c, 2, 83, 0
1, 211680, Note_on_c, 0, 47, 0
1, 211680, Note_on_c, 2, 95, 0
1, 211680, Note_on_c, 1, 71, 0
1, 211680, Note_on_c, 1, 83, 0
1, 211680, Note_on_c, 1, 35, 0
1, 211680, Note_on_c, 2, 71, 0
1, 211680, Note_on_c, 3, 83, 0
1, 211680, Control_c, 7, 7, 90
1, 211680, Pitch_bend_c, 7, 8546
1, 211680, Note_on_c, 9, 35, 103
1, 211685, Control_c, 7, 7, 77
1, 211690, Control_c, 7, 7, 65
1, 211695, Control_c, 7, 7, 54
1, 211700, Control_c, 7, 7, 45
1, 211705, Control_c, 7, 7, 39
1, 211710, Control_c, 7, 7, 36
1, 211715, Control_c, 7, 7, 37
1, 211720, Control_c, 7, 7, 42
1, 211720, Pitch_bend_c, 7, 8560
1, 211725, Control_c, 7, 7, 50
1, 211730, Control_c, 7, 7, 61
1, 211735, Control_c, 7, 7, 73
1, 211740, Control_c, 7, 7, 86
1, 211745, Control_c, 7, 7, 98
1, 211750, Control_c, 7, 7, 109
1, 211755, Control_c, 7, 7, 118
1, 211760, Control_c, 7, 7, 123
1, 211760, Pitch_bend_c, 7, 8574
1, 211765, Control_c, 7, 7, 124
1, 211770, Control_c, 7, 7, 122
1, 211775, Control_c, 7, 7, 116
1, 211780, Control_c, 7, 7, 106
1, 211785, Control_c, 7, 7, 94
1, 211790, Control_c, 7, 7, 81
1, 211795, Control_c, 7, 7, 68
1, 211800, Note_on_c, 9, 35, 0
1, 211800, Control_c, 7, 7, 56
1, 211800, Pitch_bend_c, 7, 8581
1, 211805, Control_c, 7, 7, 46
1, 211810, Control_c, 7, 7, 39
1, 211815, Control_c, 7, 7, 36
1, 211820, Control_c, 7, 7, 38
1, 211825, Control_c, 7, 7, 43
1, 211830, Control_c, 7, 7, 52
1, 211835, Control_c, 7, 7, 64
1, 211840, Control_c, 7, 7, 77
1, 211840, Pitch_bend_c, 7, 8594
1, 211845, Control_c, 7, 7, 91
1, 211850, Control_c, 7, 7, 104
1, 211855, Control_c, 7, 7, 114
1, 211860, Control_c, 7, 7, 121
1, 211865, Control_c, 7, 7, 124
1, 211870, Control_c, 7, 7, 123
1, 211875, Control_c, 7, 7, 117
1, 211880, Control_c, 7, 7, 108
1, 211880, Pitch_bend_c, 7, 8601
1, 211885, Control_c, 7, 7, 95
1, 211890, Control_c, 7, 7, 81
1, 211895, Control_c, 7, 7, 67
1, 211900, Control_c, 7, 7, 55
1, 211905, Control_c, 7, 7, 44
1, 211910, Control_c, 7, 7, 38
1, 211915, Control_c, 7, 7, 36
1, 211920, Note_on_c, 0, 47, 95
1, 211920, Note_on_c, 1, 71, 95
1, 211920, Note_on_c, 1, 83, 64
1, 211920, Note_on_c, 1, 35, 95
1, 211920, Note_on_c, 2, 95, 64
1, 211920, Note_on_c, 2, 83, 64
1, 211920, Note_on_c, 2, 71, 127
1, 211920, Note_on_c, 2, 59, 95
1, 211920, Note_on_c, 3, 83, 64
1, 211920, Note_on_c, 3, 47, 64
1, 211920, Control_c, 7, 7, 39
1, 211920, Pitch_bend_c, 7, 8615
1, 211925, Control_c, 7, 7, 46
1, 211930, Control_c, 7, 7, 58
1, 211935, Control_c, 7, 7, 71
1, 211940, Control_c, 7, 7, 86
1, 211945, Control_c, 7, 7, 100
1, 211950, Control_c, 7, 7, 112
1, 211955, Control_c, 7, 7, 120
1, 211960, Control_c, 7, 7, 124
1, 211960, Pitch_bend_c, 7, 8628
1, 211965, Control_c, 7, 7, 123
1, 211970, Control_c, 7, 7, 117
1, 211975, Control_c, 7, 7, 107
1, 211980, Control_c, 7, 7, 94
1, 211985, Control_c, 7, 7, 79
1, 211990, Control_c, 7, 7, 64
1, 211995, Control_c, 7, 7, 51
1, 212000, Control_c, 7, 7, 41
1, 212000, Pitch_bend_c, 7, 8649
1, 212005, Control_c, 7, 7, 37
1, 212010, Control_c, 7, 7, 37
1, 212015, Control_c, 7, 7, 43
1, 212020, Control_c, 7, 7, 53
1, 212025, Control_c, 7, 7, 67
1, 212030, Control_c, 7, 7, 83
1, 212035, Control_c, 7, 7, 98
1, 212040, Control_c, 7, 7, 111
1, 212040, Pitch_bend_c, 7, 8656
1, 212045, Control_c, 7, 7, 120
1, 212050, Control_c, 7, 7, 124
1, 212055, Control_c, 7, 7, 123
1, 212060, Control_c, 7, 7, 116
1, 212065, Control_c, 7, 7, 104
1, 212070, Control_c, 7, 7, 89
1, 212075, Control_c, 7, 7, 73
1, 212080, Control_c, 7, 7, 58
1, 212080, Pitch_bend_c, 7, 8676
1, 212085, Control_c, 7, 7, 46
1, 212090, Control_c, 7, 7, 38
1, 212095, Control_c, 7, 7, 36
1, 212100, Control_c, 7, 7, 41
1, 212105, Control_c, 7, 7, 50
1, 212110, Control_c, 7, 7, 64
1, 212115, Control_c, 7, 7, 81
1, 212120, Control_c, 7, 7, 97
1, 212120, Pitch_bend_c, 7, 8690
1, 212125, Control_c, 7, 7, 111
1, 212130, Control_c, 7, 7, 121
1, 212135, Control_c, 7, 7, 124
1, 212140, Control_c, 7, 7, 122
1, 212145, Control_c, 7, 7, 113
1, 212150, Control_c, 7, 7, 100
1, 212155, Control_c, 7, 7, 83
1, 212160, Note_on_c, 3, 47, 0
1, 212160, Note_on_c, 2, 59, 0
1, 212160, Note_on_c, 2, 83, 0
1, 212160, Note_on_c, 0, 47, 0
1, 212160, Note_on_c, 2, 95, 0
1, 212160, Note_on_c, 1, 71, 0
1, 212160, Note_on_c, 1, 83, 0
1, 212160, Note_on_c, 1, 35, 0
1, 212160, Note_on_c, 2, 71, 0
1, 212160, Note_on_c, 3, 83, 0
1, 212160, Note_on_c, 0, 47, 95
1, 212160, Note_on_c, 1, 71, 95
1, 212160, Note_on_c, 1, 83, 64
1, 212160, Note_on_c, 1, 35, 95
1, 212160, Note_on_c, 2, 95, 64
1, 212160, Note_on_c, 2, 83, 64
1, 212160, Note_on_c, 2, 71, 127
1, 212160, Note_on_c, 2, 59, 95
1, 212160, Note_on_c, 3, 83, 64
1, 212160, Note_on_c, 3, 47, 64
1, 212160, Control_c, 7, 7, 66
1, 212160, Pitch_bend_c, 7, 8710
1, 212160, Note_on_c, 9, 35, 104
1, 212165, Control_c, 7, 7, 51
1, 212170, Control_c, 7, 7, 41
1, 212175, Control_c, 7, 7, 36
1, 212180, Control_c, 7, 7, 39
1, 212185, Control_c, 7, 7, 48
1, 212190, Pitch_bend_c, 0, 8049
1, 212190, Pitch_bend_c, 1, 8049
1, 212190, Pitch_bend_c, 2, 8049
1, 212190, Pitch_bend_c, 3, 8049
1, 212190, Control_c, 7, 7, 62
1, 212195, Control_c, 7, 7, 79
1, 212200, Control_c, 7, 7, 97
1, 212200, Pitch_bend_c, 7, 8724
1, 212205, Control_c, 7, 7, 111
1, 212210, Control_c, 7, 7, 121
1, 212215, Control_c, 7, 7, 124
1, 212220, Pitch_bend_c, 0, 7899
1, 212220, Pitch_bend_c, 1, 7899
1, 212220, Pitch_bend_c, 2, 7899
1, 212220, Pitch_bend_c, 3, 7899
1, 212220, Control_c, 7, 7, 120
1, 212225, Control_c, 7, 7, 110
1, 212230, Control_c, 7, 7, 94
1, 212235, Control_c, 7, 7, 76
1, 212240, Control_c, 7, 7, 58
1, 212240, Pitch_bend_c, 7, 8744
1, 212245, Control_c, 7, 7, 45
1, 212250, Control_c, 7, 7, 37
1, 212255, Pitch_bend_c, 0, 7756
1, 212255, Pitch_bend_c, 1, 7756
1, 212255, Pitch_bend_c, 2, 7756
1, 212255, Pitch_bend_c, 3, 7756
1, 212255, Control_c, 7, 7, 37
1, 212260, Control_c, 7, 7, 45
1, 212265, Control_c, 7, 7, 59
1, 212270, Control_c, 7, 7, 77
1, 212275, Control_c, 7, 7, 96
1, 212280, Note_on_c, 9, 35, 0
1, 212280, Control_c, 7, 7, 112
1, 212280, Pitch_bend_c, 7, 8765
1, 212285, Pitch_bend_c, 0, 7612
1, 212285, Pitch_bend_c, 1, 7612
1, 212285, Pitch_bend_c, 2, 7612
1, 212285, Pitch_bend_c, 3, 7612
1, 212285, Control_c, 7, 7, 122
1, 212290, Control_c, 7, 7, 124
1, 212295, Control_c, 7, 7, 119
1, 212300, Control_c, 7, 7, 106
1, 212305, Control_c, 7, 7, 88
1, 212310, Control_c, 7, 7, 69
1, 212315, Control_c, 7, 7, 51
1, 212320, Pitch_bend_c, 0, 7469
1, 212320, Pitch_bend_c, 1, 7469
1, 212320, Pitch_bend_c, 2, 7469
1, 212320, Pitch_bend_c, 3, 7469
1, 212320, Control_c, 7, 7, 40
1, 212320, Pitch_bend_c, 7, 8785
1, 212325, Control_c, 7, 7, 36
1, 212330, Control_c, 7, 7, 42
1, 212335, Control_c, 7, 7, 55
1, 212340, Note_on_c, 1, 35, 0
1, 212340, Note_on_c, 2, 59, 0
1, 212340, Note_on_c, 2, 83, 0
1, 212340, Note_on_c, 0, 47, 0
1, 212340, Note_on_c, 2, 95, 0
1, 212340, Note_on_c, 1, 71, 0
1, 212340, Note_on_c, 1, 83, 0
1, 212340, Note_on_c, 3, 83, 0
1, 212340, Note_on_c, 2, 71, 0
1, 212340, Note_on_c, 3, 47, 0
1, 212340, Control_c, 7, 7, 73
1, 212345, Control_c, 7, 7, 93
1, 212350, Control_c, 7, 7, 110
1, 212355, Control_c, 7, 7, 122
1, 212360, Control_c, 7, 7, 124
1, 212360, Pitch_bend_c, 7, 8792
1, 212365, Control_c, 7, 7, 118
1, 212370, Control_c, 7, 7, 103
1, 212375, Control_c, 7, 7, 84
1, 212380, Control_c, 7, 7, 63
1, 212385, Control_c, 7, 7, 47
1, 212390, Control_c, 7, 7, 37
1, 212395, Control_c, 7, 7, 38
1, 212400, Note_on_c, 0, 47, 95
1, 212400, Note_on_c, 1, 71, 95
1, 212400, Note_on_c, 1, 83, 64
1, 212400, Note_on_c, 1, 35, 95
1, 212400, Note_on_c, 2, 95, 64
1, 212400, Note_on_c, 2, 83, 64
1, 212400, Note_on_c, 2, 71, 127
1, 212400, Note_on_c, 2, 59, 95
1, 212400, Note_on_c, 3, 83, 64
1, 212400, Note_on_c, 3, 47, 64
1, 212400, Control_c, 7, 7, 48
1, 212400, Pitch_bend_c, 7, 8806
1, 212405, Control_c, 7, 7, 65
1, 212410, Control_c, 7, 7, 87
1, 212415, Pitch_bend_c, 0, 7319
1, 212415, Pitch_bend_c, 1, 7319
1, 212415, Pitch_bend_c, 2, 7319
1, 212415, Pitch_bend_c, 3, 7319
1, 212415, Control_c, 7, 7, 106
1, 212420, Control_c, 7, 7, 120
1, 212425, Control_c, 7, 7, 124
1, 212430, Control_c, 7, 7, 118
1, 212435, Control_c, 7, 7, 103
1, 212440, Control_c, 7, 7, 82
1, 212440, Pitch_bend_c, 7, 8820
1, 212445, Control_c, 7, 7, 61
1, 212450, Control_c, 7, 7, 44
1, 212455, Control_c, 7, 7, 37
1, 212460, Pitch_bend_c, 0, 7175
1, 212460, Pitch_bend_c, 1, 7175
1, 212460, Pitch_bend_c, 2, 7175
1, 212460, Pitch_bend_c, 3, 7175
1, 212460, Control_c, 7, 7, 40
1, 212465, Control_c, 7, 7, 54
1, 212470, Control_c, 7, 7, 75
1, 212475, Control_c, 7, 7, 97
1, 212480, Pitch_bend_c, 0, 6984
1, 212480, Pitch_bend_c, 1, 6984
1, 212480, Pitch_bend_c, 2, 6984
1, 212480, Pitch_bend_c, 3, 6984
1, 212480, Control_c, 7, 7, 115
1, 212480, Pitch_bend_c, 7, 8840
1, 212485, Control_c, 7, 7, 124
1, 212490, Control_c, 7, 7, 121
1, 212495, Control_c, 7, 7, 107
1, 212500, Control_c, 7, 7, 86
1, 212505, Control_c, 7, 7, 63
1, 212510, Pitch_bend_c, 0, 6841
1, 212510, Pitch_bend_c, 1, 6841
1, 212510, Pitch_bend_c, 2, 6841
1, 212510, Pitch_bend_c, 3, 6841
1, 212510, Control_c, 7, 7, 44
1, 212515, Control_c, 7, 7, 36
1, 212520, Control_c, 7, 7, 41
1, 212520, Pitch_bend_c, 7, 8847
1, 212525, Control_c, 7, 7, 57
1, 212530, Control_c, 7, 7, 80
1, 212535, Control_c, 7, 7, 103
1, 212540, Pitch_bend_c, 0, 6697
1, 212540, Pitch_bend_c, 1, 6697
1, 212540, Pitch_bend_c, 2, 6697
1, 212540, Pitch_bend_c, 3, 6697
1, 212540, Control_c, 7, 7, 120
1, 212545, Control_c, 7, 7, 124
1, 212550, Control_c, 7, 7, 116
1, 212555, Control_c, 7, 7, 96
1, 212560, Control_c, 7, 7, 71
1, 212560, Pitch_bend_c, 7, 8861
1, 212565, Control_c, 7, 7, 49
1, 212570, Control_c, 7, 7, 37
1, 212575, Control_c, 7, 7, 39
1, 212580, Control_c, 7, 7, 55
1, 212585, Control_c, 7, 7, 79
1, 212590, Control_c, 7, 7, 103
1, 212595, Control_c, 7, 7, 120
1, 212600, Control_c, 7, 7, 124
1, 212600, Pitch_bend_c, 7, 8874
1, 212605, Control_c, 7, 7, 112
1, 212610, Control_c, 7, 7, 90
1, 212615, Control_c, 7, 7, 63
1, 212620, Pitch_bend_c, 0, 6554
1, 212620, Pitch_bend_c, 1, 6554
1, 212620, Pitch_bend_c, 2, 6554
1, 212620, Pitch_bend_c, 3, 6554
1, 212620, Control_c, 7, 7, 43
1, 212625, Control_c, 7, 7, 36
1, 212630, Control_c, 7, 7, 46
1, 212635, Control_c, 7, 7, 68
1, 212640, Note_on_c, 3, 47, 0
1, 212640, Note_on_c, 2, 59, 0
1, 212640, Note_on_c, 2, 83, 0
1, 212640, Note_on_c, 0, 47, 0
1, 212640, Note_on_c, 2, 95, 0
1, 212640, Note_on_c, 1, 71, 0
1, 212640, Note_on_c, 1, 83, 0
1, 212640, Note_on_c, 1, 35, 0
1, 212640, Note_on_c, 2, 71, 0
1, 212640, Note_on_c, 3, 83, 0
1, 212640, Note_on_c, 0, 47, 95
1, 212640, Note_on_c, 1, 71, 95
1, 212640, Note_on_c, 1, 83, 64
1, 212640, Note_on_c, 1, 35, 95
1, 212640, Note_on_c, 2, 95, 64
1, 212640, Note_on_c, 2, 83, 64
1, 212640, Note_on_c, 2, 71, 127
1, 212640, Note_on_c, 2, 59, 95
1, 212640, Note_on_c, 3, 83, 64
1, 212640, Note_on_c, 3, 47, 64
1, 212640, Control_c, 7, 7, 95
1, 212640, Pitch_bend_c, 7, 8881
1, 212640, Note_on_c, 9, 35, 104
1, 212645, Control_c, 7, 7, 117
1, 212650, Control_c, 7, 7, 124
1, 212655, Control_c, 7, 7, 115
1, 212660, Control_c, 7, 7, 92
1, 212665, Control_c, 7, 7, 64
1, 212670, Pitch_bend_c, 0, 6418
1, 212670, Pitch_bend_c, 1, 6418
1, 212670, Pitch_bend_c, 2, 6418
1, 212670, Pitch_bend_c, 3, 6418
1, 212670, Control_c, 7, 7, 43
1, 212675, Control_c, 7, 7, 37
1, 212680, Control_c, 7, 7, 49
1, 212680, Pitch_bend_c, 7, 8888
1, 212685, Pitch_bend_c, 0, 6274
1, 212685, Pitch_bend_c, 1, 6274
1, 212685, Pitch_bend_c, 2, 6274
1, 212685, Pitch_bend_c, 3, 6274
1, 212685, Control_c, 7, 7, 74
1, 212690, Control_c, 7, 7, 103
1, 212695, Control_c, 7, 7, 121
1, 212700, Pitch_bend_c, 0, 6131
1, 212700, Pitch_bend_c, 1, 6131
1, 212700, Pitch_bend_c, 2, 6131
1, 212700, Pitch_bend_c, 3, 6131
1, 212700, Control_c, 7, 7, 123
1, 212705, Control_c, 7, 7, 105
1, 212710, Control_c, 7, 7, 76
1, 212715, Control_c, 7, 7, 49
1, 212720, Pitch_bend_c, 0, 5987
1, 212720, Pitch_bend_c, 1, 5987
1, 212720, Pitch_bend_c, 2, 5987
1, 212720, Pitch_bend_c, 3, 5987
1, 212720, Control_c, 7, 7, 37
1, 212720, Pitch_bend_c, 7, 8901
1, 212725, Control_c, 7, 7, 44
1, 212730, Control_c, 7, 7, 69
1, 212735, Pitch_bend_c, 0, 5803
1, 212735, Pitch_bend_c, 1, 5803
1, 212735, Pitch_bend_c, 2, 5803
1, 212735, Pitch_bend_c, 3, 5803
1, 212735, Control_c, 7, 7, 99
1, 212740, Control_c, 7, 7, 121
1, 212745, Control_c, 7, 7, 123
1, 212750, Pitch_bend_c, 0, 5660
1, 212750, Pitch_bend_c, 1, 5660
1, 212750, Pitch_bend_c, 2, 5660
1, 212750, Pitch_bend_c, 3, 5660
1, 212750, Control_c, 7, 7, 103
1, 212755, Control_c, 7, 7, 72
1, 212760, Note_on_c, 9, 35, 0
1, 212760, Control_c, 7, 7, 46
1, 212760, Pitch_bend_c, 7, 8915
1, 212765, Pitch_bend_c, 0, 5516
1, 212765, Pitch_bend_c, 1, 5516
1, 212765, Pitch_bend_c, 2, 5516
1, 212765, Pitch_bend_c, 3, 5516
1, 212765, Control_c, 7, 7, 37
1, 212770, Control_c, 7, 7, 51
1, 212775, Control_c, 7, 7, 81
1, 212780, Pitch_bend_c, 0, 5380
1, 212780, Pitch_bend_c, 1, 5380
1, 212780, Pitch_bend_c, 2, 5380
1, 212780, Pitch_bend_c, 3, 5380
1, 212780, Control_c, 7, 7, 111
1, 212785, Control_c, 7, 7, 124
1, 212790, Control_c, 7, 7, 114
1, 212795, Control_c, 7, 7, 84
1, 212800, Pitch_bend_c, 0, 5237
1, 212800, Pitch_bend_c, 1, 5237
1, 212800, Pitch_bend_c, 2, 5237
1, 212800, Pitch_bend_c, 3, 5237
1, 212800, Control_c, 7, 7, 52
1, 212800, Pitch_bend_c, 7, 8929
1, 212805, Control_c, 7, 7, 37
1, 212810, Control_c, 7, 7, 47
1, 212815, Control_c, 7, 7, 78
1, 212820, Control_c, 7, 7, 110
1, 212825, Control_c, 7, 7, 124
1, 212830, Pitch_bend_c, 0, 5100
1, 212830, Pitch_bend_c, 1, 5100
1, 212830, Pitch_bend_c, 2, 5100
1, 212830, Pitch_bend_c, 3, 5100
1, 212830, Control_c, 7, 7, 111
1, 212835, Control_c, 7, 7, 78
1, 212840, Control_c, 7, 7, 46
1, 212840, Pitch_bend_c, 7, 8936
1, 212845, Control_c, 7, 7, 37
1, 212850, Control_c, 7, 7, 56
1, 212855, Control_c, 7, 7, 92
1, 212860, Control_c, 7, 7, 120
1, 212865, Control_c, 7, 7, 120
1, 212870, Control_c, 7, 7, 92
1, 212875, Control_c, 7, 7, 55
1, 212880, Note_on_c, 1, 35, 0
1, 212880, Note_on_c, 2, 59, 0
1, 212880, Note_on_c, 2, 83, 0
1, 212880, Note_on_c, 0, 47, 0
1, 212880, Note_on_c, 2, 95, 0
1, 212880, Note_on_c, 1, 71, 0
1, 212880, Note_on_c, 1, 83, 0
1, 212880, Note_on_c, 3, 83, 0
1, 212880, Note_on_c, 2, 71, 0
1, 212880, Note_on_c, 3, 47, 0
1, 212880, Note_on_c, 0, 47, 95
1, 212880, Note_on_c, 1, 71, 95
1, 212880, Note_on_c, 1, 83, 64
1, 212880, Note_on_c, 1, 35, 95
1, 212880, Note_on_c, 2, 95, 64
1, 212880, Note_on_c, 2, 83, 64
1, 212880, Note_on_c, 2, 71, 127
1, 212880, Note_on_c, 2, 59, 95
1, 212880, Note_on_c, 3, 83, 64
1, 212880, Note_on_c, 3, 47, 64
1, 212880, Control_c, 7, 7, 37
1, 212880, Pitch_bend_c, 7, 8949
1, 212885, Control_c, 7, 7, 51
1, 212890, Control_c, 7, 7, 88
1, 212895, Pitch_bend_c, 0, 4963
1, 212895, Pitch_bend_c, 1, 4963
1, 212895, Pitch_bend_c, 2, 4963
1, 212895, Pitch_bend_c, 3, 4963
1, 212895, Control_c, 7, 7, 119
1, 212900, Control_c, 7, 7, 120
1, 212905, Control_c, 7, 7, 90
1, 212910, Pitch_bend_c, 0, 4636
1, 212910, Pitch_bend_c, 1, 4636
1, 212910, Pitch_bend_c, 2, 4636
1, 212910, Pitch_bend_c, 3, 4636
1, 212910, Control_c, 7, 7, 51
1, 212915, Control_c, 7, 7, 37
1, 212920, Control_c, 7, 7, 59
1, 212920, Pitch_bend_c, 7, 8956
1, 212925, Pitch_bend_c, 0, 4499
1, 212925, Pitch_bend_c, 1, 4499
1, 212925, Pitch_bend_c, 2, 4499
1, 212925, Pitch_bend_c, 3, 4499
1, 212925, Control_c, 7, 7, 100
1, 212930, Control_c, 7, 7, 124
1, 212935, Control_c, 7, 7, 109
1, 212940, Pitch_bend_c, 0, 4083
1, 212940, Pitch_bend_c, 1, 4083
1, 212940, Pitch_bend_c, 2, 4083
1, 212940, Pitch_bend_c, 3, 4083
1, 212940, Control_c, 7, 7, 68
1, 212945, Control_c, 7, 7, 38
1, 212950, Control_c, 7, 7, 48
1, 212955, Control_c, 7, 7, 89
1, 212960, Pitch_bend_c, 0, 3810
1, 212960, Pitch_bend_c, 1, 3810
1, 212960, Pitch_bend_c, 2, 3810
1, 212960, Pitch_bend_c, 3, 3810
1, 212960, Control_c, 7, 7, 122
1, 212960, Pitch_bend_c, 7, 8977
1, 212965, Control_c, 7, 7, 114
1, 212970, Control_c, 7, 7, 72
1, 212975, Pitch_bend_c, 0, 3359
1, 212975, Pitch_bend_c, 1, 3359
1, 212975, Pitch_bend_c, 2, 3359
1, 212975, Pitch_bend_c, 3, 3359
1, 212975, Control_c, 7, 7, 39
1, 212980, Control_c, 7, 7, 49
1, 212985, Control_c, 7, 7, 93
1, 212990, Pitch_bend_c, 0, 3086
1, 212990, Pitch_bend_c, 1, 3086
1, 212990, Pitch_bend_c, 2, 3086
1, 212990, Pitch_bend_c, 3, 3086
1, 212990, Control_c, 7, 7, 124
1, 212995, Control_c, 7, 7, 107
1, 213000, Control_c, 7, 7, 60
1, 213000, Pitch_bend_c, 7, 8990
1, 213005, Pitch_bend_c, 0, 2820
1, 213005, Pitch_bend_c, 1, 2820
1, 213005, Pitch_bend_c, 2, 2820
1, 213005, Pitch_bend_c, 3, 2820
1, 213005, Control_c, 7, 7, 37
1, 213010, Control_c, 7, 7, 65
1, 213015, Control_c, 7, 7, 113
1, 213020, Pitch_bend_c, 0, 2683
1, 213020, Pitch_bend_c, 1, 2683
1, 213020, Pitch_bend_c, 2, 2683
1, 213020, Pitch_bend_c, 3, 2683
1, 213020, Control_c, 7, 7, 120
1, 213025, Control_c, 7, 7, 78
1, 213030, Control_c, 7, 7, 38
1, 213035, Control_c, 7, 7, 54
1, 213040, Pitch_bend_c, 0, 2369
1, 213040, Pitch_bend_c, 1, 2369
1, 213040, Pitch_bend_c, 2, 2369
1, 213040, Pitch_bend_c, 3, 2369
1, 213040, Control_c, 7, 7, 105
1, 213040, Pitch_bend_c, 7, 9004
1, 213045, Control_c, 7, 7, 123
1, 213050, Control_c, 7, 7, 81
1, 213055, Pitch_bend_c, 0, 2240
1, 213055, Pitch_bend_c, 1, 2240
1, 213055, Pitch_bend_c, 2, 2240
1, 213055, Pitch_bend_c, 3, 2240
1, 213055, Control_c, 7, 7, 38
1, 213060, Control_c, 7, 7, 57
1, 213065, Control_c, 7, 7, 111
1, 213070, Control_c, 7, 7, 119
1, 213075, Control_c, 7, 7, 67
1, 213080, Control_c, 7, 7, 37
1, 213085, Pitch_bend_c, 0, 2103
1, 213085, Pitch_bend_c, 1, 2103
1, 213085, Pitch_bend_c, 2, 2103
1, 213085, Pitch_bend_c, 3, 2103
1, 213085, Control_c, 7, 7, 78
1, 213090, Control_c, 7, 7, 124
1, 213095, Control_c, 7, 7, 95
1, 213100, Control_c, 7, 7, 41
1, 213105, Control_c, 7, 7, 58
1, 213110, Control_c, 7, 7, 116
1, 213115, Control_c, 7, 7, 108
1, 213120, Note_on_c, 3, 47, 0
1, 213120, Note_on_c, 7, 47, 0
1, 213120, Note_on_c, 2, 83, 0
1, 213120, Note_on_c, 0, 47, 0
1, 213120, Note_on_c, 1, 71, 0
1, 213120, Note_on_c, 7, 59, 0
1, 213120, Note_on_c, 1, 83, 0
1, 213120, Note_on_c, 1, 35, 0
1, 213120, Note_on_c, 2, 71, 0
1, 213120, Note_on_c, 2, 95, 0
1, 213120, Note_on_c, 3, 83, 0
1, 213120, Note_on_c, 2, 59, 0
1, 213120, Pitch_bend_c, 0, 8192
1, 213120, Pitch_bend_c, 1, 8192
1, 213120, Pitch_bend_c, 2, 8192
1, 213120, Pitch_bend_c, 3, 8192
1, 213120, Pitch_bend_c, 4, 8179
1, 213120, Note_on_c, 4, 85, 101
1, 213120, Note_on_c, 4, 73, 101
1, 213120, Note_on_c, 4, 66, 101
1, 213120, Note_on_c, 4, 78, 101
1, 213120, Control_c, 6, 7, 127
1, 213120, Pitch_bend_c, 6, 8179
1, 213120, Note_on_c, 6, 73, 101
1, 213120, Note_on_c, 6, 66, 101
1, 213120, Note_on_c, 6, 54, 101
1, 213120, Note_on_c, 6, 61, 101
1, 213120, Pitch_bend_c, 7, 8192
1, 213120, Note_on_c, 9, 35, 103
1, 213125, Pitch_bend_c, 4, 8083
1, 213125, Pitch_bend_c, 6, 8083
1, 213130, Pitch_bend_c, 4, 8192
1, 213130, Pitch_bend_c, 4, 7988
1, 213130, Pitch_bend_c, 6, 8192
1, 213130, Pitch_bend_c, 6, 7988
1, 213135, Pitch_bend_c, 4, 7885
1, 213135, Pitch_bend_c, 6, 7885
1, 213140, Pitch_bend_c, 4, 7790
1, 213140, Pitch_bend_c, 6, 7790
1, 213145, Pitch_bend_c, 4, 7694
1, 213145, Pitch_bend_c, 6, 7694
1, 213150, Pitch_bend_c, 4, 7592
1, 213150, Pitch_bend_c, 6, 7592
1, 213155, Pitch_bend_c, 4, 7496
1, 213155, Pitch_bend_c, 6, 7496
1, 213160, Pitch_bend_c, 4, 7394
1, 213160, Pitch_bend_c, 6, 7394
1, 213165, Pitch_bend_c, 4, 7298
1, 213165, Pitch_bend_c, 6, 7298
1, 213170, Pitch_bend_c, 4, 7203
1, 213170, Pitch_bend_c, 6, 7203
1, 213175, Pitch_bend_c, 4, 7100
1, 213175, Pitch_bend_c, 6, 7100
1, 213180, Pitch_bend_c, 4, 7005
1, 213180, Pitch_bend_c, 6, 7005
1, 213185, Pitch_bend_c, 4, 6902
1, 213185, Pitch_bend_c, 6, 6902
1, 213190, Pitch_bend_c, 4, 6807
1, 213190, Pitch_bend_c, 6, 6807
1, 213195, Pitch_bend_c, 4, 6711
1, 213195, Pitch_bend_c, 6, 6711
1, 213200, Pitch_bend_c, 4, 6609
1, 213200, Pitch_bend_c, 6, 6609
1, 213205, Pitch_bend_c, 4, 6513
1, 213205, Pitch_bend_c, 6, 6513
1, 213210, Pitch_bend_c, 4, 6411
1, 213210, Pitch_bend_c, 6, 6411
1, 213215, Pitch_bend_c, 4, 6315
1, 213215, Pitch_bend_c, 6, 6315
1, 213220, Pitch_bend_c, 4, 6220
1, 213220, Pitch_bend_c, 6, 6220
1, 213225, Pitch_bend_c, 4, 6117
1, 213225, Pitch_bend_c, 6, 6117
1, 213230, Pitch_bend_c, 4, 6022
1, 213230, Pitch_bend_c, 6, 6022
1, 213235, Pitch_bend_c, 4, 5919
1, 213235, Pitch_bend_c, 6, 5919
1, 213240, Note_on_c, 9, 35, 0
1, 213240, Pitch_bend_c, 4, 5824
1, 213240, Pitch_bend_c, 6, 5824
1, 213245, Pitch_bend_c, 4, 5728
1, 213245, Pitch_bend_c, 6, 5728
1, 213250, Pitch_bend_c, 4, 5626
1, 213250, Pitch_bend_c, 6, 5626
1, 213255, Pitch_bend_c, 4, 5530
1, 213255, Pitch_bend_c, 6, 5530
1, 213260, Pitch_bend_c, 4, 5435
1, 213260, Pitch_bend_c, 6, 5435
1, 213265, Pitch_bend_c, 4, 5332
1, 213265, Pitch_bend_c, 6, 5332
1, 213270, Pitch_bend_c, 4, 5237
1, 213270, Pitch_bend_c, 6, 5237
1, 213275, Pitch_bend_c, 4, 5134
1, 213275, Pitch_bend_c, 6, 5134
1, 213280, Pitch_bend_c, 4, 5039
1, 213280, Pitch_bend_c, 6, 5039
1, 213285, Pitch_bend_c, 4, 4943
1, 213285, Pitch_bend_c, 6, 4943
1, 213290, Pitch_bend_c, 4, 4841
1, 213290, Pitch_bend_c, 6, 4841
1, 213295, Pitch_bend_c, 4, 4745
1, 213295, Pitch_bend_c, 6, 4745
1, 213300, Pitch_bend_c, 4, 4643
1, 213300, Pitch_bend_c, 6, 4643
1, 213305, Pitch_bend_c, 4, 4547
1, 213305, Pitch_bend_c, 6, 4547
1, 213310, Pitch_bend_c, 4, 4451
1, 213310, Pitch_bend_c, 6, 4451
1, 213315, Pitch_bend_c, 4, 4349
1, 213315, Pitch_bend_c, 6, 4349
1, 213320, Pitch_bend_c, 4, 4254
1, 213320, Pitch_bend_c, 6, 4254
1, 213325, Pitch_bend_c, 4, 4151
1, 213325, Pitch_bend_c, 6, 4151
1, 213330, Pitch_bend_c, 4, 4056
1, 213330, Pitch_bend_c, 6, 4056
1, 213335, Pitch_bend_c, 4, 3960
1, 213335, Pitch_bend_c, 6, 3960
1, 213340, Pitch_bend_c, 4, 3858
1, 213340, Pitch_bend_c, 6, 3858
1, 213345, Pitch_bend_c, 4, 3762
1, 213345, Pitch_bend_c, 6, 3762
1, 213350, Pitch_bend_c, 4, 3660
1, 213350, Pitch_bend_c, 6, 3660
1, 213355, Pitch_bend_c, 4, 3564
1, 213355, Pitch_bend_c, 6, 3564
1, 213360, Pitch_bend_c, 4, 3468
1, 213360, Pitch_bend_c, 6, 3468
1, 213365, Pitch_bend_c, 4, 3366
1, 213365, Pitch_bend_c, 6, 3366
1, 213370, Pitch_bend_c, 4, 3270
1, 213370, Pitch_bend_c, 6, 3270
1, 213375, Pitch_bend_c, 4, 3175
1, 213375, Pitch_bend_c, 6, 3175
1, 213380, Pitch_bend_c, 4, 3072
1, 213380, Pitch_bend_c, 6, 3072
1, 213385, Pitch_bend_c, 4, 2977
1, 213385, Pitch_bend_c, 6, 2977
1, 213390, Pitch_bend_c, 4, 2875
1, 213390, Pitch_bend_c, 6, 2875
1, 213395, Pitch_bend_c, 4, 2779
1, 213395, Pitch_bend_c, 6, 2779
1, 213400, Pitch_bend_c, 4, 2683
1, 213400, Pitch_bend_c, 6, 2683
1, 213405, Pitch_bend_c, 4, 2581
1, 213405, Pitch_bend_c, 6, 2581
1, 213410, Pitch_bend_c, 4, 2485
1, 213410, Pitch_bend_c, 6, 2485
1, 213415, Pitch_bend_c, 4, 2383
1, 213415, Pitch_bend_c, 6, 2383
1, 213420, Pitch_bend_c, 4, 2287
1, 213420, Pitch_bend_c, 6, 2287
1, 213425, Pitch_bend_c, 4, 2192
1, 213425, Pitch_bend_c, 6, 2192
1, 213430, Pitch_bend_c, 4, 2089
1, 213430, Pitch_bend_c, 6, 2089
1, 213435, Pitch_bend_c, 4, 1994
1, 213435, Pitch_bend_c, 6, 1994
1, 213440, Pitch_bend_c, 4, 1891
1, 213440, Pitch_bend_c, 6, 1891
1, 213445, Pitch_bend_c, 4, 1796
1, 213445, Pitch_bend_c, 6, 1796
1, 213450, Pitch_bend_c, 4, 1700
1, 213450, Pitch_bend_c, 6, 1700
1, 213455, Pitch_bend_c, 4, 1598
1, 213455, Pitch_bend_c, 6, 1598
1, 213460, Pitch_bend_c, 4, 1502
1, 213460, Pitch_bend_c, 6, 1502
1, 213465, Pitch_bend_c, 4, 1400
1, 213465, Pitch_bend_c, 6, 1400
1, 213470, Pitch_bend_c, 4, 1304
1, 213470, Pitch_bend_c, 6, 1304
1, 213475, Pitch_bend_c, 4, 1209
1, 213475, Pitch_bend_c, 6, 1209
1, 213480, Pitch_bend_c, 4, 1106
1, 213480, Pitch_bend_c, 6, 1106
1, 213485, Pitch_bend_c, 4, 1011
1, 213485, Pitch_bend_c, 6, 1011
1, 213490, Pitch_bend_c, 4, 915
1, 213490, Pitch_bend_c, 6, 915
1, 213495, Pitch_bend_c, 4, 813
1, 213495, Pitch_bend_c, 6, 813
1, 213500, Pitch_bend_c, 4, 717
1, 213500, Pitch_bend_c, 6, 717
1, 213505, Pitch_bend_c, 4, 615
1, 213505, Pitch_bend_c, 6, 615
1, 213510, Pitch_bend_c, 4, 519
1, 213510, Pitch_bend_c, 6, 519
1, 213515, Pitch_bend_c, 4, 424
1, 213515, Pitch_bend_c, 6, 424
1, 213520, Pitch_bend_c, 4, 321
1, 213520, Pitch_bend_c, 6, 321
1, 213525, Pitch_bend_c, 4, 226
1, 213525, Pitch_bend_c, 6, 226
1, 213530, Pitch_bend_c, 4, 123
1, 213530, Pitch_bend_c, 6, 123
1, 213535, Pitch_bend_c, 4, 28
1, 213535, Pitch_bend_c, 6, 28
1, 213540, Pitch_bend_c, 4, 0
1, 213540, Pitch_bend_c, 6, 0
1, 213545, Pitch_bend_c, 4, 0
1, 213545, Pitch_bend_c, 6, 0
1, 213550, Pitch_bend_c, 4, 0
1, 213550, Pitch_bend_c, 6, 0
1, 213555, Pitch_bend_c, 4, 0
1, 213555, Pitch_bend_c, 6, 0
1, 213560, Pitch_bend_c, 4, 0
1, 213560, Pitch_bend_c, 6, 0
1, 213565, Pitch_bend_c, 4, 0
1, 213565, Pitch_bend_c, 6, 0
1, 213570, Pitch_bend_c, 4, 0
1, 213570, Pitch_bend_c, 6, 0
1, 213575, Pitch_bend_c, 4, 0
1, 213575, Pitch_bend_c, 6, 0
1, 213580, Pitch_bend_c, 4, 0
1, 213580, Pitch_bend_c, 6, 0
1, 213600, Note_on_c, 4, 78, 0
1, 213600, Note_on_c, 4, 85, 0
1, 213600, Note_on_c, 6, 73, 0
1, 213600, Note_on_c, 4, 73, 0
1, 213600, Note_on_c, 4, 66, 0
1, 213600, Note_on_c, 6, 54, 0
1, 213600, Note_on_c, 6, 66, 0
1, 213600, Note_on_c, 6, 61, 0
1, 213600, Control_c, 6, 7, 0
1, 213680, Pitch_bend_c, 4, 8192
1, 213680, Pitch_bend_c, 6, 8192
1, 214075, Control_c, 6, 7, 127
1, 215040, Note_on_c, 4, 67, 101
1, 215040, Note_on_c, 4, 79, 101
1, 215040, Note_on_c, 4, 71, 101
1, 215040, Note_on_c, 4, 83, 101
1, 215040, Note_on_c, 6, 71, 101
1, 215040, Note_on_c, 6, 55, 101
1, 215040, Note_on_c, 6, 67, 101
1, 215040, Note_on_c, 6, 59, 101
1, 215040, Note_on_c, 9, 49, 127
1, 215040, Control_c, 13, 7, 0
1, 215040, Pitch_bend_c, 13, 8192
1, 215040, Note_on_c, 13, 75, 63
1, 215040, Note_on_c, 13, 74, 63
1, 215040, Note_on_c, 13, 73, 63
1, 215040, Note_on_c, 13, 72, 63
1, 215040, Note_on_c, 13, 60, 63
1, 215040, Note_on_c, 13, 71, 63
1, 215040, Note_on_c, 13, 70, 63
1, 215040, Note_on_c, 13, 69, 63
1, 215040, Note_on_c, 13, 68, 63
1, 215040, Note_on_c, 13, 67, 63
1, 215040, Note_on_c, 13, 66, 63
1, 215040, Note_on_c, 13, 65, 63
1, 215040, Note_on_c, 13, 64, 63
1, 215040, Note_on_c, 13, 62, 63
1, 215040, Note_on_c, 13, 63, 63
1, 215040, Note_on_c, 13, 61, 63
1, 215280, Note_on_c, 9, 49, 0
1, 215280, Note_on_c, 6, 59, 0
1, 215280, Note_on_c, 6, 67, 0
1, 215280, Note_on_c, 4, 67, 0
1, 215280, Note_on_c, 4, 83, 0
1, 215280, Note_on_c, 4, 71, 0
1, 215280, Note_on_c, 6, 55, 0
1, 215280, Note_on_c, 4, 79, 0
1, 215280, Note_on_c, 6, 71, 0
1, 215280, Note_on_c, 9, 49, 1
1, 215400, Note_on_c, 9, 49, 0
1, 215400, Note_on_c, 4, 67, 101
1, 215400, Note_on_c, 4, 79, 101
1, 215400, Note_on_c, 4, 71, 101
1, 215400, Note_on_c, 4, 83, 101
1, 215400, Note_on_c, 6, 71, 101
1, 215400, Note_on_c, 6, 59, 101
1, 215400, Note_on_c, 6, 67, 101
1, 215400, Note_on_c, 6, 55, 101
1, 215400, Note_on_c, 9, 49, 127
1, 215640, Note_on_c, 9, 49, 0
1, 215640, Note_on_c, 6, 59, 0
1, 215640, Note_on_c, 4, 67, 0
1, 215640, Note_on_c, 4, 71, 0
1, 215640, Note_on_c, 6, 71, 0
1, 215640, Note_on_c, 4, 79, 0
1, 215640, Note_on_c, 4, 83, 0
1, 215640, Note_on_c, 6, 55, 0
1, 215640, Note_on_c, 6, 67, 0
1, 215640, Note_on_c, 9, 49, 1
1, 215760, Note_on_c, 9, 49, 0
1, 215760, Note_on_c, 4, 83, 101
1, 215760, Note_on_c, 4, 71, 101
1, 215760, Note_on_c, 4, 79, 101
1, 215760, Note_on_c, 4, 67, 101
1, 215760, Note_on_c, 6, 71, 101
1, 215760, Note_on_c, 6, 59, 101
1, 215760, Note_on_c, 6, 67, 101
1, 215760, Note_on_c, 6, 55, 101
1, 215760, Note_on_c, 9, 49, 127
1, 216000, Note_on_c, 9, 49, 0
1, 216000, Note_on_c, 6, 59, 0
1, 216000, Note_on_c, 4, 83, 0
1, 216000, Note_on_c, 4, 79, 0
1, 216000, Note_on_c, 6, 71, 0
1, 216000, Note_on_c, 4, 71, 0
1, 216000, Note_on_c, 4, 67, 0
1, 216000, Note_on_c, 6, 55, 0
1, 216000, Note_on_c, 6, 67, 0
1, 216000, Note_on_c, 4, 69, 101
1, 216000, Note_on_c, 4, 81, 101
1, 216000, Note_on_c, 4, 73, 101
1, 216000, Note_on_c, 4, 85, 101
1, 216000, Note_on_c, 6, 73, 101
1, 216000, Note_on_c, 6, 61, 101
1, 216000, Note_on_c, 6, 69, 101
1, 216000, Note_on_c, 6, 57, 101
1, 216000, Note_on_c, 8, 52, 127
1, 216000, Note_on_c, 9, 49, 127
1, 216000, Note_on_c, 9, 41, 127
1, 216000, Note_on_c, 12, 60, 103
1, 216120, Note_on_c, 9, 41, 0
1, 216240, Note_on_c, 6, 61, 0
1, 216240, Note_on_c, 4, 69, 0
1, 216240, Note_on_c, 6, 73, 0
1, 216240, Note_on_c, 4, 81, 0
1, 216240, Note_on_c, 4, 85, 0
1, 216240, Note_on_c, 4, 73, 0
1, 216240, Note_on_c, 9, 49, 0
1, 216240, Note_on_c, 6, 57, 0
1, 216240, Note_on_c, 6, 69, 0
1, 216240, Note_on_c, 9, 49, 1
1, 216360, Note_on_c, 9, 49, 0
1, 216360, Note_on_c, 4, 85, 101
1, 216360, Note_on_c, 4, 73, 101
1, 216360, Note_on_c, 4, 81, 101
1, 216360, Note_on_c, 4, 69, 101
1, 216360, Note_on_c, 6, 73, 101
1, 216360, Note_on_c, 6, 61, 101
1, 216360, Note_on_c, 6, 69, 101
1, 216360, Note_on_c, 6, 57, 101
1, 216360, Note_on_c, 9, 49, 127
1, 216360, Note_on_c, 9, 44, 80
1, 216360, Note_on_c, 9, 38, 80
1, 216480, Note_on_c, 9, 38, 0
1, 216480, Note_on_c, 9, 44, 0
1, 216480, Note_on_c, 9, 38, 80
1, 216600, Note_on_c, 9, 38, 0
1, 216600, Note_on_c, 6, 57, 0
1, 216600, Note_on_c, 4, 81, 0
1, 216600, Note_on_c, 4, 73, 0
1, 216600, Note_on_c, 4, 85, 0
1, 216600, Note_on_c, 4, 69, 0
1, 216600, Note_on_c, 6, 61, 0
1, 216600, Note_on_c, 6, 73, 0
1, 216600, Note_on_c, 6, 69, 0
1, 216600, Note_on_c, 9, 49, 0
1, 216600, Note_on_c, 9, 49, 2
1, 216720, Note_on_c, 9, 49, 0
1, 216720, Note_on_c, 8, 52, 0
1, 216720, Note_on_c, 4, 69, 101
1, 216720, Note_on_c, 4, 81, 101
1, 216720, Note_on_c, 4, 73, 101
1, 216720, Note_on_c, 4, 85, 101
1, 216720, Note_on_c, 6, 73, 101
1, 216720, Note_on_c, 6, 61, 101
1, 216720, Note_on_c, 6, 69, 101
1, 216720, Note_on_c, 6, 57, 101
1, 216720, Note_on_c, 8, 56, 127
1, 216720, Note_on_c, 9, 43, 127
1, 216720, Note_on_c, 9, 49, 127
1, 216840, Note_on_c, 9, 43, 0
1, 216960, Note_on_c, 6, 73, 0
1, 216960, Note_on_c, 6, 61, 0
1, 216960, Note_on_c, 4, 85, 0
1, 216960, Note_on_c, 4, 69, 0
1, 216960, Note_on_c, 4, 73, 0
1, 216960, Note_on_c, 4, 81, 0
1, 216960, Note_on_c, 9, 49, 0
1, 216960, Note_on_c, 6, 57, 0
1, 216960, Note_on_c, 6, 69, 0
1, 216960, Note_on_c, 8, 56, 0
1, 216960, Pitch_bend_c, 0, 8192
1, 216960, Note_on_c, 0, 35, 95
1, 216960, Pitch_bend_c, 1, 8192
1, 216960, Note_on_c, 1, 59, 95
1, 216960, Note_on_c, 1, 71, 64
1, 216960, Note_on_c, 1, 23, 95
1, 216960, Pitch_bend_c, 2, 8192
1, 216960, Note_on_c, 2, 83, 94
1, 216960, Note_on_c, 2, 71, 64
1, 216960, Note_on_c, 2, 59, 127
1, 216960, Note_on_c, 2, 47, 95
1, 216960, Pitch_bend_c, 3, 8192
1, 216960, Note_on_c, 3, 71, 64
1, 216960, Note_on_c, 3, 35, 64
1, 216960, Note_on_c, 9, 57, 103
1, 216960, Note_on_c, 9, 52, 127
1, 216960, Note_on_c, 9, 49, 103
1, 216960, Note_on_c, 9, 42, 103
1, 216960, Note_on_c, 9, 35, 103
1, 216960, Note_on_c, 9, 82, 18
1, 216960, Note_on_c, 10, 23, 127
1, 216960, Control_c, 13, 7, 127
1, 217020, Control_c, 13, 7, 127
1, 217080, Note_on_c, 9, 82, 0
1, 217080, Note_on_c, 9, 35, 0
1, 217080, Note_on_c, 9, 42, 0
1, 217080, Note_on_c, 12, 60, 0
1, 217080, Note_on_c, 9, 82, 18
1, 217080, Control_c, 13, 7, 125
1, 217140, Note_on_c, 10, 23, 0
1, 217140, Control_c, 13, 7, 124
1, 217200, Note_on_c, 9, 82, 0
1, 217200, Note_on_c, 9, 42, 73
1, 217200, Note_on_c, 9, 82, 31
1, 217200, Note_on_c, 10, 23, 93
1, 217200, Control_c, 13, 7, 121
1, 217260, Note_on_c, 10, 23, 0
1, 217260, Control_c, 13, 7, 119
1, 217320, Note_on_c, 9, 82, 0
1, 217320, Note_on_c, 3, 71, 0
1, 217320, Note_on_c, 3, 35, 0
1, 217320, Note_on_c, 2, 71, 0
1, 217320, Note_on_c, 2, 83, 0
1, 217320, Note_on_c, 1, 59, 0
1, 217320, Note_on_c, 1, 23, 0
1, 217320, Note_on_c, 1, 71, 0
1, 217320, Note_on_c, 9, 42, 0
1, 217320, Note_on_c, 2, 59, 0
1, 217320, Note_on_c, 0, 35, 0
1, 217320, Note_on_c, 2, 47, 0
1, 217320, Pitch_bend_c, 0, 0
1, 217320, Note_on_c, 0, 47, 95
1, 217320, Pitch_bend_c, 1, 0
1, 217320, Note_on_c, 1, 71, 95
1, 217320, Note_on_c, 1, 83, 64
1, 217320, Note_on_c, 1, 35, 95
1, 217320, Pitch_bend_c, 2, 0
1, 217320, Note_on_c, 2, 95, 64
1, 217320, Note_on_c, 2, 83, 64
1, 217320, Note_on_c, 2, 71, 127
1, 217320, Note_on_c, 2, 59, 95
1, 217320, Pitch_bend_c, 3, 0
1, 217320, Note_on_c, 3, 83, 64
1, 217320, Note_on_c, 3, 47, 64
1, 217320, Note_on_c, 9, 82, 39
1, 217320, Note_on_c, 10, 23, 75
1, 217320, Control_c, 13, 7, 117
1, 217335, Pitch_bend_c, 0, 8192
1, 217335, Pitch_bend_c, 1, 8192
1, 217335, Pitch_bend_c, 2, 8192
1, 217335, Pitch_bend_c, 3, 8192
1, 217380, Note_on_c, 10, 23, 0
1, 217380, Control_c, 13, 7, 114
1, 217440, Note_on_c, 2, 59, 0
1, 217440, Note_on_c, 1, 83, 0
1, 217440, Note_on_c, 1, 71, 0
1, 217440, Note_on_c, 0, 47, 0
1, 217440, Note_on_c, 1, 35, 0
1, 217440, Note_on_c, 9, 82, 0
1, 217440, Note_on_c, 2, 83, 0
1, 217440, Note_on_c, 2, 95, 0
1, 217440, Note_on_c, 3, 47, 0
1, 217440, Note_on_c, 2, 71, 0
1, 217440, Note_on_c, 3, 83, 0
1, 217440, Note_on_c, 9, 42, 73
1, 217440, Note_on_c, 9, 35, 102
1, 217440, Note_on_c, 9, 40, 89
1, 217440, Note_on_c, 9, 28, 103
1, 217440, Note_on_c, 9, 82, 40
1, 217440, Note_on_c, 10, 23, 68
1, 217440, Control_c, 13, 7, 112
1, 217500, Note_on_c, 10, 23, 0
1, 217500, Control_c, 13, 7, 110
1, 217560, Note_on_c, 9, 40, 0
1, 217560, Note_on_c, 9, 35, 0
1, 217560, Note_on_c, 9, 42, 0
1, 217560, Note_on_c, 9, 82, 0
1, 217560, Note_on_c, 9, 28, 0
1, 217560, Note_on_c, 9, 82, 25
1, 217560, Note_on_c, 10, 23, 75
1, 217560, Control_c, 13, 7, 108
1, 217620, Note_on_c, 10, 23, 0
1, 217620, Control_c, 13, 7, 106
1, 217680, Note_on_c, 9, 82, 0
1, 217680, Note_on_c, 0, 47, 95
1, 217680, Note_on_c, 1, 71, 95
1, 217680, Note_on_c, 1, 83, 64
1, 217680, Note_on_c, 1, 35, 95
1, 217680, Note_on_c, 2, 95, 64
1, 217680, Note_on_c, 2, 83, 64
1, 217680, Note_on_c, 2, 71, 127
1, 217680, Note_on_c, 2, 59, 95
1, 217680, Note_on_c, 3, 83, 64
1, 217680, Note_on_c, 3, 47, 64
1, 217680, Note_on_c, 9, 42, 73
1, 217680, Note_on_c, 9, 82, 11
1, 217680, Note_on_c, 10, 23, 99
1, 217680, Control_c, 13, 7, 105
1, 217740, Note_on_c, 10, 23, 0
1, 217740, Control_c, 13, 7, 103
1, 217800, Note_on_c, 9, 82, 0
1, 217800, Note_on_c, 9, 42, 0
1, 217800, Note_on_c, 9, 82, 11
1, 217800, Note_on_c, 10, 23, 127
1, 217800, Control_c, 13, 7, 101
1, 217860, Control_c, 13, 7, 99
1, 217920, Note_on_c, 9, 82, 0
1, 217920, Note_on_c, 1, 71, 0
1, 217920, Note_on_c, 3, 83, 0
1, 217920, Note_on_c, 0, 47, 0
1, 217920, Note_on_c, 1, 83, 0
1, 217920, Note_on_c, 2, 83, 0
1, 217920, Note_on_c, 2, 95, 0
1, 217920, Note_on_c, 1, 35, 0
1, 217920, Note_on_c, 2, 59, 0
1, 217920, Note_on_c, 2, 71, 0
1, 217920, Note_on_c, 3, 47, 0
1, 217920, Note_on_c, 9, 42, 88
1, 217920, Note_on_c, 9, 35, 102
1, 217920, Note_on_c, 9, 82, 18
1, 217920, Control_c, 13, 7, 96
1, 217980, Note_on_c, 10, 23, 0
1, 217980, Control_c, 13, 7, 95
1, 218040, Note_on_c, 9, 82, 0
1, 218040, Note_on_c, 9, 35, 0
1, 218040, Note_on_c, 9, 42, 0
1, 218040, Note_on_c, 0, 43, 95
1, 218040, Note_on_c, 1, 67, 95
1, 218040, Note_on_c, 1, 79, 64
1, 218040, Note_on_c, 1, 31, 95
1, 218040, Note_on_c, 2, 91, 64
1, 218040, Note_on_c, 2, 79, 64
1, 218040, Note_on_c, 2, 67, 127
1, 218040, Note_on_c, 2, 55, 95
1, 218040, Note_on_c, 3, 79, 64
1, 218040, Note_on_c, 3, 43, 64
1, 218040, Note_on_c, 9, 82, 18
1, 218040, Note_on_c, 10, 23, 93
1, 218040, Control_c, 13, 7, 92
1, 218100, Note_on_c, 10, 23, 0
1, 218100, Control_c, 13, 7, 91
1, 218160, Note_on_c, 2, 55, 0
1, 218160, Note_on_c, 1, 79, 0
1, 218160, Note_on_c, 1, 67, 0
1, 218160, Note_on_c, 0, 43, 0
1, 218160, Note_on_c, 1, 31, 0
1, 218160, Note_on_c, 9, 82, 0
1, 218160, Note_on_c, 2, 79, 0
1, 218160, Note_on_c, 2, 91, 0
1, 218160, Note_on_c, 3, 43, 0
1, 218160, Note_on_c, 2, 67, 0
1, 218160, Note_on_c, 3, 79, 0
1, 218160, Pitch_bend_c, 0, 5100
1, 218160, Note_on_c, 0, 47, 95
1, 218160, Pitch_bend_c, 1, 5100
1, 218160, Note_on_c, 1, 71, 95
1, 218160, Note_on_c, 1, 83, 64
1, 218160, Note_on_c, 1, 35, 95
1, 218160, Pitch_bend_c, 2, 5100
1, 218160, Note_on_c, 2, 95, 64
1, 218160, Note_on_c, 2, 83, 64
1, 218160, Note_on_c, 2, 71, 127
1, 218160, Note_on_c, 2, 59, 95
1, 218160, Pitch_bend_c, 3, 5100
1, 218160, Note_on_c, 3, 83, 64
1, 218160, Note_on_c, 3, 47, 64
1, 218160, Note_on_c, 9, 42, 73
1, 218160, Note_on_c, 9, 82, 31
1, 218160, Note_on_c, 10, 23, 75
1, 218160, Control_c, 13, 7, 90
1, 218175, Pitch_bend_c, 0, 6697
1, 218175, Pitch_bend_c, 1, 6697
1, 218175, Pitch_bend_c, 2, 6697
1, 218175, Pitch_bend_c, 3, 6697
1, 218220, Note_on_c, 10, 23, 0
1, 218220, Control_c, 13, 7, 88
1, 218240, Pitch_bend_c, 0, 6841
1, 218240, Pitch_bend_c, 1, 6841
1, 218240, Pitch_bend_c, 2, 6841
1, 218240, Pitch_bend_c, 3, 6841
1, 218270, Pitch_bend_c, 0, 6984
1, 218270, Pitch_bend_c, 1, 6984
1, 218270, Pitch_bend_c, 2, 6984
1, 218270, Pitch_bend_c, 3, 6984
1, 218280, Note_on_c, 9, 82, 0
1, 218280, Note_on_c, 9, 42, 0
1, 218280, Note_on_c, 9, 82, 39
1, 218280, Note_on_c, 10, 23, 59
1, 218280, Control_c, 13, 7, 86
1, 218285, Pitch_bend_c, 0, 7175
1, 218285, Pitch_bend_c, 1, 7175
1, 218285, Pitch_bend_c, 2, 7175
1, 218285, Pitch_bend_c, 3, 7175
1, 218300, Pitch_bend_c, 0, 7319
1, 218300, Pitch_bend_c, 1, 7319
1, 218300, Pitch_bend_c, 2, 7319
1, 218300, Pitch_bend_c, 3, 7319
1, 218320, Pitch_bend_c, 0, 7612
1, 218320, Pitch_bend_c, 1, 7612
1, 218320, Pitch_bend_c, 2, 7612
1, 218320, Pitch_bend_c, 3, 7612
1, 218335, Pitch_bend_c, 0, 7756
1, 218335, Pitch_bend_c, 1, 7756
1, 218335, Pitch_bend_c, 2, 7756
1, 218335, Pitch_bend_c, 3, 7756
1, 218340, Note_on_c, 10, 23, 0
1, 218340, Control_c, 13, 7, 83
1, 218350, Pitch_bend_c, 0, 7899
1, 218350, Pitch_bend_c, 1, 7899
1, 218350, Pitch_bend_c, 2, 7899
1, 218350, Pitch_bend_c, 3, 7899
1, 218365, Pitch_bend_c, 0, 8049
1, 218365, Pitch_bend_c, 1, 8049
1, 218365, Pitch_bend_c, 2, 8049
1, 218365, Pitch_bend_c, 3, 8049
1, 218380, Pitch_bend_c, 0, 8192
1, 218380, Pitch_bend_c, 1, 8192
1, 218380, Pitch_bend_c, 2, 8192
1, 218380, Pitch_bend_c, 3, 8192
1, 218400, Note_on_c, 3, 47, 0
1, 218400, Note_on_c, 3, 83, 0
1, 218400, Note_on_c, 1, 71, 0
1, 218400, Note_on_c, 0, 47, 0
1, 218400, Note_on_c, 1, 35, 0
1, 218400, Note_on_c, 9, 82, 0
1, 218400, Note_on_c, 2, 83, 0
1, 218400, Note_on_c, 2, 95, 0
1, 218400, Note_on_c, 1, 83, 0
1, 218400, Note_on_c, 2, 71, 0
1, 218400, Note_on_c, 2, 59, 0
1, 218400, Note_on_c, 0, 47, 95
1, 218400, Note_on_c, 1, 71, 95
1, 218400, Note_on_c, 1, 83, 64
1, 218400, Note_on_c, 1, 35, 95
1, 218400, Note_on_c, 2, 95, 64
1, 218400, Note_on_c, 2, 83, 64
1, 218400, Note_on_c, 2, 71, 127
1, 218400, Note_on_c, 2, 59, 95
1, 218400, Note_on_c, 3, 83, 64
1, 218400, Note_on_c, 3, 47, 64
1, 218400, Note_on_c, 9, 42, 73
1, 218400, Note_on_c, 9, 40, 90
1, 218400, Note_on_c, 9, 35, 103
1, 218400, Note_on_c, 9, 28, 103
1, 218400, Note_on_c, 9, 82, 40
1, 218400, Note_on_c, 10, 23, 58
1, 218400, Control_c, 13, 7, 82
1, 218460, Note_on_c, 10, 23, 0
1, 218460, Control_c, 13, 7, 80
1, 218520, Note_on_c, 9, 82, 0
1, 218520, Note_on_c, 9, 28, 0
1, 218520, Note_on_c, 9, 35, 0
1, 218520, Note_on_c, 9, 40, 0
1, 218520, Note_on_c, 9, 42, 0
1, 218520, Note_on_c, 9, 82, 25
1, 218520, Note_on_c, 10, 23, 72
1, 218520, Control_c, 13, 7, 77
1, 218580, Note_on_c, 10, 23, 0
1, 218580, Control_c, 13, 7, 76
1, 218640, Note_on_c, 3, 47, 0
1, 218640, Note_on_c, 3, 83, 0
1, 218640, Note_on_c, 1, 71, 0
1, 218640, Note_on_c, 0, 47, 0
1, 218640, Note_on_c, 1, 35, 0
1, 218640, Note_on_c, 9, 82, 0
1, 218640, Note_on_c, 2, 83, 0
1, 218640, Note_on_c, 2, 95, 0
1, 218640, Note_on_c, 1, 83, 0
1, 218640, Note_on_c, 2, 71, 0
1, 218640, Note_on_c, 2, 59, 0
1, 218640, Note_on_c, 0, 47, 95
1, 218640, Note_on_c, 1, 71, 95
1, 218640, Note_on_c, 1, 83, 64
1, 218640, Note_on_c, 1, 35, 95
1, 218640, Note_on_c, 2, 95, 64
1, 218640, Note_on_c, 2, 83, 64
1, 218640, Note_on_c, 2, 71, 127
1, 218640, Note_on_c, 2, 59, 95
1, 218640, Note_on_c, 3, 83, 64
1, 218640, Note_on_c, 3, 47, 64
1, 218640, Note_on_c, 9, 42, 73
1, 218640, Note_on_c, 9, 82, 11
1, 218640, Note_on_c, 10, 23, 91
1, 218640, Control_c, 13, 7, 74
1, 218670, Pitch_bend_c, 0, 8335
1, 218670, Pitch_bend_c, 1, 8335
1, 218670, Pitch_bend_c, 2, 8335
1, 218670, Pitch_bend_c, 3, 8335
1, 218700, Note_on_c, 10, 23, 0
1, 218700, Control_c, 13, 7, 71
1, 218720, Pitch_bend_c, 0, 8485
1, 218720, Pitch_bend_c, 1, 8485
1, 218720, Pitch_bend_c, 2, 8485
1, 218720, Pitch_bend_c, 3, 8485
1, 218735, Pitch_bend_c, 0, 8628
1, 218735, Pitch_bend_c, 1, 8628
1, 218735, Pitch_bend_c, 2, 8628
1, 218735, Pitch_bend_c, 3, 8628
1, 218750, Pitch_bend_c, 0, 8772
1, 218750, Pitch_bend_c, 1, 8772
1, 218750, Pitch_bend_c, 2, 8772
1, 218750, Pitch_bend_c, 3, 8772
1, 218760, Note_on_c, 9, 82, 0
1, 218760, Note_on_c, 9, 42, 0
1, 218760, Note_on_c, 9, 82, 11
1, 218760, Note_on_c, 10, 23, 127
1, 218760, Control_c, 13, 7, 69
1, 218765, Pitch_bend_c, 0, 9065
1, 218765, Pitch_bend_c, 1, 9065
1, 218765, Pitch_bend_c, 2, 9065
1, 218765, Pitch_bend_c, 3, 9065
1, 218780, Pitch_bend_c, 0, 9400
1, 218780, Pitch_bend_c, 1, 9400
1, 218780, Pitch_bend_c, 2, 9400
1, 218780, Pitch_bend_c, 3, 9400
1, 218800, Pitch_bend_c, 0, 9543
1, 218800, Pitch_bend_c, 1, 9543
1, 218800, Pitch_bend_c, 2, 9543
1, 218800, Pitch_bend_c, 3, 9543
1, 218815, Pitch_bend_c, 0, 9830
1, 218815, Pitch_bend_c, 1, 9830
1, 218815, Pitch_bend_c, 2, 9830
1, 218815, Pitch_bend_c, 3, 9830
1, 218820, Control_c, 13, 7, 68
1, 218830, Pitch_bend_c, 0, 10110
1, 218830, Pitch_bend_c, 1, 10110
1, 218830, Pitch_bend_c, 2, 10110
1, 218830, Pitch_bend_c, 3, 10110
1, 218845, Pitch_bend_c, 0, 10253
1, 218845, Pitch_bend_c, 1, 10253
1, 218845, Pitch_bend_c, 2, 10253
1, 218845, Pitch_bend_c, 3, 10253
1, 218860, Pitch_bend_c, 0, 10397
1, 218860, Pitch_bend_c, 1, 10397
1, 218860, Pitch_bend_c, 2, 10397
1, 218860, Pitch_bend_c, 3, 10397
1, 218880, Note_on_c, 9, 82, 0
1, 218880, Note_on_c, 1, 71, 0
1, 218880, Note_on_c, 3, 83, 0
1, 218880, Note_on_c, 0, 47, 0
1, 218880, Note_on_c, 1, 83, 0
1, 218880, Note_on_c, 2, 83, 0
1, 218880, Note_on_c, 2, 95, 0
1, 218880, Note_on_c, 1, 35, 0
1, 218880, Note_on_c, 2, 59, 0
1, 218880, Note_on_c, 2, 71, 0
1, 218880, Note_on_c, 3, 47, 0
1, 218880, Pitch_bend_c, 0, 12165
1, 218880, Note_on_c, 0, 35, 95
1, 218880, Pitch_bend_c, 1, 12165
1, 218880, Note_on_c, 1, 59, 95
1, 218880, Note_on_c, 1, 71, 64
1, 218880, Note_on_c, 1, 23, 95
1, 218880, Pitch_bend_c, 2, 12165
1, 218880, Note_on_c, 2, 83, 64
1, 218880, Note_on_c, 2, 71, 64
1, 218880, Note_on_c, 2, 59, 127
1, 218880, Note_on_c, 2, 47, 95
1, 218880, Pitch_bend_c, 3, 12165
1, 218880, Note_on_c, 3, 71, 64
1, 218880, Note_on_c, 3, 35, 64
1, 218880, Note_on_c, 9, 82, 18
1, 218880, Note_on_c, 9, 42, 103
1, 218880, Note_on_c, 9, 35, 103
1, 218880, Control_c, 13, 7, 66
1, 218895, Pitch_bend_c, 0, 8192
1, 218895, Pitch_bend_c, 1, 8192
1, 218895, Pitch_bend_c, 2, 8192
1, 218895, Pitch_bend_c, 3, 8192
1, 218940, Control_c, 13, 7, 63
1, 219000, Note_on_c, 9, 35, 0
1, 219000, Note_on_c, 9, 42, 0
1, 219000, Note_on_c, 9, 82, 0
1, 219000, Note_on_c, 10, 23, 0
1, 219000, Note_on_c, 9, 82, 18
1, 219000, Note_on_c, 10, 23, 79
1, 219000, Control_c, 13, 7, 60
1, 219060, Note_on_c, 10, 23, 0
1, 219060, Control_c, 13, 7, 59
1, 219120, Note_on_c, 9, 82, 0
1, 219120, Note_on_c, 9, 82, 31
1, 219120, Note_on_c, 9, 42, 73
1, 219120, Note_on_c, 10, 23, 64
1, 219120, Control_c, 13, 7, 57
1, 219180, Note_on_c, 10, 23, 0
1, 219180, Control_c, 13, 7, 55
1, 219240, Note_on_c, 9, 42, 0
1, 219240, Note_on_c, 1, 71, 0
1, 219240, Note_on_c, 2, 47, 0
1, 219240, Note_on_c, 1, 59, 0
1, 219240, Note_on_c, 0, 35, 0
1, 219240, Note_on_c, 1, 23, 0
1, 219240, Note_on_c, 9, 82, 0
1, 219240, Note_on_c, 2, 71, 0
1, 219240, Note_on_c, 2, 83, 0
1, 219240, Note_on_c, 3, 71, 0
1, 219240, Note_on_c, 2, 59, 0
1, 219240, Note_on_c, 3, 35, 0
1, 219240, Pitch_bend_c, 0, 0
1, 219240, Note_on_c, 0, 47, 95
1, 219240, Pitch_bend_c, 1, 0
1, 219240, Note_on_c, 1, 71, 95
1, 219240, Note_on_c, 1, 83, 64
1, 219240, Note_on_c, 1, 35, 95
1, 219240, Pitch_bend_c, 2, 0
1, 219240, Note_on_c, 2, 95, 64
1, 219240, Note_on_c, 2, 83, 64
1, 219240, Note_on_c, 2, 71, 127
1, 219240, Note_on_c, 2, 59, 95
1, 219240, Pitch_bend_c, 3, 0
1, 219240, Note_on_c, 3, 83, 64
1, 219240, Note_on_c, 3, 47, 64
1, 219240, Note_on_c, 9, 82, 39
1, 219240, Note_on_c, 10, 23, 62
1, 219240, Control_c, 13, 7, 52
1, 219255, Pitch_bend_c, 0, 8192
1, 219255, Pitch_bend_c, 1, 8192
1, 219255, Pitch_bend_c, 2, 8192
1, 219255, Pitch_bend_c, 3, 8192
1, 219300, Note_on_c, 10, 23, 0
1, 219300, Control_c, 13, 7, 50
1, 219360, Note_on_c, 2, 59, 0
1, 219360, Note_on_c, 1, 83, 0
1, 219360, Note_on_c, 1, 71, 0
1, 219360, Note_on_c, 0, 47, 0
1, 219360, Note_on_c, 1, 35, 0
1, 219360, Note_on_c, 9, 82, 0
1, 219360, Note_on_c, 2, 83, 0
1, 219360, Note_on_c, 2, 95, 0
1, 219360, Note_on_c, 3, 47, 0
1, 219360, Note_on_c, 2, 71, 0
1, 219360, Note_on_c, 3, 83, 0
1, 219360, Note_on_c, 9, 82, 40
1, 219360, Note_on_c, 9, 42, 73
1, 219360, Note_on_c, 9, 40, 91
1, 219360, Note_on_c, 9, 35, 103
1, 219360, Note_on_c, 9, 28, 102
1, 219360, Note_on_c, 10, 23, 66
1, 219360, Control_c, 13, 7, 48
1, 219420, Note_on_c, 10, 23, 0
1, 219420, Control_c, 13, 7, 47
1, 219480, Note_on_c, 9, 40, 0
1, 219480, Note_on_c, 9, 42, 0
1, 219480, Note_on_c, 9, 82, 0
1, 219480, Note_on_c, 9, 28, 0
1, 219480, Note_on_c, 9, 35, 0
1, 219480, Note_on_c, 9, 82, 25
1, 219480, Note_on_c, 10, 23, 91
1, 219480, Control_c, 13, 7, 45
1, 219540, Note_on_c, 10, 23, 0
1, 219540, Control_c, 13, 7, 44
1, 219600, Note_on_c, 9, 82, 0
1, 219600, Note_on_c, 0, 47, 95
1, 219600, Note_on_c, 1, 71, 95
1, 219600, Note_on_c, 1, 83, 64
1, 219600, Note_on_c, 1, 35, 95
1, 219600, Note_on_c, 2, 95, 64
1, 219600, Note_on_c, 2, 83, 64
1, 219600, Note_on_c, 2, 71, 127
1, 219600, Note_on_c, 2, 59, 95
1, 219600, Note_on_c, 3, 83, 64
1, 219600, Note_on_c, 3, 47, 64
1, 219600, Note_on_c, 9, 82, 11
1, 219600, Note_on_c, 9, 42, 73
1, 219600, Note_on_c, 10, 23, 98
1, 219600, Control_c, 13, 7, 42
1, 219660, Note_on_c, 10, 23, 0
1, 219660, Control_c, 13, 7, 41
1, 219720, Note_on_c, 9, 42, 0
1, 219720, Note_on_c, 9, 82, 0
1, 219720, Note_on_c, 9, 82, 11
1, 219720, Note_on_c, 10, 23, 127
1, 219720, Control_c, 13, 7, 38
1, 219780, Control_c, 13, 7, 36
1, 219840, Note_on_c, 9, 82, 0
1, 219840, Note_on_c, 1, 71, 0
1, 219840, Note_on_c, 3, 83, 0
1, 219840, Note_on_c, 0, 47, 0
1, 219840, Note_on_c, 1, 83, 0
1, 219840, Note_on_c, 2, 83, 0
1, 219840, Note_on_c, 2, 95, 0
1, 219840, Note_on_c, 1, 35, 0
1, 219840, Note_on_c, 2, 59, 0
1, 219840, Note_on_c, 2, 71, 0
1, 219840, Note_on_c, 3, 47, 0
1, 219840, Note_on_c, 0, 47, 95
1, 219840, Note_on_c, 1, 71, 95
1, 219840, Note_on_c, 1, 83, 64
1, 219840, Note_on_c, 1, 35, 95
1, 219840, Note_on_c, 2, 95, 64
1, 219840, Note_on_c, 2, 83, 64
1, 219840, Note_on_c, 2, 71, 127
1, 219840, Note_on_c, 2, 59, 95
1, 219840, Note_on_c, 3, 83, 64
1, 219840, Note_on_c, 3, 47, 64
1, 219840, Note_on_c, 9, 82, 18
1, 219840, Note_on_c, 9, 42, 88
1, 219840, Note_on_c, 9, 35, 104
1, 219840, Control_c, 13, 7, 34
1, 219870, Pitch_bend_c, 0, 8049
1, 219870, Pitch_bend_c, 1, 8049
1, 219870, Pitch_bend_c, 2, 8049
1, 219870, Pitch_bend_c, 3, 8049
1, 219900, Note_on_c, 10, 23, 0
1, 219900, Pitch_bend_c, 0, 7899
1, 219900, Pitch_bend_c, 1, 7899
1, 219900, Pitch_bend_c, 2, 7899
1, 219900, Pitch_bend_c, 3, 7899
1, 219900, Control_c, 13, 7, 33
1, 219935, Pitch_bend_c, 0, 7756
1, 219935, Pitch_bend_c, 1, 7756
1, 219935, Pitch_bend_c, 2, 7756
1, 219935, Pitch_bend_c, 3, 7756
1, 219960, Note_on_c, 9, 35, 0
1, 219960, Note_on_c, 9, 42, 0
1, 219960, Note_on_c, 9, 82, 0
1, 219960, Note_on_c, 9, 82, 18
1, 219960, Note_on_c, 10, 23, 66
1, 219960, Control_c, 13, 7, 31
1, 219965, Pitch_bend_c, 0, 7612
1, 219965, Pitch_bend_c, 1, 7612
1, 219965, Pitch_bend_c, 2, 7612
1, 219965, Pitch_bend_c, 3, 7612
1, 220000, Pitch_bend_c, 0, 7469
1, 220000, Pitch_bend_c, 1, 7469
1, 220000, Pitch_bend_c, 2, 7469
1, 220000, Pitch_bend_c, 3, 7469
1, 220020, Note_on_c, 10, 23, 0
1, 220020, Note_on_c, 3, 83, 0
1, 220020, Note_on_c, 1, 71, 0
1, 220020, Note_on_c, 0, 47, 0
1, 220020, Note_on_c, 1, 83, 0
1, 220020, Note_on_c, 2, 83, 0
1, 220020, Note_on_c, 2, 95, 0
1, 220020, Note_on_c, 1, 35, 0
1, 220020, Note_on_c, 2, 59, 0
1, 220020, Note_on_c, 2, 71, 0
1, 220020, Note_on_c, 3, 47, 0
1, 220020, Control_c, 13, 7, 29
1, 220080, Note_on_c, 9, 82, 0
1, 220080, Note_on_c, 0, 47, 95
1, 220080, Note_on_c, 1, 71, 95
1, 220080, Note_on_c, 1, 83, 64
1, 220080, Note_on_c, 1, 35, 95
1, 220080, Note_on_c, 2, 95, 64
1, 220080, Note_on_c, 2, 83, 64
1, 220080, Note_on_c, 2, 71, 127
1, 220080, Note_on_c, 2, 59, 95
1, 220080, Note_on_c, 3, 83, 64
1, 220080, Note_on_c, 3, 47, 64
1, 220080, Note_on_c, 9, 82, 31
1, 220080, Note_on_c, 9, 42, 73
1, 220080, Note_on_c, 10, 23, 74
1, 220080, Control_c, 13, 7, 29
1, 220095, Pitch_bend_c, 0, 7319
1, 220095, Pitch_bend_c, 1, 7319
1, 220095, Pitch_bend_c, 2, 7319
1, 220095, Pitch_bend_c, 3, 7319
1, 220140, Note_on_c, 10, 23, 0
1, 220140, Pitch_bend_c, 0, 7175
1, 220140, Pitch_bend_c, 1, 7175
1, 220140, Pitch_bend_c, 2, 7175
1, 220140, Pitch_bend_c, 3, 7175
1, 220140, Control_c, 13, 7, 26
1, 220160, Pitch_bend_c, 0, 6984
1, 220160, Pitch_bend_c, 1, 6984
1, 220160, Pitch_bend_c, 2, 6984
1, 220160, Pitch_bend_c, 3, 6984
1, 220190, Pitch_bend_c, 0, 6841
1, 220190, Pitch_bend_c, 1, 6841
1, 220190, Pitch_bend_c, 2, 6841
1, 220190, Pitch_bend_c, 3, 6841
1, 220200, Note_on_c, 9, 42, 0
1, 220200, Note_on_c, 9, 82, 0
1, 220200, Note_on_c, 9, 82, 39
1, 220200, Note_on_c, 10, 23, 84
1, 220200, Control_c, 13, 7, 24
1, 220220, Pitch_bend_c, 0, 6697
1, 220220, Pitch_bend_c, 1, 6697
1, 220220, Pitch_bend_c, 2, 6697
1, 220220, Pitch_bend_c, 3, 6697
1, 220260, Note_on_c, 10, 23, 0
1, 220260, Control_c, 13, 7, 21
1, 220300, Pitch_bend_c, 0, 6554
1, 220300, Pitch_bend_c, 1, 6554
1, 220300, Pitch_bend_c, 2, 6554
1, 220300, Pitch_bend_c, 3, 6554
1, 220320, Note_on_c, 3, 47, 0
1, 220320, Note_on_c, 3, 83, 0
1, 220320, Note_on_c, 1, 71, 0
1, 220320, Note_on_c, 0, 47, 0
1, 220320, Note_on_c, 1, 35, 0
1, 220320, Note_on_c, 9, 82, 0
1, 220320, Note_on_c, 2, 83, 0
1, 220320, Note_on_c, 2, 95, 0
1, 220320, Note_on_c, 1, 83, 0
1, 220320, Note_on_c, 2, 71, 0
1, 220320, Note_on_c, 2, 59, 0
1, 220320, Note_on_c, 0, 47, 95
1, 220320, Note_on_c, 1, 71, 95
1, 220320, Note_on_c, 1, 83, 64
1, 220320, Note_on_c, 1, 35, 95
1, 220320, Note_on_c, 2, 95, 64
1, 220320, Note_on_c, 2, 83, 64
1, 220320, Note_on_c, 2, 71, 127
1, 220320, Note_on_c, 2, 59, 95
1, 220320, Note_on_c, 3, 83, 64
1, 220320, Note_on_c, 3, 47, 64
1, 220320, Note_on_c, 9, 82, 40
1, 220320, Note_on_c, 9, 42, 73
1, 220320, Note_on_c, 9, 40, 92
1, 220320, Note_on_c, 9, 35, 104
1, 220320, Note_on_c, 9, 28, 102
1, 220320, Note_on_c, 10, 35, 127
1, 220320, Control_c, 13, 7, 19
1, 220350, Pitch_bend_c, 0, 6418
1, 220350, Pitch_bend_c, 1, 6418
1, 220350, Pitch_bend_c, 2, 6418
1, 220350, Pitch_bend_c, 3, 6418
1, 220365, Pitch_bend_c, 0, 6274
1, 220365, Pitch_bend_c, 1, 6274
1, 220365, Pitch_bend_c, 2, 6274
1, 220365, Pitch_bend_c, 3, 6274
1, 220380, Pitch_bend_c, 0, 6131
1, 220380, Pitch_bend_c, 1, 6131
1, 220380, Pitch_bend_c, 2, 6131
1, 220380, Pitch_bend_c, 3, 6131
1, 220380, Control_c, 13, 7, 17
1, 220400, Pitch_bend_c, 0, 5987
1, 220400, Pitch_bend_c, 1, 5987
1, 220400, Pitch_bend_c, 2, 5987
1, 220400, Pitch_bend_c, 3, 5987
1, 220415, Pitch_bend_c, 0, 5803
1, 220415, Pitch_bend_c, 1, 5803
1, 220415, Pitch_bend_c, 2, 5803
1, 220415, Pitch_bend_c, 3, 5803
1, 220430, Pitch_bend_c, 0, 5660
1, 220430, Pitch_bend_c, 1, 5660
1, 220430, Pitch_bend_c, 2, 5660
1, 220430, Pitch_bend_c, 3, 5660
1, 220440, Note_on_c, 9, 28, 0
1, 220440, Note_on_c, 9, 35, 0
1, 220440, Note_on_c, 9, 40, 0
1, 220440, Note_on_c, 9, 42, 0
1, 220440, Note_on_c, 9, 82, 0
1, 220440, Note_on_c, 9, 82, 25
1, 220440, Control_c, 13, 7, 15
1, 220445, Pitch_bend_c, 0, 5516
1, 220445, Pitch_bend_c, 1, 5516
1, 220445, Pitch_bend_c, 2, 5516
1, 220445, Pitch_bend_c, 3, 5516
1, 220460, Pitch_bend_c, 0, 5380
1, 220460, Pitch_bend_c, 1, 5380
1, 220460, Pitch_bend_c, 2, 5380
1, 220460, Pitch_bend_c, 3, 5380
1, 220480, Pitch_bend_c, 0, 5237
1, 220480, Pitch_bend_c, 1, 5237
1, 220480, Pitch_bend_c, 2, 5237
1, 220480, Pitch_bend_c, 3, 5237
1, 220500, Note_on_c, 10, 35, 0
1, 220500, Control_c, 13, 7, 13
1, 220510, Pitch_bend_c, 0, 5100
1, 220510, Pitch_bend_c, 1, 5100
1, 220510, Pitch_bend_c, 2, 5100
1, 220510, Pitch_bend_c, 3, 5100
1, 220560, Note_on_c, 3, 83, 0
1, 220560, Note_on_c, 2, 59, 0
1, 220560, Note_on_c, 1, 83, 0
1, 220560, Note_on_c, 1, 71, 0
1, 220560, Note_on_c, 0, 47, 0
1, 220560, Note_on_c, 9, 82, 0
1, 220560, Note_on_c, 2, 95, 0
1, 220560, Note_on_c, 1, 35, 0
1, 220560, Note_on_c, 2, 83, 0
1, 220560, Note_on_c, 2, 71, 0
1, 220560, Note_on_c, 3, 47, 0
1, 220560, Note_on_c, 0, 47, 95
1, 220560, Note_on_c, 1, 71, 95
1, 220560, Note_on_c, 1, 83, 64
1, 220560, Note_on_c, 1, 35, 95
1, 220560, Note_on_c, 2, 95, 64
1, 220560, Note_on_c, 2, 83, 64
1, 220560, Note_on_c, 2, 71, 127
1, 220560, Note_on_c, 2, 59, 95
1, 220560, Note_on_c, 3, 83, 64
1, 220560, Note_on_c, 3, 47, 64
1, 220560, Note_on_c, 9, 82, 11
1, 220560, Note_on_c, 9, 42, 73
1, 220560, Note_on_c, 10, 23, 103
1, 220560, Control_c, 13, 7, 11
1, 220575, Pitch_bend_c, 0, 4963
1, 220575, Pitch_bend_c, 1, 4963
1, 220575, Pitch_bend_c, 2, 4963
1, 220575, Pitch_bend_c, 3, 4963
1, 220590, Pitch_bend_c, 0, 4636
1, 220590, Pitch_bend_c, 1, 4636
1, 220590, Pitch_bend_c, 2, 4636
1, 220590, Pitch_bend_c, 3, 4636
1, 220605, Pitch_bend_c, 0, 4499
1, 220605, Pitch_bend_c, 1, 4499
1, 220605, Pitch_bend_c, 2, 4499
1, 220605, Pitch_bend_c, 3, 4499
1, 220620, Note_on_c, 10, 23, 0
1, 220620, Pitch_bend_c, 0, 4083
1, 220620, Pitch_bend_c, 1, 4083
1, 220620, Pitch_bend_c, 2, 4083
1, 220620, Pitch_bend_c, 3, 4083
1, 220620, Control_c, 13, 7, 9
1, 220640, Pitch_bend_c, 0, 3810
1, 220640, Pitch_bend_c, 1, 3810
1, 220640, Pitch_bend_c, 2, 3810
1, 220640, Pitch_bend_c, 3, 3810
1, 220655, Pitch_bend_c, 0, 3359
1, 220655, Pitch_bend_c, 1, 3359
1, 220655, Pitch_bend_c, 2, 3359
1, 220655, Pitch_bend_c, 3, 3359
1, 220670, Pitch_bend_c, 0, 3086
1, 220670, Pitch_bend_c, 1, 3086
1, 220670, Pitch_bend_c, 2, 3086
1, 220670, Pitch_bend_c, 3, 3086
1, 220680, Note_on_c, 9, 42, 0
1, 220680, Note_on_c, 9, 82, 0
1, 220680, Note_on_c, 9, 82, 11
1, 220680, Note_on_c, 10, 35, 127
1, 220680, Control_c, 13, 7, 8
1, 220685, Pitch_bend_c, 0, 2820
1, 220685, Pitch_bend_c, 1, 2820
1, 220685, Pitch_bend_c, 2, 2820
1, 220685, Pitch_bend_c, 3, 2820
1, 220700, Pitch_bend_c, 0, 2683
1, 220700, Pitch_bend_c, 1, 2683
1, 220700, Pitch_bend_c, 2, 2683
1, 220700, Pitch_bend_c, 3, 2683
1, 220720, Pitch_bend_c, 0, 2369
1, 220720, Pitch_bend_c, 1, 2369
1, 220720, Pitch_bend_c, 2, 2369
1, 220720, Pitch_bend_c, 3, 2369
1, 220735, Pitch_bend_c, 0, 2240
1, 220735, Pitch_bend_c, 1, 2240
1, 220735, Pitch_bend_c, 2, 2240
1, 220735, Pitch_bend_c, 3, 2240
1, 220740, Control_c, 13, 7, 6
1, 220765, Pitch_bend_c, 0, 2103
1, 220765, Pitch_bend_c, 1, 2103
1, 220765, Pitch_bend_c, 2, 2103
1, 220765, Pitch_bend_c, 3, 2103
1, 220800, Note_on_c, 10, 35, 0
1, 220800, Note_on_c, 3, 47, 0
1, 220800, Note_on_c, 3, 83, 0
1, 220800, Note_on_c, 13, 67, 0
1, 220800, Note_on_c, 13, 73, 0
1, 220800, Note_on_c, 1, 35, 0
1, 220800, Note_on_c, 13, 68, 0
1, 220800, Note_on_c, 13, 70, 0
1, 220800, Note_on_c, 13, 74, 0
1, 220800, Note_on_c, 13, 66, 0
1, 220800, Note_on_c, 13, 72, 0
1, 220800, Note_on_c, 13, 60, 0
1, 220800, Note_on_c, 13, 64, 0
1, 220800, Note_on_c, 13, 63, 0
1, 220800, Note_on_c, 13, 61, 0
1, 220800, Note_on_c, 13, 69, 0
1, 220800, Note_on_c, 9, 52, 0
1, 220800, Note_on_c, 2, 59, 0
1, 220800, Note_on_c, 2, 71, 0
1, 220800, Note_on_c, 2, 95, 0
1, 220800, Note_on_c, 9, 49, 0
1, 220800, Note_on_c, 0, 47, 0
1, 220800, Note_on_c, 13, 71, 0
1, 220800, Note_on_c, 13, 75, 0
1, 220800, Note_on_c, 13, 62, 0
1, 220800, Note_on_c, 9, 57, 0
1, 220800, Note_on_c, 2, 83, 0
1, 220800, Note_on_c, 1, 71, 0
1, 220800, Note_on_c, 1, 83, 0
1, 220800, Note_on_c, 9, 82, 0
1, 220800, Note_on_c, 13, 65, 0
1, 220800, Pitch_bend_c, 0, 8192
1, 220800, Note_on_c, 0, 35, 95
1, 220800, Pitch_bend_c, 1, 8192
1, 220800, Note_on_c, 1, 59, 95
1, 220800, Note_on_c, 1, 71, 64
1, 220800, Note_on_c, 1, 23, 95
1, 220800, Pitch_bend_c, 2, 8192
1, 220800, Note_on_c, 2, 83, 94
1, 220800, Note_on_c, 2, 71, 64
1, 220800, Note_on_c, 2, 59, 127
1, 220800, Note_on_c, 2, 47, 95
1, 220800, Pitch_bend_c, 3, 8192
1, 220800, Note_on_c, 3, 71, 64
1, 220800, Note_on_c, 3, 35, 64
1, 220800, Note_on_c, 9, 42, 103
1, 220800, Note_on_c, 9, 35, 103
1, 220800, Note_on_c, 9, 82, 18
1, 220800, Note_on_c, 10, 23, 127
1, 220800, Control_c, 13, 7, 0
1, 220920, Note_on_c, 9, 82, 0
1, 220920, Note_on_c, 9, 35, 0
1, 220920, Note_on_c, 9, 42, 0
1, 220920, Note_on_c, 9, 82, 18
1, 220980, Note_on_c, 10, 23, 0
1, 221040, Note_on_c, 9, 82, 0
1, 221040, Note_on_c, 9, 42, 73
1, 221040, Note_on_c, 9, 82, 31
1, 221040, Note_on_c, 10, 23, 93
1, 221100, Note_on_c, 10, 23, 0
1, 221160, Note_on_c, 2, 83, 0
1, 221160, Note_on_c, 1, 59, 0
1, 221160, Note_on_c, 3, 71, 0
1, 221160, Note_on_c, 1, 71, 0
1, 221160, Note_on_c, 1, 23, 0
1, 221160, Note_on_c, 0, 35, 0
1, 221160, Note_on_c, 2, 71, 0
1, 221160, Note_on_c, 9, 42, 0
1, 221160, Note_on_c, 3, 35, 0
1, 221160, Note_on_c, 2, 59, 0
1, 221160, Note_on_c, 9, 82, 0
1, 221160, Note_on_c, 2, 47, 0
1, 221160, Pitch_bend_c, 0, 0
1, 221160, Note_on_c, 0, 47, 95
1, 221160, Pitch_bend_c, 1, 0
1, 221160, Note_on_c, 1, 71, 95
1, 221160, Note_on_c, 1, 83, 64
1, 221160, Note_on_c, 1, 35, 95
1, 221160, Pitch_bend_c, 2, 0
1, 221160, Note_on_c, 2, 95, 64
1, 221160, Note_on_c, 2, 83, 64
1, 221160, Note_on_c, 2, 71, 127
1, 221160, Note_on_c, 2, 59, 95
1, 221160, Pitch_bend_c, 3, 0
1, 221160, Note_on_c, 3, 83, 64
1, 221160, Note_on_c, 3, 47, 64
1, 221160, Note_on_c, 9, 82, 39
1, 221160, Note_on_c, 10, 23, 75
1, 221175, Pitch_bend_c, 0, 8192
1, 221175, Pitch_bend_c, 1, 8192
1, 221175, Pitch_bend_c, 2, 8192
1, 221175, Pitch_bend_c, 3, 8192
1, 221220, Note_on_c, 10, 23, 0
1, 221280, Note_on_c, 1, 71, 0
1, 221280, Note_on_c, 2, 59, 0
1, 221280, Note_on_c, 1, 83, 0
1, 221280, Note_on_c, 1, 35, 0
1, 221280, Note_on_c, 0, 47, 0
1, 221280, Note_on_c, 2, 95, 0
1, 221280, Note_on_c, 2, 83, 0
1, 221280, Note_on_c, 3, 83, 0
1, 221280, Note_on_c, 2, 71, 0
1, 221280, Note_on_c, 9, 82, 0
1, 221280, Note_on_c, 3, 47, 0
1, 221280, Note_on_c, 9, 42, 73
1, 221280, Note_on_c, 9, 35, 102
1, 221280, Note_on_c, 9, 40, 89
1, 221280, Note_on_c, 9, 28, 103
1, 221280, Note_on_c, 9, 82, 40
1, 221280, Note_on_c, 10, 23, 68
1, 221340, Note_on_c, 10, 23, 0
1, 221400, Note_on_c, 9, 35, 0
1, 221400, Note_on_c, 9, 40, 0
1, 221400, Note_on_c, 9, 42, 0
1, 221400, Note_on_c, 9, 82, 0
1, 221400, Note_on_c, 9, 28, 0
1, 221400, Note_on_c, 9, 82, 25
1, 221400, Note_on_c, 10, 23, 75
1, 221460, Note_on_c, 10, 23, 0
1, 221520, Note_on_c, 9, 82, 0
1, 221520, Note_on_c, 0, 47, 95
1, 221520, Note_on_c, 1, 71, 95
1, 221520, Note_on_c, 1, 83, 64
1, 221520, Note_on_c, 1, 35, 95
1, 221520, Note_on_c, 2, 95, 64
1, 221520, Note_on_c, 2, 83, 64
1, 221520, Note_on_c, 2, 71, 127
1, 221520, Note_on_c, 2, 59, 95
1, 221520, Note_on_c, 3, 83, 64
1, 221520, Note_on_c, 3, 47, 64
1, 221520, Note_on_c, 9, 42, 73
1, 221520, Note_on_c, 9, 82, 11
1, 221520, Note_on_c, 10, 23, 99
1, 221580, Note_on_c, 10, 23, 0
1, 221640, Note_on_c, 9, 82, 0
1, 221640, Note_on_c, 9, 42, 0
1, 221640, Note_on_c, 9, 82, 11
1, 221640, Note_on_c, 10, 23, 127
1, 221760, Note_on_c, 9, 82, 0
1, 221760, Note_on_c, 2, 59, 0
1, 221760, Note_on_c, 3, 83, 0
1, 221760, Note_on_c, 1, 83, 0
1, 221760, Note_on_c, 1, 35, 0
1, 221760, Note_on_c, 2, 71, 0
1, 221760, Note_on_c, 2, 95, 0
1, 221760, Note_on_c, 2, 83, 0
1, 221760, Note_on_c, 3, 47, 0
1, 221760, Note_on_c, 0, 47, 0
1, 221760, Note_on_c, 1, 71, 0
1, 221760, Note_on_c, 9, 42, 88
1, 221760, Note_on_c, 9, 35, 102
1, 221760, Note_on_c, 9, 82, 18
1, 221820, Note_on_c, 10, 23, 0
1, 221880, Note_on_c, 9, 42, 0
1, 221880, Note_on_c, 9, 35, 0
1, 221880, Note_on_c, 9, 82, 0
1, 221880, Note_on_c, 0, 43, 95
1, 221880, Note_on_c, 1, 67, 95
1, 221880, Note_on_c, 1, 79, 64
1, 221880, Note_on_c, 1, 31, 95
1, 221880, Note_on_c, 2, 91, 64
1, 221880, Note_on_c, 2, 79, 64
1, 221880, Note_on_c, 2, 67, 127
1, 221880, Note_on_c, 2, 55, 95
1, 221880, Note_on_c, 3, 79, 64
1, 221880, Note_on_c, 3, 43, 64
1, 221880, Note_on_c, 9, 82, 18
1, 221880, Note_on_c, 10, 23, 93
1, 221940, Note_on_c, 10, 23, 0
1, 222000, Note_on_c, 1, 67, 0
1, 222000, Note_on_c, 2, 55, 0
1, 222000, Note_on_c, 1, 79, 0
1, 222000, Note_on_c, 1, 31, 0
1, 222000, Note_on_c, 0, 43, 0
1, 222000, Note_on_c, 2, 91, 0
1, 222000, Note_on_c, 2, 79, 0
1, 222000, Note_on_c, 3, 79, 0
1, 222000, Note_on_c, 2, 67, 0
1, 222000, Note_on_c, 9, 82, 0
1, 222000, Note_on_c, 3, 43, 0
1, 222000, Pitch_bend_c, 0, 5100
1, 222000, Note_on_c, 0, 47, 95
1, 222000, Pitch_bend_c, 1, 5100
1, 222000, Note_on_c, 1, 71, 95
1, 222000, Note_on_c, 1, 83, 64
1, 222000, Note_on_c, 1, 35, 95
1, 222000, Pitch_bend_c, 2, 5100
1, 222000, Note_on_c, 2, 95, 64
1, 222000, Note_on_c, 2, 83, 64
1, 222000, Note_on_c, 2, 71, 127
1, 222000, Note_on_c, 2, 59, 95
1, 222000, Pitch_bend_c, 3, 5100
1, 222000, Note_on_c, 3, 83, 64
1, 222000, Note_on_c, 3, 47, 64
1, 222000, Note_on_c, 9, 42, 73
1, 222000, Note_on_c, 9, 82, 31
1, 222000, Note_on_c, 10, 23, 75
1, 222015, Pitch_bend_c, 0, 6697
1, 222015, Pitch_bend_c, 1, 6697
1, 222015, Pitch_bend_c, 2, 6697
1, 222015, Pitch_bend_c, 3, 6697
1, 222060, Note_on_c, 10, 23, 0
1, 222080, Pitch_bend_c, 0, 6841
1, 222080, Pitch_bend_c, 1, 6841
1, 222080, Pitch_bend_c, 2, 6841
1, 222080, Pitch_bend_c, 3, 6841
1, 222110, Pitch_bend_c, 0, 6984
1, 222110, Pitch_bend_c, 1, 6984
1, 222110, Pitch_bend_c, 2, 6984
1, 222110, Pitch_bend_c, 3, 6984
1, 222120, Note_on_c, 9, 82, 0
1, 222120, Note_on_c, 9, 42, 0
1, 222120, Note_on_c, 9, 82, 39
1, 222120, Note_on_c, 10, 23, 59
1, 222125, Pitch_bend_c, 0, 7175
1, 222125, Pitch_bend_c, 1, 7175
1, 222125, Pitch_bend_c, 2, 7175
1, 222125, Pitch_bend_c, 3, 7175
1, 222140, Pitch_bend_c, 0, 7319
1, 222140, Pitch_bend_c, 1, 7319
1, 222140, Pitch_bend_c, 2, 7319
1, 222140, Pitch_bend_c, 3, 7319
1, 222160, Pitch_bend_c, 0, 7612
1, 222160, Pitch_bend_c, 1, 7612
1, 222160, Pitch_bend_c, 2, 7612
1, 222160, Pitch_bend_c, 3, 7612
1, 222175, Pitch_bend_c, 0, 7756
1, 222175, Pitch_bend_c, 1, 7756
1, 222175, Pitch_bend_c, 2, 7756
1, 222175, Pitch_bend_c, 3, 7756
1, 222180, Note_on_c, 10, 23, 0
1, 222190, Pitch_bend_c, 0, 7899
1, 222190, Pitch_bend_c, 1, 7899
1, 222190, Pitch_bend_c, 2, 7899
1, 222190, Pitch_bend_c, 3, 7899
1, 222205, Pitch_bend_c, 0, 8049
1, 222205, Pitch_bend_c, 1, 8049
1, 222205, Pitch_bend_c, 2, 8049
1, 222205, Pitch_bend_c, 3, 8049
1, 222220, Pitch_bend_c, 0, 8192
1, 222220, Pitch_bend_c, 1, 8192
1, 222220, Pitch_bend_c, 2, 8192
1, 222220, Pitch_bend_c, 3, 8192
1, 222240, Note_on_c, 2, 83, 0
1, 222240, Note_on_c, 3, 83, 0
1, 222240, Note_on_c, 1, 83, 0
1, 222240, Note_on_c, 1, 35, 0
1, 222240, Note_on_c, 0, 47, 0
1, 222240, Note_on_c, 2, 95, 0
1, 222240, Note_on_c, 1, 71, 0
1, 222240, Note_on_c, 3, 47, 0
1, 222240, Note_on_c, 2, 71, 0
1, 222240, Note_on_c, 9, 82, 0
1, 222240, Note_on_c, 2, 59, 0
1, 222240, Note_on_c, 0, 47, 95
1, 222240, Note_on_c, 1, 71, 95
1, 222240, Note_on_c, 1, 83, 64
1, 222240, Note_on_c, 1, 35, 95
1, 222240, Note_on_c, 2, 95, 64
1, 222240, Note_on_c, 2, 83, 64
1, 222240, Note_on_c, 2, 71, 127
1, 222240, Note_on_c, 2, 59, 95
1, 222240, Note_on_c, 3, 83, 64
1, 222240, Note_on_c, 3, 47, 64
1, 222240, Note_on_c, 9, 42, 73
1, 222240, Note_on_c, 9, 40, 90
1, 222240, Note_on_c, 9, 35, 103
1, 222240, Note_on_c, 9, 28, 103
1, 222240, Note_on_c, 9, 82, 40
1, 222240, Note_on_c, 10, 23, 58
1, 222300, Note_on_c, 10, 23, 0
1, 222360, Note_on_c, 9, 82, 0
1, 222360, Note_on_c, 9, 40, 0
1, 222360, Note_on_c, 9, 28, 0
1, 222360, Note_on_c, 9, 42, 0
1, 222360, Note_on_c, 9, 35, 0
1, 222360, Note_on_c, 9, 82, 25
1, 222360, Note_on_c, 10, 23, 72
1, 222420, Note_on_c, 10, 23, 0
1, 222480, Note_on_c, 2, 95, 0
1, 222480, Note_on_c, 3, 83, 0
1, 222480, Note_on_c, 1, 83, 0
1, 222480, Note_on_c, 1, 35, 0
1, 222480, Note_on_c, 2, 71, 0
1, 222480, Note_on_c, 2, 83, 0
1, 222480, Note_on_c, 1, 71, 0
1, 222480, Note_on_c, 0, 47, 0
1, 222480, Note_on_c, 3, 47, 0
1, 222480, Note_on_c, 9, 82, 0
1, 222480, Note_on_c, 2, 59, 0
1, 222480, Note_on_c, 0, 47, 95
1, 222480, Note_on_c, 1, 71, 95
1, 222480, Note_on_c, 1, 83, 64
1, 222480, Note_on_c, 1, 35, 95
1, 222480, Note_on_c, 2, 95, 64
1, 222480, Note_on_c, 2, 83, 64
1, 222480, Note_on_c, 2, 71, 127
1, 222480, Note_on_c, 2, 59, 95
1, 222480, Note_on_c, 3, 83, 64
1, 222480, Note_on_c, 3, 47, 64
1, 222480, Note_on_c, 9, 42, 73
1, 222480, Note_on_c, 9, 82, 11
1, 222480, Note_on_c, 10, 23, 91
1, 222510, Pitch_bend_c, 0, 8335
1, 222510, Pitch_bend_c, 1, 8335
1, 222510, Pitch_bend_c, 2, 8335
1, 222510, Pitch_bend_c, 3, 8335
1, 222540, Note_on_c, 10, 23, 0
1, 222560, Pitch_bend_c, 0, 8485
1, 222560, Pitch_bend_c, 1, 8485
1, 222560, Pitch_bend_c, 2, 8485
1, 222560, Pitch_bend_c, 3, 8485
1, 222575, Pitch_bend_c, 0, 8628
1, 222575, Pitch_bend_c, 1, 8628
1, 222575, Pitch_bend_c, 2, 8628
1, 222575, Pitch_bend_c, 3, 8628
1, 222590, Pitch_bend_c, 0, 8772
1, 222590, Pitch_bend_c, 1, 8772
1, 222590, Pitch_bend_c, 2, 8772
1, 222590, Pitch_bend_c, 3, 8772
1, 222600, Note_on_c, 9, 82, 0
1, 222600, Note_on_c, 9, 42, 0
1, 222600, Note_on_c, 9, 82, 11
1, 222600, Note_on_c, 10, 23, 127
1, 222605, Pitch_bend_c, 0, 9065
1, 222605, Pitch_bend_c, 1, 9065
1, 222605, Pitch_bend_c, 2, 9065
1, 222605, Pitch_bend_c, 3, 9065
1, 222620, Pitch_bend_c, 0, 9400
1, 222620, Pitch_bend_c, 1, 9400
1, 222620, Pitch_bend_c, 2, 9400
1, 222620, Pitch_bend_c, 3, 9400
1, 222640, Pitch_bend_c, 0, 9543
1, 222640, Pitch_bend_c, 1, 9543
1, 222640, Pitch_bend_c, 2, 9543
1, 222640, Pitch_bend_c, 3, 9543
1, 222655, Pitch_bend_c, 0, 9830
1, 222655, Pitch_bend_c, 1, 9830
1, 222655, Pitch_bend_c, 2, 9830
1, 222655, Pitch_bend_c, 3, 9830
1, 222670, Pitch_bend_c, 0, 10110
1, 222670, Pitch_bend_c, 1, 10110
1, 222670, Pitch_bend_c, 2, 10110
1, 222670, Pitch_bend_c, 3, 10110
1, 222685, Pitch_bend_c, 0, 10253
1, 222685, Pitch_bend_c, 1, 10253
1, 222685, Pitch_bend_c, 2, 10253
1, 222685, Pitch_bend_c, 3, 10253
1, 222700, Pitch_bend_c, 0, 10397
1, 222700, Pitch_bend_c, 1, 10397
1, 222700, Pitch_bend_c, 2, 10397
1, 222700, Pitch_bend_c, 3, 10397
1, 222720, Note_on_c, 9, 82, 0
1, 222720, Note_on_c, 2, 59, 0
1, 222720, Note_on_c, 3, 83, 0
1, 222720, Note_on_c, 1, 83, 0
1, 222720, Note_on_c, 1, 35, 0
1, 222720, Note_on_c, 2, 71, 0
1, 222720, Note_on_c, 2, 95, 0
1, 222720, Note_on_c, 2, 83, 0
1, 222720, Note_on_c, 3, 47, 0
1, 222720, Note_on_c, 0, 47, 0
1, 222720, Note_on_c, 1, 71, 0
1, 222720, Pitch_bend_c, 0, 12165
1, 222720, Note_on_c, 0, 35, 95
1, 222720, Pitch_bend_c, 1, 12165
1, 222720, Note_on_c, 1, 59, 95
1, 222720, Note_on_c, 1, 71, 64
1, 222720, Note_on_c, 1, 23, 95
1, 222720, Pitch_bend_c, 2, 12165
1, 222720, Note_on_c, 2, 83, 64
1, 222720, Note_on_c, 2, 71, 64
1, 222720, Note_on_c, 2, 59, 127
1, 222720, Note_on_c, 2, 47, 95
1, 222720, Pitch_bend_c, 3, 12165
1, 222720, Note_on_c, 3, 71, 64
1, 222720, Note_on_c, 3, 35, 64
1, 222720, Note_on_c, 9, 82, 18
1, 222720, Note_on_c, 9, 42, 103
1, 222720, Note_on_c, 9, 35, 103
1, 222720, Control_c, 13, 7, 0
1, 222720, Pitch_bend_c, 13, 8192
1, 222720, Note_on_c, 13, 75, 63
1, 222720, Note_on_c, 13, 74, 63
1, 222720, Note_on_c, 13, 73, 63
1, 222720, Note_on_c, 13, 72, 63
1, 222720, Note_on_c, 13, 60, 63
1, 222720, Note_on_c, 13, 71, 63
1, 222720, Note_on_c, 13, 70, 63
1, 222720, Note_on_c, 13, 69, 63
1, 222720, Note_on_c, 13, 68, 63
1, 222720, Note_on_c, 13, 67, 63
1, 222720, Note_on_c, 13, 66, 63
1, 222720, Note_on_c, 13, 65, 63
1, 222720, Note_on_c, 13, 64, 63
1, 222720, Note_on_c, 13, 62, 63
1, 222720, Note_on_c, 13, 63, 63
1, 222720, Note_on_c, 13, 61, 63
1, 222735, Pitch_bend_c, 0, 8192
1, 222735, Pitch_bend_c, 1, 8192
1, 222735, Pitch_bend_c, 2, 8192
1, 222735, Pitch_bend_c, 3, 8192
1, 222840, Note_on_c, 9, 35, 0
1, 222840, Note_on_c, 9, 42, 0
1, 222840, Note_on_c, 10, 23, 0
1, 222840, Note_on_c, 9, 82, 0
1, 222840, Note_on_c, 9, 82, 18
1, 222840, Note_on_c, 10, 23, 79
1, 222900, Note_on_c, 10, 23, 0
1, 222960, Note_on_c, 9, 82, 0
1, 222960, Note_on_c, 9, 82, 31
1, 222960, Note_on_c, 9, 42, 73
1, 222960, Note_on_c, 10, 23, 64
1, 223020, Note_on_c, 10, 23, 0
1, 223080, Note_on_c, 3, 35, 0
1, 223080, Note_on_c, 2, 83, 0
1, 223080, Note_on_c, 0, 35, 0
1, 223080, Note_on_c, 1, 23, 0
1, 223080, Note_on_c, 3, 71, 0
1, 223080, Note_on_c, 1, 71, 0
1, 223080, Note_on_c, 2, 47, 0
1, 223080, Note_on_c, 9, 42, 0
1, 223080, Note_on_c, 1, 59, 0
1, 223080, Note_on_c, 2, 71, 0
1, 223080, Note_on_c, 9, 82, 0
1, 223080, Note_on_c, 2, 59, 0
1, 223080, Pitch_bend_c, 0, 0
1, 223080, Note_on_c, 0, 47, 95
1, 223080, Pitch_bend_c, 1, 0
1, 223080, Note_on_c, 1, 71, 95
1, 223080, Note_on_c, 1, 83, 64
1, 223080, Note_on_c, 1, 35, 95
1, 223080, Pitch_bend_c, 2, 0
1, 223080, Note_on_c, 2, 95, 64
1, 223080, Note_on_c, 2, 83, 64
1, 223080, Note_on_c, 2, 71, 127
1, 223080, Note_on_c, 2, 59, 95
1, 223080, Pitch_bend_c, 3, 0
1, 223080, Note_on_c, 3, 83, 64
1, 223080, Note_on_c, 3, 47, 64
1, 223080, Note_on_c, 9, 82, 39
1, 223080, Note_on_c, 10, 23, 62
1, 223095, Pitch_bend_c, 0, 8192
1, 223095, Pitch_bend_c, 1, 8192
1, 223095, Pitch_bend_c, 2, 8192
1, 223095, Pitch_bend_c, 3, 8192
1, 223140, Note_on_c, 10, 23, 0
1, 223200, Note_on_c, 2, 83, 0
1, 223200, Note_on_c, 2, 71, 0
1, 223200, Note_on_c, 0, 47, 0
1, 223200, Note_on_c, 2, 95, 0
1, 223200, Note_on_c, 1, 71, 0
1, 223200, Note_on_c, 1, 35, 0
1, 223200, Note_on_c, 1, 83, 0
1, 223200, Note_on_c, 9, 82, 0
1, 223200, Note_on_c, 3, 83, 0
1, 223200, Note_on_c, 2, 59, 0
1, 223200, Note_on_c, 3, 47, 0
1, 223200, Note_on_c, 9, 82, 40
1, 223200, Note_on_c, 9, 42, 73
1, 223200, Note_on_c, 9, 40, 91
1, 223200, Note_on_c, 9, 35, 103
1, 223200, Note_on_c, 9, 28, 102
1, 223200, Note_on_c, 10, 23, 66
1, 223260, Note_on_c, 10, 23, 0
1, 223320, Note_on_c, 9, 28, 0
1, 223320, Note_on_c, 9, 82, 0
1, 223320, Note_on_c, 9, 35, 0
1, 223320, Note_on_c, 9, 42, 0
1, 223320, Note_on_c, 9, 40, 0
1, 223320, Note_on_c, 9, 82, 25
1, 223320, Note_on_c, 10, 23, 91
1, 223380, Note_on_c, 10, 23, 0
1, 223440, Note_on_c, 9, 82, 0
1, 223440, Note_on_c, 0, 47, 95
1, 223440, Note_on_c, 1, 71, 95
1, 223440, Note_on_c, 1, 83, 64
1, 223440, Note_on_c, 1, 35, 95
1, 223440, Note_on_c, 2, 95, 64
1, 223440, Note_on_c, 2, 83, 64
1, 223440, Note_on_c, 2, 71, 127
1, 223440, Note_on_c, 2, 59, 95
1, 223440, Note_on_c, 3, 83, 64
1, 223440, Note_on_c, 3, 47, 64
1, 223440, Note_on_c, 9, 82, 11
1, 223440, Note_on_c, 9, 42, 73
1, 223440, Note_on_c, 10, 23, 98
1, 223500, Note_on_c, 10, 23, 0
1, 223560, Note_on_c, 9, 42, 0
1, 223560, Note_on_c, 9, 82, 0
1, 223560, Note_on_c, 9, 82, 11
1, 223560, Note_on_c, 10, 23, 127
1, 223680, Note_on_c, 9, 82, 0
1, 223680, Note_on_c, 0, 47, 0
1, 223680, Note_on_c, 2, 71, 0
1, 223680, Note_on_c, 2, 95, 0
1, 223680, Note_on_c, 1, 71, 0
1, 223680, Note_on_c, 1, 35, 0
1, 223680, Note_on_c, 1, 83, 0
1, 223680, Note_on_c, 2, 83, 0
1, 223680, Note_on_c, 3, 83, 0
1, 223680, Note_on_c, 2, 59, 0
1, 223680, Note_on_c, 3, 47, 0
1, 223680, Note_on_c, 0, 47, 95
1, 223680, Note_on_c, 1, 71, 95
1, 223680, Note_on_c, 1, 83, 64
1, 223680, Note_on_c, 1, 35, 95
1, 223680, Note_on_c, 2, 95, 64
1, 223680, Note_on_c, 2, 83, 64
1, 223680, Note_on_c, 2, 71, 127
1, 223680, Note_on_c, 2, 59, 95
1, 223680, Note_on_c, 3, 83, 64
1, 223680, Note_on_c, 3, 47, 64
1, 223680, Note_on_c, 9, 82, 18
1, 223680, Note_on_c, 9, 42, 88
1, 223680, Note_on_c, 9, 35, 104
1, 223710, Pitch_bend_c, 0, 8049
1, 223710, Pitch_bend_c, 1, 8049
1, 223710, Pitch_bend_c, 2, 8049
1, 223710, Pitch_bend_c, 3, 8049
1, 223740, Note_on_c, 10, 23, 0
1, 223740, Pitch_bend_c, 0, 7899
1, 223740, Pitch_bend_c, 1, 7899
1, 223740, Pitch_bend_c, 2, 7899
1, 223740, Pitch_bend_c, 3, 7899
1, 223775, Pitch_bend_c, 0, 7756
1, 223775, Pitch_bend_c, 1, 7756
1, 223775, Pitch_bend_c, 2, 7756
1, 223775, Pitch_bend_c, 3, 7756
1, 223800, Note_on_c, 9, 35, 0
1, 223800, Note_on_c, 9, 42, 0
1, 223800, Note_on_c, 9, 82, 0
1, 223800, Note_on_c, 9, 82, 18
1, 223800, Note_on_c, 10, 23, 66
1, 223805, Pitch_bend_c, 0, 7612
1, 223805, Pitch_bend_c, 1, 7612
1, 223805, Pitch_bend_c, 2, 7612
1, 223805, Pitch_bend_c, 3, 7612
1, 223840, Pitch_bend_c, 0, 7469
1, 223840, Pitch_bend_c, 1, 7469
1, 223840, Pitch_bend_c, 2, 7469
1, 223840, Pitch_bend_c, 3, 7469
1, 223860, Note_on_c, 10, 23, 0
1, 223860, Note_on_c, 0, 47, 0
1, 223860, Note_on_c, 2, 95, 0
1, 223860, Note_on_c, 1, 71, 0
1, 223860, Note_on_c, 1, 35, 0
1, 223860, Note_on_c, 1, 83, 0
1, 223860, Note_on_c, 2, 83, 0
1, 223860, Note_on_c, 2, 59, 0
1, 223860, Note_on_c, 2, 71, 0
1, 223860, Note_on_c, 3, 83, 0
1, 223860, Note_on_c, 3, 47, 0
1, 223920, Note_on_c, 9, 82, 0
1, 223920, Note_on_c, 0, 47, 95
1, 223920, Note_on_c, 1, 71, 95
1, 223920, Note_on_c, 1, 83, 64
1, 223920, Note_on_c, 1, 35, 95
1, 223920, Note_on_c, 2, 95, 64
1, 223920, Note_on_c, 2, 83, 64
1, 223920, Note_on_c, 2, 71, 127
1, 223920, Note_on_c, 2, 59, 95
1, 223920, Note_on_c, 3, 83, 64
1, 223920, Note_on_c, 3, 47, 64
1, 223920, Note_on_c, 9, 82, 31
1, 223920, Note_on_c, 9, 42, 73
1, 223920, Note_on_c, 10, 23, 74
1, 223935, Pitch_bend_c, 0, 7319
1, 223935, Pitch_bend_c, 1, 7319
1, 223935, Pitch_bend_c, 2, 7319
1, 223935, Pitch_bend_c, 3, 7319
1, 223980, Note_on_c, 10, 23, 0
1, 223980, Pitch_bend_c, 0, 7175
1, 223980, Pitch_bend_c, 1, 7175
1, 223980, Pitch_bend_c, 2, 7175
1, 223980, Pitch_bend_c, 3, 7175
1, 224000, Pitch_bend_c, 0, 6984
1, 224000, Pitch_bend_c, 1, 6984
1, 224000, Pitch_bend_c, 2, 6984
1, 224000, Pitch_bend_c, 3, 6984
1, 224030, Pitch_bend_c, 0, 6841
1, 224030, Pitch_bend_c, 1, 6841
1, 224030, Pitch_bend_c, 2, 6841
1, 224030, Pitch_bend_c, 3, 6841
1, 224040, Note_on_c, 9, 42, 0
1, 224040, Note_on_c, 9, 82, 0
1, 224040, Note_on_c, 9, 82, 39
1, 224040, Note_on_c, 10, 23, 84
1, 224060, Pitch_bend_c, 0, 6697
1, 224060, Pitch_bend_c, 1, 6697
1, 224060, Pitch_bend_c, 2, 6697
1, 224060, Pitch_bend_c, 3, 6697
1, 224100, Note_on_c, 10, 23, 0
1, 224140, Pitch_bend_c, 0, 6554
1, 224140, Pitch_bend_c, 1, 6554
1, 224140, Pitch_bend_c, 2, 6554
1, 224140, Pitch_bend_c, 3, 6554
1, 224160, Note_on_c, 0, 47, 0
1, 224160, Note_on_c, 2, 71, 0
1, 224160, Note_on_c, 2, 95, 0
1, 224160, Note_on_c, 1, 71, 0
1, 224160, Note_on_c, 1, 35, 0
1, 224160, Note_on_c, 1, 83, 0
1, 224160, Note_on_c, 9, 82, 0
1, 224160, Note_on_c, 3, 83, 0
1, 224160, Note_on_c, 2, 59, 0
1, 224160, Note_on_c, 2, 83, 0
1, 224160, Note_on_c, 3, 47, 0
1, 224160, Note_on_c, 0, 47, 95
1, 224160, Note_on_c, 1, 71, 95
1, 224160, Note_on_c, 1, 83, 64
1, 224160, Note_on_c, 1, 35, 95
1, 224160, Note_on_c, 2, 95, 64
1, 224160, Note_on_c, 2, 83, 64
1, 224160, Note_on_c, 2, 71, 127
1, 224160, Note_on_c, 2, 59, 95
1, 224160, Note_on_c, 3, 83, 64
1, 224160, Note_on_c, 3, 47, 64
1, 224160, Note_on_c, 9, 82, 40
1, 224160, Note_on_c, 9, 42, 73
1, 224160, Note_on_c, 9, 40, 92
1, 224160, Note_on_c, 9, 35, 104
1, 224160, Note_on_c, 9, 28, 102
1, 224160, Note_on_c, 10, 35, 127
1, 224190, Pitch_bend_c, 0, 6418
1, 224190, Pitch_bend_c, 1, 6418
1, 224190, Pitch_bend_c, 2, 6418
1, 224190, Pitch_bend_c, 3, 6418
1, 224205, Pitch_bend_c, 0, 6274
1, 224205, Pitch_bend_c, 1, 6274
1, 224205, Pitch_bend_c, 2, 6274
1, 224205, Pitch_bend_c, 3, 6274
1, 224220, Pitch_bend_c, 0, 6131
1, 224220, Pitch_bend_c, 1, 6131
1, 224220, Pitch_bend_c, 2, 6131
1, 224220, Pitch_bend_c, 3, 6131
1, 224240, Pitch_bend_c, 0, 5987
1, 224240, Pitch_bend_c, 1, 5987
1, 224240, Pitch_bend_c, 2, 5987
1, 224240, Pitch_bend_c, 3, 5987
1, 224255, Pitch_bend_c, 0, 5803
1, 224255, Pitch_bend_c, 1, 5803
1, 224255, Pitch_bend_c, 2, 5803
1, 224255, Pitch_bend_c, 3, 5803
1, 224270, Pitch_bend_c, 0, 5660
1, 224270, Pitch_bend_c, 1, 5660
1, 224270, Pitch_bend_c, 2, 5660
1, 224270, Pitch_bend_c, 3, 5660
1, 224280, Note_on_c, 9, 28, 0
1, 224280, Note_on_c, 9, 35, 0
1, 224280, Note_on_c, 9, 40, 0
1, 224280, Note_on_c, 9, 42, 0
1, 224280, Note_on_c, 9, 82, 0
1, 224280, Note_on_c, 9, 82, 25
1, 224285, Pitch_bend_c, 0, 5516
1, 224285, Pitch_bend_c, 1, 5516
1, 224285, Pitch_bend_c, 2, 5516
1, 224285, Pitch_bend_c, 3, 5516
1, 224300, Pitch_bend_c, 0, 5380
1, 224300, Pitch_bend_c, 1, 5380
1, 224300, Pitch_bend_c, 2, 5380
1, 224300, Pitch_bend_c, 3, 5380
1, 224320, Pitch_bend_c, 0, 5237
1, 224320, Pitch_bend_c, 1, 5237
1, 224320, Pitch_bend_c, 2, 5237
1, 224320, Pitch_bend_c, 3, 5237
1, 224340, Note_on_c, 10, 35, 0
1, 224350, Pitch_bend_c, 0, 5100
1, 224350, Pitch_bend_c, 1, 5100
1, 224350, Pitch_bend_c, 2, 5100
1, 224350, Pitch_bend_c, 3, 5100
1, 224400, Note_on_c, 2, 83, 0
1, 224400, Note_on_c, 0, 47, 0
1, 224400, Note_on_c, 2, 95, 0
1, 224400, Note_on_c, 1, 71, 0
1, 224400, Note_on_c, 1, 35, 0
1, 224400, Note_on_c, 1, 83, 0
1, 224400, Note_on_c, 9, 82, 0
1, 224400, Note_on_c, 2, 59, 0
1, 224400, Note_on_c, 2, 71, 0
1, 224400, Note_on_c, 3, 83, 0
1, 224400, Note_on_c, 3, 47, 0
1, 224400, Note_on_c, 0, 47, 95
1, 224400, Note_on_c, 1, 71, 95
1, 224400, Note_on_c, 1, 83, 64
1, 224400, Note_on_c, 1, 35, 95
1, 224400, Note_on_c, 2, 95, 64
1, 224400, Note_on_c, 2, 83, 64
1, 224400, Note_on_c, 2, 71, 127
1, 224400, Note_on_c, 2, 59, 95
1, 224400, Note_on_c, 3, 83, 64
1, 224400, Note_on_c, 3, 47, 64
1, 224400, Note_on_c, 9, 82, 11
1, 224400, Note_on_c, 9, 42, 73
1, 224400, Note_on_c, 10, 23, 103
1, 224415, Pitch_bend_c, 0, 4963
1, 224415, Pitch_bend_c, 1, 4963
1, 224415, Pitch_bend_c, 2, 4963
1, 224415, Pitch_bend_c, 3, 4963
1, 224430, Pitch_bend_c, 0, 4636
1, 224430, Pitch_bend_c, 1, 4636
1, 224430, Pitch_bend_c, 2, 4636
1, 224430, Pitch_bend_c, 3, 4636
1, 224445, Pitch_bend_c, 0, 4499
1, 224445, Pitch_bend_c, 1, 4499
1, 224445, Pitch_bend_c, 2, 4499
1, 224445, Pitch_bend_c, 3, 4499
1, 224460, Note_on_c, 10, 23, 0
1, 224460, Pitch_bend_c, 0, 4083
1, 224460, Pitch_bend_c, 1, 4083
1, 224460, Pitch_bend_c, 2, 4083
1, 224460, Pitch_bend_c, 3, 4083
1, 224480, Pitch_bend_c, 0, 3810
1, 224480, Pitch_bend_c, 1, 3810
1, 224480, Pitch_bend_c, 2, 3810
1, 224480, Pitch_bend_c, 3, 3810
1, 224495, Pitch_bend_c, 0, 3359
1, 224495, Pitch_bend_c, 1, 3359
1, 224495, Pitch_bend_c, 2, 3359
1, 224495, Pitch_bend_c, 3, 3359
1, 224510, Pitch_bend_c, 0, 3086
1, 224510, Pitch_bend_c, 1, 3086
1, 224510, Pitch_bend_c, 2, 3086
1, 224510, Pitch_bend_c, 3, 3086
1, 224520, Note_on_c, 9, 42, 0
1, 224520, Note_on_c, 9, 82, 0
1, 224520, Note_on_c, 9, 82, 11
1, 224520, Note_on_c, 10, 35, 127
1, 224525, Pitch_bend_c, 0, 2820
1, 224525, Pitch_bend_c, 1, 2820
1, 224525, Pitch_bend_c, 2, 2820
1, 224525, Pitch_bend_c, 3, 2820
1, 224540, Pitch_bend_c, 0, 2683
1, 224540, Pitch_bend_c, 1, 2683
1, 224540, Pitch_bend_c, 2, 2683
1, 224540, Pitch_bend_c, 3, 2683
1, 224560, Pitch_bend_c, 0, 2369
1, 224560, Pitch_bend_c, 1, 2369
1, 224560, Pitch_bend_c, 2, 2369
1, 224560, Pitch_bend_c, 3, 2369
1, 224575, Pitch_bend_c, 0, 2240
1, 224575, Pitch_bend_c, 1, 2240
1, 224575, Pitch_bend_c, 2, 2240
1, 224575, Pitch_bend_c, 3, 2240
1, 224605, Pitch_bend_c, 0, 2103
1, 224605, Pitch_bend_c, 1, 2103
1, 224605, Pitch_bend_c, 2, 2103
1, 224605, Pitch_bend_c, 3, 2103
1, 224640, Note_on_c, 10, 35, 0
1, 224640, Note_on_c, 0, 47, 0
1, 224640, Note_on_c, 2, 71, 0
1, 224640, Note_on_c, 2, 95, 0
1, 224640, Note_on_c, 1, 71, 0
1, 224640, Note_on_c, 1, 35, 0
1, 224640, Note_on_c, 1, 83, 0
1, 224640, Note_on_c, 9, 82, 0
1, 224640, Note_on_c, 3, 83, 0
1, 224640, Note_on_c, 2, 59, 0
1, 224640, Note_on_c, 2, 83, 0
1, 224640, Note_on_c, 3, 47, 0
1, 224640, Pitch_bend_c, 0, 8192
1, 224640, Note_on_c, 0, 35, 95
1, 224640, Pitch_bend_c, 1, 8192
1, 224640, Note_on_c, 1, 59, 95
1, 224640, Note_on_c, 1, 71, 64
1, 224640, Note_on_c, 1, 23, 95
1, 224640, Pitch_bend_c, 2, 8192
1, 224640, Note_on_c, 2, 83, 94
1, 224640, Note_on_c, 2, 71, 64
1, 224640, Note_on_c, 2, 59, 127
1, 224640, Note_on_c, 2, 47, 95
1, 224640, Pitch_bend_c, 3, 8192
1, 224640, Note_on_c, 3, 71, 64
1, 224640, Note_on_c, 3, 35, 64
1, 224640, Note_on_c, 9, 57, 103
1, 224640, Note_on_c, 9, 52, 127
1, 224640, Note_on_c, 9, 49, 103
1, 224640, Note_on_c, 9, 42, 103
1, 224640, Note_on_c, 9, 35, 103
1, 224640, Note_on_c, 9, 82, 18
1, 224640, Note_on_c, 10, 23, 127
1, 224640, Control_c, 13, 7, 127
1, 224700, Control_c, 13, 7, 127
1, 224760, Note_on_c, 9, 82, 0
1, 224760, Note_on_c, 9, 35, 0
1, 224760, Note_on_c, 9, 42, 0
1, 224760, Note_on_c, 9, 82, 18
1, 224760, Control_c, 13, 7, 125
1, 224820, Note_on_c, 10, 23, 0
1, 224820, Control_c, 13, 7, 124
1, 224880, Note_on_c, 9, 82, 0
1, 224880, Note_on_c, 9, 42, 73
1, 224880, Note_on_c, 9, 82, 31
1, 224880, Note_on_c, 10, 23, 93
1, 224880, Control_c, 13, 7, 121
1, 224940, Note_on_c, 10, 23, 0
1, 224940, Control_c, 13, 7, 119
1, 225000, Note_on_c, 9, 82, 0
1, 225000, Note_on_c, 2, 47, 0
1, 225000, Note_on_c, 3, 35, 0
1, 225000, Note_on_c, 0, 35, 0
1, 225000, Note_on_c, 2, 83, 0
1, 225000, Note_on_c, 1, 59, 0
1, 225000, Note_on_c, 1, 23, 0
1, 225000, Note_on_c, 1, 71, 0
1, 225000, Note_on_c, 9, 42, 0
1, 225000, Note_on_c, 2, 59, 0
1, 225000, Note_on_c, 2, 71, 0
1, 225000, Note_on_c, 3, 71, 0
1, 225000, Pitch_bend_c, 0, 0
1, 225000, Note_on_c, 0, 47, 95
1, 225000, Pitch_bend_c, 1, 0
1, 225000, Note_on_c, 1, 71, 95
1, 225000, Note_on_c, 1, 83, 64
1, 225000, Note_on_c, 1, 35, 95
1, 225000, Pitch_bend_c, 2, 0
1, 225000, Note_on_c, 2, 95, 64
1, 225000, Note_on_c, 2, 83, 64
1, 225000, Note_on_c, 2, 71, 127
1, 225000, Note_on_c, 2, 59, 95
1, 225000, Pitch_bend_c, 3, 0
1, 225000, Note_on_c, 3, 83, 64
1, 225000, Note_on_c, 3, 47, 64
1, 225000, Note_on_c, 9, 82, 39
1, 225000, Note_on_c, 10, 23, 75
1, 225000, Control_c, 13, 7, 117
1, 225015, Pitch_bend_c, 0, 8192
1, 225015, Pitch_bend_c, 1, 8192
1, 225015, Pitch_bend_c, 2, 8192
1, 225015, Pitch_bend_c, 3, 8192
1, 225060, Note_on_c, 10, 23, 0
1, 225060, Control_c, 13, 7, 114
1, 225120, Note_on_c, 2, 59, 0
1, 225120, Note_on_c, 1, 83, 0
1, 225120, Note_on_c, 1, 71, 0
1, 225120, Note_on_c, 0, 47, 0
1, 225120, Note_on_c, 1, 35, 0
1, 225120, Note_on_c, 9, 82, 0
1, 225120, Note_on_c, 2, 83, 0
1, 225120, Note_on_c, 2, 95, 0
1, 225120, Note_on_c, 3, 47, 0
1, 225120, Note_on_c, 2, 71, 0
1, 225120, Note_on_c, 3, 83, 0
1, 225120, Note_on_c, 9, 42, 73
1, 225120, Note_on_c, 9, 35, 102
1, 225120, Note_on_c, 9, 40, 89
1, 225120, Note_on_c, 9, 28, 103
1, 225120, Note_on_c, 9, 82, 40
1, 225120, Note_on_c, 10, 23, 68
1, 225120, Control_c, 13, 7, 112
1, 225180, Note_on_c, 10, 23, 0
1, 225180, Control_c, 13, 7, 110
1, 225240, Note_on_c, 9, 40, 0
1, 225240, Note_on_c, 9, 35, 0
1, 225240, Note_on_c, 9, 42, 0
1, 225240, Note_on_c, 9, 82, 0
1, 225240, Note_on_c, 9, 28, 0
1, 225240, Note_on_c, 9, 82, 25
1, 225240, Note_on_c, 10, 23, 75
1, 225240, Control_c, 13, 7, 108
1, 225300, Note_on_c, 10, 23, 0
1, 225300, Control_c, 13, 7, 106
1, 225360, Note_on_c, 9, 82, 0
1, 225360, Note_on_c, 0, 47, 95
1, 225360, Note_on_c, 1, 71, 95
1, 225360, Note_on_c, 1, 83, 64
1, 225360, Note_on_c, 1, 35, 95
1, 225360, Note_on_c, 2, 95, 64
1, 225360, Note_on_c, 2, 83, 64
1, 225360, Note_on_c, 2, 71, 127
1, 225360, Note_on_c, 2, 59, 95
1, 225360, Note_on_c, 3, 83, 64
1, 225360, Note_on_c, 3, 47, 64
1, 225360, Note_on_c, 9, 42, 73
1, 225360, Note_on_c, 9, 82, 11
1, 225360, Note_on_c, 10, 23, 99
1, 225360, Control_c, 13, 7, 105
1, 225420, Note_on_c, 10, 23, 0
1, 225420, Control_c, 13, 7, 103
1, 225480, Note_on_c, 9, 82, 0
1, 225480, Note_on_c, 9, 42, 0
1, 225480, Note_on_c, 9, 82, 11
1, 225480, Note_on_c, 10, 23, 127
1, 225480, Control_c, 13, 7, 101
1, 225540, Control_c, 13, 7, 99
1, 225600, Note_on_c, 9, 82, 0
1, 225600, Note_on_c, 1, 71, 0
1, 225600, Note_on_c, 3, 83, 0
1, 225600, Note_on_c, 0, 47, 0
1, 225600, Note_on_c, 1, 83, 0
1, 225600, Note_on_c, 2, 83, 0
1, 225600, Note_on_c, 2, 95, 0
1, 225600, Note_on_c, 1, 35, 0
1, 225600, Note_on_c, 2, 59, 0
1, 225600, Note_on_c, 2, 71, 0
1, 225600, Note_on_c, 3, 47, 0
1, 225600, Note_on_c, 9, 42, 88
1, 225600, Note_on_c, 9, 35, 102
1, 225600, Note_on_c, 9, 82, 18
1, 225600, Control_c, 13, 7, 96
1, 225660, Note_on_c, 10, 23, 0
1, 225660, Control_c, 13, 7, 95
1, 225720, Note_on_c, 9, 82, 0
1, 225720, Note_on_c, 9, 35, 0
1, 225720, Note_on_c, 9, 42, 0
1, 225720, Note_on_c, 0, 43, 95
1, 225720, Note_on_c, 1, 67, 95
1, 225720, Note_on_c, 1, 79, 64
1, 225720, Note_on_c, 1, 31, 95
1, 225720, Note_on_c, 2, 91, 64
1, 225720, Note_on_c, 2, 79, 64
1, 225720, Note_on_c, 2, 67, 127
1, 225720, Note_on_c, 2, 55, 95
1, 225720, Note_on_c, 3, 79, 64
1, 225720, Note_on_c, 3, 43, 64
1, 225720, Note_on_c, 9, 82, 18
1, 225720, Note_on_c, 10, 23, 93
1, 225720, Control_c, 13, 7, 92
1, 225780, Note_on_c, 10, 23, 0
1, 225780, Control_c, 13, 7, 91
1, 225840, Note_on_c, 2, 55, 0
1, 225840, Note_on_c, 1, 79, 0
1, 225840, Note_on_c, 1, 67, 0
1, 225840, Note_on_c, 0, 43, 0
1, 225840, Note_on_c, 1, 31, 0
1, 225840, Note_on_c, 9, 82, 0
1, 225840, Note_on_c, 2, 79, 0
1, 225840, Note_on_c, 2, 91, 0
1, 225840, Note_on_c, 3, 43, 0
1, 225840, Note_on_c, 2, 67, 0
1, 225840, Note_on_c, 3, 79, 0
1, 225840, Pitch_bend_c, 0, 5100
1, 225840, Note_on_c, 0, 47, 95
1, 225840, Pitch_bend_c, 1, 5100
1, 225840, Note_on_c, 1, 71, 95
1, 225840, Note_on_c, 1, 83, 64
1, 225840, Note_on_c, 1, 35, 95
1, 225840, Pitch_bend_c, 2, 5100
1, 225840, Note_on_c, 2, 95, 64
1, 225840, Note_on_c, 2, 83, 64
1, 225840, Note_on_c, 2, 71, 127
1, 225840, Note_on_c, 2, 59, 95
1, 225840, Pitch_bend_c, 3, 5100
1, 225840, Note_on_c, 3, 83, 64
1, 225840, Note_on_c, 3, 47, 64
1, 225840, Note_on_c, 9, 42, 73
1, 225840, Note_on_c, 9, 82, 31
1, 225840, Note_on_c, 10, 23, 75
1, 225840, Control_c, 13, 7, 90
1, 225855, Pitch_bend_c, 0, 6697
1, 225855, Pitch_bend_c, 1, 6697
1, 225855, Pitch_bend_c, 2, 6697
1, 225855, Pitch_bend_c, 3, 6697
1, 225900, Note_on_c, 10, 23, 0
1, 225900, Control_c, 13, 7, 88
1, 225920, Pitch_bend_c, 0, 6841
1, 225920, Pitch_bend_c, 1, 6841
1, 225920, Pitch_bend_c, 2, 6841
1, 225920, Pitch_bend_c, 3, 6841
1, 225950, Pitch_bend_c, 0, 6984
1, 225950, Pitch_bend_c, 1, 6984
1, 225950, Pitch_bend_c, 2, 6984
1, 225950, Pitch_bend_c, 3, 6984
1, 225960, Note_on_c, 9, 82, 0
1, 225960, Note_on_c, 9, 42, 0
1, 225960, Note_on_c, 9, 82, 39
1, 225960, Note_on_c, 10, 23, 59
1, 225960, Control_c, 13, 7, 86
1, 225965, Pitch_bend_c, 0, 7175
1, 225965, Pitch_bend_c, 1, 7175
1, 225965, Pitch_bend_c, 2, 7175
1, 225965, Pitch_bend_c, 3, 7175
1, 225980, Pitch_bend_c, 0, 7319
1, 225980, Pitch_bend_c, 1, 7319
1, 225980, Pitch_bend_c, 2, 7319
1, 225980, Pitch_bend_c, 3, 7319
1, 226000, Pitch_bend_c, 0, 7612
1, 226000, Pitch_bend_c, 1, 7612
1, 226000, Pitch_bend_c, 2, 7612
1, 226000, Pitch_bend_c, 3, 7612
1, 226015, Pitch_bend_c, 0, 7756
1, 226015, Pitch_bend_c, 1, 7756
1, 226015, Pitch_bend_c, 2, 7756
1, 226015, Pitch_bend_c, 3, 7756
1, 226020, Note_on_c, 10, 23, 0
1, 226020, Control_c, 13, 7, 83
1, 226030, Pitch_bend_c, 0, 7899
1, 226030, Pitch_bend_c, 1, 7899
1, 226030, Pitch_bend_c, 2, 7899
1, 226030, Pitch_bend_c, 3, 7899
1, 226045, Pitch_bend_c, 0, 8049
1, 226045, Pitch_bend_c, 1, 8049
1, 226045, Pitch_bend_c, 2, 8049
1, 226045, Pitch_bend_c, 3, 8049
1, 226060, Pitch_bend_c, 0, 8192
1, 226060, Pitch_bend_c, 1, 8192
1, 226060, Pitch_bend_c, 2, 8192
1, 226060, Pitch_bend_c, 3, 8192
1, 226080, Note_on_c, 3, 47, 0
1, 226080, Note_on_c, 3, 83, 0
1, 226080, Note_on_c, 1, 71, 0
1, 226080, Note_on_c, 0, 47, 0
1, 226080, Note_on_c, 1, 35, 0
1, 226080, Note_on_c, 9, 82, 0
1, 226080, Note_on_c, 2, 83, 0
1, 226080, Note_on_c, 2, 95, 0
1, 226080, Note_on_c, 1, 83, 0
1, 226080, Note_on_c, 2, 71, 0
1, 226080, Note_on_c, 2, 59, 0
1, 226080, Note_on_c, 0, 47, 95
1, 226080, Note_on_c, 1, 71, 95
1, 226080, Note_on_c, 1, 83, 64
1, 226080, Note_on_c, 1, 35, 95
1, 226080, Note_on_c, 2, 95, 64
1, 226080, Note_on_c, 2, 83, 64
1, 226080, Note_on_c, 2, 71, 127
1, 226080, Note_on_c, 2, 59, 95
1, 226080, Note_on_c, 3, 83, 64
1, 226080, Note_on_c, 3, 47, 64
1, 226080, Note_on_c, 9, 42, 73
1, 226080, Note_on_c, 9, 40, 90
1, 226080, Note_on_c, 9, 35, 103
1, 226080, Note_on_c, 9, 28, 103
1, 226080, Note_on_c, 9, 82, 40
1, 226080, Note_on_c, 10, 23, 58
1, 226080, Control_c, 13, 7, 82
1, 226140, Note_on_c, 10, 23, 0
1, 226140, Control_c, 13, 7, 80
1, 226200, Note_on_c, 9, 82, 0
1, 226200, Note_on_c, 9, 28, 0
1, 226200, Note_on_c, 9, 35, 0
1, 226200, Note_on_c, 9, 40, 0
1, 226200, Note_on_c, 9, 42, 0
1, 226200, Note_on_c, 9, 82, 25
1, 226200, Note_on_c, 10, 23, 72
1, 226200, Control_c, 13, 7, 77
1, 226260, Note_on_c, 10, 23, 0
1, 226260, Control_c, 13, 7, 76
1, 226320, Note_on_c, 3, 47, 0
1, 226320, Note_on_c, 3, 83, 0
1, 226320, Note_on_c, 1, 71, 0
1, 226320, Note_on_c, 0, 47, 0
1, 226320, Note_on_c, 1, 35, 0
1, 226320, Note_on_c, 9, 82, 0
1, 226320, Note_on_c, 2, 83, 0
1, 226320, Note_on_c, 2, 95, 0
1, 226320, Note_on_c, 1, 83, 0
1, 226320, Note_on_c, 2, 71, 0
1, 226320, Note_on_c, 2, 59, 0
1, 226320, Note_on_c, 0, 47, 95
1, 226320, Note_on_c, 1, 71, 95
1, 226320, Note_on_c, 1, 83, 64
1, 226320, Note_on_c, 1, 35, 95
1, 226320, Note_on_c, 2, 95, 64
1, 226320, Note_on_c, 2, 83, 64
1, 226320, Note_on_c, 2, 71, 127
1, 226320, Note_on_c, 2, 59, 95
1, 226320, Note_on_c, 3, 83, 64
1, 226320, Note_on_c, 3, 47, 64
1, 226320, Note_on_c, 9, 42, 73
1, 226320, Note_on_c, 9, 82, 11
1, 226320, Note_on_c, 10, 23, 91
1, 226320, Control_c, 13, 7, 74
1, 226350, Pitch_bend_c, 0, 8335
1, 226350, Pitch_bend_c, 1, 8335
1, 226350, Pitch_bend_c, 2, 8335
1, 226350, Pitch_bend_c, 3, 8335
1, 226380, Note_on_c, 10, 23, 0
1, 226380, Control_c, 13, 7, 71
1, 226400, Pitch_bend_c, 0, 8485
1, 226400, Pitch_bend_c, 1, 8485
1, 226400, Pitch_bend_c, 2, 8485
1, 226400, Pitch_bend_c, 3, 8485
1, 226415, Pitch_bend_c, 0, 8628
1, 226415, Pitch_bend_c, 1, 8628
1, 226415, Pitch_bend_c, 2, 8628
1, 226415, Pitch_bend_c, 3, 8628
1, 226430, Pitch_bend_c, 0, 8772
1, 226430, Pitch_bend_c, 1, 8772
1, 226430, Pitch_bend_c, 2, 8772
1, 226430, Pitch_bend_c, 3, 8772
1, 226440, Note_on_c, 9, 82, 0
1, 226440, Note_on_c, 9, 42, 0
1, 226440, Note_on_c, 9, 82, 11
1, 226440, Note_on_c, 10, 23, 127
1, 226440, Control_c, 13, 7, 69
1, 226445, Pitch_bend_c, 0, 9065
1, 226445, Pitch_bend_c, 1, 9065
1, 226445, Pitch_bend_c, 2, 9065
1, 226445, Pitch_bend_c, 3, 9065
1, 226460, Pitch_bend_c, 0, 9400
1, 226460, Pitch_bend_c, 1, 9400
1, 226460, Pitch_bend_c, 2, 9400
1, 226460, Pitch_bend_c, 3, 9400
1, 226480, Pitch_bend_c, 0, 9543
1, 226480, Pitch_bend_c, 1, 9543
1, 226480, Pitch_bend_c, 2, 9543
1, 226480, Pitch_bend_c, 3, 9543
1, 226495, Pitch_bend_c, 0, 9830
1, 226495, Pitch_bend_c, 1, 9830
1, 226495, Pitch_bend_c, 2, 9830
1, 226495, Pitch_bend_c, 3, 9830
1, 226500, Control_c, 13, 7, 68
1, 226510, Pitch_bend_c, 0, 10110
1, 226510, Pitch_bend_c, 1, 10110
1, 226510, Pitch_bend_c, 2, 10110
1, 226510, Pitch_bend_c, 3, 10110
1, 226525, Pitch_bend_c, 0, 10253
1, 226525, Pitch_bend_c, 1, 10253
1, 226525, Pitch_bend_c, 2, 10253
1, 226525, Pitch_bend_c, 3, 10253
1, 226540, Pitch_bend_c, 0, 10397
1, 226540, Pitch_bend_c, 1, 10397
1, 226540, Pitch_bend_c, 2, 10397
1, 226540, Pitch_bend_c, 3, 10397
1, 226560, Note_on_c, 9, 82, 0
1, 226560, Note_on_c, 1, 71, 0
1, 226560, Note_on_c, 3, 83, 0
1, 226560, Note_on_c, 0, 47, 0
1, 226560, Note_on_c, 1, 83, 0
1, 226560, Note_on_c, 2, 83, 0
1, 226560, Note_on_c, 2, 95, 0
1, 226560, Note_on_c, 1, 35, 0
1, 226560, Note_on_c, 2, 59, 0
1, 226560, Note_on_c, 2, 71, 0
1, 226560, Note_on_c, 3, 47, 0
1, 226560, Pitch_bend_c, 0, 12165
1, 226560, Note_on_c, 0, 35, 95
1, 226560, Pitch_bend_c, 1, 12165
1, 226560, Note_on_c, 1, 59, 95
1, 226560, Note_on_c, 1, 71, 64
1, 226560, Note_on_c, 1, 23, 95
1, 226560, Pitch_bend_c, 2, 12165
1, 226560, Note_on_c, 2, 83, 64
1, 226560, Note_on_c, 2, 71, 64
1, 226560, Note_on_c, 2, 59, 127
1, 226560, Note_on_c, 2, 47, 95
1, 226560, Pitch_bend_c, 3, 12165
1, 226560, Note_on_c, 3, 71, 64
1, 226560, Note_on_c, 3, 35, 64
1, 226560, Note_on_c, 9, 82, 18
1, 226560, Note_on_c, 9, 42, 103
1, 226560, Note_on_c, 9, 35, 103
1, 226560, Control_c, 13, 7, 66
1, 226575, Pitch_bend_c, 0, 8192
1, 226575, Pitch_bend_c, 1, 8192
1, 226575, Pitch_bend_c, 2, 8192
1, 226575, Pitch_bend_c, 3, 8192
1, 226620, Control_c, 13, 7, 63
1, 226680, Note_on_c, 9, 35, 0
1, 226680, Note_on_c, 9, 42, 0
1, 226680, Note_on_c, 9, 82, 0
1, 226680, Note_on_c, 10, 23, 0
1, 226680, Note_on_c, 9, 82, 18
1, 226680, Note_on_c, 10, 23, 79
1, 226680, Control_c, 13, 7, 60
1, 226740, Note_on_c, 10, 23, 0
1, 226740, Control_c, 13, 7, 59
1, 226800, Note_on_c, 9, 82, 0
1, 226800, Note_on_c, 9, 82, 31
1, 226800, Note_on_c, 9, 42, 73
1, 226800, Note_on_c, 10, 23, 64
1, 226800, Control_c, 13, 7, 57
1, 226860, Note_on_c, 10, 23, 0
1, 226860, Control_c, 13, 7, 55
1, 226920, Note_on_c, 9, 42, 0
1, 226920, Note_on_c, 1, 71, 0
1, 226920, Note_on_c, 2, 47, 0
1, 226920, Note_on_c, 1, 59, 0
1, 226920, Note_on_c, 0, 35, 0
1, 226920, Note_on_c, 1, 23, 0
1, 226920, Note_on_c, 9, 82, 0
1, 226920, Note_on_c, 2, 71, 0
1, 226920, Note_on_c, 2, 83, 0
1, 226920, Note_on_c, 3, 71, 0
1, 226920, Note_on_c, 2, 59, 0
1, 226920, Note_on_c, 3, 35, 0
1, 226920, Pitch_bend_c, 0, 0
1, 226920, Note_on_c, 0, 47, 95
1, 226920, Pitch_bend_c, 1, 0
1, 226920, Note_on_c, 1, 71, 95
1, 226920, Note_on_c, 1, 83, 64
1, 226920, Note_on_c, 1, 35, 95
1, 226920, Pitch_bend_c, 2, 0
1, 226920, Note_on_c, 2, 95, 64
1, 226920, Note_on_c, 2, 83, 64
1, 226920, Note_on_c, 2, 71, 127
1, 226920, Note_on_c, 2, 59, 95
1, 226920, Pitch_bend_c, 3, 0
1, 226920, Note_on_c, 3, 83, 64
1, 226920, Note_on_c, 3, 47, 64
1, 226920, Note_on_c, 9, 82, 39
1, 226920, Note_on_c, 10, 23, 62
1, 226920, Control_c, 13, 7, 52
1, 226935, Pitch_bend_c, 0, 8192
1, 226935, Pitch_bend_c, 1, 8192
1, 226935, Pitch_bend_c, 2, 8192
1, 226935, Pitch_bend_c, 3, 8192
1, 226980, Note_on_c, 10, 23, 0
1, 226980, Control_c, 13, 7, 50
1, 227040, Note_on_c, 2, 59, 0
1, 227040, Note_on_c, 1, 83, 0
1, 227040, Note_on_c, 1, 71, 0
1, 227040, Note_on_c, 0, 47, 0
1, 227040, Note_on_c, 1, 35, 0
1, 227040, Note_on_c, 9, 82, 0
1, 227040, Note_on_c, 2, 83, 0
1, 227040, Note_on_c, 2, 95, 0
1, 227040, Note_on_c, 3, 47, 0
1, 227040, Note_on_c, 2, 71, 0
1, 227040, Note_on_c, 3, 83, 0
1, 227040, Note_on_c, 9, 82, 40
1, 227040, Note_on_c, 9, 42, 73
1, 227040, Note_on_c, 9, 40, 91
1, 227040, Note_on_c, 9, 35, 103
1, 227040, Note_on_c, 9, 28, 102
1, 227040, Note_on_c, 10, 23, 66
1, 227040, Control_c, 13, 7, 48
1, 227100, Note_on_c, 10, 23, 0
1, 227100, Control_c, 13, 7, 47
1, 227160, Note_on_c, 9, 40, 0
1, 227160, Note_on_c, 9, 42, 0
1, 227160, Note_on_c, 9, 82, 0
1, 227160, Note_on_c, 9, 28, 0
1, 227160, Note_on_c, 9, 35, 0
1, 227160, Note_on_c, 9, 82, 25
1, 227160, Note_on_c, 10, 23, 91
1, 227160, Control_c, 13, 7, 45
1, 227220, Note_on_c, 10, 23, 0
1, 227220, Control_c, 13, 7, 44
1, 227280, Note_on_c, 9, 82, 0
1, 227280, Note_on_c, 0, 47, 95
1, 227280, Note_on_c, 1, 71, 95
1, 227280, Note_on_c, 1, 83, 64
1, 227280, Note_on_c, 1, 35, 95
1, 227280, Note_on_c, 2, 95, 64
1, 227280, Note_on_c, 2, 83, 64
1, 227280, Note_on_c, 2, 71, 127
1, 227280, Note_on_c, 2, 59, 95
1, 227280, Note_on_c, 3, 83, 64
1, 227280, Note_on_c, 3, 47, 64
1, 227280, Note_on_c, 9, 82, 11
1, 227280, Note_on_c, 9, 42, 73
1, 227280, Note_on_c, 10, 23, 98
1, 227280, Control_c, 13, 7, 42
1, 227340, Note_on_c, 10, 23, 0
1, 227340, Control_c, 13, 7, 41
1, 227400, Note_on_c, 9, 42, 0
1, 227400, Note_on_c, 9, 82, 0
1, 227400, Note_on_c, 9, 82, 11
1, 227400, Note_on_c, 10, 23, 127
1, 227400, Control_c, 13, 7, 38
1, 227460, Control_c, 13, 7, 36
1, 227520, Note_on_c, 9, 82, 0
1, 227520, Note_on_c, 1, 71, 0
1, 227520, Note_on_c, 3, 83, 0
1, 227520, Note_on_c, 0, 47, 0
1, 227520, Note_on_c, 1, 83, 0
1, 227520, Note_on_c, 2, 83, 0
1, 227520, Note_on_c, 2, 95, 0
1, 227520, Note_on_c, 1, 35, 0
1, 227520, Note_on_c, 2, 59, 0
1, 227520, Note_on_c, 2, 71, 0
1, 227520, Note_on_c, 3, 47, 0
1, 227520, Note_on_c, 0, 47, 95
1, 227520, Note_on_c, 1, 71, 95
1, 227520, Note_on_c, 1, 83, 64
1, 227520, Note_on_c, 1, 35, 95
1, 227520, Note_on_c, 2, 95, 64
1, 227520, Note_on_c, 2, 83, 64
1, 227520, Note_on_c, 2, 71, 127
1, 227520, Note_on_c, 2, 59, 95
1, 227520, Note_on_c, 3, 83, 64
1, 227520, Note_on_c, 3, 47, 64
1, 227520, Note_on_c, 9, 82, 18
1, 227520, Note_on_c, 9, 42, 88
1, 227520, Note_on_c, 9, 35, 104
1, 227520, Control_c, 13, 7, 34
1, 227550, Pitch_bend_c, 0, 8049
1, 227550, Pitch_bend_c, 1, 8049
1, 227550, Pitch_bend_c, 2, 8049
1, 227550, Pitch_bend_c, 3, 8049
1, 227580, Note_on_c, 10, 23, 0
1, 227580, Pitch_bend_c, 0, 7899
1, 227580, Pitch_bend_c, 1, 7899
1, 227580, Pitch_bend_c, 2, 7899
1, 227580, Pitch_bend_c, 3, 7899
1, 227580, Control_c, 13, 7, 33
1, 227615, Pitch_bend_c, 0, 7756
1, 227615, Pitch_bend_c, 1, 7756
1, 227615, Pitch_bend_c, 2, 7756
1, 227615, Pitch_bend_c, 3, 7756
1, 227640, Note_on_c, 9, 35, 0
1, 227640, Note_on_c, 9, 42, 0
1, 227640, Note_on_c, 9, 82, 0
1, 227640, Note_on_c, 9, 82, 18
1, 227640, Note_on_c, 10, 23, 66
1, 227640, Control_c, 13, 7, 31
1, 227645, Pitch_bend_c, 0, 7612
1, 227645, Pitch_bend_c, 1, 7612
1, 227645, Pitch_bend_c, 2, 7612
1, 227645, Pitch_bend_c, 3, 7612
1, 227680, Pitch_bend_c, 0, 7469
1, 227680, Pitch_bend_c, 1, 7469
1, 227680, Pitch_bend_c, 2, 7469
1, 227680, Pitch_bend_c, 3, 7469
1, 227700, Note_on_c, 10, 23, 0
1, 227700, Note_on_c, 3, 83, 0
1, 227700, Note_on_c, 1, 71, 0
1, 227700, Note_on_c, 0, 47, 0
1, 227700, Note_on_c, 1, 83, 0
1, 227700, Note_on_c, 2, 83, 0
1, 227700, Note_on_c, 2, 95, 0
1, 227700, Note_on_c, 1, 35, 0
1, 227700, Note_on_c, 2, 59, 0
1, 227700, Note_on_c, 2, 71, 0
1, 227700, Note_on_c, 3, 47, 0
1, 227700, Control_c, 13, 7, 29
1, 227760, Note_on_c, 9, 82, 0
1, 227760, Note_on_c, 0, 47, 95
1, 227760, Note_on_c, 1, 71, 95
1, 227760, Note_on_c, 1, 83, 64
1, 227760, Note_on_c, 1, 35, 95
1, 227760, Note_on_c, 2, 95, 64
1, 227760, Note_on_c, 2, 83, 64
1, 227760, Note_on_c, 2, 71, 127
1, 227760, Note_on_c, 2, 59, 95
1, 227760, Note_on_c, 3, 83, 64
1, 227760, Note_on_c, 3, 47, 64
1, 227760, Note_on_c, 9, 82, 31
1, 227760, Note_on_c, 9, 42, 73
1, 227760, Note_on_c, 10, 23, 74
1, 227760, Control_c, 13, 7, 29
1, 227775, Pitch_bend_c, 0, 7319
1, 227775, Pitch_bend_c, 1, 7319
1, 227775, Pitch_bend_c, 2, 7319
1, 227775, Pitch_bend_c, 3, 7319
1, 227820, Note_on_c, 10, 23, 0
1, 227820, Pitch_bend_c, 0, 7175
1, 227820, Pitch_bend_c, 1, 7175
1, 227820, Pitch_bend_c, 2, 7175
1, 227820, Pitch_bend_c, 3, 7175
1, 227820, Control_c, 13, 7, 26
1, 227840, Pitch_bend_c, 0, 6984
1, 227840, Pitch_bend_c, 1, 6984
1, 227840, Pitch_bend_c, 2, 6984
1, 227840, Pitch_bend_c, 3, 6984
1, 227870, Pitch_bend_c, 0, 6841
1, 227870, Pitch_bend_c, 1, 6841
1, 227870, Pitch_bend_c, 2, 6841
1, 227870, Pitch_bend_c, 3, 6841
1, 227880, Note_on_c, 9, 42, 0
1, 227880, Note_on_c, 9, 82, 0
1, 227880, Note_on_c, 9, 82, 39
1, 227880, Note_on_c, 10, 23, 84
1, 227880, Control_c, 13, 7, 24
1, 227900, Pitch_bend_c, 0, 6697
1, 227900, Pitch_bend_c, 1, 6697
1, 227900, Pitch_bend_c, 2, 6697
1, 227900, Pitch_bend_c, 3, 6697
1, 227940, Note_on_c, 10, 23, 0
1, 227940, Control_c, 13, 7, 21
1, 227980, Pitch_bend_c, 0, 6554
1, 227980, Pitch_bend_c, 1, 6554
1, 227980, Pitch_bend_c, 2, 6554
1, 227980, Pitch_bend_c, 3, 6554
1, 228000, Note_on_c, 3, 47, 0
1, 228000, Note_on_c, 3, 83, 0
1, 228000, Note_on_c, 1, 71, 0
1, 228000, Note_on_c, 0, 47, 0
1, 228000, Note_on_c, 1, 35, 0
1, 228000, Note_on_c, 9, 82, 0
1, 228000, Note_on_c, 2, 83, 0
1, 228000, Note_on_c, 2, 95, 0
1, 228000, Note_on_c, 1, 83, 0
1, 228000, Note_on_c, 2, 71, 0
1, 228000, Note_on_c, 2, 59, 0
1, 228000, Note_on_c, 0, 47, 95
1, 228000, Note_on_c, 1, 71, 95
1, 228000, Note_on_c, 1, 83, 64
1, 228000, Note_on_c, 1, 35, 95
1, 228000, Note_on_c, 2, 95, 64
1, 228000, Note_on_c, 2, 83, 64
1, 228000, Note_on_c, 2, 71, 127
1, 228000, Note_on_c, 2, 59, 95
1, 228000, Note_on_c, 3, 83, 64
1, 228000, Note_on_c, 3, 47, 64
1, 228000, Note_on_c, 9, 82, 40
1, 228000, Note_on_c, 9, 42, 73
1, 228000, Note_on_c, 9, 40, 92
1, 228000, Note_on_c, 9, 35, 104
1, 228000, Note_on_c, 9, 28, 102
1, 228000, Note_on_c, 10, 35, 127
1, 228000, Control_c, 13, 7, 19
1, 228030, Pitch_bend_c, 0, 6418
1, 228030, Pitch_bend_c, 1, 6418
1, 228030, Pitch_bend_c, 2, 6418
1, 228030, Pitch_bend_c, 3, 6418
1, 228045, Pitch_bend_c, 0, 6274
1, 228045, Pitch_bend_c, 1, 6274
1, 228045, Pitch_bend_c, 2, 6274
1, 228045, Pitch_bend_c, 3, 6274
1, 228060, Pitch_bend_c, 0, 6131
1, 228060, Pitch_bend_c, 1, 6131
1, 228060, Pitch_bend_c, 2, 6131
1, 228060, Pitch_bend_c, 3, 6131
1, 228060, Control_c, 13, 7, 17
1, 228080, Pitch_bend_c, 0, 5987
1, 228080, Pitch_bend_c, 1, 5987
1, 228080, Pitch_bend_c, 2, 5987
1, 228080, Pitch_bend_c, 3, 5987
1, 228095, Pitch_bend_c, 0, 5803
1, 228095, Pitch_bend_c, 1, 5803
1, 228095, Pitch_bend_c, 2, 5803
1, 228095, Pitch_bend_c, 3, 5803
1, 228110, Pitch_bend_c, 0, 5660
1, 228110, Pitch_bend_c, 1, 5660
1, 228110, Pitch_bend_c, 2, 5660
1, 228110, Pitch_bend_c, 3, 5660
1, 228120, Note_on_c, 9, 28, 0
1, 228120, Note_on_c, 9, 35, 0
1, 228120, Note_on_c, 9, 40, 0
1, 228120, Note_on_c, 9, 42, 0
1, 228120, Note_on_c, 9, 82, 0
1, 228120, Note_on_c, 9, 82, 25
1, 228120, Control_c, 13, 7, 15
1, 228125, Pitch_bend_c, 0, 5516
1, 228125, Pitch_bend_c, 1, 5516
1, 228125, Pitch_bend_c, 2, 5516
1, 228125, Pitch_bend_c, 3, 5516
1, 228140, Pitch_bend_c, 0, 5380
1, 228140, Pitch_bend_c, 1, 5380
1, 228140, Pitch_bend_c, 2, 5380
1, 228140, Pitch_bend_c, 3, 5380
1, 228160, Pitch_bend_c, 0, 5237
1, 228160, Pitch_bend_c, 1, 5237
1, 228160, Pitch_bend_c, 2, 5237
1, 228160, Pitch_bend_c, 3, 5237
1, 228180, Note_on_c, 10, 35, 0
1, 228180, Control_c, 13, 7, 13
1, 228190, Pitch_bend_c, 0, 5100
1, 228190, Pitch_bend_c, 1, 5100
1, 228190, Pitch_bend_c, 2, 5100
1, 228190, Pitch_bend_c, 3, 5100
1, 228240, Note_on_c, 3, 83, 0
1, 228240, Note_on_c, 2, 59, 0
1, 228240, Note_on_c, 1, 83, 0
1, 228240, Note_on_c, 1, 71, 0
1, 228240, Note_on_c, 0, 47, 0
1, 228240, Note_on_c, 9, 82, 0
1, 228240, Note_on_c, 2, 95, 0
1, 228240, Note_on_c, 1, 35, 0
1, 228240, Note_on_c, 2, 83, 0
1, 228240, Note_on_c, 2, 71, 0
1, 228240, Note_on_c, 3, 47, 0
1, 228240, Note_on_c, 0, 47, 95
1, 228240, Note_on_c, 1, 71, 95
1, 228240, Note_on_c, 1, 83, 64
1, 228240, Note_on_c, 1, 35, 95
1, 228240, Note_on_c, 2, 95, 64
1, 228240, Note_on_c, 2, 83, 64
1, 228240, Note_on_c, 2, 71, 127
1, 228240, Note_on_c, 2, 59, 95
1, 228240, Note_on_c, 3, 83, 64
1, 228240, Note_on_c, 3, 47, 64
1, 228240, Note_on_c, 9, 82, 11
1, 228240, Note_on_c, 9, 42, 73
1, 228240, Note_on_c, 10, 23, 103
1, 228240, Control_c, 13, 7, 11
1, 228255, Pitch_bend_c, 0, 4963
1, 228255, Pitch_bend_c, 1, 4963
1, 228255, Pitch_bend_c, 2, 4963
1, 228255, Pitch_bend_c, 3, 4963
1, 228270, Pitch_bend_c, 0, 4636
1, 228270, Pitch_bend_c, 1, 4636
1, 228270, Pitch_bend_c, 2, 4636
1, 228270, Pitch_bend_c, 3, 4636
1, 228285, Pitch_bend_c, 0, 4499
1, 228285, Pitch_bend_c, 1, 4499
1, 228285, Pitch_bend_c, 2, 4499
1, 228285, Pitch_bend_c, 3, 4499
1, 228300, Note_on_c, 10, 23, 0
1, 228300, Pitch_bend_c, 0, 4083
1, 228300, Pitch_bend_c, 1, 4083
1, 228300, Pitch_bend_c, 2, 4083
1, 228300, Pitch_bend_c, 3, 4083
1, 228300, Control_c, 13, 7, 9
1, 228320, Pitch_bend_c, 0, 3810
1, 228320, Pitch_bend_c, 1, 3810
1, 228320, Pitch_bend_c, 2, 3810
1, 228320, Pitch_bend_c, 3, 3810
1, 228335, Pitch_bend_c, 0, 3359
1, 228335, Pitch_bend_c, 1, 3359
1, 228335, Pitch_bend_c, 2, 3359
1, 228335, Pitch_bend_c, 3, 3359
1, 228350, Pitch_bend_c, 0, 3086
1, 228350, Pitch_bend_c, 1, 3086
1, 228350, Pitch_bend_c, 2, 3086
1, 228350, Pitch_bend_c, 3, 3086
1, 228360, Note_on_c, 9, 42, 0
1, 228360, Note_on_c, 9, 82, 0
1, 228360, Note_on_c, 9, 82, 11
1, 228360, Note_on_c, 10, 35, 127
1, 228360, Control_c, 13, 7, 8
1, 228365, Pitch_bend_c, 0, 2820
1, 228365, Pitch_bend_c, 1, 2820
1, 228365, Pitch_bend_c, 2, 2820
1, 228365, Pitch_bend_c, 3, 2820
1, 228380, Pitch_bend_c, 0, 2683
1, 228380, Pitch_bend_c, 1, 2683
1, 228380, Pitch_bend_c, 2, 2683
1, 228380, Pitch_bend_c, 3, 2683
1, 228400, Pitch_bend_c, 0, 2369
1, 228400, Pitch_bend_c, 1, 2369
1, 228400, Pitch_bend_c, 2, 2369
1, 228400, Pitch_bend_c, 3, 2369
1, 228415, Pitch_bend_c, 0, 2240
1, 228415, Pitch_bend_c, 1, 2240
1, 228415, Pitch_bend_c, 2, 2240
1, 228415, Pitch_bend_c, 3, 2240
1, 228420, Control_c, 13, 7, 6
1, 228445, Pitch_bend_c, 0, 2103
1, 228445, Pitch_bend_c, 1, 2103
1, 228445, Pitch_bend_c, 2, 2103
1, 228445, Pitch_bend_c, 3, 2103
1, 228480, Note_on_c, 10, 35, 0
1, 228480, Note_on_c, 3, 47, 0
1, 228480, Note_on_c, 3, 83, 0
1, 228480, Note_on_c, 13, 67, 0
1, 228480, Note_on_c, 13, 73, 0
1, 228480, Note_on_c, 1, 35, 0
1, 228480, Note_on_c, 13, 62, 0
1, 228480, Note_on_c, 9, 57, 0
1, 228480, Note_on_c, 13, 60, 0
1, 228480, Note_on_c, 13, 75, 0
1, 228480, Note_on_c, 13, 71, 0
1, 228480, Note_on_c, 13, 63, 0
1, 228480, Note_on_c, 13, 69, 0
1, 228480, Note_on_c, 13, 65, 0
1, 228480, Note_on_c, 13, 70, 0
1, 228480, Note_on_c, 13, 61, 0
1, 228480, Note_on_c, 9, 49, 0
1, 228480, Note_on_c, 2, 59, 0
1, 228480, Note_on_c, 2, 71, 0
1, 228480, Note_on_c, 2, 95, 0
1, 228480, Note_on_c, 13, 72, 0
1, 228480, Note_on_c, 0, 47, 0
1, 228480, Note_on_c, 13, 74, 0
1, 228480, Note_on_c, 13, 64, 0
1, 228480, Note_on_c, 13, 66, 0
1, 228480, Note_on_c, 9, 52, 0
1, 228480, Note_on_c, 2, 83, 0
1, 228480, Note_on_c, 1, 71, 0
1, 228480, Note_on_c, 1, 83, 0
1, 228480, Note_on_c, 9, 82, 0
1, 228480, Note_on_c, 13, 68, 0
1, 228480, Pitch_bend_c, 0, 8192
1, 228480, Note_on_c, 0, 35, 95
1, 228480, Pitch_bend_c, 1, 8192
1, 228480, Note_on_c, 1, 59, 95
1, 228480, Note_on_c, 1, 71, 64
1, 228480, Note_on_c, 1, 23, 95
1, 228480, Pitch_bend_c, 2, 8192
1, 228480, Note_on_c, 2, 83, 94
1, 228480, Note_on_c, 2, 71, 64
1, 228480, Note_on_c, 2, 59, 127
1, 228480, Note_on_c, 2, 47, 95
1, 228480, Pitch_bend_c, 3, 8192
1, 228480, Note_on_c, 3, 71, 64
1, 228480, Note_on_c, 3, 35, 64
1, 228480, Note_on_c, 9, 42, 103
1, 228480, Note_on_c, 9, 35, 103
1, 228480, Note_on_c, 9, 82, 18
1, 228480, Note_on_c, 10, 23, 127
1, 228480, Control_c, 13, 7, 0
1, 228490, Pitch_bend_c, 4, 8192
1, 228490, Pitch_bend_c, 6, 8192
1, 228600, Note_on_c, 9, 82, 0
1, 228600, Note_on_c, 9, 35, 0
1, 228600, Note_on_c, 9, 42, 0
1, 228600, Note_on_c, 9, 82, 18
1, 228660, Note_on_c, 10, 23, 0
1, 228720, Note_on_c, 9, 82, 0
1, 228720, Note_on_c, 9, 42, 73
1, 228720, Note_on_c, 9, 82, 31
1, 228720, Note_on_c, 10, 23, 93
1, 228780, Note_on_c, 10, 23, 0
1, 228840, Note_on_c, 2, 83, 0
1, 228840, Note_on_c, 1, 59, 0
1, 228840, Note_on_c, 3, 71, 0
1, 228840, Note_on_c, 1, 71, 0
1, 228840, Note_on_c, 1, 23, 0
1, 228840, Note_on_c, 0, 35, 0
1, 228840, Note_on_c, 2, 71, 0
1, 228840, Note_on_c, 9, 42, 0
1, 228840, Note_on_c, 3, 35, 0
1, 228840, Note_on_c, 2, 59, 0
1, 228840, Note_on_c, 9, 82, 0
1, 228840, Note_on_c, 2, 47, 0
1, 228840, Pitch_bend_c, 0, 0
1, 228840, Note_on_c, 0, 47, 95
1, 228840, Pitch_bend_c, 1, 0
1, 228840, Note_on_c, 1, 71, 95
1, 228840, Note_on_c, 1, 83, 64
1, 228840, Note_on_c, 1, 35, 95
1, 228840, Pitch_bend_c, 2, 0
1, 228840, Note_on_c, 2, 95, 64
1, 228840, Note_on_c, 2, 83, 64
1, 228840, Note_on_c, 2, 71, 127
1, 228840, Note_on_c, 2, 59, 95
1, 228840, Pitch_bend_c, 3, 0
1, 228840, Note_on_c, 3, 83, 64
1, 228840, Note_on_c, 3, 47, 64
1, 228840, Note_on_c, 9, 82, 39
1, 228840, Note_on_c, 10, 23, 75
1, 228855, Pitch_bend_c, 0, 8192
1, 228855, Pitch_bend_c, 1, 8192
1, 228855, Pitch_bend_c, 2, 8192
1, 228855, Pitch_bend_c, 3, 8192
1, 228900, Note_on_c, 10, 23, 0
1, 228960, Note_on_c, 1, 71, 0
1, 228960, Note_on_c, 2, 59, 0
1, 228960, Note_on_c, 1, 83, 0
1, 228960, Note_on_c, 1, 35, 0
1, 228960, Note_on_c, 0, 47, 0
1, 228960, Note_on_c, 2, 95, 0
1, 228960, Note_on_c, 2, 83, 0
1, 228960, Note_on_c, 3, 83, 0
1, 228960, Note_on_c, 2, 71, 0
1, 228960, Note_on_c, 9, 82, 0
1, 228960, Note_on_c, 3, 47, 0
1, 228960, Note_on_c, 9, 42, 73
1, 228960, Note_on_c, 9, 35, 102
1, 228960, Note_on_c, 9, 40, 89
1, 228960, Note_on_c, 9, 28, 103
1, 228960, Note_on_c, 9, 82, 40
1, 228960, Note_on_c, 10, 23, 68
1, 229020, Note_on_c, 10, 23, 0
1, 229080, Note_on_c, 9, 35, 0
1, 229080, Note_on_c, 9, 40, 0
1, 229080, Note_on_c, 9, 42, 0
1, 229080, Note_on_c, 9, 82, 0
1, 229080, Note_on_c, 9, 28, 0
1, 229080, Note_on_c, 9, 82, 25
1, 229080, Note_on_c, 10, 23, 75
1, 229140, Note_on_c, 10, 23, 0
1, 229200, Note_on_c, 9, 82, 0
1, 229200, Note_on_c, 0, 47, 95
1, 229200, Note_on_c, 1, 71, 95
1, 229200, Note_on_c, 1, 83, 64
1, 229200, Note_on_c, 1, 35, 95
1, 229200, Note_on_c, 2, 95, 64
1, 229200, Note_on_c, 2, 83, 64
1, 229200, Note_on_c, 2, 71, 127
1, 229200, Note_on_c, 2, 59, 95
1, 229200, Note_on_c, 3, 83, 64
1, 229200, Note_on_c, 3, 47, 64
1, 229200, Note_on_c, 9, 42, 73
1, 229200, Note_on_c, 9, 82, 11
1, 229200, Note_on_c, 10, 23, 99
1, 229260, Note_on_c, 10, 23, 0
1, 229320, Note_on_c, 9, 82, 0
1, 229320, Note_on_c, 9, 42, 0
1, 229320, Note_on_c, 9, 82, 11
1, 229320, Note_on_c, 10, 23, 127
1, 229440, Note_on_c, 9, 82, 0
1, 229440, Note_on_c, 2, 59, 0
1, 229440, Note_on_c, 3, 83, 0
1, 229440, Note_on_c, 1, 83, 0
1, 229440, Note_on_c, 1, 35, 0
1, 229440, Note_on_c, 2, 71, 0
1, 229440, Note_on_c, 2, 95, 0
1, 229440, Note_on_c, 2, 83, 0
1, 229440, Note_on_c, 3, 47, 0
1, 229440, Note_on_c, 0, 47, 0
1, 229440, Note_on_c, 1, 71, 0
1, 229440, Note_on_c, 9, 42, 88
1, 229440, Note_on_c, 9, 35, 102
1, 229440, Note_on_c, 9, 82, 18
1, 229500, Note_on_c, 10, 23, 0
1, 229560, Note_on_c, 9, 42, 0
1, 229560, Note_on_c, 9, 35, 0
1, 229560, Note_on_c, 9, 82, 0
1, 229560, Note_on_c, 0, 43, 95
1, 229560, Note_on_c, 1, 67, 95
1, 229560, Note_on_c, 1, 79, 64
1, 229560, Note_on_c, 1, 31, 95
1, 229560, Note_on_c, 2, 91, 64
1, 229560, Note_on_c, 2, 79, 64
1, 229560, Note_on_c, 2, 67, 127
1, 229560, Note_on_c, 2, 55, 95
1, 229560, Note_on_c, 3, 79, 64
1, 229560, Note_on_c, 3, 43, 64
1, 229560, Note_on_c, 9, 82, 18
1, 229560, Note_on_c, 10, 23, 93
1, 229620, Note_on_c, 10, 23, 0
1, 229680, Note_on_c, 1, 67, 0
1, 229680, Note_on_c, 2, 55, 0
1, 229680, Note_on_c, 1, 79, 0
1, 229680, Note_on_c, 1, 31, 0
1, 229680, Note_on_c, 0, 43, 0
1, 229680, Note_on_c, 2, 91, 0
1, 229680, Note_on_c, 2, 79, 0
1, 229680, Note_on_c, 3, 79, 0
1, 229680, Note_on_c, 2, 67, 0
1, 229680, Note_on_c, 9, 82, 0
1, 229680, Note_on_c, 3, 43, 0
1, 229680, Pitch_bend_c, 0, 5100
1, 229680, Note_on_c, 0, 47, 95
1, 229680, Pitch_bend_c, 1, 5100
1, 229680, Note_on_c, 1, 71, 95
1, 229680, Note_on_c, 1, 83, 64
1, 229680, Note_on_c, 1, 35, 95
1, 229680, Pitch_bend_c, 2, 5100
1, 229680, Note_on_c, 2, 95, 64
1, 229680, Note_on_c, 2, 83, 64
1, 229680, Note_on_c, 2, 71, 127
1, 229680, Note_on_c, 2, 59, 95
1, 229680, Pitch_bend_c, 3, 5100
1, 229680, Note_on_c, 3, 83, 64
1, 229680, Note_on_c, 3, 47, 64
1, 229680, Note_on_c, 9, 42, 73
1, 229680, Note_on_c, 9, 82, 31
1, 229680, Note_on_c, 10, 23, 75
1, 229695, Pitch_bend_c, 0, 6697
1, 229695, Pitch_bend_c, 1, 6697
1, 229695, Pitch_bend_c, 2, 6697
1, 229695, Pitch_bend_c, 3, 6697
1, 229740, Note_on_c, 10, 23, 0
1, 229760, Pitch_bend_c, 0, 6841
1, 229760, Pitch_bend_c, 1, 6841
1, 229760, Pitch_bend_c, 2, 6841
1, 229760, Pitch_bend_c, 3, 6841
1, 229790, Pitch_bend_c, 0, 6984
1, 229790, Pitch_bend_c, 1, 6984
1, 229790, Pitch_bend_c, 2, 6984
1, 229790, Pitch_bend_c, 3, 6984
1, 229800, Note_on_c, 9, 82, 0
1, 229800, Note_on_c, 9, 42, 0
1, 229800, Note_on_c, 9, 82, 39
1, 229800, Note_on_c, 10, 23, 59
1, 229805, Pitch_bend_c, 0, 7175
1, 229805, Pitch_bend_c, 1, 7175
1, 229805, Pitch_bend_c, 2, 7175
1, 229805, Pitch_bend_c, 3, 7175
1, 229820, Pitch_bend_c, 0, 7319
1, 229820, Pitch_bend_c, 1, 7319
1, 229820, Pitch_bend_c, 2, 7319
1, 229820, Pitch_bend_c, 3, 7319
1, 229840, Pitch_bend_c, 0, 7612
1, 229840, Pitch_bend_c, 1, 7612
1, 229840, Pitch_bend_c, 2, 7612
1, 229840, Pitch_bend_c, 3, 7612
1, 229855, Pitch_bend_c, 0, 7756
1, 229855, Pitch_bend_c, 1, 7756
1, 229855, Pitch_bend_c, 2, 7756
1, 229855, Pitch_bend_c, 3, 7756
1, 229860, Note_on_c, 10, 23, 0
1, 229870, Pitch_bend_c, 0, 7899
1, 229870, Pitch_bend_c, 1, 7899
1, 229870, Pitch_bend_c, 2, 7899
1, 229870, Pitch_bend_c, 3, 7899
1, 229885, Pitch_bend_c, 0, 8049
1, 229885, Pitch_bend_c, 1, 8049
1, 229885, Pitch_bend_c, 2, 8049
1, 229885, Pitch_bend_c, 3, 8049
1, 229900, Pitch_bend_c, 0, 8192
1, 229900, Pitch_bend_c, 1, 8192
1, 229900, Pitch_bend_c, 2, 8192
1, 229900, Pitch_bend_c, 3, 8192
1, 229920, Note_on_c, 2, 83, 0
1, 229920, Note_on_c, 3, 83, 0
1, 229920, Note_on_c, 1, 83, 0
1, 229920, Note_on_c, 1, 35, 0
1, 229920, Note_on_c, 0, 47, 0
1, 229920, Note_on_c, 2, 95, 0
1, 229920, Note_on_c, 1, 71, 0
1, 229920, Note_on_c, 3, 47, 0
1, 229920, Note_on_c, 2, 71, 0
1, 229920, Note_on_c, 9, 82, 0
1, 229920, Note_on_c, 2, 59, 0
1, 229920, Note_on_c, 0, 47, 95
1, 229920, Note_on_c, 1, 71, 95
1, 229920, Note_on_c, 1, 83, 64
1, 229920, Note_on_c, 1, 35, 95
1, 229920, Note_on_c, 2, 95, 64
1, 229920, Note_on_c, 2, 83, 64
1, 229920, Note_on_c, 2, 71, 127
1, 229920, Note_on_c, 2, 59, 95
1, 229920, Note_on_c, 3, 83, 64
1, 229920, Note_on_c, 3, 47, 64
1, 229920, Note_on_c, 9, 42, 73
1, 229920, Note_on_c, 9, 40, 90
1, 229920, Note_on_c, 9, 35, 103
1, 229920, Note_on_c, 9, 28, 103
1, 229920, Note_on_c, 9, 82, 40
1, 229920, Note_on_c, 10, 23, 58
1, 229980, Note_on_c, 10, 23, 0
1, 230040, Note_on_c, 9, 82, 0
1, 230040, Note_on_c, 9, 40, 0
1, 230040, Note_on_c, 9, 28, 0
1, 230040, Note_on_c, 9, 42, 0
1, 230040, Note_on_c, 9, 35, 0
1, 230040, Note_on_c, 9, 82, 25
1, 230040, Note_on_c, 10, 23, 72
1, 230100, Note_on_c, 10, 23, 0
1, 230160, Note_on_c, 2, 95, 0
1, 230160, Note_on_c, 3, 83, 0
1, 230160, Note_on_c, 1, 83, 0
1, 230160, Note_on_c, 1, 35, 0
1, 230160, Note_on_c, 2, 71, 0
1, 230160, Note_on_c, 2, 83, 0
1, 230160, Note_on_c, 1, 71, 0
1, 230160, Note_on_c, 0, 47, 0
1, 230160, Note_on_c, 3, 47, 0
1, 230160, Note_on_c, 9, 82, 0
1, 230160, Note_on_c, 2, 59, 0
1, 230160, Note_on_c, 0, 47, 95
1, 230160, Note_on_c, 1, 71, 95
1, 230160, Note_on_c, 1, 83, 64
1, 230160, Note_on_c, 1, 35, 95
1, 230160, Note_on_c, 2, 95, 64
1, 230160, Note_on_c, 2, 83, 64
1, 230160, Note_on_c, 2, 71, 127
1, 230160, Note_on_c, 2, 59, 95
1, 230160, Note_on_c, 3, 83, 64
1, 230160, Note_on_c, 3, 47, 64
1, 230160, Note_on_c, 9, 42, 73
1, 230160, Note_on_c, 9, 82, 11
1, 230160, Note_on_c, 10, 23, 91
1, 230190, Pitch_bend_c, 0, 8335
1, 230190, Pitch_bend_c, 1, 8335
1, 230190, Pitch_bend_c, 2, 8335
1, 230190, Pitch_bend_c, 3, 8335
1, 230220, Note_on_c, 10, 23, 0
1, 230240, Pitch_bend_c, 0, 8485
1, 230240, Pitch_bend_c, 1, 8485
1, 230240, Pitch_bend_c, 2, 8485
1, 230240, Pitch_bend_c, 3, 8485
1, 230255, Pitch_bend_c, 0, 8628
1, 230255, Pitch_bend_c, 1, 8628
1, 230255, Pitch_bend_c, 2, 8628
1, 230255, Pitch_bend_c, 3, 8628
1, 230270, Pitch_bend_c, 0, 8772
1, 230270, Pitch_bend_c, 1, 8772
1, 230270, Pitch_bend_c, 2, 8772
1, 230270, Pitch_bend_c, 3, 8772
1, 230280, Note_on_c, 9, 82, 0
1, 230280, Note_on_c, 9, 42, 0
1, 230280, Note_on_c, 9, 82, 11
1, 230280, Note_on_c, 10, 23, 127
1, 230285, Pitch_bend_c, 0, 9065
1, 230285, Pitch_bend_c, 1, 9065
1, 230285, Pitch_bend_c, 2, 9065
1, 230285, Pitch_bend_c, 3, 9065
1, 230300, Pitch_bend_c, 0, 9400
1, 230300, Pitch_bend_c, 1, 9400
1, 230300, Pitch_bend_c, 2, 9400
1, 230300, Pitch_bend_c, 3, 9400
1, 230320, Pitch_bend_c, 0, 9543
1, 230320, Pitch_bend_c, 1, 9543
1, 230320, Pitch_bend_c, 2, 9543
1, 230320, Pitch_bend_c, 3, 9543
1, 230335, Pitch_bend_c, 0, 9830
1, 230335, Pitch_bend_c, 1, 9830
1, 230335, Pitch_bend_c, 2, 9830
1, 230335, Pitch_bend_c, 3, 9830
1, 230350, Pitch_bend_c, 0, 10110
1, 230350, Pitch_bend_c, 1, 10110
1, 230350, Pitch_bend_c, 2, 10110
1, 230350, Pitch_bend_c, 3, 10110
1, 230365, Pitch_bend_c, 0, 10253
1, 230365, Pitch_bend_c, 1, 10253
1, 230365, Pitch_bend_c, 2, 10253
1, 230365, Pitch_bend_c, 3, 10253
1, 230380, Pitch_bend_c, 0, 10397
1, 230380, Pitch_bend_c, 1, 10397
1, 230380, Pitch_bend_c, 2, 10397
1, 230380, Pitch_bend_c, 3, 10397
1, 230400, Note_on_c, 9, 82, 0
1, 230400, Note_on_c, 2, 59, 0
1, 230400, Note_on_c, 3, 83, 0
1, 230400, Note_on_c, 1, 83, 0
1, 230400, Note_on_c, 1, 35, 0
1, 230400, Note_on_c, 2, 71, 0
1, 230400, Note_on_c, 2, 95, 0
1, 230400, Note_on_c, 2, 83, 0
1, 230400, Note_on_c, 3, 47, 0
1, 230400, Note_on_c, 0, 47, 0
1, 230400, Note_on_c, 1, 71, 0
1, 230400, Note_on_c, 4, 67, 101
1, 230400, Note_on_c, 4, 79, 101
1, 230400, Note_on_c, 4, 71, 101
1, 230400, Note_on_c, 4, 83, 101
1, 230400, Note_on_c, 6, 71, 101
1, 230400, Note_on_c, 6, 55, 101
1, 230400, Note_on_c, 6, 67, 101
1, 230400, Note_on_c, 6, 59, 101
1, 230400, Note_on_c, 9, 82, 18
1, 230400, Note_on_c, 9, 42, 103
1, 230400, Note_on_c, 9, 35, 103
1, 230488, Control_c, 11, 101, 0
1, 230489, Control_c, 11, 100, 0
1, 230490, Control_c, 11, 6, 12
1, 230491, Control_c, 11, 38, 0
1, 230495, Control_c, 11, 10, 64
1, 230495, Control_c, 11, 7, 127
1, 230495, Pitch_bend_c, 11, 8192
1, 230495, Control_c, 11, 1, 0
1, 230495, Control_c, 11, 0, 0
1, 230495, Control_c, 11, 32, 0
1, 230495, Control_c, 11, 11, 127
1, 230495, Control_c, 11, 101, 0
1, 230496, Control_c, 11, 100, 0
1, 230497, Control_c, 11, 6, 12
1, 230498, Control_c, 11, 38, 0
1, 230498, Control_c, 11, 101, 0
1, 230499, Control_c, 11, 100, 1
1, 230500, Control_c, 11, 6, 64
1, 230501, Control_c, 11, 38, 0
1, 230501, Control_c, 11, 101, 0
1, 230502, Control_c, 11, 100, 2
1, 230503, Control_c, 11, 6, 64
1, 230504, Control_c, 11, 38, 0
1, 230504, Control_c, 11, 126, 0
1, 230504, Control_c, 11, 127, 0
1, 230504, Control_c, 11, 101, 0
1, 230505, Control_c, 11, 100, 0
1, 230506, Control_c, 11, 6, 12
1, 230507, Control_c, 11, 38, 0
1, 230507, Control_c, 11, 10, 64
1, 230507, Control_c, 11, 7, 127
1, 230507, Pitch_bend_c, 11, 8192
1, 230507, Control_c, 11, 1, 0
1, 230507, Control_c, 11, 0, 0
1, 230507, Control_c, 11, 32, 0
1, 230507, Control_c, 11, 11, 127
1, 230507, Control_c, 11, 101, 0
1, 230508, Control_c, 11, 100, 0
1, 230509, Control_c, 11, 6, 12
1, 230510, Control_c, 11, 38, 0
1, 230510, Control_c, 11, 101, 0
1, 230511, Control_c, 11, 100, 1
1, 230512, Control_c, 11, 6, 64
1, 230513, Control_c, 11, 38, 0
1, 230513, Control_c, 11, 101, 0
1, 230514, Control_c, 11, 100, 2
1, 230515, Control_c, 11, 6, 64
1, 230516, Control_c, 11, 38, 0
1, 230516, Control_c, 11, 126, 0
1, 230516, Control_c, 11, 127, 0
1, 230516, Control_c, 11, 101, 0
1, 230517, Control_c, 11, 100, 0
1, 230518, Control_c, 11, 6, 12
1, 230519, Control_c, 11, 38, 0
1, 230519, Control_c, 11, 10, 64
1, 230519, Control_c, 11, 7, 127
1, 230519, Pitch_bend_c, 11, 8192
1, 230519, Control_c, 11, 1, 0
1, 230519, Control_c, 11, 0, 0
1, 230519, Control_c, 11, 32, 0
1, 230519, Control_c, 11, 11, 127
1, 230520, Note_on_c, 9, 35, 0
1, 230520, Note_on_c, 9, 82, 0
1, 230520, Note_on_c, 10, 23, 0
1, 230520, Note_on_c, 9, 42, 0
1, 230520, Note_on_c, 9, 82, 18
1, 230520, Control_c, 11, 101, 0
1, 230521, Control_c, 11, 100, 0
1, 230522, Control_c, 11, 6, 12
1, 230523, Control_c, 11, 38, 0
1, 230523, Control_c, 11, 101, 0
1, 230524, Control_c, 11, 100, 1
1, 230525, Control_c, 11, 6, 64
1, 230526, Control_c, 11, 38, 0
1, 230526, Control_c, 11, 101, 0
1, 230527, Control_c, 11, 100, 2
1, 230528, Control_c, 11, 6, 64
1, 230529, Control_c, 11, 38, 0
1, 230529, Control_c, 11, 126, 0
1, 230529, Control_c, 11, 127, 0
1, 230640, Note_on_c, 9, 82, 0
1, 230640, Note_on_c, 6, 67, 0
1, 230640, Note_on_c, 4, 67, 0
1, 230640, Note_on_c, 6, 71, 0
1, 230640, Note_on_c, 6, 55, 0
1, 230640, Note_on_c, 4, 79, 0
1, 230640, Note_on_c, 6, 59, 0
1, 230640, Note_on_c, 4, 71, 0
1, 230640, Note_on_c, 4, 83, 0
1, 230640, Note_on_c, 9, 82, 31
1, 230640, Note_on_c, 9, 42, 73
1, 230760, Note_on_c, 9, 42, 0
1, 230760, Note_on_c, 9, 82, 0
1, 230760, Note_on_c, 4, 67, 101
1, 230760, Note_on_c, 4, 79, 101
1, 230760, Note_on_c, 4, 71, 101
1, 230760, Note_on_c, 4, 83, 101
1, 230760, Note_on_c, 6, 71, 101
1, 230760, Note_on_c, 6, 59, 101
1, 230760, Note_on_c, 6, 67, 101
1, 230760, Note_on_c, 6, 55, 101
1, 230760, Note_on_c, 9, 82, 39
1, 230880, Note_on_c, 9, 82, 0
1, 230880, Note_on_c, 9, 82, 40
1, 230880, Note_on_c, 9, 42, 73
1, 230880, Note_on_c, 9, 40, 91
1, 230880, Note_on_c, 9, 35, 103
1, 230880, Note_on_c, 9, 28, 102
1, 231000, Note_on_c, 9, 28, 0
1, 231000, Note_on_c, 6, 59, 0
1, 231000, Note_on_c, 4, 79, 0
1, 231000, Note_on_c, 4, 83, 0
1, 231000, Note_on_c, 4, 71, 0
1, 231000, Note_on_c, 6, 67, 0
1, 231000, Note_on_c, 4, 67, 0
1, 231000, Note_on_c, 6, 71, 0
1, 231000, Note_on_c, 9, 40, 0
1, 231000, Note_on_c, 9, 82, 0
1, 231000, Note_on_c, 6, 55, 0
1, 231000, Note_on_c, 9, 35, 0
1, 231000, Note_on_c, 9, 42, 0
1, 231000, Note_on_c, 9, 82, 25
1, 231120, Note_on_c, 9, 82, 0
1, 231120, Note_on_c, 4, 83, 101
1, 231120, Note_on_c, 4, 71, 101
1, 231120, Note_on_c, 4, 79, 101
1, 231120, Note_on_c, 4, 67, 101
1, 231120, Note_on_c, 6, 71, 101
1, 231120, Note_on_c, 6, 59, 101
1, 231120, Note_on_c, 6, 67, 101
1, 231120, Note_on_c, 6, 55, 101
1, 231360, Note_on_c, 6, 55, 0
1, 231360, Note_on_c, 4, 83, 0
1, 231360, Note_on_c, 6, 71, 0
1, 231360, Note_on_c, 4, 71, 0
1, 231360, Note_on_c, 4, 79, 0
1, 231360, Note_on_c, 4, 67, 0
1, 231360, Note_on_c, 6, 59, 0
1, 231360, Note_on_c, 6, 67, 0
1, 231360, Note_on_c, 4, 69, 101
1, 231360, Note_on_c, 4, 81, 101
1, 231360, Note_on_c, 4, 73, 101
1, 231360, Note_on_c, 4, 85, 101
1, 231360, Note_on_c, 6, 73, 101
1, 231360, Note_on_c, 6, 61, 101
1, 231360, Note_on_c, 6, 69, 101
1, 231360, Note_on_c, 6, 57, 101
1, 231360, Note_on_c, 8, 52, 127
1, 231360, Note_on_c, 9, 41, 127
1, 231360, Note_on_c, 12, 60, 103
1, 231480, Note_on_c, 9, 41, 0
1, 231600, Note_on_c, 6, 57, 0
1, 231600, Note_on_c, 4, 73, 0
1, 231600, Note_on_c, 4, 85, 0
1, 231600, Note_on_c, 4, 69, 0
1, 231600, Note_on_c, 6, 73, 0
1, 231600, Note_on_c, 4, 81, 0
1, 231600, Note_on_c, 6, 69, 0
1, 231600, Note_on_c, 6, 61, 0
1, 231720, Note_on_c, 4, 85, 101
1, 231720, Note_on_c, 4, 73, 101
1, 231720, Note_on_c, 4, 81, 101
1, 231720, Note_on_c, 4, 69, 101
1, 231720, Note_on_c, 6, 73, 101
1, 231720, Note_on_c, 6, 61, 101
1, 231720, Note_on_c, 6, 69, 101
1, 231720, Note_on_c, 6, 57, 101
1, 231720, Note_on_c, 9, 44, 80
1, 231720, Note_on_c, 9, 38, 80
1, 231840, Note_on_c, 9, 38, 0
1, 231840, Note_on_c, 9, 44, 0
1, 231840, Note_on_c, 9, 38, 80
1, 231960, Note_on_c, 9, 38, 0
1, 231960, Note_on_c, 6, 69, 0
1, 231960, Note_on_c, 4, 85, 0
1, 231960, Note_on_c, 4, 73, 0
1, 231960, Note_on_c, 6, 61, 0
1, 231960, Note_on_c, 4, 81, 0
1, 231960, Note_on_c, 6, 73, 0
1, 231960, Note_on_c, 6, 57, 0
1, 231960, Note_on_c, 4, 69, 0
1, 232080, Note_on_c, 8, 52, 0
1, 232080, Note_on_c, 4, 69, 101
1, 232080, Note_on_c, 4, 81, 101
1, 232080, Note_on_c, 4, 73, 101
1, 232080, Note_on_c, 4, 85, 101
1, 232080, Note_on_c, 6, 73, 101
1, 232080, Note_on_c, 6, 61, 101
1, 232080, Note_on_c, 6, 69, 101
1, 232080, Note_on_c, 6, 57, 101
1, 232080, Note_on_c, 8, 56, 127
1, 232080, Note_on_c, 9, 43, 127
1, 232200, Note_on_c, 9, 43, 0
1, 232320, Note_on_c, 6, 69, 0
1, 232320, Note_on_c, 4, 81, 0
1, 232320, Note_on_c, 4, 73, 0
1, 232320, Note_on_c, 8, 56, 0
1, 232320, Note_on_c, 4, 85, 0
1, 232320, Note_on_c, 4, 69, 0
1, 232320, Note_on_c, 6, 57, 0
1, 232320, Note_on_c, 6, 61, 0
1, 232320, Note_on_c, 6, 73, 0
1, 232320, Control_c, 13, 7, 0
1, 232320, Pitch_bend_c, 13, 8192
1, 232320, Note_on_c, 13, 75, 63
1, 232320, Note_on_c, 13, 74, 63
1, 232320, Note_on_c, 13, 73, 63
1, 232320, Note_on_c, 13, 72, 63
1, 232320, Note_on_c, 13, 60, 63
1, 232320, Note_on_c, 13, 71, 63
1, 232320, Note_on_c, 13, 70, 63
1, 232320, Note_on_c, 13, 69, 63
1, 232320, Note_on_c, 13, 68, 63
1, 232320, Note_on_c, 13, 67, 63
1, 232320, Note_on_c, 13, 66, 63
1, 232320, Note_on_c, 13, 65, 63
1, 232320, Note_on_c, 13, 64, 63
1, 232320, Note_on_c, 13, 62, 63
1, 232320, Note_on_c, 13, 63, 63
1, 232320, Note_on_c, 13, 61, 63
1, 232440, Note_on_c, 12, 60, 0
1, 234240, Note_on_c, 4, 90, 101
1, 234240, Note_on_c, 4, 83, 101
1, 234240, Note_on_c, 4, 66, 101
1, 234240, Note_on_c, 4, 71, 101
1, 234240, Note_on_c, 4, 78, 101
1, 234240, Note_on_c, 6, 78, 127
1, 234240, Note_on_c, 6, 66, 101
1, 234240, Note_on_c, 6, 59, 101
1, 234240, Note_on_c, 6, 71, 101
1, 234240, Note_on_c, 6, 54, 101
1, 234240, Note_on_c, 8, 31, 127
1, 234240, Note_on_c, 8, 35, 127
1, 234240, Note_on_c, 8, 43, 127
1, 234240, Note_on_c, 9, 57, 103
1, 234240, Note_on_c, 9, 52, 127
1, 234240, Note_on_c, 9, 49, 103
1, 234240, Note_on_c, 9, 35, 127
1, 234240, Note_on_c, 9, 43, 127
1, 234240, Control_c, 13, 7, 127
1, 234300, Control_c, 13, 7, 127
1, 234360, Control_c, 13, 7, 125
1, 234420, Control_c, 13, 7, 124
1, 234480, Note_on_c, 6, 54, 0
1, 234480, Note_on_c, 6, 78, 0
1, 234480, Note_on_c, 4, 90, 0
1, 234480, Note_on_c, 4, 78, 0
1, 234480, Note_on_c, 4, 83, 0
1, 234480, Note_on_c, 4, 71, 0
1, 234480, Note_on_c, 4, 66, 0
1, 234480, Note_on_c, 6, 71, 0
1, 234480, Note_on_c, 6, 59, 0
1, 234480, Note_on_c, 6, 66, 0
1, 234480, Control_c, 13, 7, 121
1, 234540, Control_c, 13, 7, 119
1, 234600, Control_c, 13, 7, 117
1, 234660, Control_c, 13, 7, 114
1, 234720, Control_c, 13, 7, 112
1, 234780, Control_c, 13, 7, 110
1, 234840, Control_c, 13, 7, 108
1, 234900, Control_c, 13, 7, 106
1, 234960, Control_c, 13, 7, 105
1, 235020, Control_c, 13, 7, 103
1, 235080, Control_c, 13, 7, 101
1, 235140, Control_c, 13, 7, 99
1, 235200, Control_c, 13, 7, 96
1, 235260, Control_c, 13, 7, 95
1, 235320, Control_c, 13, 7, 92
1, 235380, Control_c, 13, 7, 91
1, 235440, Control_c, 13, 7, 90
1, 235500, Control_c, 13, 7, 88
1, 235560, Control_c, 13, 7, 86
1, 235620, Control_c, 13, 7, 83
1, 235680, Control_c, 13, 7, 82
1, 235740, Control_c, 13, 7, 80
1, 235800, Control_c, 13, 7, 77
1, 235860, Control_c, 13, 7, 76
1, 235920, Control_c, 13, 7, 74
1, 235980, Control_c, 13, 7, 71
1, 236040, Control_c, 13, 7, 69
1, 236100, Control_c, 13, 7, 68
1, 236160, Note_on_c, 9, 43, 0
1, 236160, Note_on_c, 9, 35, 0
1, 236160, Note_on_c, 8, 31, 0
1, 236160, Note_on_c, 8, 43, 0
1, 236160, Note_on_c, 8, 35, 0
1, 236160, Control_c, 13, 7, 66
1, 236220, Control_c, 13, 7, 63
1, 236280, Control_c, 13, 7, 60
1, 236340, Control_c, 13, 7, 59
1, 236400, Control_c, 13, 7, 57
1, 236460, Control_c, 13, 7, 55
1, 236520, Control_c, 13, 7, 52
1, 236580, Control_c, 13, 7, 50
1, 236640, Control_c, 13, 7, 48
1, 236700, Control_c, 13, 7, 47
1, 236760, Control_c, 13, 7, 45
1, 236820, Control_c, 13, 7, 44
1, 236880, Control_c, 13, 7, 42
1, 236940, Control_c, 13, 7, 41
1, 237000, Control_c, 13, 7, 38
1, 237060, Control_c, 13, 7, 36
1, 237120, Control_c, 13, 7, 34
1, 237180, Control_c, 13, 7, 33
1, 237240, Control_c, 13, 7, 31
1, 237300, Control_c, 13, 7, 29
1, 237360, Control_c, 13, 7, 29
1, 237420, Control_c, 13, 7, 26
1, 237480, Control_c, 13, 7, 24
1, 237540, Control_c, 13, 7, 21
1, 237600, Control_c, 13, 7, 19
1, 237660, Control_c, 13, 7, 17
1, 237720, Control_c, 13, 7, 15
1, 237780, Control_c, 13, 7, 13
1, 237840, Control_c, 13, 7, 11
1, 237900, Control_c, 13, 7, 9
1, 237960, Control_c, 13, 7, 8
1, 238020, Control_c, 13, 7, 6
1, 238080, Note_on_c, 13, 73, 0
1, 238080, Note_on_c, 13, 61, 0
1, 238080, Note_on_c, 13, 72, 0
1, 238080, Note_on_c, 13, 67, 0
1, 238080, Note_on_c, 9, 49, 0
1, 238080, Note_on_c, 9, 52, 0
1, 238080, Note_on_c, 13, 75, 0
1, 238080, Note_on_c, 13, 60, 0
1, 238080, Note_on_c, 13, 62, 0
1, 238080, Note_on_c, 9, 57, 0
1, 238080, Note_on_c, 13, 63, 0
1, 238080, Note_on_c, 13, 70, 0
1, 238080, Note_on_c, 13, 64, 0
1, 238080, Note_on_c, 13, 69, 0
1, 238080, Note_on_c, 13, 71, 0
1, 238080, Note_on_c, 13, 65, 0
1, 238080, Note_on_c, 13, 66, 0
1, 238080, Note_on_c, 13, 68, 0
1, 238080, Note_on_c, 13, 74, 0
1, 238080, Control_c, 13, 7, 0
1, 240088, Control_c, 0, 101, 0
1, 240089, Control_c, 0, 100, 0
1, 240090, Control_c, 0, 6, 12
1, 240091, Control_c, 0, 38, 0
1, 240091, Control_c, 1, 101, 0
1, 240092, Control_c, 1, 100, 0
1, 240093, Control_c, 1, 6, 12
1, 240094, Control_c, 1, 38, 0
1, 240094, Control_c, 2, 101, 0
1, 240095, Control_c, 2, 100, 0
1, 240096, Control_c, 2, 6, 12
1, 240097, Control_c, 2, 38, 0
1, 240097, Control_c, 3, 101, 0
1, 240098, Control_c, 3, 100, 0
1, 240099, Control_c, 3, 6, 12
1, 240100, Control_c, 3, 38, 0
1, 240100, Control_c, 4, 101, 0
1, 240101, Control_c, 4, 100, 0
1, 240102, Control_c, 4, 6, 12
1, 240103, Control_c, 4, 38, 0
1, 240103, Control_c, 6, 101, 0
1, 240104, Control_c, 6, 100, 0
1, 240105, Control_c, 6, 6, 12
1, 240106, Control_c, 6, 38, 0
1, 240106, Control_c, 7, 101, 0
1, 240107, Control_c, 7, 100, 0
1, 240108, Control_c, 7, 6, 12
1, 240109, Control_c, 7, 38, 0
1, 240109, Control_c, 8, 101, 0
1, 240110, Control_c, 8, 100, 0
1, 240111, Control_c, 8, 6, 12
1, 240112, Control_c, 8, 38, 0
1, 240112, Control_c, 9, 101, 0
1, 240113, Control_c, 9, 100, 0
1, 240114, Control_c, 9, 6, 12
1, 240115, Control_c, 9, 38, 0
1, 240115, Control_c, 10, 101, 0
1, 240116, Control_c, 10, 100, 0
1, 240117, Control_c, 10, 6, 12
1, 240118, Control_c, 10, 38, 0
1, 240118, Control_c, 12, 101, 0
1, 240119, Control_c, 12, 100, 0
1, 240120, Control_c, 12, 6, 12
1, 240121, Control_c, 12, 38, 0
1, 240121, Control_c, 13, 101, 0
1, 240122, Control_c, 13, 100, 0
1, 240123, Control_c, 13, 6, 12
1, 240124, Control_c, 13, 38, 0
1, 240124, Control_c, 0, 10, 64
1, 240124, Control_c, 0, 7, 127
1, 240124, Pitch_bend_c, 0, 10397
1, 240124, Control_c, 1, 10, 64
1, 240124, Control_c, 1, 7, 127
1, 240124, Pitch_bend_c, 1, 10397
1, 240124, Control_c, 1, 91, 0
1, 240124, Control_c, 1, 93, 0
1, 240124, Pitch_bend_c, 2, 10397
1, 240124, Control_c, 2, 91, 0
1, 240124, Control_c, 2, 93, 0
1, 240124, Control_c, 3, 10, 64
1, 240124, Control_c, 3, 7, 127
1, 240124, Pitch_bend_c, 3, 10397
1, 240124, Control_c, 3, 91, 0
1, 240124, Control_c, 3, 93, 0
1, 240124, Control_c, 4, 10, 64
1, 240124, Control_c, 4, 7, 105
1, 240124, Pitch_bend_c, 4, 8192
1, 240124, Control_c, 4, 93, 0
1, 240124, Control_c, 4, 11, 104
1, 240124, Control_c, 6, 10, 64
1, 240124, Control_c, 6, 7, 127
1, 240124, Pitch_bend_c, 6, 8192
1, 240124, Control_c, 6, 91, 0
1, 240124, Control_c, 6, 93, 0
1, 240124, Control_c, 6, 11, 98
1, 240124, Control_c, 7, 10, 64
1, 240124, Control_c, 7, 7, 108
1, 240124, Pitch_bend_c, 7, 8192
1, 240124, Control_c, 7, 1, 0
1, 240124, Control_c, 7, 0, 0
1, 240124, Control_c, 7, 32, 0
1, 240124, Control_c, 7, 11, 97
1, 240124, Control_c, 8, 10, 64
1, 240124, Control_c, 8, 7, 127
1, 240124, Pitch_bend_c, 8, 8192
1, 240124, Control_c, 8, 91, 0
1, 240124, Control_c, 8, 93, 0
1, 240124, Pitch_bend_c, 9, 8192
1, 240124, Control_c, 9, 91, 0
1, 240124, Control_c, 9, 93, 0
1, 240124, Control_c, 10, 10, 64
1, 240124, Control_c, 10, 7, 77
1, 240124, Pitch_bend_c, 10, 8192
1, 240124, Program_c, 10, 30
1, 240124, Control_c, 10, 1, 0
1, 240124, Control_c, 10, 11, 127
1, 240124, Control_c, 12, 10, 64
1, 240124, Control_c, 12, 7, 127
1, 240124, Pitch_bend_c, 12, 8192
1, 240124, Control_c, 12, 1, 0
1, 240124, Control_c, 12, 11, 127
1, 240124, Control_c, 13, 10, 64
1, 240124, Pitch_bend_c, 13, 8192
1, 240124, Control_c, 13, 1, 0
1, 240124, Control_c, 13, 11, 67
1, 240124, Control_c, 9, 0, 0
1, 240124, Control_c, 9, 32, 0
1, 240124, Program_c, 9, 16
1, 240124, Control_c, 7, 0, 1
1, 240124, Control_c, 7, 32, 0
1, 240124, Program_c, 7, 80
1, 240124, Control_c, 6, 0, 0
1, 240124, Control_c, 6, 32, 0
1, 240124, Program_c, 6, 48
1, 240124, Control_c, 4, 0, 0
1, 240124, Control_c, 4, 32, 0
1, 240124, Program_c, 4, 18
1, 240124, Control_c, 4, 91, 0
1, 240124, Control_c, 3, 0, 0
1, 240124, Control_c, 3, 32, 0
1, 240124, Program_c, 3, 62
1, 240124, Control_c, 2, 0, 1
1, 240124, Control_c, 2, 32, 0
1, 240124, Program_c, 2, 81
1, 240124, Control_c, 1, 0, 1
1, 240124, Control_c, 1, 32, 0
1, 240124, Program_c, 1, 80
1, 240124, Control_c, 0, 0, 8
1, 240124, Control_c, 0, 32, 0
1, 240124, Program_c, 0, 80
1, 240124, Control_c, 0, 1, 0
1, 240124, Control_c, 0, 91, 0
1, 240124, Control_c, 0, 93, 0
1, 240124, Control_c, 2, 10, 64
1, 240124, Control_c, 2, 7, 127
1, 240124, Control_c, 9, 10, 64
1, 240124, Control_c, 9, 7, 127
1, 240124, Control_c, 0, 101, 0
1, 240125, Control_c, 0, 100, 0
1, 240126, Control_c, 0, 6, 12
1, 240127, Control_c, 0, 38, 0
1, 240127, Control_c, 1, 101, 0
1, 240128, Control_c, 1, 100, 0
1, 240129, Control_c, 1, 6, 12
1, 240130, Control_c, 1, 38, 0
1, 240130, Control_c, 2, 101, 0
1, 240131, Control_c, 2, 100, 0
1, 240132, Control_c, 2, 6, 12
1, 240133, Control_c, 2, 38, 0
1, 240133, Control_c, 3, 101, 0
1, 240134, Control_c, 3, 100, 0
1, 240135, Control_c, 3, 6, 12
1, 240136, Control_c, 3, 38, 0
1, 240136, Control_c, 4, 101, 0
1, 240137, Control_c, 4, 100, 2
1, 240138, Control_c, 4, 6, 76
1, 240139, Control_c, 4, 38, 0
1, 240139, Control_c, 6, 101, 0
1, 240140, Control_c, 6, 100, 0
1, 240141, Control_c, 6, 6, 12
1, 240142, Control_c, 6, 38, 0
1, 240142, Control_c, 7, 101, 0
1, 240143, Control_c, 7, 100, 0
1, 240144, Control_c, 7, 6, 127
1, 240145, Control_c, 7, 38, 0
1, 240145, Control_c, 8, 101, 0
1, 240146, Control_c, 8, 100, 0
1, 240147, Control_c, 8, 6, 12
1, 240148, Control_c, 8, 38, 0
1, 240148, Control_c, 9, 101, 0
1, 240149, Control_c, 9, 100, 0
1, 240150, Control_c, 9, 6, 12
1, 240151, Control_c, 9, 38, 0
1, 240151, Control_c, 10, 101, 0
1, 240152, Control_c, 10, 100, 0
1, 240153, Control_c, 10, 6, 12
1, 240154, Control_c, 10, 38, 0
1, 240154, Control_c, 12, 101, 0
1, 240155, Control_c, 12, 100, 0
1, 240156, Control_c, 12, 6, 12
1, 240157, Control_c, 12, 38, 0
1, 240157, Control_c, 13, 101, 0
1, 240158, Control_c, 13, 100, 0
1, 240159, Control_c, 13, 6, 64
1, 240160, Control_c, 13, 38, 0
1, 240160, Control_c, 0, 10, 64
1, 240160, Control_c, 0, 7, 127
1, 240160, Pitch_bend_c, 0, 10397
1, 240160, Control_c, 1, 10, 64
1, 240160, Control_c, 1, 7, 127
1, 240160, Pitch_bend_c, 1, 10397
1, 240160, Control_c, 1, 91, 0
1, 240160, Control_c, 1, 93, 0
1, 240160, Control_c, 2, 10, 64
1, 240160, Control_c, 2, 7, 127
1, 240160, Pitch_bend_c, 2, 10397
1, 240160, Control_c, 2, 91, 0
1, 240160, Control_c, 2, 93, 0
1, 240160, Control_c, 3, 10, 64
1, 240160, Control_c, 3, 7, 127
1, 240160, Pitch_bend_c, 3, 10397
1, 240160, Control_c, 3, 91, 0
1, 240160, Control_c, 3, 93, 0
1, 240160, Control_c, 4, 101, 0
1, 240161, Control_c, 4, 100, 0
1, 240162, Control_c, 4, 6, 12
1, 240163, Control_c, 4, 38, 0
1, 240163, Control_c, 6, 10, 64
1, 240163, Control_c, 6, 7, 127
1, 240163, Pitch_bend_c, 6, 8192
1, 240163, Control_c, 6, 91, 0
1, 240163, Control_c, 6, 93, 0
1, 240163, Control_c, 6, 11, 98
1, 240163, Control_c, 8, 7, 127
1, 240163, Pitch_bend_c, 8, 8192
1, 240163, Control_c, 8, 91, 0
1, 240163, Control_c, 8, 93, 0
1, 240163, Control_c, 9, 10, 64
1, 240163, Control_c, 9, 7, 127
1, 240163, Pitch_bend_c, 9, 8192
1, 240163, Control_c, 9, 93, 0
1, 240163, Control_c, 12, 101, 0
1, 240164, Control_c, 12, 100, 1
1, 240165, Control_c, 12, 6, 64
1, 240166, Control_c, 12, 38, 0
1, 240166, Control_c, 9, 0, 0
1, 240166, Control_c, 9, 32, 0
1, 240166, Program_c, 9, 16
1, 240166, Control_c, 9, 91, 0
1, 240166, Control_c, 6, 0, 0
1, 240166, Control_c, 6, 32, 0
1, 240166, Program_c, 6, 48
1, 240166, Control_c, 3, 0, 0
1, 240166, Control_c, 3, 32, 0
1, 240166, Program_c, 3, 62
1, 240166, Control_c, 13, 101, 0
1, 240167, Control_c, 13, 100, 1
1, 240168, Control_c, 13, 6, 64
1, 240169, Control_c, 13, 38, 0
1, 240169, Control_c, 2, 0, 1
1, 240169, Control_c, 2, 32, 0
1, 240169, Program_c, 2, 81
1, 240169, Control_c, 7, 101, 0
1, 240170, Control_c, 7, 100, 1
1, 240171, Control_c, 7, 6, 64
1, 240172, Control_c, 7, 38, 0
1, 240172, Control_c, 1, 0, 1
1, 240172, Control_c, 1, 32, 0
1, 240172, Program_c, 1, 80
1, 240172, Control_c, 8, 10, 64
1, 240172, Control_c, 0, 0, 8
1, 240172, Control_c, 0, 32, 0
1, 240172, Program_c, 0, 80
1, 240172, Control_c, 0, 1, 0
1, 240172, Control_c, 0, 91, 0
1, 240172, Control_c, 0, 93, 0
1, 240172, Control_c, 10, 101, 0
1, 240173, Control_c, 10, 100, 1
1, 240174, Control_c, 10, 6, 64
1, 240175, Control_c, 10, 38, 0
1, 240175, Control_c, 4, 10, 64
1, 240175, Control_c, 4, 7, 105
1, 240175, Pitch_bend_c, 4, 8192
1, 240175, Control_c, 4, 11, 104
1, 240175, Control_c, 4, 0, 0
1, 240175, Control_c, 4, 32, 0
1, 240175, Program_c, 4, 18
1, 240175, Control_c, 4, 91, 0
1, 240175, Control_c, 4, 93, 0
1, 240175, Control_c, 0, 101, 0
1, 240176, Control_c, 0, 100, 0
1, 240177, Control_c, 0, 6, 12
1, 240178, Control_c, 0, 38, 0
1, 240178, Control_c, 1, 101, 0
1, 240179, Control_c, 1, 100, 0
1, 240180, Control_c, 1, 6, 12
1, 240181, Control_c, 1, 38, 0
1, 240181, Control_c, 2, 101, 0
1, 240182, Control_c, 2, 100, 0
1, 240183, Control_c, 2, 6, 12
1, 240184, Control_c, 2, 38, 0
1, 240184, Control_c, 6, 101, 0
1, 240185, Control_c, 6, 100, 0
1, 240186, Control_c, 6, 6, 12
1, 240187, Control_c, 6, 38, 0
1, 240187, Control_c, 9, 101, 0
1, 240188, Control_c, 9, 100, 0
1, 240189, Control_c, 9, 6, 12
1, 240190, Control_c, 9, 38, 0
1, 240190, Control_c, 0, 10, 64
1, 240190, Control_c, 0, 7, 127
1, 240190, Pitch_bend_c, 0, 10397
1, 240190, Control_c, 6, 10, 64
1, 240190, Control_c, 6, 7, 127
1, 240190, Pitch_bend_c, 6, 8192
1, 240190, Control_c, 6, 91, 0
1, 240190, Control_c, 6, 93, 0
1, 240190, Control_c, 6, 11, 98
1, 240190, Pitch_bend_c, 8, 8192
1, 240190, Control_c, 8, 91, 0
1, 240190, Control_c, 8, 93, 0
1, 240190, Control_c, 9, 10, 64
1, 240190, Control_c, 9, 7, 127
1, 240190, Pitch_bend_c, 9, 8192
1, 240190, Control_c, 12, 101, 0
1, 240191, Control_c, 12, 100, 2
1, 240192, Control_c, 12, 6, 64
1, 240193, Control_c, 12, 38, 0
1, 240193, Control_c, 13, 101, 0
1, 240194, Control_c, 13, 100, 2
1, 240195, Control_c, 13, 6, 64
1, 240196, Control_c, 13, 38, 0
1, 240196, Control_c, 9, 0, 0
1, 240196, Control_c, 9, 32, 0
1, 240196, Program_c, 9, 16
1, 240196, Control_c, 10, 101, 0
1, 240197, Control_c, 10, 100, 2
1, 240198, Control_c, 10, 6, 88
1, 240199, Control_c, 10, 38, 0
1, 240199, Program_c, 8, 117
1, 240199, Program_c, 8, 117
1, 240199, Control_c, 6, 0, 0
1, 240199, Control_c, 6, 32, 0
1, 240199, Control_c, 8, 101, 0
1, 240200, Control_c, 8, 100, 0
1, 240201, Control_c, 8, 6, 12
1, 240202, Control_c, 8, 38, 0
1, 240202, Program_c, 6, 48
1, 240202, Control_c, 8, 10, 64
1, 240202, Control_c, 8, 7, 127
1, 240202, Control_c, 0, 0, 8
1, 240202, Control_c, 0, 32, 0
1, 240202, Control_c, 3, 101, 0
1, 240203, Control_c, 3, 100, 0
1, 240204, Control_c, 3, 6, 12
1, 240205, Control_c, 3, 38, 0
1, 240205, Program_c, 0, 80
1, 240205, Control_c, 0, 1, 0
1, 240205, Control_c, 0, 91, 0
1, 240205, Control_c, 0, 93, 0
1, 240205, Control_c, 1, 10, 64
1, 240205, Control_c, 1, 7, 127
1, 240205, Pitch_bend_c, 1, 10397
1, 240205, Control_c, 7, 101, 0
1, 240206, Control_c, 7, 100, 2
1, 240207, Control_c, 7, 6, 64
1, 240208, Control_c, 7, 38, 0
1, 240208, Control_c, 1, 0, 1
1, 240208, Control_c, 1, 32, 0
1, 240208, Program_c, 1, 80
1, 240208, Control_c, 1, 91, 0
1, 240208, Control_c, 1, 93, 0
1, 240208, Control_c, 2, 10, 64
1, 240208, Control_c, 2, 7, 127
1, 240208, Pitch_bend_c, 2, 10397
1, 240208, Control_c, 9, 91, 0
1, 240208, Control_c, 9, 93, 0
1, 240208, Control_c, 2, 0, 1
1, 240208, Control_c, 2, 32, 0
1, 240208, Program_c, 2, 81
1, 240208, Control_c, 2, 91, 0
1, 240208, Control_c, 2, 93, 0
1, 240208, Control_c, 3, 10, 64
1, 240208, Control_c, 3, 7, 127
1, 240208, Pitch_bend_c, 3, 10397
1, 240208, Control_c, 3, 0, 0
1, 240208, Control_c, 3, 32, 0
1, 240208, Program_c, 3, 62
1, 240208, Control_c, 3, 91, 0
1, 240208, Control_c, 3, 93, 0
1, 240208, Control_c, 4, 101, 0
1, 240209, Control_c, 4, 100, 2
1, 240210, Control_c, 4, 6, 76
1, 240211, Control_c, 4, 38, 0
1, 240211, Control_c, 7, 126, 0
1, 240211, Control_c, 7, 127, 0
1, 240211, Control_c, 10, 126, 0
1, 240211, Control_c, 10, 127, 0
1, 240211, Control_c, 12, 126, 0
1, 240211, Control_c, 12, 127, 0
1, 240211, Control_c, 13, 126, 0
1, 240211, Control_c, 13, 127, 0
1, 240211, Control_c, 4, 101, 0
1, 240212, Control_c, 4, 100, 0
1, 240213, Control_c, 4, 6, 12
1, 240214, Control_c, 4, 38, 0
1, 240214, Control_c, 7, 101, 0
1, 240215, Control_c, 7, 100, 0
1, 240216, Control_c, 7, 6, 12
1, 240217, Control_c, 7, 38, 0
1, 240217, Control_c, 10, 101, 0
1, 240218, Control_c, 10, 100, 0
1, 240219, Control_c, 10, 6, 12
1, 240220, Control_c, 10, 38, 0
1, 240220, Control_c, 12, 101, 0
1, 240221, Control_c, 12, 100, 0
1, 240222, Control_c, 12, 6, 12
1, 240223, Control_c, 12, 38, 0
1, 240223, Control_c, 13, 101, 0
1, 240224, Control_c, 13, 100, 0
1, 240225, Control_c, 13, 6, 12
1, 240226, Control_c, 13, 38, 0
1, 240226, Control_c, 4, 10, 64
1, 240226, Control_c, 4, 7, 105
1, 240226, Pitch_bend_c, 4, 8192
1, 240226, Control_c, 7, 7, 108
1, 240226, Pitch_bend_c, 7, 8192
1, 240226, Control_c, 7, 32, 0
1, 240226, Control_c, 7, 11, 97
1, 240226, Control_c, 10, 10, 64
1, 240226, Control_c, 10, 7, 77
1, 240226, Pitch_bend_c, 10, 8192
1, 240226, Control_c, 10, 1, 0
1, 240226, Control_c, 10, 11, 127
1, 240226, Control_c, 12, 10, 64
1, 240226, Control_c, 12, 7, 127
1, 240226, Pitch_bend_c, 12, 8192
1, 240226, Control_c, 12, 1, 0
1, 240226, Control_c, 12, 11, 127
1, 240226, Control_c, 13, 10, 64
1, 240226, Pitch_bend_c, 13, 8192
1, 240226, Control_c, 13, 1, 0
1, 240226, Control_c, 13, 11, 67
1, 240226, Control_c, 10, 0, 0
1, 240226, Control_c, 10, 32, 0
1, 240226, Program_c, 10, 30
1, 240226, Control_c, 7, 0, 1
1, 240226, Control_c, 7, 32, 0
1, 240226, Program_c, 7, 80
1, 240226, Control_c, 7, 1, 0
1, 240226, Control_c, 7, 0, 0
1, 240226, Control_c, 4, 0, 0
1, 240226, Control_c, 4, 32, 0
1, 240226, Program_c, 4, 18
1, 240226, Control_c, 4, 91, 0
1, 240226, Control_c, 4, 93, 0
1, 240226, Control_c, 4, 11, 104
1, 240226, Control_c, 7, 10, 64
1, 240226, Control_c, 4, 101, 0
1, 240227, Control_c, 4, 100, 2
1, 240228, Control_c, 4, 6, 76
1, 240229, Control_c, 4, 38, 0
1, 240229, Control_c, 7, 101, 0
1, 240230, Control_c, 7, 100, 0
1, 240231, Control_c, 7, 6, 127
1, 240232, Control_c, 7, 38, 0
1, 240232, Control_c, 10, 101, 0
1, 240233, Control_c, 10, 100, 0
1, 240234, Control_c, 10, 6, 12
1, 240235, Control_c, 10, 38, 0
1, 240235, Control_c, 12, 101, 0
1, 240236, Control_c, 12, 100, 0
1, 240237, Control_c, 12, 6, 12
1, 240238, Control_c, 12, 38, 0
1, 240238, Control_c, 13, 101, 0
1, 240239, Control_c, 13, 100, 0
1, 240240, Control_c, 13, 6, 64
1, 240241, Control_c, 13, 38, 0
1, 240241, Control_c, 7, 101, 0
1, 240242, Control_c, 7, 100, 1
1, 240243, Control_c, 7, 6, 64
1, 240244, Control_c, 7, 38, 0
1, 240244, Control_c, 10, 101, 0
1, 240245, Control_c, 10, 100, 1
1, 240246, Control_c, 10, 6, 64
1, 240247, Control_c, 10, 38, 0
1, 240247, Control_c, 12, 101, 0
1, 240248, Control_c, 12, 100, 1
1, 240249, Control_c, 12, 6, 64
1, 240250, Control_c, 12, 38, 0
1, 240250, Control_c, 13, 101, 0
1, 240251, Control_c, 13, 100, 1
1, 240252, Control_c, 13, 6, 64
1, 240253, Control_c, 13, 38, 0
1, 240253, Control_c, 7, 101, 0
1, 240254, Control_c, 7, 100, 2
1, 240255, Control_c, 7, 6, 64
1, 240256, Control_c, 7, 38, 0
1, 240256, Control_c, 10, 101, 0
1, 240257, Control_c, 10, 100, 2
1, 240258, Control_c, 10, 6, 88
1, 240259, Control_c, 10, 38, 0
1, 240259, Control_c, 12, 101, 0
1, 240260, Control_c, 12, 100, 2
1, 240261, Control_c, 12, 6, 64
1, 240262, Control_c, 12, 38, 0
1, 240262, Control_c, 13, 101, 0
1, 240263, Control_c, 13, 100, 2
1, 240264, Control_c, 13, 6, 64
1, 240265, Control_c, 13, 38, 0
1, 240265, Control_c, 7, 126, 0
1, 240265, Control_c, 7, 127, 0
1, 240265, Control_c, 10, 126, 0
1, 240265, Control_c, 10, 127, 0
1, 240265, Control_c, 12, 126, 0
1, 240265, Control_c, 12, 127, 0
1, 240265, Control_c, 13, 126, 0
1, 240265, Control_c, 13, 127, 0
1, 240265, Control_c, 7, 101, 0
1, 240266, Control_c, 7, 100, 0
1, 240267, Control_c, 7, 6, 12
1, 240268, Control_c, 7, 38, 0
1, 240268, Control_c, 10, 101, 0
1, 240269, Control_c, 10, 100, 0
1, 240270, Control_c, 10, 6, 12
1, 240271, Control_c, 10, 38, 0
1, 240271, Control_c, 12, 101, 0
1, 240272, Control_c, 12, 100, 0
1, 240273, Control_c, 12, 6, 12
1, 240274, Control_c, 12, 38, 0
1, 240274, Control_c, 13, 101, 0
1, 240275, Control_c, 13, 100, 0
1, 240276, Control_c, 13, 6, 12
1, 240277, Control_c, 13, 38, 0
1, 240277, Control_c, 7, 10, 64
1, 240277, Control_c, 7, 7, 108
1, 240277, Pitch_bend_c, 7, 8192
1, 240277, Control_c, 10, 10, 64
1, 240277, Control_c, 10, 7, 77
1, 240277, Pitch_bend_c, 10, 8192
1, 240277, Control_c, 10, 1, 0
1, 240277, Control_c, 10, 0, 0
1, 240277, Control_c, 10, 32, 0
1, 240277, Control_c, 10, 11, 127
1, 240277, Control_c, 12, 10, 64
1, 240277, Control_c, 12, 7, 127
1, 240277, Pitch_bend_c, 12, 8192
1, 240277, Control_c, 12, 1, 0
1, 240277, Control_c, 12, 0, 0
1, 240277, Control_c, 12, 32, 0
1, 240277, Control_c, 12, 11, 127
1, 240277, Control_c, 13, 10, 64
1, 240277, Pitch_bend_c, 13, 8192
1, 240277, Control_c, 13, 1, 0
1, 240277, Control_c, 13, 0, 0
1, 240277, Control_c, 13, 32, 0
1, 240277, Control_c, 13, 11, 67
1, 240277, Program_c, 13, 126
1, 240277, Program_c, 13, 126
1, 240277, Program_c, 12, 119
1, 240277, Program_c, 12, 119
1, 240277, Control_c, 10, 0, 0
1, 240277, Control_c, 10, 32, 0
1, 240277, Program_c, 10, 30
1, 240277, Control_c, 7, 0, 1
1, 240277, Control_c, 7, 32, 0
1, 240277, Program_c, 7, 80
1, 240277, Control_c, 7, 1, 0
1, 240277, Control_c, 7, 0, 0
1, 240277, Control_c, 7, 32, 0
1, 240277, Control_c, 7, 11, 97
1, 240277, Control_c, 7, 101, 0
1, 240278, Control_c, 7, 100, 0
1, 240279, Control_c, 7, 6, 127
1, 240280, Control_c, 7, 38, 0
1, 240280, Control_c, 10, 101, 0
1, 240281, Control_c, 10, 100, 0
1, 240282, Control_c, 10, 6, 12
1, 240283, Control_c, 10, 38, 0
1, 240283, Control_c, 12, 101, 0
1, 240284, Control_c, 12, 100, 0
1, 240285, Control_c, 12, 6, 12
1, 240286, Control_c, 12, 38, 0
1, 240286, Control_c, 13, 101, 0
1, 240287, Control_c, 13, 100, 0
1, 240288, Control_c, 13, 6, 64
1, 240289, Control_c, 13, 38, 0
1, 240289, Control_c, 7, 101, 0
1, 240290, Control_c, 7, 100, 1
1, 240291, Control_c, 7, 6, 64
1, 240292, Control_c, 7, 38, 0
1, 240292, Control_c, 10, 101, 0
1, 240293, Control_c, 10, 100, 1
1, 240294, Control_c, 10, 6, 64
1, 240295, Control_c, 10, 38, 0
1, 240295, Control_c, 12, 101, 0
1, 240296, Control_c, 12, 100, 1
1, 240297, Control_c, 12, 6, 64
1, 240298, Control_c, 12, 38, 0
1, 240298, Control_c, 13, 101, 0
1, 240299, Control_c, 13, 100, 1
1, 240300, Control_c, 13, 6, 64
1, 240301, Control_c, 13, 38, 0
1, 240301, Control_c, 7, 101, 0
1, 240302, Control_c, 7, 100, 2
1, 240303, Control_c, 7, 6, 64
1, 240304, Control_c, 7, 38, 0
1, 240304, Control_c, 10, 101, 0
1, 240305, Control_c, 10, 100, 2
1, 240306, Control_c, 10, 6, 88
1, 240307, Control_c, 10, 38, 0
1, 240307, Control_c, 12, 101, 0
1, 240308, Control_c, 12, 100, 2
1, 240309, Control_c, 12, 6, 64
1, 240310, Control_c, 12, 38, 0
1, 240310, Control_c, 13, 101, 0
1, 240311, Control_c, 13, 100, 2
1, 240312, Control_c, 13, 6, 64
1, 240313, Control_c, 13, 38, 0
1, 240313, Control_c, 7, 126, 0
1, 240313, Control_c, 7, 127, 0
1, 240313, Control_c, 10, 126, 0
1, 240313, Control_c, 10, 127, 0
1, 240313, Control_c, 12, 126, 0
1, 240313, Control_c, 12, 127, 0
1, 240313, Control_c, 13, 126, 0
1, 240313, Control_c, 13, 127, 0
1, 240313, End_track
0, 0, End_of_file
